<svg xmlns="http://www.w3.org/2000/svg" xmlns:xlink="http://www.w3.org/1999/xlink" width="1015.94" height="420.131" viewBox="0 0 761.955 315.099"><defs><style>*{stroke-linejoin:round;stroke-linecap:butt}</style></defs><g id="figure_1"><path id="patch_1" d="M0 315.099h761.955V0H0v315.099z" style="fill:none"/><g id="axes_1"><path id="patch_2" d="M67.645 287.35h558V10.15h-558v277.2z" style="fill:none"/><g id="matplotlib.axis_1"><g id="xtick_1"><g id="line2d_1"><defs><path id="mecea4d20c3" d="M0 0v3.5" style="stroke:#b0b0b0;stroke-width:.4"/></defs><use xlink:href="#mecea4d20c3" x="102.25" y="287.349" style="fill:#b0b0b0;stroke:#b0b0b0;stroke-width:.4"/></g><g id="text_1" style="fill:#b0b0b0" transform="matrix(.14 0 0 -.14 73.002 304.987)"><defs><path id="DejaVuSans-32" d="M1228 531h2203V0H469v531q359 372 979 998 621 627 780 809 303 340 423 576 121 236 121 464 0 372-261 606-261 235-680 235-297 0-627-103-329-103-704-313v638q381 153 712 231 332 78 607 78 725 0 1156-363 431-362 431-968 0-288-108-546-107-257-392-607-78-91-497-524-418-433-1181-1211z" transform="scale(.01563)"/><path id="DejaVuSans-30" d="M2034 4250q-487 0-733-480-245-479-245-1442 0-959 245-1439 246-480 733-480 491 0 736 480 246 480 246 1439 0 963-246 1442-245 480-736 480zm0 500q785 0 1199-621 414-620 414-1801 0-1178-414-1799Q2819-91 2034-91q-784 0-1198 620-414 621-414 1799 0 1181 414 1801 414 621 1198 621z" transform="scale(.01563)"/><path id="DejaVuSans-2d" d="M313 2009h1684v-512H313v512z" transform="scale(.01563)"/><path id="DejaVuSans-34" d="M2419 4116 825 1625h1594v2491zm-166 550h794V1625h666v-525h-666V0h-628v1100H313v609l1940 2957z" transform="scale(.01563)"/></defs><use xlink:href="#DejaVuSans-32"/><use xlink:href="#DejaVuSans-30" x="63.623"/><use xlink:href="#DejaVuSans-32" x="127.246"/><use xlink:href="#DejaVuSans-30" x="190.869"/><use xlink:href="#DejaVuSans-2d" x="254.492"/><use xlink:href="#DejaVuSans-30" x="290.576"/><use xlink:href="#DejaVuSans-34" x="354.199"/></g></g><g id="xtick_2"><use xlink:href="#mecea4d20c3" id="line2d_2" x="151.453" y="287.349" style="fill:#b0b0b0;stroke:#b0b0b0;stroke-width:.4"/><g id="text_2" style="fill:#b0b0b0" transform="matrix(.14 0 0 -.14 122.205 304.987)"><defs><path id="DejaVuSans-37" d="M525 4666h3000v-269L1831 0h-659l1594 4134H525v532z" transform="scale(.01563)"/></defs><use xlink:href="#DejaVuSans-32"/><use xlink:href="#DejaVuSans-30" x="63.623"/><use xlink:href="#DejaVuSans-32" x="127.246"/><use xlink:href="#DejaVuSans-30" x="190.869"/><use xlink:href="#DejaVuSans-2d" x="254.492"/><use xlink:href="#DejaVuSans-30" x="290.576"/><use xlink:href="#DejaVuSans-37" x="354.199"/></g></g><g id="xtick_3"><use xlink:href="#mecea4d20c3" id="line2d_3" x="201.197" y="287.349" style="fill:#b0b0b0;stroke:#b0b0b0;stroke-width:.4"/><g id="text_3" style="fill:#b0b0b0" transform="matrix(.14 0 0 -.14 171.95 304.987)"><defs><path id="DejaVuSans-31" d="M794 531h1031v3560L703 3866v575l1116 225h631V531h1031V0H794v531z" transform="scale(.01563)"/></defs><use xlink:href="#DejaVuSans-32"/><use xlink:href="#DejaVuSans-30" x="63.623"/><use xlink:href="#DejaVuSans-32" x="127.246"/><use xlink:href="#DejaVuSans-30" x="190.869"/><use xlink:href="#DejaVuSans-2d" x="254.492"/><use xlink:href="#DejaVuSans-31" x="290.576"/><use xlink:href="#DejaVuSans-30" x="354.199"/></g></g><g id="xtick_4"><use xlink:href="#mecea4d20c3" id="line2d_4" x="250.942" y="287.349" style="fill:#b0b0b0;stroke:#b0b0b0;stroke-width:.4"/><g id="text_4" style="fill:#b0b0b0" transform="matrix(.14 0 0 -.14 221.694 304.987)"><use xlink:href="#DejaVuSans-32"/><use xlink:href="#DejaVuSans-30" x="63.623"/><use xlink:href="#DejaVuSans-32" x="127.246"/><use xlink:href="#DejaVuSans-31" x="190.869"/><use xlink:href="#DejaVuSans-2d" x="254.492"/><use xlink:href="#DejaVuSans-30" x="290.576"/><use xlink:href="#DejaVuSans-31" x="354.199"/></g></g><g id="xtick_5"><use xlink:href="#mecea4d20c3" id="line2d_5" x="299.604" y="287.349" style="fill:#b0b0b0;stroke:#b0b0b0;stroke-width:.4"/><g id="text_5" style="fill:#b0b0b0" transform="matrix(.14 0 0 -.14 270.356 304.987)"><use xlink:href="#DejaVuSans-32"/><use xlink:href="#DejaVuSans-30" x="63.623"/><use xlink:href="#DejaVuSans-32" x="127.246"/><use xlink:href="#DejaVuSans-31" x="190.869"/><use xlink:href="#DejaVuSans-2d" x="254.492"/><use xlink:href="#DejaVuSans-30" x="290.576"/><use xlink:href="#DejaVuSans-34" x="354.199"/></g></g><g id="xtick_6"><use xlink:href="#mecea4d20c3" id="line2d_6" x="348.808" y="287.349" style="fill:#b0b0b0;stroke:#b0b0b0;stroke-width:.4"/><g id="text_6" style="fill:#b0b0b0" transform="matrix(.14 0 0 -.14 319.56 304.987)"><use xlink:href="#DejaVuSans-32"/><use xlink:href="#DejaVuSans-30" x="63.623"/><use xlink:href="#DejaVuSans-32" x="127.246"/><use xlink:href="#DejaVuSans-31" x="190.869"/><use xlink:href="#DejaVuSans-2d" x="254.492"/><use xlink:href="#DejaVuSans-30" x="290.576"/><use xlink:href="#DejaVuSans-37" x="354.199"/></g></g><g id="xtick_7"><use xlink:href="#mecea4d20c3" id="line2d_7" x="398.552" y="287.349" style="fill:#b0b0b0;stroke:#b0b0b0;stroke-width:.4"/><g id="text_7" style="fill:#b0b0b0" transform="matrix(.14 0 0 -.14 369.304 304.987)"><use xlink:href="#DejaVuSans-32"/><use xlink:href="#DejaVuSans-30" x="63.623"/><use xlink:href="#DejaVuSans-32" x="127.246"/><use xlink:href="#DejaVuSans-31" x="190.869"/><use xlink:href="#DejaVuSans-2d" x="254.492"/><use xlink:href="#DejaVuSans-31" x="290.576"/><use xlink:href="#DejaVuSans-30" x="354.199"/></g></g><g id="xtick_8"><use xlink:href="#mecea4d20c3" id="line2d_8" x="448.296" y="287.349" style="fill:#b0b0b0;stroke:#b0b0b0;stroke-width:.4"/><g id="text_8" style="fill:#b0b0b0" transform="matrix(.14 0 0 -.14 419.048 304.987)"><use xlink:href="#DejaVuSans-32"/><use xlink:href="#DejaVuSans-30" x="63.623"/><use xlink:href="#DejaVuSans-32" x="127.246"/><use xlink:href="#DejaVuSans-32" x="190.869"/><use xlink:href="#DejaVuSans-2d" x="254.492"/><use xlink:href="#DejaVuSans-30" x="290.576"/><use xlink:href="#DejaVuSans-31" x="354.199"/></g></g><g id="xtick_9"><use xlink:href="#mecea4d20c3" id="line2d_9" x="496.959" y="287.349" style="fill:#b0b0b0;stroke:#b0b0b0;stroke-width:.4"/><g id="text_9" style="fill:#b0b0b0" transform="matrix(.14 0 0 -.14 467.711 304.987)"><use xlink:href="#DejaVuSans-32"/><use xlink:href="#DejaVuSans-30" x="63.623"/><use xlink:href="#DejaVuSans-32" x="127.246"/><use xlink:href="#DejaVuSans-32" x="190.869"/><use xlink:href="#DejaVuSans-2d" x="254.492"/><use xlink:href="#DejaVuSans-30" x="290.576"/><use xlink:href="#DejaVuSans-34" x="354.199"/></g></g><g id="xtick_10"><use xlink:href="#mecea4d20c3" id="line2d_10" x="546.162" y="287.349" style="fill:#b0b0b0;stroke:#b0b0b0;stroke-width:.4"/><g id="text_10" style="fill:#b0b0b0" transform="matrix(.14 0 0 -.14 516.914 304.987)"><use xlink:href="#DejaVuSans-32"/><use xlink:href="#DejaVuSans-30" x="63.623"/><use xlink:href="#DejaVuSans-32" x="127.246"/><use xlink:href="#DejaVuSans-32" x="190.869"/><use xlink:href="#DejaVuSans-2d" x="254.492"/><use xlink:href="#DejaVuSans-30" x="290.576"/><use xlink:href="#DejaVuSans-37" x="354.199"/></g></g><g id="xtick_11"><use xlink:href="#mecea4d20c3" id="line2d_11" x="595.907" y="287.349" style="fill:#b0b0b0;stroke:#b0b0b0;stroke-width:.4"/><g id="text_11" style="fill:#b0b0b0" transform="matrix(.14 0 0 -.14 566.659 304.987)"><use xlink:href="#DejaVuSans-32"/><use xlink:href="#DejaVuSans-30" x="63.623"/><use xlink:href="#DejaVuSans-32" x="127.246"/><use xlink:href="#DejaVuSans-32" x="190.869"/><use xlink:href="#DejaVuSans-2d" x="254.492"/><use xlink:href="#DejaVuSans-31" x="290.576"/><use xlink:href="#DejaVuSans-30" x="354.199"/></g></g></g><g id="matplotlib.axis_2"><g id="ytick_1"><path id="line2d_12" d="M67.645 287.35h558" clip-path="url(#pa329f0b8dd)" style="fill:none;stroke:#b0b0b0;stroke-width:.3;stroke-linecap:square"/><g id="line2d_13"><defs><path id="maa48ee205e" d="M0 0h-3.5" style="stroke:#b0b0b0;stroke-width:.3"/></defs><use xlink:href="#maa48ee205e" x="67.645" y="287.349" style="fill:#b0b0b0;stroke:#b0b0b0;stroke-width:.3"/></g><use xlink:href="#DejaVuSans-30" id="text_12" style="fill:#b0b0b0" transform="matrix(.14 0 0 -.14 51.737 292.668)"/></g><g id="ytick_2"><path id="line2d_14" d="M67.645 252.995h558" clip-path="url(#pa329f0b8dd)" style="fill:none;stroke:#b0b0b0;stroke-width:.3;stroke-linecap:square"/><use xlink:href="#maa48ee205e" id="line2d_15" x="67.645" y="252.995" style="fill:#b0b0b0;stroke:#b0b0b0;stroke-width:.3"/><g id="text_13" style="fill:#b0b0b0" transform="matrix(.14 0 0 -.14 7.2 258.314)"><use xlink:href="#DejaVuSans-31"/><use xlink:href="#DejaVuSans-30" x="63.623"/><use xlink:href="#DejaVuSans-30" x="127.246"/><use xlink:href="#DejaVuSans-30" x="190.869"/><use xlink:href="#DejaVuSans-30" x="254.492"/><use xlink:href="#DejaVuSans-30" x="318.115"/></g></g><g id="ytick_3"><path id="line2d_16" d="M67.645 218.642h558" clip-path="url(#pa329f0b8dd)" style="fill:none;stroke:#b0b0b0;stroke-width:.3;stroke-linecap:square"/><use xlink:href="#maa48ee205e" id="line2d_17" x="67.645" y="218.642" style="fill:#b0b0b0;stroke:#b0b0b0;stroke-width:.3"/><g id="text_14" style="fill:#b0b0b0" transform="matrix(.14 0 0 -.14 7.2 223.96)"><use xlink:href="#DejaVuSans-32"/><use xlink:href="#DejaVuSans-30" x="63.623"/><use xlink:href="#DejaVuSans-30" x="127.246"/><use xlink:href="#DejaVuSans-30" x="190.869"/><use xlink:href="#DejaVuSans-30" x="254.492"/><use xlink:href="#DejaVuSans-30" x="318.115"/></g></g><g id="ytick_4"><path id="line2d_18" d="M67.645 184.288h558" clip-path="url(#pa329f0b8dd)" style="fill:none;stroke:#b0b0b0;stroke-width:.3;stroke-linecap:square"/><use xlink:href="#maa48ee205e" id="line2d_19" x="67.645" y="184.288" style="fill:#b0b0b0;stroke:#b0b0b0;stroke-width:.3"/><g id="text_15" style="fill:#b0b0b0" transform="matrix(.14 0 0 -.14 7.2 189.607)"><defs><path id="DejaVuSans-33" d="M2597 2516q453-97 707-404 255-306 255-756 0-690-475-1069Q2609-91 1734-91q-293 0-604 58T488 141v609q262-153 574-231 313-78 654-78 593 0 904 234t311 681q0 413-289 645-289 233-804 233h-544v519h569q465 0 712 186t247 536q0 359-255 551-254 193-729 193-260 0-557-57-297-56-653-174v562q360 100 674 150t592 50q719 0 1137-327 419-326 419-882 0-388-222-655t-631-370z" transform="scale(.01563)"/></defs><use xlink:href="#DejaVuSans-33"/><use xlink:href="#DejaVuSans-30" x="63.623"/><use xlink:href="#DejaVuSans-30" x="127.246"/><use xlink:href="#DejaVuSans-30" x="190.869"/><use xlink:href="#DejaVuSans-30" x="254.492"/><use xlink:href="#DejaVuSans-30" x="318.115"/></g></g><g id="ytick_5"><path id="line2d_20" d="M67.645 149.934h558" clip-path="url(#pa329f0b8dd)" style="fill:none;stroke:#b0b0b0;stroke-width:.3;stroke-linecap:square"/><use xlink:href="#maa48ee205e" id="line2d_21" x="67.645" y="149.934" style="fill:#b0b0b0;stroke:#b0b0b0;stroke-width:.3"/><g id="text_16" style="fill:#b0b0b0" transform="matrix(.14 0 0 -.14 7.2 155.253)"><use xlink:href="#DejaVuSans-34"/><use xlink:href="#DejaVuSans-30" x="63.623"/><use xlink:href="#DejaVuSans-30" x="127.246"/><use xlink:href="#DejaVuSans-30" x="190.869"/><use xlink:href="#DejaVuSans-30" x="254.492"/><use xlink:href="#DejaVuSans-30" x="318.115"/></g></g><g id="ytick_6"><path id="line2d_22" d="M67.645 115.58h558" clip-path="url(#pa329f0b8dd)" style="fill:none;stroke:#b0b0b0;stroke-width:.3;stroke-linecap:square"/><use xlink:href="#maa48ee205e" id="line2d_23" x="67.645" y="115.58" style="fill:#b0b0b0;stroke:#b0b0b0;stroke-width:.3"/><g id="text_17" style="fill:#b0b0b0" transform="matrix(.14 0 0 -.14 7.2 120.9)"><defs><path id="DejaVuSans-35" d="M691 4666h2478v-532H1269V2991q137 47 274 70 138 23 276 23 781 0 1237-428 457-428 457-1159 0-753-469-1171Q2575-91 1722-91q-294 0-599 50Q819 9 494 109v635q281-153 581-228t634-75q541 0 856 284 316 284 316 772 0 487-316 771-315 285-856 285-253 0-505-56-251-56-513-175v2344z" transform="scale(.01563)"/></defs><use xlink:href="#DejaVuSans-35"/><use xlink:href="#DejaVuSans-30" x="63.623"/><use xlink:href="#DejaVuSans-30" x="127.246"/><use xlink:href="#DejaVuSans-30" x="190.869"/><use xlink:href="#DejaVuSans-30" x="254.492"/><use xlink:href="#DejaVuSans-30" x="318.115"/></g></g><g id="ytick_7"><path id="line2d_24" d="M67.645 81.226h558" clip-path="url(#pa329f0b8dd)" style="fill:none;stroke:#b0b0b0;stroke-width:.3;stroke-linecap:square"/><use xlink:href="#maa48ee205e" id="line2d_25" x="67.645" y="81.226" style="fill:#b0b0b0;stroke:#b0b0b0;stroke-width:.3"/><g id="text_18" style="fill:#b0b0b0" transform="matrix(.14 0 0 -.14 7.2 86.545)"><defs><path id="DejaVuSans-36" d="M2113 2584q-425 0-674-291-248-290-248-796 0-503 248-796 249-292 674-292t673 292q248 293 248 796 0 506-248 796-248 291-673 291zm1253 1979v-575q-238 112-480 171-242 60-480 60-625 0-955-422-329-422-376-1275 184 272 462 417 279 145 613 145 703 0 1111-427 408-426 408-1160 0-719-425-1154Q2819-91 2113-91q-810 0-1238 620-428 621-428 1799 0 1106 525 1764t1409 658q238 0 480-47t505-140z" transform="scale(.01563)"/></defs><use xlink:href="#DejaVuSans-36"/><use xlink:href="#DejaVuSans-30" x="63.623"/><use xlink:href="#DejaVuSans-30" x="127.246"/><use xlink:href="#DejaVuSans-30" x="190.869"/><use xlink:href="#DejaVuSans-30" x="254.492"/><use xlink:href="#DejaVuSans-30" x="318.115"/></g></g><g id="ytick_8"><path id="line2d_26" d="M67.645 46.873h558" clip-path="url(#pa329f0b8dd)" style="fill:none;stroke:#b0b0b0;stroke-width:.3;stroke-linecap:square"/><use xlink:href="#maa48ee205e" id="line2d_27" x="67.645" y="46.873" style="fill:#b0b0b0;stroke:#b0b0b0;stroke-width:.3"/><g id="text_19" style="fill:#b0b0b0" transform="matrix(.14 0 0 -.14 7.2 52.192)"><use xlink:href="#DejaVuSans-37"/><use xlink:href="#DejaVuSans-30" x="63.623"/><use xlink:href="#DejaVuSans-30" x="127.246"/><use xlink:href="#DejaVuSans-30" x="190.869"/><use xlink:href="#DejaVuSans-30" x="254.492"/><use xlink:href="#DejaVuSans-30" x="318.115"/></g></g><g id="ytick_9"><path id="line2d_28" d="M67.645 12.519h558" clip-path="url(#pa329f0b8dd)" style="fill:none;stroke:#b0b0b0;stroke-width:.3;stroke-linecap:square"/><use xlink:href="#maa48ee205e" id="line2d_29" x="67.645" y="12.519" style="fill:#b0b0b0;stroke:#b0b0b0;stroke-width:.3"/><g id="text_20" style="fill:#b0b0b0" transform="matrix(.14 0 0 -.14 7.2 17.838)"><defs><path id="DejaVuSans-38" d="M2034 2216q-450 0-708-241-257-241-257-662 0-422 257-663 258-241 708-241t709 242q260 243 260 662 0 421-258 662-257 241-711 241zm-631 268q-406 100-633 378-226 279-226 679 0 559 398 884 399 325 1092 325 697 0 1094-325t397-884q0-400-227-679-226-278-629-378 456-106 710-416 255-309 255-755 0-679-414-1042Q2806-91 2034-91q-771 0-1186 362-414 363-414 1042 0 446 256 755 257 310 713 416zm-231 997q0-362 226-565 227-203 636-203 407 0 636 203 230 203 230 565 0 363-230 566-229 203-636 203-409 0-636-203-226-203-226-566z" transform="scale(.01563)"/></defs><use xlink:href="#DejaVuSans-38"/><use xlink:href="#DejaVuSans-30" x="63.623"/><use xlink:href="#DejaVuSans-30" x="127.246"/><use xlink:href="#DejaVuSans-30" x="190.869"/><use xlink:href="#DejaVuSans-30" x="254.492"/><use xlink:href="#DejaVuSans-30" x="318.115"/></g></g></g><path id="line2d_30" d="m67.645 287.349 37.308-.103 10.814-.019 14.058.11 23.25-.047 12.436-.207 8.11-.175 6.49.119 19.464.173 7.57-.029 13.517-.1 14.059-.49 7.029-.12 7.029-.23 2.163-.085 1.08.03 1.623-.219 1.081-.383 1.082-.38 1.081-.059 2.163.133 3.244.15 2.704.458 5.407.656 4.325.308 11.355.153 5.948-.058 5.947-.202 9.192-.587 5.948-.453 4.325-.155 1.082.16 4.866-.521 13.517 1.412 4.867.242 3.244.018 9.192-.182 2.703-.222 3.785-.453 1.082-.08 1.08-.31 1.082-.492 2.163-1.198 3.785-1.473.54.067 1.082-.267 1.622-.615.54-.139 1.082-.856 1.622-.842.541-.219 1.622-.186 1.082.097 2.162.638.541.216 6.488 3.952 4.326 1.607 1.622.425 1.622.214 1.082.065 1.622.201 2.703.193 4.866.168 23.25.158 19.466-.15 1.081-.147 1.081-.474 1.082-.77 1.081-.528.54-.527 1.082-1.483 1.622-2.401 2.163-5.366 1.082-2.61.54-1.17 3.244-9.019 1.082-1.727 1.622-3.195.54-.854.541-.583.541-.345.54-.957.541-.143.541.231.54-.008.541 1.66.541.617.54.387.542.834 1.622 1.083.54-.642 1.082.694.54.715.541.52.54 1.666.542 1.082 1.08.843.542.04.54.209.541.38.54-.444.541.096 1.082.894 1.081 1.253 2.163 1.668 1.622.527 1.622.998 1.082 1.081.54.235.541 1.511.54.812 1.082.269 1.622-.426.54-1.2.542-.6 4.866-.887 1.081-.278 2.163-.507.54.12.541.25 2.163 1.835 1.082.73.54.179 2.163.107 1.081.572.541.926.54.571.542.274.54.493 1.622 2.737 1.082-1.452 1.081-1.01 1.622-2.884.541-.005 1.622.93 1.081.315 1.082.28 1.622.537 1.081.767 3.245 2.954 1.08.934 1.082.643 1.082.393 1.622.562 1.081.225 4.326.383 1.622-.095 2.163-.288 1.081-.493 1.622-1.09 1.082-.798.54-.827 1.082-2.309 1.081-2.794.54-1.511.541-1 .541-1.951 1.622-7.452 1.082-5.259.54-1.913.541.456.54-2.848 2.163-16.757.541-2.471.54-6.366 1.082-5.101 1.082-2.332.54-1.044 1.082-1.357.54-1.968.541-.275.54-.608.542-.258.54-.424.541.09 1.622-.173.54 3.188.541 2.152.541 1.378.54-.034.542 2.274.54.929.54-.755.542-4.529.54-3.413.541-2.346.54-.12.541-2.077.541-.595.54 1.7 1.623 10.314.54 2.213.541 2.742 1.622 10.167 1.082 5.245.54 1.368 1.623 5.774 1.622 4.294.54.742 1.082 2.656 1.081 2.451 1.082 1.924.54.726.541 2.741.54 1.493.541.417.541.595.54 1.558.541.848.541-.27.54-.588.542.973.54 1.728.54 1.334.542.178.54.856.541 1.392.54.196 2.164 1.638.54.32.54.104.542 1.305.54-.203.541-.601 1.622-1.099.54-.114.541-1.432.541.096.54.47.542.246 1.081-.012.54-.073 1.082-.596 1.081-.701 1.082-.986.54-.27 1.082-1.849.54-1.214.541.255 1.082-2.72.54-.456 1.082-1.626.54-.545.541-1.965.54-.26.542-.123.54-.291 1.622-2.54 1.082-1.083.54-.434.541-.239 1.082-2.31.54 1.546.541-1.573h0" clip-path="url(#pa329f0b8dd)" style="fill:none;stroke:#53a577;stroke-width:1.5;stroke-linecap:square"/><path id="line2d_31" d="m67.645 287.35 24.872-.109 4.326-.251 8.65-1.28 2.704.048 1.622.115 5.948-.121 4.326.151 5.947.47 3.245.126 3.784.275 6.489.21 17.843.158 9.192-.044 18.383-.22 2.704-.159 3.785-.422 1.081-.015 2.163-.172 1.081-.113 1.622-.356 1.623-.293.54.016 1.082-.155 1.081-.02.54-.335.541-.847 2.704-1.989.54-.112.541.494 1.082-.2.54-.274 1.622-.207 1.623-.641.54-.341.541-.11 1.622-.716 1.081-.177.541.098 2.163-.394 1.622.21 1.622-.15.54.131 1.082-.136.54.108.542-.46 1.622-.505 1.081.017.54.166.542.52 2.703 1.716.54.068 2.704 1.2.54-.106 1.082.23 1.622-.316.541-.118 1.081.032 1.623-.856.54-.058 1.082-.579.54-.424.541-.708 1.081-.617.541-.862.54-.642 1.082-1.595 1.082-.388.54-.374.541.18.54-.393.541-.798.541-.534 1.082-1.838 1.08-2.243.542-.858.54-.383.541-.604.54.157.541-.722 1.082-.103 1.081 1.377.54.73.542.197.54.604 1.082 1.717.54.426.541.6 1.081.956.541.764 1.082.803 1.622 2.074 1.081.998 1.081.942 1.623.635 1.622 1.132 4.866 2.253 3.244.527.54-.043 2.164.516 1.081.332.54.255 1.082.277 1.081.292 2.163.162 6.489.132 3.244.012 6.488.875.54.403 1.623.026 1.622.025.54-.372 4.326.062 12.436.09.541.238 2.704-.05.54-.018.541-.235 4.866-.455 8.11-1.658 2.164-.541 1.08-.64.542-.248 1.622-1.26 1.081-.906 1.081-1.101.541-.322.54-.457.542-.22 1.081-.72.54-.22 1.623-1.173 1.081-.75.54-.495 1.082-1.607.541-1.099.54-.82.541-.272.541-.502.54-.096.541.42.541.78 1.082 2.05.54.751 1.082 2.046 1.081.782 1.081.53 1.082.197.54-.167.541.042 4.326-.798 1.622-.168 1.622-.554 2.163-.799 1.081-.287 1.082-.117 1.081-.06.54.268 1.082-.061.54.007 1.623-.622.54-.714 1.082-.417.54.02 1.082.647 1.081.904 1.623 1.493.54.22 1.082-.06 1.081-.49.54-.191.541-.454.541-.155.54-.025 1.623-.445 1.081-.07 1.622.238 1.082.232 1.081-.379.54-.02.542-.49 2.703-1.05.54-.457.541-.168 1.082-1 1.081-.632 1.082-.568.54-.108.541.293.54.618.541-.008.541.23.54.602 1.082.482.54.053.542-.175.54.492 1.082.25 2.162 1.734 1.082.134 3.244-1.86.54.068 1.623-.618 1.081-.41 1.082-.521.54.045.541-.251.54.014 1.623.403 1.622-.614.54-.087 1.623-1.015.54-.149.541.148.54-.363.542-.53 1.08-.372.542-.696.54-1.328 2.704-8.86 2.703-7.596.541-1.82.54-.775.541-2.394 1.082-7.088.54-3.391.541-2.029.54-.801 1.082-8.15.541-.592 1.081.93.541 1.062.54-.322.541 2.182.541 5.225 1.082 6.812.54 3.909 1.622 9.143 1.082 2.285.54-.08 1.082.384 1.081-.492.54-.038.542.284.54.539 1.082.585.54.606.541-36.94.54-.873.541.728.541.073.54.33 1.082 1.05.541 38.488.54 2.275.541.963.541-3.375.54 1.166 1.082 1.333 1.082 2.091.54.673.541 5.472.54.55.541.33.541.5 1.081.378 1.623 2.127 1.08 3.447.542-2.15.54-2.847 1.082-.57.54-.633h1.082l.54-2.178.541 1.792.54-1.146.542-1.907.54-1.382h1.082l.54-2.197.541-2.823.54-1.241.541-.317.541-.984h1.082l.54-2.686.541 1.227 1.081-.958.541.73h1.081l1.082 1.238.54.693.541 1.303.541.414h1.081l.541 3.533.54 1.493.541 1.836 1.082 2.66h1.081l.54 2.554 1.082 1.302.541.75.54 2.06h1.082l.54 4.484.542-3.82 1.08 1.072.542-1.174h1.081l.54-2.216.541 4.883 1.622 1.343 1.082-.003.54 2.21.541-.913 1.082.104 1.622.05.54-1.283.541 1.215.54.42.542-.155.54.245 1.622.112 1.622.258 3.245.09.54.864 1.082.083h.54l.541.398 1.082.077.54-.206.54.24h1.082l.541-.77.54-.217 1.623-1.392h1.081l.54.263.542-.088.54-.598 1.622-.264h.541l.54-.435 1.082-.547 1.082-.463 1.081-.018.54-.502 2.163-1.096 1.082.018.54 2.323.541 1 .54-5.092 1.082 2.155 2.163.031.54-2.382 3.245.014.54 2.633 3.245.022.54 2.274 3.245.029.54 1.346 2.704-.01.54.015.541.613 3.245.015.54.592 3.244.005.541 1.958.54-1.574 2.704-.006.541-1.4.54 1.573 2.704.014.54 1.4.542-1.607 7.029.075.54-.282 3.245-.03.54-.695 3.244.034.541-.566 2.163-.024 4.866-.02.54.335 3.245-.015.54.676 3.245.023.54.555 3.245-.002.54.362 4.867.03 2.163.018.54-17.839.541.003h0" clip-path="url(#pa329f0b8dd)" style="fill:none;stroke:#89f9c9;stroke-width:1.5;stroke-linecap:square"/><path id="line2d_32" d="m67.645 287.349 16.762-.104 3.785-.105 8.11.174 11.355.02 25.412.002 108.14-.262 4.866-.072 4.867.019 9.191.158 10.274.038 32.982-.068 10.814-.03 9.192.016 6.488.007 12.977.049 8.651-.126 6.489-.21 20.005-.133 6.489.052 8.11-.08 1.622.008 3.245-.265 1.622.081 4.866.203 6.488.162 3.245-.13 4.325-.151 5.948-.122 8.11-.586 3.244-.457 2.163-.332 3.244-.103 3.785.268 2.704.38 3.785.39 2.162.07 2.163-.084 2.163-.2 2.704-.704.54-.22 1.082-.742 4.325-3.734 2.163-3.758 1.622-4.27 2.163-3.734 1.081-3.92 1.082-5.064 1.081-4.375.54-2.08 1.082-7.749 2.163-10.947 1.622-5.694 1.081-9.279 1.082-7.418.54-3.127 1.082-12.364.54-.792 1.082-11.576.54-4.862.541-7.833.541-2.861.54-14.418.541-6.088.541.114.54.76.542 4.936.54.423.541-4.416.54 11.078.541 3.318.541 2.25.54.814.541 1.078.541.311 2.163 13.334.54 4.114.541 2.945.541 3.994.54 6.787.541 4.707 1.623 10.96.54 1.78.54 2.714 1.082 8.207 1.622 11.218.541 2.119 1.082 8.653.54 2.827.54 2.198 1.082 2.981.541.657 1.081 3.566.541 4.457.54-1.324 1.082 2.9.54.702 1.082 2.797.541-2.074.54 3.988.541.182 1.082-.137.54.055 1.082.566.54-.28.541.491.541.718.54.359 1.082 1.345 1.622 1.04.54.3.542.164 3.244 2.438.54.188 1.623 1.286 1.08.315 1.082.193.541.54.54.12.541-.11 1.622.455.541.058.54-.176 1.623.5 1.622.156 3.785.07 1.081-.1 1.622-.41 1.082-.326 1.622-1.281 2.163-1.775 2.163-3.94 1.08-2.01.542-.667 1.622-5.118 1.081-2.796.54-1.231.541-.47 1.082-2.432 1.081-1.663.541-.658 1.081-.833.541-.61 1.081-1.925 1.623-4.327.54-.52 1.082-3.435.54-1.44 1.622-2.151.541-.333.54 3.224.542-1.42.54-2.025.54-.495.542-.237.54.425.541.149.54-3.238.541 2.036.541 3.2 1.082 3.508.54 1.26.54.78 1.623 4.986.54.566 1.082 1.427.54.274 1.082 1.68.54.437.542.988 1.081 3.967.54.03.541 2.082.541 4.195.54-4.551.541.862.541-.034.54-.321.542.86.54.464.541-2.024.54 6.496.541 1.117.541.691.54.44.541.258.541.417.54.25 2.704.46.541 1.125 1.081.18 2.163 1.121.54.047.542.206.54.083 1.082-.23 1.081-.288.54-.87 1.623.07 1.622-.594 3.244-3.01.54-.207 1.623-1.987.54-.37 1.082-.281.54-.008.541-.192 1.082-.797 2.163-2.029.54-.52.541-.202.54-.004 1.082.437 1.082.153h.54l2.163-.68h0" clip-path="url(#pa329f0b8dd)" style="fill:none;stroke:#2f618f;stroke-width:1.5;stroke-linecap:square"/><path id="line2d_33" d="m67.645 287.349 23.79-.091 3.786-.335 1.081-.063 1.622-.23 1.622-.276.54-.145 1.082-.063.541-.265.54-.092.541.09.541-.071.54 1.066 1.082.169.54.306h1.623l.54-.523.541-2.45.541-.023.54-1.027.541.031.541-.431 1.082-.132.54 2.437.54.034.542.725.54.07.541.7.54-.044 1.082.127 1.081-.084.541.16.54-.144 1.082.156.541.013 1.081.252.541-.274 8.651.28 4.326-.15 1.622.008.54.167 1.082-.05 1.081.055 1.082-.052.54-.19.541.197 5.948-.016 20.546-.17 5.948-.216 2.163-.144 1.081-.302.54.202 1.623-.197 1.622-.197 1.082-.138.54.171.54-.315 1.082-.229 1.622-.161.541-.334.54.201 1.082-.214 5.948-.791.54-.024 1.623-.496.54.038 1.082-.256.54-.279 1.082-.173 1.081.056.54.102.542-.056 1.081.322 2.704-.657.54-.215 1.082-.92 2.162-.658.541-.606 1.081-.494.541-.68 1.622-.798.541-.543 1.081-1.489.541 1.14.54-2.882.541-.691.541-.498 1.082-.61.54.498 1.622-5.437.541 4.106 1.081-1.112.541-2.53.54.374.542 4.155.54 2.453.54-4.05.542 1.24.54 1.807.541 2.684 1.081 1.116.541-1.128.54.371.542.578.54.043 1.082 1.39.54.246.541 1.75.54.594 1.623 1.152.54.165 1.082.11 1.081.134 1.082.042 1.081-.014.54-.275 1.623-.172 1.622-.07.54.114 3.245-.86.54-.007.541.134 1.082-.378.54.703 1.082.336.54.018.541-.566 1.082.129.54-.018.54-.178.542-.048.54-.459.541.066 1.081-.112.541-.82.54-.17 3.786-.017.54.001 1.082-.348 1.622-.298 1.081-.112 1.082.082 1.081-.05 1.622-.045 1.082-.032.54 1.167.54-1.098.542.17 1.081-.016.54.212.541.048.541-1.033.54 1.222.542-.032.54.15 2.163-.084 1.622-.488 1.081-.041.541-.318 1.082-.196.54-.085 1.082.099.54-.132.541.232 3.244-.023 2.163-.667.54-.227.541-.045 1.623-1.113.54-.493 1.622-.939.541.752.54-1.318.541-.52 1.623-1.006.54.329.54-.787.542.311 1.081-.482.54 2.084.541-2.135.541-.083.54 1.113.541 2.852.541-2.275.54 2.283.542-.06.54-1.83.541.11.54-1.525.541-2.09.541 2.896 1.081-3.473.541 4.345.54.09.542-.243.54.422 2.163.827.54.037.541.675.541.166 1.622 1.073.54.715.542.108 2.162 1.054.541.24 1.082.062 1.622.557.54.594.541.25.54-.24.541-.003 1.082.245.54 4.704h3.245l.54-3.296 2.163.274.54-.329.542.555.54-.08 1.622.622.541-.04.54.189.541-.207.541.544 1.622.39.54.024 1.623.379 5.948.346 1.081-.011 3.785-.314 3.244-.535.54.13 2.164-1.35.54-.144.541-.552.54-.988 1.623-1.68 1.081-.194 1.082-.749 1.081-.404.54.093 1.082-.376.54.14 2.704-.344.541.067 1.081-.4 1.082-.232 1.081.03.54-.303 3.786 1.314.54-.038 1.082.59.54 1.104.541-.634.541.18.54.01.541 1.271.541-.462.54.271.541-.724.541 1.094 1.082.385.54-.712.54 1.335.542-.195 1.081.432 1.081.155.541.004 1.082.456 2.703.614.54-.33.541.347 6.489.653.54-.171 3.245.036.54.398.541-.218 1.081-.075 1.623.014.54-.22.54.166 2.164-.15 3.785-.22.54.229 2.163-.558 1.081-.126.541-.514 1.082-.24.54.256 1.082-.44.54-.052 1.622-1.153.541-.853 1.082-.75.54-.1 1.082-1.123 2.162-2.578.541-.158 2.163-3.184.54-.706.541-.518.541-.152 1.081-1.115.541-.414.54-.26 1.082-.203.54-.023 3.245-1.226.54-.148.541-.465.541-.913 1.082-3.273.54-2.262.541 1.02.54-.753 1.082-11.328 1.622-18.036 1.082-3.324.54-4.524.541-6.09.54-2.766 1.082-8.862.54-11.664.541-1.298.541-4.753.54-1.452.542-2.232.54-.073.54-1.027.542.881.54-.428.541-4.733.54-3.665.541-5.837 1.082-6.695.54-1.154.541-.335.54-1.87.542.435.54 1.655 1.082 5.107.54 2.561.541 1.032.54 4.35 2.704 27.072.541 1.944.54 8.64.541 15.41.541-2.843 1.081 9.998.541 3.38.54.797.542 11.618.54-11.821.541 11.813 1.081 4.442.541 1.352.54.595.541-4.69.541 8.313 1.622 3.675.54.806.542.232 1.081 1.585.54.354 1.082.016 1.082-.162 2.162-2.555 1.082-1.5.54-.308.541-1.163.54-1.896 2.164-4.999.54-.093.541-3.132 1.622-6.343.54-2.033.541-1.417.541-.26.54-1.79.542-.734.54-1.432.541-.267 1.081.752.541-.114.54.389.541.889.541.523.54.002.542-.474.54-.264.54.322.542.932.54.22 1.082 2.212.54 1.482.541 1.031.54.281.542 8.111.54-.455 2.163 6.338.54.282.541-3.534.541 4.318 1.081 3.903.541 1.525.54 1.091.542.26.54 1.492 1.082 1.736 1.081 1.191.54.363.541.069.541.523 2.704 1.82.54.07.541.625.54-1.173 2.164 1.501.54 1.747.54.562.542 2.078.54.324.541.959 1.081-.027.541-1.685 1.622-.557.54-.997.542-.078.54-.201.541-.076.54 1.153.541-1.359.541-.725 1.622 3.477.54.304.542-8.095.54.093.541-.635.54-2.48 1.082-.005.54-5.002.541 3.98 1.623-4h1.081l1.081-5.654 1.622-7.165h1.082l.54-3.853.541-2.925 1.082-2.84.54-.792h1.082l.54-.396 1.082 2.5 1.081 14.835h1.082l.54-5.22.541 2.346.54 1.845 1.082-7.629h1.081l.541 11.184.54 2.27 1.623 4.395h1.081l.541 2.448.54 1.644 1.082 1.847.54.736h1.082l.541 1.217.54.818 1.082 1.048.54.393h1.082l.54 2.703 1.082-.904 2.163.157.54-1.89.541.968.541.712 1.082.288h1.08l1.082.231 1.622.236h1.082l.54.186 1.082.007 2.163-.19.54-.422.541-.933.54-.464.541-.658.541-.471h1.082l.54-1.03.541-.29.54-.425.541-.255.541-.433h1.081l.541-.754.54-1.148 1.623-1.827h1.081l1.622-2.19 1.082-1.328h1.081l.54-.812.542-.274.54-.062 1.082.054h1.081l.54.122 1.623.954.54.602h1.082l2.163 4.621.54 1.144h1.082l.54 1.923.541 2.927.541.298 1.081-.423h1.082l.54-.428.541-1.989.54.309.542.736.54 1.444h1.082l.54-.69.541-.442 1.081-.555.541-1.825h1.082l.54-.113 2.163-2.923h0" clip-path="url(#pa329f0b8dd)" style="fill:none;stroke:#0309a6;stroke-width:1.5;stroke-linecap:square"/><path id="line2d_34" d="m67.645 287.349 24.331-.097 2.163-.184 1.082-.311 1.622-.965 2.162-2.025.541-.6.54-.794.542-.354.54-.54.541-.773.54-1.163 1.082-1.389.54-.469 1.082-1.103.54-.185.542.224 1.08-.27 2.164.592 1.622.602 1.081.122.54-.168.542.126 1.081-.292.54.08.541-.16.541-.04.54.29 1.082.224.54.122.542-.164 1.081.307 1.622.177.54.095.541.378.541.121 1.082.474.54.028.541.212 1.622.212.54.003.541-.154.541.144.54-.136 1.082.088.54.196.542-.073 2.162.642 1.623-.12.54.066 1.082-.082.54-.327.541-.077 1.081.173 1.082.032.54-.132.541.27.54.038.542-.195.54-.056 1.622-.677 2.163-1.276.54-.436.542-.7 1.081-.998.54-.887.541-.44.541-.837 1.622-1.754.54-.771.542-.127.54-.255.54-.541.542-.102.54-.363.541-.547.54-.232 1.082-1.546.54-.308.542-.785 1.622-1.23.54.113.541-.19.54.06 1.623-.244.54.146.541-.417.54.027.542.166.54.043 1.082.35.54-.07.541.52 1.081.74.541.887.54.144 1.082.935.541.193 1.081-.67.541-.478.54.234.541-.054.541.422.54-.473.542.562.54.961 1.082 1.253.54.457.541.31.54 1.09.541.345 2.163.626.54-.26 1.082.187.541-.111 1.622.158.54.257 1.082-.123.54.25.542.433.54.73 1.082.581.54.188.541-.116 1.081-.954.541-.507 2.163-.773 1.081-.032 1.082-.184.54-.172 1.082.264.54.387 1.082-.48 1.081.241 1.082-.607 1.081.023.54-.132 1.082-1.102.54-.088.542-.288.54-.662 1.082-.522.54-.47.541-.275.54-.734.541.02.541-.265.54-1.265.542-.584.54-.109.541-.803.54-.579.541-1.14.541-.397.54.207.541-.807.541-1.324.54-.614.542-.904.54-.428 1.082-1.825.54-2.35.541-.677.54-1.83.541-1.4 1.623-5.755.54-.611.54-2.329.542-1.453.54-2.444.541-1.745.54-.937.541-1.785 2.163-5.22.54-.724.542-.33.54-1.406 1.082-.765.54 3.884.541-.688.54.495.541.274.541 1.27.54-1.172.542-.774.54-5.238.541-.982.54-2.573 1.082-3.745.54-1.406 1.082-1.718 1.082-.224 1.081-1.3.54.008.541-.906.541-.169.54-.47.541.87.541.218.54.631.542 1.053.54.658.54 1.355.542 5.939.54-.643.541 2.455.54 1.12.541-.044.541.101.54-5.018 1.082-5.229.54-3.289.542-.596.54-1.248.541-2.017.54 1.412.541-6.155.541.447.54-.332.541-.87.541.481.54 1.53 1.623 7.611.54 1.658 1.082 6.315 1.081 4.119.541 2.598 1.082 3.73.54.552.541.28.54 1.594 1.623 3.945.54 1.336.541.203 3.785 11.765.54 1.068.541 1.41.541.907 1.082 2.786.54 1.03.54 1.327.542 1.76.54 1.311.541 1.665.54 1.212 1.082 1.46.54.004.541-.687 1.082-.533.54-.003 1.082.31.54.29.541.744 2.163 1.685.54.497 1.623.861 1.081.572 1.082.366.54-.332.541.037 1.082-.129.54.068.54-.098 1.623.422.54-1.371.541-.255.541-.747.54-.272.542-.538.54-.895.54-.464.542.904.54-.464.541.11.54-.035.541.418 1.082-.135.54-.311.541-.147.54-.517.542-.287.54-.464.541.246.54-.85.541.039.541.276.54.08.541.737 1.082.336.54.903 1.082.898.54.986.541.053.541.462.54.813 1.082.939.54.417 1.623.73.54-.103 1.082.95 1.622 1.694.54.385.542.618 1.08.848 1.082.719 1.082.47 2.162 1.39 1.082 1.104 2.703 1.01 1.622 1.044.541.776.54.133 1.623 1.017.54-.107.541.064.541-.384.54.407.541-.08.541.17.54-.342.542.31 1.08.156.542.105.54.317 1.082.32 3.244-.114.54-.174 1.082.004.54-.149.541.16 1.622-.423.541.186.54.02.542.225.54-.738 1.082-.531.54-.853.541-.233.54-.368.541-1.006.541-.191 1.082-1.083.54-1.523.541-.2.54-.422.541-.96 1.082-1.479.54-1.202.541-2.099.54-.75.542-.405 1.08-2.675.542-1.262.54-.782.541-3.454 1.081-1.574 1.623-4.455.54-1.827.54-2.98.542-.944.54.476.541-2.499.54-.992.541-2.556.541-1.68.54 1.231 1.082-1.103 1.082-3.33 1.622-1.792.54-.949.541.123.54-.63.541-.2.541-.581.54-1.398.542.038.54.656.541-.384 1.081-2.283.541-.56 1.081.383.541-.351.54-.565.542 6.77.54-1.476 1.082 1.239.54-.323.541-.154.54.741.541-5.778.541 3.166.54.213.542.395.54 1.528.54.696.542.175.54 1.88.541 1.165.54 2.045.541 1.452.541 1.77.54.707.541-.473.541.76 1.082.904 1.081 1.898 1.622 1.71.54.866 1.082.893.54 1.192.542.463.54.257.541 2.343.54-.76.541.219.541.731.54 1.07.541-.051.541.384.54-.186.542 1.39.54.79.54.435.542.632.54.347.541.6.54-.63.541.735.541-.501 1.082.19.54-.097.54-.64 1.082-.137.541.774.54-.33 1.623-.405.54.124 1.082-.901.54 1.163.541-2.306.541-.438.54.25.541-1.164.541-.397.54-.848.541-2.503.541.877.54-.05 1.623-1.04.54.058 1.082 7.006.54.922.541-.176.541-2.17 1.082-2.522 1.08-10.015.542-1.94.54-.558.541.495.54.252.541-.612.541.708.54.021.542.505.54.152.54-.408.542-.044.54.181.541-.895.54-1.723.541-1.174.541-1.842 1.081-6.222.541-5.02.54-6.484.542-2.728.54-.331.541-4.565.54-12.997.541-9.322.541-12.93 1.081-28.81 1.082-10.614 1.081-48.745.541-8.087.54-12.077.541-18.043 1.082-20.25.54-15.311.541 2.104.54-8.747.542-1.011.54-.008.54-.409.542.355.54 34.151.541-17.055.54-2.769.541 6.622.541 2.584 1.082 10.996.54-12.328.54 31.428 1.623 33.056.54 6.207.541 8.323.541 18.354.54 8.152.541 17.168 1.082 23.936.54 4.598.541 5.68.541 9.48.54 5.521.541 6.884.541 5.052.54 7.194.541 1.732.541 1.26.54 8.628.542 5.07 1.622 10.19.54 1.015.541 1.745.54 4.305.541 1.046 1.082 3.142.54 3.45.541-.772.54.245.542-.835.54 2.099.541 1.524.54.884.541 1.128.541 1.596.54.29.542 1.736 1.08 1.619 2.164.52.54 1.325.541.292.54-.698.541-.307.541.841 1.082-.05.54-.34.541.112 1.081 1.043.541-.624 1.622.236.54-.1.542.089.54-.118.541.652.54-.114.541.345 1.082-.106.54-.087.541-.255.54-2.063.542-.05.54-.237h.54l.542-.503.54-.793.541.09.54 1.913 1.082.105.54-1.052.542-.16 1.08-1.195.542-2.681 2.162-1.418.541-1.08.54-.818.541 1.353 1.082-.38.54-1.258.541-.234.541-1.106.54-.55.541-3.328.541-.198.54.528.541-1.733.541-1.021.54-2.39.542-.84.54 2.05.541.52.54-1.302.541-2.344.541-.724.54-2.102.541-1.472.541-3.02.54-.49.542.97.54 1.37.54.08.542-.339.54.008.541 2.002.54.682.541.31.541 4.249.54-4.096.542-.893.54.647.54-2.404.542-.68.54-.453.541-4.775.54 3.949.541 1.474.541-.466.54 2.492.541-.352.541-.073.54.392.542-.163.54.675.541.093.54-1.601.541.86.541-.014.54 2.736.541-1.04.541-.024.54-.426.542 1.064.54-1.14.541-.206.54-3.152.541.662.541-.226.54-1.425.541-1.948.541 1.01.54.678.542 4.12.54-2.16.54-.513.542 1.404.54.938.541-.424.54-.79.541-6.134 1.082-.505.54-1.782.541-.758.54-.502.542-.248 1.081 3.286.54-.592.541-.015.541 1.07.54.631.541.312.541-1.211.54-.733.542-1.147.54-.079.541-1.367 1.081 1.01.541.97 1.081 3.959.541-.494.54 2.612 1.082.07.541.712.54-.434.541.206.541 1.198.54.455.541-3.37.541.14.54 1.596.542.389.54 2.92.54.673.542.937.54 3.564.541-.002 1.081-.663.541-.729.54.465.542-2.113 1.08.032 1.082 2.285.541-.13.54.437.541 2.748 1.082.068.54 3.564.541-1.812.54 1.496.542 1.153.54-1.773.541.062.54-.077.541-1.763.541 1.618 1.081 2.166.541 2.187 1.082.251 1.081 1.186.54.256.541.116.541-1.327 1.081-.12 1.623 1.476.54-.166.54 2.449 1.623.348.54.285.541.765.541 1.16.54-1.218 1.082.02.54.901.542-.27.54.326.541-.128.54 1.536.541.085.541-.057.54-.778.541.843.541.161.54.305.542-.935.54.03 1.082-.11.54-.004.541-.497.54-.094.541.774.541-.178.54.257 1.082-.522.541-.118 1.081-.964.541.191.54-.227.541.216.541.864.54-1.138.542.224.54 1.256.54.003.542.273.54-.47.541-1.388 1.081 1.236.541-2.07 1.082-.025 1.08.61.542-1.33 1.081 3.396h0" clip-path="url(#pa329f0b8dd)" style="fill:none;stroke:#7516fd;stroke-width:1.5;stroke-linecap:square"/><g id="text_21" style="fill:#53a577" transform="matrix(.14 0 0 -.14 642.385 244.125)"><defs><path id="DejaVuSans-4a" d="M628 4666h631V325q0-844-320-1225T-91-1281h-240v531h197q418 0 590 235 172 234 172 840v4341z" transform="scale(.01563)"/><path id="DejaVuSans-61" d="M2194 1759q-697 0-966-159t-269-544q0-306 202-486 202-179 548-179 479 0 768 339t289 901v128h-572zm1147 238V0h-575v531q-197-318-491-470T1556-91q-537 0-855 302-317 302-317 808 0 590 395 890 396 300 1180 300h807v57q0 397-261 614t-733 217q-300 0-585-72-284-72-546-216v532q315 122 612 182 297 61 578 61 760 0 1135-394 375-393 375-1193z" transform="scale(.01563)"/><path id="DejaVuSans-70" d="M1159 525v-1856H581v4831h578v-531q182 312 458 463 277 152 661 152 638 0 1036-506 399-506 399-1331T3314 415Q2916-91 2278-91q-384 0-661 152-276 152-458 464zm1957 1222q0 634-261 995t-717 361q-457 0-718-361t-261-995q0-634 261-995t718-361q456 0 717 361t261 995z" transform="scale(.01563)"/><path id="DejaVuSans-6e" d="M3513 2113V0h-575v2094q0 497-194 743-194 247-581 247-466 0-735-297-269-296-269-809V0H581v3500h578v-544q207 316 486 472 280 156 646 156 603 0 912-373 310-373 310-1098z" transform="scale(.01563)"/></defs><use xlink:href="#DejaVuSans-4a"/><use xlink:href="#DejaVuSans-61" x="29.492"/><use xlink:href="#DejaVuSans-70" x="90.771"/><use xlink:href="#DejaVuSans-61" x="154.248"/><use xlink:href="#DejaVuSans-6e" x="215.527"/></g><g id="text_22" style="fill:#89f9c9" transform="matrix(.14 0 0 -.14 642.385 258.125)"><defs><path id="DejaVuSans-55" d="M556 4666h635V1831q0-750 271-1080 272-329 882-329 606 0 878 329 272 330 272 1080v2835h634V1753q0-912-452-1378Q3225-91 2344-91q-885 0-1337 466-451 466-451 1378v2913z" transform="scale(.01563)"/><path id="DejaVuSans-69" d="M603 3500h575V0H603v3500zm0 1363h575v-729H603v729z" transform="scale(.01563)"/><path id="DejaVuSans-74" d="M1172 4494v-994h1184v-447H1172V1153q0-428 117-550t477-122h590V0h-590q-666 0-919 248-253 249-253 905v1900H172v447h422v994h578z" transform="scale(.01563)"/><path id="DejaVuSans-65" d="M3597 1894v-281H953q38-594 358-905t892-311q331 0 642 81t618 244V178Q3153 47 2828-22t-659-69q-838 0-1327 487-489 488-489 1320 0 859 464 1363 464 505 1252 505 706 0 1117-455 411-454 411-1235zm-575 169q-6 471-264 752-258 282-683 282-481 0-770-272t-333-766l2050 4z" transform="scale(.01563)"/><path id="DejaVuSans-64" d="M2906 2969v1894h575V0h-575v525q-181-312-458-464-276-152-664-152-634 0-1033 506-398 507-398 1332t398 1331q399 506 1033 506 388 0 664-152 277-151 458-463zM947 1747q0-634 261-995t717-361q456 0 718 361 263 361 263 995t-263 995q-262 361-718 361t-717-361q-261-361-261-995z" transform="scale(.01563)"/><path id="DejaVuSans-4b" d="M628 4666h631V2694l2094 1972h813L1850 2491 4331 0h-831L1259 2247V0H628v4666z" transform="scale(.01563)"/><path id="DejaVuSans-67" d="M2906 1791q0 625-258 968-257 344-723 344-462 0-720-344-258-343-258-968 0-622 258-966t720-344q466 0 723 344 258 344 258 966zm575-1357q0-893-397-1329-396-436-1215-436-303 0-572 45t-522 139v559q253-137 500-202 247-66 503-66 566 0 847 295t281 892v285q-178-310-456-463T1784 0Q1141 0 747 490 353 981 353 1791q0 812 394 1302 394 491 1037 491 388 0 666-153t456-462v531h575V434z" transform="scale(.01563)"/><path id="DejaVuSans-6f" d="M1959 3097q-462 0-731-361t-269-989q0-628 267-989 268-361 733-361 460 0 728 362 269 363 269 988 0 622-269 986-268 364-728 364zm0 487q750 0 1178-488 429-487 429-1349 0-859-429-1349Q2709-91 1959-91q-753 0-1180 489-426 490-426 1349 0 862 426 1349 427 488 1180 488z" transform="scale(.01563)"/><path id="DejaVuSans-6d" d="M3328 2828q216 388 516 572t706 184q547 0 844-383 297-382 297-1088V0h-578v2094q0 503-179 746-178 244-543 244-447 0-707-297-259-296-259-809V0h-578v2094q0 506-178 748t-550 242q-441 0-701-298-259-298-259-808V0H581v3500h578v-544q197 322 472 475t653 153q382 0 649-194 267-193 395-562z" transform="scale(.01563)"/></defs><use xlink:href="#DejaVuSans-55"/><use xlink:href="#DejaVuSans-6e" x="73.193"/><use xlink:href="#DejaVuSans-69" x="136.572"/><use xlink:href="#DejaVuSans-74" x="164.355"/><use xlink:href="#DejaVuSans-65" x="203.564"/><use xlink:href="#DejaVuSans-64" x="265.088"/><use xlink:href="#DejaVuSans-20" x="328.564"/><use xlink:href="#DejaVuSans-4b" x="360.352"/><use xlink:href="#DejaVuSans-69" x="425.928"/><use xlink:href="#DejaVuSans-6e" x="453.711"/><use xlink:href="#DejaVuSans-67" x="517.09"/><use xlink:href="#DejaVuSans-64" x="580.566"/><use xlink:href="#DejaVuSans-6f" x="644.043"/><use xlink:href="#DejaVuSans-6d" x="705.225"/></g><g id="text_23" style="fill:#2f618f" transform="matrix(.14 0 0 -.14 642.385 272.125)"><defs><path id="DejaVuSans-72" d="M2631 2963q-97 56-211 82-114 27-251 27-488 0-749-317t-261-911V0H581v3500h578v-544q182 319 472 473 291 155 707 155 59 0 131-8 72-7 159-23l3-590z" transform="scale(.01563)"/><path id="DejaVuSans-2c" d="M750 794h659V256L897-744H494L750 256v538z" transform="scale(.01563)"/><path id="DejaVuSans-53" d="M3425 4513v-616q-359 172-678 256-319 85-616 85-515 0-795-200t-280-569q0-310 186-468 186-157 705-254l381-78q706-135 1042-474t336-907q0-679-455-1029Q2797-91 1919-91q-331 0-705 75-373 75-773 222v650q384-215 753-325 369-109 725-109 540 0 834 212 294 213 294 607 0 343-211 537t-692 291l-385 75q-706 140-1022 440-315 300-315 835 0 619 436 975t1201 356q329 0 669-60 341-59 697-177z" transform="scale(.01563)"/><path id="DejaVuSans-75" d="M544 1381v2119h575V1403q0-497 193-746 194-248 582-248 465 0 735 297 271 297 271 810v1984h575V0h-575v538q-209-319-486-474-276-155-642-155-603 0-916 375-312 375-312 1097zm1447 2203z" transform="scale(.01563)"/><path id="DejaVuSans-68" d="M3513 2113V0h-575v2094q0 497-194 743-194 247-581 247-466 0-735-297-269-296-269-809V0H581v4863h578V2956q207 316 486 472 280 156 646 156 603 0 912-373 310-373 310-1098z" transform="scale(.01563)"/></defs><use xlink:href="#DejaVuSans-4b"/><use xlink:href="#DejaVuSans-6f" x="60.576"/><use xlink:href="#DejaVuSans-72" x="121.758"/><use xlink:href="#DejaVuSans-65" x="160.621"/><use xlink:href="#DejaVuSans-61" x="222.145"/><use xlink:href="#DejaVuSans-2c" x="283.424"/><use xlink:href="#DejaVuSans-20" x="315.211"/><use xlink:href="#DejaVuSans-53" x="346.998"/><use xlink:href="#DejaVuSans-6f" x="410.475"/><use xlink:href="#DejaVuSans-75" x="471.656"/><use xlink:href="#DejaVuSans-74" x="535.035"/><use xlink:href="#DejaVuSans-68" x="574.244"/></g><g id="text_24" style="fill:#0309a6" transform="matrix(.14 0 0 -.14 642.385 286.125)"><defs><path id="DejaVuSans-46" d="M628 4666h2681v-532H1259V2759h1850v-531H1259V0H628v4666z" transform="scale(.01563)"/><path id="DejaVuSans-63" d="M3122 3366v-538q-244 135-489 202t-495 67q-560 0-870-355-309-354-309-995t309-996q310-354 870-354 250 0 495 67t489 202V134Q2881 22 2623-34q-257-57-548-57-791 0-1257 497-465 497-465 1341 0 856 470 1346 471 491 1290 491 265 0 518-55 253-54 491-163z" transform="scale(.01563)"/></defs><use xlink:href="#DejaVuSans-46"/><use xlink:href="#DejaVuSans-72" x="50.27"/><use xlink:href="#DejaVuSans-61" x="91.383"/><use xlink:href="#DejaVuSans-6e" x="152.662"/><use xlink:href="#DejaVuSans-63" x="216.041"/><use xlink:href="#DejaVuSans-65" x="271.021"/></g><g id="text_25" style="fill:#7516fd" transform="matrix(.14 0 0 -.14 642.385 300.125)"><use xlink:href="#DejaVuSans-55"/><use xlink:href="#DejaVuSans-53" x="73.193"/></g></g></g><defs><clipPath id="pa329f0b8dd"><path d="M67.645 10.149h558v277.2h-558z"/></clipPath></defs></svg>