<svg xmlns="http://www.w3.org/2000/svg" xmlns:xlink="http://www.w3.org/1999/xlink" width="985.137" height="420.129" viewBox="0 0 738.852 315.096"><defs><style>*{stroke-linejoin:round;stroke-linecap:butt}</style></defs><g id="figure_1"><path id="patch_1" d="M0 315.096h738.852V0H0v315.096z" style="fill:none"/><g id="axes_1"><path id="patch_2" d="M67.645 287.347h558v-277.2h-558v277.2z" style="fill:none"/><g id="matplotlib.axis_1"><g id="xtick_1"><g id="line2d_1"><defs><path id="m6a7eca24b3" d="M0 0v3.5" style="stroke:#b0b0b0;stroke-width:.4"/></defs><use xlink:href="#m6a7eca24b3" x="116.529" y="287.347" style="fill:#b0b0b0;stroke:#b0b0b0;stroke-width:.4"/></g><g id="text_1" style="fill:#b0b0b0" transform="matrix(.14 0 0 -.14 87.28 304.985)"><defs><path id="DejaVuSans-32" d="M1228 531h2203V0H469v531q359 372 979 998 621 627 780 809 303 340 423 576 121 236 121 464 0 372-261 606-261 235-680 235-297 0-627-103-329-103-704-313v638q381 153 712 231 332 78 607 78 725 0 1156-363 431-362 431-968 0-288-108-546-107-257-392-607-78-91-497-524-418-433-1181-1211z" transform="scale(.01563)"/><path id="DejaVuSans-30" d="M2034 4250q-487 0-733-480-245-479-245-1442 0-959 245-1439 246-480 733-480 491 0 736 480 246 480 246 1439 0 963-246 1442-245 480-736 480zm0 500q785 0 1199-621 414-620 414-1801 0-1178-414-1799Q2819-91 2034-91q-784 0-1198 620-414 621-414 1799 0 1181 414 1801 414 621 1198 621z" transform="scale(.01563)"/><path id="DejaVuSans-2d" d="M313 2009h1684v-512H313v512z" transform="scale(.01563)"/><path id="DejaVuSans-35" d="M691 4666h2478v-532H1269V2991q137 47 274 70 138 23 276 23 781 0 1237-428 457-428 457-1159 0-753-469-1171Q2575-91 1722-91q-294 0-599 50Q819 9 494 109v635q281-153 581-228t634-75q541 0 856 284 316 284 316 772 0 487-316 771-315 285-856 285-253 0-505-56-251-56-513-175v2344z" transform="scale(.01563)"/></defs><use xlink:href="#DejaVuSans-32"/><use xlink:href="#DejaVuSans-30" x="63.623"/><use xlink:href="#DejaVuSans-32" x="127.246"/><use xlink:href="#DejaVuSans-30" x="190.869"/><use xlink:href="#DejaVuSans-2d" x="254.492"/><use xlink:href="#DejaVuSans-30" x="290.576"/><use xlink:href="#DejaVuSans-35" x="354.199"/></g></g><g id="xtick_2"><use xlink:href="#m6a7eca24b3" id="line2d_2" x="180.493" y="287.347" style="fill:#b0b0b0;stroke:#b0b0b0;stroke-width:.4"/><g id="text_2" style="fill:#b0b0b0" transform="matrix(.14 0 0 -.14 151.245 304.985)"><defs><path id="DejaVuSans-39" d="M703 97v575q238-113 481-172 244-59 479-59 625 0 954 420 330 420 377 1277-181-269-460-413-278-144-615-144-700 0-1108 423-408 424-408 1159 0 718 425 1152 425 435 1131 435 810 0 1236-621 427-620 427-1801 0-1103-524-1761Q2575-91 1691-91q-238 0-482 47Q966 3 703 97zm1256 1978q425 0 673 290 249 291 249 798 0 503-249 795-248 292-673 292t-673-292q-248-292-248-795 0-507 248-798 248-290 673-290z" transform="scale(.01563)"/></defs><use xlink:href="#DejaVuSans-32"/><use xlink:href="#DejaVuSans-30" x="63.623"/><use xlink:href="#DejaVuSans-32" x="127.246"/><use xlink:href="#DejaVuSans-30" x="190.869"/><use xlink:href="#DejaVuSans-2d" x="254.492"/><use xlink:href="#DejaVuSans-30" x="290.576"/><use xlink:href="#DejaVuSans-39" x="354.199"/></g></g><g id="xtick_3"><use xlink:href="#m6a7eca24b3" id="line2d_3" x="243.938" y="287.347" style="fill:#b0b0b0;stroke:#b0b0b0;stroke-width:.4"/><g id="text_3" style="fill:#b0b0b0" transform="matrix(.14 0 0 -.14 214.69 304.985)"><defs><path id="DejaVuSans-31" d="M794 531h1031v3560L703 3866v575l1116 225h631V531h1031V0H794v531z" transform="scale(.01563)"/></defs><use xlink:href="#DejaVuSans-32"/><use xlink:href="#DejaVuSans-30" x="63.623"/><use xlink:href="#DejaVuSans-32" x="127.246"/><use xlink:href="#DejaVuSans-31" x="190.869"/><use xlink:href="#DejaVuSans-2d" x="254.492"/><use xlink:href="#DejaVuSans-30" x="290.576"/><use xlink:href="#DejaVuSans-31" x="354.199"/></g></g><g id="xtick_4"><use xlink:href="#m6a7eca24b3" id="line2d_4" x="306.342" y="287.347" style="fill:#b0b0b0;stroke:#b0b0b0;stroke-width:.4"/><g id="text_4" style="fill:#b0b0b0" transform="matrix(.14 0 0 -.14 277.094 304.985)"><use xlink:href="#DejaVuSans-32"/><use xlink:href="#DejaVuSans-30" x="63.623"/><use xlink:href="#DejaVuSans-32" x="127.246"/><use xlink:href="#DejaVuSans-31" x="190.869"/><use xlink:href="#DejaVuSans-2d" x="254.492"/><use xlink:href="#DejaVuSans-30" x="290.576"/><use xlink:href="#DejaVuSans-35" x="354.199"/></g></g><g id="xtick_5"><use xlink:href="#m6a7eca24b3" id="line2d_5" x="370.307" y="287.347" style="fill:#b0b0b0;stroke:#b0b0b0;stroke-width:.4"/><g id="text_5" style="fill:#b0b0b0" transform="matrix(.14 0 0 -.14 341.059 304.985)"><use xlink:href="#DejaVuSans-32"/><use xlink:href="#DejaVuSans-30" x="63.623"/><use xlink:href="#DejaVuSans-32" x="127.246"/><use xlink:href="#DejaVuSans-31" x="190.869"/><use xlink:href="#DejaVuSans-2d" x="254.492"/><use xlink:href="#DejaVuSans-30" x="290.576"/><use xlink:href="#DejaVuSans-39" x="354.199"/></g></g><g id="xtick_6"><use xlink:href="#m6a7eca24b3" id="line2d_6" x="433.751" y="287.347" style="fill:#b0b0b0;stroke:#b0b0b0;stroke-width:.4"/><g id="text_6" style="fill:#b0b0b0" transform="matrix(.14 0 0 -.14 404.503 304.985)"><use xlink:href="#DejaVuSans-32"/><use xlink:href="#DejaVuSans-30" x="63.623"/><use xlink:href="#DejaVuSans-32" x="127.246"/><use xlink:href="#DejaVuSans-32" x="190.869"/><use xlink:href="#DejaVuSans-2d" x="254.492"/><use xlink:href="#DejaVuSans-30" x="290.576"/><use xlink:href="#DejaVuSans-31" x="354.199"/></g></g><g id="xtick_7"><use xlink:href="#m6a7eca24b3" id="line2d_7" x="496.156" y="287.347" style="fill:#b0b0b0;stroke:#b0b0b0;stroke-width:.4"/><g id="text_7" style="fill:#b0b0b0" transform="matrix(.14 0 0 -.14 466.908 304.985)"><use xlink:href="#DejaVuSans-32"/><use xlink:href="#DejaVuSans-30" x="63.623"/><use xlink:href="#DejaVuSans-32" x="127.246"/><use xlink:href="#DejaVuSans-32" x="190.869"/><use xlink:href="#DejaVuSans-2d" x="254.492"/><use xlink:href="#DejaVuSans-30" x="290.576"/><use xlink:href="#DejaVuSans-35" x="354.199"/></g></g><g id="xtick_8"><use xlink:href="#m6a7eca24b3" id="line2d_8" x="560.12" y="287.347" style="fill:#b0b0b0;stroke:#b0b0b0;stroke-width:.4"/><g id="text_8" style="fill:#b0b0b0" transform="matrix(.14 0 0 -.14 530.872 304.985)"><use xlink:href="#DejaVuSans-32"/><use xlink:href="#DejaVuSans-30" x="63.623"/><use xlink:href="#DejaVuSans-32" x="127.246"/><use xlink:href="#DejaVuSans-32" x="190.869"/><use xlink:href="#DejaVuSans-2d" x="254.492"/><use xlink:href="#DejaVuSans-30" x="290.576"/><use xlink:href="#DejaVuSans-39" x="354.199"/></g></g><g id="xtick_9"><use xlink:href="#m6a7eca24b3" id="line2d_9" x="623.565" y="287.347" style="fill:#b0b0b0;stroke:#b0b0b0;stroke-width:.4"/><g id="text_9" style="fill:#b0b0b0" transform="matrix(.14 0 0 -.14 594.317 304.985)"><defs><path id="DejaVuSans-33" d="M2597 2516q453-97 707-404 255-306 255-756 0-690-475-1069Q2609-91 1734-91q-293 0-604 58T488 141v609q262-153 574-231 313-78 654-78 593 0 904 234t311 681q0 413-289 645-289 233-804 233h-544v519h569q465 0 712 186t247 536q0 359-255 551-254 193-729 193-260 0-557-57-297-56-653-174v562q360 100 674 150t592 50q719 0 1137-327 419-326 419-882 0-388-222-655t-631-370z" transform="scale(.01563)"/></defs><use xlink:href="#DejaVuSans-32"/><use xlink:href="#DejaVuSans-30" x="63.623"/><use xlink:href="#DejaVuSans-32" x="127.246"/><use xlink:href="#DejaVuSans-33" x="190.869"/><use xlink:href="#DejaVuSans-2d" x="254.492"/><use xlink:href="#DejaVuSans-30" x="290.576"/><use xlink:href="#DejaVuSans-31" x="354.199"/></g></g></g><g id="matplotlib.axis_2"><g id="ytick_1"><path id="line2d_10" d="M67.645 287.347h558" clip-path="url(#p9080f2ea67)" style="fill:none;stroke:#b0b0b0;stroke-width:.3;stroke-linecap:square"/><g id="line2d_11"><defs><path id="ma4fff36623" d="M0 0h-3.5" style="stroke:#b0b0b0;stroke-width:.3"/></defs><use xlink:href="#ma4fff36623" x="67.645" y="287.347" style="fill:#b0b0b0;stroke:#b0b0b0;stroke-width:.3"/></g><use xlink:href="#DejaVuSans-30" id="text_10" style="fill:#b0b0b0" transform="matrix(.14 0 0 -.14 51.737 292.666)"/></g><g id="ytick_2"><path id="line2d_12" d="M67.645 252.994h558" clip-path="url(#p9080f2ea67)" style="fill:none;stroke:#b0b0b0;stroke-width:.3;stroke-linecap:square"/><use xlink:href="#ma4fff36623" id="line2d_13" x="67.645" y="252.994" style="fill:#b0b0b0;stroke:#b0b0b0;stroke-width:.3"/><g id="text_11" style="fill:#b0b0b0" transform="matrix(.14 0 0 -.14 7.2 258.312)"><use xlink:href="#DejaVuSans-31"/><use xlink:href="#DejaVuSans-30" x="63.623"/><use xlink:href="#DejaVuSans-30" x="127.246"/><use xlink:href="#DejaVuSans-30" x="190.869"/><use xlink:href="#DejaVuSans-30" x="254.492"/><use xlink:href="#DejaVuSans-30" x="318.115"/></g></g><g id="ytick_3"><path id="line2d_14" d="M67.645 218.64h558" clip-path="url(#p9080f2ea67)" style="fill:none;stroke:#b0b0b0;stroke-width:.3;stroke-linecap:square"/><use xlink:href="#ma4fff36623" id="line2d_15" x="67.645" y="218.64" style="fill:#b0b0b0;stroke:#b0b0b0;stroke-width:.3"/><g id="text_12" style="fill:#b0b0b0" transform="matrix(.14 0 0 -.14 7.2 223.959)"><use xlink:href="#DejaVuSans-32"/><use xlink:href="#DejaVuSans-30" x="63.623"/><use xlink:href="#DejaVuSans-30" x="127.246"/><use xlink:href="#DejaVuSans-30" x="190.869"/><use xlink:href="#DejaVuSans-30" x="254.492"/><use xlink:href="#DejaVuSans-30" x="318.115"/></g></g><g id="ytick_4"><path id="line2d_16" d="M67.645 184.287h558" clip-path="url(#p9080f2ea67)" style="fill:none;stroke:#b0b0b0;stroke-width:.3;stroke-linecap:square"/><use xlink:href="#ma4fff36623" id="line2d_17" x="67.645" y="184.287" style="fill:#b0b0b0;stroke:#b0b0b0;stroke-width:.3"/><g id="text_13" style="fill:#b0b0b0" transform="matrix(.14 0 0 -.14 7.2 189.605)"><use xlink:href="#DejaVuSans-33"/><use xlink:href="#DejaVuSans-30" x="63.623"/><use xlink:href="#DejaVuSans-30" x="127.246"/><use xlink:href="#DejaVuSans-30" x="190.869"/><use xlink:href="#DejaVuSans-30" x="254.492"/><use xlink:href="#DejaVuSans-30" x="318.115"/></g></g><g id="ytick_5"><path id="line2d_18" d="M67.645 149.933h558" clip-path="url(#p9080f2ea67)" style="fill:none;stroke:#b0b0b0;stroke-width:.3;stroke-linecap:square"/><use xlink:href="#ma4fff36623" id="line2d_19" x="67.645" y="149.933" style="fill:#b0b0b0;stroke:#b0b0b0;stroke-width:.3"/><g id="text_14" style="fill:#b0b0b0" transform="matrix(.14 0 0 -.14 7.2 155.252)"><defs><path id="DejaVuSans-34" d="M2419 4116 825 1625h1594v2491zm-166 550h794V1625h666v-525h-666V0h-628v1100H313v609l1940 2957z" transform="scale(.01563)"/></defs><use xlink:href="#DejaVuSans-34"/><use xlink:href="#DejaVuSans-30" x="63.623"/><use xlink:href="#DejaVuSans-30" x="127.246"/><use xlink:href="#DejaVuSans-30" x="190.869"/><use xlink:href="#DejaVuSans-30" x="254.492"/><use xlink:href="#DejaVuSans-30" x="318.115"/></g></g><g id="ytick_6"><path id="line2d_20" d="M67.645 115.58h558" clip-path="url(#p9080f2ea67)" style="fill:none;stroke:#b0b0b0;stroke-width:.3;stroke-linecap:square"/><use xlink:href="#ma4fff36623" id="line2d_21" x="67.645" y="115.579" style="fill:#b0b0b0;stroke:#b0b0b0;stroke-width:.3"/><g id="text_15" style="fill:#b0b0b0" transform="matrix(.14 0 0 -.14 7.2 120.898)"><use xlink:href="#DejaVuSans-35"/><use xlink:href="#DejaVuSans-30" x="63.623"/><use xlink:href="#DejaVuSans-30" x="127.246"/><use xlink:href="#DejaVuSans-30" x="190.869"/><use xlink:href="#DejaVuSans-30" x="254.492"/><use xlink:href="#DejaVuSans-30" x="318.115"/></g></g><g id="ytick_7"><path id="line2d_22" d="M67.645 81.226h558" clip-path="url(#p9080f2ea67)" style="fill:none;stroke:#b0b0b0;stroke-width:.3;stroke-linecap:square"/><use xlink:href="#ma4fff36623" id="line2d_23" x="67.645" y="81.226" style="fill:#b0b0b0;stroke:#b0b0b0;stroke-width:.3"/><g id="text_16" style="fill:#b0b0b0" transform="matrix(.14 0 0 -.14 7.2 86.545)"><defs><path id="DejaVuSans-36" d="M2113 2584q-425 0-674-291-248-290-248-796 0-503 248-796 249-292 674-292t673 292q248 293 248 796 0 506-248 796-248 291-673 291zm1253 1979v-575q-238 112-480 171-242 60-480 60-625 0-955-422-329-422-376-1275 184 272 462 417 279 145 613 145 703 0 1111-427 408-426 408-1160 0-719-425-1154Q2819-91 2113-91q-810 0-1238 620-428 621-428 1799 0 1106 525 1764t1409 658q238 0 480-47t505-140z" transform="scale(.01563)"/></defs><use xlink:href="#DejaVuSans-36"/><use xlink:href="#DejaVuSans-30" x="63.623"/><use xlink:href="#DejaVuSans-30" x="127.246"/><use xlink:href="#DejaVuSans-30" x="190.869"/><use xlink:href="#DejaVuSans-30" x="254.492"/><use xlink:href="#DejaVuSans-30" x="318.115"/></g></g><g id="ytick_8"><path id="line2d_24" d="M67.645 46.872h558" clip-path="url(#p9080f2ea67)" style="fill:none;stroke:#b0b0b0;stroke-width:.3;stroke-linecap:square"/><use xlink:href="#ma4fff36623" id="line2d_25" x="67.645" y="46.872" style="fill:#b0b0b0;stroke:#b0b0b0;stroke-width:.3"/><g id="text_17" style="fill:#b0b0b0" transform="matrix(.14 0 0 -.14 7.2 52.191)"><defs><path id="DejaVuSans-37" d="M525 4666h3000v-269L1831 0h-659l1594 4134H525v532z" transform="scale(.01563)"/></defs><use xlink:href="#DejaVuSans-37"/><use xlink:href="#DejaVuSans-30" x="63.623"/><use xlink:href="#DejaVuSans-30" x="127.246"/><use xlink:href="#DejaVuSans-30" x="190.869"/><use xlink:href="#DejaVuSans-30" x="254.492"/><use xlink:href="#DejaVuSans-30" x="318.115"/></g></g><g id="ytick_9"><path id="line2d_26" d="M67.645 12.519h558" clip-path="url(#p9080f2ea67)" style="fill:none;stroke:#b0b0b0;stroke-width:.3;stroke-linecap:square"/><use xlink:href="#ma4fff36623" id="line2d_27" x="67.645" y="12.519" style="fill:#b0b0b0;stroke:#b0b0b0;stroke-width:.3"/><g id="text_18" style="fill:#b0b0b0" transform="matrix(.14 0 0 -.14 7.2 17.838)"><defs><path id="DejaVuSans-38" d="M2034 2216q-450 0-708-241-257-241-257-662 0-422 257-663 258-241 708-241t709 242q260 243 260 662 0 421-258 662-257 241-711 241zm-631 268q-406 100-633 378-226 279-226 679 0 559 398 884 399 325 1092 325 697 0 1094-325t397-884q0-400-227-679-226-278-629-378 456-106 710-416 255-309 255-755 0-679-414-1042Q2806-91 2034-91q-771 0-1186 362-414 363-414 1042 0 446 256 755 257 310 713 416zm-231 997q0-362 226-565 227-203 636-203 407 0 636 203 230 203 230 565 0 363-230 566-229 203-636 203-409 0-636-203-226-203-226-566z" transform="scale(.01563)"/></defs><use xlink:href="#DejaVuSans-38"/><use xlink:href="#DejaVuSans-30" x="63.623"/><use xlink:href="#DejaVuSans-30" x="127.246"/><use xlink:href="#DejaVuSans-30" x="190.869"/><use xlink:href="#DejaVuSans-30" x="254.492"/><use xlink:href="#DejaVuSans-30" x="318.115"/></g></g></g><path id="line2d_28" d="m67.645 287.347 35.883-.103 10.4-.02 13.521.111 22.362-.047 11.96-.207 7.801-.175 6.24.118 18.722.174 7.28-.029 13.002-.1 13.52-.49 6.761-.12 6.76-.23 2.08-.085 1.04.03 1.56-.219 1.04-.383 1.041-.38 1.04-.059 2.08.133 3.12.15 2.6.457 5.201.657 4.16.308 10.921.153 5.72-.058 5.72-.202 8.842-.587 5.72-.453 4.16-.155 1.04.16 4.68-.521 13.002 1.412 4.68.242 3.12.017 8.84-.18 2.6-.223 3.641-.453 1.04-.08 1.04-.31 1.04-.492 2.08-1.198 3.64-1.474.52.068 1.041-.267 1.56-.615.52-.139 1.04-.856 1.56-.842.52-.219 1.56-.186 1.04.097 2.08.638 1.04.55 1.56 1.025 1.04.616 2.601 1.778 1.56.685 2.08.803.52.096 1.04.397 2.6.464 1.04.065 1.56.2 2.601.193 4.68.169 22.362.158 18.721-.15 1.04-.147 1.04-.474 1.04-.77 1.04-.528.52-.527 1.04-1.483 1.56-2.401 2.081-5.366 1.04-2.61.52-1.17 3.12-9.019 1.04-1.727 1.56-3.195.52-.853.52-.584.52-.345.52-.957.52-.143.52.232.52-.009.52 1.661.52.616.52.387.52.834 1.561 1.083.52-.642 1.04.694.52.715.52.52.52 1.666.52 1.082 1.04.843.52.04.52.209.52.38.52-.444.52.096 1.04.894 1.04 1.253 2.08 1.668 1.561.527 1.56.998 1.04 1.081.52.235.52 1.511.52.812 1.04.269 1.56-.426.52-1.2.52-.6 4.68-.887 1.04-.278 2.081-.507.52.12.52.25 2.08 1.835 1.04.73.52.179 2.08.106 1.04.573.52.926.52.571.52.274.52.493 1.56 2.737 1.041-1.452 1.04-1.01 1.56-2.884.52-.005 1.56.93 1.04.314 1.04.28 1.56.538 1.04.767 3.12 2.954 1.04.934 1.041.643 1.04.393 1.56.562 1.04.225 4.16.383 1.56-.095 2.08-.288 1.04-.493 1.561-1.09 1.04-.798.52-.827 1.04-2.309 1.04-2.794.52-1.511.52-1 .52-1.951 1.56-7.452 1.04-5.259.52-1.913.52.456.52-2.848 2.08-16.757.52-2.47.52-6.367 1.041-5.101 1.04-2.331.52-1.045 1.04-1.356.52-1.969.52-.274.52-.609.52-.257.52-.425.52.09 1.56-.173.52 3.189.52 2.151.52 1.378.52-.034.52 2.274.52.93.52-.755.52-4.53.52-3.412.52-2.347.52-.12.521-2.077.52-.595.52 1.7 1.56 10.315.52 2.213.52 2.742 1.56 10.166 1.04 5.246.52 1.367 1.56 5.774 1.56 4.294.52.742 1.04 2.656 1.04 2.452 1.04 1.923.521.726.52 2.741.52 1.493.52.417.52.595.52 1.558.52.848.52-.27.52-.588.52.973.52 1.728.52 1.334.52.178.52.856.52 1.392.52.196 2.08 1.637.52.32.52.105.52 1.305.52-.203.52-.602 1.561-1.098.52-.114.52-1.432.52.096.52.47.52.246 1.04-.012.52-.073 1.56-.922 1.04-.883.52-.478.52-.27 1.04-1.849.52-1.214.52.255 1.04-2.72.52-.456 1.04-1.626.52-.545.52-1.964.521-.261.52-.123.52-.291 1.56-2.54 1.04-1.083.52-.434.52-.239 1.04-2.31.52 1.546 1.04-3.313.52-1.018.52-.329.52-.68.52-.247.52-2.85.52.387.52.773.52.437.52.073.52-.107.52-.539 1.041-1.572 1.04-2.737.52-.722 1.56-5.711 1.04-2.411.52-.838 1.04-.916 1.56-2.55.52-.944.52-.659.52-.31.52-.848 1.04-.833.52 1.205 1.04 6.522.52.05 1.041 11.01.52-1.71h0" clip-path="url(#p9080f2ea67)" style="fill:none;stroke:#53a577;stroke-width:1.5;stroke-linecap:square"/><path id="line2d_29" d="m67.645 287.347 23.402-.097 2.08-.184 1.04-.312 1.56-.964 2.08-2.025.52-.6.52-.794.52-.354.52-.54.52-.773.52-1.163 1.04-1.389.52-.469 1.04-1.103.52-.185.52.224 1.04-.27 2.08.592 1.561.602 1.04.121.52-.167.52.126 1.04-.292.52.08.52-.16.52-.04.52.29 1.04.224.52.122.52-.164 1.04.307 1.56.177.52.095.52.378.52.121 1.04.474.52.028.521.212 1.56.212.52.003.52-.154.52.144.52-.136 1.04.088.52.196.52-.073 2.08.642 1.56-.12.52.065 1.04-.08.52-.328.52-.077 1.04.173 1.041.032.52-.132.52.27.52.038.52-.195.52-.056 1.56-.677 2.08-1.276.52-.436.52-.7 1.04-.998.52-.887.52-.44.52-.837 1.56-1.754.52-.771.52-.127.52-.255.52-.541.521-.103.52-.362.52-.547.52-.233 1.04-1.546.52-.307.52-.785 1.56-1.23.52.113.52-.19.52.06 1.56-.244.52.146.52-.417.52.027.52.165.52.044 1.04.35.52-.07.52.52 1.041.74.52.887.52.144 1.04.935.52.192 1.04-.67.52-.477.52.234.52-.054.52.422.52-.473.52.562.52.961 1.04 1.253 1.04.768.52 1.088.52.346 2.08.626.52-.26 1.041.187.52-.111 1.56.158.52.257 1.04-.123.52.25.52.433.52.73 1.04.581.52.188.52-.116 1.04-.954.52-.507 2.08-.773 1.04-.032 1.04-.184.52-.172 1.041.264.52.387 1.04-.48 1.04.241 1.04-.607 1.04.023.52-.132 1.04-1.102.52-.088.52-.288.52-.662 1.04-.522.52-.47.52-.275.52-.734.52.02.52-.265.52-1.265.52-.584.521-.109.52-.803.52-.579.52-1.14.52-.397.52.207.52-.806.52-1.325.52-.614.52-.904.52-.428 1.04-1.825.52-2.35.52-.677.52-1.83.52-1.4 1.56-5.755.52-.61.52-2.33.52-1.452.52-2.445.52-1.744.52-.938.52-1.784 2.081-5.22.52-.725.52-.33.52-1.406 1.04-.765.52 3.885.52-.689.52.496.52.273.52 1.27.52-1.171.52-.775.52-5.238.52-.982.52-2.573 1.04-3.745.52-1.405 1.04-1.719 1.04-.224 1.041-1.299.52.008.52-.907.52-.169.52-.47.52.87.52.219.52.63.52 1.053.52.658.52 1.356.52 5.939.52-.643.52 2.454.52 1.12.52-.044.52.101.52-5.018 1.04-5.228.52-3.29.52-.596.52-1.247.52-2.017.52 1.412.52-6.155.52.447.521-.332.52-.87.52.481.52 1.53 1.56 7.61.52 1.659 1.04 6.315 1.04 4.118.52 2.598 1.04 3.73.52.552.52.28 1.04 2.839 1.56 4.036.52.203 3.641 11.765.52 1.069.52 1.41.52.907 1.04 2.785.52 1.03.52 1.327.52 1.76.52 1.312.52 1.664.52 1.212 1.04 1.46.52.004.52-.687 1.04-.532.52-.004 1.04.31.52.29.52.745 2.081 1.684.52.497 1.56.862 1.04.57 1.04.367.52-.332.52.037 1.04-.128.52.067.52-.098 1.56.422.52-1.371.52-.255.52-.747.52-.272.52-.538.52-.895.52-.464.521.904.52-.464.52.11.52-.034.52.417 1.04-.135.52-.311.52-.147.52-.517.52-.287.52-.464.52.246.52-.85.52.039.52.276.52.08.52.737 1.04.336.52.903 1.04.898.52.986.52.053.52.462.52.813 1.041.938.52.418 1.56.73.52-.103 1.04.95 1.56 1.694.52.385.52.618 1.04.848 1.04.719 1.04.47 2.08 1.39 1.04 1.104 2.601 1.01 1.56 1.043.52.777.52.133 1.56 1.017.52-.107.52.064.52-.384.52.407.52-.08.52.17.52-.342.52.31 1.04.155.52.106.52.317 1.04.32 3.121-.114.52-.174 1.04.004.52-.149.52.16 1.56-.423.52.186.52.019.52.226.52-.738 1.04-.531.52-.853.52-.233.52-.368.52-1.006.52-.191 1.04-1.083.52-1.524.521-.198.52-.423.52-.96 1.04-1.479.52-1.202.52-2.1.52-.75.52-.404 1.04-2.675.52-1.262.52-.782.52-3.454 1.04-1.574 1.56-4.455.52-1.827.52-2.98.52-.944.52.476.52-2.498.52-.993.52-2.556.521-1.679.52 1.23 1.04-1.103 1.04-3.33 1.56-1.792.52-.948.52.123.52-.63.52-.2.52-.582.52-1.398.52.038.52.656.52-.384 1.04-2.283.52-.56 1.04.384.52-.352.52-.565.52 6.77.52-1.476 1.041 1.239.52-.323.52-.155.52.742.52-5.778.52 3.166.52.213.52.395.52 1.528.52.697.52.175.52 1.88.52 1.164.52 2.046 1.04 3.22.52.708.52-.473.52.76 1.04.904 1.04 1.898 1.56 1.71.521.867 1.04.893.52 1.191.52.463.52.257.52 2.343.52-.76.52.219.52.731.52 1.07.52-.051.52.384.52-.186.52 1.39.52.79.52.435.52.632.52.347.52.6.52-.63.52.735.52-.501 1.04.19.52-.097.52-.64 1.041-.137.52.774.52-.33 1.56-.405.52.124 1.04-.901.52 1.163.52-2.307.52-.437.52.25.52-1.164.52-.396.52-.849.52-2.503.52.877.52-.05 1.56-1.04.52.058 1.04 7.006.52.922.521-.176.52-2.17 1.04-2.522 1.04-10.016.52-1.94.52-.557.52.495.52.252.52-.612.52.708.52.022.52.505.52.15.52-.407.52-.044.52.181.52-.895.52-1.723.52-1.174.52-1.841 1.04-6.223.52-5.019.52-6.484.52-2.73.521-.33.52-4.565.52-12.997.52-9.322.52-12.93 1.04-28.81 1.04-10.614 1.04-48.746.52-8.087.52-12.077.52-18.043 1.04-20.252.52-15.31.52 2.106.52-8.748.52-1.01.52-.008.52-.409.52.356.52 34.15.52-17.054.52-2.77.521 6.623.52 2.584 1.04 10.995.52-12.33.52 31.428 1.56 33.056.52 6.207.52 8.323.52 18.355.52 8.153.52 17.168 1.04 23.935.52 4.599.52 5.679.52 9.48.52 5.522.52 6.884.52 5.05.52 7.195.52 1.732.52 1.261.52 8.628.52 5.07 1.561 10.191.52 1.014.52 1.745.52 4.305.52 1.046 1.04 3.142.52 3.45.52-.772.52.245.52-.835.52 2.1.52 1.523.52.884.52 1.129.52 1.595.52.29.52 1.736 1.04 1.619 2.08.52.52 1.325.521.292.52-.698.52-.307.52.841 1.04-.05.52-.34.52.112 1.04 1.043.52-.625 1.56.237.52-.1.52.089.52-.118.52.652.52-.115.52.345 1.04-.105.52-.088.52-.254.52-2.063.52-.05.52-.237h.521l.52-.504.52-.792.52.089.52 1.914 1.04.105.52-1.053.52-.16 1.04-1.195.52-2.68 2.08-1.418.52-1.081.52-.818.52 1.353 1.04-.38.52-1.258.52-.234.52-1.105.52-.55.52-3.328.52-.198.521.527.52-1.733.52-1.02.52-2.39.52-.84.52 2.051.52.519.52-1.302.52-2.343.52-.724.52-2.103.52-1.472.52-3.02.52-.49.52.97.52 1.37.52.079.52-.338.52.008.52 2.002.52.682.52.31.52 4.249.52-4.096.52-.893.52.646.52-2.404.521-.68.52-.453.52-4.774.52 3.948.52 1.475.52-.466.52 2.492.52-.352.52-.073.52.392.52-.162.52.675.52.092.52-1.601.52.86.52-.014.52 2.736.52-1.04.52-.025.52-.425.52 1.064.52-1.14.52-.207.52-3.152.52.662.52-.226.521-1.425.52-1.948.52 1.01.52.679.52 4.12.52-2.16.52-.514.52 1.403.52.938.52-.424.52-.79.52-6.134 1.04-.504.52-1.782.52-.759.52-.501.52-.25 1.04 3.287.52-.593.52-.015.52 1.07.52.631.52.313.52-1.212.52-.732.521-1.147.52-.078.52-1.367 1.04 1.009.52.971 1.04 3.958.52-.495.52 2.612 1.04.07.52.712.52-.434.52.205.52 1.198.52.456.52-3.37.52.14.52 1.596.52.39.52 2.92.52.673.52.938.52 3.563.52-.002 1.041-.664.52-.728.52.465.52-2.113 1.04.033 1.04 2.284.52-.13.52.437.52 2.749 1.04.068.52 3.564.52-1.813.52 1.496.52 1.154.52-1.773.52.062.52-.077.52-1.763.52 1.618 1.04 2.166.52 2.187 1.04.25 1.041 1.186.52.256.52.116.52-1.328 1.04-.12 1.56 1.47.52-.17.52 2.44 1.56.326.52.276.52.759.52 1.155.52-1.214 1.04.022.52.905.52-.268.52.326.52-.13.52 1.534.52.086.521-.058.52-.779.52.844.52.159.52.304.52-.935.52.03 1.04-.111.52-.006.52-.499.52-.094.52.773.52-.178.52.255 1.04-.528.52-.12 1.04-.973.52.188.52-.23.52.21.52.86.52-1.144.52.221.52 1.254h.521l.52.268.52-.476.52-1.395 1.04 1.225.52-2.082 1.04-.049 1.04.463.52-1.408 1.04 3.492.52.086.52-.096.52-.872.52-.546.52.023.52-3.639.52-2.06.52-.185.52.022.52.23 1.04-2.944.521-.427.52 1.345 1.04-.038.52-.077.52.086.52-.126.52-.633.52-.879 1.56.014.52.588.52-1.192 1.04 1.586 1.04.156.52 2.36.52-1.418.52 3.25.52-.396.52.06 1.04-.07.52.256.52 1.188.521-4.018.52-1.236h0" clip-path="url(#p9080f2ea67)" style="fill:none;stroke:#7516fd;stroke-width:1.5;stroke-linecap:square"/><path id="line2d_30" d="m67.645 287.347 16.121-.105 3.64-.104 7.801.174 10.92.02 24.443.002 104.007-.262 4.68-.072 4.68.019 8.841.158 9.881.038 31.722-.068 10.401-.03 8.84.016 6.241.007 12.481.048 8.32-.125 6.241-.21 19.241-.133 6.24.052 7.801-.08 1.56.008 3.12-.265 1.56.081 4.681.202 6.24.163 3.12-.13 4.161-.152 5.72-.121 7.801-.586 3.12-.458 2.08-.331 3.12-.103 3.641.268 2.6.38 3.64.39 2.08.07 2.08-.084 2.08-.2 2.601-.704.52-.22 1.04-.743 4.16-3.733 2.08-3.758 1.56-4.27 2.08-3.734 1.041-3.92 1.04-5.064 1.04-4.375.52-2.08 1.04-7.748 2.08-10.948 1.56-5.694 1.04-9.279 1.04-7.418.52-3.127 1.04-12.363.52-.792 1.04-11.577.52-4.861.52-7.833.521-2.861.52-14.418.52-6.088.52.114.52.76.52 4.936.52.423.52-4.416.52 11.077.52 3.32.52 2.25.52.813.52 1.077.52.312 2.08 13.333.52 4.114.52 2.946.52 3.994.52 6.786.52 4.707 1.56 10.96.52 1.78.521 2.715 1.04 8.206 1.56 11.218.52 2.12 1.04 8.652.52 2.827.52 2.198 1.04 2.981.52.657 1.04 3.566.52 4.457.52-1.324 1.04 2.9.52.702 1.04 2.797.52-2.074.52 3.988.52.182 1.041-.138.52.056 1.04.566.52-.28.52.491.52.718.52.359 1.04 1.345 1.56 1.04.52.3.52.163 3.12 2.439.52.188 1.56 1.286 1.04.315 1.041.193.52.54.52.12.52-.11 1.56.454.52.059.52-.176 1.56.5 1.56.156 3.64.07 1.04-.1 1.561-.41 1.04-.326 2.08-1.762 1.56-1.294 2.08-3.94 1.04-2.01.52-.667 1.56-5.118 1.04-2.796.52-1.231.52-.47 1.04-2.432 1.561-2.321 1.04-.833.52-.61 1.04-1.925 1.56-4.327.52-.52 1.04-3.435.52-1.44 1.56-2.15.52-.334.52 3.224.52-1.42.52-2.025.52-.494.52-.238.52.425.52.149.52-3.238.521 2.036.52 3.2 1.04 3.509.52 1.258.52.78 1.56 4.987.52.567 1.04 1.426.52.275 1.04 1.679.52.437.52.988 1.04 3.967.52.03.52 2.082.52 4.195.52-4.551.52.862.52-.034.52-.321.52.86.521.464.52-2.024.52 6.496.52 1.117.52.691.52.44.52.258.52.417.52.25 2.6.46.52 1.125 1.04.18 2.08 1.121.52.047.52.206.52.082 1.04-.23 1.041-.288.52-.869 1.56.07 1.56-.594 3.12-3.01.52-.207 1.56-1.987.52-.37 1.04-.281.52-.008.52-.192 1.04-.797 2.081-2.029.52-.52.52-.202.52-.004 1.04.437 1.04.153h.52l2.08-.68 1.04-.013 3.12.364.52-.041 1.04-.66 1.041-.879 1.04-.865.52-.123 1.04-.938 2.08-.874 1.04-.081 1.56-.511 2.6.138 1.04.357 1.04.199.52.137 1.04.76 1.041.765h0" clip-path="url(#p9080f2ea67)" style="fill:none;stroke:#2f618f;stroke-width:1.5;stroke-linecap:square"/><path id="line2d_31" d="m67.645 287.347 248.578-.077 6.76-.085 33.283.156 82.166-.009 49.403-.26 2.6-.245 1.56-.368 1.56-.6 1.04-.73 1.04-.952.52-.584.52.256.52-1.7 1.56-3.038 1.041 1.58.52-6.327.52-.483.52-1.406.52-1.739.52 1.775.52-6.328.52-3.373.52 3.3.52-.736 1.04-2.55.52-4.207.52 2.176.52-.528.52-.223.52-.814.52-.21.52.37.52-.445 2.08.727.52.054.52.244.52.897 1.561 1.673.52-.116.52.401.52.2.52.404.52-.564.52.565.52.388.52.827 1.56 1.665.52 1.273.52-.003 1.04.945 1.04 1.548.52.465 1.04 1.192.52.345 1.04 1.087 1.041.95 1.56.883 1.56 1.148 3.12 1.484 2.08.753.52.056 1.04.335 2.08.441 2.601.317 5.72.478 4.16-.063 2.6-.229 2.601-.903 2.08-.934 2.6-1.574 1.04-.583 2.6-.181 1.56-1.428.52-.363.52-.185.52-.364.521-.14 2.6.54 1.04.01 1.56-.255 1.56-.614 2.6-1.158 1.04-.126.52.065.52.399.52.123.52-.341 2.081.475.52-.169.52.381 1.04 1.206 1.04.687.52.123 1.04.493 1.56.488 1.56.609 6.241 4.15.52-.002.52.315 2.6.573.52.232.52.018 1.56.622 1.04.306 2.08.133 2.6.107 1.561.053 4.68-.448 1.04.026.52-.074 1.56-.485 1.04-.318 1.56-1.2 1.56-1.162 1.561-.421.52-.175h0" clip-path="url(#p9080f2ea67)" style="fill:none;stroke:#fe7b74;stroke-width:1.5;stroke-linecap:square"/><path id="line2d_32" d="m67.645 287.347 22.882-.097 3.12-.228 3.12-.67 2.6-.67 4.16-.204 2.08.209 4.161.69 3.64.234 7.28.4 22.362.162 3.12-.028 4.16.063 11.962-.052 16.12-.273 3.121.06 4.16-.049 13.521-.375 4.16-.697 4.161-1.161 1.04-.612 1.04-.437 1.56-.996 1.56-.528 1.04-.304 2.08-.6 3.12-.27.52-.045 1.041.17 1.04.008 3.64.034 3.64.22 1.04-.111 1.04-.212.52-.022 1.56-.57.52-.251 1.561-.336.52-.34 2.08-.617.52-.013.52-.25.52.146.52-.258.52 1.657.52-.426.52.442 1.56.716 1.04-.018 1.04.384 1.56.164.52.303.52-1.564.52.536.521-.325 1.04-.174 1.04.14.52.465.52.296 2.08.661 1.04.455 1.04.19.52.021 1.04.38 2.6.636.52.015 1.04.335 2.081.324 3.12.786 4.16-.068 1.56-.105 2.08-.101 4.681-.119 4.16-1.019 1.04-.393 1.04-.198 1.04-.215 1.56-.672 1.04-.275 1.561-.243.52-.015.52.115.52.244 1.04.198.52.362.52.191.52-.175 1.56-.804.52-.192 1.04-1.033 2.08.02.52.059.52-.157 2.6-.07.521-.068 1.04.365 3.64 1.145.52.286 1.56.448 1.04.223.52.222 1.56.937 1.04.168 1.56.568 1.04.127 1.041.247 1.04.707 2.6.33.52-.112.52.082 1.04.36 3.12.329 2.08.12 2.08.34 2.081.02 6.76.094 6.761-.22 11.96-.65 1.561-.208h.52l.52-.245 1.04-.233 1.56-.317h.52l.52-.31 1.04-.25 1.04-.341h1.04l.52-.22 1.04-.097 4.161-.431 1.04.063 1.04.096 1.04.074 1.04.219h1.04l.52.2 2.6.354 1.04.096 1.04-.04 1.04-.091 5.721-.096 2.6-.107 3.12-1.117h.52l.52-.578.52-.181.52-.304.52-.587.52-.25h1.04l.521-.62.52-.017.52.138.52-.29.52-.611h1.04l.52-1.226.52-.54 1.04-1.744.52-.565h1.04l.52-1.43 1.04-1.147.52-.744.52-.213h1.04l.52-1.723 1.56-1.861.52-1.15h1.041l.52-.177 1.04-.036 1.04.236h1.04l.52.319.52.475.52-.118.52.127.52.642h1.04l.52 1.291.52.257 1.04 1.582.52.506h1.04l.52.974 1.56 1.217.52 2.5h1.041l.52.324.52.116.52.275 1.04.106h1.04l.52 4.007.52-5.307 1.04-1.985.52-2.764h1.04l.52-5.776.52 4.1 1.04-1.895.52-1.761h1.04l.52-2.306 1.04-2.974 1.041-4.91h1.04l.52-5.871 1.04-5.115.52-3.416.52-2.453h1.04l.52-5.014.52-1.75.52-2.184.52-1.618.52-2.88h1.04l.52-2.935.52-.342.52-1.264.52-.576.52.425h1.04l.52 1.71.52.508 1.041 1.302.52.987h1.04l1.04 3.128.52.536.52.947.52.457h1.04l.52 1.713.52.186.52 1.111.52.277.52-.336h1.04l.52-2.033.52 5.993.52-9.14.52-2.556.52-1.73h1.04l.52-4.346.521-9.76.52 5.401.52-1.58.52-2.208h1.04l.52-.406 1.56-3.327 1.04.066h.52l.52 2.63.52-.749.52.749 1.04 4.292h1.04l.52 5.845 1.04 5.42 1.04 7.384h1.04l.521 3.666.52.864 1.04 3.683.52 8.601h1.04l.52 11.628.52-5.614 1.04-2.122.52-7.936h1.04l.52-9.538.52 6.89 1.56 8.502h1.04l.52 4.48.52 1.143 1.04 3.384.52.812h1.041l.52.93.52.293 1.04.825.52.79h1.04l.52.675 1.04 2.271.52 1.484.52.986h1.04l1.56 3.318.52 2.881.52.361.52-2.132h.52l.52 2.329.52.125.52-.286.52-2.38.52-.056.521 2.132h1.04l.52.77 1.56-4.615h1.04l1.04-6.396.52-.378.52-.564.52 2.442h1.04l1.04-1.657 1.04-2.802.52-3.93h1.04l.52-.143 1.04-1.667.521-.653.52-.24h1.04l.52-.536.52-.253.52.158 1.56-.361 1.04.08.52-.356.52.153.52-.822.52.395h1.04l.52-1.16.52-.293.52-.657.52.762 1.04.092h.52l.52 1.523.52.747.521.943.52 1.595.52 1.13h1.04l.52 1.234 1.04 3.773 1.04 2.688h1.04l.52.846.52 1.178 1.04 1.458.52.474h1.04l.52.185.52.734.52.262 2.08.212.52.467.521.163.52.71 1.04.925h1.04l.52.153 2.08 1.117h1.04l1.56.564 1.04-.232 1.56-.04 1.56-.71.52-.136h1.04l2.081-1.356.52-.592h1.04l.52-.508.52-1.425.52-1.919.52-1.074.52-2.236h1.04l.52 2.305.52.757.52-1.851.52-2.632.52-3.816h1.04l1.04-10.843.52-.158.52-.624.52 2.94h1.041l.52 1.51.52 1.103.52.328.52 1.394.52 1.075h1.04l.52.828 2.08 6.797h1.04l.52 1.321 1.04 6.469.52.013.52.239h1.04l.52.434.52-.613.52-.877.52 1.961.52 1.126h1.041l.52.514.52.682.52.452 1.04.563h1.04l.52.15 1.04.53 1.04-.353 1.56.031.52-.24.52-.513.52.096 2.6-.186.52-.076 1.041-.469h1.04l2.6-1.2 1.56-.072.52-.062 1.04-.359 1.56-.036.52 1.684.52 1.025.52-.39.52-1.253.52.86h1.04l.52-2.001.52-.099.521 1.56.52 2.583h0" clip-path="url(#p9080f2ea67)" style="fill:none;stroke:#d8b009;stroke-width:1.5;stroke-linecap:square"/><g id="text_19" style="fill:#53a577" transform="matrix(.14 0 0 -.14 642.385 242.994)"><defs><path id="DejaVuSans-4a" d="M628 4666h631V325q0-844-320-1225T-91-1281h-240v531h197q418 0 590 235 172 234 172 840v4341z" transform="scale(.01563)"/><path id="DejaVuSans-61" d="M2194 1759q-697 0-966-159t-269-544q0-306 202-486 202-179 548-179 479 0 768 339t289 901v128h-572zm1147 238V0h-575v531q-197-318-491-470T1556-91q-537 0-855 302-317 302-317 808 0 590 395 890 396 300 1180 300h807v57q0 397-261 614t-733 217q-300 0-585-72-284-72-546-216v532q315 122 612 182 297 61 578 61 760 0 1135-394 375-393 375-1193z" transform="scale(.01563)"/><path id="DejaVuSans-70" d="M1159 525v-1856H581v4831h578v-531q182 312 458 463 277 152 661 152 638 0 1036-506 399-506 399-1331T3314 415Q2916-91 2278-91q-384 0-661 152-276 152-458 464zm1957 1222q0 634-261 995t-717 361q-457 0-718-361t-261-995q0-634 261-995t718-361q456 0 717 361t261 995z" transform="scale(.01563)"/><path id="DejaVuSans-6e" d="M3513 2113V0h-575v2094q0 497-194 743-194 247-581 247-466 0-735-297-269-296-269-809V0H581v3500h578v-544q207 316 486 472 280 156 646 156 603 0 912-373 310-373 310-1098z" transform="scale(.01563)"/></defs><use xlink:href="#DejaVuSans-4a"/><use xlink:href="#DejaVuSans-61" x="29.492"/><use xlink:href="#DejaVuSans-70" x="90.771"/><use xlink:href="#DejaVuSans-61" x="154.248"/><use xlink:href="#DejaVuSans-6e" x="215.527"/></g><g id="text_20" style="fill:#7516fd" transform="matrix(.14 0 0 -.14 642.385 256.994)"><defs><path id="DejaVuSans-55" d="M556 4666h635V1831q0-750 271-1080 272-329 882-329 606 0 878 329 272 330 272 1080v2835h634V1753q0-912-452-1378Q3225-91 2344-91q-885 0-1337 466-451 466-451 1378v2913z" transform="scale(.01563)"/><path id="DejaVuSans-53" d="M3425 4513v-616q-359 172-678 256-319 85-616 85-515 0-795-200t-280-569q0-310 186-468 186-157 705-254l381-78q706-135 1042-474t336-907q0-679-455-1029Q2797-91 1919-91q-331 0-705 75-373 75-773 222v650q384-215 753-325 369-109 725-109 540 0 834 212 294 213 294 607 0 343-211 537t-692 291l-385 75q-706 140-1022 440-315 300-315 835 0 619 436 975t1201 356q329 0 669-60 341-59 697-177z" transform="scale(.01563)"/></defs><use xlink:href="#DejaVuSans-55"/><use xlink:href="#DejaVuSans-53" x="73.193"/></g><g id="text_21" style="fill:#2f618f" transform="matrix(.14 0 0 -.14 642.385 270.994)"><defs><path id="DejaVuSans-4b" d="M628 4666h631V2694l2094 1972h813L1850 2491 4331 0h-831L1259 2247V0H628v4666z" transform="scale(.01563)"/><path id="DejaVuSans-6f" d="M1959 3097q-462 0-731-361t-269-989q0-628 267-989 268-361 733-361 460 0 728 362 269 363 269 988 0 622-269 986-268 364-728 364zm0 487q750 0 1178-488 429-487 429-1349 0-859-429-1349Q2709-91 1959-91q-753 0-1180 489-426 490-426 1349 0 862 426 1349 427 488 1180 488z" transform="scale(.01563)"/><path id="DejaVuSans-72" d="M2631 2963q-97 56-211 82-114 27-251 27-488 0-749-317t-261-911V0H581v3500h578v-544q182 319 472 473 291 155 707 155 59 0 131-8 72-7 159-23l3-590z" transform="scale(.01563)"/><path id="DejaVuSans-65" d="M3597 1894v-281H953q38-594 358-905t892-311q331 0 642 81t618 244V178Q3153 47 2828-22t-659-69q-838 0-1327 487-489 488-489 1320 0 859 464 1363 464 505 1252 505 706 0 1117-455 411-454 411-1235zm-575 169q-6 471-264 752-258 282-683 282-481 0-770-272t-333-766l2050 4z" transform="scale(.01563)"/><path id="DejaVuSans-2c" d="M750 794h659V256L897-744H494L750 256v538z" transform="scale(.01563)"/><path id="DejaVuSans-75" d="M544 1381v2119h575V1403q0-497 193-746 194-248 582-248 465 0 735 297 271 297 271 810v1984h575V0h-575v538q-209-319-486-474-276-155-642-155-603 0-916 375-312 375-312 1097zm1447 2203z" transform="scale(.01563)"/><path id="DejaVuSans-74" d="M1172 4494v-994h1184v-447H1172V1153q0-428 117-550t477-122h590V0h-590q-666 0-919 248-253 249-253 905v1900H172v447h422v994h578z" transform="scale(.01563)"/><path id="DejaVuSans-68" d="M3513 2113V0h-575v2094q0 497-194 743-194 247-581 247-466 0-735-297-269-296-269-809V0H581v4863h578V2956q207 316 486 472 280 156 646 156 603 0 912-373 310-373 310-1098z" transform="scale(.01563)"/></defs><use xlink:href="#DejaVuSans-4b"/><use xlink:href="#DejaVuSans-6f" x="60.576"/><use xlink:href="#DejaVuSans-72" x="121.758"/><use xlink:href="#DejaVuSans-65" x="160.621"/><use xlink:href="#DejaVuSans-61" x="222.145"/><use xlink:href="#DejaVuSans-2c" x="283.424"/><use xlink:href="#DejaVuSans-20" x="315.211"/><use xlink:href="#DejaVuSans-53" x="346.998"/><use xlink:href="#DejaVuSans-6f" x="410.475"/><use xlink:href="#DejaVuSans-75" x="471.656"/><use xlink:href="#DejaVuSans-74" x="535.035"/><use xlink:href="#DejaVuSans-68" x="574.244"/></g><g id="text_22" style="fill:#fe7b74" transform="matrix(.14 0 0 -.14 642.385 284.994)"><defs><path id="DejaVuSans-54" d="M-19 4666h3947v-532H2272V0h-634v4134H-19v532z" transform="scale(.01563)"/><path id="DejaVuSans-69" d="M603 3500h575V0H603v3500zm0 1363h575v-729H603v729z" transform="scale(.01563)"/><path id="DejaVuSans-77" d="M269 3500h575l719-2731 715 2731h678l719-2731 716 2731h575L4050 0h-678l-753 2869L1863 0h-679L269 3500z" transform="scale(.01563)"/><path id="DejaVuSans-2a" d="m3009 3897-1121-606 1121-610-181-306-1050 634V1831h-356v1178L372 2375l-181 306 1122 610-1122 606 181 309 1050-634v1178h356V3572l1050 634 181-309z" transform="scale(.01563)"/></defs><use xlink:href="#DejaVuSans-54"/><use xlink:href="#DejaVuSans-61" x="44.584"/><use xlink:href="#DejaVuSans-69" x="105.863"/><use xlink:href="#DejaVuSans-77" x="133.646"/><use xlink:href="#DejaVuSans-61" x="215.434"/><use xlink:href="#DejaVuSans-6e" x="276.713"/><use xlink:href="#DejaVuSans-2a" x="340.092"/></g><g id="text_23" style="fill:#d8b009" transform="matrix(.14 0 0 -.14 642.385 298.994)"><defs><path id="DejaVuSans-47" d="M3809 666v1253H2778v519h1656V434q-365-259-806-392-440-133-940-133-1094 0-1712 639-617 640-617 1780 0 1144 617 1783 618 639 1712 639 456 0 867-113 411-112 758-331v-672q-350 297-744 447t-828 150q-857 0-1287-478-429-478-429-1425 0-944 429-1422 430-478 1287-478 334 0 596 58 263 58 472 180z" transform="scale(.01563)"/><path id="DejaVuSans-6d" d="M3328 2828q216 388 516 572t706 184q547 0 844-383 297-382 297-1088V0h-578v2094q0 503-179 746-178 244-543 244-447 0-707-297-259-296-259-809V0h-578v2094q0 506-178 748t-550 242q-441 0-701-298-259-298-259-808V0H581v3500h578v-544q197 322 472 475t653 153q382 0 649-194 267-193 395-562z" transform="scale(.01563)"/><path id="DejaVuSans-79" d="M2059-325q-243-625-475-815-231-191-618-191H506v481h338q237 0 368 113 132 112 291 531l103 262L191 3500h609L1894 763l1094 2737h609L2059-325z" transform="scale(.01563)"/></defs><use xlink:href="#DejaVuSans-47"/><use xlink:href="#DejaVuSans-65" x="77.49"/><use xlink:href="#DejaVuSans-72" x="139.014"/><use xlink:href="#DejaVuSans-6d" x="178.377"/><use xlink:href="#DejaVuSans-61" x="275.789"/><use xlink:href="#DejaVuSans-6e" x="337.068"/><use xlink:href="#DejaVuSans-79" x="400.447"/></g></g></g><defs><clipPath id="p9080f2ea67"><path d="M67.645 10.147h558v277.2h-558z"/></clipPath></defs></svg>