<svg xmlns="http://www.w3.org/2000/svg" xmlns:xlink="http://www.w3.org/1999/xlink" width="951.91" height="419.87" viewBox="0 0 713.933 314.903"><defs><style>*{stroke-linejoin:round;stroke-linecap:butt}</style></defs><g id="figure_1"><path id="patch_1" d="M0 314.903h713.933V0H0v314.903z" style="fill:none"/><g id="axes_1"><path id="patch_2" d="M67.645 284.4h558V7.2h-558v277.2z" style="fill:none"/><g id="matplotlib.axis_1"><g id="xtick_1"><g id="line2d_1"><defs><path id="m5127228a23" d="M0 0v3.5" style="stroke:#b0b0b0;stroke-width:.4"/></defs><use xlink:href="#m5127228a23" x="116.803" y="284.4" style="fill:#b0b0b0;stroke:#b0b0b0;stroke-width:.4"/></g><g id="text_1" style="fill:#b0b0b0" transform="matrix(.14 0 0 -.14 87.555 302.038)"><defs><path id="DejaVuSans-32" d="M1228 531h2203V0H469v531q359 372 979 998 621 627 780 809 303 340 423 576 121 236 121 464 0 372-261 606-261 235-680 235-297 0-627-103-329-103-704-313v638q381 153 712 231 332 78 607 78 725 0 1156-363 431-362 431-968 0-288-108-546-107-257-392-607-78-91-497-524-418-433-1181-1211z" transform="scale(.01563)"/><path id="DejaVuSans-30" d="M2034 4250q-487 0-733-480-245-479-245-1442 0-959 245-1439 246-480 733-480 491 0 736 480 246 480 246 1439 0 963-246 1442-245 480-736 480zm0 500q785 0 1199-621 414-620 414-1801 0-1178-414-1799Q2819-91 2034-91q-784 0-1198 620-414 621-414 1799 0 1181 414 1801 414 621 1198 621z" transform="scale(.01563)"/><path id="DejaVuSans-2d" d="M313 2009h1684v-512H313v512z" transform="scale(.01563)"/><path id="DejaVuSans-35" d="M691 4666h2478v-532H1269V2991q137 47 274 70 138 23 276 23 781 0 1237-428 457-428 457-1159 0-753-469-1171Q2575-91 1722-91q-294 0-599 50Q819 9 494 109v635q281-153 581-228t634-75q541 0 856 284 316 284 316 772 0 487-316 771-315 285-856 285-253 0-505-56-251-56-513-175v2344z" transform="scale(.01563)"/></defs><use xlink:href="#DejaVuSans-32"/><use xlink:href="#DejaVuSans-30" x="63.623"/><use xlink:href="#DejaVuSans-32" x="127.246"/><use xlink:href="#DejaVuSans-30" x="190.869"/><use xlink:href="#DejaVuSans-2d" x="254.492"/><use xlink:href="#DejaVuSans-30" x="290.576"/><use xlink:href="#DejaVuSans-35" x="354.199"/></g></g><g id="xtick_2"><use xlink:href="#m5127228a23" id="line2d_2" x="181.128" y="284.4" style="fill:#b0b0b0;stroke:#b0b0b0;stroke-width:.4"/><g id="text_2" style="fill:#b0b0b0" transform="matrix(.14 0 0 -.14 151.88 302.038)"><defs><path id="DejaVuSans-39" d="M703 97v575q238-113 481-172 244-59 479-59 625 0 954 420 330 420 377 1277-181-269-460-413-278-144-615-144-700 0-1108 423-408 424-408 1159 0 718 425 1152 425 435 1131 435 810 0 1236-621 427-620 427-1801 0-1103-524-1761Q2575-91 1691-91q-238 0-482 47Q966 3 703 97zm1256 1978q425 0 673 290 249 291 249 798 0 503-249 795-248 292-673 292t-673-292q-248-292-248-795 0-507 248-798 248-290 673-290z" transform="scale(.01563)"/></defs><use xlink:href="#DejaVuSans-32"/><use xlink:href="#DejaVuSans-30" x="63.623"/><use xlink:href="#DejaVuSans-32" x="127.246"/><use xlink:href="#DejaVuSans-30" x="190.869"/><use xlink:href="#DejaVuSans-2d" x="254.492"/><use xlink:href="#DejaVuSans-30" x="290.576"/><use xlink:href="#DejaVuSans-39" x="354.199"/></g></g><g id="xtick_3"><use xlink:href="#m5127228a23" id="line2d_3" x="244.929" y="284.4" style="fill:#b0b0b0;stroke:#b0b0b0;stroke-width:.4"/><g id="text_3" style="fill:#b0b0b0" transform="matrix(.14 0 0 -.14 215.681 302.038)"><defs><path id="DejaVuSans-31" d="M794 531h1031v3560L703 3866v575l1116 225h631V531h1031V0H794v531z" transform="scale(.01563)"/></defs><use xlink:href="#DejaVuSans-32"/><use xlink:href="#DejaVuSans-30" x="63.623"/><use xlink:href="#DejaVuSans-32" x="127.246"/><use xlink:href="#DejaVuSans-31" x="190.869"/><use xlink:href="#DejaVuSans-2d" x="254.492"/><use xlink:href="#DejaVuSans-30" x="290.576"/><use xlink:href="#DejaVuSans-31" x="354.199"/></g></g><g id="xtick_4"><use xlink:href="#m5127228a23" id="line2d_4" x="307.684" y="284.4" style="fill:#b0b0b0;stroke:#b0b0b0;stroke-width:.4"/><g id="text_4" style="fill:#b0b0b0" transform="matrix(.14 0 0 -.14 278.436 302.038)"><use xlink:href="#DejaVuSans-32"/><use xlink:href="#DejaVuSans-30" x="63.623"/><use xlink:href="#DejaVuSans-32" x="127.246"/><use xlink:href="#DejaVuSans-31" x="190.869"/><use xlink:href="#DejaVuSans-2d" x="254.492"/><use xlink:href="#DejaVuSans-30" x="290.576"/><use xlink:href="#DejaVuSans-35" x="354.199"/></g></g><g id="xtick_5"><use xlink:href="#m5127228a23" id="line2d_5" x="372.009" y="284.4" style="fill:#b0b0b0;stroke:#b0b0b0;stroke-width:.4"/><g id="text_5" style="fill:#b0b0b0" transform="matrix(.14 0 0 -.14 342.76 302.038)"><use xlink:href="#DejaVuSans-32"/><use xlink:href="#DejaVuSans-30" x="63.623"/><use xlink:href="#DejaVuSans-32" x="127.246"/><use xlink:href="#DejaVuSans-31" x="190.869"/><use xlink:href="#DejaVuSans-2d" x="254.492"/><use xlink:href="#DejaVuSans-30" x="290.576"/><use xlink:href="#DejaVuSans-39" x="354.199"/></g></g><g id="xtick_6"><use xlink:href="#m5127228a23" id="line2d_6" x="435.81" y="284.4" style="fill:#b0b0b0;stroke:#b0b0b0;stroke-width:.4"/><g id="text_6" style="fill:#b0b0b0" transform="matrix(.14 0 0 -.14 406.562 302.038)"><use xlink:href="#DejaVuSans-32"/><use xlink:href="#DejaVuSans-30" x="63.623"/><use xlink:href="#DejaVuSans-32" x="127.246"/><use xlink:href="#DejaVuSans-32" x="190.869"/><use xlink:href="#DejaVuSans-2d" x="254.492"/><use xlink:href="#DejaVuSans-30" x="290.576"/><use xlink:href="#DejaVuSans-31" x="354.199"/></g></g><g id="xtick_7"><use xlink:href="#m5127228a23" id="line2d_7" x="498.565" y="284.4" style="fill:#b0b0b0;stroke:#b0b0b0;stroke-width:.4"/><g id="text_7" style="fill:#b0b0b0" transform="matrix(.14 0 0 -.14 469.317 302.038)"><use xlink:href="#DejaVuSans-32"/><use xlink:href="#DejaVuSans-30" x="63.623"/><use xlink:href="#DejaVuSans-32" x="127.246"/><use xlink:href="#DejaVuSans-32" x="190.869"/><use xlink:href="#DejaVuSans-2d" x="254.492"/><use xlink:href="#DejaVuSans-30" x="290.576"/><use xlink:href="#DejaVuSans-35" x="354.199"/></g></g><g id="xtick_8"><use xlink:href="#m5127228a23" id="line2d_8" x="562.89" y="284.4" style="fill:#b0b0b0;stroke:#b0b0b0;stroke-width:.4"/><g id="text_8" style="fill:#b0b0b0" transform="matrix(.14 0 0 -.14 533.642 302.038)"><use xlink:href="#DejaVuSans-32"/><use xlink:href="#DejaVuSans-30" x="63.623"/><use xlink:href="#DejaVuSans-32" x="127.246"/><use xlink:href="#DejaVuSans-32" x="190.869"/><use xlink:href="#DejaVuSans-2d" x="254.492"/><use xlink:href="#DejaVuSans-30" x="290.576"/><use xlink:href="#DejaVuSans-39" x="354.199"/></g></g></g><g id="matplotlib.axis_2"><g id="ytick_1"><path id="line2d_9" d="M67.645 284.4h558" clip-path="url(#p0662fe7ae6)" style="fill:none;stroke:#b0b0b0;stroke-width:.3;stroke-linecap:square"/><g id="line2d_10"><defs><path id="mda994b03c7" d="M0 0h-3.5" style="stroke:#b0b0b0;stroke-width:.3"/></defs><use xlink:href="#mda994b03c7" x="67.645" y="284.4" style="fill:#b0b0b0;stroke:#b0b0b0;stroke-width:.3"/></g><use xlink:href="#DejaVuSans-30" id="text_9" style="fill:#b0b0b0" transform="matrix(.14 0 0 -.14 51.737 289.719)"/></g><g id="ytick_2"><path id="line2d_11" d="M67.645 246.636h558" clip-path="url(#p0662fe7ae6)" style="fill:none;stroke:#b0b0b0;stroke-width:.3;stroke-linecap:square"/><use xlink:href="#mda994b03c7" id="line2d_12" x="67.645" y="246.636" style="fill:#b0b0b0;stroke:#b0b0b0;stroke-width:.3"/><g id="text_10" style="fill:#b0b0b0" transform="matrix(.14 0 0 -.14 16.108 251.955)"><use xlink:href="#DejaVuSans-35"/><use xlink:href="#DejaVuSans-30" x="63.623"/><use xlink:href="#DejaVuSans-30" x="127.246"/><use xlink:href="#DejaVuSans-30" x="190.869"/><use xlink:href="#DejaVuSans-30" x="254.492"/></g></g><g id="ytick_3"><path id="line2d_13" d="M67.645 208.872h558" clip-path="url(#p0662fe7ae6)" style="fill:none;stroke:#b0b0b0;stroke-width:.3;stroke-linecap:square"/><use xlink:href="#mda994b03c7" id="line2d_14" x="67.645" y="208.872" style="fill:#b0b0b0;stroke:#b0b0b0;stroke-width:.3"/><g id="text_11" style="fill:#b0b0b0" transform="matrix(.14 0 0 -.14 7.2 214.191)"><use xlink:href="#DejaVuSans-31"/><use xlink:href="#DejaVuSans-30" x="63.623"/><use xlink:href="#DejaVuSans-30" x="127.246"/><use xlink:href="#DejaVuSans-30" x="190.869"/><use xlink:href="#DejaVuSans-30" x="254.492"/><use xlink:href="#DejaVuSans-30" x="318.115"/></g></g><g id="ytick_4"><path id="line2d_15" d="M67.645 171.108h558" clip-path="url(#p0662fe7ae6)" style="fill:none;stroke:#b0b0b0;stroke-width:.3;stroke-linecap:square"/><use xlink:href="#mda994b03c7" id="line2d_16" x="67.645" y="171.108" style="fill:#b0b0b0;stroke:#b0b0b0;stroke-width:.3"/><g id="text_12" style="fill:#b0b0b0" transform="matrix(.14 0 0 -.14 7.2 176.427)"><use xlink:href="#DejaVuSans-31"/><use xlink:href="#DejaVuSans-35" x="63.623"/><use xlink:href="#DejaVuSans-30" x="127.246"/><use xlink:href="#DejaVuSans-30" x="190.869"/><use xlink:href="#DejaVuSans-30" x="254.492"/><use xlink:href="#DejaVuSans-30" x="318.115"/></g></g><g id="ytick_5"><path id="line2d_17" d="M67.645 133.344h558" clip-path="url(#p0662fe7ae6)" style="fill:none;stroke:#b0b0b0;stroke-width:.3;stroke-linecap:square"/><use xlink:href="#mda994b03c7" id="line2d_18" x="67.645" y="133.344" style="fill:#b0b0b0;stroke:#b0b0b0;stroke-width:.3"/><g id="text_13" style="fill:#b0b0b0" transform="matrix(.14 0 0 -.14 7.2 138.663)"><use xlink:href="#DejaVuSans-32"/><use xlink:href="#DejaVuSans-30" x="63.623"/><use xlink:href="#DejaVuSans-30" x="127.246"/><use xlink:href="#DejaVuSans-30" x="190.869"/><use xlink:href="#DejaVuSans-30" x="254.492"/><use xlink:href="#DejaVuSans-30" x="318.115"/></g></g><g id="ytick_6"><path id="line2d_19" d="M67.645 95.58h558" clip-path="url(#p0662fe7ae6)" style="fill:none;stroke:#b0b0b0;stroke-width:.3;stroke-linecap:square"/><use xlink:href="#mda994b03c7" id="line2d_20" x="67.645" y="95.581" style="fill:#b0b0b0;stroke:#b0b0b0;stroke-width:.3"/><g id="text_14" style="fill:#b0b0b0" transform="matrix(.14 0 0 -.14 7.2 100.9)"><use xlink:href="#DejaVuSans-32"/><use xlink:href="#DejaVuSans-35" x="63.623"/><use xlink:href="#DejaVuSans-30" x="127.246"/><use xlink:href="#DejaVuSans-30" x="190.869"/><use xlink:href="#DejaVuSans-30" x="254.492"/><use xlink:href="#DejaVuSans-30" x="318.115"/></g></g><g id="ytick_7"><path id="line2d_21" d="M67.645 57.817h558" clip-path="url(#p0662fe7ae6)" style="fill:none;stroke:#b0b0b0;stroke-width:.3;stroke-linecap:square"/><use xlink:href="#mda994b03c7" id="line2d_22" x="67.645" y="57.817" style="fill:#b0b0b0;stroke:#b0b0b0;stroke-width:.3"/><g id="text_15" style="fill:#b0b0b0" transform="matrix(.14 0 0 -.14 7.2 63.136)"><defs><path id="DejaVuSans-33" d="M2597 2516q453-97 707-404 255-306 255-756 0-690-475-1069Q2609-91 1734-91q-293 0-604 58T488 141v609q262-153 574-231 313-78 654-78 593 0 904 234t311 681q0 413-289 645-289 233-804 233h-544v519h569q465 0 712 186t247 536q0 359-255 551-254 193-729 193-260 0-557-57-297-56-653-174v562q360 100 674 150t592 50q719 0 1137-327 419-326 419-882 0-388-222-655t-631-370z" transform="scale(.01563)"/></defs><use xlink:href="#DejaVuSans-33"/><use xlink:href="#DejaVuSans-30" x="63.623"/><use xlink:href="#DejaVuSans-30" x="127.246"/><use xlink:href="#DejaVuSans-30" x="190.869"/><use xlink:href="#DejaVuSans-30" x="254.492"/><use xlink:href="#DejaVuSans-30" x="318.115"/></g></g><g id="ytick_8"><path id="line2d_23" d="M67.645 20.053h558" clip-path="url(#p0662fe7ae6)" style="fill:none;stroke:#b0b0b0;stroke-width:.3;stroke-linecap:square"/><use xlink:href="#mda994b03c7" id="line2d_24" x="67.645" y="20.053" style="fill:#b0b0b0;stroke:#b0b0b0;stroke-width:.3"/><g id="text_16" style="fill:#b0b0b0" transform="matrix(.14 0 0 -.14 7.2 25.372)"><use xlink:href="#DejaVuSans-33"/><use xlink:href="#DejaVuSans-35" x="63.623"/><use xlink:href="#DejaVuSans-30" x="127.246"/><use xlink:href="#DejaVuSans-30" x="190.869"/><use xlink:href="#DejaVuSans-30" x="254.492"/><use xlink:href="#DejaVuSans-30" x="318.115"/></g></g></g><path id="line2d_25" d="m67.645 284.4 21.441-.107 2.092-.154 1.57-.265 1.568-.405 1.046-.457.523-.098 3.66-2.176 3.661-.564 3.138.786.523.336 1.569.476 1.046.437 3.66.405 1.047.245 5.752.789 1.046.013 6.276.252 1.569.063 14.12.088 2.614-.13 3.661.126 11.505-.02 4.707-.139 9.936-.433 1.569-.1 8.367.102 1.57-.093 2.091-.076 6.799-.332 2.091-.104 3.138-.652 1.046-.362 1.046-.277 1.569-.831 1.046-.563 1.046-.497.523-.265 1.046-.924 1.046-1.345 1.046-.96.522-.796.523-.592.523-.803 1.046-.792 2.092-1.384.523-.304.523-.469 1.046-.335.523.002 1.046-.34.523-.219.523.101.523-.1.523.274 1.046.198 1.569-.146.523.13 2.091.01 2.092.317.523-.005.523.147 1.046-.045.523-.175.523-.341 1.046-.174.523-.383.523-.176 1.046-1.246.523-.262.523-.435.523-.04.523-.747 2.091-1.357.523-.03.523-.55.523.322.523-.568.523 3.644.523-.937.523.972 1.046 1.328.523.246 1.046-.038 1.046.843 1.569.36.523.665.523-3.436.523 1.178.523-.715.523-.286.523-.098 1.045.31.523 1.022.523.65.523.33.523.578.523.154 1.046.906.523.486 1.046.42.523.044.523.535 1.569 1.02.523.442 1.569.268 1.046.738 1.046.318.523.278.523.116 3.137 1.729 3.138.012.523-.168 1.569-.046 1.046-.275 1.569-.126 1.569-.12 1.046-.041 2.091-.1 2.615-1.306.523-.132 1.569-1.304 1.046-.68 1.046-.336.523-.256 1.046-.997 1.046-.85 1.569-.59.523-.178.522-.034.523.253.523.537.523.149.523.287.523.796.523.42.523-.386 1.57-1.767.522-.423.523-1.297.523-.973 1.569-.151 1.046.324.523-.344.523-.01.523-.185 1.569.038.523-.147.522.286.523.516.523.347.523.48 1.046.565 1.57 1.125.522.63 1.569.984.523.152.523.338.523.489 1.046 1.612.523.448 1.046.37 1.569 1.247 1.046.28 1.045.543.523.907.523.646 1.046.329.523.309 1.046.09.523-.248.523.18 1.046.793 1.046.245.523.063 1.046.336 3.138.537 1.568.554 1.046-.028 6.276.356.523.058.523-.132 3.66-.126 1.57-.155 4.706-.432 1.046-.089 1.046-.1 1.046-.174h1.046l1.046-.14 2.092-.237h.523l.523-.235 1.045-.23 1.046-.457h1.046l.523-.537.523-.155 1.57-1.056h1.045l.523-.681.523-.198 1.569-1.102h1.046l.523-.482h.523l1.569-.57h1.045l.523-.298 1.57-.294.522.138h1.046l.523.212 1.046.163 1.046.48h1.046l.523.443 2.092.775h1.046l.523.212.523.054 1.568-.343 4.707.004.523-.195 1.569-.136.523-.118h1.046l.523-.443.523-.194 1.046-.95.523-.87h1.046l.523-1.269.523-.4.522-.668.523-1.29.523-.55h1.046l.523-1.364.523-.036.523.303.523-.638.523-1.343h1.046l.523-2.694.523-1.19 1.046-3.832.523-1.243h1.046l.523-3.143.523-1.102 1.046-3.057.523-.467h1.046l.522-3.788 1.57-4.092.522-2.53h1.046l.523-.387 1.046-.08 1.046.52h1.046l.523.7.523 1.046.523-.26.523.28.523 1.41h1.046l.523 2.839.523.565.523 1.974.523 1.504.523 1.113h1.045l.523 2.141 1.046 1.407.523 1.267.523 5.5h1.046l.523.711.523.253.523.606.523.233h1.569l.523 8.81.523-11.668 1.046-4.364.523-6.078h1.046l.523-12.699.523 9.013 1.045-4.164.523-3.872h1.046l.523-5.069 1.046-6.539 1.046-10.796h1.046l.523-12.907 1.046-11.245.523-7.51.523-5.394h1.046l.523-11.022.523-3.848.523-4.801.523-3.559.523-6.332h1.046l.523-6.453.522-.75.523-2.779.523-1.267.523.935h1.046l.523 3.76.523 1.117 1.046 2.86.523 2.172h1.046l1.046 6.875.523 1.179.523 2.082.523 1.004h1.046l.523 3.767.523.41.523 2.442.523.61.523-.74h1.045l.523-4.47.523 13.176.523-20.096.523-5.619.523-3.802h1.046l.523-9.554.523-21.46.523 11.876.523-3.472.523-4.857h1.046l.523-.892 1.569-7.314.523.145h1.046l.523 5.783.523-1.648.523 1.646 1.045 9.436h1.046l.523 12.852 1.046 11.917 1.046 16.232h1.046l.523 8.06.523 1.9 1.046 8.096.523 18.91h1.046l.523 25.565.523-12.342 1.046-4.665.523-17.45h1.046l.523-20.968.523 15.147 1.568 18.693h1.046l.523 9.85.523 2.512 1.046 7.441.523 1.784h1.046l.523 2.046.523.642.523 1.038.523.778.523 1.734h1.046l.523 1.487 1.046 4.992.523 3.263.523 2.168h1.046l1.568 7.294.523 6.335.523.793.523-4.687h.523l.523 5.119.523.275.523-.628.523-5.233.523-.122.523 4.687h1.046l.523 1.691 1.569-10.144h1.046l1.046-14.063.523-.83.523-1.241.523 5.369h1.045l1.046-3.642 1.046-6.161.523-8.64h1.046l.523-.316.523-2.075 1.046-3.024.523-.53h1.046l.523-1.176.523-.557.523.348.523-.295.523-.5h1.046l.523.175.523-.78.523.336.522-1.807.523.867h1.046l.523-2.55.523-.643.523-1.445.523 1.675.523.203h1.046l.523 3.348.523 1.642.523 2.074.523 3.506.523 2.484h1.046l.523 2.713 1.046 8.295 1.046 5.91h1.046l.523 1.86.522 2.59 1.046 3.205.523 1.043h1.046l.523.406.523 1.613.523.577.523.13.523.336h1.046l.523 1.026.523.36.523 1.56 1.046 2.035h1.046l.523.336.523.637.523.393.523 1.057.523.369h1.045l1.57 1.239 1.045-.51 1.57-.088 1.568-1.563.523-.297h1.046l1.046-1.269.523-.584 1.046-2.43h1.046l.523-1.116.523-3.134.523-4.218.523-2.361.522-4.917h1.046l.523 5.067.523 1.665.523-4.07.523-5.787.523-8.388h1.046l1.046-23.84.523-.347.523-1.372.523 6.465h1.046l.523 3.318.523 2.426.523.72.523 3.065.523 2.364h1.046l.523 1.82 2.091 14.945h1.046l.523 2.904 1.046 14.221.523.03.523.524h1.046l.523.956.523-1.35.523-1.926.523 4.311.523 2.475h1.046l.523 1.131.523 1.498.523.994 1.046 1.238h1.046l.522.329 1.046 1.167.523-.516.523-.262 1.57.07.522-.527.523-1.13.523.213 1.569-.044.523-.34.523-.025.523-.17 1.046-1.03h1.046l.523-.541.523-.751.523-.323 1.046-1.025h1.045l1.046-.292 1.046-.79 1.046-.078h.523l.523 3.701.523 2.254.523-.855.523-2.757.523 1.892h0" clip-path="url(#p0662fe7ae6)" style="fill:none;stroke:#d8b009;stroke-width:1.5;stroke-linecap:square"/><path id="line2d_26" d="m67.645 284.4 20.918-.107 2.615-.224 2.092-.309 2.092-.435 1.046-.375 1.046-.299 2.092-.79.523-.107.523-.581.523-.203.523.196.522-.155.523 2.344 1.046.372.523.673h1.57l.522-1.151.523-5.384.523-.052.523-2.259.523.07.523-.949.523-.035.523-.255.523 5.358.523.075.523 1.595.523.152.523 1.541.523-.1.523.23.523.05 1.046-.184.522.351.523-.316.523.247 1.046.125 1.046.554.523-.603 1.57.08 1.568.077.523.39 7.321.19.523-.332.523.017 1.046-.207 1.046.089.523.367 1.046-.109.523.132 1.569-.127.523-.415.523.43 2.615-.017 3.137-.017 2.615.023.523.081 2.092-.135 1.046.088 1.569-.087 2.615.02h1.046l2.614-.005 3.138-.223 1.569-.06 1.569-.098 1.569-.092 4.706-.505 1.046-.172 1.046-.664.523.445 1.046-.204 1.046-.45.523-.029 1.569-.489.523.378.523-.693 1.046-.503 1.046-.192.523-.163.523-.734.523.443.523-.133.523-.339 3.66-1.293.523.073 1.046-.34.523-.18.523-.05.523-.4.523-.24.523-.453.523.085 1.046-.564.523-.612.523-.31 1.046-.081 1.046.358.523-.122 1.045.706 1.046-.449.523-.144.523-.357 1.046-.967 1.046-2.024 2.092-1.445.523-1.333 1.046-1.086.523-1.494.523-.547.523-.729.523-.48.523-1.192.523-1.858.523-1.416.523 2.506.523-6.336.523-1.52.522-1.094 1.046-1.343.523 1.097 1.57-11.954.522 9.028 1.046-2.445.523-5.562.523.821.523 9.136.523 5.393.523-8.904.523 2.726.523 3.972.523 5.902 1.046 2.454.523-2.48.523.815.523 1.27.523.094 1.046 3.059.522.538.523 3.85.523 1.304.523.84.523 1.132.523.56.523.364 1.046.24.523.273.523.024.523.136 1.569-.075.523-.604 1.046-.166 1.046-.328 1.046-.04.523.25.523-.328.523-.488 2.091-1.075.523-.014.523.295 1.046-.832.523 1.547 1.046.738.523.04.523-1.244 1.046.283.523-.04.523-.392.523-.105.523-1.008.523.144.523-.19.523-.055.523-1.803.523-.373 1.046.145 1.045.182 1.57-.365.522.002.523-.46.523-.305 1.046-.365 1.046-.484.523-.054.523.203 2.092-.124 1.569-.236.523.059.523 2.567.523-2.414.523.373 1.046-.036.522.466.523.107.523-2.272.523 2.687.523-.07.523.328 1.57-.029.522-.155.523-.37.523-.122.523-.58 1.046-.091.523-.7.523-.312 1.046-.305.523.225.523-.008.523-.289.523.509.523.014 1.046.262 1.045-.292.523-.033 1.046-.61.523-.17.523-.687.523-.498.523-.1.523-.739 1.569-2.792 1.046-1.057.523-1.007.523 1.654.523-2.9.523-1.142 1.569-2.213.523.724.523-1.73.523.685 1.045-1.06.523 4.582.523-4.695.523-.182.523 2.446.523 6.271.523-5.001.523 5.019.523-.134.523-4.02.523.241.523-3.353.523-4.594.523 6.365 1.046-7.634.523 9.551.523.199.523-.534.523.926 1.046.945.523.348.523.526.523.081.523 1.484.522.365 1.57 2.359.522 1.573.523.237 1.57 1.76 1.045 1.085 1.046.136 1.046.981.523.243.523 1.306.523.55.523-.53.523-.005 1.046.54.523 10.342h3.137l.523-7.246 2.092.602.523-.723.523 1.22.523-.176 1.569 1.368.523-.087.523.413.523-.455.523 1.196 1.046.621.523.238.523.052 1.569.832 5.752.762.523-.128.523.103 3.138-.397 1.046-.484 1.569-.571.523-.05.523-.364.523.284 2.091-2.967.523-.315.523-1.215.523-2.171.523-1.192.523-.914.523-1.59.523-.292.523-.132.523-.961.523-.686.523-.359.523-.529.523.203 1.046-.825.523.305 2.615-.755.523.148 1.045-.879 1.046-.511.523.154.523-.087.523-.667 2.092 1.685.523.185.523.428.523.592.523-.085 1.046 1.298.523 2.426.523-1.394.523.396.523.025.523 2.793.523-1.017.523.597.523-1.594.523 2.406.522.347.523.5.523-1.565.523 2.934.523-.428.523.562 1.046.65 1.046.088.523.598.523.403 1.569.655.523.084.523.613.523-.728.523.764.523.116.523.281 5.23 1.038.522-.376 3.138.08.523.876.523-.48.523-.15 2.092.016.523-.483.523.364.523-.029 1.046-.28 1.046-.101.522-.108 1.046.016 1.57-.311.522.503 1.57-.983 1.045-.483.523-.038.523-1.129.523-.176.523-.35.523.56 1.046-.967.523-.115 1.569-2.534.523-1.876 1.046-1.648.522-.22 1.046-2.47 2.092-5.667.523-.347 2.092-7.001.523-1.551.523-1.14.523-.333 1.046-2.451.523-.911.523-.571 1.046-.448.523-.05 1.569-1.375.523-.322 1.045-.997.523-.327.523-1.022.523-2.006 1.046-7.198.523-4.971.523 2.241.523-1.656 1.046-24.905 1.569-39.651 1.046-7.31.523-9.944.523-13.39.523-6.08 1.046-19.485.523-25.643.523-2.854.523-10.45.523-3.19.522-4.909.523-.16.523-2.259.523 1.939.523-.941.523-10.407.523-8.058.523-12.832 1.046-14.72.523-2.537.523-.736.523-4.109.523.954.523 3.638 1.046 11.23.523 5.63.523 2.269.523 9.56 2.615 59.522.523 4.273.522 18.994.523 33.88.523-6.25 1.046 21.981.523 7.431.523 1.752.523 25.542.523-25.989.523 25.973 1.046 9.765.523 2.972.523 1.309.523-10.31.523 18.274 1.569 8.082.523 1.77.523.51 1.046 3.485.523.778 1.046.035.522-.294.523-.06 1.57-4.106 1.568-4.809.523-.68.523-2.555.523-4.169 2.092-10.99.523-.206.523-6.884 1.569-13.946.523-4.468.523-3.118.523-.569.523-3.936.523-1.615.523-3.147.522-.587 1.046 1.652.523-.25.523.855.523 1.955.523 1.15.523.005.523-1.043.523-.581.523.71.523 2.049.523.482 1.046 4.864.523 3.258.523 2.267.523.618.523 17.832.523-1.001 2.092 13.933.523.62.523-7.769.522 9.494 1.046 8.58.523 3.354.523 2.399.523.572.523 3.278 1.046 3.818 1.046 2.618.523.799.523.15.523 1.15 2.615 4.003.523.152.523 1.374.523-2.578 1.569 2.667.523.634.522 3.84.523 1.235.523 4.569.523.713.523 2.107.523-.116.523.057.523-3.703 1.046-.78.523-.447.523-2.19.523-.172.523-.443.523-.167.523 2.536.523-2.987.523-1.594 1.569 7.644.523.668.523-17.797.523.203.523-1.395.523-5.452 1.045-.01.523-11 .523 8.75 1.57-8.79h1.045l1.046-12.433 1.569-15.753h1.046l.523-8.47.523-6.431 1.046-6.244.523-1.74h1.046l.523-.873 1.046 5.496 1.045 32.617h1.046l.523-11.476.523 5.158.523 4.055 1.046-16.772h1.046l.523 24.588.523 4.993 1.569 9.661h1.046l.523 5.38.523 3.615 1.046 4.06.523 1.62h1.046l.523 2.675.522 1.8.523 1.314 1.046 1.853h1.046l.523 5.942 1.046-1.987.523.078.523.268h1.046l.523-4.158.523 2.13.523 1.566.523.4.523.233h1.046l.523.322 2.092.704h1.045l.523.41.523.08 1.046-.193.523-.29h1.046l.523-.927.523-2.052.523-1.02.523-1.448.523-1.035h1.046l.523-2.264.523-.636.523-.937.523-.559.523-.953h1.046l.523-1.658.523-2.522 1.046-2.86.522-1.158h1.046l1.57-4.814 1.045-2.92h1.046l.523-1.784.523-.604.523-.136.523.139 1.569-.02.523.268.523.768.523.527.523.802.523 1.323h1.046l2.091 10.161.523 2.514h1.046l.523 4.227.523 6.436.523.656 1.046-.93h1.046l.523-.94.523-4.374.523.679.523 1.617.523 3.176h1.046l.523-1.518.523-.97 1.046-1.221.523-4.012h1.046l.522-.25 2.092-6.426h1.046l1.046-6.074 1.046-3.968.523-1.12h1.046l.523-.89.523-1.34.523-.952.523-.236.523-.716h1.046l.523-1.727.523.98.523.61 1.046 1.975h1.045l1.57 6.76 1.045 2.764h1.046l.523 6.18.523 1.269 1.046 5.78.523 2.162h0" clip-path="url(#p0662fe7ae6)" style="fill:none;stroke:#0309a6;stroke-width:1.5;stroke-linecap:square"/><path id="line2d_27" d="m67.645 284.4 16.212-.094 2.615-.19 2.091-.329 3.138-1.035 2.615-1.149 1.046-.701 1.569-.566 1.046-.204 1.569.108 2.092.421 1.568.366 1.046.158 1.57.22 2.091.092 1.046.172 1.046.179 1.569.236.523-.076 1.569.296 8.367 1.246 1.046.025 5.23.332 12.55.284 2.092.034 3.138-.035 8.89.058 11.506-.056 8.89-.251 6.276-.51 2.614-.064 2.092-.062 3.138.033 4.707-.183 2.615-.167 2.091-.338 1.046-.309 1.046-.516 2.615-1.618 1.569-1.53 1.046-1.183.523-.537 2.092-3.56 2.614-5.275 1.046-2.595.523-.932 1.57-1.84 1.568-2.422 1.046-.618.523-.74 1.046-.634.523-.335.523.276 1.046-.372.523.313.523-.142.523.194 1.569 1.272.522.478 1.046 1.876 1.046 1.734 1.046 1.742.523.707 1.046.973 1.046 1.08.523.568 1.046.481.523.487 1.046 1.53.523.58 2.092.405.523-.52.523-.133 1.568 1.053 1.046.29.523.394.523.021.523-.392 1.046 1.302 1.046.474.523-.248.523-.587.523-.342.523-.153.523-.573.523-.24 1.046-.893 1.046 1.05.523-.879.523-.472.523-.187.523.122.523.491 1.045.276.523.396.523.656 1.046.804 1.046.582 1.57.69 1.045.02.523-.175 1.046-.025 2.092.276.523.217.523.076 2.614-.299.523.025.523-.16 3.138.277.523.15 1.569-.579 1.046-.561.523-.468 1.046-1.201 3.138-2.443 1.568-1.245.523-.084.523-.287.523-.155 1.57-.861 1.568-.28.523-.083 1.046.197 1.046.365.523-.998 2.092.677 1.046.057.523 1.251.523.29.523-.285 1.045.394 1.046.45.523.24 1.57 2.532 1.568.968.523.097.523-.612.523-.267.523.026 1.569.89 1.046.246.523.25 5.23 1.037.522.433.523.27.523.138 2.092 1.187 1.046.186 1.046.529 1.569 1.103 2.092.972 2.092.905 1.568.405 2.092.592 1.57.264 1.045.363 2.092.293 5.752.72 4.707.39 2.615-.023 2.615-.119 3.66-.528 2.615-.882 3.138-1.253 1.569-.379 1.569-.369 1.046-.042 1.569-.21 1.569-.196 1.045-.12 6.276-.134 1.046-.128 3.138.053 2.092.356 2.614.446 1.57.295 2.091.297 1.569.272 1.569.203 2.092.39 2.614.23 3.138.232 4.707.269 2.092-.148 5.752-1.293.523-.03.523.131 1.046-.176 2.092-.684 1.569-.962 1.569-.57.523-.07 2.092-.844 1.046-.555 1.045-.37 1.046-.582.523-.338.523-.143.523-.348.523-.169 2.092-1.265.523-.405 1.569-.711.523-.31.523.463 1.046-.85 2.092-1.897.523-1.466 1.045-1.635.523-.549.523-.378.523-1.091.523-1.418 1.046-4.365.523-2.884.523-.062.523-1.575.523-5.127.523-6.656 1.569-28.328 1.046-7.93 1.569-29.783.523 3.88.523-6.073.523-10.197 1.046-10.687.523-.768.522 3.76.523-9.988.523.496.523-.196.523 3.67.523-.82.523-.514.523-1.542 1.57 4.947.522.617.523 1.818.523 3.24 2.092 17.518.523 2.162.523 8.413 1.046 10.218 1.046 9.46.523 2.716.523 1.73.522 3.33 1.57 11.636 1.045 6.212.523 1.383.523 3.389 1.046 4.31 1.046 2.732.523 1.094.523.463 3.138 7.06.523.669 1.046 2.613 1.046.93.523-.216 1.045-.906 3.138-8.756.523-.76 2.615-13.257.523-1.244.523-.405.523-1.132.523-.454.523-.03 1.046.36 1.046.305.523-.366 1.046 1.644.522-.07.523.346.523.605.523.025.523 1.228.523.164.523.458.523 1.014.523.754.523.118.523.283.523.524.523.788 1.046 1.063.523-.012.523.18.523 1.092.523 6.12.523-4.084 1.046-2.355.523-.701.523-.496.523-.722.523-.287.522 1.296.523.643 1.046 3.384.523 1.646.523.67.523-3.498.523 4.4.523 2.3 1.046 3.05.523 1.119.523.178 1.046 1.205.523.996 1.046 1.056 1.046.77 3.138 7.073.522.405.523 1.531.523.732.523 1.063 1.57 1.486.522.235 1.046 1.225.523.34.523 1.308.523-.452 1.046-.124 1.046-.86.523-.627.523-1.33.523.039.523-.41.523-.22 1.569-3.746 1.568-4.49.523-.673 1.57-7.105 1.568-6.173.523-.876.523-2.254.523-4.38 1.046-6.18 1.046-5.683.523-1.28.523-5.271.523-1.571.523-2.606 1.046-3.013.523-.933.523-5.058.523-1.191.523-.17.522-.026.523.423.523.811.523 1.356.523 5.58 1.046 5.151 1.57 8.155.522 1.847.523.856.523 3.501 1.046 4.652 1.569 5.476.523.496 1.046 4.53 1.046 3.677.523 1.65.523 1.144.523.814.522 2.376 1.57 4.35.522 1.102.523.777.523.225.523 3.683.523-.492 2.092.378.523-.056.523-2.85.523 1.173 1.046.707 1.046.476.523.223 1.046.846 1.569 1.07.522.48.523.188.523.673 1.046.801 1.046.663.523.14.523-.07.523.183 3.138-.75.523-.565.523-.252 1.569-1.455.523-.724.523-.189 1.569-5.081 1.045-2.6.523-1.091.523-.358.523-1.66 1.57-2.8.522-1.15.523-.597.523-.191.523-.61.523-.272.523-.093 1.569 1.408.523.114 1.046 1.468 2.092 2.319.523.261.523 1.04.522.72 1.046 1.714.523.536.523 2.757.523 1.253.523 5.256 1.046 7.206.523-8.842.523 2.892h2.615l.523-7.574h3.138l.523-2.93h3.137l.523-2.243h3.138l.523.184h3.138l.523.658h3.138l.523 5.038h3.137l.523 3.998h3.138l.523 1.67h0" clip-path="url(#p0662fe7ae6)" style="fill:none;stroke:#1007e1;stroke-width:1.5;stroke-linecap:square"/><path id="line2d_28" d="m67.645 284.4 25.625-.094 4.184-.287 3.66-.178 2.615.19 3.661.164 18.827.17 35.038-.051 25.625-.26 2.092-.13 4.184-.06 5.752-.049 6.276-.335 3.138-.405 2.092-.65.522-.122 1.046-.454 2.092-.864 2.615-1.222 1.046-.194 1.569-.453.523-.14 1.569.262 1.046.009 1.046.474 1.568.288 5.753 1.704 2.615.433 1.569.26 1.046-.023 1.569-.028 2.614.511 3.661.078 2.615-.134 1.569-.038 1.046.068 1.046-.067 5.752.5 2.092-.004 4.707.109 8.89-.186 4.184-.317 5.23-.27 4.183-.328 2.615-.188 1.046-.064 5.23.025 1.568.213 2.615.225 2.092-.03.523.118 1.569.014 1.046.082 1.569.044 15.688 1.258 2.092.068 15.166.28 7.845-.04 12.028-.243 3.66-.088 8.368-.523 4.183-.187 2.615-.229 1.57-.132 4.706.085 2.615.173 9.936-.204 2.092-.313 3.66-.872 1.046-.13 2.092-.951 1.046-.425 1.046-.918 1.046-.67 1.046-.615 1.046-1.041.523-.087 2.092-1.367.523-.485.523-.194.523-.463.523-.153.522-.287 1.046-.154.523.211.523.061 1.57.998 1.568 1.195 1.569 1.764 3.138 2.72 6.798 1.933 2.092.126 1.569-.237 2.092-.675.523-.367 1.046-1.333.523-.547.523-.362 1.569-2.356 1.045-1.565 1.57-2.394 1.045-1.17.523-1.245.523-.896.523-1.37 1.569-2.926 1.046-1.987 1.046-2.032 1.046-1.35 1.046-.217.523-.63.523.229 1.046.148.523-.111.522.019.523-.143.523.384.523-.185 1.046.733.523.533 1.57.641.522.477.523.297 1.046.783 2.092 1.205 1.046.145 1.046-.025.523-.397.523-.616 1.046-.579 1.045-1.3 1.046-1.308.523-1.106 1.046-3.88 1.046-2.372 1.046-1.497.523-1.37 1.046-.329.523.155.523-.008 1.046.684 1.046 2.137.523 1.47.523.985 1.046 2.409.523 1.182.523 2.234 1.568 4.786 1.046 2.285 2.092 4.541.523.644 1.046.814.523.63.523.908.523.64 1.569 1.225.523.185 1.046.839.523-.06 2.092.775 1.045-.02.523.474 1.046.351 2.092.346 2.092.185 1.046.098.523.221 2.092.36 2.092.694 1.046.952.522-.429.523.21.523.065.523.195 1.046.072h.523l.523.23.523-.115 1.046-.001 1.569-.018.523-.346.523-.099 1.046.03.523-.274h1.046l.523-.312.523-.07.523-.298.523-.46.523-.247h1.045l.523-.634 1.046-.585.523-.439.523-.195h1.046l.523-.863.523-.2.523-.755 1.569-.333h.523l.523-.34.523-.035.523.468 2.092-.124.523-.3.523.135 1.568-.477h1.046l.523-.608.523-.203.523-.02.523-.144 1.57.01.522.803.523-.17.523.253 1.046.877h1.046l.523 3.171.523-1.69.523.171 1.046.69h1.046l.523-1.847.522 2.3 1.046.39 1.57-.03 2.091.473.523-.13 2.092-.008.523-.142.523.06.523.233h1.046l.523 1.74.523-1.496 1.569.22h1.045l.523-1.275.523 1.535.523.019 1.046 1.079h1.046l.523-1.107.523.02.523 1.846 1.569-1.87.523-1.102.523 1.992.523-.372.523-2.314 1.046-.425.523-.347.523.356.523-.255.523-.496 1.046-1.265 1.045-.976 2.092-1.39.523-.169.523-.315 1.57-.338 1.045.12.523.068 1.569.82.523.249 1.046.908 1.046 1.015 1.046 2.273.523-.856.523.296 1.045 1.177.523.323 1.046-1.113.523 1.24.523.233.523.402 1.046-.074 1.046.288 2.092.14.523.246 2.092.16 6.275-.563 3.138-.313.523.375.523-.463 1.569-.024 1.046.206.523-.532.523.43 2.615-.384 1.045.145 2.615.152.523-.074.523.124.523.282 1.046.224.523.052h0" clip-path="url(#p0662fe7ae6)" style="fill:none;stroke:#989173;stroke-width:1.5;stroke-linecap:square"/><path id="line2d_29" d="m67.645 284.4 21.441-.103 1.57-.115.522-.303 2.092-.564.523-.17.523-.437.523.054.523-.41.523-.215 1.046-.773.523-.806 2.092-1.698.523-.16.523-.346.523.155 1.568.18.523.15 2.092 1.12 3.138 1.266.523-.248.523-.09.523.416.523-.339.523.187.523-.165.523.097.523.288.523 1.718.523-.219.523.563.523-.032 1.568.955.523-1.275 1.57.397.522-.001.523.124 1.046-.025 1.046.081.523-.274 2.092.227 1.046.105.523.235 1.569.073.523-.124 6.275.062 1.046.179 2.092.04 4.184-.04 3.137-.002 8.368-.057 5.23-.366.522-.273 5.753-.78h1.046l.523-.233.523-.425 2.615-.392.523-.01.522.23.523-.023.523-.374 1.046-.105h.523l.523-.825.523-.16.523-.378.523.055.523-.288h1.046l1.046-.552.523-.067 1.046-.459h1.046l.523-.452 1.046-.246.523.075 1.046-.075h.522l.523-.322 1.57-.317.522-.184 1.57-.092.522-.05.523-.252.523-.056.523-.239h1.046l.523-.434.523-.147 1.046.059.523.228 1.569-.038.523 1.165.523-1.04 1.045.236h1.046l.523.896.523-1.295.523 1.126.523-.324.523-.158h1.046l.523-.472.523.526 1.569-.515h1.046l.523-1.082 1.569-2.096.523-.503h1.046l.523-1.543.523-.49 1.045-.582.523-.62h1.046l.523-.305.523-.027.523-.57.523.18.523.333h1.046l.523.284.523 2.015.523-1.236.523.259.523.123h1.046l.523 1.523.523-1.42.523 2.285.523.354.523.67h1.046l.522 1.337.523.1 1.046.975.523.465h1.046l.523.637.523.429.523.096 1.046.46h1.046l.523.248.523.891.523-.047.523.234.523-.191h1.046l.523-.392.523-1.114.523-.141.523-.45.523-.14 1.568-.076 1.046-.177.523-.057.523 1.275h1.046l1.046-.635 1.046-1.048h1.569l.523-.66.523-1.037.523 1.803 1.046-5.37h1.046l.523-3.328.523-.187.523-4.194.522.7.523-1.591h1.046l.523-2.467.523-.955.523-.292.523-.915.523-.29h1.046l.523-1.029.523-.231.523.139.523 1.02.523.515h1.046l.523 1.525 2.092 3.296h1.046l.523 3.517 2.091 5.636h1.046l.523 1.817 1.046 1.471 1.046.7h1.046l.523 1.014 1.046.455.523.533.523.334h1.046l.523.526.523 5.455h3.137l.523-3.755 1.046-.13.523.142 3.138.077.523.577h1.046l.523-.552.523-.06.523.658 1.046-1.596 1.569.105.523.056.523-.92 1.045 1.506.523-1.033h.523l.523.555.523-.176.523-.027.523-.309.523-1.173.523 1.033h.523l.523-1.336.523.035.523-.182 2.615.236.523.68.523-.782 1.046-.247h1.046l.523.132.523-.827.522.977.523.072.523.28h1.046l1.046.717 1.046.49 1.046.102h.523l.523.255 1.046-.057 1.046.443h1.046l.523.315 1.046.14.523-.004.523.168 1.568-.001.523-.148 1.046.164 1.046-.075h.523l1.046.249 3.138.083 1.046.155.523-.944 1.046.089h.523l.523.148 1.046.072.523 1.058 1.568-.007.523.103 2.615-.23h.523l1.046-.65.523-.528 1.046-1.67h1.046l.523-2.42 2.092-3.181h1.046l.523-.143.523-3.218 1.568-3.081h1.046l.523-2.989.523 1.8.523-.454.523-.199 2.092-.011.523.095 1.046.678.523.693h1.046l2.092 2.41.523.344h1.046l.523 1.759 2.091 2.09h1.046l.523 1.502.523.145 1.046 1.082.523.346h1.046l.523.197.523.46.523.127.523.575.523.32h1.046l.523.907.523.249.523.428.523-.264.523.343h1.045l.523.661 1.046.371.523.518.523.202h1.046l2.615.822h1.046l1.046.284 1.569.259 1.569.102 3.137.17 2.092.25 1.57-.03.522.048.523.194 1.569-.056 1.569-.071.523-.204 2.092-.003 4.183-.008.523.484.523-.42.523.027 1.046-.207h1.046l.523-.692.523.628.523-.45 1.569-.244h.523l1.046-.806.523-.022 1.046-.465h1.046l.522-.656 2.092-1.161h1.046l.523-.76.523-.376.523-.216 1.046-.979h1.046l.523 2.472.523-3.62.523 1.137.523-1.285.523-.362 1.046.009.523-5.374.523 1.907.523-2.928.523-.269.523-1.754 1.045-.01 1.57-9.331.522-4.75.523 3.6h1.046l.523-14.557 1.046-9.772.523-9.578h1.569l.523-17.064.523-1.953.523-3.93.523 17.446.523-26.159h1.046l.523 8.672.523-1.852.523-4.526.522-17.173.523 8.625h1.046l.523-4.216.523 4.366.523 2.286.523.185.523 2.31h1.046l.523 2.81.523-2.202 1.569 7.89h1.046l.523 13.304.523 3.993 1.046 11.205.523 12.831h1.046l.523-1.47.522 3.672 1.046 4.823.523-5.288h1.046l.523 13.709.523 1.02.523 2.776 1.046 4.017h1.046l.523 2.15.523 1.315.523.345.523-.181.523.333h1.046l.523 5.263.523-3.924 1.046 3.006.523.553h1.045l.523-3.884.523 3.82.523-.337.523.057.523.275h1.046l.523 3.884.523-1.394 1.046 4.807.523-4.828h1.569l.523-1.951h1.046l.523-.895h1.569l.523-.268h1.046l.522 3.196h1.57l.522 3.19h1.046l.523-.602h1.57l.522-.825h1.046l.523 5.27h1.569l.523-4.312h1.046l.523-5.302h1.569l.523 2.941h1.045l.523-1.462h1.57l.522-1.07h1.046l.523.769h1.046l.523-5.377.523 6.186h1.046l.523-1.366h1.046l.523 5.377.523-5.623h1.046l.523 7.362.523-5.996h1.045l.523 5.27h.523l1.046-9.515.523 5.996h1.046l.523.352.523-3.667.523 4.56.523.317h1.569l.523-3.592.523 3.667 2.615.058.523-.307h1.046l.523-.627h1.568l.523-1.522h1.046l.523-2.148h1.57l.522-.214h1.046l.523-1.722h1.569l.523-2.115 3.138.057.523 1.36h1.045l.523 2.802h1.57l.522 1.893h1.046l.523-1.626h1.57l.522 4.674h1.046l.523 5.325h1.569l.523-2.272h1.046l.523.342h1.569l.522.544h1.046l.523.713H554l.522.238h1.046l.523.553h1.569l.523.339 3.138-.079 1.046-.058 2.614-.032.523.347 1.046-.04 1.046.062 2.615.025.523-.198h1.569l.523-.2 10.46.014.522.875h1.046l.523-1.058h3.138l.523-.34h1.046l.523-.175 3.137.004.523.176h1.57l.522.634h3.138l.523.4.523-.834h2.615l.523-.864.523.834 6.275.043.523.267h3.138l.523.16 10.459-.105.523.494h0" clip-path="url(#p0662fe7ae6)" style="fill:none;stroke:#907eba;stroke-width:1.5;stroke-linecap:square"/><g id="text_17" style="fill:#d8b009" transform="matrix(.14 0 0 -.14 642.385 248.791)"><defs><path id="DejaVuSans-47" d="M3809 666v1253H2778v519h1656V434q-365-259-806-392-440-133-940-133-1094 0-1712 639-617 640-617 1780 0 1144 617 1783 618 639 1712 639 456 0 867-113 411-112 758-331v-672q-350 297-744 447t-828 150q-857 0-1287-478-429-478-429-1425 0-944 429-1422 430-478 1287-478 334 0 596 58 263 58 472 180z" transform="scale(.01563)"/><path id="DejaVuSans-65" d="M3597 1894v-281H953q38-594 358-905t892-311q331 0 642 81t618 244V178Q3153 47 2828-22t-659-69q-838 0-1327 487-489 488-489 1320 0 859 464 1363 464 505 1252 505 706 0 1117-455 411-454 411-1235zm-575 169q-6 471-264 752-258 282-683 282-481 0-770-272t-333-766l2050 4z" transform="scale(.01563)"/><path id="DejaVuSans-72" d="M2631 2963q-97 56-211 82-114 27-251 27-488 0-749-317t-261-911V0H581v3500h578v-544q182 319 472 473 291 155 707 155 59 0 131-8 72-7 159-23l3-590z" transform="scale(.01563)"/><path id="DejaVuSans-6d" d="M3328 2828q216 388 516 572t706 184q547 0 844-383 297-382 297-1088V0h-578v2094q0 503-179 746-178 244-543 244-447 0-707-297-259-296-259-809V0h-578v2094q0 506-178 748t-550 242q-441 0-701-298-259-298-259-808V0H581v3500h578v-544q197 322 472 475t653 153q382 0 649-194 267-193 395-562z" transform="scale(.01563)"/><path id="DejaVuSans-61" d="M2194 1759q-697 0-966-159t-269-544q0-306 202-486 202-179 548-179 479 0 768 339t289 901v128h-572zm1147 238V0h-575v531q-197-318-491-470T1556-91q-537 0-855 302-317 302-317 808 0 590 395 890 396 300 1180 300h807v57q0 397-261 614t-733 217q-300 0-585-72-284-72-546-216v532q315 122 612 182 297 61 578 61 760 0 1135-394 375-393 375-1193z" transform="scale(.01563)"/><path id="DejaVuSans-6e" d="M3513 2113V0h-575v2094q0 497-194 743-194 247-581 247-466 0-735-297-269-296-269-809V0H581v3500h578v-544q207 316 486 472 280 156 646 156 603 0 912-373 310-373 310-1098z" transform="scale(.01563)"/><path id="DejaVuSans-79" d="M2059-325q-243-625-475-815-231-191-618-191H506v481h338q237 0 368 113 132 112 291 531l103 262L191 3500h609L1894 763l1094 2737h609L2059-325z" transform="scale(.01563)"/></defs><use xlink:href="#DejaVuSans-47"/><use xlink:href="#DejaVuSans-65" x="77.49"/><use xlink:href="#DejaVuSans-72" x="139.014"/><use xlink:href="#DejaVuSans-6d" x="178.377"/><use xlink:href="#DejaVuSans-61" x="275.789"/><use xlink:href="#DejaVuSans-6e" x="337.068"/><use xlink:href="#DejaVuSans-79" x="400.447"/></g><g id="text_18" style="fill:#0309a6" transform="matrix(.14 0 0 -.14 642.385 262.791)"><defs><path id="DejaVuSans-46" d="M628 4666h2681v-532H1259V2759h1850v-531H1259V0H628v4666z" transform="scale(.01563)"/><path id="DejaVuSans-63" d="M3122 3366v-538q-244 135-489 202t-495 67q-560 0-870-355-309-354-309-995t309-996q310-354 870-354 250 0 495 67t489 202V134Q2881 22 2623-34q-257-57-548-57-791 0-1257 497-465 497-465 1341 0 856 470 1346 471 491 1290 491 265 0 518-55 253-54 491-163z" transform="scale(.01563)"/></defs><use xlink:href="#DejaVuSans-46"/><use xlink:href="#DejaVuSans-72" x="50.27"/><use xlink:href="#DejaVuSans-61" x="91.383"/><use xlink:href="#DejaVuSans-6e" x="152.662"/><use xlink:href="#DejaVuSans-63" x="216.041"/><use xlink:href="#DejaVuSans-65" x="271.021"/></g><g id="text_19" style="fill:#1007e1" transform="matrix(.14 0 0 -.14 642.385 276.791)"><defs><path id="DejaVuSans-49" d="M628 4666h631V0H628v4666z" transform="scale(.01563)"/><path id="DejaVuSans-74" d="M1172 4494v-994h1184v-447H1172V1153q0-428 117-550t477-122h590V0h-590q-666 0-919 248-253 249-253 905v1900H172v447h422v994h578z" transform="scale(.01563)"/><path id="DejaVuSans-6c" d="M603 4863h575V0H603v4863z" transform="scale(.01563)"/></defs><use xlink:href="#DejaVuSans-49"/><use xlink:href="#DejaVuSans-74" x="29.492"/><use xlink:href="#DejaVuSans-61" x="68.701"/><use xlink:href="#DejaVuSans-6c" x="129.98"/><use xlink:href="#DejaVuSans-79" x="157.764"/></g><g id="text_20" style="fill:#989173" transform="matrix(.14 0 0 -.14 642.385 290.791)"><defs><path id="DejaVuSans-41" d="m2188 4044-857-2322h1716l-859 2322zm-357 622h716L4325 0h-656l-425 1197H1141L716 0H50l1781 4666z" transform="scale(.01563)"/><path id="DejaVuSans-75" d="M544 1381v2119h575V1403q0-497 193-746 194-248 582-248 465 0 735 297 271 297 271 810v1984h575V0h-575v538q-209-319-486-474-276-155-642-155-603 0-916 375-312 375-312 1097zm1447 2203z" transform="scale(.01563)"/><path id="DejaVuSans-73" d="M2834 3397v-544q-243 125-506 187-262 63-544 63-428 0-642-131t-214-394q0-200 153-314t616-217l197-44q612-131 870-370t258-667q0-488-386-773Q2250-91 1575-91q-281 0-586 55T347 128v594q319-166 628-249 309-82 613-82 406 0 624 139 219 139 219 392 0 234-158 359-157 125-692 241l-200 47q-534 112-772 345-237 233-237 639 0 494 350 762 350 269 994 269 318 0 599-47 282-46 519-140z" transform="scale(.01563)"/><path id="DejaVuSans-69" d="M603 3500h575V0H603v3500zm0 1363h575v-729H603v729z" transform="scale(.01563)"/></defs><use xlink:href="#DejaVuSans-41"/><use xlink:href="#DejaVuSans-75" x="68.408"/><use xlink:href="#DejaVuSans-73" x="131.787"/><use xlink:href="#DejaVuSans-74" x="183.887"/><use xlink:href="#DejaVuSans-72" x="223.096"/><use xlink:href="#DejaVuSans-69" x="264.209"/><use xlink:href="#DejaVuSans-61" x="291.992"/></g><g id="text_21" style="fill:#907eba" transform="matrix(.14 0 0 -.14 642.385 304.791)"><defs><path id="DejaVuSans-53" d="M3425 4513v-616q-359 172-678 256-319 85-616 85-515 0-795-200t-280-569q0-310 186-468 186-157 705-254l381-78q706-135 1042-474t336-907q0-679-455-1029Q2797-91 1919-91q-331 0-705 75-373 75-773 222v650q384-215 753-325 369-109 725-109 540 0 834 212 294 213 294 607 0 343-211 537t-692 291l-385 75q-706 140-1022 440-315 300-315 835 0 619 436 975t1201 356q329 0 669-60 341-59 697-177z" transform="scale(.01563)"/><path id="DejaVuSans-70" d="M1159 525v-1856H581v4831h578v-531q182 312 458 463 277 152 661 152 638 0 1036-506 399-506 399-1331T3314 415Q2916-91 2278-91q-384 0-661 152-276 152-458 464zm1957 1222q0 634-261 995t-717 361q-457 0-718-361t-261-995q0-634 261-995t718-361q456 0 717 361t261 995z" transform="scale(.01563)"/></defs><use xlink:href="#DejaVuSans-53"/><use xlink:href="#DejaVuSans-70" x="63.477"/><use xlink:href="#DejaVuSans-61" x="126.953"/><use xlink:href="#DejaVuSans-69" x="188.232"/><use xlink:href="#DejaVuSans-6e" x="216.016"/></g></g></g><defs><clipPath id="p0662fe7ae6"><path d="M67.645 7.2h558v277.2h-558z"/></clipPath></defs></svg>