<svg xmlns="http://www.w3.org/2000/svg" xmlns:xlink="http://www.w3.org/1999/xlink" width="992.186" height="416.199" viewBox="0 0 744.14 312.149"><defs><style>*{stroke-linejoin:round;stroke-linecap:butt}</style></defs><g id="figure_1"><path id="patch_1" d="M0 312.15h744.14V0H0v312.15z" style="fill:none"/><g id="axes_1"><path id="patch_2" d="M49.83 284.4h558V7.2h-558v277.2z" style="fill:none"/><g id="matplotlib.axis_1"><g id="xtick_1"><g id="line2d_1"><defs><path id="m7f9c58ec49" d="M0 0v3.5" style="stroke:#b0b0b0;stroke-width:.4"/></defs><use xlink:href="#m7f9c58ec49" x="98.623" y="284.4" style="fill:#b0b0b0;stroke:#b0b0b0;stroke-width:.4"/></g><g id="text_1" style="fill:#b0b0b0" transform="matrix(.14 0 0 -.14 69.375 302.038)"><defs><path id="DejaVuSans-32" d="M1228 531h2203V0H469v531q359 372 979 998 621 627 780 809 303 340 423 576 121 236 121 464 0 372-261 606-261 235-680 235-297 0-627-103-329-103-704-313v638q381 153 712 231 332 78 607 78 725 0 1156-363 431-362 431-968 0-288-108-546-107-257-392-607-78-91-497-524-418-433-1181-1211z" transform="scale(.01563)"/><path id="DejaVuSans-30" d="M2034 4250q-487 0-733-480-245-479-245-1442 0-959 245-1439 246-480 733-480 491 0 736 480 246 480 246 1439 0 963-246 1442-245 480-736 480zm0 500q785 0 1199-621 414-620 414-1801 0-1178-414-1799Q2819-91 2034-91q-784 0-1198 620-414 621-414 1799 0 1181 414 1801 414 621 1198 621z" transform="scale(.01563)"/><path id="DejaVuSans-2d" d="M313 2009h1684v-512H313v512z" transform="scale(.01563)"/><path id="DejaVuSans-35" d="M691 4666h2478v-532H1269V2991q137 47 274 70 138 23 276 23 781 0 1237-428 457-428 457-1159 0-753-469-1171Q2575-91 1722-91q-294 0-599 50Q819 9 494 109v635q281-153 581-228t634-75q541 0 856 284 316 284 316 772 0 487-316 771-315 285-856 285-253 0-505-56-251-56-513-175v2344z" transform="scale(.01563)"/></defs><use xlink:href="#DejaVuSans-32"/><use xlink:href="#DejaVuSans-30" x="63.623"/><use xlink:href="#DejaVuSans-32" x="127.246"/><use xlink:href="#DejaVuSans-30" x="190.869"/><use xlink:href="#DejaVuSans-2d" x="254.492"/><use xlink:href="#DejaVuSans-30" x="290.576"/><use xlink:href="#DejaVuSans-35" x="354.199"/></g></g><g id="xtick_2"><use xlink:href="#m7f9c58ec49" id="line2d_2" x="162.468" y="284.4" style="fill:#b0b0b0;stroke:#b0b0b0;stroke-width:.4"/><g id="text_2" style="fill:#b0b0b0" transform="matrix(.14 0 0 -.14 133.22 302.038)"><defs><path id="DejaVuSans-39" d="M703 97v575q238-113 481-172 244-59 479-59 625 0 954 420 330 420 377 1277-181-269-460-413-278-144-615-144-700 0-1108 423-408 424-408 1159 0 718 425 1152 425 435 1131 435 810 0 1236-621 427-620 427-1801 0-1103-524-1761Q2575-91 1691-91q-238 0-482 47Q966 3 703 97zm1256 1978q425 0 673 290 249 291 249 798 0 503-249 795-248 292-673 292t-673-292q-248-292-248-795 0-507 248-798 248-290 673-290z" transform="scale(.01563)"/></defs><use xlink:href="#DejaVuSans-32"/><use xlink:href="#DejaVuSans-30" x="63.623"/><use xlink:href="#DejaVuSans-32" x="127.246"/><use xlink:href="#DejaVuSans-30" x="190.869"/><use xlink:href="#DejaVuSans-2d" x="254.492"/><use xlink:href="#DejaVuSans-30" x="290.576"/><use xlink:href="#DejaVuSans-39" x="354.199"/></g></g><g id="xtick_3"><use xlink:href="#m7f9c58ec49" id="line2d_3" x="225.795" y="284.4" style="fill:#b0b0b0;stroke:#b0b0b0;stroke-width:.4"/><g id="text_3" style="fill:#b0b0b0" transform="matrix(.14 0 0 -.14 196.547 302.038)"><defs><path id="DejaVuSans-31" d="M794 531h1031v3560L703 3866v575l1116 225h631V531h1031V0H794v531z" transform="scale(.01563)"/></defs><use xlink:href="#DejaVuSans-32"/><use xlink:href="#DejaVuSans-30" x="63.623"/><use xlink:href="#DejaVuSans-32" x="127.246"/><use xlink:href="#DejaVuSans-31" x="190.869"/><use xlink:href="#DejaVuSans-2d" x="254.492"/><use xlink:href="#DejaVuSans-30" x="290.576"/><use xlink:href="#DejaVuSans-31" x="354.199"/></g></g><g id="xtick_4"><use xlink:href="#m7f9c58ec49" id="line2d_4" x="288.083" y="284.4" style="fill:#b0b0b0;stroke:#b0b0b0;stroke-width:.4"/><g id="text_4" style="fill:#b0b0b0" transform="matrix(.14 0 0 -.14 258.835 302.038)"><use xlink:href="#DejaVuSans-32"/><use xlink:href="#DejaVuSans-30" x="63.623"/><use xlink:href="#DejaVuSans-32" x="127.246"/><use xlink:href="#DejaVuSans-31" x="190.869"/><use xlink:href="#DejaVuSans-2d" x="254.492"/><use xlink:href="#DejaVuSans-30" x="290.576"/><use xlink:href="#DejaVuSans-35" x="354.199"/></g></g><g id="xtick_5"><use xlink:href="#m7f9c58ec49" id="line2d_5" x="351.929" y="284.4" style="fill:#b0b0b0;stroke:#b0b0b0;stroke-width:.4"/><g id="text_5" style="fill:#b0b0b0" transform="matrix(.14 0 0 -.14 322.68 302.038)"><use xlink:href="#DejaVuSans-32"/><use xlink:href="#DejaVuSans-30" x="63.623"/><use xlink:href="#DejaVuSans-32" x="127.246"/><use xlink:href="#DejaVuSans-31" x="190.869"/><use xlink:href="#DejaVuSans-2d" x="254.492"/><use xlink:href="#DejaVuSans-30" x="290.576"/><use xlink:href="#DejaVuSans-39" x="354.199"/></g></g><g id="xtick_6"><use xlink:href="#m7f9c58ec49" id="line2d_6" x="415.255" y="284.4" style="fill:#b0b0b0;stroke:#b0b0b0;stroke-width:.4"/><g id="text_6" style="fill:#b0b0b0" transform="matrix(.14 0 0 -.14 386.007 302.038)"><use xlink:href="#DejaVuSans-32"/><use xlink:href="#DejaVuSans-30" x="63.623"/><use xlink:href="#DejaVuSans-32" x="127.246"/><use xlink:href="#DejaVuSans-32" x="190.869"/><use xlink:href="#DejaVuSans-2d" x="254.492"/><use xlink:href="#DejaVuSans-30" x="290.576"/><use xlink:href="#DejaVuSans-31" x="354.199"/></g></g><g id="xtick_7"><use xlink:href="#m7f9c58ec49" id="line2d_7" x="477.543" y="284.4" style="fill:#b0b0b0;stroke:#b0b0b0;stroke-width:.4"/><g id="text_7" style="fill:#b0b0b0" transform="matrix(.14 0 0 -.14 448.296 302.038)"><use xlink:href="#DejaVuSans-32"/><use xlink:href="#DejaVuSans-30" x="63.623"/><use xlink:href="#DejaVuSans-32" x="127.246"/><use xlink:href="#DejaVuSans-32" x="190.869"/><use xlink:href="#DejaVuSans-2d" x="254.492"/><use xlink:href="#DejaVuSans-30" x="290.576"/><use xlink:href="#DejaVuSans-35" x="354.199"/></g></g><g id="xtick_8"><use xlink:href="#m7f9c58ec49" id="line2d_8" x="541.389" y="284.4" style="fill:#b0b0b0;stroke:#b0b0b0;stroke-width:.4"/><g id="text_8" style="fill:#b0b0b0" transform="matrix(.14 0 0 -.14 512.141 302.038)"><use xlink:href="#DejaVuSans-32"/><use xlink:href="#DejaVuSans-30" x="63.623"/><use xlink:href="#DejaVuSans-32" x="127.246"/><use xlink:href="#DejaVuSans-32" x="190.869"/><use xlink:href="#DejaVuSans-2d" x="254.492"/><use xlink:href="#DejaVuSans-30" x="290.576"/><use xlink:href="#DejaVuSans-39" x="354.199"/></g></g><g id="xtick_9"><use xlink:href="#m7f9c58ec49" id="line2d_9" x="604.716" y="284.4" style="fill:#b0b0b0;stroke:#b0b0b0;stroke-width:.4"/><g id="text_9" style="fill:#b0b0b0" transform="matrix(.14 0 0 -.14 575.468 302.038)"><defs><path id="DejaVuSans-33" d="M2597 2516q453-97 707-404 255-306 255-756 0-690-475-1069Q2609-91 1734-91q-293 0-604 58T488 141v609q262-153 574-231 313-78 654-78 593 0 904 234t311 681q0 413-289 645-289 233-804 233h-544v519h569q465 0 712 186t247 536q0 359-255 551-254 193-729 193-260 0-557-57-297-56-653-174v562q360 100 674 150t592 50q719 0 1137-327 419-326 419-882 0-388-222-655t-631-370z" transform="scale(.01563)"/></defs><use xlink:href="#DejaVuSans-32"/><use xlink:href="#DejaVuSans-30" x="63.623"/><use xlink:href="#DejaVuSans-32" x="127.246"/><use xlink:href="#DejaVuSans-33" x="190.869"/><use xlink:href="#DejaVuSans-2d" x="254.492"/><use xlink:href="#DejaVuSans-30" x="290.576"/><use xlink:href="#DejaVuSans-31" x="354.199"/></g></g></g><g id="matplotlib.axis_2"><g id="ytick_1"><path id="line2d_10" d="M49.83 284.4h558" clip-path="url(#pc06a01337a)" style="fill:none;stroke:#b0b0b0;stroke-width:.3;stroke-linecap:square"/><g id="line2d_11"><defs><path id="m20d329bfd4" d="M0 0h-3.5" style="stroke:#b0b0b0;stroke-width:.3"/></defs><use xlink:href="#m20d329bfd4" x="49.83" y="284.4" style="fill:#b0b0b0;stroke:#b0b0b0;stroke-width:.3"/></g><use xlink:href="#DejaVuSans-30" id="text_10" style="fill:#b0b0b0" transform="matrix(.14 0 0 -.14 33.922 289.719)"/></g><g id="ytick_2"><path id="line2d_12" d="M49.83 244.682h558" clip-path="url(#pc06a01337a)" style="fill:none;stroke:#b0b0b0;stroke-width:.3;stroke-linecap:square"/><use xlink:href="#m20d329bfd4" id="line2d_13" x="49.83" y="244.682" style="fill:#b0b0b0;stroke:#b0b0b0;stroke-width:.3"/><g id="text_11" style="fill:#b0b0b0" transform="matrix(.14 0 0 -.14 16.108 250.001)"><use xlink:href="#DejaVuSans-32"/><use xlink:href="#DejaVuSans-30" x="63.623"/><use xlink:href="#DejaVuSans-30" x="127.246"/></g></g><g id="ytick_3"><path id="line2d_14" d="M49.83 204.965h558" clip-path="url(#pc06a01337a)" style="fill:none;stroke:#b0b0b0;stroke-width:.3;stroke-linecap:square"/><use xlink:href="#m20d329bfd4" id="line2d_15" x="49.83" y="204.965" style="fill:#b0b0b0;stroke:#b0b0b0;stroke-width:.3"/><g id="text_12" style="fill:#b0b0b0" transform="matrix(.14 0 0 -.14 16.108 210.284)"><defs><path id="DejaVuSans-34" d="M2419 4116 825 1625h1594v2491zm-166 550h794V1625h666v-525h-666V0h-628v1100H313v609l1940 2957z" transform="scale(.01563)"/></defs><use xlink:href="#DejaVuSans-34"/><use xlink:href="#DejaVuSans-30" x="63.623"/><use xlink:href="#DejaVuSans-30" x="127.246"/></g></g><g id="ytick_4"><path id="line2d_16" d="M49.83 165.247h558" clip-path="url(#pc06a01337a)" style="fill:none;stroke:#b0b0b0;stroke-width:.3;stroke-linecap:square"/><use xlink:href="#m20d329bfd4" id="line2d_17" x="49.83" y="165.247" style="fill:#b0b0b0;stroke:#b0b0b0;stroke-width:.3"/><g id="text_13" style="fill:#b0b0b0" transform="matrix(.14 0 0 -.14 16.108 170.566)"><defs><path id="DejaVuSans-36" d="M2113 2584q-425 0-674-291-248-290-248-796 0-503 248-796 249-292 674-292t673 292q248 293 248 796 0 506-248 796-248 291-673 291zm1253 1979v-575q-238 112-480 171-242 60-480 60-625 0-955-422-329-422-376-1275 184 272 462 417 279 145 613 145 703 0 1111-427 408-426 408-1160 0-719-425-1154Q2819-91 2113-91q-810 0-1238 620-428 621-428 1799 0 1106 525 1764t1409 658q238 0 480-47t505-140z" transform="scale(.01563)"/></defs><use xlink:href="#DejaVuSans-36"/><use xlink:href="#DejaVuSans-30" x="63.623"/><use xlink:href="#DejaVuSans-30" x="127.246"/></g></g><g id="ytick_5"><path id="line2d_18" d="M49.83 125.53h558" clip-path="url(#pc06a01337a)" style="fill:none;stroke:#b0b0b0;stroke-width:.3;stroke-linecap:square"/><use xlink:href="#m20d329bfd4" id="line2d_19" x="49.83" y="125.53" style="fill:#b0b0b0;stroke:#b0b0b0;stroke-width:.3"/><g id="text_14" style="fill:#b0b0b0" transform="matrix(.14 0 0 -.14 16.108 130.849)"><defs><path id="DejaVuSans-38" d="M2034 2216q-450 0-708-241-257-241-257-662 0-422 257-663 258-241 708-241t709 242q260 243 260 662 0 421-258 662-257 241-711 241zm-631 268q-406 100-633 378-226 279-226 679 0 559 398 884 399 325 1092 325 697 0 1094-325t397-884q0-400-227-679-226-278-629-378 456-106 710-416 255-309 255-755 0-679-414-1042Q2806-91 2034-91q-771 0-1186 362-414 363-414 1042 0 446 256 755 257 310 713 416zm-231 997q0-362 226-565 227-203 636-203 407 0 636 203 230 203 230 565 0 363-230 566-229 203-636 203-409 0-636-203-226-203-226-566z" transform="scale(.01563)"/></defs><use xlink:href="#DejaVuSans-38"/><use xlink:href="#DejaVuSans-30" x="63.623"/><use xlink:href="#DejaVuSans-30" x="127.246"/></g></g><g id="ytick_6"><path id="line2d_20" d="M49.83 85.812h558" clip-path="url(#pc06a01337a)" style="fill:none;stroke:#b0b0b0;stroke-width:.3;stroke-linecap:square"/><use xlink:href="#m20d329bfd4" id="line2d_21" x="49.83" y="85.812" style="fill:#b0b0b0;stroke:#b0b0b0;stroke-width:.3"/><g id="text_15" style="fill:#b0b0b0" transform="matrix(.14 0 0 -.14 7.2 91.131)"><use xlink:href="#DejaVuSans-31"/><use xlink:href="#DejaVuSans-30" x="63.623"/><use xlink:href="#DejaVuSans-30" x="127.246"/><use xlink:href="#DejaVuSans-30" x="190.869"/></g></g><g id="ytick_7"><path id="line2d_22" d="M49.83 46.095h558" clip-path="url(#pc06a01337a)" style="fill:none;stroke:#b0b0b0;stroke-width:.3;stroke-linecap:square"/><use xlink:href="#m20d329bfd4" id="line2d_23" x="49.83" y="46.095" style="fill:#b0b0b0;stroke:#b0b0b0;stroke-width:.3"/><g id="text_16" style="fill:#b0b0b0" transform="matrix(.14 0 0 -.14 7.2 51.414)"><use xlink:href="#DejaVuSans-31"/><use xlink:href="#DejaVuSans-32" x="63.623"/><use xlink:href="#DejaVuSans-30" x="127.246"/><use xlink:href="#DejaVuSans-30" x="190.869"/></g></g></g><path id="line2d_24" d="m49.83 284.4 22.32-.085 2.595-.227 1.038.057.52-.17 1.038-.681.519-.114 1.557-2.667 1.038-2.411 1.038-3.177.52-.993 2.076-11.206.519-1.958.519-3.404.519-.738.519-1.277 1.557-9.418.52-.851.518 1.56.52-.965.518.086.52-.88.519-1.957.519-.937.519-2.014.519-1.56.519.454.519-.681.519.113.519 2.837 1.038 3.83.52 1.248h.518l.52.88.518 2.241 1.039 2.156.519 2.412 1.038 3.773.519.68.519 1.05 1.038 2.724.52-.256.518 1.362 1.038 1.248.52 1.816.518.965 1.039 2.61.519-.199.519.029.519 1.248.519.51.519.908.519 2.1.52.425.518.057.52.312.518.766.52 1.021.518-.142.52-.34.519.085.519.567.519-.028.519.965.519.51.519.908 1.038.369.52-.312.518.142.52-.738.518.312.52.114.518.68 1.039.88.519.057.519.794.519-.34h.519l.519-.227 1.038.397h1.038l1.038.68.52-.141.519.142 1.038-.142.519-.057 1.557.653h1.557l1.038.113.52-.085 1.038.114.519-.029 1.038.199 1.038.397 2.595.227 1.557-.199.52-.17 3.633.142.519.198 1.557-.482 1.038-.057 1.039-.368 1.557.454.519.085.519-.17.519.17 1.557.028.52-.028.518-.17.52.198 2.595-.057 1.557.426 1.038-.114.52.029.518-.227.52-.085 4.152.454 1.038-.114.519-.028.52-.227 1.037.085.52-.17h1.557l.519.056.519-.198.519-.454.519-.227 2.595-.397 1.038.397.52-.284.518.085 1.039-.085.519.029 1.038-.199.519.114.519-.256 1.038-.057.52-.766 1.556-1.361.52.028.518-.17.52-.965 1.038.199.519-.71 1.557-1.333.519.142.52-1.305.518-1.674.52-.794.518-1.532h.52l.518-.71.52-2.524.519-1.873.519-.822.519-2.525.519-.766.519-.965.519-.397.519-.652 1.038-5.873 1.038-2.837.52-1.248.518.028.52-3.206 1.557-3.46.519-2.157 1.038-1.674.519.511.52-2.979 1.556-12.17.52-.568.518-.993.52-3.943 1.038-4.738.519-.17 1.038-5.702.519-.624.519-.993.519-2.922.52 1.106.518-4.71.52-.368.518-1.873.52-1.163.518-2.184.52-10.27 1.038-13.419.519-5.844.519-2.497.519-1.078.519-6.553.519-.284.52-2.95.518 23.064 1.038 2.923 1.038-6.894 1.039-9.334h.519l.519-6.724 1.038 2.554.519-2.61.519 3.12.52-3.007.518-33.703 1.038-9.844.52-1.163.518 1.503.52-1.163.519-4.936.519 2.127.519 2.923.519.567.519 3.66 1.038-5.277 1.038 13.76 1.038 5.588.52-.085.518 2.44.52 4.709.519 2.043.519.567.519 2.411.519-1.418 1.038 2.383.519.199.519 4.397.52-.454.518 2.979.52 4.766.518.482.52 10.78.518 4.597.52 3.404.519 8.482.519 3.915.519.37.519 1.19.519-1.333.519 7.178.519 3.745.52 1.361 1.556 5.334.52 3.206 1.557 11.376.519 3.433.519-.34.519.056.519 1.617.519.114.519.737.519 3.688 1.038 3.688.52.738 1.037 6.27.52 1.078.519.34.519 1.73.519.738.519-.369.519.483.519 1.447.519 2.666 1.038 1.646.52-.823.518-.085.52-.34h1.037l1.039 2.638 1.038.454.519 1.986.519-.029.519.766.519-1.39.52 1.05.518.624.52-.199.518 2.554.52-1.39.518-2.98.52-1.815.519-3.575.519-1.02.519-1.39.519-5.788.519-1.249.519.37.519 1.39.519.765.52 1.05.518.199.52-.086.518.312.52.965.518-.51 1.039-3.405.519.908.519-1.333.519.539.519-.142.519-1.163.519 1.531.52.284.518-.68 1.038 1.588.52.397.518.624.52-.17.519-.482 1.038 1.759.519.482.519-.794.519 2.666 1.038 3.32.52-.284.518 1.759.52-.454.518 1.163.52-1.021.518.198.52-.312.519.596.519 5.334.519.397.519-.908.519.965.519.198.519.738.52.198.518-3.404 1.038 5.504.52 3.007.518 1.163.52-.51 1.038.765 1.038 4.086.519-.454.519-.199.519 1.589.52.34.518 1.334.52-.852.518-.312.52.312.518 3.66.52-2.752h.519l.519.454.519 2.44.519.34.519.823.519-1.929.519 3.036.52.056.518.568.52-.142.518.851.52-.199.518 1.93.52.226.519-.453.519.737.519.227.519.908.519.567h1.038l.519-.539.52.142.518.568.52-.029.518.88h1.038l.52.482.519-.227.519.255.519-.283.519-.454h1.038l.519-.256 1.038-.17.52.596 1.037.113h.52l.519.34.519.54 1.038-.255.519.17h1.038l.519-.199h.52l1.037.568.52.141h1.037l.52.34 1.038-.481.519-.142.519.17h1.038l.519-.17 1.038-.88h2.077l1.038-1.078.519.454.519-.34.519-.88h1.038l.519-.255.519.028.52-.34.518-.482.52-.284h1.037l1.039-.596.519-1.362.519-.51.519.993h1.038l.519-1.39.519-.37.52.341 1.037-2.61h1.038l.52.397.518-.567.52.113.519 1.362.519-.227h1.038l.519.51.519.313.519-.255.52-.029.518-.369h1.038l.52-.397.518.057.52-.454.519-.113.519.595h1.038l.519-.17h1.038l.52.142.518-1.447h1.038l.52-.68.518-1.136.52-.624.519-1.673.519-.142h1.038l.519-.568.519 1.334.519-2.27 1.038-2.043h1.038l.52-1.872.518-2.496.52-1.192.519-1.986.519-1.05h1.038l1.038-5.957.519-1.646.519-.822.52-.284h1.037l.52-1.674 1.037-2.411.52-2.468.519-4.426h1.038l1.557-8.085 1.038-1.986h1.038l.52-2.071.518-.312 1.558-7.15h1.038l.519-5.815.519-2.1.519 2.1.519-1.617.52 1.333h1.037l.52 1.277.518.312.52-1.617.518 2.751.52 12.398h1.038l.519.823 1.038 5.276.519 1.192h1.557l.52 19.405.518-17.164.52 1.93.518-1.703.52-7.49h1.038l.519-11.262.519 18.582.519-1.078.519 3.603.519-.624h1.038l.52 2.411 1.037 7.773.52 2.327.519 3.29h1.038l.519 1.447.519-.595.519 2.07.519 1.306h1.557l.52-1.163.518.737.52-.85.518.68h1.558l.519 1.135.519.312 1.038-4.256.519-1.588h1.038l.52-1.022.518-1.872.52.71.518-.653.52-1.078h1.038l.519-.199 1.038-3.262.519.51.519 1.078h1.038l.52-.737.518 2.014.52-.057.518-.68.52-1.845 1.557.029.519 6.666.519-9.56.519.227.519 1.191h1.038l.52.34.518-8.028.52 10.469.518-.54.52.653h1.038l.519.993.519.539.519-1.702.519-.624.519-1.76h1.038l.52-1.815.518-1.22.52-.539.518.596.52-.454h1.038l1.038-.539.519.227.519-1.39.519-.851 1.557-.029.52.766.518-.595.52.51.518 9.476h1.039l.519 10.156 1.038.851.519-.397.519-8.199h1.038l.52-7.49.518-.907.52.142 1.037 4.34h1.038l.52 2.695.519 1.816.519 2.894.519 1.787h1.557l.519-.851.52.624.518.284.52-.397.518 1.418h1.038l.52 1.362.519.085.519 1.617.519.908.519.369h1.038l.519.822.52 1.589.518.454.52 4.68.518.37.52-2.355h.518l.52 3.461.519.653.519 1.9.519-3.716.519 1.333.519 2.355h1.038l.52 1.73.518-1.531.52 1.163.518-.426h1.038l.52-2.213.519-.907.519.936.519.482.519 2.468h1.038l.519.568.519-2.128.52.227.518-.71.52-2.014h1.037l.52-.737.519 1.957.519-2.014.519.426.519.17h1.038l.519-.624.519.312.52 1.503.518-.709.52-1.333h1.037l.52-.17.519-1.788.519.51.519-1.049.519.454h1.038l.519-.624.519 1.787 1.038-1.815 1.038.056h.52l.518.51.52-2.41.519-1.277.519.567.519-1.135h1.038l.519-.226.519.453 1.038-1.815.52-.34h1.037l.52-.483.518.028.52-.085.519 1.107 1.038-.057h.519l.519.113.519.852.519.595.52-.88 1.037-.056h.52l.518.454.52-.17.519 1.276 1.038 4.17h1.038l.519.568.519.766.519-.964.52.737.518-1.645h1.038l.52-.54.518.568.52 1.73.519-.765.519.822h1.038l.519 1.078 1.038.568.519-3.206 1.038.057h.52l.518-.17.52-1.59.518.54.52 3.518.519.68 1.557-.056.519.794.519-1.361.519.34.52-1.333h1.037l.52 2.553.518.057.52.283.519-.085.519.653h1.038l.519-3.66 2.076-7.575h1.038l1.038-1.56 1.038-2.724.52-.368h1.038l.519-1.249.519-1.815.519.17.519.766.519-.17h1.038l.52 1.05 1.037 6.95.52-2.411.519-1.39h1.038l.519-1.135 1.038-5.873.519 3.007.519.483h1.038l.52.624.518.88.52.113.518.368 1.039-.056h.519l.519-.51.519.566.519 2.384.519-.029.519-1.589h1.038l.52 2.724.518 1.05.52.141.518.313.52 3.063h1.038l.519.511.519-.737.519-1.107.519.766 1.557-.028 1.038-1.39.52-.398.518-2.978.52.68h1.038l.519-.907.519 1.418.519-.397.519 1.475.519-1.248h1.038l.52 4.17.518.114.52-.085.518-4.852.52 1.22h1.038l.519-7.064.519-4.255.519-.88.519 2.469.519-.738h.519" clip-path="url(#pc06a01337a)" style="fill:none;stroke:#d8b009;stroke-width:1.5;stroke-linecap:square"/><path id="line2d_25" d="m49.83 284.4 13.496-.085 3.633-.794.52-.398 1.038-1.418.519-1.021.519-1.277.519-.794.519-3.632.519-2.24 1.038-8.767.52-4.199.518-5.702.52-3.944 2.595-33.504.519-10.695.519-17.533 1.038-15.178.519-11.29.519-5.902 1.038-16.369 1.038-5.702.52-5.986.518-2.667 1.039-2.61.519 4.34 2.595 29.306.519 4.256.52 5.56.518 1.76.52 2.666.518 1.986.52.057.518-1.022.52 2.412.519-.142.519 3.886.519-.056.519 3.177.519 1.93.519 4 .519 1.73.52 4.397.518 1.901.52 4.908.518 3.433.52 4.312.518 3.234 1.039 9.362.519-1.674.519 2.44 1.038 8.057.519-1.305.519.312.519.738.52 7.943.518.255.52.454.518 1.816.52 4.936.518.34.52.03.519 1.162.519.568.519 2.27.519.283.519.965 1.038 6.184.52.965.518 2.695.52.198.518 2.383.52 1.249.518 2.44.52 1.22.519.226.519-.709.519.908.519.652.519 1.305.519-.51.519.057.52 1.106.518.624.52-.142.518-.68h.52l1.037 1.815.52-.17.519.255 1.557 3.178.519-.37.519.256.519.823.52.567.518.085.52.454.518 2.1.52.907.518.483.52 1.163.519.057.519.482.519-.142.519-1.475.519.113.519.426.519-.369.52.426.518-.057.52-.199.518.17.52.511.518.085.52.397 1.038-.198.519.369.519.056.519-.227.519.029.519-.199.52.17 1.037.057.52.114 1.037.453.52.256.519-.057 1.038.34.519.086.519.198 1.038-.113.519-.085.52-.199.518.17 1.038-.198.52.17.518-.227 1.039.397 2.076-.028.519-4.114 1.038-.057 1.557.114.52-.17.518 4.397 1.039-.085.519.028.519-.17 2.595.113.52-.113.518.199 1.038-.199.52-.426 1.557-.312.519-.227 1.038.029.519.283 3.114-.056.52-.51.518-.228 1.039-.227 1.557-.794.519.198 1.038-.028.52-.284h1.037l.52-.085.518-.283 1.558-.142.519-.34.519.056 1.557-.426.519-.652 1.038-.71.52-1.73.518-.766.52-.51 1.557-3.547.519-2.383.519-1.503.519-1.022.519-2.95 1.038-3.603.519-3.745 1.038-4.51.52-3.065.518-4.141 1.038-4.88 1.039-7.915 1.038-12.994 1.557-10.61 1.557-20.029 1.038-6.326.52-6.1 1.557-12.17.519-.483 1.038-8.425.519-.454 1.038-7.036.52.88.518-4.795.52-3.631.518.17.52.596.518-1.192.52 1.93.519 1.077.519-4.85.519.368.519.68.519-.652 1.038 8.37.519 5.248.52 3.007.518 1.504.52.368.518 2.27.52 1.05 1.038-11.15.519 5.788 1.038 5.191.519 3.745.519 2.156.519 6.185.519 3.603 1.038 11.15.52 8.283.518 1.333 1.558-2.354.519-1.419.519-.085.519-2.922.519-1.191.519 2.751.519.284.519.766.52 4 .518-4.482.52-3.376.518-.397.52-2.837 1.037 2.099.52-3.064.519 4.057.519.227.519-.454.519 2.014.519.37.519-.483.519.028.52.142.518-.369.52 2.213.518-1.22 1.038 3.376.52.823.519-.142 1.038 3.66.519 2.581.519 1.192.519-.255.519 2.014.52 2.837.518 1.021.52-.936.518.624.52 2.184.518 3.972.52.851 2.076 6.61.519 2.44.519-.936.519 1.248.52-.908.518 1.703.52-.312 1.037-1.022.52 1.447.518 1.107.52 2.695.519-.823.519 1.135.519.794.519.369 1.038-1.702.519-1.249.52-.766.518-.425.52-2.043.518-.936.52.426.518-.965.52-2.355.519-.283.519-1.617.519-1.022 1.038-6.383.519-1.418.519-.17.52-2.384 1.037-1.929.52-1.39.518-.823.52-1.05.519-2.014.519.596.519.085.519-.88.519.625.519-.199.519-1.163.519-.68.52.113.518-.823 1.038 6.497.52-4.54.518.398.52-6.724.519.908.519-.142 1.038-3.32.519 4.483.519 3.036.519 8.199.519.964.52 2.27.518 1.191.52 2.44.518 2.979.52.567.518 2.469.52-.34.519.964 1.038.908.519.567 1.038 4.284.519 2.723.52 2.071.518 1.277 1.038 4.113.52.852.518 1.588 1.039.199 1.038 3.177.519.142.519 1.617.519.71.519 2.496.52 1.305 1.037 3.064.52 3.206.518 1.05.52-1.022.518.312.52.596 1.557 2.638.519-.198.519 2.61.519 1.191 1.038 1.589 1.038 3.745.52 3.177.518 1.504.52.737.519-.198.519.482.519-.255.519-.426.519-.823 1.038.256 1.038 1.532.52 1.106.518.71.52 1.446.518.965.52.68.519.256.519.425.519.908 1.038 1.39.519-.595.519-.34.519.084 1.038-.51.52.17.518-.312.52.794.518.51.52.058.519-.086.519.511 1.038.51.519.086.519.284.519.141.519.511.52.114.518-.256.52.114.518.397.52-.028 1.038.283.519.284.519.057 1.038-.34.519.226.519-.113 1.038-.823.52.17 2.075-.397.52.057 1.038-.256 1.557-.567 1.038-.227.52-.113.518-.284.52-.085.518-.596 1.038-.567.52-.057.519-.653.519-1.078.519-.709.519-.113.519-.312.519-.114.519-.567.519-.17 1.557.737.52-.255.518-.397.52-.256 2.076-1.617.519-.057.519-.34 1.557.142.52.085 1.037-.142 1.038.88 1.039-.142 1.038-.34 1.038.396.519-.226 1.557.425.52.397.518.029.52-.511 1.037.028.52.114.519.34h.519l.519.71 1.557.964.519.68.52.285.518.624.52-.596 1.037.255 1.558.114.519-.34.519.907.519.085.519-.283.519-.596 1.557.312.52-.71h.518l.52.398.518.624 1.039-.88 1.038.227.519-.056 1.038.482 1.557-1.135.52.17h.518l.52-.34.518-.766.52.085.519-.227 1.557-1.39.519-.34.519-.17.519-.341.519-.057.52.568.518.113.52-.284.518-.737 1.558-.681.519-.085.519-1.163.519-.029.519.142.519-.17.519-.51.519-.03.52-.652.518.426.52.113.518-.766.52-.283.518.482.52-.199.519-1.248 1.038-1.248.519-.17.519-.596 1.038-2.468.52-.057 1.037-1.645 1.038-2.043.52-.482.518-1.277 1.039-1.191.519.453.519-.141.519-1.39 1.038.624.519-.398.52.937.518-1.476.52.057.518-1.617.52-2.695.518-1.192 1.039-4 .519-.68.519-2.469.519-.993.519-2.326 2.076-13.334.52-1.702.518-3.972 1.038-3.858.52-.369.519-.709.519.596.519-1.844.519-.965.519-1.333 1.038-.256.52-1.248.518-.227.52.085 1.037 2.071.52-.709.518-1.56.52.057.519.17.519.652 1.038.653 1.038 5.333.519 3.007 1.557 3.121.52 3.007.518.142 1.039 1.05.519 1.418 1.038 4.142.519.738.519 2.014.519 3.433.519 1.191 1.038-.255.52 2.525.518 1.078.52 1.816.518-.483 1.039 2.156.519 2.185 1.557 4.426.519 1.532.519 1.134.52.54 1.037.141.52.54.518.226.52-.255.518 1.362.52-.199.519.284 1.038-.936.519-1.532.519.539.519-.937.519.312 1.038 1.249.52-.483.518.653 1.038-.54 1.039-1.871.519-.483.519.568 1.038.567.519.482.519.795.52.283.518.71.52-.142h.518l.52.312.518-.596.52.142 1.038 2.213.519-1.419.519-.482.519-1.958.519-.283.519.17.52-.397.518-.54.52.54.518.993.52 1.957.518.369 1.039-1.617.519-.199.519.965.519-.199.519.227.519.483 1.038 2.07.52-.141.518 1.05 1.038.51.52.624.518.284.52-.51.519.283.519-.596 1.038 1.362h.519l1.038 1.418.52 1.504.518-.028.52.397.518-.823.52.71.518.198.52.51.519.823.519 2.213.519.426.519 2.213.519.539h.519l1.038-.34.52-.597.518-.142 1.038-.709.52.029.518.822.52-.085.519.908.519.567 1.557.965.519-.51.519.311.52-.056 1.037-.596.52.142.518-.738 1.039-.312.519-.284.519.454 1.038-1.248.519-.369.519.114.519-.71.52-.34 1.556-2.78.52.369 1.038-3.717.519-.964.519-.312.519-.823.519-.51.519-.994.519.426.519-.54 1.038-2.921.52-.596.518-.142.52.057.518.227.52-2.185 1.038-2.61.519-2.525 1.038-.312.519-.482.519 1.787 1.038 2.1.52 1.957.518-1.05 1.557.852 2.077 3.092.519-.114.519 2.015.519 3.035.519.483.52-.483.518.795.52 1.163.518.425.52-.936.518-1.816.52.454.519 1.788.519.709.519.227.519.624.519.426.519 1.02 1.038 1.079.52.227.518.908.52.312 1.037 1.078.52.936.519-.596.519.908.519.028.519-.113.519 1.021 1.038-.709.519.823.52.425.518.256.52.056.518-.766.52.937.518.652h.52l1.038-.284.519.54 1.038-.142.519-.057.519.85.52.313.518.142.52-.199.518-.425 1.038.255 1.558-2.043.519-.595.519-.114.519-.567.519-.738.519-.284.52-1.02.518-.37.52.256 1.037-2.128.52-.34.518-.511.52.198 1.038-1.106.519 1.532.519-.199 1.038-.624.519.17.52.454.518 1.476.52 1.106.518 3.404 1.038 5.305.52-7.092.519 2.156h2.595l.519-6.07h3.114l.52.453h3.114l.519-1.333h3.114l.52-1.56h3.114l.519-1.448h3.114l.52-.936h3.114l.519-2.241h3.114l.52 2.61h3.114l.519-1.957h.519" clip-path="url(#pc06a01337a)" style="fill:none;stroke:#1007e1;stroke-width:1.5;stroke-linecap:square"/><path id="line2d_26" d="m49.83 284.4 18.687-.057 3.114-.369.519-.17 1.038-.709.52-.596.518-.822 1.038-2.894 1.039-3.773 1.038-6.384 1.038-8.709.519-5.816.519-7.461 1.557-29.845.52-11.461 1.037-30.44 3.115-99.522 1.557-38.923 1.038-13.532.52-4.398.518-1.758.52 1.134.518 5.22 1.039 2.809.519 4.908.519 7.206.519 1.986 1.038 9.56 1.557 23.263.52 6.525 2.075 32.058 2.077 24.426 1.557 14.185.519 6.156 1.038 9.59 1.038 12.737 1.558 13.76 1.038 6.723.519.624.519 1.986.519 2.866 2.595 17.135 1.038 4.057 1.558 4.738 1.038 4.709 1.038 4.142.519 2.95 1.038 3.915 1.038 1.986.52 2.724.518 1.05 1.038 3.177.52 1.418.519.766.519 1.532.519.482.519 1.731.519.88.519 1.333.519.397.52 1.56 1.037 1.334.52.113.518-.51.52.255 2.076 1.503 1.038 2.667.519.88 1.038 1.134.52.426.518 1.106.52.199h.518l.52.114.519.397.519.567.519.255.519.029.519.17.519 1.135 1.038.482.52.227 1.037.71.52.198.518-.426.52.426.518.227.52-.227.519.369 1.038.312.519.539.519-.34.519.084.519.426 1.038-.17.52.425.518-.113.52.198 1.557-.17.519.199.519-.312.519-.057.519.17.519-.028 1.557.369 1.038.482 1.038.539.52-.057.519.312 1.038-.283.519.113.519-.057 1.038.284.52-.255.518.312 1.038.113 1.557-.312 1.039-.284.519.029 2.076-.766.519.085.52-.284 1.556-1.39.52-.057.518-.567 1.039-.624.519-.766.519.113.519-.283 1.557-1.788.52-.283.518-.085 1.038-2.015.52-.652.518-.199.52-.369.519-.993.519-1.39 1.038-1.361.519-1.05 1.038-3.32.52-.992.518-.369 1.038-3.433.52-2.241.518-1.106.52-2.071 2.076-10.015.519-.936 1.557-7.15.52-1.39.518-2.212 1.038-7.036.52-2.95.518-1.589.52-2.61 1.038-3.603 1.038-4.028.519-2.1.519-4.425.519-.937.52-1.986 1.556-3.319.52-.68.518 1.758.52-1.617.519-2.95.519-1.589 1.038-2.1.519-1.588.519-2.184.519-.823.52.425 1.037 1.419 1.038.68.52 1.249 1.038 4.426 1.038-2.327 1.038 4.086.519-.029.519-1.333.519-.965 1.038.454.52-2.298 1.037-2.411 1.039-2.014.519-2.015.519-2.695 1.038-3.83.519-2.695 1.038-7.631.52-1.419.518-1.986 1.557-12.199.52-2.383.519-3.66.519-5.9 1.038-8.37.519-2.553.519-4.908 3.114-46.356 1.557-28.029 1.558-25.135 1.038-10.072.519-4.85.519-2.128.519-.284.52-.142 1.556 11.433.52 8.908 1.557 13.022 1.557 21.589 1.038 13.362.519 11.263 1.038 15.036 2.076 27.632.52 4.227 1.038 12.454 1.557 13.249.519 5.844 2.076 18.469 1.038 12.085 1.038 8.681 1.039 8.738.519 3.745.519 2.355 1.557 11.546 1.557 7.518.52 2.837 1.556 4.965 1.039 4.567 2.595 8.426 1.038 1.9.52.284.518.852.52.539.518 1.617.52.595.519.795.519 1.021.519 2.156 1.038 2.185.519-.114.519.454 1.038 1.39.52-.028.518.68.52.313.518.822.52.029.518.34.52-.028.519.34.519.199.519-.057.519.284.519.51.519.17.519-.028.52.284 1.037.766.52-.028.518.255.52.057.519.567 1.038.199.519.283 1.557 1.22 2.076.823.52-.028.518.085 1.039-.142 1.038.454.519-.114.519.199 1.038.142.519.142 1.038-.199 1.557.823.52-.085.518.312 1.558-.142.519-.284.519-.028.519.113.519-.227 1.038.312 1.038.086.52-.227h.518l.52.141.519-.113.519.17 1.038-.312 1.038.028.519-.141.519.028 1.038-.34.52.028.518.199 1.038-.37.52-.283 1.038.085.519.199.519-.568.519-.113.519.085 1.038-.199.52-.17.518-.482.52.028 3.114-1.759.519-.425.519-.596.519-.397.519-.17 2.076-1.59.52-.056.518-.596 1.039-2.411.519-.68.519-.37 1.038-1.588.519-.142.519.085.519.255.52-.085.518-.652.52-.227 1.556-1.901.52-.397.519-.114 1.038-.596.519.17.519-.425 1.038.454.52-.113 2.075.056.52-.028.518-.17 1.039-.993.519-.256.519-.85.519-.341 1.038-1.958.519-.454.52.057 1.037-.652.52-.483.518-.283.52.34.519-.312 1.038-.766 1.038-.652.519-.71 1.038-2.44.52-.538.518-1.22 1.038.113.52.653.518 1.078.52-.142.519-.71.519.483.519-1.05.519.199.519-.057.519-1.163.519.908.52.227.518.028.52 1.305.518.057 1.038 1.815 1.039.511.519.936.519.029.519.397 1.038.34.519-.113.519.936.52-.17.518.454.52-.029.518-.227.52-.51.518-.114.52-.51.519-.823.519-.54 1.038-1.588 1.038-.142.519-.482.52-.113.518-.256.52-.567.518-.738.52-.34.518-.993.52-.71 1.038-1.872.519.199.519-.823.519-1.248.519.369.519-.142 1.038 1.305.52-.17 1.037 1.957.52.199 1.038.68 1.557 1.845 1.038-.511.519 1.277.519.85.52.057 1.037.653.52 1.135.518.454.52.085.519-.284.519.34.519.54.519-.653.519-.369.519.766.519-.454.519.51.52-.51.518-1.106.52.766.518-.085.52-.256.518.17.52-.226.519.737.519 1.532.519-.567.519.936.519-.567 1.038.794.52-.199.518.029.52.51.518-.652.52 1.135 1.037-1.078.52.368.519-.113 1.038.198.519-1.418.519.113 1.038-2.24 1.038-3.348 1.557-3.859.52-1.106.519-2.014.519-1.192 1.038-3.83.519-.822.519-1.788.519-.624.519-.397.52-1.163.518-.397.52.17h.518l.52.567.518 1.05.52-.227 1.038 2.1.519.198.519 1.05.519.794.519-.54 1.038 2.412.52.823.518.567.52-.255.518.227.52.766.518 1.192.52.227.519.964.519 1.93 1.038 2.297.519 1.901.519.482 1.038 1.73.52-.453 1.037 1.277.52.056.518.397.52.653.519.028.519 1.277 1.038.794.519.057.519.227.519.51 1.038.37.52.397.518-.795.52.596.518.34.52.057.519.738 1.038-.993.519 1.106 1.038-.624 1.557-1.503.52-.114.518-1.106.52-.653 1.557-4.482.519-.51.519-1.192.519-.398.519-.794.519-.255.519.142.519.397.52-.483.518-.765.52-.54 2.076-3.177.519.057.519-.312.519-.454 1.038-2.071.519.482 1.038-.51.52.198.518-.88.52 1.22.518 1.901.52.256.519 1.05.519.396.519 1.135.519 1.76.519.879 1.038.907.519.852 1.038 2.127 1.038 1.788 1.038 2.298 1.039 1.106.519.596 1.038 2.496.519.312.519.114 1.038 1.588.52.086 1.037.709 1.038 1.9.52.284.519.454 1.557 2.355.519-.057 1.038.88.519.113.52.596.518.425.52.057.518.851.52.369.518.851.52.312.519.057.519.255.519-.113.519.454 1.038-.114.519.256.52.482.518-.454.52.567.518-.454.52.142.518-.369.52.086 1.038-.142.519-.766h.519l.519-.312.519-.057.519-.34 1.038-1.362 1.038-.284 1.038-1.39 1.039-.681 1.038-.851.519-.908.519-.567h.519l.519-.71 1.038-1.702 1.038-1.532.52-.397.518-1.362.52-1.05.519-1.304 1.038-1.192.519.114.519-.284.519-1.192.519-.028 1.038-3.574.52-.029 1.037-.71.52.824.518.34 1.039 4.823 1.038.085.519 1.418.519.937 1.038 1.22.519.028 1.038 1.9.52.284 1.037-.17.52.369.519 1.135.519-.397 1.038-1.164 1.038.454 1.038 1.078 1.038 2.015.52.368 1.037 1.646.52-.255.519.113.519.426.519.709.519.51.519-.085.519.199.519.993.519-.567.52.113.518-.085.52.085 1.037.88.52.141.518.426.52-.029 1.038.568.519.454.519-.085.519-.284.519.426 1.038-.142.52.085 1.037-.397.52.028.518.17.52-.028.519-.397.519-.256.519-.056.519-.398 1.557-1.673.52-.312 1.037-1.419 1.038-1.191.52-1.135.519-.681.519-1.05.519-.312.519-.964 1.038-.483.519-.709.519-.51.52-.228.518-.51.52-.199.518-.766.52-.113.518.624.52-.199.519.199.519-.085.519.085.519.397.519-.17 1.038.652 1.038.908.52.17.518.54.52.709 1.037.993.52-.142.519.51.519 1.107.519.198.519.738.519.397.519.908.519.539.52.908.518-.029.52.511.518-.085 1.038.227.52.454.519-.34.519-.114.519.17.519.312h.519l.519.17 1.038.823.52.199.518-.114.52.057.518.426 1.038-.057.52 1.163 1.557 4.454 1.557 3.575h13.496l.519-20.427.519-.141h.519" clip-path="url(#pc06a01337a)" style="fill:none;stroke:#89f9c9;stroke-width:1.5;stroke-linecap:square"/><path id="line2d_27" d="m49.83 284.4 18.687-.057 2.076-.425 1.038-.34.519-.426.52.085.518-.823.52-.142.518.085.52-1.475.518.227.52.426.519-2.695.519-4.994 1.038-6.042.519-3.632 1.557-20.993.52-2.61 1.556-17.533.52-7.404.518-28.994.52-6.95 1.038-44.172.519-6.383.519-11.802.519-25.958.519 20.114.519-20.738.52 3.886.518 11.802.52-1.191.518 7.376.52 19.092.518-25.362.52 16.653.519 6.355.519-.142.519 4.88.519.737.519 6.1.519 25.362.519 6.724.52 10.553.518 7.717.52 4.142.518 3.12.52 4.568.518 3.348.52 6.44 1.038 9.759 1.038 6.78.519.965.519 4.283.519 3.121.519-.71.52 3.32.518 1.844.52 1.22.518-.426.52 5.39.518-4.879.52 3.972.519-.51.519-11.718.519 3.802.519 16.029.519-.738.519 7.632.519-1.305.52.34.518 15.972.52 1.135.518-10.043.52 3.12.518.426.52 2.752.519.823.519-3.15.519 1.618.519.88.519-2.27.519.624.519.17.52.738.518.51.52-.652.518.51.52 1.703 1.037.993 1.039.283.519.766.519-.737 1.038-.142.519.397 1.557.397.52 1.703 1.037.595.52-.34.519.482.519.17.519-.312.519.681.519-.17 1.557.425.52.029.518.142.52.539.518-.34.52-.086.518-.227 1.039-.113 1.038.454.519-1.617.519-.029.519.369 1.557-.028.52.425.518 2.327 1.038.255 1.558.255.519-.737 1.038-.37 1.557-.028.52-.34.518.312.52.085.518.34 1.558-.085.519.426 1.557-.908.519-.17 1.038-.057.52-.113.518-.256.52.029.518.17 1.558-.312 1.038.17.519.51.519-.68 1.038.255.519-.085.52-.425.518-.227.52-.738.518.51.52 1.079.518-.17.52-.029.519.227.519-.312 1.038-.227.519-2.894.519-.17.519-.028 1.038-.653.52-.454.518-.794.52-2.043 1.037-.368.52-.54.519-.822 1.557.113 1.038-.85.519-.88.52.17.518-.965.52-.255 1.037.823.52-.142.519.369.519-.397h.519l.519-.454.519.737 1.038-.68.519-.738.52-1.163.518-.738.52-.34.518-1.958 1.038-2.184.52-1.447.519-4.34 1.038-3.717.519-3.433.519-1.787.519 3.007 1.038-13.844 1.038-4.823.52-7.008.518-2.44.52-7.149.518-1.106.52-21.306.519 8.313.519-3.518.519-8 .519-2.298.519-1.107.519-3.744.519 1.361.52-10.27.518-1.645.52-2.95.518-1.419.52-.936.518 1.39.52.142.519-2.922.519-.057.519-5.9 1.038 5.39.519.141.519 6.1.52 1.22.518 2.44.52 5.163.518 1.134.52.454.518 2.78.52 6.64.519 2.184.519.198.519 9.334h.519l.519.68.519 1.192.519-1.73.519.397.52.794.518.057 1.038 1.22.52-.284.518 1.333.52.199.519.993.519.454.519.113 1.038 1.164.519-.313.519.37.52-.852.518 12.852.52 1.22.518-1.192.52-.397.518-4.738.52-.766.519 1.135.519.738.519-.284.519 1.617.519-.482.519 2.865.519.624.52-.71.518-12.992.52-.34.518-.994.52 2.071.518 3.575.52 1.503.519-.227.519-1.276.519-.71.519.284.519-2.61.519 2.44.519-2.298.519-1.787.52-.37 1.556-3.12.52 1.192.518-1.135.52.085.519-4.88.519-.312.519-.652.519-.284.519-3.177.519-.227.519 9.759.52-5.305.518 1.418.52.681.518-.113.52.057.518 1.758.52-10.213.519 10.299.519-.227.519.113.519 1.362.519 3.886.519-.397 1.038 4.596.52 1.192.518.227.52 2.213.518 4.425.52.908.518.284.52.936.519-.794.519 1.05.519-1.164.519.369.519-1.248.519-.908.519 2.837.52.425.518-.227.52.426.518 1.418.52-.255.518.794.52 6.128.519.029.519-.312.519.766.519-1.135.519 2.553.519-.085.519-1.759.52-.199.518.057.52-.284.518 3.433.52-.142.518 1.192.52-17.362.519-.426.519.227.519-.482.519-2.667.519-1.617.519-2.326.519 16.028.52.142.518-1.532.52 4.625.518-1.277.52-3.348.518-.993.52.029.519-.596.519.255.519-5.333.519 2.298.519 3.518.519 1.333h.519l.519.51.52 1.022.518-1.759.52-1.22.518-.454.52.369.518-.028.52-.795.519-.142 1.038 2.554.519-.057.519-.653.519 1.135 1.038 1.589 2.076 9.504.52 1.163.519.454.519-.028.519.539.519.17.519 1.702 1.038 4.71.519 1.815.52.965.518 2.723.52.653.518 1.22.52-.057.518 1.418.52.653.519.283.519 3.802.519.198.519-.113.519-.255.519-.057.519.596.519.766.52-1.816.518 2.468.52 1.39.518 2.043.52 1.05 1.038.652 1.038 3.433.519.88.519.056.519.397.519.653.519.454.52.028.518-.142.52.596.518.34.52.17.518.341.52.028 1.557 1.788.519.34.519.993.519.284 1.038-.199 1.038.397.52.426.518.255.52-.142 1.557.681.519-.085 2.595.653.52-.54.518.625.52.255.518-.113 1.558.312.519.595.519-.454.519.114.519-.426.519-.17.519-.028.519-.738.52.114 2.075-2.468 1.039-.653.519-.88.519-.141.519-.681.519-.085.519.34.519-.369.519-.766.52-.567.518-.397 1.557-2.156.52-.37 1.038-2.552 1.038-3.66.519-.085 1.038-3.688.519-.936.519-1.419.52.142h.518l.52-.68.518 1.077.52 1.759.518.34 1.039 1.39 1.038.625.519-.256.519.114.519-.312.519.88.52-1.731.518.88.52.113.518 1.05.52.567.518 1.163.52-2.61.519 4.255.519 1.532 1.038.085.519-.141.519 1.475.519 2.07.52-1.815.518-1.135.52.624.518.965.52.255.518-.85.52 1.957.519.596.519.397.519.68.519-.936.519.227.519 1.05.519-.113.519-.37.52.596.518.34.52.653.518.142.52.653.518.283 1.039.965.519.199 1.038.056.519-.283 1.038 1.305.52-.227.518.227.52-.085 1.556.141.52-.34 1.038.369.519.028.519-.113.519 1.134.519-1.418.519.057.52-.426.518.085.52-.085.518.057.52-1.447.518 1.192.52.141.519.795.519-.624.519.255.519-.17.519-.483.519-.056.519-.653.519-.964.52-.057.518-.227h.52l.518-.624.52-1.021 1.038-1.277 1.038-.51.519-.114 1.038-1.702.519-.426.519-.88.52-1.957.518-.454.52-.198 1.037-3.575 1.039-2.014 1.557-1.646.519-1.361.519.397.519-.483.519-1.475 1.038-.908.52-.766.518.54.52-2.015.518-.539.52.255.519-.141.519.028.519-.596.519-.908.519-1.758.519-.398.519-.085 1.038-1.362.52.142.518-.397 1.038-3.46.52-.653.519-.114.519-.908.519.029.519-.284.519.284h.519l.519-.596.519.057.52-.17.518.255 1.038-1.93.52 6.64.518-6.753.52-1.191.519-.54.519-.964 1.038-4.936.519-6.923.519 5.533.519-.852 1.038-.652.52.908.518 2.837.52-.568.518.142.52-2.61.519.227.519-.057.519-1.588.519-9.107.519 7.83.519-11.092.519 2.41.519.256.52.624.518.908.52 19.604.518-18.98.52 10.44.518-.993.52.398.519 3.007.519 10.27.519-18.668.519 12.597.519.141.519 3.32.519 1.305.52-2.128.518-5.958.52 12.653.518 1.078.52 2.866.518.17.52-.54.519 1.249.519 1.589.519 1.22.519.907.519 2.1.519.908.519 1.985.52.114.518-.34.52.652.518-.51.52-.284.518 1.078.52-.34.519-.057.519 1.02.519.341.519 1.674.519.085 1.557-.709.52.085 1.556-2.553.52-.369.518-.028.52.283.519-.255 1.557 2.752.519-.142 2.076-2.213 1.038-1.787.52-.34.518.737.52.284.519 3.688.519-.653.519-2.127.519-1.476.519.142.519-.397.519-.142.52-4.227.518.34.52 2.128.518 1.504.52-.34.518.397.52.227.519.482.519 1.418.519 1.078.519.284.519 1.362.519-.029.519-.624.519 1.362.52-.085.518.51.52 1.079.518.312 1.038 2.78.52-2.014.519.936 1.038.936.519.965.519.255.519.113.519 2.015.52.028.518.823.52 1.106.518.568 1.038.113 1.039.681.519-.199.519-.368.519.198 1.038-.142.519 3.433.52-1.277.518-.539.52-.028.518 1.078.52-1.021 1.037.085.52-.794.519.794.519-.199.519-1.22.519 1.107h.519l.519-1.901.519 2.638.52-.482.518.255.52-.17h1.037l.52-.624 1.038 1.05 2.076-.142.519-1.475.519-1.078.52-.142.518-1.334.52-.624h1.037l.52-.595 1.038-3.064 1.038 4.624h1.038l.519-7.348 1.038-.936 1.038-6.979h1.038l.52 5.986 1.038 1.333 1.038 1.277h1.038l1.557 1.277.52.709.518.255h1.038l.52.624.518-.283.52.056 1.038.37h1.038l.519 4.936.519-1.901.519-.142.52-.34h1.556l.52-3.291.518 2.553.52 1.021.519 1.362.519.652h1.038l.519.17.519.455 1.038.17 1.038-.114h.52l.518.738 1.038.567.52-.482.519.68h1.038l.519.653.519-.113 1.038 1.503 1.038.086h.52l.518-.284.52.454.518-.426.52.085.519-.141 2.076-.086 1.557-.198h1.038l.52-.369.518-.71.52-.311 1.038-1.022h1.038l.519-.766 1.557-.879.52-.738h1.037l.52-1.447.518-.453.52-1.447.518-.199 1.039-.057h.519l.519-.227.519-.85.519 1.304.519-.056.519.567h1.038l.52.284.518 3.716.52-2.553.518.454.52-.483h1.038l.519.284.519-3.32.519 2.214.519.057.519 2.212 2.076-.028.52.312.518-.965.52-2.099h1.038l.519-.71.519.88.519-.652.519.766.519.17h1.038l.52 1.22.518-.426.52.256.518-.454 1.558.028.519-.567.519-.369.519-.51.519.368.519-.766h1.038l.52-3.092 1.037-1.135 1.038-2.27 1.558.086.519.17 1.038-.766.519-.766h1.038l.52 7.32.518-8.313 1.038-.71.52 1.22h1.038l.519-7.149.519 7.377.519.482.519-.312.519 3.064h.519" clip-path="url(#pc06a01337a)" style="fill:none;stroke:#0309a6;stroke-width:1.5;stroke-linecap:square"/><path id="line2d_28" d="m49.83 284.4 25.434-.085 1.558-.085 1.557-.057.519-.085.519.028 1.038-.227 1.038-.085 1.038-.425.52-.17 1.038-.029 1.038-.17.519.17h.519l.519-.284 1.038-.255 1.038.17.52-.198.518-.057.52.199.519-.17.519-.029.519-.199 1.038.227.519-.142 1.038.398.52.34.518.199.52-.17.518.028.52.454 1.557.085 1.557.17 1.038-.227 2.076-.057 3.634.511 3.114.057 1.557.085 69.556-.057.519-.057 1.038.057 1.557-.028 1.557.028h1.038l.52.057 1.038-.085 1.038.028 5.71.085 1.557.029 1.038-.085 1.038-.284 1.038-.029 1.557-.255 1.039.199 2.076-.029.519-.227 1.038-.17 1.038-.284 1.038.029.52.227.518-.029.52-.141 1.038.141.519-.141.519.085 1.557-.256 1.038.029.52.085.518-.142 1.557.199.52-.114 1.038.114 1.038.085.519.028.519.199 1.038.085.52-.057 1.556.17.52-.028.519.085 1.557-.142.519-.113 1.038-.029 1.038-.028.52.085 1.037.028 1.038-.028 1.039-.199.519-.056 2.076.397.519.142.519-.199h1.038l1.038-.085.52-.113.518.028.52.34.519.085h1.038l1.038.029.519.028 1.038-.085 2.595.085 2.596-.255.519.113.519-.142 1.038.086 1.038.028.52.085 2.076-.369 2.076-.028.519.198.519.029.519.142 2.076-.085 3.115-.256.519.227 1.038.114 2.076-.085 1.038-.256 1.039.029 1.038.113.519-.028 2.076.255 3.633.114 5.191-.086.52-.056.518.085 1.038.028 1.039.142 3.633-.057.52-.056 1.556.17h1.558l1.038.028 2.076-.17 1.038-.227 1.038-.028.52-.114 1.037.199 1.039.113 1.038.085.519.142 13.496.057 1.038.028 16.091-.085 3.633-.142h1.039l1.038-.142.519.086 1.557-.142 3.114.312 1.039-.029 3.633-.085 1.038-.028h2.076l.52-.142 3.633.114 1.557-.029h1.038l.52-.142 1.038.17 4.671-.056 1.038-.085.52.056 4.671-.453 1.038.056 1.038-.142 1.558.142 1.038-.056 1.038.283h1.557l1.038.085 1.038-.255.52.057 1.038-.284 1.038-.17.519.17.519.028.519-.085h1.557l.52-.113 1.037-.426 1.038.029.52-.17 1.557.34.519.17 2.076-.227 1.038.029.52-.142.518.028.52.199 1.038-.142.519-.199 1.038-.057.519.057.519-.142.519.085.519-.085 1.038.227 1.038-.028.52.34 5.19-.056.52-.057.518.142h3.634l.519-.114 1.038-.425 1.038-.397 1.038-.426.52-.085.518.113 1.038-.028 1.039.227 1.038.142 1.038.312 1.038.312 1.557.34.52-.085.518.057 3.634 1.22 1.038-1.305 1.038.028.52-1.361h.518l.52-.625.518-.113.52.17h1.038l.519.312.519-.057.519-.198.519.397.519-.34h1.038l.52-.199 1.037.085.52-.227.518.482h1.039l.519-.227.519.029.519.142 1.038.624h1.038l.52 1.418.518-.397.52.596.518.284 1.039-.086h.519l.519-5.163.519.397.519-.028.519.085.519-2.184h1.038l.52 3.404.518-.057.52-1.191.518-.568.52 2.27h1.038l.519-.965.519.057.519-.652.519.482.519-.965h1.038l.52.823.518-.028.52.482.518-1.021h1.558l1.038-.17.519-.086.519.34.519.965h1.038l.52 2.1.518.056.52 1.504.518-4.426h3.115l.519 1.76h3.114l.52-5.107h3.114l.519 2.553h3.114l.52 2.184h3.114l.519.34H490l.52.171h3.114l.519.312h3.114l.52.51h3.114l.519.852h3.114l1.038-.114h2.596l.519.511h3.114l.52-.652h3.114l.519-.142h3.114l.52 2.014h6.747l.52-6.78h3.114l.519 3.971h3.114l.52-.51h3.114l.519.198 6.747-.085.52.993h3.114l.519-.34h3.114l.52.567h3.114l.519.482h3.114l.52.256.519-3.518h2.595l.519-1.39.52 3.518h2.594l.52-2.043h3.114l1.038.113h2.595l.52-.34 6.747.028.52-2.496h3.114l.519 4.766h3.114l.52-2.582h3.114l.519 1.674h3.114l.52-2.468h3.114l.519 1.73h3.114l.52 4.256h3.114l.519-9.362h1.038" clip-path="url(#pc06a01337a)" style="fill:none;stroke:#6f781c;stroke-width:1.5;stroke-linecap:square"/><g id="text_17" style="fill:#d8b009" transform="matrix(.14 0 0 -.14 624.57 239.031)"><defs><path id="DejaVuSans-47" d="M3809 666v1253H2778v519h1656V434q-365-259-806-392-440-133-940-133-1094 0-1712 639-617 640-617 1780 0 1144 617 1783 618 639 1712 639 456 0 867-113 411-112 758-331v-672q-350 297-744 447t-828 150q-857 0-1287-478-429-478-429-1425 0-944 429-1422 430-478 1287-478 334 0 596 58 263 58 472 180z" transform="scale(.01563)"/><path id="DejaVuSans-65" d="M3597 1894v-281H953q38-594 358-905t892-311q331 0 642 81t618 244V178Q3153 47 2828-22t-659-69q-838 0-1327 487-489 488-489 1320 0 859 464 1363 464 505 1252 505 706 0 1117-455 411-454 411-1235zm-575 169q-6 471-264 752-258 282-683 282-481 0-770-272t-333-766l2050 4z" transform="scale(.01563)"/><path id="DejaVuSans-72" d="M2631 2963q-97 56-211 82-114 27-251 27-488 0-749-317t-261-911V0H581v3500h578v-544q182 319 472 473 291 155 707 155 59 0 131-8 72-7 159-23l3-590z" transform="scale(.01563)"/><path id="DejaVuSans-6d" d="M3328 2828q216 388 516 572t706 184q547 0 844-383 297-382 297-1088V0h-578v2094q0 503-179 746-178 244-543 244-447 0-707-297-259-296-259-809V0h-578v2094q0 506-178 748t-550 242q-441 0-701-298-259-298-259-808V0H581v3500h578v-544q197 322 472 475t653 153q382 0 649-194 267-193 395-562z" transform="scale(.01563)"/><path id="DejaVuSans-61" d="M2194 1759q-697 0-966-159t-269-544q0-306 202-486 202-179 548-179 479 0 768 339t289 901v128h-572zm1147 238V0h-575v531q-197-318-491-470T1556-91q-537 0-855 302-317 302-317 808 0 590 395 890 396 300 1180 300h807v57q0 397-261 614t-733 217q-300 0-585-72-284-72-546-216v532q315 122 612 182 297 61 578 61 760 0 1135-394 375-393 375-1193z" transform="scale(.01563)"/><path id="DejaVuSans-6e" d="M3513 2113V0h-575v2094q0 497-194 743-194 247-581 247-466 0-735-297-269-296-269-809V0H581v3500h578v-544q207 316 486 472 280 156 646 156 603 0 912-373 310-373 310-1098z" transform="scale(.01563)"/><path id="DejaVuSans-79" d="M2059-325q-243-625-475-815-231-191-618-191H506v481h338q237 0 368 113 132 112 291 531l103 262L191 3500h609L1894 763l1094 2737h609L2059-325z" transform="scale(.01563)"/></defs><use xlink:href="#DejaVuSans-47"/><use xlink:href="#DejaVuSans-65" x="77.49"/><use xlink:href="#DejaVuSans-72" x="139.014"/><use xlink:href="#DejaVuSans-6d" x="178.377"/><use xlink:href="#DejaVuSans-61" x="275.789"/><use xlink:href="#DejaVuSans-6e" x="337.068"/><use xlink:href="#DejaVuSans-79" x="400.447"/></g><g id="text_18" style="fill:#1007e1" transform="matrix(.14 0 0 -.14 624.57 253.031)"><defs><path id="DejaVuSans-49" d="M628 4666h631V0H628v4666z" transform="scale(.01563)"/><path id="DejaVuSans-74" d="M1172 4494v-994h1184v-447H1172V1153q0-428 117-550t477-122h590V0h-590q-666 0-919 248-253 249-253 905v1900H172v447h422v994h578z" transform="scale(.01563)"/><path id="DejaVuSans-6c" d="M603 4863h575V0H603v4863z" transform="scale(.01563)"/></defs><use xlink:href="#DejaVuSans-49"/><use xlink:href="#DejaVuSans-74" x="29.492"/><use xlink:href="#DejaVuSans-61" x="68.701"/><use xlink:href="#DejaVuSans-6c" x="129.98"/><use xlink:href="#DejaVuSans-79" x="157.764"/></g><g id="text_19" style="fill:#89f9c9" transform="matrix(.14 0 0 -.14 624.57 267.031)"><defs><path id="DejaVuSans-55" d="M556 4666h635V1831q0-750 271-1080 272-329 882-329 606 0 878 329 272 330 272 1080v2835h634V1753q0-912-452-1378Q3225-91 2344-91q-885 0-1337 466-451 466-451 1378v2913z" transform="scale(.01563)"/><path id="DejaVuSans-69" d="M603 3500h575V0H603v3500zm0 1363h575v-729H603v729z" transform="scale(.01563)"/><path id="DejaVuSans-64" d="M2906 2969v1894h575V0h-575v525q-181-312-458-464-276-152-664-152-634 0-1033 506-398 507-398 1332t398 1331q399 506 1033 506 388 0 664-152 277-151 458-463zM947 1747q0-634 261-995t717-361q456 0 718 361 263 361 263 995t-263 995q-262 361-718 361t-717-361q-261-361-261-995z" transform="scale(.01563)"/><path id="DejaVuSans-4b" d="M628 4666h631V2694l2094 1972h813L1850 2491 4331 0h-831L1259 2247V0H628v4666z" transform="scale(.01563)"/><path id="DejaVuSans-67" d="M2906 1791q0 625-258 968-257 344-723 344-462 0-720-344-258-343-258-968 0-622 258-966t720-344q466 0 723 344 258 344 258 966zm575-1357q0-893-397-1329-396-436-1215-436-303 0-572 45t-522 139v559q253-137 500-202 247-66 503-66 566 0 847 295t281 892v285q-178-310-456-463T1784 0Q1141 0 747 490 353 981 353 1791q0 812 394 1302 394 491 1037 491 388 0 666-153t456-462v531h575V434z" transform="scale(.01563)"/><path id="DejaVuSans-6f" d="M1959 3097q-462 0-731-361t-269-989q0-628 267-989 268-361 733-361 460 0 728 362 269 363 269 988 0 622-269 986-268 364-728 364zm0 487q750 0 1178-488 429-487 429-1349 0-859-429-1349Q2709-91 1959-91q-753 0-1180 489-426 490-426 1349 0 862 426 1349 427 488 1180 488z" transform="scale(.01563)"/></defs><use xlink:href="#DejaVuSans-55"/><use xlink:href="#DejaVuSans-6e" x="73.193"/><use xlink:href="#DejaVuSans-69" x="136.572"/><use xlink:href="#DejaVuSans-74" x="164.355"/><use xlink:href="#DejaVuSans-65" x="203.564"/><use xlink:href="#DejaVuSans-64" x="265.088"/><use xlink:href="#DejaVuSans-20" x="328.564"/><use xlink:href="#DejaVuSans-4b" x="360.352"/><use xlink:href="#DejaVuSans-69" x="425.928"/><use xlink:href="#DejaVuSans-6e" x="453.711"/><use xlink:href="#DejaVuSans-67" x="517.09"/><use xlink:href="#DejaVuSans-64" x="580.566"/><use xlink:href="#DejaVuSans-6f" x="644.043"/><use xlink:href="#DejaVuSans-6d" x="705.225"/></g><g id="text_20" style="fill:#0309a6" transform="matrix(.14 0 0 -.14 624.57 281.031)"><defs><path id="DejaVuSans-46" d="M628 4666h2681v-532H1259V2759h1850v-531H1259V0H628v4666z" transform="scale(.01563)"/><path id="DejaVuSans-63" d="M3122 3366v-538q-244 135-489 202t-495 67q-560 0-870-355-309-354-309-995t309-996q310-354 870-354 250 0 495 67t489 202V134Q2881 22 2623-34q-257-57-548-57-791 0-1257 497-465 497-465 1341 0 856 470 1346 471 491 1290 491 265 0 518-55 253-54 491-163z" transform="scale(.01563)"/></defs><use xlink:href="#DejaVuSans-46"/><use xlink:href="#DejaVuSans-72" x="50.27"/><use xlink:href="#DejaVuSans-61" x="91.383"/><use xlink:href="#DejaVuSans-6e" x="152.662"/><use xlink:href="#DejaVuSans-63" x="216.041"/><use xlink:href="#DejaVuSans-65" x="271.021"/></g><g id="text_21" style="fill:#6f781c" transform="matrix(.14 0 0 -.14 624.57 295.031)"><use xlink:href="#DejaVuSans-46"/><use xlink:href="#DejaVuSans-69" x="50.27"/><use xlink:href="#DejaVuSans-6e" x="78.053"/><use xlink:href="#DejaVuSans-6c" x="141.432"/><use xlink:href="#DejaVuSans-61" x="169.215"/><use xlink:href="#DejaVuSans-6e" x="230.494"/><use xlink:href="#DejaVuSans-64" x="293.873"/></g></g></g><defs><clipPath id="pc06a01337a"><path d="M49.83 7.2h558v277.2h-558z"/></clipPath></defs></svg>