<svg xmlns="http://www.w3.org/2000/svg" xmlns:xlink="http://www.w3.org/1999/xlink" width="928.157" height="416.199" viewBox="0 0 696.117 312.149"><defs><style>*{stroke-linejoin:round;stroke-linecap:butt}</style></defs><g id="figure_1"><path id="patch_1" d="M0 312.15h696.117V0H0v312.15z" style="fill:none"/><g id="axes_1"><path id="patch_2" d="M49.83 284.4h558V7.2h-558v277.2z" style="fill:none"/><g id="matplotlib.axis_1"><g id="xtick_1"><g id="line2d_1"><defs><path id="m7bc5f90245" d="M0 0v3.5" style="stroke:#b0b0b0;stroke-width:.4"/></defs><use xlink:href="#m7bc5f90245" x="99.266" y="284.4" style="fill:#b0b0b0;stroke:#b0b0b0;stroke-width:.4"/></g><g id="text_1" style="fill:#b0b0b0" transform="matrix(.14 0 0 -.14 70.018 302.038)"><defs><path id="DejaVuSans-32" d="M1228 531h2203V0H469v531q359 372 979 998 621 627 780 809 303 340 423 576 121 236 121 464 0 372-261 606-261 235-680 235-297 0-627-103-329-103-704-313v638q381 153 712 231 332 78 607 78 725 0 1156-363 431-362 431-968 0-288-108-546-107-257-392-607-78-91-497-524-418-433-1181-1211z" transform="scale(.01563)"/><path id="DejaVuSans-30" d="M2034 4250q-487 0-733-480-245-479-245-1442 0-959 245-1439 246-480 733-480 491 0 736 480 246 480 246 1439 0 963-246 1442-245 480-736 480zm0 500q785 0 1199-621 414-620 414-1801 0-1178-414-1799Q2819-91 2034-91q-784 0-1198 620-414 621-414 1799 0 1181 414 1801 414 621 1198 621z" transform="scale(.01563)"/><path id="DejaVuSans-2d" d="M313 2009h1684v-512H313v512z" transform="scale(.01563)"/><path id="DejaVuSans-35" d="M691 4666h2478v-532H1269V2991q137 47 274 70 138 23 276 23 781 0 1237-428 457-428 457-1159 0-753-469-1171Q2575-91 1722-91q-294 0-599 50Q819 9 494 109v635q281-153 581-228t634-75q541 0 856 284 316 284 316 772 0 487-316 771-315 285-856 285-253 0-505-56-251-56-513-175v2344z" transform="scale(.01563)"/></defs><use xlink:href="#DejaVuSans-32"/><use xlink:href="#DejaVuSans-30" x="63.623"/><use xlink:href="#DejaVuSans-32" x="127.246"/><use xlink:href="#DejaVuSans-30" x="190.869"/><use xlink:href="#DejaVuSans-2d" x="254.492"/><use xlink:href="#DejaVuSans-30" x="290.576"/><use xlink:href="#DejaVuSans-35" x="354.199"/></g></g><g id="xtick_2"><use xlink:href="#m7bc5f90245" id="line2d_2" x="163.954" y="284.4" style="fill:#b0b0b0;stroke:#b0b0b0;stroke-width:.4"/><g id="text_2" style="fill:#b0b0b0" transform="matrix(.14 0 0 -.14 134.706 302.038)"><defs><path id="DejaVuSans-39" d="M703 97v575q238-113 481-172 244-59 479-59 625 0 954 420 330 420 377 1277-181-269-460-413-278-144-615-144-700 0-1108 423-408 424-408 1159 0 718 425 1152 425 435 1131 435 810 0 1236-621 427-620 427-1801 0-1103-524-1761Q2575-91 1691-91q-238 0-482 47Q966 3 703 97zm1256 1978q425 0 673 290 249 291 249 798 0 503-249 795-248 292-673 292t-673-292q-248-292-248-795 0-507 248-798 248-290 673-290z" transform="scale(.01563)"/></defs><use xlink:href="#DejaVuSans-32"/><use xlink:href="#DejaVuSans-30" x="63.623"/><use xlink:href="#DejaVuSans-32" x="127.246"/><use xlink:href="#DejaVuSans-30" x="190.869"/><use xlink:href="#DejaVuSans-2d" x="254.492"/><use xlink:href="#DejaVuSans-30" x="290.576"/><use xlink:href="#DejaVuSans-39" x="354.199"/></g></g><g id="xtick_3"><use xlink:href="#m7bc5f90245" id="line2d_3" x="228.117" y="284.4" style="fill:#b0b0b0;stroke:#b0b0b0;stroke-width:.4"/><g id="text_3" style="fill:#b0b0b0" transform="matrix(.14 0 0 -.14 198.869 302.038)"><defs><path id="DejaVuSans-31" d="M794 531h1031v3560L703 3866v575l1116 225h631V531h1031V0H794v531z" transform="scale(.01563)"/></defs><use xlink:href="#DejaVuSans-32"/><use xlink:href="#DejaVuSans-30" x="63.623"/><use xlink:href="#DejaVuSans-32" x="127.246"/><use xlink:href="#DejaVuSans-31" x="190.869"/><use xlink:href="#DejaVuSans-2d" x="254.492"/><use xlink:href="#DejaVuSans-30" x="290.576"/><use xlink:href="#DejaVuSans-31" x="354.199"/></g></g><g id="xtick_4"><use xlink:href="#m7bc5f90245" id="line2d_4" x="291.227" y="284.4" style="fill:#b0b0b0;stroke:#b0b0b0;stroke-width:.4"/><g id="text_4" style="fill:#b0b0b0" transform="matrix(.14 0 0 -.14 261.979 302.038)"><use xlink:href="#DejaVuSans-32"/><use xlink:href="#DejaVuSans-30" x="63.623"/><use xlink:href="#DejaVuSans-32" x="127.246"/><use xlink:href="#DejaVuSans-31" x="190.869"/><use xlink:href="#DejaVuSans-2d" x="254.492"/><use xlink:href="#DejaVuSans-30" x="290.576"/><use xlink:href="#DejaVuSans-35" x="354.199"/></g></g><g id="xtick_5"><use xlink:href="#m7bc5f90245" id="line2d_5" x="355.915" y="284.4" style="fill:#b0b0b0;stroke:#b0b0b0;stroke-width:.4"/><g id="text_5" style="fill:#b0b0b0" transform="matrix(.14 0 0 -.14 326.667 302.038)"><use xlink:href="#DejaVuSans-32"/><use xlink:href="#DejaVuSans-30" x="63.623"/><use xlink:href="#DejaVuSans-32" x="127.246"/><use xlink:href="#DejaVuSans-31" x="190.869"/><use xlink:href="#DejaVuSans-2d" x="254.492"/><use xlink:href="#DejaVuSans-30" x="290.576"/><use xlink:href="#DejaVuSans-39" x="354.199"/></g></g><g id="xtick_6"><use xlink:href="#m7bc5f90245" id="line2d_6" x="420.077" y="284.4" style="fill:#b0b0b0;stroke:#b0b0b0;stroke-width:.4"/><g id="text_6" style="fill:#b0b0b0" transform="matrix(.14 0 0 -.14 390.829 302.038)"><use xlink:href="#DejaVuSans-32"/><use xlink:href="#DejaVuSans-30" x="63.623"/><use xlink:href="#DejaVuSans-32" x="127.246"/><use xlink:href="#DejaVuSans-32" x="190.869"/><use xlink:href="#DejaVuSans-2d" x="254.492"/><use xlink:href="#DejaVuSans-30" x="290.576"/><use xlink:href="#DejaVuSans-31" x="354.199"/></g></g><g id="xtick_7"><use xlink:href="#m7bc5f90245" id="line2d_7" x="483.187" y="284.4" style="fill:#b0b0b0;stroke:#b0b0b0;stroke-width:.4"/><g id="text_7" style="fill:#b0b0b0" transform="matrix(.14 0 0 -.14 453.94 302.038)"><use xlink:href="#DejaVuSans-32"/><use xlink:href="#DejaVuSans-30" x="63.623"/><use xlink:href="#DejaVuSans-32" x="127.246"/><use xlink:href="#DejaVuSans-32" x="190.869"/><use xlink:href="#DejaVuSans-2d" x="254.492"/><use xlink:href="#DejaVuSans-30" x="290.576"/><use xlink:href="#DejaVuSans-35" x="354.199"/></g></g><g id="xtick_8"><use xlink:href="#m7bc5f90245" id="line2d_8" x="547.875" y="284.4" style="fill:#b0b0b0;stroke:#b0b0b0;stroke-width:.4"/><g id="text_8" style="fill:#b0b0b0" transform="matrix(.14 0 0 -.14 518.627 302.038)"><use xlink:href="#DejaVuSans-32"/><use xlink:href="#DejaVuSans-30" x="63.623"/><use xlink:href="#DejaVuSans-32" x="127.246"/><use xlink:href="#DejaVuSans-32" x="190.869"/><use xlink:href="#DejaVuSans-2d" x="254.492"/><use xlink:href="#DejaVuSans-30" x="290.576"/><use xlink:href="#DejaVuSans-39" x="354.199"/></g></g></g><g id="matplotlib.axis_2"><g id="ytick_1"><path id="line2d_9" d="M49.83 284.4h558" clip-path="url(#p481857b49e)" style="fill:none;stroke:#b0b0b0;stroke-width:.3;stroke-linecap:square"/><g id="line2d_10"><defs><path id="mdab9fcb0b5" d="M0 0h-3.5" style="stroke:#b0b0b0;stroke-width:.3"/></defs><use xlink:href="#mdab9fcb0b5" x="49.83" y="284.4" style="fill:#b0b0b0;stroke:#b0b0b0;stroke-width:.3"/></g><use xlink:href="#DejaVuSans-30" id="text_9" style="fill:#b0b0b0" transform="matrix(.14 0 0 -.14 33.922 289.719)"/></g><g id="ytick_2"><path id="line2d_11" d="M49.83 243.394h558" clip-path="url(#p481857b49e)" style="fill:none;stroke:#b0b0b0;stroke-width:.3;stroke-linecap:square"/><use xlink:href="#mdab9fcb0b5" id="line2d_12" x="49.83" y="243.394" style="fill:#b0b0b0;stroke:#b0b0b0;stroke-width:.3"/><g id="text_10" style="fill:#b0b0b0" transform="matrix(.14 0 0 -.14 16.108 248.713)"><use xlink:href="#DejaVuSans-35"/><use xlink:href="#DejaVuSans-30" x="63.623"/><use xlink:href="#DejaVuSans-30" x="127.246"/></g></g><g id="ytick_3"><path id="line2d_13" d="M49.83 202.388h558" clip-path="url(#p481857b49e)" style="fill:none;stroke:#b0b0b0;stroke-width:.3;stroke-linecap:square"/><use xlink:href="#mdab9fcb0b5" id="line2d_14" x="49.83" y="202.388" style="fill:#b0b0b0;stroke:#b0b0b0;stroke-width:.3"/><g id="text_11" style="fill:#b0b0b0" transform="matrix(.14 0 0 -.14 7.2 207.707)"><use xlink:href="#DejaVuSans-31"/><use xlink:href="#DejaVuSans-30" x="63.623"/><use xlink:href="#DejaVuSans-30" x="127.246"/><use xlink:href="#DejaVuSans-30" x="190.869"/></g></g><g id="ytick_4"><path id="line2d_15" d="M49.83 161.382h558" clip-path="url(#p481857b49e)" style="fill:none;stroke:#b0b0b0;stroke-width:.3;stroke-linecap:square"/><use xlink:href="#mdab9fcb0b5" id="line2d_16" x="49.83" y="161.382" style="fill:#b0b0b0;stroke:#b0b0b0;stroke-width:.3"/><g id="text_12" style="fill:#b0b0b0" transform="matrix(.14 0 0 -.14 7.2 166.701)"><use xlink:href="#DejaVuSans-31"/><use xlink:href="#DejaVuSans-35" x="63.623"/><use xlink:href="#DejaVuSans-30" x="127.246"/><use xlink:href="#DejaVuSans-30" x="190.869"/></g></g><g id="ytick_5"><path id="line2d_17" d="M49.83 120.376h558" clip-path="url(#p481857b49e)" style="fill:none;stroke:#b0b0b0;stroke-width:.3;stroke-linecap:square"/><use xlink:href="#mdab9fcb0b5" id="line2d_18" x="49.83" y="120.376" style="fill:#b0b0b0;stroke:#b0b0b0;stroke-width:.3"/><g id="text_13" style="fill:#b0b0b0" transform="matrix(.14 0 0 -.14 7.2 125.695)"><use xlink:href="#DejaVuSans-32"/><use xlink:href="#DejaVuSans-30" x="63.623"/><use xlink:href="#DejaVuSans-30" x="127.246"/><use xlink:href="#DejaVuSans-30" x="190.869"/></g></g><g id="ytick_6"><path id="line2d_19" d="M49.83 79.37h558" clip-path="url(#p481857b49e)" style="fill:none;stroke:#b0b0b0;stroke-width:.3;stroke-linecap:square"/><use xlink:href="#mdab9fcb0b5" id="line2d_20" x="49.83" y="79.37" style="fill:#b0b0b0;stroke:#b0b0b0;stroke-width:.3"/><g id="text_14" style="fill:#b0b0b0" transform="matrix(.14 0 0 -.14 7.2 84.69)"><use xlink:href="#DejaVuSans-32"/><use xlink:href="#DejaVuSans-35" x="63.623"/><use xlink:href="#DejaVuSans-30" x="127.246"/><use xlink:href="#DejaVuSans-30" x="190.869"/></g></g><g id="ytick_7"><path id="line2d_21" d="M49.83 38.364h558" clip-path="url(#p481857b49e)" style="fill:none;stroke:#b0b0b0;stroke-width:.3;stroke-linecap:square"/><use xlink:href="#mdab9fcb0b5" id="line2d_22" x="49.83" y="38.364" style="fill:#b0b0b0;stroke:#b0b0b0;stroke-width:.3"/><g id="text_15" style="fill:#b0b0b0" transform="matrix(.14 0 0 -.14 7.2 43.683)"><defs><path id="DejaVuSans-33" d="M2597 2516q453-97 707-404 255-306 255-756 0-690-475-1069Q2609-91 1734-91q-293 0-604 58T488 141v609q262-153 574-231 313-78 654-78 593 0 904 234t311 681q0 413-289 645-289 233-804 233h-544v519h569q465 0 712 186t247 536q0 359-255 551-254 193-729 193-260 0-557-57-297-56-653-174v562q360 100 674 150t592 50q719 0 1137-327 419-326 419-882 0-388-222-655t-631-370z" transform="scale(.01563)"/></defs><use xlink:href="#DejaVuSans-33"/><use xlink:href="#DejaVuSans-30" x="63.623"/><use xlink:href="#DejaVuSans-30" x="127.246"/><use xlink:href="#DejaVuSans-30" x="190.869"/></g></g></g><path id="line2d_23" d="m49.83 284.4 18.407-.082 2.63-.152 1.052-.012 1.051-.117 1.578-.211 1.052-.668 1.052-1.37 1.578-3.633.526-1.874.525-2.414.526-3.198 1.052-8.916.526-7.147.526-5.002.526-6.093.526-9.794 1.052-28.54 1.577-33.754.526-12.372.526-17.89.526-6.034 1.578-23.163 1.052-5.834.526 1.464.526-5.53.526.809.526 1.288.525 1.887.526-.984.526-3.34.526.34.526 1.863.526-2.823.526.468.526 2.39.526 6.467.526 9.362.526 2.577.526 1.066.525 2.765.526 2.156.526-.047.526 2.484.526 1.37 1.052 1.242.526 3.351.526 1.3.526 3.187.526 2.367.526 4.03 1.051 14.212 1.052 3.257.526 3.538.526 2.18.526-2.297.526 1.921.526 2.637.526 6.877.526 4.967.526 1.067.526 2.062.525 7.287.526 9.08.526.21 1.578 3.996.526.187.526-1.956.526-3.726.526 5.296.526.796.526 2.8.525 3.632.526 1.91.526 3.105.526.726.526 1.664.526 2.19.526.551.526-.796 2.63 6.795.525 2.25.526 1.675 1.578 1.101.526-.164.526 1.71.526.024.526.75.526-.047.526.094.526 2.12.525.621.526-2.237.526-.586.526 2.25h.526l.526-.165.526-6.97.526-1.641.526-3.445.526-1.476.526-5.225.526-1.804.525-.68.526 2.917.526-1.394.526.762 1.052-2.988.526-.07.526-1.031.526-2.355.526-3.081.526-1.23.526-1.957.525-.914.526-.656.526-6.795.526-1.36 1.052-5.037.526-.914.526-1.734.526.867.526 6.397.526-.457.526.14.526 1.266.525-1.453.526.316.526-1.312.526.469.526 2.038.526-1.019.526 1.804.526-.14.526.597.526-.445.526.55.526-1.757.525 9.654.526-.773.526 2.449.526.972.526 1.277.526.527.526.047.526-5.541.526-.082.526 2.026.526-.082.526.774.525-.574.526 1.827 1.052 2.215.526-.34.526 1.98.526.047.526 1.863.526 6.959.526-.539.526 1.324.526-2.238 1.051 1.148.526-1.148.526-8.412.526 1.957.526.69.526 2.157.526.831.526 1.512.526.105.526 1.992.526-1.383.526-.445.525.516.526-1.125.526-.457.526.844 1.052 3.198.526-.094 1.052 1.957.526-.762.526-1.581.526 2.413.525-.011.526-.903.526-1.464.526.293.526-1.102.526.938.526-.61.526-.972.526 1.558.526.34.526-1.664.526-.222.526-1.36 1.051-4.58 1.052-.516.526-2.144.526.352.526-.54.526-.82.526 1.477 1.052-2.917.526.386.525-.668.526-.48.526-7.065.526-.89.526-2.296.526-1.734.526-2.191.526-.773.526-2.402.526 2.167.526-4.03.526-.598.525-.105 1.052-5.366.526-.867.526-3.585.526-5.589 1.052-17.808 1.578-9.501.526-5.167.526-3.738.525 7.276.526 4.17.526 2.602.526.328.526-2.789.526-4.381.526-6.08.526-17.75 1.052-23.784.526-4.358.526-3.093.525-.457.526-1.992.526-.082.526-7.838.526-1.312.526-2.062.526-.633.526-3.526.526-8.623.526-5.893.526 4.756.526-2.706.525-1.207.526-1.535.526-5.038.526 4.359.526 6.56.526 16.766.526 9.654.526 3.14.526-.843.526-2.847.526-6.386.526-4.592 1.051-15.419.526.059.526-1.37.526.023.526-.211.526-8.775.526-22.823 1.052-15.746.526 1.862.526-9.384.526-1.324.525 2.624.526 3.949.526-4.09.526 1.254.526 3.234.526 23.08 1.052-8.552 1.052.785.526 1.827.526-2.354.525-18.465 1.052 7.276.526 2.507.526 7.803.526-1.23.526.011.526 5.19.526 2.344.526-.89.526-1.149.526 1.523.526 5.495.525 3.878 1.052 11.798 1.578 23.701.526 3.644.526 5.893.526 16.262.526 11.177.526 7.041 1.051 7.71.526-.692.526-3.081.526-7.194.526-9.478.526 1.699 1.052 9.22.526 1.453.526-1.253.526 4.042.526 8.13 1.051 10.615.526-.07.526 4.499.526 7.006.526 1.78.526 11.553.526 4.475.526 3.41.526 6.467.526 2.19.526.153.526 5.975.525 4.007.526-1.043.526 4.687.526 2.308.526-2.238.526 1.78.526 3.598.526-3.14.526 3.35.526-1.558.526-.41.526 3.093.525-.96.526.62.526 4.581 1.052 5.964.526.574.526 1.511.526 1.992.526.691.526-17.937.526 1.031 1.051-.176 1.052.399.526-.375.526 19.507.526 1.23.526.387.526.597 1.052-1.183.526.316.526.457.526-.398.525 1.253.526-.48.526.48.526.176.526 2.004.526-1.008.526.668.526-.48.526.011 1.052-.222.526-2.45.525 1.993.526 1.03.526.54.526 1.288.526.703.526.984.526 2.285 1.052 1.137 1.052 2.835 1.051-.07.526-1.184.526 1.312.526.738 1.052.762.526.75.526-.457.526 1.664.526-3.878.526-7.803.526.785.526 1.874.525.668.526 3.046.526-.047.526 4.98.526 8.423.526.211.526-2.999.526-.246.526-1.511.526 3.925.526.995.526 2.672.525-.106.526 3.702.526.668.526 1.418.526-.176 1.052 2.296.526-.867.526 1.149.526.386.526-.832.526-.246.526-.035.525-.492.526.844 1.052.152.526 1.183.526.176.526 1.008.526.68 1.052 2.014 1.577 1.125.526-.316.526.386.526-.328.526.059.526-.95.526-1.335.526-.597h.526l.526-1.242 1.052.176.525.304.526.434.526.785.526-.422.526.797.526-1.16.526-.75.526-.082.526-.61.526-1.968 1.052-.585.526-3.902.525-.468.526-1.535.526-1.09.526-1.5.526-1.91 1.052-5.342.526-1.054.526 1.148.526-2.039 1.052-5.916.525-5.928.526.867.526-.047.526-.961.526-6.14.526-2.249.526-4.674.526-8.846.526-4.721.526-3.597.526-.035.526-3.457 1.577-14 .526-3.292.526-.88.526-1.241.526-4.417.526-.105.526-5.753.526-9.197.526-2.308.526-.012.526-1.195.525 12.946.526-7.638 1.052-5.811.526-6.105.526-2.179.526.563.526-18.148.526 1.968.526-4.92.526-3.106.526.082.525-2.003.526-.281.526-1.758.526-6.08.526.562.526 2.168.526-.352.526 1.793.526-2.203.526.563.526-.832.526.597.525 5.647.526 4.136.526.082.526.574.526 3.831.526 7.311.526-.234 1.578 12.63.526.574.526 8.81.526-4.628.525-6.198.526 3.304.526-.222.526-1.687.526.164.526-6.878.526 3.785h.526l.526 2.05.526-.562.526.257.526 2.344 1.051 7.72.526 13.216 1.578 5.53.526.258.526 2.507.526 3.714.526.843.526 7.663.526-4.57.525-1.241.526.316.526.469.526-1.898 1.052 6.959.526-3.855.526-1.09.526.012.526-.843.526 1.523.526.328.526-5.096.525 8.002.526 1.452.526-.21.526.41 1.052-.809.526 9.97.526 16.168.526 1.606.526-.34.526-7.827 1.051-6.9.526-39.846.526-14.317.526-4.23.526-1.581.526 5.729.526 1.5.526 2.108.526 27.345.526-1.663.526.878 1.051.903h.526l.526-4.84.526 3.317.526-1.301.526-.644.526.585.526-1.85.526-4.652.526-22.858.526-1.617.526 13.767.526 5.12.525-.586.526-3.445.526-4.417.526 21.312.526-.973.526-.492.526-1.863.526-.421.526-.68.526-.469.526 1.594.526-7.088.525-20.011.526-5.507.526-2.495.526-1.758.526-2.237.526-7.23.526-5.447.526-4.183 1.052-3.28.526 11.927.526-2.554.525-7.393.526-4.347.526-6.96.526-.257.526.293.526-13.403 1.052-9.408.526 3.632.526-8.213.526-2.109.526 2.953.526-5.003.525-2.355.526 3.269.526 1.617.526-.364.526 3.34.526.222.526-3.304.526 4.171.526 2.952.526-8.997.526 16.625.526 1.206.525-1.359.526-3.433.526 4.617.526 1.792.526 3.503.526 2.343 1.052 3.187.526 26.549.526 5.084.526 1.066.526-.035.525 4.944.526-.89.526 2.59.526-14.365.526 4.745.526 11.716.526 14.61.526 4.019.526 5.307.526.129.526 5.202.526 4.089.526.796.525-.75.526.914 1.052.598 1.052 8.47.526 2.05.526 3.223.526 9.888.526-.07.526 1.23.526.328.525 3.597.526 2.437.526 7.393.526 2.296.526 1.57.526.316.526 3.105.526-2.496.526 5.53.526 4.077.526-2.46 1.051-.07 1.052 10.556.526.48.526-3.714.526 2.226.526.153.526.351.526 3.035.526-.961.526 2.074.526 1.277.526 2.343.525 1.066.526.223.526.913.526 1.805.526.527.526 3.808.526-.985h.526l.526-.246.526-.117 1.052 2.601.525-.129.526 1.184.526-.715.526.105.526-.328.526-1.511.526-13.45.526 1.312.526.492.526-.855.526-.082.526.469.525 1.43.526 14.855.526-.024.526 2.04.526 1.499.526-.082.526.093.526-.82.526-3.362.526-.387.526-2.472 1.052-.304.525.023.526.633.526-1.36.526-.245.526-1.336 1.052.785.526 2.378.526-.281.526 4.804.526.34.526 1.546.525-1.37.526-.2.526-2.835.526-1.266.526-6.104 1.052.738.526.551.526.059.526-.082.526 1.3.526 5.74.525-1.71.526.563.526.796.526-.292.526 2.296.526-1.078.526-1.722.526.726 1.052-2.753.526.375.526-2.39.526-1.406.525 1.5.526 7.685.526-.656.526 1.219.526.175.526 2.578.526 1.335.526-.48.526-15.793.526-.34.526-.047.526-.28.525-4.582.526-1.218.526-2.437.526 8.19.526.245.526-.047.526-.27.526.34.526-.773.526.867.526-1.44.526-.832.525-.211 1.052.433.526.96.526-.62.526 1.113.526-.516.526.469.526.223.526-1.734.526.468.526-1.652.526-2.577.525-1.078 1.052-.34.526.855.526-1.593.526 1.758 1.052 1.476.526-.059.526.176.526.351.526 1.582.525-1.91.526-.609.526.773h.526l.526-9.033.526 8.448.526-1.242.526 1.687.526-.082.526-1.324.526.094.526 9.02.525-8.575.526 2.495.526-6.572.526-.774.526 2.625 1.052.047.526 4.604.526-2.367.526 8.471.526-.082.526-.785 1.051-.082.526-4.358.526 1.007.526-2.003.526.199.526 1.347 1.052.035.526.727.526.949.526-.223 1.051.153.526-.211.526.047.526.316.526-.106.526-3.655.526-.351.526 1.265.526.199.526.012.526.925.526-.656.525 2.789.526 1.265.526-.949.526-.188.526.07.526 1.828.526-1.23.526 3.48.526-.902.526 1.605 1.052.105.526-2.331.525 2.015.526.152.526 1.219.526-3.726.526.223.526-.012.526 1.476.526.024.526-4.452.526.035.526 4.557.526-.14.525.035.526.914.526-.118.526 4.289.526-.47.526-1.909.526.035 1.052-.129.526 2.637.526-2.332.526.797.525 3.503.526.328.526.058.526-1.382.526-2.132.526 1.206.526.785.526-5.284.526-.199.526-.058.526.504 1.052-3.96 1.051 8.037 1.052.222.526-1.03.526 1.792.526 5.377.526-6.162.526-1.804.526-.176h.526l.526.902.525-2.214.526-5.624.526-1.875.526 1.324 2.104.293.526 1.406.526.937.526-2.577 1.051.187.526-.492.526.223.526-.95.526 1.817.526 2.648.526.093h0" clip-path="url(#p481857b49e)" style="fill:none;stroke:#7516fd;stroke-width:1.5;stroke-linecap:square"/><path id="line2d_24" d="m49.83 284.4 22.615-.094 2.63-.14 2.629.07 2.103.012 7.363-.235 3.156-.457 1.578-.234 1.577-.316.526-.164 2.104-.117 2.63.152.525-.234 1.578-.176 2.63.55 1.052.176 1.051-.21 1.578-.036 1.052.153 1.052.222 2.63.363 9.992.574 2.63-.035.525-.175 2.104.035 1.052-.047.526.222 2.104.036 3.155.058 2.63-.023 8.94-.082 1.578-.059 1.052.035 3.681-.246 2.63-.082 2.104-.363 1.051-.105 1.052-.059 2.63.082 2.63-.187 2.103.093 1.052.106 1.578-.047.526.094 1.051-.024 2.104.094.526-.012 1.052.129 1.052.094.526.082h1.051l2.104-.047 2.63-.012 1.052.082 4.733.14 1.052-.14 1.577.012.526.023.526-.093 1.578.035 1.052-.094 1.578.082.526-.117 6.31-.106.526-.093 2.63.023 1.052-.152 1.052-.106 1.052-.023 1.051-.176.526-.199 1.052-.129 1.578-.597 1.578-.34 1.052-.328 1.051-.188 1.052.164.526-.07.526.129 3.156-.656.525-.188 1.578.012 1.578-.457 2.63-.187 1.051.363.526-.234.526.035.526-.2 1.052-.245 1.052-.668.526.176h.526l.526.14.526-.375 2.63-.152.525-.469.526.059 1.578-.996 2.63-.469.525.141 2.104-.445.526-.352.526.106 1.052-.153.526.153.525-.035.526.292.526-.011.526.304.526.504.526.34 1.052.281.526-.082.526.492 1.052-.012 1.051-.292.526.199.526.55 1.052.141.526-.164.526.433.526.235.526.058.526-.129 1.051.153.526.293 1.052.082 1.578.257.526.258 2.104-.058.526.011 1.051.281 1.052.668 1.578.13.526.257 1.052.059 1.052-.258.525.047.526.234.526-.328 1.052.234 1.052.48 1.578.399 1.052-.14.525-.223 1.052-.117.526-.188 1.052-.164 1.052-.387 1.578-.07 1.052-.27 1.051-.269.526-.41.526-.058.526-.211.526-.012.526-.422.526.2.526-.34 1.052-.282.526.153.525-.106.526.153.526-1.277 1.052-.082.526-.258.526-.738 1.052-.961.526.785.526-.094.526.211.525-.597.526-1.207.526.105.526-.047.526-.363.526.13.526-.177.526.434.526 1.312 1.052-.387.526.2.526-.094 1.051.21 1.578.165.526.105.526.317 1.578.07.526.199.526.469.525.27 1.052.315.526.176.526.375 1.578.644.526.317.526.14 1.577.809.526.058.526.2.526-.012.526.117.526-.035 5.785 1.71 1.052-.023.526.187.526.047 1.052-.129.526.118 2.103-.164h.526l.526.187 2.63.21.526.13 1.052-.106 5.259-.222 2.63-.469.525-.012.526-.175.526-.328 3.156-.703.525.058 1.052-.457.526-.246.526-.093.526-.293 1.052-.422.526-.305 1.578-.445.526.21 1.051.095 1.578-.528.526.047 1.052-.222 1.052.257.526.293.526.047 1.051-.082.526.305.526.094 2.63 1.206 1.052-.093 3.681.55.526.258.526.035.526-.14 2.104.292.525-.082.526.07.526.27.526.129h1.052l.526.035 1.052.469 1.578.281 2.103.375 1.578-.059 1.578.082 3.155.317 2.63.199 1.578-.012 3.681.024 2.63.07 23.666-.082 1.052-.164 1.052-.012 1.577-.27.526.024 1.578-.445.526-.387.526-.222 1.052-.856 2.103-1.16 1.578-1.757.526-.867.526-.445.526-.762 1.052-1.98.526-.867.526-.55.526-.34.525-.808.526-.422 1.052-1.699.526-1.254 1.052-1.558 1.052-.539.526-1.007.526-.188.526.762.525-.797.526-.445.526.176.526-.293.526.984.526.129.526-.61.526.516.526.843.526.141.526.914.526-.129.526.258.525.82.526.293 1.052.996.526.047 1.052 1.3.526.2.526.62.526.434.526.28.526.68.525 1.371 1.578 1.488 1.578.012.526-.13 1.578 1.02.526.54 1.051.55.526.21 1.052.739 1.052.175.526-.058 2.63.597.525.012 1.052.223.526-.059.526.211h.526l1.578.434 1.578-.422 1.577.457.526-.223 1.052.223.526.468.526.246.526.094.526-.152.526.093 1.051.012 1.052-.41 3.682.07 1.052-.117.526.082 1.051-.093.526.082.526-.07.526.07 1.052-.07 2.63.491.525.153 1.578.187.526.176h.526l1.578.304h1.052l1.051.012 1.052-.023 1.052.082 1.052.234 2.63.2.526-1.067 3.155-.035.526 1.031 1.052.047 1.578-.188 1.051-.046 1.052-.434 1.578-.176 1.052-.105 1.578-.68.525-.644.526-.094.526-.34 1.052-1.91 1.052-1.593.526-.304 1.052-1.207.526-.328 1.052-1.02.525-1.077.526-.598 1.052-1.476.526-1.582.526-.96.526-.528.526.047.526-1.218.526-.012.526-.632 1.051-.785 1.052-1.934.526.024.526-.855 1.052-.914 1.052-.235.526-.316.526-.082 1.051.188.526.28.526-.433.526-.082 1.052-.656 1.578.2 4.207 8.341 1.052 1.347.526.82.526.375.526.797.526 1.09 1.052 1.488 1.051 1.874.526.27.526.035 1.052.609 1.052-.574.526-.434.526-.257.526.246.526.468.525.258 1.578 1.125.526.164.526.035.526.445 1.052.387 1.578.422.526.351.525-.34.526-.164.526.082 1.578-.14.526-.176.526.21 1.052.013 1.577.445.526.14.526-.164 1.578-.105.526-.164.526-.047 1.578-.75 1.051-.62 1.052-.516.526-.07.526.937.526-.164.526-.469 1.052-.2.526-.643.526-.106.526-1.804.526-.574.525.117.526-.094.526-.738.526-.234.526-.54.526-.105 1.052-1.195.526-1.019 1.578-.457 1.051.059.526-.715 1.578-1.43.526-.116.526-.785 2.104-1.64 1.051-1.114.526-.199 1.578-1.992.526-.878h0" clip-path="url(#p481857b49e)" style="fill:none;stroke:#53a577;stroke-width:1.5;stroke-linecap:square"/><path id="line2d_25" d="m49.83 284.4 24.192-.094 1.052-.023 1.578-.059 1.578-.328 2.103-1.581 1.052-1.172.526-.656.526-.41 2.104-4.628.526-.808.525-1.406.526-.305.526-.527 1.578-3.89.526-.351.526.644.526-.398.526.035.526-.363.526-.809.526-.386 1.051-1.477.526.188.526-.281.526.047.526 1.171 1.052 1.582.526.515h.526l.526.363.526.926 1.051.89 1.052 1.77.526.785.526.28.526.434 1.052 1.125.526-.105.526.562 1.051.515.526.75.526.399 1.052 1.077 1.052-.07.526.516.526.21.526.375.526.867.526.176 1.051.152 1.052.739 1.578-.164.526.234.526-.012.526.398.526.211.526.375 1.051.153.526-.13.526.06.526-.305 1.578.457 1.052.363.526.023.526.328.526-.14 3.155.07 1.052.281.526-.058 1.052.011 1.577.047 3.682.234h1.052l2.103.082 1.052.165 3.682.082 1.577-.13 3.682.13 1.578-.2 1.577-.082.526-.093 2.104.222.526-.07 1.052.082 6.31.082.527.07 2.63-.164 5.258.14 5.26-.198 1.051-.282 2.63-.164 1.052.164.526-.117h1.578l2.103-.023 1.052-.117.526-.012 1.052-.516 1.578-.351.526-.07.525-.399 1.052.082 1.052-.48 1.052-.363.526.058 2.104-2.19h.525l.526-.293.526-1.043.526-.773.526-.34.526-1.043 2.104-1.148 1.052-2.425 1.577-1.687.526.011.526-1.323 1.578-1.43.526-.89 1.052-.692.526.211.526-1.23 1.577-5.026.526-.234.526-.41.526-1.629 1.052-1.956.526-.07 1.052-2.356.526-.257.525-.41.526-1.207.526.457.526-1.945.526-.152.526-.774.526-.48.526-.902.526-4.241 1.052-5.542.526-2.413.525-1.031.526-.446.526-2.706.526-.117.526-1.219 1.052 10.111.526.621 1.052-2.847 1.578-5.506.525-1.125 1.052 1.054.526-1.078.526 1.29.526-1.243 1.052-16.191.526-1.793.526-.48.526.62.526-.48.525-2.038.526.879.526 1.206.526.235.526 1.511 1.052-2.18 1.052 5.683 1.052 2.308.526-.035.525 1.008.526 1.944.526.844.526.234.526.996.526-.586 1.052.985.526.082.526 1.816.526-.188.526 1.23.526 1.969.525.199.526 4.452.526 1.898.526 1.406.526 3.503.526 1.617.526.152.526.492.526-.55.526 2.963.526 1.547 1.051 1.277.526.855.526.633 1.052 2.94.526 1.746 1.052 2.754.526-.141.526.023.526.668.526.047.525.305.526 1.523 1.052 1.523.526.304 1.052 2.59.526.445.526.14.526.715.526.305.526-.153.526.2.525.597.526 1.101 1.052.68.526-.34 2.104-.175 1.052 1.09 1.051.187.526.82.526-.012.526.316.526-.574.526.434.526.257.526-.082.526 1.055.526-.574.526-1.23.526-.75.525-1.476.526-.422.526-.574.526-2.39.526-.516.526.152.526.575 1.578.831.526-.035.526.13.526.397.525-.21 1.052-1.406.526.375.526-.551.526.223.526-.06.526-.48.526.633.526.117.526-.28 1.051.655 1.052.422.526-.07.526-.2 1.578.926.526-.328.526 1.101 1.052 1.371.525-.117.526.726.526-.187.526.48.526-.421.526.082.526-.13.526.247.526 2.202.526.164.526-.375.526.399.526.082.525.304.526.082.526-1.405 1.052 2.272.526 1.242.526.48.526-.21 1.052.316 1.052 1.687 1.051-.27.526.657.526.14.526.551.526-.351.526-.13.526.13.526.351 1.052.023.526.188.526 1.008.525.14 1.052.703 2.104.293.526.351.526-.082.526.61 1.052.093.525.305.526.094.526.375.526.234.526-.223 1.578.059.526.234.526-.011.526.363.526.152 1.051.047.526-.094.526.106 2.104-.387 1.578-.094.526.246 2.103.188.526.222 1.578-.035 2.104-.082 2.103.445 1.052-.011 1.578-.258.526.07 1.052-.07h.526l1.051-.363 1.578-.059 1.578-.386.526.187.526-.14.526-.364 2.103-.094 1.578-.456.526-.246.526.152 1.052-.152.526-.563.526-.21.526.41.525-.212.526-.351.526-.012.526-.152.526.14 1.052-1.077 1.052.129.526.035.526-.235.526.047.525.563 1.052-.141.526.223 2.104.046.526-.152.526.012.526-.176 1.052.024.525-.188.526-.047.526.246.526-.117.526.082 1.578-.035.526.059.526-.598 1.577-.281.526-.469.526-.258.526-.69 2.104-.294.526.551.526-.937 1.577-1.453 1.052-.164.526-1.031.526-.492.526-.82.526-.434.526-1.007 1.052-.328.526-1.125.526-.68.526-.34.525-.117 1.578-.69 1.052-.997.526-1.019.526-1.828.526-.644.526-.34.526-.129.526-.925.525-1.3 1.052-.82.526-.88.526.118 1.052-.223 1.578-2.952.526-1.547 1.051-.855.526-.867.526.867.526-.668.526.55.526 1.125.526-.562.526-.035.526.129.526-.668.526 1.136.526.785.526 3.011.525 1.078.526.586 1.052 2.18 1.052 1.042.526-.316.526.492.526.011.526.188.526.797.526-.703.525.69.526-.983.526-.364.526.188.526.398.526-.445.526 1.488.526-.258 1.052.738.526.258 1.051 3.21.526.961.526 1.36.526.655 1.578-.304.526.855.526.539 1.578-.094.526-.387.525.305.526-.351.526.28h.526l1.052.329 1.052.27 1.052-1.758.526-.656 1.051-.504.526.082.526-.773.526.293.526-.27.526-.445 1.052-.316.526.234 1.052-1.347.526.21.525.446.526-.469.526.187.526-.023.526.832.526-.024.526-.28.526-.762.526-.059 1.052.07.526-1.042.526-.153.525.094.526.492 1.578.14 1.052 1.008.526-.222 1.052.597 1.052.082.525.223.526-.703.526-.258 1.052-1.394 1.052-.082.526-.504.526-.222.526-3.468.526 3.526 1.051-.351.526.234.526-.105.526-3.75.526 3.07.526-3.772.526 2.999.526.609.526-3.386.526-.527.526 4.194.526 1.43.526 3.28.525.27.526.023.526 3.304.526.152.526-.164.526-.902.526-2.402.526-.129.526.059.526-3.48.526 4.077.526-3.104 1.051 1.757 1.052.234.526.75.526-2.823.526 4.756h.526l.526-.293 1.052-.058.526.258.525.117.526-.164 1.052 1.054 1.578.13.526.667.526.375.526.152.526.281 1.052.059.525.656.526.187.526.34.526 1.746.526.55 1.052-.093.526.27.526.784.526.059.526-1.043 1.051.094.526.023.526 1.57.526-.632.526.48.526-.176 1.578-.058.526-1.23.526.386.526.2.525 1.018.526.223 1.052.012.526-.879.526.094.526-.293.526-.832.526-.305h1.052l.526.809.526-.832 1.051.246.526-.223 1.578.094.526.621.526-.293.526-.55 1.578-.07.525-.739.526.211.526-.433.526.187.526-.351 1.052.093.526.738 1.052-.75.526.024.526.21h1.051l.526-.995.526-.527.526.234.526-.468 1.578-.094.526.187 1.578-.89.525-.281 2.104.058.526.457 1.578.024h.526l1.052.597.525-.363.526-.024.526.188 1.578-.07.526.527.526 2.156.526-.434.526.234h1.052l.525.317.526 1.722.526-3.175.526.68.526-.223h1.052l.526.234.526-1.406.526 1.805 1.052.785 1.577.105.526.129.526-1.324 1.052-.047h1.052l.526-.656.526.223.526 1.452.526.282 1.577-.024.526.328.526-.562.526.14.526-.55.526-.305h1.052l.526 1.383.526.117.525-.035.526.27.526-.153h1.052l.526-2.168 1.578-2.32.526-.363h1.052l.526-.28 1.051-1.126.526-.152.526-.515h1.052l.526-.75.526.07.526.316.526-.07.526.434h1.051l1.052 2.87.526-.996 1.052-1.043h1.052l1.052-2.425.526 1.242 1.051.457h1.052l.526.363 1.578.176.526-.21h1.052l.526.233.526.985.526-.012.525-.656.526 1.125h1.052l.526.433 1.052.187.526 1.266.526.21h1.052l.526-.304.525-.457.526.316.526-.011.526-.363h1.052l1.052-.41.526-1.196.526.282.526-.317h1.051l.526.528.526-.13.526.575.526-.516.526-.117h.526" clip-path="url(#p481857b49e)" style="fill:none;stroke:#d8b009;stroke-width:1.5;stroke-linecap:square"/><path id="line2d_26" d="m49.83 284.4 26.822-.07 2.104-.328 2.63-.727 1.051-.34 1.052-.656.526-.773.526-.234.526-.785.525-.188.526-.644 1.578-2.59.526-.843.526.223.526-.68.526-.316 1.052-1.793.526-.667.526-1.29.525-1.71.526-.105.526-.234 1.052 1.042.526-2.776 1.052-3.468.526-1.418.526-2.25 1.052-6.924.525-.796.526-.387.526.047.526-.715.526.012.526-1.066.526-2.578.526-1.277.526-4.932.526-3.398 1.052-4.58.525-2.777 1.052-3.351.526-1.594.526-.714.526.129.526-2.402 1.578-10.884.526-.797.526-4.054.526-2.366.525.093.526.89.526.177 1.052-2.66 1.052 4.323.526-.164.526-3.643.526-1.559.526-3.749 1.051 1.453.526-.059.526-1.429.526 2.015.526-.515 1.052 5.565.526-.656.526-1.851.526 1.16.526-1.629.526.62.525.34.526-3.854.526-1.464.526.597.526.024.526-.867.526.949.526.69.526 2.098.526-.574.526-.129.526.469.526 1.042.525.211.526-.925.526-2.578.526-.34 1.052.856.526.199.526-1.02.526.434.526-.996.526 1.5.526-.691.525-1.758.526.07.526-1.253.526-.902.526 2.05.526 1.031.526-1.066.526.785 1.052-.457.526-.164.526-.492.525-2.988.526 1.488.526.973.526.69 1.052 2.438.526-1.195.526 1.85.526.669.526.972.526-1.171.526-1.957.526-.281.525 2.132.526 1.336.526-.527.526-2.191 1.052 4.053.526-.187.526.914.526 1.218.526-.21.526-.083.526-1.85.525.245.526.059.526-.516.526-1.23.526 1.547.526.855.526 1.746.526.984 1.052 5.319.526-.809.526.633.525.89.526.621.526-1.464.526 1.382h.526l.526 3.433.526-.668.526 3.831.526 7.323.526.55.526-1.253.526.012.526-1.91.525.621.526-1.617.526-6.526.526 2.285.526 1.23.526.234.526 1.008.526.633.526-.094.526 3.374.526.352.526.867.525.07.526-.48.526.14.526.879 1.052-1.336.526.258 1.052 3.538.526-.222.526-.024.526.563.525 3.01.526.446h.526l.526.632.526.938.526 2.331.526 5.062.526-.082.526-.926.526.129.526 1.394.526.504.526-1.547.525-3.163.526 1.886.526 3.62.526.938.526.328.526.023.526.281.526 1.43.526.785.526-.54.526-.116.526 1.113.525.351.526 1.605.526 2.789.526-1.336.526-.61.526 3.539.526.75.526.152.526-.246.526 1.055.526.515 1.051-7.44.526-5.928.526.586.526-.832.526-5.624.526-2.108.526 3.315.526.738.526 4.417.526-.445.526-1.148.526.597.526 1.535 1.051-1.242.526-2.19.526-.645.526.047 1.578-1.933 1.052-2.601.526-1.254.526-.867.525-1.324.526-2.038.526-.094.526.2.526-.352.526.527.526-1.031.526-1.594.526-1.03.526-3.422.526-1.827.526.21.525-1.452 1.052-.973.526-.28 1.052 7.45.526 4.253.526.961.526.27.526-.961 1.052-5.952.526.153.525.035.526.304.526-.69.526-1.606.526-.164.526-5.881 1.052-15.56.526-2.096.526 1.241.526.739.526-.387.525 4.265.526-.633.526-.059.526-.714.526.175.526-.41.526-1.534.526-2.262.526.75.526-1.535.526-.515.526-2.507.525.058.526.691.526-1.066.526-.187.526-.55.526.316.526.784.526-1.241 1.052 3.503.526-1.922.526 2.988.526.925.525-1.148.526-.632 1.052-3.843.526.363.526-1.031.526-1.922.526 1.29.526 2.612.526 2.015.526.035.526-1.3.525-.07.526.55.526-1.172 1.052-6.139.526-1.593.526-.14.526-2.59.526-1.956.526-1.371 1.052-8.951.525-2.73.526-4.347.526-2.788 1.052-7.252.526-2.695.526-6.245 1.052-9.314.526-5.46.526.329.526-2.484.526-10.533.525-3.28 1.578-17.281.526-2.074 1.052-6.631.526 4.03.526.82.526-10.005.526-12.197.526-3.925.525-4.803.526-5.952.526-18.84.526-11.727.526 8.307.526 17.574.526 3.983.526 1.184.526-4.84.526 2.977.526-5.776.526-11.142.525-5.495.526-7.205.526 2.355.526 3.643.526 2.648.526 7.698.526 4.862.526-5.847.526 3.925.526-.527.526 4.804.526 2.905.526 16.871.525 3.456.526 1.3.526 2.203.526 4.406.526 3.116.526 2.168.526-11.494.526 2.12.526 6.163.526.797.526 2.988.526 1.195.525 2.823.526 5.811.526 7.909.526 1.85.526 4.031.526.164.526 8.6.526 2.226.526 3.034.526-.012.526.95.526-1.63.525.305.526-2.413.526.949.526-2.742.526.715.526 3.222.526 2.015 1.052 5.74.526.434.526 4.804.526-3.515.526-2.519.525-.28.526-1.22.526-1.757.526-.527.526 2.19.526 14.47.526 3.175.526.387.526-2.144.526-3.68.526 1.36.526-6.924.525-11.552 1.052-6.374.526 1.512.526-.434.526-3.632.526 2.238.526-3.503.526-2.706.526 1.042.526.457.526 6.819.526 5.12.525 3.233.526 5.484.526 8.06 1.052 6.76 1.578 5.53.526 1.547.526-1.395.526-.585.526-.879.525 2.097.526 5.612.526 2.402 1.052 10.333.526 2.414.526.082.526 1.171.526.575.526 1.382.526.972.526-1.323.525.984.526 1.335.526 3.28.526 1.594.526 2.086.526 1.148.526 2.226.526.023.526.504.526 1.054.526.317.526 1.054.526 4.757.525 1.546.526.75.526.95.526.608.526 3.527.526 2.519.526-.867.526-.586 1.052.727.526-.364.526.317.525 1.288.526.785.526 1.02h.526l.526 1.101.526 2.039.526.644 1.052-.106.526 3.527.526.656.526-.035.525 2.753.526 1.207.526 1.78.526.891.526-.21.526.644.526 1.16.526-.258.526 2.226 1.052 1.956.526-.105.526.082.525 1.148 1.052 11.74.526-.493.526 1.219 1.052-.691.526-.75.526-4.112.526-6.468.526 1.887.526-.024.525.973.526.597.526.223.526.058.526 1.594.526.398.526-.492.526.539.526-.211.526.832.526-1.687.526-.188.525.246.526 2.226.526 1.008.526.469.526-.118 1.578 4.968.526-1.64.526.445.526.879.526-.036.526 5.964.525 4.265.526-1.688.526 1.442.526-.575.526.27.526.058 1.052-4.65.526 1.241.526.703.526 1.347.526.106.525-.059.526-.28.526-.423.526 1.09.526.457.526 1.57.526-.164.526 1.218 1.052 5.811.526-.714.526.304.525-1.019.526.738.526-.2.526-.655.526-.926.526 2.273.526-2.8 1.052.012.526.586.526.761.526-1.265.526-.375.525 4.487.526 1.172.526-.364.526-.656.526-1.78.526 1.241.526-.187.526-.785.526-.234 1.052.28.526-.362.525.035 1.052 1.91.526.949.526.105.526-.164.526.762.526.328.526-.047.526.07.526 1.09.526-.13.525 1.02.526 1.734.526-.68.526.903.526.351.526-.996.526.317.526-.446.526.492.526 1.781.526-.035.526.41.526 1.254 1.051.316.526-1.289.526.34.526-.328.526.914.526-.024.526.141 1.052-.082.526 1.37.526 1.805 1.051-1.933.526-3.28.526-.504.526.468.526-1.57.526-2.214 1.052-1.406.526 2.578.526-.422 2.103-8.201.526-1.71.526-.997.526-1.347.526-1.968 1.052-6.89 1.052-8.962.526-1.183.526-2.027.525-3.21 1.052-8.014.526-2.156 1.052-3.151.526.082 1.052-8.94.526.973.526-1.933.526-.575.525 1.078.526-.539 1.052 6.21.526-1.676.526-.644.526.281.526-.82.526 1.781.526 1.265.526.48.526.832.525 4.581 1.052 3.644.526 1.02 1.578 19.178.526 1.113.526-.07 1.052.703.526-2.812.526-3.526.525-.504.526 2.753.526 3.55.526 1.137.526.14.526 1.933.526 3.28.526 1.77.526.68.526 1.171.526.223.526 1.148.525-1.043.526.844 1.052 3.491.526 1.172.526-.082.526.375.526 1.51.526.235.526.715.526.14 1.051 1.863.526-1.078 1.052 1.547.526.059.526 1.1 1.052.106.526 1.137.526.597.526.363.526 1.277.526.446.525.785.526.187.526-.012.526.469.526-1.172 1.052 1.254 1.052-.422.526-.105.526-.223.526.246.525-.257.526-1.57.526-.399.526.235.526-.153.526.61.526 2.085.526-.27.526-.117.526.61.526.035.526.398.525-1.242.526-.726.526.152.526.668.526-.668.526-.387.526-.164.526 2.32 1.052 2.93.526-4.312.526 1.101.526-1.031.525.34.526-2.789.526-1.546.526.949.526 4.3.526-.867.526.843.526-.304.526.913.526.082.526-2.46.526 1.148 1.051 1.57.526-.082 1.052-3.76.526-.165 1.052-2.847.526-.421h.526l.526 1.558.526-.469 1.577 5.003.526.422.526-4.663.526-.645.526 2.332 1.052-8.19h1.052l.526 1.933.526-1.019.525 1.64.526-2.378.526.586.526-1.851.526-.621.526 2.12.526-.937.526-4.23.526 3.34.526.21.526-.667.526-.035.525-.305.526.61 1.052-.387.526-.528 1.052.13.526-.235.526-.106 1.578 1.09.525 2.402.526-1.676.526-.128.526.023.526.422.526.047.526.421.526-2.026.526 1.991.526-.258 1.052 1.184.526.047.525.257.526-.093.526-.34.526.363.526-.82.526 3.105.526-2.507.526-.293.526 2.12.526.668.526-1.57.526 1.863.525-2.894.526 3.152.526 1.23h1.052l.526 1.324.526 2.413.526-3.28.526.574.526-.258h1.052l.525-.398.526-2.683.526 4.838.526 1.84.526-1.558h1.052l.526.726.526 2.683.526 1.336h.526l.526-1.067h1.051l.526.914 1.578-3.573.526 4.546h1.052l.526-1.594 1.052 2.566.526-1.956.525-.856h1.052l.526 1.594.526.047.526-1.078.526 2.917.526-.422h1.052l.526-2.929h.526l1.051-2.847.526 1.277h1.052l.526 1.922.526-1.008.526 2.367.526.316.526-.879h1.052l.526 2.004.525 1.007.526-3.268.526 1.242.526-.34h1.052l.526-.55.526-1.594.526.96.526-.644.526 1.219h1.051l.526-1.734.526.867.526 2.308.526.082.526-.762h1.052l.526 1.547.526.726h.526l.526-1.921.525.187h1.052l.526.738h.526l.526-1.265.526 1.652.526-.27h1.578l.526-2.905.526-.106.525.012.526-.328h1.578l.526.293.526 1.37.526-2.46.526-.34h1.052l.526-1.815.525 2.612h.526l.526-1.968.526 1.511h1.052l1.052-4.053.526-3.175.526 2.87.526-1.851h1.051l.526 1.253.526-.89.526 1.054.526.141.526 1.851h.526" clip-path="url(#p481857b49e)" style="fill:none;stroke:#42537f;stroke-width:1.5;stroke-linecap:square"/><path id="line2d_27" d="m49.83 284.4 14.2-.082 3.155-.281.526-.164 1.052-.586 1.578-1.277.526-1.5.526-.925 1.052-3.62.525-1.734.526-2.355.526-1.629 2.63-13.836.526-4.417.526-7.24 1.052-6.269.525-4.663.526-2.437 1.052-6.76 1.052-2.355.526-2.472.526-1.101 1.052-1.078.526 1.792 2.63 12.103.525 1.757.526 2.297.526.726.526 1.102.526.82.526.023.526-.422.526.996.526-.058.525 1.605.526-.024.526 1.312.526.797.526 1.652.526.715.526 1.816.526.785.526 2.027.526 1.417.526 1.781.526 1.336 1.051 3.866.526-.691.526 1.007 1.052 3.328.526-.54.526.13.526.304.526 3.28 1.052.293.525.75.526 2.039.526.14.526.012.526.48.526.235.526.937.526.117.526.399 1.052 2.554.526.398.526 1.113.525.082.526.984.526.516.526 1.007.526.504.526.094.526-.293 1.578 1.183.526-.21.526.023.525.457.526.257.526-.058.526-.281h.526l1.052.75.526-.07.526.105 1.578 1.312.525-.152.526.105 1.052.574.526.035.526.188.526.867.526.375.526.199.526.48.526.024.526.199.526-.059.525-.61.526.048.526.176.526-.153.526.176 1.578-.035.526.21.526.036.526.164 1.051-.082.526.152.526.024 1.052-.082.526-.082 1.052.07 1.052.07 1.577.293.526-.023 1.578.175.526.082 2.104-.164.526.07 1.052-.081.525.07.526-.094 1.578.152h1.578l.526-1.698 1.578-.012 1.051.035.526-.07.526 1.816 2.63-.082 4.207-.012.526-.176 3.156-.21.526.117 3.155-.024 1.052-.304 1.578-.188 1.051-.234 1.052.058.526.012.526-.117 1.578-.035 1.052-.13 1.052-.046.525-.14 1.052-.036 1.052-.117 1.052-.422.526-.14.526-.715 1.578-1.03.526-.4.525-.562.526-.984.526-.62.526-.422.526-1.219 1.052-1.488.526-1.546 1.052-1.863.526-1.266.526-1.71 1.051-2.015 1.052-3.269 1.052-5.366 1.578-4.382 1.578-8.271 1.051-2.613.526-2.519 1.578-5.026.526-.2 1.052-3.479.526-.187 1.052-2.906.526.363.525-1.98.526-1.5.526.071.526.246.526-.492.526.797.526.445.526-2.003.526.152.526.281.526-.27 1.051 3.457.526 2.167.526 1.242.526.621.526.152.526.938.526.433 1.052-4.604.526 2.39 1.052 2.144.525 1.546.526.89.526 2.555.526 1.488 1.052 4.604.526 3.421.526.55 1.578-.972.526-.585.526-.036.525-1.206.526-.492.526 1.136.526.117.526.317.526 1.652.526-1.852.526-1.394.526-.164.526-1.171 1.052.867.525-1.266.526 1.676.526.093.526-.187.526.832.526.152.526-.2 1.052.071.526-.152.526.914.526-.504 1.051 1.394.526.34.526-.059 1.052 1.512.526 1.066.526.492.526-.106.526.832.526 1.172.526.422.526-.387.525.258.526.902.526 1.64.526.352 2.63 3.737.526-.387.526.516.526-.375.525.703 1.052-.316.526-.235 1.052 1.055.526 1.113.526-.34 1.052.797.526.152 1.051-.703.526-.515.526-.317.526-.176.526-.843.526-.387.526.176.526-.398.526-.973.526-.117.526-.668.526-.421 1.051-2.637.526-.585.526-.07.526-.985 2.63-2.144.526-.832.526.246.526.036.525-.364.526.258.526-.082.526-.48.526-.281.526.046.526-.34 1.052 2.684.526-1.875.526.164.526-2.777.525.375.526-.058 1.052-1.371.526 1.851.526 1.254.526 3.386.526.398.526.937.526.492 1.052 2.238.526.234.525 1.02.526-.141.526.398 1.578.61 1.052 1.769.526 1.124.526.856.526.527 1.051 1.699.526.351.526.656 1.052.082 1.052 1.313.526.058.526.668.526.293.526 1.03 1.051 1.22.526.585.526 1.324.526.433.526-.421.526.129 1.052.597 1.052.738.526-.082.526 1.078.526.492 1.051.656 1.052 1.547.526 1.312.526.62.526.305.526-.082.526.2 1.052-.282.526-.34 1.051.106 1.052.633.526.457.526.293.526.597 1.052.68 1.052.28 1.052.634.525.316 1.052-.387.526.035 2.104-.27 1.052.54 1.052-.012 1.051.328 3.156.563.526-.106.526.047.526.164 1.051.035 1.578.211 1.052-.14.526.093.526-.047 1.052-.34.526.07 7.888-.772 1.052-.387 1.578-.387.526-.445.526-.293 1.578-.222.526-.235.525-.07 1.578.305 1.578-.375 2.104-.668.526-.024.526-.14 3.155.035 1.052.363 1.052-.058 1.052-.141 1.051.164.526-.094 2.63.352.526-.211 1.578.058.525.141h.526l.526.293 1.578.398.526.282.526.117.526.257.526-.246 1.578.118 1.051.035.526-.14.526.374.526.035.526-.117.526-.246 1.578.129.526-.293h.526l1.051.422 1.052-.363 1.052.093.526-.023 1.052.199 1.578-.469 1.051.07.526-.14.526-.316.526.035 1.052-.293.526-.258 2.63-.492.525.234.526.047.526-.117.526-.304 2.104-.317.526-.48 1.578-.024.525-.21.526-.012.526-.27.526.176.526.047.526-.316.526-.118.526.2.526-.082.526-.516 1.052-.515.525-.07.526-.247 1.052-1.019.526-.023 1.052-.68 1.052-.843.526-.2.526-.527 1.052-.492.525.188.526-.06.526-.573 1.052.258.526-.164.526.386.526-.609.526.023.526-.667.526-1.113.526-.493 1.051-1.651.526-.282.526-1.019.526-.41.526-.96 2.104-5.507.526-.703.526-1.64 1.051-1.594.526-.152.526-.293.526.246.526-.761.526-.399.526-.55 1.052-.106.526-.515.526-.094.526.035 1.051.855.526-.293.526-.644 1.052.094.526.27 1.052.269 1.052 2.202.526 1.242 1.577 1.289.526 1.242.526.058 1.052.434.526.586 1.052 1.71.526.305.526.832.525 1.417.526.492 1.052-.105.526 1.043.526.445.526.75.526-.2 1.052.89.526.903 2.63 2.929.525.223 1.052.058.526.223.526.094.526-.106.526.562.526-.082.526.118 1.051-.387.526-.633.526.223.526-.387.526.13 1.052.515.526-.2.526.27 1.052-.223 1.051-.773.526-.2 1.052.352 1.052.317.526.328.526.117.526.293 1.052-.059.526.13.525-.247.526.059 1.052.914.526-.586.526-.2.526-.808.526-.117.526.07 1.052-.386.526.222.525.41.526.809.526.152 1.052-.668.526-.082.526.399.526-.082 1.052.292 1.052.856.525-.059.526.434 1.052.21.526.258.526.117.526-.21.526.117.526-.246 1.052.562h.526l1.051.586.526.62.526-.01.526.163.526-.34.526.293.526.082.526.211.526.34.526.914.526.175.526.914.525.223 1.052-.094.526-.047.526-.246 1.052-.199.526-.152.526.012.526.34.526-.036.526.375 1.051.363 1.052.27.526-.211.526.129 1.052-.153.526-.117.526.059.526-.305 1.577-.246.526.188 1.578-.668.526.047.526-.293.526-.14 1.578-1.149.526.152 1.051-1.534.526-.399.526-.129 1.578-.96.526.175.526-.222 1.052-1.207.526-.246 1.051-.035.526.094.526-.903 1.052-1.077.526-1.043 1.052-.129.526-.2.526.739 1.052.867.525.808.526-.433 1.578.351 2.104 1.277.526-.047.526.832.526 1.254.525.2.526-.2.526.328.526.48.526.176.526-.387.526-.75.526.188.526.738.526.293.526.094 2.63 1.3.525.094.526.375 1.052.363.526.211.526.387.526-.246.526.374 1.051-.035.526.422 1.052-.293.526.34 1.052.281.526.024.526-.317 1.052.656 1.051-.058.526-.059.526.223 1.578-.082.526.351 1.052.188 1.578-.211.525.058 1.578-.843.526-.246.526-.047 1.578-.656.526-.422.526-.152.526.105 1.051-.878 1.052-.352.526.082 1.052-.457.526.633 2.104-.27.526.188 1.051 1.066 1.052 2.495.526 1.102.526-2.93.526.891h2.63l.525-2.507h3.156l.526.187h3.155l.526-.55h3.156l.526-.645h3.155l.526-.597h3.156l.526-.387h3.155l.526-.925h.526" clip-path="url(#p481857b49e)" style="fill:none;stroke:#1007e1;stroke-width:1.5;stroke-linecap:square"/><g id="text_16" style="fill:#7516fd" transform="matrix(.14 0 0 -.14 624.57 243.68)"><defs><path id="DejaVuSans-55" d="M556 4666h635V1831q0-750 271-1080 272-329 882-329 606 0 878 329 272 330 272 1080v2835h634V1753q0-912-452-1378Q3225-91 2344-91q-885 0-1337 466-451 466-451 1378v2913z" transform="scale(.01563)"/><path id="DejaVuSans-53" d="M3425 4513v-616q-359 172-678 256-319 85-616 85-515 0-795-200t-280-569q0-310 186-468 186-157 705-254l381-78q706-135 1042-474t336-907q0-679-455-1029Q2797-91 1919-91q-331 0-705 75-373 75-773 222v650q384-215 753-325 369-109 725-109 540 0 834 212 294 213 294 607 0 343-211 537t-692 291l-385 75q-706 140-1022 440-315 300-315 835 0 619 436 975t1201 356q329 0 669-60 341-59 697-177z" transform="scale(.01563)"/></defs><use xlink:href="#DejaVuSans-55"/><use xlink:href="#DejaVuSans-53" x="73.193"/></g><g id="text_17" style="fill:#53a577" transform="matrix(.14 0 0 -.14 624.57 257.68)"><defs><path id="DejaVuSans-4a" d="M628 4666h631V325q0-844-320-1225T-91-1281h-240v531h197q418 0 590 235 172 234 172 840v4341z" transform="scale(.01563)"/><path id="DejaVuSans-61" d="M2194 1759q-697 0-966-159t-269-544q0-306 202-486 202-179 548-179 479 0 768 339t289 901v128h-572zm1147 238V0h-575v531q-197-318-491-470T1556-91q-537 0-855 302-317 302-317 808 0 590 395 890 396 300 1180 300h807v57q0 397-261 614t-733 217q-300 0-585-72-284-72-546-216v532q315 122 612 182 297 61 578 61 760 0 1135-394 375-393 375-1193z" transform="scale(.01563)"/><path id="DejaVuSans-70" d="M1159 525v-1856H581v4831h578v-531q182 312 458 463 277 152 661 152 638 0 1036-506 399-506 399-1331T3314 415Q2916-91 2278-91q-384 0-661 152-276 152-458 464zm1957 1222q0 634-261 995t-717 361q-457 0-718-361t-261-995q0-634 261-995t718-361q456 0 717 361t261 995z" transform="scale(.01563)"/><path id="DejaVuSans-6e" d="M3513 2113V0h-575v2094q0 497-194 743-194 247-581 247-466 0-735-297-269-296-269-809V0H581v3500h578v-544q207 316 486 472 280 156 646 156 603 0 912-373 310-373 310-1098z" transform="scale(.01563)"/></defs><use xlink:href="#DejaVuSans-4a"/><use xlink:href="#DejaVuSans-61" x="29.492"/><use xlink:href="#DejaVuSans-70" x="90.771"/><use xlink:href="#DejaVuSans-61" x="154.248"/><use xlink:href="#DejaVuSans-6e" x="215.527"/></g><g id="text_18" style="fill:#d8b009" transform="matrix(.14 0 0 -.14 624.57 271.68)"><defs><path id="DejaVuSans-47" d="M3809 666v1253H2778v519h1656V434q-365-259-806-392-440-133-940-133-1094 0-1712 639-617 640-617 1780 0 1144 617 1783 618 639 1712 639 456 0 867-113 411-112 758-331v-672q-350 297-744 447t-828 150q-857 0-1287-478-429-478-429-1425 0-944 429-1422 430-478 1287-478 334 0 596 58 263 58 472 180z" transform="scale(.01563)"/><path id="DejaVuSans-65" d="M3597 1894v-281H953q38-594 358-905t892-311q331 0 642 81t618 244V178Q3153 47 2828-22t-659-69q-838 0-1327 487-489 488-489 1320 0 859 464 1363 464 505 1252 505 706 0 1117-455 411-454 411-1235zm-575 169q-6 471-264 752-258 282-683 282-481 0-770-272t-333-766l2050 4z" transform="scale(.01563)"/><path id="DejaVuSans-72" d="M2631 2963q-97 56-211 82-114 27-251 27-488 0-749-317t-261-911V0H581v3500h578v-544q182 319 472 473 291 155 707 155 59 0 131-8 72-7 159-23l3-590z" transform="scale(.01563)"/><path id="DejaVuSans-6d" d="M3328 2828q216 388 516 572t706 184q547 0 844-383 297-382 297-1088V0h-578v2094q0 503-179 746-178 244-543 244-447 0-707-297-259-296-259-809V0h-578v2094q0 506-178 748t-550 242q-441 0-701-298-259-298-259-808V0H581v3500h578v-544q197 322 472 475t653 153q382 0 649-194 267-193 395-562z" transform="scale(.01563)"/><path id="DejaVuSans-79" d="M2059-325q-243-625-475-815-231-191-618-191H506v481h338q237 0 368 113 132 112 291 531l103 262L191 3500h609L1894 763l1094 2737h609L2059-325z" transform="scale(.01563)"/></defs><use xlink:href="#DejaVuSans-47"/><use xlink:href="#DejaVuSans-65" x="77.49"/><use xlink:href="#DejaVuSans-72" x="139.014"/><use xlink:href="#DejaVuSans-6d" x="178.377"/><use xlink:href="#DejaVuSans-61" x="275.789"/><use xlink:href="#DejaVuSans-6e" x="337.068"/><use xlink:href="#DejaVuSans-79" x="400.447"/></g><g id="text_19" style="fill:#42537f" transform="matrix(.14 0 0 -.14 624.57 285.68)"><defs><path id="DejaVuSans-42" d="M1259 2228V519h1013q509 0 754 211 246 211 246 645 0 438-246 645-245 208-754 208H1259zm0 1919V2741h935q462 0 688 173 227 174 227 530 0 353-227 528-226 175-688 175h-935zm-631 519h1613q722 0 1112-300 391-300 391-853 0-429-200-682t-588-315q466-100 724-418 258-317 258-792 0-625-425-966Q3088 0 2303 0H628v4666z" transform="scale(.01563)"/><path id="DejaVuSans-7a" d="M353 3500h2731v-525L922 459h2162V0H275v525l2163 2516H353v459z" transform="scale(.01563)"/><path id="DejaVuSans-69" d="M603 3500h575V0H603v3500zm0 1363h575v-729H603v729z" transform="scale(.01563)"/><path id="DejaVuSans-6c" d="M603 4863h575V0H603v4863z" transform="scale(.01563)"/></defs><use xlink:href="#DejaVuSans-42"/><use xlink:href="#DejaVuSans-72" x="68.604"/><use xlink:href="#DejaVuSans-61" x="109.717"/><use xlink:href="#DejaVuSans-7a" x="170.996"/><use xlink:href="#DejaVuSans-69" x="223.486"/><use xlink:href="#DejaVuSans-6c" x="251.27"/></g><g id="text_20" style="fill:#1007e1" transform="matrix(.14 0 0 -.14 624.57 299.68)"><defs><path id="DejaVuSans-49" d="M628 4666h631V0H628v4666z" transform="scale(.01563)"/><path id="DejaVuSans-74" d="M1172 4494v-994h1184v-447H1172V1153q0-428 117-550t477-122h590V0h-590q-666 0-919 248-253 249-253 905v1900H172v447h422v994h578z" transform="scale(.01563)"/></defs><use xlink:href="#DejaVuSans-49"/><use xlink:href="#DejaVuSans-74" x="29.492"/><use xlink:href="#DejaVuSans-61" x="68.701"/><use xlink:href="#DejaVuSans-6c" x="129.98"/><use xlink:href="#DejaVuSans-79" x="157.764"/></g></g></g><defs><clipPath id="p481857b49e"><path d="M49.83 7.2h558v277.2h-558z"/></clipPath></defs></svg>