<svg xmlns:xlink="http://www.w3.org/1999/xlink" width="902.394" height="418.944" viewBox="0 0 676.795 314.208" xmlns="http://www.w3.org/2000/svg"><defs><style>*{stroke-linejoin:round;stroke-linecap:butt}</style></defs><g id="figure_1"><path d="M0 314.208h676.795V0H0v314.208z" style="fill:none" id="patch_1"/><g id="axes_1"><path d="M49.83 284.4h558V7.2h-558v277.2z" style="fill:none" id="patch_2"/><g id="matplotlib.axis_1"><g id="xtick_1"><g id="line2d_1"><defs><path id="m6f4eda5e95" d="M0 0v3.5" style="stroke:#b0b0b0;stroke-width:.4"/></defs><use xlink:href="#m6f4eda5e95" x="91.844" y="284.4" style="fill:#b0b0b0;stroke:#b0b0b0;stroke-width:.4"/></g><g style="fill:#b0b0b0" transform="matrix(.14 0 0 -.14 62.596 302.038)" id="text_1"><defs><path id="DejaVuSans-32" d="M1228 531h2203V0H469v531q359 372 979 998 621 627 780 809 303 340 423 576 121 236 121 464 0 372-261 606-261 235-680 235-297 0-627-103-329-103-704-313v638q381 153 712 231 332 78 607 78 725 0 1156-363 431-362 431-968 0-288-108-546-107-257-392-607-78-91-497-524-418-433-1181-1211z" transform="scale(.01563)"/><path id="DejaVuSans-30" d="M2034 4250q-487 0-733-480-245-479-245-1442 0-959 245-1439 246-480 733-480 491 0 736 480 246 480 246 1439 0 963-246 1442-245 480-736 480zm0 500q785 0 1199-621 414-620 414-1801 0-1178-414-1799Q2819-91 2034-91q-784 0-1198 620-414 621-414 1799 0 1181 414 1801 414 621 1198 621z" transform="scale(.01563)"/><path id="DejaVuSans-2d" d="M313 2009h1684v-512H313v512z" transform="scale(.01563)"/><path id="DejaVuSans-34" d="M2419 4116 825 1625h1594v2491zm-166 550h794V1625h666v-525h-666V0h-628v1100H313v609l1940 2957z" transform="scale(.01563)"/></defs><use xlink:href="#DejaVuSans-32"/><use xlink:href="#DejaVuSans-30" x="63.623"/><use xlink:href="#DejaVuSans-32" x="127.246"/><use xlink:href="#DejaVuSans-30" x="190.869"/><use xlink:href="#DejaVuSans-2d" x="254.492"/><use xlink:href="#DejaVuSans-30" x="290.576"/><use xlink:href="#DejaVuSans-34" x="354.199"/></g></g><g id="xtick_2"><use xlink:href="#m6f4eda5e95" x="151.583" y="284.4" style="fill:#b0b0b0;stroke:#b0b0b0;stroke-width:.4" id="line2d_2"/><g style="fill:#b0b0b0" transform="matrix(.14 0 0 -.14 122.335 302.038)" id="text_2"><defs><path id="DejaVuSans-37" d="M525 4666h3000v-269L1831 0h-659l1594 4134H525v532z" transform="scale(.01563)"/></defs><use xlink:href="#DejaVuSans-32"/><use xlink:href="#DejaVuSans-30" x="63.623"/><use xlink:href="#DejaVuSans-32" x="127.246"/><use xlink:href="#DejaVuSans-30" x="190.869"/><use xlink:href="#DejaVuSans-2d" x="254.492"/><use xlink:href="#DejaVuSans-30" x="290.576"/><use xlink:href="#DejaVuSans-37" x="354.199"/></g></g><g id="xtick_3"><use xlink:href="#m6f4eda5e95" x="211.978" y="284.4" style="fill:#b0b0b0;stroke:#b0b0b0;stroke-width:.4" id="line2d_3"/><g style="fill:#b0b0b0" transform="matrix(.14 0 0 -.14 182.73 302.038)" id="text_3"><defs><path id="DejaVuSans-31" d="M794 531h1031v3560L703 3866v575l1116 225h631V531h1031V0H794v531z" transform="scale(.01563)"/></defs><use xlink:href="#DejaVuSans-32"/><use xlink:href="#DejaVuSans-30" x="63.623"/><use xlink:href="#DejaVuSans-32" x="127.246"/><use xlink:href="#DejaVuSans-30" x="190.869"/><use xlink:href="#DejaVuSans-2d" x="254.492"/><use xlink:href="#DejaVuSans-31" x="290.576"/><use xlink:href="#DejaVuSans-30" x="354.199"/></g></g><g id="xtick_4"><use xlink:href="#m6f4eda5e95" x="272.374" y="284.4" style="fill:#b0b0b0;stroke:#b0b0b0;stroke-width:.4" id="line2d_4"/><g style="fill:#b0b0b0" transform="matrix(.14 0 0 -.14 243.126 302.038)" id="text_4"><use xlink:href="#DejaVuSans-32"/><use xlink:href="#DejaVuSans-30" x="63.623"/><use xlink:href="#DejaVuSans-32" x="127.246"/><use xlink:href="#DejaVuSans-31" x="190.869"/><use xlink:href="#DejaVuSans-2d" x="254.492"/><use xlink:href="#DejaVuSans-30" x="290.576"/><use xlink:href="#DejaVuSans-31" x="354.199"/></g></g><g id="xtick_5"><use xlink:href="#m6f4eda5e95" x="331.456" y="284.4" style="fill:#b0b0b0;stroke:#b0b0b0;stroke-width:.4" id="line2d_5"/><g style="fill:#b0b0b0" transform="matrix(.14 0 0 -.14 302.208 302.038)" id="text_5"><use xlink:href="#DejaVuSans-32"/><use xlink:href="#DejaVuSans-30" x="63.623"/><use xlink:href="#DejaVuSans-32" x="127.246"/><use xlink:href="#DejaVuSans-31" x="190.869"/><use xlink:href="#DejaVuSans-2d" x="254.492"/><use xlink:href="#DejaVuSans-30" x="290.576"/><use xlink:href="#DejaVuSans-34" x="354.199"/></g></g><g id="xtick_6"><use xlink:href="#m6f4eda5e95" x="391.195" y="284.4" style="fill:#b0b0b0;stroke:#b0b0b0;stroke-width:.4" id="line2d_6"/><g style="fill:#b0b0b0" transform="matrix(.14 0 0 -.14 361.947 302.038)" id="text_6"><use xlink:href="#DejaVuSans-32"/><use xlink:href="#DejaVuSans-30" x="63.623"/><use xlink:href="#DejaVuSans-32" x="127.246"/><use xlink:href="#DejaVuSans-31" x="190.869"/><use xlink:href="#DejaVuSans-2d" x="254.492"/><use xlink:href="#DejaVuSans-30" x="290.576"/><use xlink:href="#DejaVuSans-37" x="354.199"/></g></g><g id="xtick_7"><use xlink:href="#m6f4eda5e95" x="451.59" y="284.4" style="fill:#b0b0b0;stroke:#b0b0b0;stroke-width:.4" id="line2d_7"/><g style="fill:#b0b0b0" transform="matrix(.14 0 0 -.14 422.342 302.038)" id="text_7"><use xlink:href="#DejaVuSans-32"/><use xlink:href="#DejaVuSans-30" x="63.623"/><use xlink:href="#DejaVuSans-32" x="127.246"/><use xlink:href="#DejaVuSans-31" x="190.869"/><use xlink:href="#DejaVuSans-2d" x="254.492"/><use xlink:href="#DejaVuSans-31" x="290.576"/><use xlink:href="#DejaVuSans-30" x="354.199"/></g></g><g id="xtick_8"><use xlink:href="#m6f4eda5e95" x="511.985" y="284.4" style="fill:#b0b0b0;stroke:#b0b0b0;stroke-width:.4" id="line2d_8"/><g style="fill:#b0b0b0" transform="matrix(.14 0 0 -.14 482.737 302.038)" id="text_8"><use xlink:href="#DejaVuSans-32"/><use xlink:href="#DejaVuSans-30" x="63.623"/><use xlink:href="#DejaVuSans-32" x="127.246"/><use xlink:href="#DejaVuSans-32" x="190.869"/><use xlink:href="#DejaVuSans-2d" x="254.492"/><use xlink:href="#DejaVuSans-30" x="290.576"/><use xlink:href="#DejaVuSans-31" x="354.199"/></g></g><g id="xtick_9"><use xlink:href="#m6f4eda5e95" x="571.068" y="284.4" style="fill:#b0b0b0;stroke:#b0b0b0;stroke-width:.4" id="line2d_9"/><g style="fill:#b0b0b0" transform="matrix(.14 0 0 -.14 541.82 302.038)" id="text_9"><use xlink:href="#DejaVuSans-32"/><use xlink:href="#DejaVuSans-30" x="63.623"/><use xlink:href="#DejaVuSans-32" x="127.246"/><use xlink:href="#DejaVuSans-32" x="190.869"/><use xlink:href="#DejaVuSans-2d" x="254.492"/><use xlink:href="#DejaVuSans-30" x="290.576"/><use xlink:href="#DejaVuSans-34" x="354.199"/></g></g></g><g id="matplotlib.axis_2"><g id="ytick_1"><path d="M49.83 284.4h558" clip-path="url(#p57a92ab1e7)" style="fill:none;stroke:#b0b0b0;stroke-width:.3;stroke-linecap:square" id="line2d_10"/><g id="line2d_11"><defs><path id="m3fe5a0c69f" d="M0 0h-3.5" style="stroke:#b0b0b0;stroke-width:.3"/></defs><use xlink:href="#m3fe5a0c69f" x="49.83" y="284.4" style="fill:#b0b0b0;stroke:#b0b0b0;stroke-width:.3"/></g><use xlink:href="#DejaVuSans-30" style="fill:#b0b0b0" transform="matrix(.14 0 0 -.14 33.922 289.719)" id="text_10"/></g><g id="ytick_2"><path d="M49.83 243.556h558" clip-path="url(#p57a92ab1e7)" style="fill:none;stroke:#b0b0b0;stroke-width:.3;stroke-linecap:square" id="line2d_12"/><use xlink:href="#m3fe5a0c69f" x="49.83" y="243.556" style="fill:#b0b0b0;stroke:#b0b0b0;stroke-width:.3" id="line2d_13"/><g style="fill:#b0b0b0" transform="matrix(.14 0 0 -.14 16.108 248.875)" id="text_11"><defs><path id="DejaVuSans-35" d="M691 4666h2478v-532H1269V2991q137 47 274 70 138 23 276 23 781 0 1237-428 457-428 457-1159 0-753-469-1171Q2575-91 1722-91q-294 0-599 50Q819 9 494 109v635q281-153 581-228t634-75q541 0 856 284 316 284 316 772 0 487-316 771-315 285-856 285-253 0-505-56-251-56-513-175v2344z" transform="scale(.01563)"/></defs><use xlink:href="#DejaVuSans-35"/><use xlink:href="#DejaVuSans-30" x="63.623"/><use xlink:href="#DejaVuSans-30" x="127.246"/></g></g><g id="ytick_3"><path d="M49.83 202.713h558" clip-path="url(#p57a92ab1e7)" style="fill:none;stroke:#b0b0b0;stroke-width:.3;stroke-linecap:square" id="line2d_14"/><use xlink:href="#m3fe5a0c69f" x="49.83" y="202.713" style="fill:#b0b0b0;stroke:#b0b0b0;stroke-width:.3" id="line2d_15"/><g style="fill:#b0b0b0" transform="matrix(.14 0 0 -.14 7.2 208.032)" id="text_12"><use xlink:href="#DejaVuSans-31"/><use xlink:href="#DejaVuSans-30" x="63.623"/><use xlink:href="#DejaVuSans-30" x="127.246"/><use xlink:href="#DejaVuSans-30" x="190.869"/></g></g><g id="ytick_4"><path d="M49.83 161.87h558" clip-path="url(#p57a92ab1e7)" style="fill:none;stroke:#b0b0b0;stroke-width:.3;stroke-linecap:square" id="line2d_16"/><use xlink:href="#m3fe5a0c69f" x="49.83" y="161.869" style="fill:#b0b0b0;stroke:#b0b0b0;stroke-width:.3" id="line2d_17"/><g style="fill:#b0b0b0" transform="matrix(.14 0 0 -.14 7.2 167.188)" id="text_13"><use xlink:href="#DejaVuSans-31"/><use xlink:href="#DejaVuSans-35" x="63.623"/><use xlink:href="#DejaVuSans-30" x="127.246"/><use xlink:href="#DejaVuSans-30" x="190.869"/></g></g><g id="ytick_5"><path d="M49.83 121.025h558" clip-path="url(#p57a92ab1e7)" style="fill:none;stroke:#b0b0b0;stroke-width:.3;stroke-linecap:square" id="line2d_18"/><use xlink:href="#m3fe5a0c69f" x="49.83" y="121.025" style="fill:#b0b0b0;stroke:#b0b0b0;stroke-width:.3" id="line2d_19"/><g style="fill:#b0b0b0" transform="matrix(.14 0 0 -.14 7.2 126.344)" id="text_14"><use xlink:href="#DejaVuSans-32"/><use xlink:href="#DejaVuSans-30" x="63.623"/><use xlink:href="#DejaVuSans-30" x="127.246"/><use xlink:href="#DejaVuSans-30" x="190.869"/></g></g><g id="ytick_6"><path d="M49.83 80.182h558" clip-path="url(#p57a92ab1e7)" style="fill:none;stroke:#b0b0b0;stroke-width:.3;stroke-linecap:square" id="line2d_20"/><use xlink:href="#m3fe5a0c69f" x="49.83" y="80.182" style="fill:#b0b0b0;stroke:#b0b0b0;stroke-width:.3" id="line2d_21"/><g style="fill:#b0b0b0" transform="matrix(.14 0 0 -.14 7.2 85.5)" id="text_15"><use xlink:href="#DejaVuSans-32"/><use xlink:href="#DejaVuSans-35" x="63.623"/><use xlink:href="#DejaVuSans-30" x="127.246"/><use xlink:href="#DejaVuSans-30" x="190.869"/></g></g><g id="ytick_7"><path d="M49.83 39.338h558" clip-path="url(#p57a92ab1e7)" style="fill:none;stroke:#b0b0b0;stroke-width:.3;stroke-linecap:square" id="line2d_22"/><use xlink:href="#m3fe5a0c69f" x="49.83" y="39.338" style="fill:#b0b0b0;stroke:#b0b0b0;stroke-width:.3" id="line2d_23"/><g style="fill:#b0b0b0" transform="matrix(.14 0 0 -.14 7.2 44.657)" id="text_16"><defs><path id="DejaVuSans-33" d="M2597 2516q453-97 707-404 255-306 255-756 0-690-475-1069Q2609-91 1734-91q-293 0-604 58T488 141v609q262-153 574-231 313-78 654-78 593 0 904 234t311 681q0 413-289 645-289 233-804 233h-544v519h569q465 0 712 186t247 536q0 359-255 551-254 193-729 193-260 0-557-57-297-56-653-174v562q360 100 674 150t592 50q719 0 1137-327 419-326 419-882 0-388-222-655t-631-370z" transform="scale(.01563)"/></defs><use xlink:href="#DejaVuSans-33"/><use xlink:href="#DejaVuSans-30" x="63.623"/><use xlink:href="#DejaVuSans-30" x="127.246"/><use xlink:href="#DejaVuSans-30" x="190.869"/></g></g></g><path d="m49.83 284.4 22.976-.082 3.283-.151 1.313-.012 1.313-.117 1.97-.21 1.312-.665 1.313-1.365 1.97-3.618.656-1.867.656-2.404.657-3.186.656-4.026.657-4.854.656-7.119.657-4.983.656-6.068 1.313-20.48.657-13 1.313-20.865 1.312-24.46.657-17.47.656-10.479 1.97-23.14 1.313-6.022.656 1.202.657-5.228.656.362.657 1.073.656 2.218.657-1.062.656-3.034.657-.105.656 1.528.656-2.695.657-.864.656 2.474.657 6.698.656 8.928.657 2.777.656.875 1.313 5.648.657-.105.656 2.37.657 1.423.656.268.657.817.656 3.221.657 1.599.656 3.232.656 2.37.657 3.768 1.313 14.226.656 1.657.657 1.237.656 3.139.657 1.984.656-2.16.657 1.681.656 2.708.657 6.826.656 5.38.657 1.435.656 2.206.657 7.27.656 9.196.656.28 1.97 3.594.656.233.657-2.065.656-3.781.657 5.461.656.98.657 2.766.656 3.665.657 1.925.656 3.058.657.735.656 1.622.657 2.194.656.676.656-.956 1.313 2.567 1.313 2.987.657 1.354 1.313 4.003 1.97 1.132.656-.082.656 1.774.657.046.656.794.657-.082.656.094.656 2.17.657.642.656-2.217.657-.549.656 2.276 1.313.035.657-6.874.656-1.645.657-3.466.656-1.645.657-5.24.656-1.774.657-.758.656 2.859.657-1.424.656.805.656-1.19.657-1.587.656-.058.657-1.132.656-2.218.657-3.057.656-1.435.657-2.008.656-.98.657-.677.656-6.745.657-1.505 1.313-4.936.656-1.086.657-1.727.656.876.656 6.395.657-.479.656.362.657 1.307.656-1.284.657.385.656-1.295.657.467.656 2.019.657-1.144.656 1.669.657-.164.656.514.657-.467.656.583.657-1.692.656 9.651.656-.7.657 2.486.656.933.657 1.284.656.537.657.128.656-5.531.657-.094.656 1.984.657-.012.656.724.657-.654.656 1.798 1.313 2.228.657-.28.656 1.868.656.058.657 1.902.656 7.025.657-.583.656 1.33.657-2.24.656.735.657.501.656-1.178.657-8.53.656 1.936.657.7.656 2.171.657.91.656 1.506.657.128.656 1.996.656-1.296.657-.478.656.548.657-1.19.656-.443.657.875 1.313 3.174.656-.07.657.875.656 1.109.657-.794.656-1.587.657 2.322.656.047.657-.922.656-1.54.656.163.657-1.038.656.91 1.313-1.89.657 1.715.656.467.657-1.518.656.012.657-1.038 1.313-3.851.656-.105.657-.257.656-1.996.657.152.656-.385.656-.817.657 1.739.656-1.762.657-1.272.656.408 1.313-1.027.657-6.908.656-1.167 1.97-5.928.656-.724.657-2.357.656 2.159.657-3.664.656-.467.656.116 1.313-5.45.657-.711.656-3.466.657-5.718 1.313-18.321 1.97-9.453.656-5.018.656-3.71.657 7.281.656 4.54.657 3.337.656.21.656-2.882.657-4.855.656-6.803.657-18.041 1.313-24.46.656-4.154.657-2.93.656-.244.657-4.096.656-.339.657-8.915.656-1.46.657-3.092.656-1.073.657-4.738 1.312-12.008.657 5.111.656-3.454.657-.607.656-1.657.657-3.746.656 4.015.657 6.138.656 16.536.657 10.479.656 3.174.657-.863.656-3.711.657-5.929.656-4.306 1.313-15.917.656.07.657-1.295.656.198.657-.268.656-8.53.657-22.477 1.313-15.847.656 1.692.657-9.067.656-1.167.657 2.812.656 4.073.657-3.77.656 1.156.657 3.15.656 23.107.656-4.645.657-3.84.656.48.657.314.656 1.716.657-2.334.656-18.426 1.313 7.188.657 2.392.656 7.726.657-1.214.656-.047.657 5.193.656 2.544.657-.91.656-1.167.656 1.622.657 5.602.656 3.839 1.313 11.494 1.313 18.193.657 5.415.656 3.63.657 5.857.656 16.396.657 11.32.656 6.873 1.313 7.866.657-.63.656-3.023.656-7.457.657-9.487.656 1.902 1.313 9.195.657 1.424.656-1.33.657 4.143.656 8.11 1.313 10.56h.657l.656 4.529.657 7.083.656 1.774.657 11.518.656 4.341.656 3.57.657 6.29.656 2.183.657.047.656 5.928.657 4.05.656-.946.657 4.586.656 2.37.657-2.312.656 1.798.657 3.64.656-3.127.657 3.35.656-1.506.657-.409.656 3.175.656-.91.657.594.656 4.587 1.313 5.998.657.618.656 1.517.657 1.96.656.771.657-17.901.656 1.12.657-.268.656-.024 1.313.444.657-.432.656 19.523.656 1.156 1.313 1.097.657-.712.656-.514.657.269.656.525.657-.327.656 1.319.657-.642.656.548.657.14.656 2.008.657-1.109.656.607.657-.607.656.152.656-.222.657-.012.656-2.45.657 1.902.656 1.027.657.548.656 1.319.657.758.656 1.016.657 2.275 1.313.759.656 1.517.657 1.225 1.313-.198.656-1.074.656 1.412.657.91.656.105.657.479.656.863.657-.478.656 1.494.657-3.805.656-7.853.657 1.015.656 1.68.657.537.656 3.058.657.198.656 5.018.657 8.414.656.116.656-2.8.657-.175.656-1.68.657 3.652.656.91.657 2.58.656-.141.657 3.594.656.677.657 1.54.656-.105 1.313 2.58.657-.852.656 1.155.657.373.656-.875 1.313-.408.656-.537.657.968.656.234.657-.012.656 1.319.657.198.656 1.109.657.688.656 1.05.657.747 1.97 1.097.656-.245.656.432.656-.373.657.07.656-.922.657-1.33.656-.677.657-.059.656-1.213 1.313.256 1.313.829.657.828.656-.385.657.736.656-1.214.657-.584.656-.14.656-.793.657-1.832.656-.129.657-.373.656-3.781.657-.478.656-1.436.657-1.015.656-1.54 1.313-4.237.657-2.964.656-1.015.657 1.132.656-2.065 1.313-5.94.656-5.94.657.98.656-.128.657-.946.656-5.881.657-2.124.656-4.773.657-8.81.656-4.82.657-3.384.656-.058.657-3.536 1.97-13.607.656-3.186.656-.98.656-1.202.657-4.446.656-.129.657-5.788.656-9.265.657-2.323.656-.14.657-1.19.656 12.662.657-7.586 1.313-5.566.656-6.127.657-2.065.656.525.657-17.971.656 2.1.656-5.228.657-2.894.656.152.657-1.809.656-.245.657-1.657.656-6.395.657.654.656 2.007.657-.315.656 1.703.657-2.1.656.49.657-.677.656.794.657 5.706.656 3.804.656.117.657.502.656 3.98.657 7.41.656-.42 1.313 7.958.657 4.645.656.606.657 8.66.656-4.937.657-6.337.656 3.595.657.011.656-1.4.657.175.656-6.955.656 3.956.657.268.656 1.996.657-.665.656.07.657 2.38.656 3.536.657 4.365.656 13.105 1.97 5.356.656.28.657 2.299.656 3.57.657 1.063.656 7.433.656-4.68.657-1.061 1.313.595.656-1.832.657 3.267.656 3.84.657-3.898.656-1.132.657.047.656-.549.657 1.167.656.42.657-5.554.656 7.76.657 1.295.656-.222.656.42.657-.49.656-.746.657 10.21.656 16.536.657 1.61.656-.314.657-7.784.656-3.14.657-4.037.656-39.945.657-14.062.656-4.19.657-1.645.656 6.069.657.875.656 2.836.656 27.236.657-2.59.656.84.657.397 1.313.245.656-5.146.657 3.162 1.313-1.12.656.642.657-2.008.656-4.726.657-22.604.656-1.085.657 13.42.656 4.831.656-.583.657-2.51.656-4.247.657 21.46.656-1.225.657-.128.656-1.88.657-.372.656-.56.657.163.656 2.019.657-6.594.656-19.651.657-4.948.656-2.44 1.313-3.909.656-7.34.657-5.38.656-3.99 1.313-3.618.657 11.541.656-2.532.657-7.364.656-4.434.657-7.247.656.093.657.374.656-13.303.657-5.625.656-4.645.657 3.653.656-8.659.656-2.31.657 2.777.656-5.333.657-2.03.656 3.15.657 1.575.656-.046.657 3.279.656.152.657-5.182.656 4.365.657 1.634.656-9.523.657 16.43.656.818.657-1.33.656-1.6.656 4.739.657 2.859.656 3.99.657 2.463 1.313 3.384.656 26.665.657 4.54.656 1.05.657-.397.656 4.901.657-.921.656 2.508.657-14.4.656 4.621.657 11.682.656 14.622.656 3.92.657 5.194.656.128 1.313 9.51.657.83.656-.794.657 1.027.656.385.657.233 1.313 8.204.656 2.182.657 3.07.656 9.708.657-.256.656 1.225.656-2.416.657 6.08.656 2.276.657 7.55.656 2.217.657 1.564.656.315.657 5.846.656-4.9.657 5.484.656 4.026.657-2.474.656-.128.657.011 1.313 10.666.656.49.656-3.617.657 2.229.656.175.657.397.656 2.917.657-1.202.656 2.077.657 1.447.656 2.1.657 1.074.656.164.657.922.656 2.03.657.642.656 3.046.657-1.132h.656l1.313-.525.656 1.342.657 1.038.656.432.657 1.517.656-.735.657.082.656-.035.657-4.913.656-13.304.657 1.132.656.665.657-.816.656-.012.657.502.656 4.901.656 11.891.657 2.953.656 2.019.657 1.54.656-.117.657.07 1.313-.432 1.313-5.39.656-.864.657.081.656.467.657-.023.656-1.33.657-.48.656-1.796h0" clip-path="url(#p57a92ab1e7)" style="fill:none;stroke:#7516fd;stroke-width:1.5;stroke-linecap:square" id="line2d_24"/><path d="m49.83 284.4 24.946-.058 2.626-.339.656-.21h.657l.656-.887.657-.665.656-1.015.657-.49.656-2.147.657-.829.656-2.404.656-1.575 1.313-6.687.657-5.671.656-3.571.657-8.74 2.626-23.422.656-4.364.657-2.93.656-.98.657-2.835.656-.899.657 1.109.656 1.482.656 2.485.657.514.656 2.054.657 3.57 1.313 5.135.656 1.062.657 1.786.656 4.714.657 1.109.656.56.657-.619.656 5.649.657 2.252.656 1.727.657-1.517.656 2.532.656 1.949.657 3.734.656-3.932.657 1.423.656.794.657 1.505.656-.21.657 2.007.656 4.283.657-2.089.656 1.447.657 1.949.656 1.354.657 2.439.656.641.657-2.672.656 4.411.656.245.657.479.656.105.657.7.656-.047 1.313 1.937.657 1.67.656-.27.657 1.25.656.863.657 1.926.656-6.419.657.63.656-.863.657 13.875h3.938l.657-3.42.656 3.303 4.596.012 5.908.105.656-13.758 1.313-.094 2.626-.082.657 13.666 1.313.035 1.312-.117 1.97-.198 8.534.373 2.626-.012 7.878.035h.656l1.313-.572 1.97.047h1.312l.657-.537.656.245.657.035.656-.291 1.313-.105h.657l.656.513.657-.222.656-1.505.656.117.657-.152 1.97-.058.656-.327.656.933.657-.105.656.117h1.313l.657-.572.656-.07.657.059.656-.175.657-1.973h1.312l1.313-.408.657.093.656-.361.657 1.587 1.97-.035.656-.91.656-2.393.657-1.062.656-.49h1.313l.657-.782.656-.992.656 1.272.657.91.656-.28h1.313l.657-.128.656 2.813.657-2.918.656-1.144 1.97.012.656.467.657-3.046.656 3.548.657.653.656-1.493h1.313l.656-.654.657 2.112.656-1.552.657-.163.656.222h1.313l.657-.257.656-1.61.657.618 1.313-.28h1.313l1.312-1.296 1.97-.443h1.313l.656-1.167.657.338.656-16.979.657-2.275.656-1.26h1.313l.657-1.553.656 2.778.657 10.07.656.14.656.456h1.313l.657.326.656-5.076.657 4.773.656 1.214.657-.234h1.313l.656-.327.657-1.19.656-.21.657-.992.656.397h1.313l1.313 2.404 1.313 2.089.656.933 1.97.082.656 5.158.657-1.167 1.313-1.599 1.97.059.656-4.528.656 2.077 1.313 3.21h1.313l.656.641.657 1.494.656.198.657.642.656 1.739h1.313l.657.42 1.313-1.506.656-.256h1.97l.656.665.656-.374.657 2.883.656-1.132.657-2.322h1.313l.656-1.868.657-.653.656-2.276.657.514.656-.42h1.313l.657-.63.656.046.656-3.139.657-2.369.656-1.925h1.313l.657-3.641.656-2.124.657-.385 1.313-2.614 1.97.058.656-1.61.656-.794.657.969.656-.829h1.313l.656-1.715.657-.49 1.313-1.856.656.63h1.313l1.313 5.17.657 3.571 1.313 3.01h1.313l.656 1.95.656 1.015.657-.607.656.502.657.793h1.313l.656.794.657 2.929.656-.665.657 1.062.656-3.595h1.313l.657 1.973.656-1.156.657 2.474.656 1.517.656 5.415h1.313l1.313 3.29 1.313.153.657 2.018h1.313l.656-5.45.657-.7.656 2.661 1.313-13.408h1.313l.656 5.181.657 1.109.656-1.797 1.313 13.816.657-1.832h.656l.657 1.214.656-.257.657.327.656-.7.657-1.739.656 1.832h.657l.656-1.307.657.327.656-.058.656.186.657.584h1.313l.656.887.657 1.167.656-1.53.657-.07 1.97.048.656-.304.656-1.365.657 2.03.656-.058.657-.479h1.312l.657.817.656.129.657-.922.656-.269.657.817h1.313l.656-.303.657-1.155.656.688.657 1.015 1.313.094h.656l.657.116.656 1.576 1.97 1.412 1.969.023.656-.233.657.14 2.626.023.656.502.657.7.656-.14.657.385.656-1.505 1.313-.012.656.093.657-.501.656.501.657-1.552.656 1.284 1.313.012.657.28.656.128.657-.152.656 1.33.657.21h1.313l.656-.244.656.373 1.97.152h1.313l.656.315 1.313-.315.657.117.656-.175h1.313l.657-.152 1.313.595.656-.233.656.256 1.97.07 1.313.14 1.313-.221 1.97-.07 1.312-.28.657.151.656-.175h1.313l1.313-.583.656-.642 1.313-.408h1.313l.657-1.284.656-.875.657.023 1.313-.84h1.313l1.313.77.656-.257h.656l.657.14 1.97-.07 1.969-1.482.656-.805h1.313l.657-.887.656-.537.657-.221.656-.584 1.313-.082h.656l.657.642.656-.046.657.361.656.035.657-.186h1.313l.656.151 1.313 1.249 1.313 2.1h1.313l.657.35 1.969-.653.656.327h1.313l.657-.175.656.852.657-.14 2.626.011.656.572.657.257.656.735.657.957 1.969-.047.656.059.657-.397.656-.21.657-.059.656-.338h1.313l.657.175.656 1.097.657.175.656-.292.657.234 1.969-.082.656-.245.657.128 1.313.642 1.97.024.656-.362 1.313-.385.656-.187h1.313l.657.63.656-.035 1.313.35.656.222h1.313l.657-.63.656.642 1.313-.409 2.626.14.657-.338.656.338.657.012.656.233h1.313l.656.245 3.94-.338.656-.362.656-.117.657.117 1.313-.327h1.313l.656.619.657-.397.656.327.656-.49.657-.257 1.313-.012.656-1.202.657.234.656-.899.657.42.656.21 1.313.012.657.21.656-.42.657.315.656-.397.657.479h1.312l.657-.409 1.313-.56 1.313.094h1.313l.656-.56.657-.024.656-.817.657.864.656-1.132h1.313l.657-.397.656-1.529.656.269.657-1.307.656-.49h1.313l1.97-1.214.656-.584 1.97-.035.656-.221.657-1.144.656-.642.657-.163.656-.665 1.97-.07.656-.304 1.313-.186.656 2.322h1.313l.657-3.163.656.549.657-.677.656-2.45.657-4.54h1.313l.656-.829.656.596.657-1.891.656.385.657 1.179h1.313l2.626 6.43.656.467h1.313l.657 5.414.656-3.5.657 1.715.656.28.656.863H554l.657-1.878.656 2.193.657.246 1.313 2.719h1.313l.656 1.878.657.047.656 1.552.657.992.656-2.672h1.97l.656-.806h1.313l.656-.606h1.97l.656 6.115h1.313l.657.186h1.97l.656-4.434h1.312l.657-.397h1.97l.656 2.404h1.313l.656 4.166h2.626l.657-7.2h.656l.657-2.182h1.969l.656-3.723.657 7.2h.656l.657-.49h1.97l.656 1.249h1.313l.656.326h1.313l.657-2.964.656 2.474h1.313l.656-1.4h1.313l.657 2.964.656-2.31h1.313l.657 3.745.656-3.617h1.313l.657 2.369h.656l.657-1.844.656-2.754h0" clip-path="url(#p57a92ab1e7)" style="fill:none;stroke:#907eba;stroke-width:1.5;stroke-linecap:square" id="line2d_25"/><path d="m49.83 284.4 17.725-.082 3.939-.28.656-.163 1.313-.584 1.97-1.272.656-1.493.656-.922.657-1.646 2.626-7.655 1.313-5.683.656-2.066 1.313-6.033.656-4.4.657-7.211 1.313-6.243.656-4.645.657-2.427 1.313-6.733 1.313-2.346.656-2.462.657-1.097 1.313-1.074.656 1.786 3.282 12.054.657 1.75.656 2.288.657.724.656 1.097.657.816.656.024.657-.42.656.992.657-.059.656 1.599.657-.023.656 1.307.657.793.656 1.646.656.711.657 1.81.656.781.657 2.019.656 1.412.657 1.774.656 1.33 1.313 3.851.657-.689.656 1.004 1.313 3.314.657-.537.656.129.657.303.656 3.268 1.313.291.656.747.657 2.03.656.14.657.013.656.478.657.233.656.934.657.117.656.396 1.313 2.544.657.397.656 1.109.657.081.656.98.656.514.657 1.004.656.502.657.093.656-.292 1.97 1.179.656-.21.657.023.656.455.657.257.656-.058.657-.28h.656l1.313.746.656-.07.657.105 1.97 1.307.656-.151.656.105 1.313.571.657.035.656.187.657.864.656.373.657.199.656.478.657.023.656.199.656-.059.657-.606.656.046.657.175.656-.151.657.175 1.97-.035.656.21.656.035.657.163 1.313-.082.656.152.657.023 1.312-.081.657-.082 1.313.07 1.313.07 1.97.292.656-.024 1.97.176.656.081 2.625-.163.657.07 1.313-.082.656.07.657-.093 1.97.152h1.969l.656-1.693 1.97-.011 1.312.035.657-.07.656 1.809 3.283-.082 5.252-.012.656-.175 3.939-.21.656.117 3.94-.024.656-.21 3.938-.513 1.313.058.657.012.656-.117 1.97-.035 1.313-.128 1.313-.047.656-.14 1.313-.035 1.313-.117 1.313-.42.656-.14.657-.712 1.97-1.026.656-.397.656-.56.657-.98.656-.62.657-.42.656-1.213 1.313-1.482.656-1.54 1.313-1.856.657-1.26.656-1.704 1.313-2.007 1.313-3.256 1.313-5.344 1.97-4.365.656-2.649.657-3.162.656-2.428 1.313-2.602.656-2.509 1.97-5.006.656-.199 1.313-3.465.657-.187 1.313-2.894.656.361.657-1.972.656-1.493.657.07.656.245.656-.49.657.793.656.444.657-1.996.656.152.657.28.656-.269 1.313 3.443.657 2.159.656 1.237.657.618.656.152.657.934.656.431 1.313-4.586.656 2.38 1.313 2.136.657 1.54.656.888.657 2.544.656 1.482.657 2.077.656 2.509.657 3.407.656.549 1.97-.969.656-.583.657-.035.656-1.202.656-.49.657 1.132.656.116.657.315.656 1.646.657-1.844.656-1.389.657-.163.656-1.167 1.313.864.657-1.26.656 1.668.657.093.656-.186.657.828.656.152.656-.199 1.313.07.657-.151.656.91.657-.502 1.313 1.389.656.338.657-.058 1.313 1.505.656 1.062.657.49.656-.105.657.829.656 1.167.656.42.657-.385.656.257.657.898.656 1.634.657.35 3.282 3.723.657-.385.656.513.657-.373.656.7 1.313-.315.656-.234 1.313 1.05.657 1.11.656-.34.657.467.656.327.657.152 1.313-.7.656-.514.657-.315.656-.175.657-.84.656-.385.657.175.656-.397.656-.968.657-.117.656-.665.657-.42.656-1.47.657-1.156.656-.584.657-.07.656-.98 3.283-2.135.656-.829.657.245.656.035.656-.362.657.257.656-.082.657-.478.656-.28.657.047.656-.339 1.313 2.673.657-1.868.656.164.657-2.766.656.374.657-.059 1.313-1.365.656 1.844.656 1.248.657 3.373.656.397.657.933.656.49.657 1.004.656 1.225.657.234.656 1.015.657-.14.656.397 1.97.606 1.313 1.762.656 1.12.656.853.657.525 1.313 1.692.656.35.657.653 1.313.082 1.313 1.307.656.058.657.666.656.291.657 1.027 1.313 1.214.656.583.656 1.32.657.43.656-.42.657.13 1.313.594 1.313.735.656-.081.657 1.073.656.49 1.313.654 1.313 1.54.657 1.307.656.619.656.303.657-.081.656.198 1.313-.28.657-.339 1.313.106 1.313.63.656.455.657.292.656.595 1.313.677 1.313.28 1.313.63.656.315 1.313-.385.657.035 2.626-.269 1.313.537 1.313-.012 1.313.327 3.938.56.657-.105.656.047.657.163 1.313.035 1.97.21 1.312-.14.657.094.656-.047 1.313-.338.656.07 9.847-.77 1.313-.386 1.97-.385.656-.443.657-.292 1.97-.222.656-.233.656-.07 1.97.303 1.969-.373 2.626-.665.656-.024.657-.14 3.939.035 1.313.362 1.312-.058 1.313-.14 1.313.163.657-.093 3.282.35.657-.21 1.97.058.656.14h.656l.656.292 1.97.397.656.28.657.117.656.256.657-.245 1.97.117 1.312.035.657-.14.656.373.657.035.656-.116.656-.245 1.97.128.656-.292h.657l1.313.42 1.313-.361 1.313.093.656-.023 1.313.198 1.97-.467 1.312.07.657-.14.656-.315.657.035 1.313-.292.656-.256 3.283-.49.656.233.657.047.656-.117.656-.304 2.626-.315.657-.478 1.97-.023.656-.21.656-.012.657-.269.656.175.657.047.656-.315.657-.117.656.199.656-.082.657-.513 1.313-.514.656-.07.657-.245 1.313-1.015.656-.024 1.313-.676 1.313-.84.657-.199.656-.525 1.313-.49.656.186.657-.058.656-.572 1.313.257.657-.163.656.385.657-.607.656.023.657-.665.656-1.108.657-.49 1.313-1.646.656-.28.657-1.015.656-.409.656-.957 1.313-2.975.657-1.447.656-1.062.657-.7.656-1.634 1.313-1.587.657-.152.656-.292.657.245.656-.758.657-.397.656-.549 1.313-.105.656-.513.657-.093.656.035 1.313.851.657-.291.656-.642 1.313.093.657.269 1.313.268 1.313 2.194.656 1.237 1.97 1.284.656 1.237.656.058 1.313.432.657.583 1.313 1.704.656.303.657.829.656 1.412.657.49 1.313-.105.656 1.039.657.443.656.747.656-.198 1.313.886.657.899 1.97 1.82.656.63.656.467.657.222 1.313.058.656.222.657.094.656-.105.657.56.656-.082.656.117 1.313-.385.657-.63.656.221.657-.385.656.128 1.313.514.657-.199.656.269 1.313-.222 1.313-.77.657-.198 1.312.35 1.313.315.657.326.656.117.657.292 1.313-.058.656.128.657-.245.656.058 1.313.91.657-.583.656-.198.657-.806.656-.116.656.07 1.313-.385.657.221.656.409.657.805.656.152 1.313-.665.657-.082.656.397.657-.082 1.313.292 1.313.852.656-.059.656.432 1.313.21.657.257.656.116.657-.21.656.117.657-.245 1.313.56h.656l1.313.584.657.618.656-.012.657.164.656-.339h0" clip-path="url(#p57a92ab1e7)" style="fill:none;stroke:#1007e1;stroke-width:1.5;stroke-linecap:square" id="line2d_26"/><path d="m49.83 284.4 40.701-.093 1.97-.222 5.908-.42 1.313-.444.656-.128 3.94-1.692 1.312-.677.656-.093 3.283-1.027 1.97-1.669 1.312.245 1.313-.595 1.313.373.657-.023.656-.595.656-.35 1.313-.35 3.283-.595.656.035.657-.094 1.97-1.283.656-.234.656-.688.657-.012.656-.689.656-.303.657-.548.656-.957.657-.49.656.175.657-.747 1.97-.21.656 1.027.656-.187.657.047.656.513.657.128.656-.455.657-.046.656-.455.656.968.657.175 1.313-.618.656.256.657-.116.656.023.657-.548.656.116 1.313 1.027.657.467.656 1.062.657.058.656-.315 1.313.117.656-.012 1.313-1.365h.657l.656.245.657-.374 1.313-1.015.656.502.657-.338.656.023.657-.245.656.047 1.313.63 1.313.291.656-.14.657.77.656.409 1.313.478.657-.105.656.234.657.385.656-.28.657.21 1.97.023.656.222.656-.093.657.595 1.969.21.656.338.657.164.656.49.657-.397.656-.07 1.97.385.656-.093 1.97.28.656.187.657.011 1.312.327.657.28 1.313-.082.656-.128.657.128.656.012 1.313-.362 1.313.164.657-.21 1.313-.059.656.07.657-.128 1.312.105.657.385.656.012.657-.304.656-.151.657.198.656-.093.657-.35.656-.07.657-.339.656.128.657-.186 1.313-.642.656.14.657-.175.656-.059.656-.175.657-.046.656.303 1.313-.525.657.128.656-.023 1.313-.56.657-.922 1.313-.152.656-.642 1.313-.571 1.97-.619.656-.385.656-.093.657-.654.656-.455.657-1.132.656-.373.657-.969 1.313-.992.656-.326.657-.91.656-.06.657-.594.656-.199 2.626-2.053 1.313-1.67.656-.361.657-.128 1.313-.595.656-.49.657.816.656-.21.657-.362.656-.501.657-.187.656-.07.657-.49.656-1.634 1.313-.653.656-.782.657-.525.656-.957 1.313-.584.657-.63.656-.957 2.626-2.322.657-.677 1.313-.829.656-.641.656-.117 1.313-1.844.657-.327.656-.816 1.313.081.657-.968.656.081.657.397.656-.07 1.97-1.552.656.058.657-.14.656-.443.656-.292.657-.012 1.313-.443.656-.455.657.152.656.56.657-.584.656.595.657.234.656-.502 1.313.058.657-.571.656.525.657.28.656 1.365.656.537.657.07.656.525.657 1.797 1.313 2.054.656-.222 1.313 1.19.657-.186.656-1.447.657-.724 1.313-2.602 1.313-.688.656-.63.656-.316.657-.502.656-.28.657.386.656-.129 1.97.455 1.313.922.656.479.657.058 1.313.478 1.313 1.39 1.312.21.657.618.656.338.657.082.656-.129.657-.396.656.221 1.313-.046.657.151 1.97 2.451.656.408 1.313.42.656.654.656.443.657.946 1.313.863 1.313.91.656.047.657-.257.656-.758 1.313-.747.657-.023.656.105.657-.537.656 1.202.657-.175.656.187.656-.28 1.313-.747.657-.339.656-1.248.657.443h.656l.657.455.656.957.657.257.656.525 1.313.525.657.759.656.443.657.047.656.42.656.758.657.175.656-.105 1.97.28.656-.221.657-.537.656.257.657.385.656.198.657-.047.656-.21.657.199 1.313 1.377 1.312-.677 1.313.082.657-.584.656-.805.657-.49 2.626.07.656.665 1.313-.257.657.14.656.42 2.626.187.656.642.657.327 1.313.35.656.268 2.626.397.657-.478.656-.21.657.034.656-.676.657-.245 1.312-.817.657-.059.656.187.657-.245.656.385.657.245.656-.338 2.626-.689.657.047.656-.222 1.313.35.657.094.656.303 2.626.105.656-.07.657.128.656-.233 1.313-.105.657-.478 1.313.035.656-.397 1.313-1.459.657-1.074.656-.793 1.313-3.688 3.282-8.799 2.626-4.702.657-.876.656-.688.657-.479.656-.968 2.626-2.544.656-1.039.657-.677.656-.478 1.97-2.252.656-.42 1.313-.292 1.97-.047.656.059 1.97-.386.656.047.656-.14 1.313.082.657.175.656-.059.657-.618h.656l1.313.327 1.97.186.656.222.657-.023 1.312-.374 1.313-.63 1.313-.84.657-.187.656.059.657.233 1.313.619.656.63.657.28.656.128.657-.082.656-.361.657-.152.656.023.656-.373 1.313-.152 1.313.397 1.97-.07h2.626l.656.14 1.313.047.657.747 1.312.198 1.97-.035.656-.082.657-.642 1.313-.688.656-.327.657-.455.656-.303.657-.175.656-.035 1.313-1.062.657-.549 1.312-1.54.657-1.015.656-1.25.657-.43 1.313-1.46.656-.536 1.313-1.728 1.97-2.322 1.313-1.318 1.313-.666 1.969-1.353.656-.537 1.313-1.482 1.97-2.474.656-.992 1.97-3.43 1.97-2.743.656-.77.656-.596 1.97-.571 2.625-1.973.657-.513 1.313-1.26 1.97-.782 1.969-.479 1.312-.548 1.313.222 1.97.676 1.97.84 3.938 1.168 3.282 2.439 1.313 1.575 1.97 1.365 1.97 3.408 1.312 2.509 1.313 2.917 5.252 7.62.656 1.518.657 1.797 1.97 3.442 1.312 2.766 1.313.98.657 1.004.656.49.656.875 1.97 2.042 1.313 1.669.656 1.109 2.626 2.147.657.058 1.313.257.656.513 1.313.42.656.152.657.689.656.35.657.198.656-.292 1.313-.14 1.313-1.05.657.14.656-.443.657.081 1.313-.898.656-.152.657-.513.656-.84.656-.059 2.626-3.49 1.313-1.084.657-1.05.656-.41.657.304 1.313.082.656-.245 1.97.163.656-.21.656.117.657.513.656.315.657.747 1.97 4.54 1.312 2.59 1.313 3.303.657 1.074.656.805.657 1.202 1.969 5.146.656 1.424.657 1.003 1.313 3.361.656 1.436 1.313 2.252.657.863.656 1.54 1.313 1.775 1.313 1.33.657.373.656.572.657.21 2.625 2.486 1.313.91 1.313.724.657.385.656.245.657.536 1.313.7 1.97 1.67 2.625 2.893 1.313 1.354 1.97.934 1.312.49.657.583 1.313.712 1.97.887 1.968.969 2.626 1.132.657.151 1.313-.186 1.313.268.656.07 2.626.735 1.313.222h0" clip-path="url(#p57a92ab1e7)" style="fill:none;stroke:#5feb16;stroke-width:1.5;stroke-linecap:square" id="line2d_27"/><path d="m49.83 284.4 33.48-.07 2.626-.327 3.282-.723 1.313-.339 1.313-.653.657-.77.656-.234.657-.782.656-.186.656-.642 1.313-2.03.657-.55.656-.84.657.222.656-.677.657-.315 1.313-1.785.656-.665.657-1.284.656-1.704.657-.105.656-.233 1.313 1.039.656-2.766 1.313-3.454.657-1.412.656-2.24.657-3.805.656-3.093.657-.793.656-.385.657.046.656-.711.657.011.656-1.062.657-2.567.656-1.272.657-4.913.656-3.384.656-2.066 1.313-5.263.657-1.505 1.313-3.42.656-.711.657.128.656-2.392 1.97-10.841.656-.794.657-4.037.656-2.358.657.094.656.887.656.175 1.313-2.65 1.313 4.307.657-.164.656-3.629.657-1.552.656-3.734 1.313 1.447.657-.058.656-1.424.657 2.007.656-.513 1.313 5.543.656-.654.657-1.844.656 1.156.657-1.622.656.618.657.338.656-3.839.657-1.459.656.596.657.023.656-.864.657.946.656.688.657 2.089.656-.572.657-.128.656.467.656 1.038.657.21.656-.922.657-2.567.656-.338 1.313.852.657.198.656-1.015.657.431.656-.992.657 1.494.656-.688.657-1.75.656.07.657-1.25.656-.898.656 2.042.657 1.027.656-1.062.657.782 1.313-.455.656-.163.657-.49.656-2.976.657 1.482.656.968.657.689 1.313 2.427.656-1.19.657 1.844.656.665.656.968.657-1.167.656-1.948.657-.28.656 2.123.657 1.33.656-.524.657-2.183 1.313 4.038.656-.187.657.91.656 1.214.657-.21.656-.082.657-1.843.656.245.656.058.657-.513.656-1.226.657 1.54.656.853.657 1.738.656.98.657 2.941.656 2.358.657-.806.656.63.657.887.656.619.657-1.459.656 1.377h.657l.656 3.42.656-.666.657 3.816.656 7.294.657.548.656-1.248.657.011.656-1.902.657.619.656-1.61.657-6.5.656 2.275.657 1.225.656.234.657 1.003.656.63.657-.093.656 3.36.656.35.657.864.656.07.657-.478.656.14.657.875 1.313-1.33.656.257.657 1.96.656 1.564.657-.222.656-.023.657.56.656 2.999.657.443h.656l.656.63.657.934.656 2.322.657 5.042.656-.082.657-.922.656.128.657 1.39.656.5.657-1.54.656-3.15.657 1.879.656 3.605.657.934.656.327.657.023.656.28.656 1.424.657.782.656-.537.657-.117.656 1.109.657.35.656 1.599.657 2.777.656-1.33.657-.607.656 3.524.657.747.656.152.657-.245.656 1.05.657.513 1.312-7.41.657-5.905.656.584.657-.829.656-5.601.657-2.1.656 3.302.657.735.656 4.4.657-.444.656-1.144.657.596.656 1.528.657-.7.656-.537.657-2.182.656-.642.656.047 1.97-1.926 1.313-2.59.656-1.249.657-.863.656-1.32.657-2.03.656-.093.657.198.656-.35.657.525.656-1.026.657-1.588.656-1.026.656-3.408.657-1.82.656.21.657-1.447.656-.56 1.313-.69 1.313 7.423.657 4.236.656.957.657.268.656-.957 1.313-5.928.657.152.656.035.656.303.657-.688.656-1.599.657-.163.656-5.859 1.313-15.497.657-2.089.656 1.237.657.736.656-.386.657 4.248.656-.63.657-.058.656-.712.657.175.656-.409.656-1.528.657-2.253.656.747.657-1.528.656-.514.657-2.497.656.058.657.689.656-1.062.657-.187.656-.548.657.315.656.782.657-1.237 1.313 3.489.656-1.914.656 2.976.657.922.656-1.144.657-.63 1.313-3.828.656.362.657-1.027.656-1.914.657 1.284.656 2.602.657 2.007.656.035.657-1.295.656-.07.657.548.656-1.166 1.313-6.115.656-1.587.657-.14.656-2.58.657-1.948.656-1.366 1.313-8.915.657-2.72.656-4.329.657-2.777 1.313-7.223.656-2.685.657-6.22 1.312-9.277.657-5.438.656.327.657-2.474.656-10.491.657-3.267 1.313-12.405.656-4.808.657-2.066 1.313-6.605.656 4.015.657.817.656-9.966.657-12.148.656-3.91.656-4.784.657-5.928.656-18.765.657-11.681.656 8.273.657 17.505.656 3.967.657 1.18.656-4.82.657 2.964.656-5.754.657-11.097.656-5.473.657-7.177.656 2.345.657 3.63.656 2.637.656 7.667.657 4.843.656-5.823.657 3.909.656-.525.657 4.784.656 2.894.657 16.805.656 3.442.657 1.296.656 2.193.657 4.388.656 3.104.657 2.16.656-11.449.657 2.113.656 6.138.656.793.657 2.976.656 1.19.657 2.813.656 5.788.657 7.877.656 1.844.657 4.014.656.163.657 8.566.656 2.217.657 3.023.656-.012.657.945.656-1.622.657.303.656-2.404.656.946.657-2.731.656.712.657 3.209.656 2.007.657 2.602.656 3.116.657.432.656 4.785.657-3.501.656-2.51.657-.28.656-1.213.657-1.75.656-.526.657 2.183.656 14.412.656 3.162.657.385.656-2.135.657-3.665.656 1.354.657-6.897.656-11.506.657-3.547.656-2.801.657 1.505.656-.432.657-3.617.656 2.229.657-3.49.656-2.695.657 1.038.656.456.656 6.791.657 5.1.656 3.22.657 5.462.656 8.029 1.313 6.733.657 1.926.656 2.345.657 1.237.656 1.54.657-1.388.656-.584.657-.875.656 2.09.657 5.589.656 2.392.656 4.715.657 5.578.656 2.404.657.081.656 1.167.657.572.656 1.377.657.969.656-1.319.657.98.656 1.33.657 3.268.656 1.587.657 2.077.656 1.144.657 2.217.656.024.656.501.657 1.05.656.316.657 1.05.656 4.738.657 1.54.656.747.657.945.656.607.657 3.513.656 2.509.657-.864.656-.583 1.313.723.657-.362.656.315.656 1.284.657.782.656 1.015h.657l.656 1.097.657 2.03.656.643 1.313-.106.657 3.513.656.654.657-.035.656 2.742.657 1.202.656 1.774.657.887.656-.21.656.641.657 1.156.656-.257.657 2.217 1.313 1.949.656-.105.657.082.656 1.143.657 6.465.656 5.228.657-.49.656 1.214 1.313-.689.657-.747.656-4.096.656-6.441.657 1.878.656-.023.657.969.656.595.657.222.656.058.657 1.587.656.397.657-.49.656.536.657-.21.656.829.657-1.68.656-.187.657.245.656 2.217.656 1.004.657.466.656-.116 1.313 2.847.657 2.1.656-1.633.657.443.656.876.657-.035.656 5.94.657 4.247.656-1.68.657 1.435.656-.572.657.269.656.058 1.313-4.633.656 1.237.657.7.656 1.342.657.105.656-.058.657-.28.656-.42.657 1.085.656.455.657 1.564.656-.163.657 1.213 1.313 5.788.656-.711.656.303.657-1.015.656.735.657-.199.656-.653.657-.922.656 2.264.657-2.79 1.313.013.656.583.657.759.656-1.26.657-.374.656 4.47.657 1.166.656-.361.656-.654.657-1.774.656 1.237.657-.186.656-.782.657-.234 1.313.28.656-.361.657.035.656 1.073 1.313 1.774.657.105.656-.163.657.758.656.327.656-.047.657.07.656 1.086.657-.129.656 1.015.657 1.728.656-.677.657.898.656.35.657-.992.656.315.657-.443.656.49.657 1.774.656-.035.657.408.656 1.249 1.313.315.656-1.284.657.339.656-.327.657.91.656-.023.657.14 1.313-.082.656 1.366.657 1.797 1.313-1.926.656-3.267.657-.502.656.467.656-1.564.657-2.205 1.313-1.4.656 2.566.657-.42 1.97-6.231 1.312-3.641.657-.992.656-1.342.657-1.96.656-3.105.657-3.757 1.312-8.928.657-1.178.656-2.019.657-3.197 1.313-7.982.656-2.148 1.313-3.139.657.082 1.313-8.904.656.969.657-1.926.656-.572.657 1.074.656-.537 1.313 6.185.656-1.669.657-.642.656.28.657-.816.656 1.773.657 1.26.656.48.657.828.656 4.562 1.313 3.63.657 1.015 1.969 19.103.656 1.109.657-.07 1.313.7.656-2.8.657-3.513.656-.502.657 2.742.656 3.536.657 1.132.656.14.657 1.926.656 3.267.657 1.762.656.677.657 1.167.656.222.656 1.143.657-1.038.656.84 1.313 3.477.657 1.167.656-.081.657.373.656 1.506.657.233.656.712.657.14 1.313 1.855.656-1.073 1.313 1.54.656.058.657 1.097 1.313.105.656 1.132.657.596.656.361.657 1.272.656.444.657.782.656.186.657-.011.656.466.657-1.167.656.549.657.7 1.312-.42.657-.105.656-.222.657.245.656-.256.657-1.564.656-.397.657.233.656-.151.657.607.656 2.077.657-.269.656-.116.657.606.656.036.657.396.656-1.237.656-.723.657.151.656.666.657-.666.656-.385.657-.163.656 2.31 1.313 2.918.657-4.294.656 1.097.657-1.027.656.338.657-2.777.656-1.54.657.944.656 4.283h0" clip-path="url(#p57a92ab1e7)" style="fill:none;stroke:#42537f;stroke-width:1.5;stroke-linecap:square" id="line2d_28"/><g style="fill:#7516fd" transform="matrix(.14 0 0 -.14 624.57 248.096)" id="text_17"><defs><path id="DejaVuSans-55" d="M556 4666h635V1831q0-750 271-1080 272-329 882-329 606 0 878 329 272 330 272 1080v2835h634V1753q0-912-452-1378Q3225-91 2344-91q-885 0-1337 466-451 466-451 1378v2913z" transform="scale(.01563)"/><path id="DejaVuSans-53" d="M3425 4513v-616q-359 172-678 256-319 85-616 85-515 0-795-200t-280-569q0-310 186-468 186-157 705-254l381-78q706-135 1042-474t336-907q0-679-455-1029Q2797-91 1919-91q-331 0-705 75-373 75-773 222v650q384-215 753-325 369-109 725-109 540 0 834 212 294 213 294 607 0 343-211 537t-692 291l-385 75q-706 140-1022 440-315 300-315 835 0 619 436 975t1201 356q329 0 669-60 341-59 697-177z" transform="scale(.01563)"/></defs><use xlink:href="#DejaVuSans-55"/><use xlink:href="#DejaVuSans-53" x="73.193"/></g><g style="fill:#907eba" transform="matrix(.14 0 0 -.14 624.57 262.096)" id="text_18"><defs><path id="DejaVuSans-70" d="M1159 525v-1856H581v4831h578v-531q182 312 458 463 277 152 661 152 638 0 1036-506 399-506 399-1331T3314 415Q2916-91 2278-91q-384 0-661 152-276 152-458 464zm1957 1222q0 634-261 995t-717 361q-457 0-718-361t-261-995q0-634 261-995t718-361q456 0 717 361t261 995z" transform="scale(.01563)"/><path id="DejaVuSans-61" d="M2194 1759q-697 0-966-159t-269-544q0-306 202-486 202-179 548-179 479 0 768 339t289 901v128h-572zm1147 238V0h-575v531q-197-318-491-470T1556-91q-537 0-855 302-317 302-317 808 0 590 395 890 396 300 1180 300h807v57q0 397-261 614t-733 217q-300 0-585-72-284-72-546-216v532q315 122 612 182 297 61 578 61 760 0 1135-394 375-393 375-1193z" transform="scale(.01563)"/><path id="DejaVuSans-69" d="M603 3500h575V0H603v3500zm0 1363h575v-729H603v729z" transform="scale(.01563)"/><path id="DejaVuSans-6e" d="M3513 2113V0h-575v2094q0 497-194 743-194 247-581 247-466 0-735-297-269-296-269-809V0H581v3500h578v-544q207 316 486 472 280 156 646 156 603 0 912-373 310-373 310-1098z" transform="scale(.01563)"/></defs><use xlink:href="#DejaVuSans-53"/><use xlink:href="#DejaVuSans-70" x="63.477"/><use xlink:href="#DejaVuSans-61" x="126.953"/><use xlink:href="#DejaVuSans-69" x="188.232"/><use xlink:href="#DejaVuSans-6e" x="216.016"/></g><g style="fill:#1007e1" transform="matrix(.14 0 0 -.14 624.57 276.096)" id="text_19"><defs><path id="DejaVuSans-49" d="M628 4666h631V0H628v4666z" transform="scale(.01563)"/><path id="DejaVuSans-74" d="M1172 4494v-994h1184v-447H1172V1153q0-428 117-550t477-122h590V0h-590q-666 0-919 248-253 249-253 905v1900H172v447h422v994h578z" transform="scale(.01563)"/><path id="DejaVuSans-6c" d="M603 4863h575V0H603v4863z" transform="scale(.01563)"/><path id="DejaVuSans-79" d="M2059-325q-243-625-475-815-231-191-618-191H506v481h338q237 0 368 113 132 112 291 531l103 262L191 3500h609L1894 763l1094 2737h609L2059-325z" transform="scale(.01563)"/></defs><use xlink:href="#DejaVuSans-49"/><use xlink:href="#DejaVuSans-74" x="29.492"/><use xlink:href="#DejaVuSans-61" x="68.701"/><use xlink:href="#DejaVuSans-6c" x="129.98"/><use xlink:href="#DejaVuSans-79" x="157.764"/></g><g style="fill:#5feb16" transform="matrix(.14 0 0 -.14 624.57 290.096)" id="text_20"><defs><path id="DejaVuSans-52" d="M2841 2188q203-69 395-294t386-619L4263 0h-679l-596 1197q-232 469-449 622t-592 153h-688V0H628v4666h1425q800 0 1194-335 394-334 394-1009 0-441-205-732-205-290-595-402zM1259 4147V2491h794q456 0 689 211t233 620q0 409-233 617t-689 208h-794z" transform="scale(.01563)"/><path id="DejaVuSans-75" d="M544 1381v2119h575V1403q0-497 193-746 194-248 582-248 465 0 735 297 271 297 271 810v1984h575V0h-575v538q-209-319-486-474-276-155-642-155-603 0-916 375-312 375-312 1097zm1447 2203z" transform="scale(.01563)"/><path id="DejaVuSans-73" d="M2834 3397v-544q-243 125-506 187-262 63-544 63-428 0-642-131t-214-394q0-200 153-314t616-217l197-44q612-131 870-370t258-667q0-488-386-773Q2250-91 1575-91q-281 0-586 55T347 128v594q319-166 628-249 309-82 613-82 406 0 624 139 219 139 219 392 0 234-158 359-157 125-692 241l-200 47q-534 112-772 345-237 233-237 639 0 494 350 762 350 269 994 269 318 0 599-47 282-46 519-140z" transform="scale(.01563)"/></defs><use xlink:href="#DejaVuSans-52"/><use xlink:href="#DejaVuSans-75" x="64.982"/><use xlink:href="#DejaVuSans-73" x="128.361"/><use xlink:href="#DejaVuSans-73" x="180.461"/><use xlink:href="#DejaVuSans-69" x="232.561"/><use xlink:href="#DejaVuSans-61" x="260.344"/></g><g style="fill:#42537f" transform="matrix(.14 0 0 -.14 624.57 304.096)" id="text_21"><defs><path id="DejaVuSans-42" d="M1259 2228V519h1013q509 0 754 211 246 211 246 645 0 438-246 645-245 208-754 208H1259zm0 1919V2741h935q462 0 688 173 227 174 227 530 0 353-227 528-226 175-688 175h-935zm-631 519h1613q722 0 1112-300 391-300 391-853 0-429-200-682t-588-315q466-100 724-418 258-317 258-792 0-625-425-966Q3088 0 2303 0H628v4666z" transform="scale(.01563)"/><path id="DejaVuSans-72" d="M2631 2963q-97 56-211 82-114 27-251 27-488 0-749-317t-261-911V0H581v3500h578v-544q182 319 472 473 291 155 707 155 59 0 131-8 72-7 159-23l3-590z" transform="scale(.01563)"/><path id="DejaVuSans-7a" d="M353 3500h2731v-525L922 459h2162V0H275v525l2163 2516H353v459z" transform="scale(.01563)"/></defs><use xlink:href="#DejaVuSans-42"/><use xlink:href="#DejaVuSans-72" x="68.604"/><use xlink:href="#DejaVuSans-61" x="109.717"/><use xlink:href="#DejaVuSans-7a" x="170.996"/><use xlink:href="#DejaVuSans-69" x="223.486"/><use xlink:href="#DejaVuSans-6c" x="251.27"/></g></g></g><defs><clipPath id="p57a92ab1e7"><path d="M49.83 7.2h558v277.2h-558z"/></clipPath></defs></svg>