<svg xmlns="http://www.w3.org/2000/svg" xmlns:xlink="http://www.w3.org/1999/xlink" width="985.137" height="430.861" viewBox="0 0 738.852 323.146"><defs><style>*{stroke-linejoin:round;stroke-linecap:butt}</style></defs><g id="figure_1"><path id="patch_1" d="M0 323.146h738.852V0H0v323.146z" style="fill:none"/><g id="axes_1"><path id="patch_2" d="M67.645 287.328h558v-277.2h-558v277.2z" style="fill:none"/><g id="matplotlib.axis_1"><g id="xtick_1"><g id="line2d_1"><defs><path id="m6a74983723" d="M0 0v3.5" style="stroke:#b0b0b0;stroke-width:.4"/></defs><use xlink:href="#m6a74983723" x="114.228" y="287.328" style="fill:#b0b0b0;stroke:#b0b0b0;stroke-width:.4"/></g><g id="text_1" style="fill:#b0b0b0" transform="matrix(.14 0 0 -.14 84.98 304.966)"><defs><path id="DejaVuSans-32" d="M1228 531h2203V0H469v531q359 372 979 998 621 627 780 809 303 340 423 576 121 236 121 464 0 372-261 606-261 235-680 235-297 0-627-103-329-103-704-313v638q381 153 712 231 332 78 607 78 725 0 1156-363 431-362 431-968 0-288-108-546-107-257-392-607-78-91-497-524-418-433-1181-1211z" transform="scale(.01563)"/><path id="DejaVuSans-30" d="M2034 4250q-487 0-733-480-245-479-245-1442 0-959 245-1439 246-480 733-480 491 0 736 480 246 480 246 1439 0 963-246 1442-245 480-736 480zm0 500q785 0 1199-621 414-620 414-1801 0-1178-414-1799Q2819-91 2034-91q-784 0-1198 620-414 621-414 1799 0 1181 414 1801 414 621 1198 621z" transform="scale(.01563)"/><path id="DejaVuSans-2d" d="M313 2009h1684v-512H313v512z" transform="scale(.01563)"/><path id="DejaVuSans-35" d="M691 4666h2478v-532H1269V2991q137 47 274 70 138 23 276 23 781 0 1237-428 457-428 457-1159 0-753-469-1171Q2575-91 1722-91q-294 0-599 50Q819 9 494 109v635q281-153 581-228t634-75q541 0 856 284 316 284 316 772 0 487-316 771-315 285-856 285-253 0-505-56-251-56-513-175v2344z" transform="scale(.01563)"/></defs><use xlink:href="#DejaVuSans-32"/><use xlink:href="#DejaVuSans-30" x="63.623"/><use xlink:href="#DejaVuSans-32" x="127.246"/><use xlink:href="#DejaVuSans-30" x="190.869"/><use xlink:href="#DejaVuSans-2d" x="254.492"/><use xlink:href="#DejaVuSans-30" x="290.576"/><use xlink:href="#DejaVuSans-35" x="354.199"/></g></g><g id="xtick_2"><use xlink:href="#m6a74983723" id="line2d_2" x="175.181" y="287.328" style="fill:#b0b0b0;stroke:#b0b0b0;stroke-width:.4"/><g id="text_2" style="fill:#b0b0b0" transform="matrix(.14 0 0 -.14 145.933 304.966)"><defs><path id="DejaVuSans-39" d="M703 97v575q238-113 481-172 244-59 479-59 625 0 954 420 330 420 377 1277-181-269-460-413-278-144-615-144-700 0-1108 423-408 424-408 1159 0 718 425 1152 425 435 1131 435 810 0 1236-621 427-620 427-1801 0-1103-524-1761Q2575-91 1691-91q-238 0-482 47Q966 3 703 97zm1256 1978q425 0 673 290 249 291 249 798 0 503-249 795-248 292-673 292t-673-292q-248-292-248-795 0-507 248-798 248-290 673-290z" transform="scale(.01563)"/></defs><use xlink:href="#DejaVuSans-32"/><use xlink:href="#DejaVuSans-30" x="63.623"/><use xlink:href="#DejaVuSans-32" x="127.246"/><use xlink:href="#DejaVuSans-30" x="190.869"/><use xlink:href="#DejaVuSans-2d" x="254.492"/><use xlink:href="#DejaVuSans-30" x="290.576"/><use xlink:href="#DejaVuSans-39" x="354.199"/></g></g><g id="xtick_3"><use xlink:href="#m6a74983723" id="line2d_3" x="235.64" y="287.328" style="fill:#b0b0b0;stroke:#b0b0b0;stroke-width:.4"/><g id="text_3" style="fill:#b0b0b0" transform="matrix(.14 0 0 -.14 206.392 304.966)"><defs><path id="DejaVuSans-31" d="M794 531h1031v3560L703 3866v575l1116 225h631V531h1031V0H794v531z" transform="scale(.01563)"/></defs><use xlink:href="#DejaVuSans-32"/><use xlink:href="#DejaVuSans-30" x="63.623"/><use xlink:href="#DejaVuSans-32" x="127.246"/><use xlink:href="#DejaVuSans-31" x="190.869"/><use xlink:href="#DejaVuSans-2d" x="254.492"/><use xlink:href="#DejaVuSans-30" x="290.576"/><use xlink:href="#DejaVuSans-31" x="354.199"/></g></g><g id="xtick_4"><use xlink:href="#m6a74983723" id="line2d_4" x="295.107" y="287.328" style="fill:#b0b0b0;stroke:#b0b0b0;stroke-width:.4"/><g id="text_4" style="fill:#b0b0b0" transform="matrix(.14 0 0 -.14 265.859 304.966)"><use xlink:href="#DejaVuSans-32"/><use xlink:href="#DejaVuSans-30" x="63.623"/><use xlink:href="#DejaVuSans-32" x="127.246"/><use xlink:href="#DejaVuSans-31" x="190.869"/><use xlink:href="#DejaVuSans-2d" x="254.492"/><use xlink:href="#DejaVuSans-30" x="290.576"/><use xlink:href="#DejaVuSans-35" x="354.199"/></g></g><g id="xtick_5"><use xlink:href="#m6a74983723" id="line2d_5" x="356.061" y="287.328" style="fill:#b0b0b0;stroke:#b0b0b0;stroke-width:.4"/><g id="text_5" style="fill:#b0b0b0" transform="matrix(.14 0 0 -.14 326.813 304.966)"><use xlink:href="#DejaVuSans-32"/><use xlink:href="#DejaVuSans-30" x="63.623"/><use xlink:href="#DejaVuSans-32" x="127.246"/><use xlink:href="#DejaVuSans-31" x="190.869"/><use xlink:href="#DejaVuSans-2d" x="254.492"/><use xlink:href="#DejaVuSans-30" x="290.576"/><use xlink:href="#DejaVuSans-39" x="354.199"/></g></g><g id="xtick_6"><use xlink:href="#m6a74983723" id="line2d_6" x="416.519" y="287.328" style="fill:#b0b0b0;stroke:#b0b0b0;stroke-width:.4"/><g id="text_6" style="fill:#b0b0b0" transform="matrix(.14 0 0 -.14 387.27 304.966)"><use xlink:href="#DejaVuSans-32"/><use xlink:href="#DejaVuSans-30" x="63.623"/><use xlink:href="#DejaVuSans-32" x="127.246"/><use xlink:href="#DejaVuSans-32" x="190.869"/><use xlink:href="#DejaVuSans-2d" x="254.492"/><use xlink:href="#DejaVuSans-30" x="290.576"/><use xlink:href="#DejaVuSans-31" x="354.199"/></g></g><g id="xtick_7"><use xlink:href="#m6a74983723" id="line2d_7" x="475.986" y="287.328" style="fill:#b0b0b0;stroke:#b0b0b0;stroke-width:.4"/><g id="text_7" style="fill:#b0b0b0" transform="matrix(.14 0 0 -.14 446.738 304.966)"><use xlink:href="#DejaVuSans-32"/><use xlink:href="#DejaVuSans-30" x="63.623"/><use xlink:href="#DejaVuSans-32" x="127.246"/><use xlink:href="#DejaVuSans-32" x="190.869"/><use xlink:href="#DejaVuSans-2d" x="254.492"/><use xlink:href="#DejaVuSans-30" x="290.576"/><use xlink:href="#DejaVuSans-35" x="354.199"/></g></g><g id="xtick_8"><use xlink:href="#m6a74983723" id="line2d_8" x="536.94" y="287.328" style="fill:#b0b0b0;stroke:#b0b0b0;stroke-width:.4"/><g id="text_8" style="fill:#b0b0b0" transform="matrix(.14 0 0 -.14 507.692 304.966)"><use xlink:href="#DejaVuSans-32"/><use xlink:href="#DejaVuSans-30" x="63.623"/><use xlink:href="#DejaVuSans-32" x="127.246"/><use xlink:href="#DejaVuSans-32" x="190.869"/><use xlink:href="#DejaVuSans-2d" x="254.492"/><use xlink:href="#DejaVuSans-30" x="290.576"/><use xlink:href="#DejaVuSans-39" x="354.199"/></g></g><g id="xtick_9"><use xlink:href="#m6a74983723" id="line2d_9" x="597.398" y="287.328" style="fill:#b0b0b0;stroke:#b0b0b0;stroke-width:.4"/><g id="text_9" style="fill:#b0b0b0" transform="matrix(.14 0 0 -.14 568.15 304.966)"><defs><path id="DejaVuSans-33" d="M2597 2516q453-97 707-404 255-306 255-756 0-690-475-1069Q2609-91 1734-91q-293 0-604 58T488 141v609q262-153 574-231 313-78 654-78 593 0 904 234t311 681q0 413-289 645-289 233-804 233h-544v519h569q465 0 712 186t247 536q0 359-255 551-254 193-729 193-260 0-557-57-297-56-653-174v562q360 100 674 150t592 50q719 0 1137-327 419-326 419-882 0-388-222-655t-631-370z" transform="scale(.01563)"/></defs><use xlink:href="#DejaVuSans-32"/><use xlink:href="#DejaVuSans-30" x="63.623"/><use xlink:href="#DejaVuSans-32" x="127.246"/><use xlink:href="#DejaVuSans-33" x="190.869"/><use xlink:href="#DejaVuSans-2d" x="254.492"/><use xlink:href="#DejaVuSans-30" x="290.576"/><use xlink:href="#DejaVuSans-31" x="354.199"/></g></g></g><g id="matplotlib.axis_2"><g id="ytick_1"><path id="line2d_10" d="M67.645 287.328h558" clip-path="url(#pf2e1e9e0ef)" style="fill:none;stroke:#b0b0b0;stroke-width:.3;stroke-linecap:square"/><g id="line2d_11"><defs><path id="mef7d9d6e0a" d="M0 0h-3.5" style="stroke:#b0b0b0;stroke-width:.3"/></defs><use xlink:href="#mef7d9d6e0a" x="67.645" y="287.328" style="fill:#b0b0b0;stroke:#b0b0b0;stroke-width:.3"/></g><use xlink:href="#DejaVuSans-30" id="text_10" style="fill:#b0b0b0" transform="matrix(.14 0 0 -.14 51.737 292.647)"/></g><g id="ytick_2"><path id="line2d_12" d="M67.645 252.977h558" clip-path="url(#pf2e1e9e0ef)" style="fill:none;stroke:#b0b0b0;stroke-width:.3;stroke-linecap:square"/><use xlink:href="#mef7d9d6e0a" id="line2d_13" x="67.645" y="252.977" style="fill:#b0b0b0;stroke:#b0b0b0;stroke-width:.3"/><g id="text_11" style="fill:#b0b0b0" transform="matrix(.14 0 0 -.14 7.2 258.296)"><use xlink:href="#DejaVuSans-31"/><use xlink:href="#DejaVuSans-30" x="63.623"/><use xlink:href="#DejaVuSans-30" x="127.246"/><use xlink:href="#DejaVuSans-30" x="190.869"/><use xlink:href="#DejaVuSans-30" x="254.492"/><use xlink:href="#DejaVuSans-30" x="318.115"/></g></g><g id="ytick_3"><path id="line2d_14" d="M67.645 218.626h558" clip-path="url(#pf2e1e9e0ef)" style="fill:none;stroke:#b0b0b0;stroke-width:.3;stroke-linecap:square"/><use xlink:href="#mef7d9d6e0a" id="line2d_15" x="67.645" y="218.626" style="fill:#b0b0b0;stroke:#b0b0b0;stroke-width:.3"/><g id="text_12" style="fill:#b0b0b0" transform="matrix(.14 0 0 -.14 7.2 223.945)"><use xlink:href="#DejaVuSans-32"/><use xlink:href="#DejaVuSans-30" x="63.623"/><use xlink:href="#DejaVuSans-30" x="127.246"/><use xlink:href="#DejaVuSans-30" x="190.869"/><use xlink:href="#DejaVuSans-30" x="254.492"/><use xlink:href="#DejaVuSans-30" x="318.115"/></g></g><g id="ytick_4"><path id="line2d_16" d="M67.645 184.275h558" clip-path="url(#pf2e1e9e0ef)" style="fill:none;stroke:#b0b0b0;stroke-width:.3;stroke-linecap:square"/><use xlink:href="#mef7d9d6e0a" id="line2d_17" x="67.645" y="184.275" style="fill:#b0b0b0;stroke:#b0b0b0;stroke-width:.3"/><g id="text_13" style="fill:#b0b0b0" transform="matrix(.14 0 0 -.14 7.2 189.594)"><use xlink:href="#DejaVuSans-33"/><use xlink:href="#DejaVuSans-30" x="63.623"/><use xlink:href="#DejaVuSans-30" x="127.246"/><use xlink:href="#DejaVuSans-30" x="190.869"/><use xlink:href="#DejaVuSans-30" x="254.492"/><use xlink:href="#DejaVuSans-30" x="318.115"/></g></g><g id="ytick_5"><path id="line2d_18" d="M67.645 149.924h558" clip-path="url(#pf2e1e9e0ef)" style="fill:none;stroke:#b0b0b0;stroke-width:.3;stroke-linecap:square"/><use xlink:href="#mef7d9d6e0a" id="line2d_19" x="67.645" y="149.924" style="fill:#b0b0b0;stroke:#b0b0b0;stroke-width:.3"/><g id="text_14" style="fill:#b0b0b0" transform="matrix(.14 0 0 -.14 7.2 155.242)"><defs><path id="DejaVuSans-34" d="M2419 4116 825 1625h1594v2491zm-166 550h794V1625h666v-525h-666V0h-628v1100H313v609l1940 2957z" transform="scale(.01563)"/></defs><use xlink:href="#DejaVuSans-34"/><use xlink:href="#DejaVuSans-30" x="63.623"/><use xlink:href="#DejaVuSans-30" x="127.246"/><use xlink:href="#DejaVuSans-30" x="190.869"/><use xlink:href="#DejaVuSans-30" x="254.492"/><use xlink:href="#DejaVuSans-30" x="318.115"/></g></g><g id="ytick_6"><path id="line2d_20" d="M67.645 115.572h558" clip-path="url(#pf2e1e9e0ef)" style="fill:none;stroke:#b0b0b0;stroke-width:.3;stroke-linecap:square"/><use xlink:href="#mef7d9d6e0a" id="line2d_21" x="67.645" y="115.572" style="fill:#b0b0b0;stroke:#b0b0b0;stroke-width:.3"/><g id="text_15" style="fill:#b0b0b0" transform="matrix(.14 0 0 -.14 7.2 120.891)"><use xlink:href="#DejaVuSans-35"/><use xlink:href="#DejaVuSans-30" x="63.623"/><use xlink:href="#DejaVuSans-30" x="127.246"/><use xlink:href="#DejaVuSans-30" x="190.869"/><use xlink:href="#DejaVuSans-30" x="254.492"/><use xlink:href="#DejaVuSans-30" x="318.115"/></g></g><g id="ytick_7"><path id="line2d_22" d="M67.645 81.221h558" clip-path="url(#pf2e1e9e0ef)" style="fill:none;stroke:#b0b0b0;stroke-width:.3;stroke-linecap:square"/><use xlink:href="#mef7d9d6e0a" id="line2d_23" x="67.645" y="81.221" style="fill:#b0b0b0;stroke:#b0b0b0;stroke-width:.3"/><g id="text_16" style="fill:#b0b0b0" transform="matrix(.14 0 0 -.14 7.2 86.54)"><defs><path id="DejaVuSans-36" d="M2113 2584q-425 0-674-291-248-290-248-796 0-503 248-796 249-292 674-292t673 292q248 293 248 796 0 506-248 796-248 291-673 291zm1253 1979v-575q-238 112-480 171-242 60-480 60-625 0-955-422-329-422-376-1275 184 272 462 417 279 145 613 145 703 0 1111-427 408-426 408-1160 0-719-425-1154Q2819-91 2113-91q-810 0-1238 620-428 621-428 1799 0 1106 525 1764t1409 658q238 0 480-47t505-140z" transform="scale(.01563)"/></defs><use xlink:href="#DejaVuSans-36"/><use xlink:href="#DejaVuSans-30" x="63.623"/><use xlink:href="#DejaVuSans-30" x="127.246"/><use xlink:href="#DejaVuSans-30" x="190.869"/><use xlink:href="#DejaVuSans-30" x="254.492"/><use xlink:href="#DejaVuSans-30" x="318.115"/></g></g><g id="ytick_8"><path id="line2d_24" d="M67.645 46.87h558" clip-path="url(#pf2e1e9e0ef)" style="fill:none;stroke:#b0b0b0;stroke-width:.3;stroke-linecap:square"/><use xlink:href="#mef7d9d6e0a" id="line2d_25" x="67.645" y="46.87" style="fill:#b0b0b0;stroke:#b0b0b0;stroke-width:.3"/><g id="text_17" style="fill:#b0b0b0" transform="matrix(.14 0 0 -.14 7.2 52.189)"><defs><path id="DejaVuSans-37" d="M525 4666h3000v-269L1831 0h-659l1594 4134H525v532z" transform="scale(.01563)"/></defs><use xlink:href="#DejaVuSans-37"/><use xlink:href="#DejaVuSans-30" x="63.623"/><use xlink:href="#DejaVuSans-30" x="127.246"/><use xlink:href="#DejaVuSans-30" x="190.869"/><use xlink:href="#DejaVuSans-30" x="254.492"/><use xlink:href="#DejaVuSans-30" x="318.115"/></g></g><g id="ytick_9"><path id="line2d_26" d="M67.645 12.519h558" clip-path="url(#pf2e1e9e0ef)" style="fill:none;stroke:#b0b0b0;stroke-width:.3;stroke-linecap:square"/><use xlink:href="#mef7d9d6e0a" id="line2d_27" x="67.645" y="12.519" style="fill:#b0b0b0;stroke:#b0b0b0;stroke-width:.3"/><g id="text_18" style="fill:#b0b0b0" transform="matrix(.14 0 0 -.14 7.2 17.838)"><defs><path id="DejaVuSans-38" d="M2034 2216q-450 0-708-241-257-241-257-662 0-422 257-663 258-241 708-241t709 242q260 243 260 662 0 421-258 662-257 241-711 241zm-631 268q-406 100-633 378-226 279-226 679 0 559 398 884 399 325 1092 325 697 0 1094-325t397-884q0-400-227-679-226-278-629-378 456-106 710-416 255-309 255-755 0-679-414-1042Q2806-91 2034-91q-771 0-1186 362-414 363-414 1042 0 446 256 755 257 310 713 416zm-231 997q0-362 226-565 227-203 636-203 407 0 636 203 230 203 230 565 0 363-230 566-229 203-636 203-409 0-636-203-226-203-226-566z" transform="scale(.01563)"/></defs><use xlink:href="#DejaVuSans-38"/><use xlink:href="#DejaVuSans-30" x="63.623"/><use xlink:href="#DejaVuSans-30" x="127.246"/><use xlink:href="#DejaVuSans-30" x="190.869"/><use xlink:href="#DejaVuSans-30" x="254.492"/><use xlink:href="#DejaVuSans-30" x="318.115"/></g></g></g><path id="line2d_28" d="m67.645 287.328 22.3-.097 1.982-.184.992-.311 1.486-.965 1.982-2.025.496-.6.496-.793.495-.354.496-.54.495-.774.496-1.162.99-1.39.992-1.09.496-.482.495-.185.496.225.99-.269 1.983.59 1.487.601.99.121.496-.167.496.126.991-.294.496.082.495-.161.496-.043.495.292.991.221.496.126.496-.163.99.31 1.487.176.496.064.496.373.495.118.991.476.496.035.99.329.496.137.992.022.495-.155.496.128.495-.139.991.061.496.193.495-.072 1.983.651 1.486-.11.496.066.991-.073.496-.323.495-.071.991.172.991.028.496-.133.496.266.495.03.496-.195.495-.056 1.487-.678 1.982-1.277.496-.436.495-.697.991-.997.496-.888.495-.44.496-.837 1.487-1.757.495-.772.496-.126.495-.255.496-.542.496-.103.495-.361.496-.549.495-.233.991-1.535.496-.307.495-.785 1.487-1.231.496.103.495-.19.496.06 1.486-.242.496.148.496-.419.495.028.496.165.495.042.991.35.496-.07.496.519.99.74.496.888.496.144.99.936.496.194.992-.669.495-.478.496.233.495-.053.496.421.495-.472.496.561.495.962.992 1.253.99.766.496 1.088.496.346 1.982.624.496-.26.99.186.496-.111 1.487.158.496.257.99-.123.496.25.496.433.495.73.991.58.496.189.496-.117.99-.953.496-.507 1.982-.774.992-.032.99-.184.496-.174.991.214.496.387.991-.406.991.242.991-.56.991-.05.496-.135.991-1.099.496-.087.495-.289.496-.663.99-.52.496-.475.496-.277.496-.736.495.02.496-.265.495-1.266.496-.587.495-.11.496-.803.496-.58.495-1.141.496-.397.495.21.496-.806.495-1.323.496-.612.495-.9.496-.427.991-1.826.496-2.352.495-.672.496-1.833.495-1.405 1.487-5.754.496-.599.495-2.33.496-1.453.495-2.436.496-1.754.495-.94.991-3.163.496-1.17.496-1.587.495-1.095.496-.719.495-.33.496-1.4.991-.759.496 3.88.495-.693.496.496.495.273.496 1.264.495-1.171.496-.774.495-5.226.496-.979.496-2.573.99-3.738.496-1.406.991-1.722.991-.225.992-1.307.495.013.496-.903.495-.167.496-.468.495.87.496.22.496.635.495 1.051.496.656.495 1.353.496 5.934.495-.635.496 2.453.495 1.118.496-.051.496.1.495-5.022.991-5.234.496-3.289.495-.594.496-1.241.495-2.01.496 1.416.496-6.151.495.448.496-.33.495-.873.496.477.495 1.524 1.487 7.615.496 1.658.99 6.311.992 4.118.495 2.6.992 3.73.495.555.496.28.99 2.838 1.487 4.034.496.204 3.469 11.77.495 1.061.496 1.407.496.908.99 2.787.496 1.03.496 1.327.495 1.763.496 1.31.496 1.663.495 1.212.991 1.457.496.003.495-.687.991-.53.496-.002.991.312.496.291.495.744 1.982 1.685.496.496 1.487.862.99.569.992.367.496-.333.495.037.991-.128.496.067.495-.099 1.487.423.496-1.372.495-.254.496-.748.495-.27.496-.539.495-.893.496-.466.495.904.496-.464.496.112.495-.035.496.417.99-.135.496-.311.496-.147.496-.518.495-.287.496-.465.495.247.496-.85.495.038.496.276.495.081.496.735.991.338.496.897.99.897.496.987.496.053.495.462.496.812.991.943.496.419 1.486.73.496-.104.991.95 1.487 1.694.495.385.496.619.991.848.991.719.991.47 1.982 1.39.992 1.103 2.477 1.01 1.487 1.044.496.776.495.133 1.487 1.018.495-.107.496.064.496-.385.495.408.496-.08.495.17.496-.343.495.31.991.155.496.106.496.316.99.32 2.974-.114.496-.173.99.005.496-.149.496.16 1.487-.423.495.184.496.02.495.225.496-.738.99-.53.496-.853.496-.234.496-.368.495-1.005.496-.194.99-1.08.496-1.525.496-.197.495-.423.496-.96.991-1.48.496-1.201.495-2.098.496-.752.495-.406.991-2.677.496-1.262.496-.782.495-3.453.991-1.576 1.487-4.45.496-1.828.495-2.984.496-.942.495.475.496-2.499.495-.993.496-2.556.495-1.68.496 1.239.991-1.103.991-3.33 1.487-1.795.495-.95.496.122.496-.63.495-.196.496-.584.495-1.394.496.032.495.663.496-.384.991-2.287.496-.551.99.385.496-.358.496-.565.495 6.767.496-1.473.991 1.239.496-.323.495-.157.496.742.495-5.773.496 3.164.495.216.496.395.496 1.524.495.7.496.176.495 1.88.496 1.164.495 2.041.991 3.221.496.707.496-.473.495.76.991.904.991 1.897 1.487 1.712.496.866.99.892.496 1.19.496.463.495.256.496 2.342.496-.758.495.217.496.733.495 1.07.496-.05.495.385.496-.186.495 1.392.496.79.496.434.495.63.496.347.495.6.496-.63.495.734.496-.502.991.194.496-.099.495-.64.991-.138.496.773.495-.328 1.487-.406.496.123.99-.9.496 1.157.496-2.308.495-.437.496.25.496-1.165.495-.391.496-.848.495-2.498.496.876.495-.052 1.487-1.041.496.041.99 7.023.496.922.496-.177.495-2.171.992-2.518.99-10.019.496-1.93.496-.562.495.502.496.252.495-.608.496.686.496.029.495.494.496.155.495-.409.496-.043.495.185.496-.896.495-1.722.496-1.175.496-1.841.99-6.224.496-5.018.496-6.487.495-2.736.496-.326.496-4.544.495-13 .496-9.333.495-12.914.991-28.822.991-10.631.992-48.733.495-8.085.496-12.104.495-18.007.991-20.298.496-15.297.495 2.09.496-8.739.496-1.015.495-.008.496-.374.495.36.496 34.068.495-17.01.496-2.747.496 6.596.495 3.603.991 10.87.496-12.194.495 31.435 1.487 32.067.496 6.246.495 8.338.496 18.325.495 8.137.496 17.176.99 23.926.496 4.625.496 5.692.496 9.457.495 5.527.496 6.868.495 5.067.496 7.193.495 1.748.496 1.267.496 8.607.495 5.076 1.487 10.144.495 1.013.496 1.75.495 4.296.496 1.04.991 3.166.496 3.447.495-.77.496.246.495-.84.496 2.097.495 1.522.496.886.496 1.128.495 1.599.496.29.495 1.738.991 1.632 1.983.528.495 1.329.496.285.495-.703.496-.312.495.84.992-.047.495-.332.496.112.99 1.045.496-.627 1.487.215.496-.09.495.088.496-.123.495.65.496-.116.495.344.991-.114.496-.088.496-.252.495-2.061.496-.048.495-.236h.496l.495-.503.496-.792.496.09.495 1.9.991.103.496-1.052.495-.16.991-1.195.496-2.655 1.487-1.09.495-.313.496-1.081.495-.81.496 1.341.991-.381.496-1.28.495-.234.496-1.106.495-.551.496-3.327.495-.194.496.527.496-1.732.495-1.024.496-2.388.495-.84.496 2.05.495.519.496-1.301.495-2.344.496-.726.496-2.101.495-1.483.496-3.019.495-.474.496.979.495 1.36.496.072.495-.339.496.001.496 2.01.495.681.496.297.495 4.254.496-4.088.495-.883.496.649.495-2.412.496-.681.496-.454.495-4.776.496 3.953.495 1.478.496-.472.495 2.494.496-.355.496-.074.495.405.496-.173.495.672.496.094.495-1.602.496.864.495-.014.496 2.725.496-1.03.495-.024.496-.425.495 1.06.496-1.145.495-.212.496-3.136.495.657.496-.223.496-1.425.495-1.945.496 1.008.495.677.496 4.096.495-2.14.496-.516.496 1.409.495.938.496-.428.495-.79.496-6.106.495-.332.496-.192.495-1.786.496-.76.496-.498.495-.248.991 3.289.496-.593.495-.015.496 1.069.495.63.496.312.496-1.227.495-.731.496-1.148.495-.079.496-1.366.99 1.013.497.984.99 3.952.496-.488.496 2.606.99.077.496.718.496-.433.496.192.495 1.195.496.465.495-3.37.496.143.495 1.594.496.392.495 2.925.496.68.496.937.495 3.563.496-.003.99-.675.496-.726.496.464.495-2.118.992.034.99 2.286.496-.124.496.434.495 2.752.992.07.495 3.555.496-1.813.99 2.643.496-1.773.496.065.495-.077.496-1.752.496 1.608.99 2.177.496 2.185.991.252.991 1.183.992.364.495-1.328.991-.12 1.487 1.481.496-.17.495 2.44 1.487.326.495.279.496.744.495 1.157.496-1.215.991.022.496.903.495-.269.496.328.495-.131.496 1.534.495.086.496-.057.496-.78.495.844.991.5.496-.935.495.03.992-.112.495-.006.496-.532.495-.094.496.77.495-.179.496.255.991-.527.496-.123.99-.97.496.188.496-.23.495.21.496.859.495-1.143.496.222.496 1.252.495.002.496.27.495-.479.496-1.394.99 1.218.496-2.08.992-.052.99.465.496-1.409.991 3.486.496.084.496-.098.495-.874.496-.546.495.02.496-3.645.495-2.063.496-.188.495.02.496.221.991-2.943.496-.423.495 1.366 1.982-.029.496-.134.496-.632.495-.885 1.487-.01.495.554.496-1.666.991 1.538.496.014.495.13.496 2.353.495-1.424.496 3.375.495-.39.992-.03.495-.053.496.202.495 1.086.496-4.16.99-2.645.496.103.496-.07.496-1.702.495.27.991 6.122.496 1.563.99.145.497 1.742.495.1.496.539.495-1.287.496-.206.99.008.496-1.156 1.983 4.88 1.982.131.991-1.551.496-1.066.99.057.496.25.496.495.495 1.628.496-.002.495 1.268 1.983-.103.495-.269.496 1.04.495-1.712.992.204.495 1.094.496-.556.495-.98.496.237.495 1.614.991-.018.496-.738h0" clip-path="url(#pf2e1e9e0ef)" style="fill:none;stroke:#7516fd;stroke-width:1.5;stroke-linecap:square"/><path id="line2d_29" d="m67.645 287.328 21.805-.096 2.973-.23 2.973-.669 2.478-.67 3.965-.204 1.982.21 3.964.689 3.47.234 6.937.4 21.31.162 2.972-.027 3.965.062 11.398-.052 15.362-.273 2.974.06 3.964-.049 12.885-.374 3.964-.698 3.965-1.16.99-.613.992-.437 1.486-.996 1.487-.527 1.487-.462 1.982-.504.991-.062.991-.192 2.974.18 3.469.033 3.468.22.992-.112.99-.212.496-.022 1.487-.57.495-.25 1.487-.336.496-.34 1.982-.617.496-.014.495-.25.496.147.495-.259.496 1.658.495-.427.496.443 1.487.716.99-.018.992.384 1.486.164.496.302.496-1.563.495.536.496-.325.99-.175.992.14.496.466.495.295 1.982.662.991.455.992.19.495.02.991.38 2.478.636.496.015.99.335 1.983.324 2.973.787 3.965-.069 1.486-.105 1.983-.1 4.46-.12 3.964-1.018.991-.393.991-.199.992-.215 1.486-.671.991-.276 1.487-.242.496-.016.495.115.496.245.99.198.496.362.496.19.991-.468.991-.51.496-.193.99-1.032 1.983.02.496.059.495-.157 2.478-.071.496-.067.99.365 3.47 1.144.99.447.992.288.991.222.496.223 1.486.937.991.168 1.487.567.991.128.991.246.991.707 2.478.33.496-.112.495.082.991.36 2.974.33 1.982.12 1.982.34 1.982.018 6.443.096 6.442-.222 11.398-.65 1.487-.207h.495l.496-.244.99-.234 1.487-.317h.496l.496-.31.99-.249.992-.342h.991l.496-.22.99-.096 3.965-.432.991.063.991.097.991.074.992.218h.99l.992.283 1.486.271 1.487.096.991-.04.991-.09 5.452-.096 2.477-.107 2.974-1.118h.495l.496-.577.495-.182.496-.304.496-.587.495-.25h.991l.496-.62.495-.017.496.138.495-.29.496-.61h.991l.496-1.226.495-.54.991-1.744.496-.565h.991l.496-1.43.99-1.147.496-.744.496-.213h.99l.497-1.723 1.486-1.86.496-1.151h.99l.496-.177.992-.035.99.236h.992l.495.318.496.476.495-.119.496.128.496.641h.99l.496 1.291.496.257.99 1.582.496.507h.992l.495.973 1.487 1.217.495 2.5h.992l.495.324.496.115.495.276.991.106h.991l.496 4.007.496-5.307.99-1.985.496-2.764h.991l.496-5.776.495 4.1.992-1.894.495-1.762h.991l.496-2.305.991-2.974.991-4.91h.991l.496-5.87.99-5.115.496-3.416.496-2.453h.991l.496-5.013.495-1.75.496-2.183.495-1.62.496-2.88h.991l.496-2.934.495-.341.496-1.264.495-.576.496.425h.99l.497 1.71.495.508 1.487 2.289h.99l.992 3.127.496.536.495.947.496.457h.99l.496 1.713.496.186.495 1.111.496.277.496-.336h.99l.496-2.033.496 5.992.495-9.14.496-2.555.495-1.73h.992l.495-4.345.496-9.76.495 5.401.496-1.579.495-2.209h.992l.495-.406 1.487-3.326.99.066h.496l.496 2.63.496-.75.495.75.991 4.29h.991l.496 5.846 1.487 9.01.495 3.792h.991l.496 3.666.495.864.992 3.683.495 8.6h.991l.496 11.628.495-5.614.991-2.121.496-7.937h.991l.496-9.536.495 6.889 1.487 8.502h.991l.496 4.48.495 1.142.991 3.384.496.812h.99l.497.93.495.292.991.826.496.789h.99l.496.676.992 2.27.495 1.485.496.986h.99l1.487 3.317.496 2.881.496.361.495-2.132h.496l.495 2.328.496.125.495-.285.496-2.38.495-.056.496 2.132h.991l.496.77 1.486-4.614h.992l.99-6.397.496-.377.496-.565.495 2.442h.991l.992-1.656.99-2.802.496-3.93h.991l.496-.143.991-1.666.496-.654.495-.24h.991l.496-.535.495-.254.496.158 1.487-.36.99.079.496-.356.496.153.495-.821.496.394h.991l.496-1.16.495-.292.496-.657.495.762.991.092h.496l.496 1.523.99 1.69.496 1.594.496 1.13h.99l.497 1.234.99 3.772.992 2.688h.99l.496.847.496 1.177.991 1.458.496.474h.99l.496.185.496.734.495.262 1.983.212.495.467.496.163.495.71.991.925h.992l.495.153 1.982 1.117h.992l1.486.564.991-.232 1.487-.04 1.487-.711.495-.135h.991l1.983-1.356.495-.592h.991l.496-.508.495-1.425.496-1.918.496-1.074.495-2.237h.991l.496 2.305.495.757.496-1.851.495-2.632.496-3.815h.991l.991-10.842.496-.158.495-.624.496 2.94h.991l.496 1.509.495 1.103.496.328.99 2.469h.992l.496.828 1.982 6.797h.99l.496 1.32.992 6.469.495.013.496.239h.99l.496.434.496-.613.495-.877.496 1.961.496 1.126h.99l.496.514.496.682.495.452.991.563h.992l.495.15.991.53.991-.354 1.487.032.496-.24.495-.514.496.097 2.478-.186.495-.077.991-.468h.991l2.478-1.201 1.487-.07.495-.063.992-.36 1.486-.035.496 1.684.495 1.024.496-.388.495-1.254.496.86h.991l.496-2.001.495-.099.496 1.56.495 2.583.496.526h.991l.496.503.495.688.991.846.496.126h.99l.497.653.99.69.992.244 2.478-.095.99-.29h.992l1.982-.537 1.487-.052 1.982-.029.495.608.496-.659.991-.097.991-.193.496-.109.495-.754.496.659h.496l.495.277 1.982-.971h.991l.496-.833h0" clip-path="url(#pf2e1e9e0ef)" style="fill:none;stroke:#d8b009;stroke-width:1.5;stroke-linecap:square"/><path id="line2d_30" d="m67.645 287.328 34.194-.103 9.91-.019 12.885.11 21.31-.047 11.397-.207 7.434-.175 5.946.119 17.84.174 6.938-.03 12.39-.1 12.884-.49 6.442-.12 6.442-.23 1.983-.085.99.03 1.487-.219.992-.383.99-.38.992-.059 1.982.134 2.973.149 2.478.458 4.956.656 3.964.308 10.407.153 5.451-.058 5.451-.202 8.425-.587 5.451-.452 3.964-.156.992.16 4.46-.52 12.389 1.411 4.46.243 2.973.017 8.425-.182 2.477-.222 3.47-.453.99-.08.991-.31.992-.492 1.982-1.197 3.469-1.474.495.067.991-.267 1.487-.615.496-.138.99-.856 1.487-.842.496-.22 1.487-.185.99.097 1.983.638.991.55 1.487 1.024.991.617 2.478 1.777 1.486.685 1.983.804.495.096.991.396 2.478.465.991.064 1.487.201 2.478.193 4.46.168 21.309.158 17.84-.15.991-.147.991-.474.991-.77.991-.528.496-.527.991-1.483 1.487-2.4 1.982-5.366.991-2.61.496-1.17 2.973-9.018.991-1.727 1.487-3.195.495-.853.496-.583.496-.346.495-.957.496-.143.495.232.496-.008.495 1.66.496.616.496.388.495.833 1.487 1.083.495-.642.991.694.496.715.496.52.495 1.666.496 1.082.99.843.496.04.496.208.495.38.496-.443.496.096.99.894.992 1.252 1.982 1.669 1.487.526 1.486.999.992 1.08.495.236.496 1.51.495.812.991.269 1.487-.426.496-1.2.495-.6 4.46-.887.991-.277 1.983-.508.495.12.496.25 1.982 1.835.991.73.496.18 1.982.106.99.572.496.926.496.571.496.274.495.493 1.487 2.736.99-1.45.992-1.01 1.487-2.885.495-.005 1.487.93.991.315.991.28 1.487.537.991.767 2.973 2.954.991.934.992.643.99.393 1.487.562.992.224 3.964.383 1.487-.094 1.982-.289.991-.492 1.487-1.09.99-.798.496-.827.992-2.31.99-2.793.496-1.511.496-1 .99-4.34 2.479-12.234.495.457.496-2.849 1.982-16.755.496-2.471.495-6.365.991-5.101.991-2.332.496-1.044.991-1.356.496-1.969.495-.274.496-.609.495-.257.496-.425.495.091 1.487-.174.496 3.189.495 2.151.496 1.378.495-.034.496 2.274.495.929.496-.755.496-4.528.495-3.413.496-2.346.495-.12.496-2.077.495-.595.496 1.7 1.487 10.314.495 2.212.496 2.742 1.486 10.166.992 5.245.495 1.367 1.487 5.774 1.486 4.293.496.743.991 2.656.991 2.45.991 1.924.496.726.495 2.74.496 1.493.496.418.495.595.496 1.557.495.848.496-.27.495-.588.496.974.991 3.061.496.178.495.856.496 1.392.495.196 1.983 1.637.495.32.496.105.495 1.305.496-.204.495-.6 1.487-1.099.496-.115.495-1.431.496.096.495.47.496.246.99-.012.497-.073 1.486-.921.991-.884.496-.478.495-.27.992-1.848.495-1.214.496.254.99-2.72.496-.455 1.487-2.171.496-1.965.495-.26.496-.123.495-.291 1.487-2.54.991-1.083.496-.433.495-.24.991-2.31.496 1.547.991-3.313.496-1.019.495-.328.496-.68.495-.247.496-2.851.495.388.496.772.495.438.496.073.496-.107.495-.54.991-1.57.991-2.738.496-.722 1.487-5.71.99-2.412.496-.837.991-.916 1.487-2.55.496-.944.495-.658.496-.311.495-.848.991-.832.496 1.204.991 6.522.496.049.99 11.01.496-1.71.496-4.748.991-11.523.496-.935.495.635.496-4.641.495 2.033 1.487 14.246.496 2.009.495-2.347 1.487 11.008.99 4.757.496 1.07.496 1.62.991 4.037.991 2.594.496.968.495.547.496 2.29.495 1.17 1.983 2.799.495.285.496.116.99 1.29.992 1.105.496.919.495.303 1.982 2.313.496.503.496-.025.495.118.991 1.118.496.302.495.594 1.487.285h0" clip-path="url(#pf2e1e9e0ef)" style="fill:none;stroke:#53a577;stroke-width:1.5;stroke-linecap:square"/><path id="line2d_31" d="m67.645 287.328 31.716-.104 5.451-.405 2.478-.477 2.478-.658 4.46-.604 1.982-.785.991-.434.991-.195 2.973-.017 3.965.546 1.487.071 3.964.067 2.478-.033 5.947.246 4.955.424 2.974.071 23.29.632 6.443-.026 9.416-.38 1.982-.26 3.469-.759 7.433-1.904 1.983-.398 1.982-.23 1.486-.15 2.478-.497 1.982-.403.992-.29.99-.113 3.47-.555 5.946-1.273 3.47-.463 1.981-.045 1.487.07 2.974-.161 1.486-.223 1.487-.043 2.973.544 1.487.539.991.309 1.487.369.99.063.496.067 1.983-.164 1.486.17 6.443 1.682.99.179 2.478.513 4.46.758 6.443.952 1.982.054 4.46.47 4.46.12 4.956.177 20.813.055 1.982-.073 2.974.048 1.982-.07 4.46-.12.991-.212.991-.387.991-.48.992-.35.495-.112 1.487-.58 8.424-2.857 2.974-.306 4.46.122 1.982.27 13.876 1.1 1.982.304 2.478.272 5.45.195 1.983-.145 6.442-1.09 1.983-.565 6.937-2.447 2.974-1.453.99-.234 2.479-.675.495-.257 1.982-.426.992-.09.99.146.496-.003.496.12.99.01.992.126 1.487.241 1.486.422 1.487.357 2.973.754 4.46.462 1.983.494 6.442 1.564 3.964 1.719 1.487.89.991.472.991.254.991-.056.496-.107.991-.628.991-1.148 1.983-3.024.99-2.715 1.487-5.107.991-4.42.992-5.09 1.982-11.803 1.982-12.67.991-4.265 1.487-5.726.495-1.275.496-.844.496-.405.495-.05.496.194.495.813 1.487 3.761.991 3 .991 4.389 1.487 8.105.99 3.972 1.488 5.535 5.45 19.105.496 1.07 1.983 2.954.99 1.072 1.983 1.794 1.982 1.419 3.965 2.226 1.486.616 2.478.745 4.956 1.126 9.415 1.329 1.983.033 1.486-.05 8.92.337 7.434.25 5.45.007 4.956-.175 2.974-.377 3.469-.818 2.478-1.185.99-.433.992-.616 3.469-2.731 3.469-2.96.99-1.065 3.965-2.882 1.982-1.094.496-.222 2.973-.413.496-.088 4.46-2.151.991-.193.496.12.99.613 1.983 2.047.991 1.503 1.487 2.466 2.478 3.623.99.959 2.974 2.172 2.973 1.416 1.983.627 2.973.551 2.478.378 2.478.228 5.45-.046 4.46-.218 7.93-.487 2.973.067 2.478.208 2.973.463 2.478.595.991.057 1.982-.277 2.974-.375 5.946-.637 4.956-1.183 3.965-1.018 1.982-.145.495.076 1.487.551h0" clip-path="url(#pf2e1e9e0ef)" style="fill:none;stroke:#5feb16;stroke-width:1.5;stroke-linecap:square"/><path id="line2d_32" d="m67.645 287.328 15.362-.104 3.47-.105 7.433.174 10.406.02 23.292.003 99.112-.263 4.46-.072 4.46.019 8.424.158 9.416.038 30.229-.068 9.911-.03 8.425.016 5.946.007 11.894.049 7.929-.126 5.946-.21 18.336-.133 5.947.052 7.433-.08 1.487.008 2.973-.265 1.487.081 4.46.203 5.947.162 2.973-.13 3.965-.151 5.45-.122 7.434-.586 2.973-.457 1.983-.332 2.973-.103 3.469.268 2.478.38 3.469.39 1.982.07 1.982-.084 1.982-.2 2.478-.704.496-.22.99-.742 3.965-3.734 1.983-3.757 1.486-4.269 1.983-3.735.99-3.92.992-5.063.99-4.374.496-2.08.992-7.748 1.982-10.947 1.486-5.694.992-9.278.99-7.417.496-3.127.991-12.363.496-.792.991-11.576.496-4.86.495-7.833.496-2.861.495-14.417.496-6.087.495.114.496.759.496 4.937.495.422.496-4.416.495 11.077.496 3.319.495 2.25.496.813.495 1.078.496.311 1.982 13.333.496 4.113.495 2.946.496 3.993.495 6.787.992 8.382.99 7.283.496 1.78.496 2.714.991 8.206 1.487 11.217.495 2.12.991 8.652.991 5.025.992 2.98.495.657.991 3.566.496 4.457.495-1.324.991 2.9.496.701.991 2.798.496-2.075.495 3.988.496.182.99-.137.497.055.99.566.496-.28.496.491.495.718.496.359.991 1.345 1.487 1.04.495.3.496.163 2.973 2.439.496.188 1.486 1.285.991.315.992.193.495.54.496.12.495-.11 1.487.455.496.058.495-.176 1.487.5 1.486.156 3.47.071.99-.1 1.487-.411.991-.326 1.983-1.762 1.486-1.293 1.982-3.94.992-2.01.495-.667 1.487-5.118.99-2.795.496-1.232.496-.47.991-2.43 1.487-2.322.99-.833.497-.61.99-1.925 1.487-4.327.496-.52.991-3.434.496-1.44 1.486-2.15.496-.334.495 3.224.496-1.42.495-2.025.496-.494.496-.238.495.425.496.15.495-3.238.496 2.036.495 3.2.991 3.507.496 1.26.496.78 1.486 4.986.496.566.991 1.426.496.275.99 1.679.496.437.496.988.99 3.966.496.03.496 2.082.496 4.195.495-4.55.496.861.495-.033.496-.322.495.86.496.464.495-2.023.496 6.495.496 1.117.495.691.496.44.495.257.496.417.495.25 2.478.46.496 1.126.99.18 1.983 1.121.496.046.495.207.496.082.99-.23.992-.288.496-.87 1.486.071 1.487-.594 2.973-3.01.496-.207 1.487-1.987.495-.37.991-.281.496-.008.495-.192.991-.797 1.983-2.028.495-.52.496-.203.495-.003.991.436.992.153h.495l1.982-.68.992-.013 2.973.364.495-.04.992-.66.99-.88.992-.865.495-.123.991-.937 1.983-.874.99-.082 1.488-.51 2.477.138.991.357.992.198.495.138.991.76.991.764.991.986.496.178 1.982 4.054.991 1.534.496.244.991 1.829.991 1.298.496.442.495.783.496.241.495 1.371.496.853.991-.47.496.204.495-.11.496.089.495-.362.496-.043.991 1.717.496.435.495.238.991.249 1.487.301.495.712.496-.525.991.119 1.487.353.495-.522.496.708.991.164 1.982.278.496.504.495-.437.496.052h0" clip-path="url(#pf2e1e9e0ef)" style="fill:none;stroke:#2f618f;stroke-width:1.5;stroke-linecap:square"/><g id="text_19" style="fill:#7516fd" transform="matrix(.14 0 0 -.14 642.385 257.034)"><defs><path id="DejaVuSans-55" d="M556 4666h635V1831q0-750 271-1080 272-329 882-329 606 0 878 329 272 330 272 1080v2835h634V1753q0-912-452-1378Q3225-91 2344-91q-885 0-1337 466-451 466-451 1378v2913z" transform="scale(.01563)"/><path id="DejaVuSans-53" d="M3425 4513v-616q-359 172-678 256-319 85-616 85-515 0-795-200t-280-569q0-310 186-468 186-157 705-254l381-78q706-135 1042-474t336-907q0-679-455-1029Q2797-91 1919-91q-331 0-705 75-373 75-773 222v650q384-215 753-325 369-109 725-109 540 0 834 212 294 213 294 607 0 343-211 537t-692 291l-385 75q-706 140-1022 440-315 300-315 835 0 619 436 975t1201 356q329 0 669-60 341-59 697-177z" transform="scale(.01563)"/></defs><use xlink:href="#DejaVuSans-55"/><use xlink:href="#DejaVuSans-53" x="73.193"/></g><g id="text_20" style="fill:#d8b009" transform="matrix(.14 0 0 -.14 642.385 271.034)"><defs><path id="DejaVuSans-47" d="M3809 666v1253H2778v519h1656V434q-365-259-806-392-440-133-940-133-1094 0-1712 639-617 640-617 1780 0 1144 617 1783 618 639 1712 639 456 0 867-113 411-112 758-331v-672q-350 297-744 447t-828 150q-857 0-1287-478-429-478-429-1425 0-944 429-1422 430-478 1287-478 334 0 596 58 263 58 472 180z" transform="scale(.01563)"/><path id="DejaVuSans-65" d="M3597 1894v-281H953q38-594 358-905t892-311q331 0 642 81t618 244V178Q3153 47 2828-22t-659-69q-838 0-1327 487-489 488-489 1320 0 859 464 1363 464 505 1252 505 706 0 1117-455 411-454 411-1235zm-575 169q-6 471-264 752-258 282-683 282-481 0-770-272t-333-766l2050 4z" transform="scale(.01563)"/><path id="DejaVuSans-72" d="M2631 2963q-97 56-211 82-114 27-251 27-488 0-749-317t-261-911V0H581v3500h578v-544q182 319 472 473 291 155 707 155 59 0 131-8 72-7 159-23l3-590z" transform="scale(.01563)"/><path id="DejaVuSans-6d" d="M3328 2828q216 388 516 572t706 184q547 0 844-383 297-382 297-1088V0h-578v2094q0 503-179 746-178 244-543 244-447 0-707-297-259-296-259-809V0h-578v2094q0 506-178 748t-550 242q-441 0-701-298-259-298-259-808V0H581v3500h578v-544q197 322 472 475t653 153q382 0 649-194 267-193 395-562z" transform="scale(.01563)"/><path id="DejaVuSans-61" d="M2194 1759q-697 0-966-159t-269-544q0-306 202-486 202-179 548-179 479 0 768 339t289 901v128h-572zm1147 238V0h-575v531q-197-318-491-470T1556-91q-537 0-855 302-317 302-317 808 0 590 395 890 396 300 1180 300h807v57q0 397-261 614t-733 217q-300 0-585-72-284-72-546-216v532q315 122 612 182 297 61 578 61 760 0 1135-394 375-393 375-1193z" transform="scale(.01563)"/><path id="DejaVuSans-6e" d="M3513 2113V0h-575v2094q0 497-194 743-194 247-581 247-466 0-735-297-269-296-269-809V0H581v3500h578v-544q207 316 486 472 280 156 646 156 603 0 912-373 310-373 310-1098z" transform="scale(.01563)"/><path id="DejaVuSans-79" d="M2059-325q-243-625-475-815-231-191-618-191H506v481h338q237 0 368 113 132 112 291 531l103 262L191 3500h609L1894 763l1094 2737h609L2059-325z" transform="scale(.01563)"/></defs><use xlink:href="#DejaVuSans-47"/><use xlink:href="#DejaVuSans-65" x="77.49"/><use xlink:href="#DejaVuSans-72" x="139.014"/><use xlink:href="#DejaVuSans-6d" x="178.377"/><use xlink:href="#DejaVuSans-61" x="275.789"/><use xlink:href="#DejaVuSans-6e" x="337.068"/><use xlink:href="#DejaVuSans-79" x="400.447"/></g><g id="text_21" style="fill:#53a577" transform="matrix(.14 0 0 -.14 642.385 285.034)"><defs><path id="DejaVuSans-4a" d="M628 4666h631V325q0-844-320-1225T-91-1281h-240v531h197q418 0 590 235 172 234 172 840v4341z" transform="scale(.01563)"/><path id="DejaVuSans-70" d="M1159 525v-1856H581v4831h578v-531q182 312 458 463 277 152 661 152 638 0 1036-506 399-506 399-1331T3314 415Q2916-91 2278-91q-384 0-661 152-276 152-458 464zm1957 1222q0 634-261 995t-717 361q-457 0-718-361t-261-995q0-634 261-995t718-361q456 0 717 361t261 995z" transform="scale(.01563)"/></defs><use xlink:href="#DejaVuSans-4a"/><use xlink:href="#DejaVuSans-61" x="29.492"/><use xlink:href="#DejaVuSans-70" x="90.771"/><use xlink:href="#DejaVuSans-61" x="154.248"/><use xlink:href="#DejaVuSans-6e" x="215.527"/></g><g id="text_22" style="fill:#5feb16" transform="matrix(.14 0 0 -.14 642.385 299.034)"><defs><path id="DejaVuSans-52" d="M2841 2188q203-69 395-294t386-619L4263 0h-679l-596 1197q-232 469-449 622t-592 153h-688V0H628v4666h1425q800 0 1194-335 394-334 394-1009 0-441-205-732-205-290-595-402zM1259 4147V2491h794q456 0 689 211t233 620q0 409-233 617t-689 208h-794z" transform="scale(.01563)"/><path id="DejaVuSans-75" d="M544 1381v2119h575V1403q0-497 193-746 194-248 582-248 465 0 735 297 271 297 271 810v1984h575V0h-575v538q-209-319-486-474-276-155-642-155-603 0-916 375-312 375-312 1097zm1447 2203z" transform="scale(.01563)"/><path id="DejaVuSans-73" d="M2834 3397v-544q-243 125-506 187-262 63-544 63-428 0-642-131t-214-394q0-200 153-314t616-217l197-44q612-131 870-370t258-667q0-488-386-773Q2250-91 1575-91q-281 0-586 55T347 128v594q319-166 628-249 309-82 613-82 406 0 624 139 219 139 219 392 0 234-158 359-157 125-692 241l-200 47q-534 112-772 345-237 233-237 639 0 494 350 762 350 269 994 269 318 0 599-47 282-46 519-140z" transform="scale(.01563)"/><path id="DejaVuSans-69" d="M603 3500h575V0H603v3500zm0 1363h575v-729H603v729z" transform="scale(.01563)"/></defs><use xlink:href="#DejaVuSans-52"/><use xlink:href="#DejaVuSans-75" x="64.982"/><use xlink:href="#DejaVuSans-73" x="128.361"/><use xlink:href="#DejaVuSans-73" x="180.461"/><use xlink:href="#DejaVuSans-69" x="232.561"/><use xlink:href="#DejaVuSans-61" x="260.344"/></g><g id="text_23" style="fill:#2f618f" transform="matrix(.14 0 0 -.14 642.385 313.034)"><defs><path id="DejaVuSans-4b" d="M628 4666h631V2694l2094 1972h813L1850 2491 4331 0h-831L1259 2247V0H628v4666z" transform="scale(.01563)"/><path id="DejaVuSans-6f" d="M1959 3097q-462 0-731-361t-269-989q0-628 267-989 268-361 733-361 460 0 728 362 269 363 269 988 0 622-269 986-268 364-728 364zm0 487q750 0 1178-488 429-487 429-1349 0-859-429-1349Q2709-91 1959-91q-753 0-1180 489-426 490-426 1349 0 862 426 1349 427 488 1180 488z" transform="scale(.01563)"/><path id="DejaVuSans-2c" d="M750 794h659V256L897-744H494L750 256v538z" transform="scale(.01563)"/><path id="DejaVuSans-74" d="M1172 4494v-994h1184v-447H1172V1153q0-428 117-550t477-122h590V0h-590q-666 0-919 248-253 249-253 905v1900H172v447h422v994h578z" transform="scale(.01563)"/><path id="DejaVuSans-68" d="M3513 2113V0h-575v2094q0 497-194 743-194 247-581 247-466 0-735-297-269-296-269-809V0H581v4863h578V2956q207 316 486 472 280 156 646 156 603 0 912-373 310-373 310-1098z" transform="scale(.01563)"/></defs><use xlink:href="#DejaVuSans-4b"/><use xlink:href="#DejaVuSans-6f" x="60.576"/><use xlink:href="#DejaVuSans-72" x="121.758"/><use xlink:href="#DejaVuSans-65" x="160.621"/><use xlink:href="#DejaVuSans-61" x="222.145"/><use xlink:href="#DejaVuSans-2c" x="283.424"/><use xlink:href="#DejaVuSans-20" x="315.211"/><use xlink:href="#DejaVuSans-53" x="346.998"/><use xlink:href="#DejaVuSans-6f" x="410.475"/><use xlink:href="#DejaVuSans-75" x="471.656"/><use xlink:href="#DejaVuSans-74" x="535.035"/><use xlink:href="#DejaVuSans-68" x="574.244"/></g></g></g><defs><clipPath id="pf2e1e9e0ef"><path d="M67.645 10.128h558v277.2h-558z"/></clipPath></defs></svg>