<svg xmlns:xlink="http://www.w3.org/1999/xlink" width="992.186" height="418.485" viewBox="0 0 744.14 313.864" xmlns="http://www.w3.org/2000/svg"><defs><style>*{stroke-linejoin:round;stroke-linecap:butt}</style></defs><g id="figure_1"><path d="M0 313.864h744.14V0H0v313.864z" style="fill:none" id="patch_1"/><g id="axes_1"><path d="M49.83 284.4h558V7.2h-558v277.2z" style="fill:none" id="patch_2"/><g id="matplotlib.axis_1"><g id="xtick_1"><g id="line2d_1"><defs><path id="m0031511a8e" d="M0 0v3.5" style="stroke:#b0b0b0;stroke-width:.4"/></defs><use xlink:href="#m0031511a8e" x="90.092" y="284.4" style="fill:#b0b0b0;stroke:#b0b0b0;stroke-width:.4"/></g><g style="fill:#b0b0b0" transform="matrix(.14 0 0 -.14 60.844 302.038)" id="text_1"><defs><path id="DejaVuSans-32" d="M1228 531h2203V0H469v531q359 372 979 998 621 627 780 809 303 340 423 576 121 236 121 464 0 372-261 606-261 235-680 235-297 0-627-103-329-103-704-313v638q381 153 712 231 332 78 607 78 725 0 1156-363 431-362 431-968 0-288-108-546-107-257-392-607-78-91-497-524-418-433-1181-1211z" transform="scale(.01563)"/><path id="DejaVuSans-30" d="M2034 4250q-487 0-733-480-245-479-245-1442 0-959 245-1439 246-480 733-480 491 0 736 480 246 480 246 1439 0 963-246 1442-245 480-736 480zm0 500q785 0 1199-621 414-620 414-1801 0-1178-414-1799Q2819-91 2034-91q-784 0-1198 620-414 621-414 1799 0 1181 414 1801 414 621 1198 621z" transform="scale(.01563)"/><path id="DejaVuSans-2d" d="M313 2009h1684v-512H313v512z" transform="scale(.01563)"/><path id="DejaVuSans-34" d="M2419 4116 825 1625h1594v2491zm-166 550h794V1625h666v-525h-666V0h-628v1100H313v609l1940 2957z" transform="scale(.01563)"/></defs><use xlink:href="#DejaVuSans-32"/><use xlink:href="#DejaVuSans-30" x="63.623"/><use xlink:href="#DejaVuSans-32" x="127.246"/><use xlink:href="#DejaVuSans-30" x="190.869"/><use xlink:href="#DejaVuSans-2d" x="254.492"/><use xlink:href="#DejaVuSans-30" x="290.576"/><use xlink:href="#DejaVuSans-34" x="354.199"/></g></g><g id="xtick_2"><use xlink:href="#m0031511a8e" x="147.338" y="284.4" style="fill:#b0b0b0;stroke:#b0b0b0;stroke-width:.4" id="line2d_2"/><g style="fill:#b0b0b0" transform="matrix(.14 0 0 -.14 118.09 302.038)" id="text_2"><defs><path id="DejaVuSans-37" d="M525 4666h3000v-269L1831 0h-659l1594 4134H525v532z" transform="scale(.01563)"/></defs><use xlink:href="#DejaVuSans-32"/><use xlink:href="#DejaVuSans-30" x="63.623"/><use xlink:href="#DejaVuSans-32" x="127.246"/><use xlink:href="#DejaVuSans-30" x="190.869"/><use xlink:href="#DejaVuSans-2d" x="254.492"/><use xlink:href="#DejaVuSans-30" x="290.576"/><use xlink:href="#DejaVuSans-37" x="354.199"/></g></g><g id="xtick_3"><use xlink:href="#m0031511a8e" x="205.214" y="284.4" style="fill:#b0b0b0;stroke:#b0b0b0;stroke-width:.4" id="line2d_3"/><g style="fill:#b0b0b0" transform="matrix(.14 0 0 -.14 175.966 302.038)" id="text_3"><defs><path id="DejaVuSans-31" d="M794 531h1031v3560L703 3866v575l1116 225h631V531h1031V0H794v531z" transform="scale(.01563)"/></defs><use xlink:href="#DejaVuSans-32"/><use xlink:href="#DejaVuSans-30" x="63.623"/><use xlink:href="#DejaVuSans-32" x="127.246"/><use xlink:href="#DejaVuSans-30" x="190.869"/><use xlink:href="#DejaVuSans-2d" x="254.492"/><use xlink:href="#DejaVuSans-31" x="290.576"/><use xlink:href="#DejaVuSans-30" x="354.199"/></g></g><g id="xtick_4"><use xlink:href="#m0031511a8e" x="263.09" y="284.4" style="fill:#b0b0b0;stroke:#b0b0b0;stroke-width:.4" id="line2d_4"/><g style="fill:#b0b0b0" transform="matrix(.14 0 0 -.14 233.842 302.038)" id="text_4"><use xlink:href="#DejaVuSans-32"/><use xlink:href="#DejaVuSans-30" x="63.623"/><use xlink:href="#DejaVuSans-32" x="127.246"/><use xlink:href="#DejaVuSans-31" x="190.869"/><use xlink:href="#DejaVuSans-2d" x="254.492"/><use xlink:href="#DejaVuSans-30" x="290.576"/><use xlink:href="#DejaVuSans-31" x="354.199"/></g></g><g id="xtick_5"><use xlink:href="#m0031511a8e" x="319.708" y="284.4" style="fill:#b0b0b0;stroke:#b0b0b0;stroke-width:.4" id="line2d_5"/><g style="fill:#b0b0b0" transform="matrix(.14 0 0 -.14 290.46 302.038)" id="text_5"><use xlink:href="#DejaVuSans-32"/><use xlink:href="#DejaVuSans-30" x="63.623"/><use xlink:href="#DejaVuSans-32" x="127.246"/><use xlink:href="#DejaVuSans-31" x="190.869"/><use xlink:href="#DejaVuSans-2d" x="254.492"/><use xlink:href="#DejaVuSans-30" x="290.576"/><use xlink:href="#DejaVuSans-34" x="354.199"/></g></g><g id="xtick_6"><use xlink:href="#m0031511a8e" x="376.955" y="284.4" style="fill:#b0b0b0;stroke:#b0b0b0;stroke-width:.4" id="line2d_6"/><g style="fill:#b0b0b0" transform="matrix(.14 0 0 -.14 347.707 302.038)" id="text_6"><use xlink:href="#DejaVuSans-32"/><use xlink:href="#DejaVuSans-30" x="63.623"/><use xlink:href="#DejaVuSans-32" x="127.246"/><use xlink:href="#DejaVuSans-31" x="190.869"/><use xlink:href="#DejaVuSans-2d" x="254.492"/><use xlink:href="#DejaVuSans-30" x="290.576"/><use xlink:href="#DejaVuSans-37" x="354.199"/></g></g><g id="xtick_7"><use xlink:href="#m0031511a8e" x="434.831" y="284.4" style="fill:#b0b0b0;stroke:#b0b0b0;stroke-width:.4" id="line2d_7"/><g style="fill:#b0b0b0" transform="matrix(.14 0 0 -.14 405.583 302.038)" id="text_7"><use xlink:href="#DejaVuSans-32"/><use xlink:href="#DejaVuSans-30" x="63.623"/><use xlink:href="#DejaVuSans-32" x="127.246"/><use xlink:href="#DejaVuSans-31" x="190.869"/><use xlink:href="#DejaVuSans-2d" x="254.492"/><use xlink:href="#DejaVuSans-31" x="290.576"/><use xlink:href="#DejaVuSans-30" x="354.199"/></g></g><g id="xtick_8"><use xlink:href="#m0031511a8e" x="492.707" y="284.4" style="fill:#b0b0b0;stroke:#b0b0b0;stroke-width:.4" id="line2d_8"/><g style="fill:#b0b0b0" transform="matrix(.14 0 0 -.14 463.46 302.038)" id="text_8"><use xlink:href="#DejaVuSans-32"/><use xlink:href="#DejaVuSans-30" x="63.623"/><use xlink:href="#DejaVuSans-32" x="127.246"/><use xlink:href="#DejaVuSans-32" x="190.869"/><use xlink:href="#DejaVuSans-2d" x="254.492"/><use xlink:href="#DejaVuSans-30" x="290.576"/><use xlink:href="#DejaVuSans-31" x="354.199"/></g></g><g id="xtick_9"><use xlink:href="#m0031511a8e" x="549.325" y="284.4" style="fill:#b0b0b0;stroke:#b0b0b0;stroke-width:.4" id="line2d_9"/><g style="fill:#b0b0b0" transform="matrix(.14 0 0 -.14 520.077 302.038)" id="text_9"><use xlink:href="#DejaVuSans-32"/><use xlink:href="#DejaVuSans-30" x="63.623"/><use xlink:href="#DejaVuSans-32" x="127.246"/><use xlink:href="#DejaVuSans-32" x="190.869"/><use xlink:href="#DejaVuSans-2d" x="254.492"/><use xlink:href="#DejaVuSans-30" x="290.576"/><use xlink:href="#DejaVuSans-34" x="354.199"/></g></g><g id="xtick_10"><use xlink:href="#m0031511a8e" x="606.572" y="284.4" style="fill:#b0b0b0;stroke:#b0b0b0;stroke-width:.4" id="line2d_10"/><g style="fill:#b0b0b0" transform="matrix(.14 0 0 -.14 577.324 302.038)" id="text_10"><use xlink:href="#DejaVuSans-32"/><use xlink:href="#DejaVuSans-30" x="63.623"/><use xlink:href="#DejaVuSans-32" x="127.246"/><use xlink:href="#DejaVuSans-32" x="190.869"/><use xlink:href="#DejaVuSans-2d" x="254.492"/><use xlink:href="#DejaVuSans-30" x="290.576"/><use xlink:href="#DejaVuSans-37" x="354.199"/></g></g></g><g id="matplotlib.axis_2"><g id="ytick_1"><path d="M49.83 284.4h558" clip-path="url(#pf0c1a1c6e5)" style="fill:none;stroke:#b0b0b0;stroke-width:.3;stroke-linecap:square" id="line2d_11"/><g id="line2d_12"><defs><path id="m3b19a1e6e5" d="M0 0h-3.5" style="stroke:#b0b0b0;stroke-width:.3"/></defs><use xlink:href="#m3b19a1e6e5" x="49.83" y="284.4" style="fill:#b0b0b0;stroke:#b0b0b0;stroke-width:.3"/></g><use xlink:href="#DejaVuSans-30" style="fill:#b0b0b0" transform="matrix(.14 0 0 -.14 33.922 289.719)" id="text_11"/></g><g id="ytick_2"><path d="M49.83 243.468h558" clip-path="url(#pf0c1a1c6e5)" style="fill:none;stroke:#b0b0b0;stroke-width:.3;stroke-linecap:square" id="line2d_13"/><use xlink:href="#m3b19a1e6e5" x="49.83" y="243.468" style="fill:#b0b0b0;stroke:#b0b0b0;stroke-width:.3" id="line2d_14"/><g style="fill:#b0b0b0" transform="matrix(.14 0 0 -.14 16.108 248.787)" id="text_12"><defs><path id="DejaVuSans-35" d="M691 4666h2478v-532H1269V2991q137 47 274 70 138 23 276 23 781 0 1237-428 457-428 457-1159 0-753-469-1171Q2575-91 1722-91q-294 0-599 50Q819 9 494 109v635q281-153 581-228t634-75q541 0 856 284 316 284 316 772 0 487-316 771-315 285-856 285-253 0-505-56-251-56-513-175v2344z" transform="scale(.01563)"/></defs><use xlink:href="#DejaVuSans-35"/><use xlink:href="#DejaVuSans-30" x="63.623"/><use xlink:href="#DejaVuSans-30" x="127.246"/></g></g><g id="ytick_3"><path d="M49.83 202.537h558" clip-path="url(#pf0c1a1c6e5)" style="fill:none;stroke:#b0b0b0;stroke-width:.3;stroke-linecap:square" id="line2d_15"/><use xlink:href="#m3b19a1e6e5" x="49.83" y="202.537" style="fill:#b0b0b0;stroke:#b0b0b0;stroke-width:.3" id="line2d_16"/><g style="fill:#b0b0b0" transform="matrix(.14 0 0 -.14 7.2 207.856)" id="text_13"><use xlink:href="#DejaVuSans-31"/><use xlink:href="#DejaVuSans-30" x="63.623"/><use xlink:href="#DejaVuSans-30" x="127.246"/><use xlink:href="#DejaVuSans-30" x="190.869"/></g></g><g id="ytick_4"><path d="M49.83 161.605h558" clip-path="url(#pf0c1a1c6e5)" style="fill:none;stroke:#b0b0b0;stroke-width:.3;stroke-linecap:square" id="line2d_17"/><use xlink:href="#m3b19a1e6e5" x="49.83" y="161.605" style="fill:#b0b0b0;stroke:#b0b0b0;stroke-width:.3" id="line2d_18"/><g style="fill:#b0b0b0" transform="matrix(.14 0 0 -.14 7.2 166.924)" id="text_14"><use xlink:href="#DejaVuSans-31"/><use xlink:href="#DejaVuSans-35" x="63.623"/><use xlink:href="#DejaVuSans-30" x="127.246"/><use xlink:href="#DejaVuSans-30" x="190.869"/></g></g><g id="ytick_5"><path d="M49.83 120.674h558" clip-path="url(#pf0c1a1c6e5)" style="fill:none;stroke:#b0b0b0;stroke-width:.3;stroke-linecap:square" id="line2d_19"/><use xlink:href="#m3b19a1e6e5" x="49.83" y="120.674" style="fill:#b0b0b0;stroke:#b0b0b0;stroke-width:.3" id="line2d_20"/><g style="fill:#b0b0b0" transform="matrix(.14 0 0 -.14 7.2 125.993)" id="text_15"><use xlink:href="#DejaVuSans-32"/><use xlink:href="#DejaVuSans-30" x="63.623"/><use xlink:href="#DejaVuSans-30" x="127.246"/><use xlink:href="#DejaVuSans-30" x="190.869"/></g></g><g id="ytick_6"><path d="M49.83 79.742h558" clip-path="url(#pf0c1a1c6e5)" style="fill:none;stroke:#b0b0b0;stroke-width:.3;stroke-linecap:square" id="line2d_21"/><use xlink:href="#m3b19a1e6e5" x="49.83" y="79.742" style="fill:#b0b0b0;stroke:#b0b0b0;stroke-width:.3" id="line2d_22"/><g style="fill:#b0b0b0" transform="matrix(.14 0 0 -.14 7.2 85.061)" id="text_16"><use xlink:href="#DejaVuSans-32"/><use xlink:href="#DejaVuSans-35" x="63.623"/><use xlink:href="#DejaVuSans-30" x="127.246"/><use xlink:href="#DejaVuSans-30" x="190.869"/></g></g><g id="ytick_7"><path d="M49.83 38.81h558" clip-path="url(#pf0c1a1c6e5)" style="fill:none;stroke:#b0b0b0;stroke-width:.3;stroke-linecap:square" id="line2d_23"/><use xlink:href="#m3b19a1e6e5" x="49.83" y="38.811" style="fill:#b0b0b0;stroke:#b0b0b0;stroke-width:.3" id="line2d_24"/><g style="fill:#b0b0b0" transform="matrix(.14 0 0 -.14 7.2 44.13)" id="text_17"><defs><path id="DejaVuSans-33" d="M2597 2516q453-97 707-404 255-306 255-756 0-690-475-1069Q2609-91 1734-91q-293 0-604 58T488 141v609q262-153 574-231 313-78 654-78 593 0 904 234t311 681q0 413-289 645-289 233-804 233h-544v519h569q465 0 712 186t247 536q0 359-255 551-254 193-729 193-260 0-557-57-297-56-653-174v562q360 100 674 150t592 50q719 0 1137-327 419-326 419-882 0-388-222-655t-631-370z" transform="scale(.01563)"/></defs><use xlink:href="#DejaVuSans-33"/><use xlink:href="#DejaVuSans-30" x="63.623"/><use xlink:href="#DejaVuSans-30" x="127.246"/><use xlink:href="#DejaVuSans-30" x="190.869"/></g></g></g><path d="m49.83 284.4 22.018-.082 3.145-.152 1.259-.012 1.258-.117 1.887-.21 1.258-.667 1.258-1.368 1.888-3.625.629-1.871.629-2.41.629-3.192.629-4.035.63-4.865.628-7.134.63-4.993.628-6.082 1.259-21.038 1.258-23.355.629-10.385 1.258-24.453.63-17.507.628-10.093 1.887-23.296 1.259-6.186.629 1.263.629-5.076.629.246.629 1.029.629 2.28.63-.97.628-3.04.63-.165.628 1.544.63-2.772.629-.923.629 2.514.629 6.713.629 8.923.629 2.76.629.83 1.258 5.8.63-.151.628 2.28.63 1.485.629.258.629.912.629 3.122.629 1.58.629 3.145.629 2.432.629 3.79 1.258 14.209.63 1.766.628 1.204.63 3.228.629 1.976.629-2.222.629 1.65.629 2.724.629 6.806.629 5.438.63 1.544.628 2.222.63 7.25.628 9.205.63.327 1.887 3.45.629.21.629-2.058.629-3.719.629 5.427.63 1.11.628 2.82.63 3.73.628 1.941.63 3.076.629.772.629 1.637.629 2.07.629.935.629-.982 1.887 3.976 1.258 2.819 1.259 3.765 1.258.655.629.55.629.07.629 1.72.629-.07.63.865.628-.082.63.105.628 2.105.63.456.629-2.222.629-.491.629 2.152 1.258-.035.629-6.959.63-1.45.628-3.426.63-1.708.628-5.099.63-1.824.628-.83.63 3.005.629-1.532.629.69.629-1.111.629-1.532.629-.035.63-1.205.628-2.21.63-3.193.628-1.286.63-2.234.629-.982.629-.748.629-6.643.629-1.59 1.258-5.24.63-.924.628-1.988.63.725.628 6.409.63-.421.628.608.63 1.696.629-1.322.629.421.629-1.017.629.304.629 2.105.63-1.333.628 1.473.63-.21.628.538.63-.491.629.83.629-1.579.629 9.8.629-.514.629 3.064 1.258 2.187.63.362.628.047.63-5.707.628-.292.63 1.555.629.012.629 1.029.629-.702.629 1.684.629 1.263.629.97.63-.303.628 1.918.63-.386.628 1.965.63 7.005.629-.363.629 1.778.629-2.152 1.258 1.625.629-1.122.63-8.42.628 1.824.63.152.628 2.117.63.889.628 1.227.63.164.629 1.942.629-1.497.629-.152.629.713.629-1.228.63-.433.628.772 1.258 3.544.63.058.629.573.629 1.439.629-.679.629-1.485.629 2.093.629-.116.63-.82.628-1.438.63-.198.628-1.111.63.631 1.258-2 .629 1.252.629.198.629-1.438.629.059.629-.936.63-1.79.628-2.163.63.105.628.363.63-2.28.629.198.629-.128.629-.76.629 1.93.629-2.13.629-1.192.629.432 1.258-1.438.63-6.56.628-1.427.63-1.895.629-2.374.629-1.778.629-.76.629-2.56.629 1.952.629-2.912.63-.491.628.538.63-3.555.628-2.48.63-.655.629-3.555.629-6.104 1.258-18.186 1.258-6.619.629-3.017.63-4.994.628-3.485.63 7.134 1.257 7.157.63-.28.629-2.877.629-5.345.629-7.344.629-17.928 1.258-23.53.63-4.187.628-2.631.63.386.628-3.918.63-.666.629-8.853.629-.983.629-2.818.629-.97.629-4.913.629-6.934.63-4.386.628 5.122.63-3.789.628-.889.63-2.163.629-3.579 1.258 9.11.629 15.46.629 9.93.629 3.496.63-.573.628-3.683.63-6.093.628-3.731 1.259-15.577.629-.27.629-.724 1.258-.62.629-8.303.629-21.835 1.258-14.817.63.994.628-8.361.63-.515.629 2.292.629 3.871.629-4.292.629.807.629 2.959.629 21.94.63-5.334.628-3.368.63.807.628.48.63 1.87.629-1.426.629-16.454.629 4.876.629 3.614.629 2.082.629 8.864.629-.397.63.128.628 5.1.63 2.549.628.175 1.259 1.626.629 5.052.629 3.976 1.258 10.268 1.258 16.22.63 5.134.628 3.871.63 4.854.628 15.94.63 10.478.629 6.783.629 2.795.629 4.783.629-.76.629-2.853.629-7.029.63-8.818.628 1.825 1.258 9.636.63 1.567.629-1.333.629 3.812.629 7.579.629 5.683.629 4.538.629-.094.63 4.339.628 7.005.63 1.977.628 11.437.63 4.105.629 3.356.629 6.152.629 2.198.629.316.629 5.847.629 4.023.629-.924.63 4.83.628 2.608.63-2.982.628 2 .63 4 .629-3.065.629 3.369.629-1.661.629-.444.629 4.093.629-.936.63.164.628 4.572 1.258 5.66.63.492.629 1.298.629 2 .629.783.629-17.787.629 1.204.629-.386.629.129.63.398.628-.246.63-.456.628 19.448.63 1.181.629.784.629.514.629-.666.629-.398.629.363.629.585.63-.34.628 1.135.63-.643.628.467.63.117.628 1.895.63-1.088.629.573.629-.584.629.152.629-.304.629.081.63-2.409.628 1.907.63 1.064.628.526.63 1.275 1.258 1.988.629 2.222.629.234.629.409 1.258 2.889.63-.246.628-.117.63-.97.628 1.473.63.982.629.106.629.526.629.9.629-.456.629 1.404.629-3.66.63-7.836.628 1.04.63 1.72.628.42.63 3.076.629.316.629 4.865.629 8.338.629.13.629-2.854.629-.082.63-1.567.628 3.578.63.866.628 2.56.63-.198.628 3.602.63.725.629 1.45.629-.117 1.258 2.772.629-.795.63 1.192.628.375.63-.807.628-.129.63-.269.629-.503.629.912.629.281.629.024.629 1.31.629.034.63 1.182.628.608.63 1.122.628.69 1.888 1.146.629-.28.629.503.629-.363.629.059.629-.83.63-1.264.628-.713.63-.012.628-1.251 1.259.269.629.234.629.42.629.784.629-.374.629.772.63-1.345.628-.667.63-.035.628-.725.63-1.883.628-.222.63-.538.629-3.649.629-.456.629-1.497.629-1.157.629-1.614 1.258-3.976.63-3.275.628-1.24.63.82.629-2.024 1.258-6.315.629-6.222.629.854.629-.292.629-.843.63-6.046.628-2.093.63-4.596.628-8.818.63-4.818.629-3.544.629-.257.629-3.719.629-5.227.629-4.292.629-5.263.63-3.064 1.257-2.643.63-4.573.628-.21.63-6.093.629-9.122.629-2.526.629-.105.629-1.766.629 12.268.629-6.807 1.258-6.514.63-6.08.628-2.223.63 1.03.629-17.157.629 1.778.629-4.994.629-2.327.629-.21.629-2.047.63-.27.628-1.344.63-6.397.628.514.63 2.187.629.2.629 2.268.629-2.152.629.246.629-.714.629.795.629 5.696.63 3.882.628.176.63.9.628 4.117.63 7.204.629-.07 1.887 12.244.629.573.629 9.169.63-4.491.628-6.467.63 3.742.628.386.63-1.1.629.211.629-7.262.629 4.666.629.655.629 1.93.629-.737.629.07.63 2.503.628 3.485.63 4.14.628 12.852 1.888 5.73.629.375.629 2.14.629 3.216.629 1.415.63 7.485.628-4.292.63-1.03 1.257.702.63-1.79.629 3.147.629 3.719.629-4.292.629-1.158.629.105.629-.304.63 1.474.628.152.63-5.263.628 7.952.63 1.31.629-.21.629.432.629-.374.629-.55.629 9.93.629 16.43.63 1.603.628-.293.63-7.999.628-2.14.63-3.204.629-39.06.629-13.765.629-4.292.629-1.357.629 7.391.629-.491.629 1.742.63 26.477.628-2.947.63.83.628.176.63-1.205.629.854.629-4.725.629 3.216.629-.35.629-.632.629.643.63-1.59.628-5.005.63 1.59.628-.9.63 12.922.629 5.403.629.795.629-2.198.629-4.959.629-2.467.629-1.603.629-.456 1.258-4.257.63-1.45.628.293.63 1.204.629-6.946.629-19.32.629-5.707 1.887-7.216.63-7.052.628-3.567.63-2.572.628-1.59.63-2.024.629 10.946.629-1.403.629-8.116.629-5.614.629-8.163.629-.315.629.116.63-12.712.628-6.595.63-4.21.628 2.607.63-8.712.629-2.363.629 2.912.629-4.642.629-1.977.629 3.03.629 2.186.63-.48.628 3.205.63-.28.628-5.567.63 4.56.628 1.755.63-9.473.629 16.747.629 1.123.629-.281.629 1.508.629 5.017 1.258 6.678 1.258 3.895.63 1.122.629 23.086.629 5.367.629 3.462.629.842.629 5.146.629-.784.63 2.55.628-13.964.63 4.538.628 9.168.63 13.882.628 4.28.63 5.298.629.304 1.258 9.297 1.258 2.819.63 3.099.628.585.63.362.628 5.906.63 3.228.629 1.73.629 1.1.629 7.555h.629l.629 1.204.629-3.73.63 6.14.628 2.537.63 7.555.628 2.187.63 1.52.628.41.63 6.42.629-4.889.629 5.392.629 4.21.629-2.164.629-.011.63.257 1.257 12.28.63.467.628-2.128.63 2.152 1.258.257.629 1.532.629-1.427.629 2.07.63-.164.628 2.035.63 1.111.628.187.63.83.628 1.38.63.784.629 3.275.629-1.088.629-.012 1.258-.526.63 1.263.628.912.63.234.628 1.474.63-.702.629.07.629.21.629-4.876.629-13.332.629 1.1.629.549.63-.83.628-.047.63.573.628 5.087.63 11.94.628 2.948.63 2.046.629 1.474.629-.094.629-.28.629-.585.629-.304 1.258-4.936.63-.222.628.012.63.374.629.222.629-1.04.629-.55.629-1.579.629.468.629.222.629 2.105.63-.047.628 4.468.63-.047.628 1.813.63-1.334.629-.046.629-2.83.629-1.392.629-6.362.629.573.629.41.63.607 1.257.024.63 1.392.628 6.104.63-1.73.629.748.629.982.629.199.629 2.257.629-1.509.629-2.081.63.432 1.257-3.192.63.035.628-2.222.63-.912.629 1.754.629 6.865.629-1.088.629 1.345.629.035h0" clip-path="url(#pf0c1a1c6e5)" style="fill:none;stroke:#7516fd;stroke-width:1.5;stroke-linecap:square" id="line2d_25"/><path d="m49.83 284.4 32.083-.07 2.517-.328 3.145-.725 1.258-.339 1.259-.655.629-.772.629-.233.629-.784.629-.187.629-.643 1.258-2.035.63-.55.628-.842.63.222.629-.678.629-.316 1.258-1.79.629-.666.629-1.286.629-1.708.63-.105.628-.234 1.258 1.041.63-2.771 1.258-3.462.629-1.415.629-2.246.629-3.812.629-3.1.63-.794.628-.386.63.046.628-.713.63.012.629-1.064.629-2.573.629-1.275.629-4.923.629-3.392.629-2.07 1.258-5.274.63-1.509 1.257-3.426.63-.714.629.129.629-2.398 1.887-10.864.629-.795.63-4.047.628-2.362.63.094.628.888.63.176 1.258-2.655 1.258 4.316.629-.164.629-3.637.629-1.556.63-3.742 1.257 1.45.63-.058.628-1.427.63 2.011.629-.514 1.258 5.555.629-.655.629-1.848.63 1.158.628-1.626.63.62.628.34.63-3.848.629-1.462.629.596.629.024.629-.866.629.948.629.69.629 2.093.63-.573.628-.129.63.468.628 1.04.63.211.629-.923.629-2.573.629-.34 1.258.854.629.2.63-1.018.628.432.63-.994.628 1.497.63-.69.628-1.754.63.07.629-1.251.629-.9.629 2.046.629 1.03.629-1.065.63.783 1.257-.456.63-.163.628-.492.63-2.982.629 1.485.629.971.629.69 1.258 2.433.63-1.193.628 1.848.63.666.628.97.63-1.169.628-1.953.63-.28.629 2.128.629 1.333.629-.526.629-2.187 1.258 4.046.63-.187.628.913.63 1.216.628-.21.63-.083.629-1.847.629.245.629.059.629-.515.629-1.228.63 1.544.628.854.63 1.742.628.983.63 2.947.628 2.362.63-.807.629.631.629.89.629.62.629-1.463.629 1.38h.63l.628 3.427.63-.667.628 3.824.63 7.31.629.55.629-1.252.629.012.629-1.907.629.62.629-1.614.63-6.514.628 2.28.63 1.229.628.234.63 1.005.628.632.63-.094.629 3.368.629.351.629.866.629.07.629-.48.63.14.628.878 1.258-1.333.63.257.629 1.965.629 1.567.629-.223.629-.023.629.561.629 3.006.63.444h.628l.63.632.628.935.63 2.328.628 5.052.63-.082.629-.924.629.129.629 1.391.629.503.629-1.543.63-3.158.628 1.883.63 3.614.628.935.63.328.629.023.629.28.629 1.427.629.784.629-.538.629-.117.629 1.111.63.35.628 1.603.63 2.783.628-1.333.63-.608.629 3.532.629.748.629.152.629-.245.629 1.052.629.515 1.258-7.426.63-5.918.628.585.63-.83.629-5.614.629-2.105.629 3.31.629.736.629 4.41.629-.445.629-1.146.63.596.628 1.532 1.258-1.24.63-2.186.629-.643.629.046 1.887-1.93 1.258-2.596.63-1.25.628-.866.63-1.322.628-2.035.63-.093.629.199.629-.351.629.526.629-1.03.629-1.59.629-1.029.63-3.415.628-1.824.63.21.628-1.45.63-.56 1.258-.69 1.258 7.437.629 4.245.629.96.63.268.628-.959 1.258-5.94.63.151.629.035.629.304.629-.69.629-1.602.629-.164.629-5.87 1.258-15.53.63-2.094.628 1.24.63.736.628-.386.63 4.257.629-.631.629-.059.629-.713.629.175.629-.41.63-1.531.628-2.257.63.748.628-1.532.63-.514.629-2.503.629.058.629.69.629-1.064.629-.187.629-.55.629.316.63.784.628-1.24 1.258 3.497.63-1.918.629 2.982.629.924.629-1.146.629-.632 1.258-3.836.63.363.628-1.03.63-1.917.628 1.286.63 2.608.629 2.012.629.035.629-1.298.629-.07.629.55.629-1.17 1.258-6.128.63-1.59.628-.141.63-2.585.628-1.953.63-1.368 1.258-8.935.629-2.725.629-4.338.629-2.784 1.258-7.239.63-2.69.628-6.233 1.259-9.297.629-5.45.629.328.629-2.48.629-10.513.629-3.275 1.258-12.431.63-4.818.628-2.07 1.258-6.62.63 4.023.629.819.629-9.987.629-12.174.629-3.918.629-4.795.63-5.941.628-18.805.63-11.707.628 8.292.63 17.542.629 3.976.629 1.182.629-4.83.629 2.97.629-5.765.629-11.122.629-5.485.63-7.192.628 2.35.63 3.637.628 2.643.63 7.684.629 4.853.629-5.835.629 3.917.629-.526.629 4.795.629 2.9.63 16.84.628 3.45.63 1.299.628 2.198.63 4.397.628 3.111.63 2.164.629-11.473.629 2.117.629 6.151.629.796.629 2.982.63 1.193.628 2.818.63 5.8.628 7.895.63 1.847.629 4.023.629.164.629 8.584.629 2.222.629 3.029.629-.012.63.948.628-1.626.63.304.628-2.41.63.948.628-2.736.63.713.629 3.216.629 2.012.629 2.607.629 3.123.629.433.63 4.794.628-3.508.63-2.514.628-.281.63-1.216.629-1.754.629-.527.629 2.187.629 14.443.629 3.17.629.385.63-2.14.628-3.672.63 1.357.628-6.912.63-11.53.628-3.556.63-2.807.629 1.509.629-.433.629-3.625.629 2.233.629-3.496.63-2.702.628 1.041.63.456.628 6.806.63 5.111.629 3.228.629 5.473.629 8.046 1.258 6.748.629 1.93.63 2.35.628 1.24.63 1.543.628-1.391.63-.585.628-.877.63 2.093.629 5.602.629 2.397.629 4.725.629 5.59.629 2.41.63.081.628 1.17.63.573.628 1.38.63.97.629-1.321.629.982.629 1.333.629 3.275.629 1.59.629 2.082.63 1.146.628 2.222.63.023.628.503.63 1.053.628.316.63 1.052.629 4.748.629 1.544.629.748.629.948.629.608.63 3.52.628 2.514.63-.865.628-.585 1.259.725.629-.362.629.315.629 1.287.629.783.629 1.018h.629l.63 1.1.628 2.034.63.643 1.257-.105.63 3.52.629.655.629-.035.629 2.748.629 1.205.629 1.777.63.89.628-.211.63.643.628 1.158.63-.258.629 2.222 1.258 1.953.629-.105.629.082.629 1.146.629 6.479.63 5.24.628-.492.63 1.216 1.257-.69.63-.748.629-4.105.629-6.456.629 1.883.629-.023.629.97.63.597.628.222.63.059.628 1.59.63.398.629-.491.629.538.629-.211.629.83.629-1.684.629-.187.629.246.63 2.222.628 1.006.63.467.628-.117 1.888 4.959.629-1.637.629.444.629.877.629-.035.63 5.953.628 4.257.63-1.684.628 1.438.63-.573.629.269.629.058 1.258-4.642.629 1.24.629.7.629 1.346.63.105.628-.058.63-.281.628-.421.63 1.088.629.456.629 1.567.629-.164.629 1.216 1.258 5.8.63-.713.628.304.63-1.017.628.737.63-.199.629-.655.629-.924.629 2.269.629-2.795 1.258.012.629.584.63.76.628-1.262.63-.375.628 4.48.63 1.169.629-.363.629-.655.629-1.777.629 1.24.629-.188.629-.783.63-.234 1.257.28.63-.362.628.035.63 1.076 1.258 1.778.629.105.629-.164.629.76.629.328.63-.047.628.07.63 1.088.628-.129.63 1.018.629 1.73.629-.678.629.9.629.351.629-.994.629.316.63-.444.628.49.63 1.778.628-.035.63.41.629 1.251 1.258.316.629-1.287.629.34.629-.328.629.912.63-.023.628.14 1.258-.082.63 1.369.629 1.8 1.258-1.929.629-3.275.629-.502.629.467.63-1.567.628-2.21 1.258-1.403.63 2.572.629-.42 1.887-6.246 1.258-3.648.629-.994.63-1.345.628-1.965.63-3.11.628-3.766 1.259-8.947.629-1.181.629-2.023.629-3.205 1.258-7.999.63-2.152 1.257-3.145.63.081 1.257-8.923.63.971.629-1.93.629-.573.629 1.076.629-.538 1.258 6.198.63-1.672.628-.643.63.28.628-.818.63 1.778.629 1.263.629.48.629.83.629 4.572 1.258 3.637.63 1.018 1.886 19.144.63 1.11.629-.07 1.258.702.629-2.806.629-3.52.629-.503.63 2.748.628 3.543.63 1.135.628.14.63 1.93.629 3.274.629 1.766.629.678.629 1.17.629.222.629 1.146.63-1.04.628.841 1.258 3.485.63 1.17.628-.082.63.374.629 1.509.629.234.629.713.629.14 1.258 1.86.63-1.076 1.257 1.544.63.058.629 1.1 1.258.105.629 1.134.629.597.629.362.63 1.275.628.444.63.784.628.187.63-.012.628.468.63-1.17.629.55.629.702 1.258-.421.629-.105.63-.223.628.246.63-.257.628-1.567.63-.398.629.234.629-.152.629.608.629 2.082.629-.27.629-.116.63.608.628.035.63.398.628-1.24.63-.725.628.152.63.666.629-.666.629-.386.629-.164.629 2.316 1.258 2.923.63-4.303.628 1.1.63-1.03.628.34.63-2.784.629-1.544.629.947.629 4.292.629-.865.629.842.629-.304.63.912.628.082.63-2.456.628 1.146 1.259 1.567.629-.082 1.258-3.754.629-.163 1.258-2.842.63-.421h.628l.63 1.555.628-.468.63 1.673.629 1.988.629 1.333.629.421.629-4.655.629-.643.629 2.328 1.258-8.175h1.258l.63 1.93.629-1.018.629 1.637.629-2.374.629.585.629-1.848.629-.62h0" clip-path="url(#pf0c1a1c6e5)" style="fill:none;stroke:#42537f;stroke-width:1.5;stroke-linecap:square" id="line2d_26"/><path d="m49.83 284.4 301.962-.058 3.145-.457 1.258-.444 3.775-.316.629-.187.629-.304 3.145-.55 3.775.726 1.258.105.63.175 1.886-.105 1.888.42.629.024.629.2.629-.024.63.222 1.886-.164 1.258.105 1.259-.152 1.258.152 1.258.024h.63l1.257.164.63-.035 1.258.152 4.403.07 4.404.245 8.178-.28 1.258.152 1.887.082 1.258-.036 6.92.024 153.498-.07 1.258-.129 2.516-.058.63-.41 2.516-.105.629-.947.629-.222.629.07 1.258-.69 1.258-1.065.63.258.628-.398 1.259-.175 1.258-.936.629-.9.629-1.217 2.516-2.56.63-.469.628-.187.63 1.907.629-1.953 1.258-.89.629-.432 1.258-1.614.63-2.467.628 1.321.63.491.628.012.63.187.629.503.629.69.629.35.629-.104.629-.41.629.094.629-.328 1.258.047 1.258.795.63.62.629.14.629 1.006.629.562.629.362 1.258 1.181h0" clip-path="url(#pf0c1a1c6e5)" style="fill:none;stroke:#fe7b74;stroke-width:1.5;stroke-linecap:square" id="line2d_27"/><path d="m49.83 284.4 28.938-.094 1.258-.023 1.887-.058 1.888-.328 1.887-1.1 1.258-.993 1.258-1.31.63-.41 2.516-4.619.629-.807.629-1.403.629-.304.63-.526 1.886-3.883.63-.35.629.642.629-.397.629.035.629-.363.629-.807.629-.386.629-.83.63-.643.628.187.63-.28.628.046.63 1.17 1.258 1.578.629.515h.629l.629.362.629.924 1.258.89.63.993 1.257 1.556.63.28.629.433 1.258 1.123.629-.106.629.562 1.258.514.63.749.628.397 1.258 1.076 1.259-.07.629.515.629.21.629.374.629.866.63.175 1.257.152 1.258.737 1.888-.164.629.234.629-.011.629.397.629.21.63.375 1.257.152.63-.129.628.059.63-.304 1.887.456 1.258.362.63.024.628.327.63-.14 3.774.07 1.258.28.629-.058 1.258.012 1.887.047 4.404.234H153l2.517.081 1.258.164 4.403.082 1.888-.129 4.403.129 1.887-.199 1.888-.082.629-.093 2.516.222.63-.07 1.257.082 7.55.082.629.07 3.145-.164 6.29.14 6.292-.198 1.258-.281 3.145-.164 1.259.164.629-.117h1.887l2.516-.023 1.258-.117.63-.012 1.258-.515 1.887-.35.629-.07.63-.398 1.257.082 1.258-.48 1.259-.362.629.058.629-.538.629-.69.629-.327.629-.632h.63l.628-.292.63-1.041.628-.772.63-.34.629-1.04 2.516-1.146 1.258-2.42 1.887-1.685.63.012.629-1.322 1.887-1.426.629-.89 1.258-.69.63.211.628-1.228.63-1.614.628-1.94.63-1.463.629-.234.629-.409.629-1.625 1.258-1.954.629-.07 1.258-2.35.63-.258.628-.409.63-1.204.629.456.629-1.942.629-.152.629-.772.629-.48.629-.9.629-4.233 1.258-5.532.63-2.409.628-1.029.63-.444.629-2.702.629-.117.629-1.216 1.258 10.093.629.62 1.258-2.842 1.258-3.848.63-1.649.629-1.123 1.258 1.053.629-1.076.629 1.286.629-1.24 1.258-16.161.63-1.79.628-.48.63.62.628-.479.63-2.035.629.877.629 1.205.629.234.629 1.508 1.258-2.175 1.258 5.672 1.258 2.304.63-.035.629 1.006.629 1.941.629.842.629.234.629.994.629-.585 1.258.983.63.082.628 1.812.63-.187.629 1.228.629 1.965.629.199.629 4.444.629 1.894.629 1.403.63 3.497.628 1.614.63.152.628.491.63-.55.629 2.96.629 1.543.629.561 1.887 2.199.629 1.322 1.887 4.69.63 1.414.628-.14.63.023.629.667.629.047.629.304.629 1.52 1.258 1.52.63.304 1.257 2.585.63.444.629.14.629.714.629.304.629-.152.629.199.629.596.629 1.1 1.258.678.63-.34 2.516-.175 1.258 1.088 1.258.187.63.819.628-.012.63.316.628-.573.63.432.629.258.629-.082.629 1.052.629-.573.629-1.228.629-.748.629-1.474.63-.42.628-.574.63-2.385.628-.515.63.152.629.573 1.887.83.629-.035.629.129.63.398.628-.21 1.258-1.404.63.374.628-.55.63.222.629-.058.629-.48.629.632.629.117.629-.28 1.258.654 1.258.421.63-.07.629-.199 1.258.725.629.2.629-.328.629 1.099 1.258 1.368.63-.117.628.725.63-.187.628.48.63-.421.629.082.629-.129.629.246.629 2.198.629.164.63-.374.628.397.63.082.628.304.63.082.629-1.403 1.258 2.268.629 1.24.629.48.629-.21 1.258.315 1.258 1.684 1.258-.27.63.656.629.14.629.55.629-.351.629-.129.629.129.63.35 1.257.024.63.187.628 1.006.63.14 1.258.702 2.516.292.63.351.628-.082.63.609 1.257.093.63.304.629.094.629.374.629.234.629-.222 1.887.058.63.234.628-.012.63.363.629.152 1.258.047.629-.094.629.105 2.516-.386 1.887-.093.63.245 2.516.188.629.222 1.887-.035 2.517-.082 2.516.444 1.258-.011 1.887-.258.63.07 1.258-.07h.629l1.258-.362 1.887-.059 1.887-.386.63.187.629-.14.629-.362 2.516-.094 1.887-.456.63-.246.628.152 1.259-.152.629-.561.629-.21.629.409.629-.21.63-.352.628-.011.63-.152.628.14 1.259-1.076 1.258.129.629.035.629-.234.629.047.629.561 1.258-.14.63.222 2.516.047.629-.152.629.011.629-.175 1.258.023.63-.187.628-.047.63.246.628-.117.63.082 1.887-.035.629.058.629-.596 1.887-.28.63-.469.628-.257.63-.69 2.516-.292.629.55.629-.936 1.887-1.45 1.258-.164.63-1.03.629-.49.629-.819.629-.433.629-1.005 1.258-.328.63-1.122.628-.679.63-.339.628-.117 1.888-.69 1.258-.994.629-1.017.629-1.825.63-.643.628-.34.63-.128.628-.924.63-1.298 1.258-.818.629-.877.629.116 1.258-.222 1.887-2.947.63-1.543 1.257-.854.63-.866.629.866.629-.667.629.55.629 1.123.629-.562.63-.035.628.129.63-.667.628 1.135.63.783.629 3.006.629 1.076.629.584 1.258 2.176 1.258 1.04.63-.315.628.49.63.012.628.188.63.795.629-.702.629.69.629-.982.629-.363.629.187.629.398.63-.444.628 1.485.63-.258 1.257.737.63.258 1.258 3.204.629.959.629 1.356.629.655 1.887-.304.63.854.628.538 1.888-.094.629-.386.629.305.629-.351.629.28h.63l1.257.328 1.258.269 1.259-1.754.629-.655 1.258-.503.629.082.629-.772.63.292.628-.269.63-.444 1.257-.316.63.234 1.258-1.345.629.21.629.445.629-.468.63.187.628-.023.63.83.628-.023.63-.28.628-.761.63-.058 1.258.07.629-1.041.629-.152.629.093.63.492 1.886.14 1.259 1.006.629-.223 1.258.597 1.258.082.63.222.628-.702.63-.257 1.257-1.392 1.259-.082.629-.502.629-.223.629-3.461.629 3.52 1.258-.351.63.234.628-.105.63-3.743.628 3.064.63-3.765.629 2.994.629.608.629-3.38.629-.526.629 4.186.63 1.427.628 3.275.63.269.628.023.63 3.298.628.152.63-.164.629-.9.629-2.398.629-.128.629.058.629-3.473.63 4.07.628-3.1 1.258 1.755 1.259.234.629.748.629-2.818.629 4.748h.629l.629-.293 1.258-.058.63.257.628.117.63-.164 1.258 1.053 1.887.128.629.667.629.374.63.152.628.281 1.258.058.63.655.629.187.629.34.629 1.742.629.55 1.258-.094.629.27.63.783.628.058.63-1.04 1.257.093.63.023.629 1.567.629-.631.629.48.629-.176 1.887-.058.63-1.228.628.386.63.198.629 1.018.629.222 1.258.012.629-.877.629.093.629-.292.63-.83.628-.305h1.258l.63.807.629-.83 1.258.246.629-.223 1.258-.035h0" clip-path="url(#pf0c1a1c6e5)" style="fill:none;stroke:#d8b009;stroke-width:1.5;stroke-linecap:square" id="line2d_28"/><path d="m49.83 284.4 28.309-.105 2.516-.784 3.146-1.988.629-.62 1.258-3.356.629-1.579 1.258-5.742.63-2.07 1.257-6.49 2.517-21.881.629-4.561.629-2.257.63-8.233.628-4.187 1.258-9.917.63-1.03.629-.643.629-1.836.629.351.629 1.743.629.924.629 2.444.629-3.1.63 2.609.628 1.777.63-1.719.628.304.63 4.175.629-1.216.629 3.426.629.819 1.258 5.906.629 1.017.63.562.628 3.73.63 2.69.628 1.286.63.574.629 2.853.629 1.427.629 2.07.629 1.391.629 3.65.629.432.629 1.006.63 1.298.628 2.339.63 1.216.628 2.678.63-1.59.629 1.754.629.49 1.258 2.737.629.936.629.69.63 2.234.628-3.649.63.491.628 4.316.63-1.1.629-.807.629.21.629.773.629 3.73.629.21.629-1.38.629 1.965.63 2.48 1.257.316.63.07.628.456.63.631.629 1.053.629.643.629 1.485 1.258.737.63.21.628.878.63.631.628.105 1.259.971.629-.058.629.175 1.258.573.629-.374.629.082.63.362 1.257-.07.63.468.628-.117.63.678.629.328 2.516.35.63.468 1.257.293 1.258.292 1.259.129.629.362 2.516.246h.63l1.257.327.63.176 1.887-.106 1.258.13.629-.2 1.887.27 1.887.093.63.234.629-.21 1.887.21.629-.2.629.06 1.258-.07 1.887.01.63.176 1.258.047 1.258.246.629-.176 3.145-.14.63-.082 3.774.35 2.516-.023.63-.339 3.145.07.629-.07.63.059 1.886-.468 1.258-.363 1.259-.14 1.887-.503 1.258-.082.63-.023 1.257-.807.63-.222.629-.374 1.887-.421 1.887-.246.63-.246 1.886-1.11 1.888-2.281.629-.573.629-.807.629-.023.629-.351.63-1.146 1.257-1.228.63-1.03.628-.28.63-.982.629-.258 1.258-2.865.629-1.064.629-.585.629-1.777.63-.13 1.257-.748.63-2.128 1.258-2.093.629-1.018.629.07.629-.69.629-1.578.629-1.217.63-2.163.628-.246.63-.573 1.257-.362.63-.784 1.258 1.497.629-1.579.629 1.427.629-2.701.629.081.63-.105.628-1.941.63.047.628-.106.63-1.625.629 2.152 1.258.105.629.55.629.982.629.187.63.959.628-.187.63.164.628.046.63 1.345.629-1.193.629.936.629-1.439.629 1.018.629-.515.629 1.088.629-.924.63-.187.628-.76.63-.176.628-2.163.63.21.629-2.163.629-1.567.629-.503.629-.96.629 3.778.629-.21.63-1.66.628 2.724.63-2.748.628-4.561.63-.503.629-2.748.629-1.263.629-.585.629-4.9.629-.749.629-2.35 1.258-15.274 1.258-2.748.63-4.292.628-6.128.63-1.017.629.503.629-3.053.629-1.333.629-.854.629-4.303.63-3.006.628-.503.63-1.345.628-.608.63.819.629.093.629-.28.629 1.17.629.666 1.258 3.508.629.246 1.258 4.362.63 4.725.628 3.777.63 2.737.629 4.385.629 2.515.629.865.629 4.654.629 3.743 1.887 8.174 1.258 2.526 2.517 11.31.629 2.046 1.258 1.146.629 2.935.63 3.474.628 1.532 1.258 4 1.259 1.718.629 2.398.629-.527.629.96.629 1.286.629 1.544.63.725.628.456.63 1.31.628 3.473 1.259 1.415 1.258.783.629.012.629 1.415.629.573 1.258 1.895 1.258.514.63.538.628-.023 1.259.877 1.887.936.629-.059 1.258 1.31 1.258.362.63.562.629.128.629-.058.629.41 1.887-.141.629-.35.63.034.628.152.63-.035.628.082 1.259.561 1.887.117.629-.117 1.258.34.63-.082 1.257.035.63-.012.628.187 1.259-.164 1.258.585 1.258.035 1.887.293 1.258.035.63.14.629-.047.629-.163.629.187 1.887-.035 1.258-.024 1.258.246 3.146.175 1.887-.199 2.516-.023.63.175 5.032-.269.63.13 1.887-.106 5.661-.304 1.259-.14 2.516-.223 1.887.094.63-.105 1.257.011 1.259-.234 1.258-.386.629-.035 1.258-.315.63.035 1.257-.351.63-.363 1.258-.374.629-.023.629-.152.629-.608 1.258-.468.63-.176.628-.48 1.258.06.63-.34.628-.631 1.259-.129.629.199.629-.433 1.258-.222 1.258.082 1.258-.679.63.234 1.258-.222.629.152 1.258-.128.629.105.629-.164.63.117.628-.28.63-.036 1.257-.397.63-.106.629.117.629-.163.629-.047 1.258-.784.63.164.628-.35 1.258-.223.63 1.438.629-.666.629-.433.629-.234.629.164.629-.082.629.035.629-1.86 1.258.305 1.258-.725.63.14.629-.187.629.269.629-.105.629.093.629-.397 1.258-.164.63.128.628-.198.63.386.628-.421.63.011.629.41.629-.024.629.117.629.316.629.093 1.258 1.287.63.058.628.246h.63l2.516.444.629-.386 1.258.2.63-.211.628.14.63-.42.628-.223.63.105 1.258-.42 1.258-.96.629.491.629-.42.629.151.63-.175.628.058 1.887-1.38.63-.07.629-.362 1.258-.059.629-.339.629-.093.63-.62.628-.07 1.258.269.63-.164.629.339.629.012.629.234.629.56 1.258-.046.629.117.63.573.628.176.63-.012.628-.164 1.259.117.629.023 1.887 1.79.629-.012 1.258.34 1.258.175.63-.281 2.516.246.629-.117.629-.234.629.128.63-.07.628.28 1.258-.034.63.07.629.35h1.258l1.258.2.629.058.63-.058.628-.258.63.27.628-.048.63-.315.629 1.356.629.515.629-1.158.629 1.79.629.97.629-2.175.629-.76.63-1.696.628-.819.63 1.17.628-.363.63-3.333.629 1.205.629-.304.629-1.883 1.258-.678.629-3.848.63-.702.628-1.216.63-.55.628.328.63.105.629-.199.629-.69.629.492.629.035 1.258-.258.629.129.63.433.628-.047.63.175.628-.105 1.259.129 1.258-.117.629-7.941.629-2.21 1.258.444.63.41 1.257.257.63 9.426.628 2.947.63 1.356.629.702.629 1.1.629.268.629.129 1.258 1.906 1.258.714.63.456.628-.258.63.059 1.258.76.629.702.629.456.629 1.497.63.865.628-1.24.63-.748.628 1.053.63-.796.628.14 1.888-.034.629.643.629-.562.629.585 1.887-.047.63.035.628-.14.63-.35.629.058.629-.152h1.258l2.516-1.404.63-.526h1.257l1.259-1.24.629-.198.629-.386.629-.222 1.887.093.63-.795.628-31.974.63-1.485.629-1.824h1.258l.629-1.614.629.982.629 26.77.63-.351.628 4.058h1.258l.63 4.07.628-2.28.63 1.683 1.258-7.25 1.258-.012.629-3.988.63.374.628 2.456.63 4.666.628 1.205 1.259.011.629 3.988.629.527.629.877.629-2.222.629-.14h1.258l.63-2.48.628 1.415.63.246.628 2.947.63.97 1.258-.023.629.632.629 1.18.629.913.63.199.628.725 1.258.023 1.259 1.158.629.433.629.912.629.316 1.258-.024 1.258.585.63.035.628 1.053.63.701 1.258.024 1.258-.644.629.059.629-.96.629-.584h1.258l.63.702 1.257.935.63.258.629-.152h1.258l1.258-.304.629-.34.63-.198 2.515-.234.63-.14.629-.503.629-.082.629-.234h1.258" clip-path="url(#pf0c1a1c6e5)" style="fill:none;stroke:#89f9c9;stroke-width:1.5;stroke-linecap:square" id="line2d_29"/><g style="fill:#7516fd" transform="matrix(.14 0 0 -.14 624.57 247.752)" id="text_18"><defs><path id="DejaVuSans-55" d="M556 4666h635V1831q0-750 271-1080 272-329 882-329 606 0 878 329 272 330 272 1080v2835h634V1753q0-912-452-1378Q3225-91 2344-91q-885 0-1337 466-451 466-451 1378v2913z" transform="scale(.01563)"/><path id="DejaVuSans-53" d="M3425 4513v-616q-359 172-678 256-319 85-616 85-515 0-795-200t-280-569q0-310 186-468 186-157 705-254l381-78q706-135 1042-474t336-907q0-679-455-1029Q2797-91 1919-91q-331 0-705 75-373 75-773 222v650q384-215 753-325 369-109 725-109 540 0 834 212 294 213 294 607 0 343-211 537t-692 291l-385 75q-706 140-1022 440-315 300-315 835 0 619 436 975t1201 356q329 0 669-60 341-59 697-177z" transform="scale(.01563)"/></defs><use xlink:href="#DejaVuSans-55"/><use xlink:href="#DejaVuSans-53" x="73.193"/></g><g style="fill:#42537f" transform="matrix(.14 0 0 -.14 624.57 261.752)" id="text_19"><defs><path id="DejaVuSans-42" d="M1259 2228V519h1013q509 0 754 211 246 211 246 645 0 438-246 645-245 208-754 208H1259zm0 1919V2741h935q462 0 688 173 227 174 227 530 0 353-227 528-226 175-688 175h-935zm-631 519h1613q722 0 1112-300 391-300 391-853 0-429-200-682t-588-315q466-100 724-418 258-317 258-792 0-625-425-966Q3088 0 2303 0H628v4666z" transform="scale(.01563)"/><path id="DejaVuSans-72" d="M2631 2963q-97 56-211 82-114 27-251 27-488 0-749-317t-261-911V0H581v3500h578v-544q182 319 472 473 291 155 707 155 59 0 131-8 72-7 159-23l3-590z" transform="scale(.01563)"/><path id="DejaVuSans-61" d="M2194 1759q-697 0-966-159t-269-544q0-306 202-486 202-179 548-179 479 0 768 339t289 901v128h-572zm1147 238V0h-575v531q-197-318-491-470T1556-91q-537 0-855 302-317 302-317 808 0 590 395 890 396 300 1180 300h807v57q0 397-261 614t-733 217q-300 0-585-72-284-72-546-216v532q315 122 612 182 297 61 578 61 760 0 1135-394 375-393 375-1193z" transform="scale(.01563)"/><path id="DejaVuSans-7a" d="M353 3500h2731v-525L922 459h2162V0H275v525l2163 2516H353v459z" transform="scale(.01563)"/><path id="DejaVuSans-69" d="M603 3500h575V0H603v3500zm0 1363h575v-729H603v729z" transform="scale(.01563)"/><path id="DejaVuSans-6c" d="M603 4863h575V0H603v4863z" transform="scale(.01563)"/></defs><use xlink:href="#DejaVuSans-42"/><use xlink:href="#DejaVuSans-72" x="68.604"/><use xlink:href="#DejaVuSans-61" x="109.717"/><use xlink:href="#DejaVuSans-7a" x="170.996"/><use xlink:href="#DejaVuSans-69" x="223.486"/><use xlink:href="#DejaVuSans-6c" x="251.27"/></g><g style="fill:#fe7b74" transform="matrix(.14 0 0 -.14 624.57 275.752)" id="text_20"><defs><path id="DejaVuSans-54" d="M-19 4666h3947v-532H2272V0h-634v4134H-19v532z" transform="scale(.01563)"/><path id="DejaVuSans-77" d="M269 3500h575l719-2731 715 2731h678l719-2731 716 2731h575L4050 0h-678l-753 2869L1863 0h-679L269 3500z" transform="scale(.01563)"/><path id="DejaVuSans-6e" d="M3513 2113V0h-575v2094q0 497-194 743-194 247-581 247-466 0-735-297-269-296-269-809V0H581v3500h578v-544q207 316 486 472 280 156 646 156 603 0 912-373 310-373 310-1098z" transform="scale(.01563)"/><path id="DejaVuSans-2a" d="m3009 3897-1121-606 1121-610-181-306-1050 634V1831h-356v1178L372 2375l-181 306 1122 610-1122 606 181 309 1050-634v1178h356V3572l1050 634 181-309z" transform="scale(.01563)"/></defs><use xlink:href="#DejaVuSans-54"/><use xlink:href="#DejaVuSans-61" x="44.584"/><use xlink:href="#DejaVuSans-69" x="105.863"/><use xlink:href="#DejaVuSans-77" x="133.646"/><use xlink:href="#DejaVuSans-61" x="215.434"/><use xlink:href="#DejaVuSans-6e" x="276.713"/><use xlink:href="#DejaVuSans-2a" x="340.092"/></g><g style="fill:#d8b009" transform="matrix(.14 0 0 -.14 624.57 289.752)" id="text_21"><defs><path id="DejaVuSans-47" d="M3809 666v1253H2778v519h1656V434q-365-259-806-392-440-133-940-133-1094 0-1712 639-617 640-617 1780 0 1144 617 1783 618 639 1712 639 456 0 867-113 411-112 758-331v-672q-350 297-744 447t-828 150q-857 0-1287-478-429-478-429-1425 0-944 429-1422 430-478 1287-478 334 0 596 58 263 58 472 180z" transform="scale(.01563)"/><path id="DejaVuSans-65" d="M3597 1894v-281H953q38-594 358-905t892-311q331 0 642 81t618 244V178Q3153 47 2828-22t-659-69q-838 0-1327 487-489 488-489 1320 0 859 464 1363 464 505 1252 505 706 0 1117-455 411-454 411-1235zm-575 169q-6 471-264 752-258 282-683 282-481 0-770-272t-333-766l2050 4z" transform="scale(.01563)"/><path id="DejaVuSans-6d" d="M3328 2828q216 388 516 572t706 184q547 0 844-383 297-382 297-1088V0h-578v2094q0 503-179 746-178 244-543 244-447 0-707-297-259-296-259-809V0h-578v2094q0 506-178 748t-550 242q-441 0-701-298-259-298-259-808V0H581v3500h578v-544q197 322 472 475t653 153q382 0 649-194 267-193 395-562z" transform="scale(.01563)"/><path id="DejaVuSans-79" d="M2059-325q-243-625-475-815-231-191-618-191H506v481h338q237 0 368 113 132 112 291 531l103 262L191 3500h609L1894 763l1094 2737h609L2059-325z" transform="scale(.01563)"/></defs><use xlink:href="#DejaVuSans-47"/><use xlink:href="#DejaVuSans-65" x="77.49"/><use xlink:href="#DejaVuSans-72" x="139.014"/><use xlink:href="#DejaVuSans-6d" x="178.377"/><use xlink:href="#DejaVuSans-61" x="275.789"/><use xlink:href="#DejaVuSans-6e" x="337.068"/><use xlink:href="#DejaVuSans-79" x="400.447"/></g><g style="fill:#89f9c9" transform="matrix(.14 0 0 -.14 624.57 303.752)" id="text_22"><defs><path id="DejaVuSans-74" d="M1172 4494v-994h1184v-447H1172V1153q0-428 117-550t477-122h590V0h-590q-666 0-919 248-253 249-253 905v1900H172v447h422v994h578z" transform="scale(.01563)"/><path id="DejaVuSans-64" d="M2906 2969v1894h575V0h-575v525q-181-312-458-464-276-152-664-152-634 0-1033 506-398 507-398 1332t398 1331q399 506 1033 506 388 0 664-152 277-151 458-463zM947 1747q0-634 261-995t717-361q456 0 718 361 263 361 263 995t-263 995q-262 361-718 361t-717-361q-261-361-261-995z" transform="scale(.01563)"/><path id="DejaVuSans-4b" d="M628 4666h631V2694l2094 1972h813L1850 2491 4331 0h-831L1259 2247V0H628v4666z" transform="scale(.01563)"/><path id="DejaVuSans-67" d="M2906 1791q0 625-258 968-257 344-723 344-462 0-720-344-258-343-258-968 0-622 258-966t720-344q466 0 723 344 258 344 258 966zm575-1357q0-893-397-1329-396-436-1215-436-303 0-572 45t-522 139v559q253-137 500-202 247-66 503-66 566 0 847 295t281 892v285q-178-310-456-463T1784 0Q1141 0 747 490 353 981 353 1791q0 812 394 1302 394 491 1037 491 388 0 666-153t456-462v531h575V434z" transform="scale(.01563)"/><path id="DejaVuSans-6f" d="M1959 3097q-462 0-731-361t-269-989q0-628 267-989 268-361 733-361 460 0 728 362 269 363 269 988 0 622-269 986-268 364-728 364zm0 487q750 0 1178-488 429-487 429-1349 0-859-429-1349Q2709-91 1959-91q-753 0-1180 489-426 490-426 1349 0 862 426 1349 427 488 1180 488z" transform="scale(.01563)"/></defs><use xlink:href="#DejaVuSans-55"/><use xlink:href="#DejaVuSans-6e" x="73.193"/><use xlink:href="#DejaVuSans-69" x="136.572"/><use xlink:href="#DejaVuSans-74" x="164.355"/><use xlink:href="#DejaVuSans-65" x="203.564"/><use xlink:href="#DejaVuSans-64" x="265.088"/><use xlink:href="#DejaVuSans-20" x="328.564"/><use xlink:href="#DejaVuSans-4b" x="360.352"/><use xlink:href="#DejaVuSans-69" x="425.928"/><use xlink:href="#DejaVuSans-6e" x="453.711"/><use xlink:href="#DejaVuSans-67" x="517.09"/><use xlink:href="#DejaVuSans-64" x="580.566"/><use xlink:href="#DejaVuSans-6f" x="644.043"/><use xlink:href="#DejaVuSans-6d" x="705.225"/></g></g></g><defs><clipPath id="pf0c1a1c6e5"><path d="M49.83 7.2h558v277.2h-558z"/></clipPath></defs></svg>