<svg xmlns:xlink="http://www.w3.org/1999/xlink" width="1015.94" height="418.73" viewBox="0 0 761.955 314.048" xmlns="http://www.w3.org/2000/svg"><defs><style>*{stroke-linejoin:round;stroke-linecap:butt}</style></defs><g id="figure_1"><path d="M0 314.048h761.955V0H0v314.048z" style="fill:none" id="patch_1"/><g id="axes_1"><path d="M67.645 286.298h558V9.098h-558v277.2z" style="fill:none" id="patch_2"/><g id="matplotlib.axis_1"><g id="xtick_1"><g id="line2d_1"><defs><path id="m74427776dd" d="M0 0v3.5" style="stroke:#b0b0b0;stroke-width:.4"/></defs><use xlink:href="#m74427776dd" x="112.679" y="286.298" style="fill:#b0b0b0;stroke:#b0b0b0;stroke-width:.4"/></g><g style="fill:#b0b0b0" transform="matrix(.14 0 0 -.14 83.431 303.936)" id="text_1"><defs><path id="DejaVuSans-32" d="M1228 531h2203V0H469v531q359 372 979 998 621 627 780 809 303 340 423 576 121 236 121 464 0 372-261 606-261 235-680 235-297 0-627-103-329-103-704-313v638q381 153 712 231 332 78 607 78 725 0 1156-363 431-362 431-968 0-288-108-546-107-257-392-607-78-91-497-524-418-433-1181-1211z" transform="scale(.01563)"/><path id="DejaVuSans-30" d="M2034 4250q-487 0-733-480-245-479-245-1442 0-959 245-1439 246-480 733-480 491 0 736 480 246 480 246 1439 0 963-246 1442-245 480-736 480zm0 500q785 0 1199-621 414-620 414-1801 0-1178-414-1799Q2819-91 2034-91q-784 0-1198 620-414 621-414 1799 0 1181 414 1801 414 621 1198 621z" transform="scale(.01563)"/><path id="DejaVuSans-2d" d="M313 2009h1684v-512H313v512z" transform="scale(.01563)"/><path id="DejaVuSans-34" d="M2419 4116 825 1625h1594v2491zm-166 550h794V1625h666v-525h-666V0h-628v1100H313v609l1940 2957z" transform="scale(.01563)"/></defs><use xlink:href="#DejaVuSans-32"/><use xlink:href="#DejaVuSans-30" x="63.623"/><use xlink:href="#DejaVuSans-32" x="127.246"/><use xlink:href="#DejaVuSans-30" x="190.869"/><use xlink:href="#DejaVuSans-2d" x="254.492"/><use xlink:href="#DejaVuSans-30" x="290.576"/><use xlink:href="#DejaVuSans-34" x="354.199"/></g></g><g id="xtick_2"><use xlink:href="#m74427776dd" x="176.712" y="286.298" style="fill:#b0b0b0;stroke:#b0b0b0;stroke-width:.4" id="line2d_2"/><g style="fill:#b0b0b0" transform="matrix(.14 0 0 -.14 147.464 303.936)" id="text_2"><defs><path id="DejaVuSans-37" d="M525 4666h3000v-269L1831 0h-659l1594 4134H525v532z" transform="scale(.01563)"/></defs><use xlink:href="#DejaVuSans-32"/><use xlink:href="#DejaVuSans-30" x="63.623"/><use xlink:href="#DejaVuSans-32" x="127.246"/><use xlink:href="#DejaVuSans-30" x="190.869"/><use xlink:href="#DejaVuSans-2d" x="254.492"/><use xlink:href="#DejaVuSans-30" x="290.576"/><use xlink:href="#DejaVuSans-37" x="354.199"/></g></g><g id="xtick_3"><use xlink:href="#m74427776dd" x="241.448" y="286.298" style="fill:#b0b0b0;stroke:#b0b0b0;stroke-width:.4" id="line2d_3"/><g style="fill:#b0b0b0" transform="matrix(.14 0 0 -.14 212.2 303.936)" id="text_3"><defs><path id="DejaVuSans-31" d="M794 531h1031v3560L703 3866v575l1116 225h631V531h1031V0H794v531z" transform="scale(.01563)"/></defs><use xlink:href="#DejaVuSans-32"/><use xlink:href="#DejaVuSans-30" x="63.623"/><use xlink:href="#DejaVuSans-32" x="127.246"/><use xlink:href="#DejaVuSans-30" x="190.869"/><use xlink:href="#DejaVuSans-2d" x="254.492"/><use xlink:href="#DejaVuSans-31" x="290.576"/><use xlink:href="#DejaVuSans-30" x="354.199"/></g></g><g id="xtick_4"><use xlink:href="#m74427776dd" x="306.185" y="286.298" style="fill:#b0b0b0;stroke:#b0b0b0;stroke-width:.4" id="line2d_4"/><g style="fill:#b0b0b0" transform="matrix(.14 0 0 -.14 276.937 303.936)" id="text_4"><use xlink:href="#DejaVuSans-32"/><use xlink:href="#DejaVuSans-30" x="63.623"/><use xlink:href="#DejaVuSans-32" x="127.246"/><use xlink:href="#DejaVuSans-31" x="190.869"/><use xlink:href="#DejaVuSans-2d" x="254.492"/><use xlink:href="#DejaVuSans-30" x="290.576"/><use xlink:href="#DejaVuSans-31" x="354.199"/></g></g><g id="xtick_5"><use xlink:href="#m74427776dd" x="369.514" y="286.298" style="fill:#b0b0b0;stroke:#b0b0b0;stroke-width:.4" id="line2d_5"/><g style="fill:#b0b0b0" transform="matrix(.14 0 0 -.14 340.266 303.936)" id="text_5"><use xlink:href="#DejaVuSans-32"/><use xlink:href="#DejaVuSans-30" x="63.623"/><use xlink:href="#DejaVuSans-32" x="127.246"/><use xlink:href="#DejaVuSans-31" x="190.869"/><use xlink:href="#DejaVuSans-2d" x="254.492"/><use xlink:href="#DejaVuSans-30" x="290.576"/><use xlink:href="#DejaVuSans-34" x="354.199"/></g></g><g id="xtick_6"><use xlink:href="#m74427776dd" x="433.547" y="286.298" style="fill:#b0b0b0;stroke:#b0b0b0;stroke-width:.4" id="line2d_6"/><g style="fill:#b0b0b0" transform="matrix(.14 0 0 -.14 404.299 303.936)" id="text_6"><use xlink:href="#DejaVuSans-32"/><use xlink:href="#DejaVuSans-30" x="63.623"/><use xlink:href="#DejaVuSans-32" x="127.246"/><use xlink:href="#DejaVuSans-31" x="190.869"/><use xlink:href="#DejaVuSans-2d" x="254.492"/><use xlink:href="#DejaVuSans-30" x="290.576"/><use xlink:href="#DejaVuSans-37" x="354.199"/></g></g><g id="xtick_7"><use xlink:href="#m74427776dd" x="498.283" y="286.298" style="fill:#b0b0b0;stroke:#b0b0b0;stroke-width:.4" id="line2d_7"/><g style="fill:#b0b0b0" transform="matrix(.14 0 0 -.14 469.035 303.936)" id="text_7"><use xlink:href="#DejaVuSans-32"/><use xlink:href="#DejaVuSans-30" x="63.623"/><use xlink:href="#DejaVuSans-32" x="127.246"/><use xlink:href="#DejaVuSans-31" x="190.869"/><use xlink:href="#DejaVuSans-2d" x="254.492"/><use xlink:href="#DejaVuSans-31" x="290.576"/><use xlink:href="#DejaVuSans-30" x="354.199"/></g></g><g id="xtick_8"><use xlink:href="#m74427776dd" x="563.02" y="286.298" style="fill:#b0b0b0;stroke:#b0b0b0;stroke-width:.4" id="line2d_8"/><g style="fill:#b0b0b0" transform="matrix(.14 0 0 -.14 533.772 303.936)" id="text_8"><use xlink:href="#DejaVuSans-32"/><use xlink:href="#DejaVuSans-30" x="63.623"/><use xlink:href="#DejaVuSans-32" x="127.246"/><use xlink:href="#DejaVuSans-32" x="190.869"/><use xlink:href="#DejaVuSans-2d" x="254.492"/><use xlink:href="#DejaVuSans-30" x="290.576"/><use xlink:href="#DejaVuSans-31" x="354.199"/></g></g></g><g id="matplotlib.axis_2"><g id="ytick_1"><path d="M67.645 286.298h558" clip-path="url(#p898aa0858f)" style="fill:none;stroke:#b0b0b0;stroke-width:.3;stroke-linecap:square" id="line2d_9"/><g id="line2d_10"><defs><path id="m70a67c1db4" d="M0 0h-3.5" style="stroke:#b0b0b0;stroke-width:.3"/></defs><use xlink:href="#m70a67c1db4" x="67.645" y="286.298" style="fill:#b0b0b0;stroke:#b0b0b0;stroke-width:.3"/></g><use xlink:href="#DejaVuSans-30" style="fill:#b0b0b0" transform="matrix(.14 0 0 -.14 51.737 291.617)" id="text_9"/></g><g id="ytick_2"><path d="M67.645 252.076h558" clip-path="url(#p898aa0858f)" style="fill:none;stroke:#b0b0b0;stroke-width:.3;stroke-linecap:square" id="line2d_11"/><use xlink:href="#m70a67c1db4" x="67.645" y="252.076" style="fill:#b0b0b0;stroke:#b0b0b0;stroke-width:.3" id="line2d_12"/><g style="fill:#b0b0b0" transform="matrix(.14 0 0 -.14 16.108 257.395)" id="text_10"><defs><path id="DejaVuSans-35" d="M691 4666h2478v-532H1269V2991q137 47 274 70 138 23 276 23 781 0 1237-428 457-428 457-1159 0-753-469-1171Q2575-91 1722-91q-294 0-599 50Q819 9 494 109v635q281-153 581-228t634-75q541 0 856 284 316 284 316 772 0 487-316 771-315 285-856 285-253 0-505-56-251-56-513-175v2344z" transform="scale(.01563)"/></defs><use xlink:href="#DejaVuSans-35"/><use xlink:href="#DejaVuSans-30" x="63.623"/><use xlink:href="#DejaVuSans-30" x="127.246"/><use xlink:href="#DejaVuSans-30" x="190.869"/><use xlink:href="#DejaVuSans-30" x="254.492"/></g></g><g id="ytick_3"><path d="M67.645 217.853h558" clip-path="url(#p898aa0858f)" style="fill:none;stroke:#b0b0b0;stroke-width:.3;stroke-linecap:square" id="line2d_13"/><use xlink:href="#m70a67c1db4" x="67.645" y="217.853" style="fill:#b0b0b0;stroke:#b0b0b0;stroke-width:.3" id="line2d_14"/><g style="fill:#b0b0b0" transform="matrix(.14 0 0 -.14 7.2 223.172)" id="text_11"><use xlink:href="#DejaVuSans-31"/><use xlink:href="#DejaVuSans-30" x="63.623"/><use xlink:href="#DejaVuSans-30" x="127.246"/><use xlink:href="#DejaVuSans-30" x="190.869"/><use xlink:href="#DejaVuSans-30" x="254.492"/><use xlink:href="#DejaVuSans-30" x="318.115"/></g></g><g id="ytick_4"><path d="M67.645 183.631h558" clip-path="url(#p898aa0858f)" style="fill:none;stroke:#b0b0b0;stroke-width:.3;stroke-linecap:square" id="line2d_15"/><use xlink:href="#m70a67c1db4" x="67.645" y="183.631" style="fill:#b0b0b0;stroke:#b0b0b0;stroke-width:.3" id="line2d_16"/><g style="fill:#b0b0b0" transform="matrix(.14 0 0 -.14 7.2 188.95)" id="text_12"><use xlink:href="#DejaVuSans-31"/><use xlink:href="#DejaVuSans-35" x="63.623"/><use xlink:href="#DejaVuSans-30" x="127.246"/><use xlink:href="#DejaVuSans-30" x="190.869"/><use xlink:href="#DejaVuSans-30" x="254.492"/><use xlink:href="#DejaVuSans-30" x="318.115"/></g></g><g id="ytick_5"><path d="M67.645 149.409h558" clip-path="url(#p898aa0858f)" style="fill:none;stroke:#b0b0b0;stroke-width:.3;stroke-linecap:square" id="line2d_17"/><use xlink:href="#m70a67c1db4" x="67.645" y="149.409" style="fill:#b0b0b0;stroke:#b0b0b0;stroke-width:.3" id="line2d_18"/><g style="fill:#b0b0b0" transform="matrix(.14 0 0 -.14 7.2 154.728)" id="text_13"><use xlink:href="#DejaVuSans-32"/><use xlink:href="#DejaVuSans-30" x="63.623"/><use xlink:href="#DejaVuSans-30" x="127.246"/><use xlink:href="#DejaVuSans-30" x="190.869"/><use xlink:href="#DejaVuSans-30" x="254.492"/><use xlink:href="#DejaVuSans-30" x="318.115"/></g></g><g id="ytick_6"><path d="M67.645 115.186h558" clip-path="url(#p898aa0858f)" style="fill:none;stroke:#b0b0b0;stroke-width:.3;stroke-linecap:square" id="line2d_19"/><use xlink:href="#m70a67c1db4" x="67.645" y="115.186" style="fill:#b0b0b0;stroke:#b0b0b0;stroke-width:.3" id="line2d_20"/><g style="fill:#b0b0b0" transform="matrix(.14 0 0 -.14 7.2 120.505)" id="text_14"><use xlink:href="#DejaVuSans-32"/><use xlink:href="#DejaVuSans-35" x="63.623"/><use xlink:href="#DejaVuSans-30" x="127.246"/><use xlink:href="#DejaVuSans-30" x="190.869"/><use xlink:href="#DejaVuSans-30" x="254.492"/><use xlink:href="#DejaVuSans-30" x="318.115"/></g></g><g id="ytick_7"><path d="M67.645 80.964h558" clip-path="url(#p898aa0858f)" style="fill:none;stroke:#b0b0b0;stroke-width:.3;stroke-linecap:square" id="line2d_21"/><use xlink:href="#m70a67c1db4" x="67.645" y="80.964" style="fill:#b0b0b0;stroke:#b0b0b0;stroke-width:.3" id="line2d_22"/><g style="fill:#b0b0b0" transform="matrix(.14 0 0 -.14 7.2 86.283)" id="text_15"><defs><path id="DejaVuSans-33" d="M2597 2516q453-97 707-404 255-306 255-756 0-690-475-1069Q2609-91 1734-91q-293 0-604 58T488 141v609q262-153 574-231 313-78 654-78 593 0 904 234t311 681q0 413-289 645-289 233-804 233h-544v519h569q465 0 712 186t247 536q0 359-255 551-254 193-729 193-260 0-557-57-297-56-653-174v562q360 100 674 150t592 50q719 0 1137-327 419-326 419-882 0-388-222-655t-631-370z" transform="scale(.01563)"/></defs><use xlink:href="#DejaVuSans-33"/><use xlink:href="#DejaVuSans-30" x="63.623"/><use xlink:href="#DejaVuSans-30" x="127.246"/><use xlink:href="#DejaVuSans-30" x="190.869"/><use xlink:href="#DejaVuSans-30" x="254.492"/><use xlink:href="#DejaVuSans-30" x="318.115"/></g></g><g id="ytick_8"><path d="M67.645 46.741h558" clip-path="url(#p898aa0858f)" style="fill:none;stroke:#b0b0b0;stroke-width:.3;stroke-linecap:square" id="line2d_23"/><use xlink:href="#m70a67c1db4" x="67.645" y="46.741" style="fill:#b0b0b0;stroke:#b0b0b0;stroke-width:.3" id="line2d_24"/><g style="fill:#b0b0b0" transform="matrix(.14 0 0 -.14 7.2 52.06)" id="text_16"><use xlink:href="#DejaVuSans-33"/><use xlink:href="#DejaVuSans-35" x="63.623"/><use xlink:href="#DejaVuSans-30" x="127.246"/><use xlink:href="#DejaVuSans-30" x="190.869"/><use xlink:href="#DejaVuSans-30" x="254.492"/><use xlink:href="#DejaVuSans-30" x="318.115"/></g></g><g id="ytick_9"><path d="M67.645 12.519h558" clip-path="url(#p898aa0858f)" style="fill:none;stroke:#b0b0b0;stroke-width:.3;stroke-linecap:square" id="line2d_25"/><use xlink:href="#m70a67c1db4" x="67.645" y="12.519" style="fill:#b0b0b0;stroke:#b0b0b0;stroke-width:.3" id="line2d_26"/><g style="fill:#b0b0b0" transform="matrix(.14 0 0 -.14 7.2 17.838)" id="text_17"><use xlink:href="#DejaVuSans-34"/><use xlink:href="#DejaVuSans-30" x="63.623"/><use xlink:href="#DejaVuSans-30" x="127.246"/><use xlink:href="#DejaVuSans-30" x="190.869"/><use xlink:href="#DejaVuSans-30" x="254.492"/><use xlink:href="#DejaVuSans-30" x="318.115"/></g></g></g><path d="m67.645 286.298 19.702-.092 4.222-.25 1.408-.084 3.518.119 2.11.133 3.52.095 5.628.009 26.036.064 76.698-.125 6.333-.104 7.74.113 10.555.053 26.74-.003 27.442-.345 5.63-.204 3.517-.073 9.852.083 14.776.341 5.63-.011 10.555-.025 4.222-.004 4.925.047 61.218-.136 5.63-.015 5.629.059 8.444-.01 9.85-.356 3.52-.206 8.443-.153 4.222.02 3.518-.004 7.037-.194 2.11.019 17.592.014 7.037-.065 2.11-.276 2.815-.256 3.519.39 4.222.18 6.333.29 2.814.02 2.111-.122 4.926-.374 4.925-.05 3.519-.094 12.665-1.443 2.111-.405 3.519-.895 1.407-.206 2.815-.19 4.222.355 2.11.332 1.408.331 2.11.456 1.408.261 4.926.524 2.814-.086 3.519-.486 2.814-1.046 1.408-.797 1.407-1.478 2.11-2.908 1.408-1.89 1.408-1.53.703-1.11 2.815-7.487 2.11-8.506 2.815-7.442 1.408-7.81 1.407-10.09 1.407-8.715.704-4.143 1.407-15.44 1.408-11.739.703-5.742 2.111-12.858.704-2.816 1.407-18.487 1.408-14.78.703-6.23 1.408-24.632.703-1.578.704-12.645 1.407-20.105.704-15.607.703-5.7.704-28.726.704-12.129.703.227.704 1.513.704 9.836.703.841.704-8.798.704 22.072.703 6.611.704 4.484.704 1.62.703 2.147.704.621 2.111 19.586h0" clip-path="url(#p898aa0858f)" style="fill:none;stroke:#1f77b4;stroke-width:1.5;stroke-linecap:square" id="line2d_27"/><path d="m67.645 286.298 29.554-.108 2.814-.196 3.519-.54 1.407-.414.703-.088 4.926-1.972 4.926-.511 4.222.712.703.305 2.111.43 1.408.397 5.629.519 9.147.827 2.815-.01 10.555.321 1.407.01 4.926.043 2.814.03 7.74-.06 3.519-.117 4.925.114 15.48-.018 7.741-.166 5.63-.143 5.629-.211 15.48-.056 18.295-.747 4.926-1.137 4.925-1.729 1.408-.836 1.407-1.22 1.407-.87.704-.72.704-.537.703-.728.704-.425 1.407-.627.704-.385 1.407-.535.704-.276.704-.424 1.407-.304.704.002 1.407-.308.704-.199.703.092.704-.091.704.248 1.407.18 2.11-.132.704.118 3.519.091 1.407.235 1.407-.035 1.408.155 1.407-.222.704-.308 1.407-.158.704-.347.703-.16 1.408-1.128.703-.238.704-.394.704-.037.703-.676 2.815-1.23.703-.027.704-.499.704.292.703-.515.704.806.704 1.647.703.882 1.408 1.203.703.223.704-.035 2.111.764 2.111.327.704.602.703-.872.704-1.174.704-.648.703-.26.704-.088 1.407.28.704.927.704.588.703.3.704.524.704.14 1.407.82.704.44 1.407.38.703.041.704.485 2.111.925.704.4 2.11.243 1.408.669 1.407.288.704.252.704.105 4.222 1.567 4.222.01.703-.152 2.111-.041 1.408-.25 2.11-.114 2.111-.109 1.408-.037 2.814-.09 3.519-1.183.703-.12 2.111-1.182 1.408-.616 1.407-.304.704-.233 1.407-.904 1.407-.77 2.111-.535.704-.16.704-.031.703.229.704.487.703.134.704.26.704.722.703.38.704-.35 1.407-1.136 1.408-.848.703-1.175.704-.882 2.111-.137 1.407.294.704-.312.704-.009.703-.167 2.111.034.704-.133.704.259.703.468 3.519 1.598.703.41.704.272.704.571 2.11.892.704.138.704.306.703.443 1.408 1.46.703.407 1.408.335 2.11 1.13 1.408.254 1.407.492.704.823.704.585 1.407.298.704.28 1.407.08.704-.223.703.163 1.408.719 1.407.222 1.407.22 1.407.212 2.815.24 2.111.49 2.111.163 11.962.227 7.74-.416 9.852-.637 2.11-.139 4.926-.724 2.111-.603 1.408-.232 2.814-1.197 1.407-.378.704-.18 2.815-1.214 1.407-.22.704-.001 2.11-.516.704-.053.704-.199 2.111-.117.704-.168.703.126.704-.038.704.304.703-.074 1.408.148 2.11.661.704.001 4.222 1.041.704-.042 1.407.118 2.815-.438.703.157 4.222-.059.704-.141 2.111-.054 1.407-.179 1.408-.31 1.407-.268.704-.5.703-.36.704-.788 2.11-1.15.705-.362.703-.606.704-1.17 2.11-1.432.704-.302.704-.033.704.275.703-.578 1.408-2.436 1.407-1.223.704-1.077 1.407-3.474 2.111-3.183.704-.791.703-1 1.408-2.769.703-.423.704-1.843.704-.902.703-.688 2.111-3.708.704-2.293.704-.313.703-.163.704.125 1.407-.072 2.111.727 1.407.379.704.947.704-.236.703.254 1.408 2.335.703.92 1.408 1.108.703 1.789.704 1.362 1.407 2.074.704.322.704.553.703.723.704.552.704 1.149.703 1.52 1.408 3.895 1.407.443.704.549.703.21.704-.567.704-.409.703-.236.704-.45.703-.928 2.111-5.43.704-2.884.704-2.35.703-.659.704-1.479.704-2.104.703-1.67.704-3.509.704-2.164.703-1.56.704-.869 1.407-5.926 2.111-15.4 1.408-6.08 1.407-10.191.704-6.806 1.407-10.138.704-3.279.703-1.46.704-3.486.704-4.35.703-3.226.704-5.739.704-2.8.703-1.39.704-1.657.703-.68.704-2.518.704-1.148 2.11 2.415.704 1.839.704 1.012 1.407 2.593 1.408 3.99.703.697.704.254.704 3.257.703 1.068.704 1.888.704.91.703 1.297 1.408 2.116.703.37.704 2.215.704.552.703-.67.704-1.601.704-.878.703-1.572 1.408-6.271.703-5.092.704-3.446.704-4.388.703-2.906.704-1.364 2.814-16.233.704-2.264.704 1.45.703.005 2.111-6.628.704.132.704.803.703 2.011.704 2.426.704-1.493.703 1.492.704-24.127h0" clip-path="url(#p898aa0858f)" style="fill:none;stroke:#ff7f0e;stroke-width:1.5;stroke-linecap:square" id="line2d_28"/><path d="m67.645 286.298 28.146-.097 3.519-.202 2.814-.28 2.815-.395 1.407-.34 1.407-.27 2.815-.717.704-.097.703-.526.704-.184.704.177.703-.14.704 2.125 1.407.336.704.61h2.111l.704-1.043.703-4.879.704-.047.704-2.047.703.063.704-.86.704-.031.703-.231.704 4.855.704.068.703 1.445.704.138.704 1.397.703-.09.704.208.703.045 1.408-.167.703.318.704-.286.704.223 1.407.114 1.407.502.704-.547 2.815.083 1.407.06.704.354 9.85.171.704-.3.704.015 1.407-.187 1.408.08.703.332 1.408-.098.703.12 2.111-.115.704-.377.704.39 3.518-.016 4.222-.015 3.518.021.704.074 2.814-.123 1.408.08 2.814-.063 7.74-.003 4.223-.202 2.814-.107 5.63-.203 1.407-.106h.703l1.408-.18 2.11-.244 1.408-.602.704.404 1.407-.185 1.407-.408.704-.026 2.111-.443.704.342.703-.628 1.408-.455 1.407-.175.704-.148.703-.664.704.4.704-.12.703-.306 4.926-1.172.703.065 1.408-.307.703-.163.704-.047.704-.362.703-.217.704-.41.704.077 1.407-.511.704-.555.703-.28 1.408-.075 1.407.325.704-.11 1.407.64 1.407-.407.704-.131.704-.323 1.407-.877 1.407-1.834 2.815-1.31.703-1.207 1.408-.985.703-1.353.704-.497.704-.66.703-.434.704-1.081.704-1.684.703-1.283.704 2.27.704-5.741.703-1.377.704-.991 1.407-1.218.704.994.704-3.868 1.407-6.964.704 8.18 1.407-2.215.704-5.04.703.744.704 8.279.704 4.887.703-8.07.704 2.471.704 3.6.703 5.348 1.408 2.224.703-2.248.704.74.703 1.15.704.085 1.407 2.772.704.488.704 3.489.703 1.182.704.762.704 1.025.703.508.704.33 1.407.218.704.247 3.518.076.704-.548 1.407-.15 1.408-.297 1.407-.036.704.227.703-.298.704-.442 2.814-.974.704-.013.704.267 1.407-.754.704 1.402 1.407.67.704.035.703-1.127 1.408.256.703-.036.704-.355.704-.095.703-.913.704.13.704-.173.703-.05.704-1.633.704-.338 1.407.132 1.407.165 2.111-.332.704.002.704-.417.703-.276 1.408-.331 1.407-.438.703-.049.704.184 4.222-.21.704-.116.703.053.704 2.326.704-2.188.703.338 1.408-.032.703.422.704.097.704-2.058.703 2.434.704-.063.704.297 2.11-.026.704-.141.704-.334.704-.112.703-.525 1.408-.082.703-.635.704-.283 1.407-.276.704.204.703-.007.704-.262.704.461.703.013 1.408.237 1.407-.265.704-.03 1.407-.553.704-.153.703-.623.704-.451.704-.09.703-.67.704-.866.704-.683.703-.982 1.408-.957.703-.913.704 1.499.704-2.628.703-1.035 2.111-2.005.704.655.704-1.567.703.62 1.408-.96.703 4.152.704-4.254.703-.165.704 2.216.704 5.683.703-4.532.704 4.548.704-.12.703-3.645.704.22.704-3.039.703-4.163.704 5.768 1.407-6.919.704 8.656.704.18.703-.483.704.839 1.407.856.704.315.704.477.703.073.704 1.345.704.33 2.11 2.139.704 1.426.704.214 1.407 1.123 2.111 1.456 1.407.123 1.408.889.703.22.704 1.183.704.498.703-.479.704-.005 1.407.49.704 9.371h4.222l.704-6.566 2.814.545.704-.655.704 1.106.703-.16 2.111 1.24.704-.08.704.376.703-.413.704 1.083 1.407.564.704.216.703.046 2.111.755 7.74.69.704-.116.704.093 4.222-.36 1.407-.438 2.111-.518.704-.045.704-.33.703.258 2.815-2.689.703-.286.704-1.1.704-1.968.703-1.08.704-.828.704-1.441.703-.265.704-.12.704-.87.703-.622.704-.325.704-.48.703.184 1.408-.748.703.277 3.519-.685.703.135 1.408-.797 1.407-.463.704.14.703-.08.704-.603 2.814 1.527.704.167.704.388.703.537.704-.078 1.407 1.176.704 2.2.704-1.264.703.36.704.02.704 2.532.703-.921.704.54.704-1.443.703 2.18.704.315.704.453.703-1.42.704 2.66.704-.388.703.51 1.408.588 1.407.08.704.542.703.365 2.111.594.704.076.704.555.703-.66.704.693.703.105.704.255 7.037.94.703-.34 4.222.073.704.793.704-.434.703-.137 2.815.015.704-.438.703.33 1.408-.162 1.407-.139 2.11-.15 1.408-.106 1.407-.18.704.456 2.111-.89 1.407-.438.704-.035.704-1.023.703-.16.704-.317.704.508 1.407-.876.704-.105 2.11-2.297.704-1.7 1.408-1.493.703-.199 1.408-2.238 2.814-5.136.704-.314 2.814-6.345.704-1.406.704-1.033.703-.302 1.408-2.22.703-.826.704-.518 1.407-.406.704-.045 2.111-1.246.704-.292 1.407-.903.704-.297.703-.925.704-1.819.704-3.005.703-3.517.704-4.506.704 2.032.703-1.501.704-10.455 2.815-48.047.703-3.006.704-3.618.703-9.012.704-12.134.704-5.51 1.407-17.658.704-23.239.703-2.586.704-9.47.704-2.891.703-4.448.704-.144.704-2.048.703 1.757.704-.853.704-9.431.703-7.302.704-11.629 1.407-13.34.704-2.299.704-.667.703-3.723.704.865.704 3.297.703 4.61 1.408 10.668.703 2.056.704 8.664 3.518 53.94.704 3.872.703 17.213.704 30.703.704-5.664 1.407 19.92.704 6.734.703 1.587.704 23.147.704-23.551.703 23.536 1.408 8.85.703 2.693.704 1.186.704-9.343.703 16.56 2.111 7.324.704 1.605.704.462 1.407 3.158.704.705 1.407.032.704-.267.703-.055 2.111-3.72.704-1.37.704-1.648.703-1.34.704-.616.703-2.316.704-3.778 2.111-7.784.704-2.175.703-.187.704-6.238 2.111-12.638.704-4.05.703-2.825.704-.515.704-3.568.703-1.463.704-2.852h0" clip-path="url(#p898aa0858f)" style="fill:none;stroke:#2ca02c;stroke-width:1.5;stroke-linecap:square" id="line2d_29"/><path d="m67.645 286.298 339.163-.102 3.518-.073 24.628-.214 3.518-.303 2.111-.307 1.408-.278 1.407-.432 1.407-.494 4.222-1.773.704-.317 1.407-.22.704-.524.703-.096.704-.258.704.095 1.407-.212.704.506.703-.604.704-.076 1.407.573 1.408-.567.703-.913.704.872.704-.129.703.224.704-.476.704.25 1.407.099.704-.153.703-.019.704-.536.703-.145.704-.364 3.518-.888.704-.662.704.13.703-.14.704-.375.704-.175.703.064.704-.158 1.407.497.704-.033.704.17 1.407-.278 1.407.233.704-.236 1.407.236.704.362 4.222 1.258 1.407-.208.704.1.703.291 2.111-.096.704.694.704.271.703-.184.704.154 2.111 1.255.704.022.703.43.704.704 1.407.308 2.111.492 3.519.343 1.407.036 4.926-.185 2.11-.287 4.222-1.145 3.519-1.162 1.407-.235 1.407-.24 1.408-.113 2.11-.597 1.408-.167 1.407-.335.704-2.823 1.407-.41.704-.34.704-.639 1.407-.635.704 2.46.703-.264 1.407-.257.704.202 1.407-.215 1.408.004.703-.157.704-.034.704-.21 1.407-.108 1.407-.226.704-1.834 4.222-.328.704 1.73.703-.09 2.111.127 1.408.445.703-.341 2.815-.235.703-.713.704-.305.704-.585.703.024.704-.168.704-.61.703.11.704.556.704-1.102.703.891 1.408.04.703.734.704 1.449.704-2.205.703 1.206 2.111.077.704.069.704-1.405.703 2.233 1.408.098 1.407.152.704-1.446.703.165.704.462 1.407 1.402 1.408.617.703 1.53.704-.404.703-1.064 3.519-7.328.703-1.232 2.111-3.017.704-1.56.704-2.69 2.11-6.124.704-4.607 1.408-6.774.703-4.307.704-5.342.704-7.392.703-5.67.704-6.844 1.407-19.738.704-7.273.704-9.812.703-2.432.704-7.888.704-11.08.703-4.137.704-1.448.704-27.47.703-.717.704-11.482.703 1.89.704-.232.704-13.25.703-.415.704 2.883.704 4.233.703 13.012.704-7.203.704 12.388.703 22.877.704 3.05.704 26.05.703 7.264.704-12.874.704 13.446.703 5.385.704 2.703h0" clip-path="url(#p898aa0858f)" style="fill:none;stroke:#d62728;stroke-width:1.5;stroke-linecap:square" id="line2d_30"/><path d="m67.645 286.298 30.257-.103 7.037-.517 1.407-.266 4.926-1.216 2.814-.776 2.815-.389 2.111.043 4.222.241 4.222-.348 7.036.273 1.408.178 2.11.375 1.408.27 1.407.044 2.111.194 9.148.771 2.11.172 11.963.364 10.555.351 1.407.082 3.518-.059 2.111-.084 9.148-.059 5.63-.058 6.332-.083 3.518-.16 9.852-.053 2.11-.125 2.815-.196 5.63-.961 1.407-.03 1.407-.176 2.815-.394 1.407-.391 1.407-.566 1.408-.334.703.031.704-.217 1.407-.12.704-.01.704-.668.703-1.688 1.408-1.56.703-.69.704-1.038.704-.675.703-.224.704.985.704-.135.703-.264.704-.546 2.11-.413 2.112-1.277.703-.679.704-.22.704-.48.703-.67 1.408-.478.703-.15.704.195.704-.179.703-.377.704.11.704-.34 1.407.469 2.11-.047.705-.3.703.26.704-.234.704-.038.703.215.704-.914.704-.392.703-.186.704-.43 1.407.035.704.33.703 1.034 2.111 1.988.704.578.704.856.703.135 2.815 2.089.704.303.703-.212 1.408.457.703-.156.704.03.704-.504.703-.234.704.105.704-.04 2.11-1.708.704-.116 1.408-1.152.703-.845.704-1.41 1.407-1.23.704-1.718.703-1.278.704-1.8.704-1.379 1.407-.772.704-.745.703.359.704-.783.704-1.591.703-1.064.704-1.645 1.407-4.268.704-2.218.704-1.708.703-.764.704-1.204.704.314.703-1.439.704-.214.704.009.703 1.234 1.408 2.965.703.391.704 1.204 1.407 3.42.704.85.704 1.194.703.848.704 1.058.704 1.522 1.407 1.6 1.407 2.8.704 1.332.703.897 1.408 2.096.703.872 1.408.669.703.597.704.79.704.976 3.518 2.489.704.702 1.407.88 1.407.906.704.176 1.407.174 1.408.586.703.113.704-.085 2.11.684 2.112 1.007.703.507.704.207 2.111.926 1.407.208 2.111.155 3.519-.009 4.222.231 3.518-.144 1.407.307 1.408.193 1.407.315.704.275 1.407.198 2.11.483.704.14.704.804 1.407.135 1.408-.093 1.407.06.704-.742 2.814.087 7.037.209 6.333.094 2.11-.132 3.52.046.703.475 2.11-.039 2.112-.098.703-.468 5.63-.73 2.11-.619 2.112-.712 1.407-.5 4.222-1.073 1.407-.576 2.815-1.078 1.407-1.275.704-.493.703-.773.704-.545.704-1.193 1.407-1.805 1.407-2.194.704-.642.704-.91.703-.438 1.408-1.435.703-.437 1.408-1.597 2.11-2.236.704-.984 1.407-3.204.704-2.188.704-1.636.703-.54.704-1 .704-.192.703.836.704 1.553 1.407 4.086.704 1.497.704 2.274.703 1.803.704.891 1.407 1.248.704.474 1.407.393.704-.334.704.084 2.11-.768 1.408-.432.704-.025.703-.277 1.408-.175.703.074 2.111-1.076 2.111-1.058.704-.543 2.11-.91 1.408-.236 1.407-.117.704.533.704-.126 1.407.017 2.111-1.238.704-1.423.703-.535.704-.296.704.041.703.522 1.408 1.54 2.814 4.003.704.436 1.407-.119 1.408-.975.703-.382.704-.904.703-.309.704-.048.704-.37.703-.163.704-.355.704-.14 1.407.1.704.046 1.407.633.704.158 1.407-.755.704-.04.703-.976 1.408-.894.703-.456.704-.269.704-.475.703-.908.704-.334 1.407-1.993 1.408-1.26.703-.68.704-.45.704-.217.703.583.704 1.233.704-.017.703.46.704 1.198.703.562.704.398.704.106.703-.35.704.982 1.407.498 2.111 2.704.704.75.704.074.703.194 3.519-3.302.703-.405.704.137 2.11-1.233.705-.33 2.11-1.525.704.091.704-.501.704.028 2.11.803.704-.478.704-.619 1.407-.3.704-.671.703-.864.704-.486.704-.297.703.294.704-.724.704-1.053.703-.462.704-.281.704-1.387.703-2.644 2.111-10.625 2.111-9.961.704-2.706.704-3.445 1.407-6.05.704-3.625.703-1.546.704-4.77 1.407-14.12.704-6.758.704-4.04.703-1.597 1.407-16.237.704-1.18.704.804.703 1.05.704 2.115.704-.643.703 4.348.704 10.41.704 6.175 2.11 21.12.704 6.99.704 5.29 1.407 4.554.704-.162 1.407.767 1.408-.98.703-.076.704.567.704 1.072.703.7.704.466.704 1.207.703-73.595.704-1.742.704 1.452.703.145.704.657.704 1.195.703.899.704 76.68.703 4.533.704 1.918.704-6.724.703 2.323 1.408 2.656 1.407 4.167.704 1.339.703 10.903.704 1.095.704.659.703.996.704.293.704.46 2.11 4.237.704 3.835.704 3.032.704-4.281.703-5.675.704-.458.704-.678.703-1.26h1.408l.703-4.34.704 3.571.704-2.283.703-3.799.704-2.754h1.407l.704-4.376.703-5.626.704-2.472.704-.632.703-1.96h1.408l.703-5.352.704 2.446 1.407-1.909.704 1.454h1.407l.704 1.077 1.407 2.77.704 2.596h0" clip-path="url(#p898aa0858f)" style="fill:none;stroke:#9467bd;stroke-width:1.5;stroke-linecap:square" id="line2d_31"/><g style="fill:#1f77b4" transform="matrix(.14 0 0 -.14 642.385 73.72)" id="text_18"><defs><path id="DejaVuSans-4b" d="M628 4666h631V2694l2094 1972h813L1850 2491 4331 0h-831L1259 2247V0H628v4666z" transform="scale(.01563)"/><path id="DejaVuSans-6f" d="M1959 3097q-462 0-731-361t-269-989q0-628 267-989 268-361 733-361 460 0 728 362 269 363 269 988 0 622-269 986-268 364-728 364zm0 487q750 0 1178-488 429-487 429-1349 0-859-429-1349Q2709-91 1959-91q-753 0-1180 489-426 490-426 1349 0 862 426 1349 427 488 1180 488z" transform="scale(.01563)"/><path id="DejaVuSans-72" d="M2631 2963q-97 56-211 82-114 27-251 27-488 0-749-317t-261-911V0H581v3500h578v-544q182 319 472 473 291 155 707 155 59 0 131-8 72-7 159-23l3-590z" transform="scale(.01563)"/><path id="DejaVuSans-65" d="M3597 1894v-281H953q38-594 358-905t892-311q331 0 642 81t618 244V178Q3153 47 2828-22t-659-69q-838 0-1327 487-489 488-489 1320 0 859 464 1363 464 505 1252 505 706 0 1117-455 411-454 411-1235zm-575 169q-6 471-264 752-258 282-683 282-481 0-770-272t-333-766l2050 4z" transform="scale(.01563)"/><path id="DejaVuSans-61" d="M2194 1759q-697 0-966-159t-269-544q0-306 202-486 202-179 548-179 479 0 768 339t289 901v128h-572zm1147 238V0h-575v531q-197-318-491-470T1556-91q-537 0-855 302-317 302-317 808 0 590 395 890 396 300 1180 300h807v57q0 397-261 614t-733 217q-300 0-585-72-284-72-546-216v532q315 122 612 182 297 61 578 61 760 0 1135-394 375-393 375-1193z" transform="scale(.01563)"/><path id="DejaVuSans-2c" d="M750 794h659V256L897-744H494L750 256v538z" transform="scale(.01563)"/><path id="DejaVuSans-53" d="M3425 4513v-616q-359 172-678 256-319 85-616 85-515 0-795-200t-280-569q0-310 186-468 186-157 705-254l381-78q706-135 1042-474t336-907q0-679-455-1029Q2797-91 1919-91q-331 0-705 75-373 75-773 222v650q384-215 753-325 369-109 725-109 540 0 834 212 294 213 294 607 0 343-211 537t-692 291l-385 75q-706 140-1022 440-315 300-315 835 0 619 436 975t1201 356q329 0 669-60 341-59 697-177z" transform="scale(.01563)"/><path id="DejaVuSans-75" d="M544 1381v2119h575V1403q0-497 193-746 194-248 582-248 465 0 735 297 271 297 271 810v1984h575V0h-575v538q-209-319-486-474-276-155-642-155-603 0-916 375-312 375-312 1097zm1447 2203z" transform="scale(.01563)"/><path id="DejaVuSans-74" d="M1172 4494v-994h1184v-447H1172V1153q0-428 117-550t477-122h590V0h-590q-666 0-919 248-253 249-253 905v1900H172v447h422v994h578z" transform="scale(.01563)"/><path id="DejaVuSans-68" d="M3513 2113V0h-575v2094q0 497-194 743-194 247-581 247-466 0-735-297-269-296-269-809V0H581v4863h578V2956q207 316 486 472 280 156 646 156 603 0 912-373 310-373 310-1098z" transform="scale(.01563)"/></defs><use xlink:href="#DejaVuSans-4b"/><use xlink:href="#DejaVuSans-6f" x="60.576"/><use xlink:href="#DejaVuSans-72" x="121.758"/><use xlink:href="#DejaVuSans-65" x="160.621"/><use xlink:href="#DejaVuSans-61" x="222.145"/><use xlink:href="#DejaVuSans-2c" x="283.424"/><use xlink:href="#DejaVuSans-20" x="315.211"/><use xlink:href="#DejaVuSans-53" x="346.998"/><use xlink:href="#DejaVuSans-6f" x="410.475"/><use xlink:href="#DejaVuSans-75" x="471.656"/><use xlink:href="#DejaVuSans-74" x="535.035"/><use xlink:href="#DejaVuSans-68" x="574.244"/></g><g style="fill:#ff7f0e" transform="matrix(.14 0 0 -.14 642.385 114.335)" id="text_19"><defs><path id="DejaVuSans-47" d="M3809 666v1253H2778v519h1656V434q-365-259-806-392-440-133-940-133-1094 0-1712 639-617 640-617 1780 0 1144 617 1783 618 639 1712 639 456 0 867-113 411-112 758-331v-672q-350 297-744 447t-828 150q-857 0-1287-478-429-478-429-1425 0-944 429-1422 430-478 1287-478 334 0 596 58 263 58 472 180z" transform="scale(.01563)"/><path id="DejaVuSans-6d" d="M3328 2828q216 388 516 572t706 184q547 0 844-383 297-382 297-1088V0h-578v2094q0 503-179 746-178 244-543 244-447 0-707-297-259-296-259-809V0h-578v2094q0 506-178 748t-550 242q-441 0-701-298-259-298-259-808V0H581v3500h578v-544q197 322 472 475t653 153q382 0 649-194 267-193 395-562z" transform="scale(.01563)"/><path id="DejaVuSans-6e" d="M3513 2113V0h-575v2094q0 497-194 743-194 247-581 247-466 0-735-297-269-296-269-809V0H581v3500h578v-544q207 316 486 472 280 156 646 156 603 0 912-373 310-373 310-1098z" transform="scale(.01563)"/><path id="DejaVuSans-79" d="M2059-325q-243-625-475-815-231-191-618-191H506v481h338q237 0 368 113 132 112 291 531l103 262L191 3500h609L1894 763l1094 2737h609L2059-325z" transform="scale(.01563)"/></defs><use xlink:href="#DejaVuSans-47"/><use xlink:href="#DejaVuSans-65" x="77.49"/><use xlink:href="#DejaVuSans-72" x="139.014"/><use xlink:href="#DejaVuSans-6d" x="178.377"/><use xlink:href="#DejaVuSans-61" x="275.789"/><use xlink:href="#DejaVuSans-6e" x="337.068"/><use xlink:href="#DejaVuSans-79" x="400.447"/></g><g style="fill:#2ca02c" transform="matrix(.14 0 0 -.14 642.385 188.1)" id="text_20"><defs><path id="DejaVuSans-46" d="M628 4666h2681v-532H1259V2759h1850v-531H1259V0H628v4666z" transform="scale(.01563)"/><path id="DejaVuSans-63" d="M3122 3366v-538q-244 135-489 202t-495 67q-560 0-870-355-309-354-309-995t309-996q310-354 870-354 250 0 495 67t489 202V134Q2881 22 2623-34q-257-57-548-57-791 0-1257 497-465 497-465 1341 0 856 470 1346 471 491 1290 491 265 0 518-55 253-54 491-163z" transform="scale(.01563)"/></defs><use xlink:href="#DejaVuSans-46"/><use xlink:href="#DejaVuSans-72" x="50.27"/><use xlink:href="#DejaVuSans-61" x="91.383"/><use xlink:href="#DejaVuSans-6e" x="152.662"/><use xlink:href="#DejaVuSans-63" x="216.041"/><use xlink:href="#DejaVuSans-65" x="271.021"/></g><g style="fill:#d62728" transform="matrix(.14 0 0 -.14 642.385 202.1)" id="text_21"><defs><path id="DejaVuSans-56" d="M1831 0 50 4666h659L2188 738l1481 3928h656L2547 0h-716z" transform="scale(.01563)"/><path id="DejaVuSans-69" d="M603 3500h575V0H603v3500zm0 1363h575v-729H603v729z" transform="scale(.01563)"/></defs><use xlink:href="#DejaVuSans-56"/><use xlink:href="#DejaVuSans-69" x="66.158"/><use xlink:href="#DejaVuSans-65" x="93.941"/><use xlink:href="#DejaVuSans-74" x="155.465"/><use xlink:href="#DejaVuSans-6e" x="194.674"/><use xlink:href="#DejaVuSans-61" x="258.053"/><use xlink:href="#DejaVuSans-6d" x="319.332"/></g><g style="fill:#9467bd" transform="matrix(.14 0 0 -.14 642.385 237.45)" id="text_22"><defs><path id="DejaVuSans-55" d="M556 4666h635V1831q0-750 271-1080 272-329 882-329 606 0 878 329 272 330 272 1080v2835h634V1753q0-912-452-1378Q3225-91 2344-91q-885 0-1337 466-451 466-451 1378v2913z" transform="scale(.01563)"/><path id="DejaVuSans-64" d="M2906 2969v1894h575V0h-575v525q-181-312-458-464-276-152-664-152-634 0-1033 506-398 507-398 1332t398 1331q399 506 1033 506 388 0 664-152 277-151 458-463zM947 1747q0-634 261-995t717-361q456 0 718 361 263 361 263 995t-263 995q-262 361-718 361t-717-361q-261-361-261-995z" transform="scale(.01563)"/><path id="DejaVuSans-67" d="M2906 1791q0 625-258 968-257 344-723 344-462 0-720-344-258-343-258-968 0-622 258-966t720-344q466 0 723 344 258 344 258 966zm575-1357q0-893-397-1329-396-436-1215-436-303 0-572 45t-522 139v559q253-137 500-202 247-66 503-66 566 0 847 295t281 892v285q-178-310-456-463T1784 0Q1141 0 747 490 353 981 353 1791q0 812 394 1302 394 491 1037 491 388 0 666-153t456-462v531h575V434z" transform="scale(.01563)"/></defs><use xlink:href="#DejaVuSans-55"/><use xlink:href="#DejaVuSans-6e" x="73.193"/><use xlink:href="#DejaVuSans-69" x="136.572"/><use xlink:href="#DejaVuSans-74" x="164.355"/><use xlink:href="#DejaVuSans-65" x="203.564"/><use xlink:href="#DejaVuSans-64" x="265.088"/><use xlink:href="#DejaVuSans-20" x="328.564"/><use xlink:href="#DejaVuSans-4b" x="360.352"/><use xlink:href="#DejaVuSans-69" x="425.928"/><use xlink:href="#DejaVuSans-6e" x="453.711"/><use xlink:href="#DejaVuSans-67" x="517.09"/><use xlink:href="#DejaVuSans-64" x="580.566"/><use xlink:href="#DejaVuSans-6f" x="644.043"/><use xlink:href="#DejaVuSans-6d" x="705.225"/></g></g></g><defs><clipPath id="p898aa0858f"><path d="M67.645 9.098h558v277.2h-558z"/></clipPath></defs></svg>