<svg xmlns="http://www.w3.org/2000/svg" xmlns:xlink="http://www.w3.org/1999/xlink" width="985.137" height="420.668" viewBox="0 0 738.852 315.501"><defs><style>*{stroke-linejoin:round;stroke-linecap:butt}</style></defs><g id="figure_1"><path id="patch_1" d="M0 315.5h738.852V0H0v315.5z" style="fill:none"/><g id="axes_1"><path id="patch_2" d="M67.645 287.35h558V10.15h-558v277.2z" style="fill:none"/><g id="matplotlib.axis_1"><g id="xtick_1"><g id="line2d_1"><defs><path id="m23904b249f" d="M0 0v3.5" style="stroke:#b0b0b0;stroke-width:.4"/></defs><use xlink:href="#m23904b249f" x="102.934" y="287.35" style="fill:#b0b0b0;stroke:#b0b0b0;stroke-width:.4"/></g><g id="text_1" style="fill:#b0b0b0" transform="matrix(.14 0 0 -.14 73.686 304.988)"><defs><path id="DejaVuSans-32" d="M1228 531h2203V0H469v531q359 372 979 998 621 627 780 809 303 340 423 576 121 236 121 464 0 372-261 606-261 235-680 235-297 0-627-103-329-103-704-313v638q381 153 712 231 332 78 607 78 725 0 1156-363 431-362 431-968 0-288-108-546-107-257-392-607-78-91-497-524-418-433-1181-1211z" transform="scale(.01563)"/><path id="DejaVuSans-30" d="M2034 4250q-487 0-733-480-245-479-245-1442 0-959 245-1439 246-480 733-480 491 0 736 480 246 480 246 1439 0 963-246 1442-245 480-736 480zm0 500q785 0 1199-621 414-620 414-1801 0-1178-414-1799Q2819-91 2034-91q-784 0-1198 620-414 621-414 1799 0 1181 414 1801 414 621 1198 621z" transform="scale(.01563)"/><path id="DejaVuSans-2d" d="M313 2009h1684v-512H313v512z" transform="scale(.01563)"/><path id="DejaVuSans-34" d="M2419 4116 825 1625h1594v2491zm-166 550h794V1625h666v-525h-666V0h-628v1100H313v609l1940 2957z" transform="scale(.01563)"/></defs><use xlink:href="#DejaVuSans-32"/><use xlink:href="#DejaVuSans-30" x="63.623"/><use xlink:href="#DejaVuSans-32" x="127.246"/><use xlink:href="#DejaVuSans-30" x="190.869"/><use xlink:href="#DejaVuSans-2d" x="254.492"/><use xlink:href="#DejaVuSans-30" x="290.576"/><use xlink:href="#DejaVuSans-34" x="354.199"/></g></g><g id="xtick_2"><use xlink:href="#m23904b249f" id="line2d_2" x="153.109" y="287.35" style="fill:#b0b0b0;stroke:#b0b0b0;stroke-width:.4"/><g id="text_2" style="fill:#b0b0b0" transform="matrix(.14 0 0 -.14 123.861 304.988)"><defs><path id="DejaVuSans-37" d="M525 4666h3000v-269L1831 0h-659l1594 4134H525v532z" transform="scale(.01563)"/></defs><use xlink:href="#DejaVuSans-32"/><use xlink:href="#DejaVuSans-30" x="63.623"/><use xlink:href="#DejaVuSans-32" x="127.246"/><use xlink:href="#DejaVuSans-30" x="190.869"/><use xlink:href="#DejaVuSans-2d" x="254.492"/><use xlink:href="#DejaVuSans-30" x="290.576"/><use xlink:href="#DejaVuSans-37" x="354.199"/></g></g><g id="xtick_3"><use xlink:href="#m23904b249f" id="line2d_3" x="203.837" y="287.35" style="fill:#b0b0b0;stroke:#b0b0b0;stroke-width:.4"/><g id="text_3" style="fill:#b0b0b0" transform="matrix(.14 0 0 -.14 174.589 304.988)"><defs><path id="DejaVuSans-31" d="M794 531h1031v3560L703 3866v575l1116 225h631V531h1031V0H794v531z" transform="scale(.01563)"/></defs><use xlink:href="#DejaVuSans-32"/><use xlink:href="#DejaVuSans-30" x="63.623"/><use xlink:href="#DejaVuSans-32" x="127.246"/><use xlink:href="#DejaVuSans-30" x="190.869"/><use xlink:href="#DejaVuSans-2d" x="254.492"/><use xlink:href="#DejaVuSans-31" x="290.576"/><use xlink:href="#DejaVuSans-30" x="354.199"/></g></g><g id="xtick_4"><use xlink:href="#m23904b249f" id="line2d_4" x="254.564" y="287.35" style="fill:#b0b0b0;stroke:#b0b0b0;stroke-width:.4"/><g id="text_4" style="fill:#b0b0b0" transform="matrix(.14 0 0 -.14 225.316 304.988)"><use xlink:href="#DejaVuSans-32"/><use xlink:href="#DejaVuSans-30" x="63.623"/><use xlink:href="#DejaVuSans-32" x="127.246"/><use xlink:href="#DejaVuSans-31" x="190.869"/><use xlink:href="#DejaVuSans-2d" x="254.492"/><use xlink:href="#DejaVuSans-30" x="290.576"/><use xlink:href="#DejaVuSans-31" x="354.199"/></g></g><g id="xtick_5"><use xlink:href="#m23904b249f" id="line2d_5" x="304.188" y="287.35" style="fill:#b0b0b0;stroke:#b0b0b0;stroke-width:.4"/><g id="text_5" style="fill:#b0b0b0" transform="matrix(.14 0 0 -.14 274.94 304.988)"><use xlink:href="#DejaVuSans-32"/><use xlink:href="#DejaVuSans-30" x="63.623"/><use xlink:href="#DejaVuSans-32" x="127.246"/><use xlink:href="#DejaVuSans-31" x="190.869"/><use xlink:href="#DejaVuSans-2d" x="254.492"/><use xlink:href="#DejaVuSans-30" x="290.576"/><use xlink:href="#DejaVuSans-34" x="354.199"/></g></g><g id="xtick_6"><use xlink:href="#m23904b249f" id="line2d_6" x="354.364" y="287.35" style="fill:#b0b0b0;stroke:#b0b0b0;stroke-width:.4"/><g id="text_6" style="fill:#b0b0b0" transform="matrix(.14 0 0 -.14 325.116 304.988)"><use xlink:href="#DejaVuSans-32"/><use xlink:href="#DejaVuSans-30" x="63.623"/><use xlink:href="#DejaVuSans-32" x="127.246"/><use xlink:href="#DejaVuSans-31" x="190.869"/><use xlink:href="#DejaVuSans-2d" x="254.492"/><use xlink:href="#DejaVuSans-30" x="290.576"/><use xlink:href="#DejaVuSans-37" x="354.199"/></g></g><g id="xtick_7"><use xlink:href="#m23904b249f" id="line2d_7" x="405.092" y="287.35" style="fill:#b0b0b0;stroke:#b0b0b0;stroke-width:.4"/><g id="text_7" style="fill:#b0b0b0" transform="matrix(.14 0 0 -.14 375.844 304.988)"><use xlink:href="#DejaVuSans-32"/><use xlink:href="#DejaVuSans-30" x="63.623"/><use xlink:href="#DejaVuSans-32" x="127.246"/><use xlink:href="#DejaVuSans-31" x="190.869"/><use xlink:href="#DejaVuSans-2d" x="254.492"/><use xlink:href="#DejaVuSans-31" x="290.576"/><use xlink:href="#DejaVuSans-30" x="354.199"/></g></g><g id="xtick_8"><use xlink:href="#m23904b249f" id="line2d_8" x="455.819" y="287.35" style="fill:#b0b0b0;stroke:#b0b0b0;stroke-width:.4"/><g id="text_8" style="fill:#b0b0b0" transform="matrix(.14 0 0 -.14 426.57 304.988)"><use xlink:href="#DejaVuSans-32"/><use xlink:href="#DejaVuSans-30" x="63.623"/><use xlink:href="#DejaVuSans-32" x="127.246"/><use xlink:href="#DejaVuSans-32" x="190.869"/><use xlink:href="#DejaVuSans-2d" x="254.492"/><use xlink:href="#DejaVuSans-30" x="290.576"/><use xlink:href="#DejaVuSans-31" x="354.199"/></g></g><g id="xtick_9"><use xlink:href="#m23904b249f" id="line2d_9" x="505.443" y="287.35" style="fill:#b0b0b0;stroke:#b0b0b0;stroke-width:.4"/><g id="text_9" style="fill:#b0b0b0" transform="matrix(.14 0 0 -.14 476.195 304.988)"><use xlink:href="#DejaVuSans-32"/><use xlink:href="#DejaVuSans-30" x="63.623"/><use xlink:href="#DejaVuSans-32" x="127.246"/><use xlink:href="#DejaVuSans-32" x="190.869"/><use xlink:href="#DejaVuSans-2d" x="254.492"/><use xlink:href="#DejaVuSans-30" x="290.576"/><use xlink:href="#DejaVuSans-34" x="354.199"/></g></g><g id="xtick_10"><use xlink:href="#m23904b249f" id="line2d_10" x="555.619" y="287.35" style="fill:#b0b0b0;stroke:#b0b0b0;stroke-width:.4"/><g id="text_10" style="fill:#b0b0b0" transform="matrix(.14 0 0 -.14 526.371 304.988)"><use xlink:href="#DejaVuSans-32"/><use xlink:href="#DejaVuSans-30" x="63.623"/><use xlink:href="#DejaVuSans-32" x="127.246"/><use xlink:href="#DejaVuSans-32" x="190.869"/><use xlink:href="#DejaVuSans-2d" x="254.492"/><use xlink:href="#DejaVuSans-30" x="290.576"/><use xlink:href="#DejaVuSans-37" x="354.199"/></g></g><g id="xtick_11"><use xlink:href="#m23904b249f" id="line2d_11" x="606.347" y="287.35" style="fill:#b0b0b0;stroke:#b0b0b0;stroke-width:.4"/><g id="text_11" style="fill:#b0b0b0" transform="matrix(.14 0 0 -.14 577.099 304.988)"><use xlink:href="#DejaVuSans-32"/><use xlink:href="#DejaVuSans-30" x="63.623"/><use xlink:href="#DejaVuSans-32" x="127.246"/><use xlink:href="#DejaVuSans-32" x="190.869"/><use xlink:href="#DejaVuSans-2d" x="254.492"/><use xlink:href="#DejaVuSans-31" x="290.576"/><use xlink:href="#DejaVuSans-30" x="354.199"/></g></g></g><g id="matplotlib.axis_2"><g id="ytick_1"><path id="line2d_12" d="M67.645 287.35h558" clip-path="url(#pfbc1d9f21b)" style="fill:none;stroke:#b0b0b0;stroke-width:.3;stroke-linecap:square"/><g id="line2d_13"><defs><path id="mb773a67f00" d="M0 0h-3.5" style="stroke:#b0b0b0;stroke-width:.3"/></defs><use xlink:href="#mb773a67f00" x="67.645" y="287.35" style="fill:#b0b0b0;stroke:#b0b0b0;stroke-width:.3"/></g><use xlink:href="#DejaVuSans-30" id="text_12" style="fill:#b0b0b0" transform="matrix(.14 0 0 -.14 51.737 292.67)"/></g><g id="ytick_2"><path id="line2d_14" d="M67.645 252.996h558" clip-path="url(#pfbc1d9f21b)" style="fill:none;stroke:#b0b0b0;stroke-width:.3;stroke-linecap:square"/><use xlink:href="#mb773a67f00" id="line2d_15" x="67.645" y="252.996" style="fill:#b0b0b0;stroke:#b0b0b0;stroke-width:.3"/><g id="text_13" style="fill:#b0b0b0" transform="matrix(.14 0 0 -.14 7.2 258.315)"><use xlink:href="#DejaVuSans-31"/><use xlink:href="#DejaVuSans-30" x="63.623"/><use xlink:href="#DejaVuSans-30" x="127.246"/><use xlink:href="#DejaVuSans-30" x="190.869"/><use xlink:href="#DejaVuSans-30" x="254.492"/><use xlink:href="#DejaVuSans-30" x="318.115"/></g></g><g id="ytick_3"><path id="line2d_16" d="M67.645 218.642h558" clip-path="url(#pfbc1d9f21b)" style="fill:none;stroke:#b0b0b0;stroke-width:.3;stroke-linecap:square"/><use xlink:href="#mb773a67f00" id="line2d_17" x="67.645" y="218.642" style="fill:#b0b0b0;stroke:#b0b0b0;stroke-width:.3"/><g id="text_14" style="fill:#b0b0b0" transform="matrix(.14 0 0 -.14 7.2 223.961)"><use xlink:href="#DejaVuSans-32"/><use xlink:href="#DejaVuSans-30" x="63.623"/><use xlink:href="#DejaVuSans-30" x="127.246"/><use xlink:href="#DejaVuSans-30" x="190.869"/><use xlink:href="#DejaVuSans-30" x="254.492"/><use xlink:href="#DejaVuSans-30" x="318.115"/></g></g><g id="ytick_4"><path id="line2d_18" d="M67.645 184.288h558" clip-path="url(#pfbc1d9f21b)" style="fill:none;stroke:#b0b0b0;stroke-width:.3;stroke-linecap:square"/><use xlink:href="#mb773a67f00" id="line2d_19" x="67.645" y="184.288" style="fill:#b0b0b0;stroke:#b0b0b0;stroke-width:.3"/><g id="text_15" style="fill:#b0b0b0" transform="matrix(.14 0 0 -.14 7.2 189.607)"><defs><path id="DejaVuSans-33" d="M2597 2516q453-97 707-404 255-306 255-756 0-690-475-1069Q2609-91 1734-91q-293 0-604 58T488 141v609q262-153 574-231 313-78 654-78 593 0 904 234t311 681q0 413-289 645-289 233-804 233h-544v519h569q465 0 712 186t247 536q0 359-255 551-254 193-729 193-260 0-557-57-297-56-653-174v562q360 100 674 150t592 50q719 0 1137-327 419-326 419-882 0-388-222-655t-631-370z" transform="scale(.01563)"/></defs><use xlink:href="#DejaVuSans-33"/><use xlink:href="#DejaVuSans-30" x="63.623"/><use xlink:href="#DejaVuSans-30" x="127.246"/><use xlink:href="#DejaVuSans-30" x="190.869"/><use xlink:href="#DejaVuSans-30" x="254.492"/><use xlink:href="#DejaVuSans-30" x="318.115"/></g></g><g id="ytick_5"><path id="line2d_20" d="M67.645 149.935h558" clip-path="url(#pfbc1d9f21b)" style="fill:none;stroke:#b0b0b0;stroke-width:.3;stroke-linecap:square"/><use xlink:href="#mb773a67f00" id="line2d_21" x="67.645" y="149.935" style="fill:#b0b0b0;stroke:#b0b0b0;stroke-width:.3"/><g id="text_16" style="fill:#b0b0b0" transform="matrix(.14 0 0 -.14 7.2 155.253)"><use xlink:href="#DejaVuSans-34"/><use xlink:href="#DejaVuSans-30" x="63.623"/><use xlink:href="#DejaVuSans-30" x="127.246"/><use xlink:href="#DejaVuSans-30" x="190.869"/><use xlink:href="#DejaVuSans-30" x="254.492"/><use xlink:href="#DejaVuSans-30" x="318.115"/></g></g><g id="ytick_6"><path id="line2d_22" d="M67.645 115.58h558" clip-path="url(#pfbc1d9f21b)" style="fill:none;stroke:#b0b0b0;stroke-width:.3;stroke-linecap:square"/><use xlink:href="#mb773a67f00" id="line2d_23" x="67.645" y="115.581" style="fill:#b0b0b0;stroke:#b0b0b0;stroke-width:.3"/><g id="text_17" style="fill:#b0b0b0" transform="matrix(.14 0 0 -.14 7.2 120.9)"><defs><path id="DejaVuSans-35" d="M691 4666h2478v-532H1269V2991q137 47 274 70 138 23 276 23 781 0 1237-428 457-428 457-1159 0-753-469-1171Q2575-91 1722-91q-294 0-599 50Q819 9 494 109v635q281-153 581-228t634-75q541 0 856 284 316 284 316 772 0 487-316 771-315 285-856 285-253 0-505-56-251-56-513-175v2344z" transform="scale(.01563)"/></defs><use xlink:href="#DejaVuSans-35"/><use xlink:href="#DejaVuSans-30" x="63.623"/><use xlink:href="#DejaVuSans-30" x="127.246"/><use xlink:href="#DejaVuSans-30" x="190.869"/><use xlink:href="#DejaVuSans-30" x="254.492"/><use xlink:href="#DejaVuSans-30" x="318.115"/></g></g><g id="ytick_7"><path id="line2d_24" d="M67.645 81.227h558" clip-path="url(#pfbc1d9f21b)" style="fill:none;stroke:#b0b0b0;stroke-width:.3;stroke-linecap:square"/><use xlink:href="#mb773a67f00" id="line2d_25" x="67.645" y="81.227" style="fill:#b0b0b0;stroke:#b0b0b0;stroke-width:.3"/><g id="text_18" style="fill:#b0b0b0" transform="matrix(.14 0 0 -.14 7.2 86.546)"><defs><path id="DejaVuSans-36" d="M2113 2584q-425 0-674-291-248-290-248-796 0-503 248-796 249-292 674-292t673 292q248 293 248 796 0 506-248 796-248 291-673 291zm1253 1979v-575q-238 112-480 171-242 60-480 60-625 0-955-422-329-422-376-1275 184 272 462 417 279 145 613 145 703 0 1111-427 408-426 408-1160 0-719-425-1154Q2819-91 2113-91q-810 0-1238 620-428 621-428 1799 0 1106 525 1764t1409 658q238 0 480-47t505-140z" transform="scale(.01563)"/></defs><use xlink:href="#DejaVuSans-36"/><use xlink:href="#DejaVuSans-30" x="63.623"/><use xlink:href="#DejaVuSans-30" x="127.246"/><use xlink:href="#DejaVuSans-30" x="190.869"/><use xlink:href="#DejaVuSans-30" x="254.492"/><use xlink:href="#DejaVuSans-30" x="318.115"/></g></g><g id="ytick_8"><path id="line2d_26" d="M67.645 46.873h558" clip-path="url(#pfbc1d9f21b)" style="fill:none;stroke:#b0b0b0;stroke-width:.3;stroke-linecap:square"/><use xlink:href="#mb773a67f00" id="line2d_27" x="67.645" y="46.873" style="fill:#b0b0b0;stroke:#b0b0b0;stroke-width:.3"/><g id="text_19" style="fill:#b0b0b0" transform="matrix(.14 0 0 -.14 7.2 52.192)"><use xlink:href="#DejaVuSans-37"/><use xlink:href="#DejaVuSans-30" x="63.623"/><use xlink:href="#DejaVuSans-30" x="127.246"/><use xlink:href="#DejaVuSans-30" x="190.869"/><use xlink:href="#DejaVuSans-30" x="254.492"/><use xlink:href="#DejaVuSans-30" x="318.115"/></g></g><g id="ytick_9"><path id="line2d_28" d="M67.645 12.519h558" clip-path="url(#pfbc1d9f21b)" style="fill:none;stroke:#b0b0b0;stroke-width:.3;stroke-linecap:square"/><use xlink:href="#mb773a67f00" id="line2d_29" x="67.645" y="12.519" style="fill:#b0b0b0;stroke:#b0b0b0;stroke-width:.3"/><g id="text_20" style="fill:#b0b0b0" transform="matrix(.14 0 0 -.14 7.2 17.838)"><defs><path id="DejaVuSans-38" d="M2034 2216q-450 0-708-241-257-241-257-662 0-422 257-663 258-241 708-241t709 242q260 243 260 662 0 421-258 662-257 241-711 241zm-631 268q-406 100-633 378-226 279-226 679 0 559 398 884 399 325 1092 325 697 0 1094-325t397-884q0-400-227-679-226-278-629-378 456-106 710-416 255-309 255-755 0-679-414-1042Q2806-91 2034-91q-771 0-1186 362-414 363-414 1042 0 446 256 755 257 310 713 416zm-231 997q0-362 226-565 227-203 636-203 407 0 636 203 230 203 230 565 0 363-230 566-229 203-636 203-409 0-636-203-226-203-226-566z" transform="scale(.01563)"/></defs><use xlink:href="#DejaVuSans-38"/><use xlink:href="#DejaVuSans-30" x="63.623"/><use xlink:href="#DejaVuSans-30" x="127.246"/><use xlink:href="#DejaVuSans-30" x="190.869"/><use xlink:href="#DejaVuSans-30" x="254.492"/><use xlink:href="#DejaVuSans-30" x="318.115"/></g></g></g><path id="line2d_30" d="m67.645 287.35 38.045-.103 11.028-.019 14.336.11 23.71-.047 12.681-.207 8.271-.175 6.617.119 19.85.173 7.719-.029 13.785-.1 14.335-.49 7.168-.12 7.168-.23 2.206-.085 1.103.03 1.654-.219 1.103-.383 1.102-.38 1.103-.059 2.206.133 3.308.15 2.757.458 5.514.656 4.41.308 11.58.153 6.065-.058 6.065-.202 9.374-.587 6.065-.453 4.411-.155 1.103.16 4.962-.521 13.785 1.412 4.962.242 3.309.018 9.373-.182 2.757-.222 3.86-.453 1.103-.08 1.102-.31 1.103-.492 2.206-1.198 3.86-1.473.55.067 1.103-.267 1.655-.615.551-.139 1.103-.856 1.654-.842.551-.219 1.654-.186 1.103.097 2.206.638.551.216 6.617 3.952 4.41 1.607 1.655.425 1.654.214 1.103.065 1.654.201 2.757.193 4.962.168 23.71.158 19.85-.15 1.102-.147 1.103-.474 1.103-.77 1.103-.528.551-.527 1.103-1.483 1.654-2.401 2.206-5.366 1.102-2.61.552-1.17 3.308-9.019 1.103-1.727 1.654-3.195.551-.854.552-.583.551-.345.551-.957.552-.143.551.231.552-.008.551 1.66.551.617.552.387.551.834 1.654 1.083.552-.642 1.102.694.552.715.551.52.552 1.666.551 1.082 1.103.843.551.04.552.209.55.38.552-.444.552.096 1.102.894 1.103 1.252 2.206 1.67 1.654.526 1.654.998 1.103 1.081.551.235.552 1.511.551.812 1.103.269 1.654-.426.551-1.2.552-.6 4.962-.887 1.103-.278 2.205-.507.552.12.551.25 2.206 1.835 1.102.73.552.179 2.205.106 1.103.573.552.926.55.571.552.274.552.493 1.654 2.737 1.103-1.452 1.102-1.01 1.655-2.884.55-.005 1.655.93 1.103.314 1.103.28 1.654.538 1.103.767 3.308 2.954 1.103.934 1.102.643 1.103.393 1.654.562 1.103.225 4.411.383 1.654-.095 2.206-.288 1.103-.492 1.654-1.09 1.102-.799.552-.827 1.103-2.309 1.102-2.794.552-1.511.551-1 .552-1.951 1.654-7.452 1.102-5.259.552-1.914.551.457.552-2.849 2.205-16.756.552-2.471.55-6.366 1.104-5.102 1.102-2.331.552-1.044 1.103-1.357.551-1.968.551-.275.552-.608.551-.258.551-.425.552.091 1.654-.174.551 3.19.552 2.15.551 1.379.552-.034.55 2.274.552.929.552-.755.551-4.529.551-3.413.552-2.346.551-.12.552-2.077.551-.596.551 1.7 1.655 10.315.55 2.213.552 2.742 1.654 10.167 1.103 5.245.552 1.368 1.654 5.774 1.654 4.294.551.742 1.103 2.656 1.103 2.451 1.103 1.924.551.726.551 2.74.552 1.494.551.417.552.595.55 1.558.552.848.552-.27.551-.588.551.973.552 1.728.551 1.334.552.178.551.856.551 1.392.552.196 2.205 1.638.552.32.551.104.551 1.305.552-.203.551-.601 1.654-1.099.552-.114.551-1.432.551.096.552.47.551.246 1.103-.012.551-.073 1.103-.596 1.103-.701 1.103-.986.551-.27 1.103-1.849.551-1.214.552.255.551-1.455h0" clip-path="url(#pfbc1d9f21b)" style="fill:none;stroke:#53a577;stroke-width:1.5;stroke-linecap:square"/><path id="line2d_31" d="m67.645 287.35 17.093-.104 3.86-.105 8.27.174 11.58.02 25.914.002 110.277-.262 4.963-.072 4.962.019 9.373.158 10.477.038 33.634-.068 11.028-.03 9.373.016 6.617.007 13.233.049 8.822-.126 6.617-.21 20.401-.133 6.617.052 8.27-.08 1.655.008 3.308-.265 1.654.081 4.962.203 6.617.162 3.308-.13 4.411-.151 6.066-.122 8.27-.586 3.309-.457 2.205-.332 3.309-.103 3.86.268 2.756.38 3.86.39 2.205.07 2.206-.084 2.205-.2 2.757-.704.552-.22 1.102-.742 4.412-3.734 2.205-3.758 1.654-4.27 2.206-3.734 1.103-3.92 1.102-5.065 1.103-4.374.551-2.08 1.103-7.749 2.206-10.947.551-1.936.552-2.345.55-1.413 1.104-9.28 1.102-7.417.552-3.128 1.103-12.363.551-.792 1.103-11.577.551-4.861.552-7.834.55-2.86.552-14.419.552-6.087.551.114.551.759.552 4.937.551.422.552-4.416.551 11.078.551 3.319.552 2.25.551.814.552 1.077.55.312 2.206 13.333.552 4.114.551 2.946.552 3.994.551 6.787.551 4.707 1.654 10.96.552 1.78.551 2.714 1.103 8.207 1.654 11.217.552 2.12 1.102 8.653.552 2.827.551 2.198 1.103 2.981.551.656 1.103 3.567.551 4.457.552-1.324 1.103 2.9.55.702 1.104 2.797.551-2.074.551 3.988.552.182 1.103-.138.551.056 1.103.566.551-.28.552.491.55.718.552.359 1.103 1.345 1.654 1.04.552.3.551.164 3.308 2.438.552.188 1.654 1.286 1.103.315 1.102.193.552.54.551.12.551-.11 1.655.455.551.058.551-.176 1.655.5 1.654.156 3.86.07 1.102-.1 1.654-.41 1.103-.326 1.654-1.281 1.654-1.459.552-.316 2.205-3.94 1.103-2.01.551-.667 1.655-5.118 1.102-2.796.552-1.231.551-.47 1.103-2.432 1.103-1.663.551-.658 1.103-.833.551-.61 1.103-1.926 1.654-4.326.551-.52 1.103-3.436.552-1.44 1.654-2.15.551-.333.552 3.224.55-1.42.552-2.026.552-.494.551-.237.551.425.552.149.551-3.238.552 2.036.551 3.2 1.103 3.508.551 1.26.552.78 1.654 4.986.551.566 1.103 1.427.551.274 1.103 1.68.551.436.552.989 1.103 3.967.55.03.552 2.082.552 4.195.551-4.551.551.862.552-.034.551-.321.552.86.551.464.551-2.024.552 6.496.551 1.117.552.691.55.44.552.258.552.417.551.25 2.757.46.551 1.125 1.103.18 2.206 1.121.551.047.551.206.552.083 1.103-.23 1.102-.288.552-.87 1.654.07 1.654-.594 3.308-3.01.552-.207 1.654-1.987.551-.37 1.103-.281h0" clip-path="url(#pfbc1d9f21b)" style="fill:none;stroke:#2f618f;stroke-width:1.5;stroke-linecap:square"/><path id="line2d_32" d="m67.645 287.35 24.812-.097 2.206-.184 1.103-.311 1.654-.965 2.205-2.025.552-.6.551-.794.551-.354.552-.54.551-.773.552-1.163 1.102-1.389.552-.469 1.102-1.103.552-.185.551.224 1.103-.27 2.206.592 1.654.602 1.102.122.552-.168.551.126 1.103-.292.551.08.552-.16.551-.04.552.29 1.102.224.552.122.551-.164 1.103.307 1.654.177.551.095.552.378.551.121 1.103.474.551.028.552.212 1.654.212.551.003.552-.154.55.144.552-.136 1.103.088.551.196.552-.073 2.205.642 1.655-.12.55.066 1.104-.082.551-.327.551-.077 1.103.173 1.103.032.551-.132.552.27.551.038.552-.195.55-.056 1.655-.677 2.206-1.276.551-.436.551-.7 1.103-.998.552-.887.55-.44.552-.837 1.654-1.753.552-.772.551-.126.552-.256.551-.54.551-.103.552-.363.551-.547.551-.232 1.103-1.546.552-.308.551-.785 1.654-1.23.552.113.55-.19.552.06 1.654-.244.552.146.551-.417.552.027.551.166.551.043 1.103.35.552-.07.55.52 1.104.74.551.887.551.144 1.103.935.552.193 1.102-.67.552-.478.551.234.552-.054.55.422.552-.473.552.562.551.961 1.103 1.253.551.457.552.31.551 1.09.551.345 2.206.626.551-.26 1.103.187.551-.111 1.655.158.551.257 1.103-.123.551.25.551.433.552.73 1.103.581.551.188.551-.116 1.103-.954.552-.507 2.205-.773 1.103-.032 1.103-.184.551-.172 1.103.264.551.387 1.103-.48 1.103.241 1.102-.607 1.103.023.552-.132 1.102-1.102.552-.088.551-.288.552-.662 1.102-.522.552-.47.551-.275.551-.734.552.02.551-.265.552-1.265.551-.584.551-.11.552-.802.551-.579.552-1.14.55-.397.552.207.552-.807.551-1.324.551-.614.552-.904.551-.428 1.103-1.825.551-2.35.552-.677.551-1.83.552-1.4 1.654-5.755.551-.611.551-2.329.552-1.453.551-2.444.552-1.745.551-.937.551-1.785 2.206-5.22.551-.724.552-.33.551-1.406 1.103-.766.551 3.885.552-.688.55.495.552.273.552 1.271.551-1.172.551-.774.552-5.239.551-.981.552-2.573 1.102-3.745.552-1.406 1.103-1.719 1.102-.224 1.103-1.299.551.008.552-.906.551-.17.552-.47.551.87.551.22.552.63.551 1.053.552.657.55 1.356.552 5.939.552-.643.551 2.455.551 1.12.552-.044.551.1.552-5.017 1.102-5.229.552-3.29.551-.596.552-1.247.55-2.017.552 1.411.552-6.154.551.447.551-.332.552-.87.551.481.552 1.53 1.654 7.61.551 1.659 1.103 6.315 1.103 4.118.551 2.598 1.103 3.731.551.552.552.28.55 1.594 1.655 3.945.551 1.336.552.203 3.86 11.765.55 1.068.552 1.41.552.907 1.102 2.786.552 1.03.551 1.327.552 1.76.551 1.311.551 1.665.552 1.212 1.103 1.46.55.004.552-.687 1.103-.533.551-.003 1.103.31.552.29.551.744 2.206 1.685.55.497.552.262.552.14 1.102.79 1.655.607.551-.332.551.037 1.103-.129.551.068.552-.098 1.654.422.551-1.371.552-.255.551-.747.552-.272.55-.538.552-.895.552-.464.551.904.551-.464.552.11.551-.035.552.418 1.102-.135.552-.311.551-.147.552-.517.55-.287.552-.465.552.247.551-.85.551.039.552.276.551.08.552.736 1.102.337.552.903 1.103.898.55.986.552.053.552.462.551.813 1.103.938.551.418 1.654.73.552-.103 1.103.95 1.654 1.694.551.385.551.618 1.103.848 1.103.719 1.103.47 2.205 1.39 1.103 1.104 2.757 1.01 1.654 1.044.551.776.552.133 1.654 1.017.551-.107.552.064.551-.384.552.407.55-.08.552.17.552-.342.551.31 1.103.156.551.105.552.317 1.102.32 3.309-.114.551-.174 1.103.004.551-.149.552.16 1.654-.423.551.186.552.02.55.225.552-.738 1.103-.531.551-.853.552-.233.551-.368.552-1.006.551-.191 1.103-1.083.551-1.523.552-.2.55-.422.552-.96 1.103-1.479.551-1.202.552-2.1.551-.75.552-.404 1.102-2.676.552-1.261.551-.782.551-3.454 1.103-1.574 1.654-4.456.552-1.827.551-2.98.552-.943.55.476.552-2.499.552-.992.551-2.556.551-1.68.552 1.23 1.103-1.102 1.102-3.33 1.655-1.792.55-.949.552.123.552-.63.551-.2.551-.582.552-1.398.551.038.552.657.551-.384 1.103-2.283.551-.56 1.103.383.551-.351.552-.565.551 6.77.551-1.476 1.103 1.239.552-.323.551-.155.551.742.552-5.778.551 3.165.552.214.55.395.552 1.527.552.697.551.175.551 1.88.552 1.165.551 2.045.552 1.452.551 1.77.551.706.552-.472.551.76 1.103.903 1.103 1.899 1.654 1.71.551.866 1.103.893.551 1.192.552.463.551.257.551 2.343.552-.76.551.219.552.731.551 1.07.551-.051.552.384.551-.186.552 1.39.55.79.552.435.552.632.551.347.551.6.552-.63.551.735.552-.501 1.102.19.552-.097.551-.64 1.103-.137.551.774.552-.33 1.654-.405.551.124 1.103-.901.551 1.163.552-2.307.551-.437.552.25.55-1.164.552-.397.552-.848.551-2.503.551.877.552-.05 1.654-1.04.551.058 1.103 7.006.551.922.552-.176.551-2.17 1.103-2.522 1.103-10.016.551-1.94.552-.557.55.495.552.252.552-.612.551.708.551.021.552.505.551.151.552-.407.551-.045.551.182.552-.895.551-1.723.552-1.174.55-1.842 1.104-6.222.551-5.02.551-6.484.552-2.729.551-.33.552-4.565.551-12.997.551-9.323.552-12.93 1.103-28.81 1.102-10.613 1.103-48.745.551-8.087.552-12.076.551-18.043 1.103-20.251.551-15.31.552 2.104.551-8.747.552-1.012.55-.007.552-.41.552.355.551 34.151.551-17.054.552-2.77.551 6.622.552 2.585 1.102 10.995.552-12.328.551 31.428 1.654 33.056.552 6.207.551 8.322.551 18.354.552 8.152.551 17.168 1.103 23.936.551 4.598.552 5.68.551 9.48.551 5.522.552 6.884.551 5.051.552 7.195.551 1.732.551 1.261.552 8.628.551 5.069 1.654 10.191.552 1.014.551 1.745.551 4.305.552 1.046 1.103 3.143.551 3.45.551-.773.552.245.551-.835.552 2.1.55 1.523.552.884.552 1.128.551 1.596.551.29.552 1.736 1.103 1.619 2.205.52.552 1.325.55.292.552-.698.552-.307.551.841 1.103-.05.551-.34.552.112 1.102 1.043.552-.624 1.654.236.551-.1.552.089.551-.118.551.652.552-.114.551.345 1.103-.106.551-.087.552-.255.551-2.063.551-.05.552-.237h.551l.552-.503.551-.793.551.09.552 1.913 1.103.105.55-1.052.552-.16 1.103-1.195.551-2.681 2.206-1.418.551-1.08.552-.818.551 1.353 1.103-.38.551-1.258.552-.234.551-1.106.551-.55.552-3.328.551-.198.552.528.551-1.734.551-1.02.552-2.39.551-.84.552 2.05.55.519.552-1.302.552-2.343.551-.724.551-2.102.552-1.473.551-3.019.552-.49.551.97.551 1.37.552.079.551-.338.552.008.55 2.001.552.683.552.309.551 4.25.551-4.097.552-.893.551.648.552-2.405.551-.68.551-.452.552-4.775.551 3.949.551 1.474.552-.466.551 2.492.552-.352.551-.073.551.393.552-.163.551.675.552.093.55-1.602.552.861.552-.014.551 2.735.551-1.04.552-.025.551-.425.552 1.064.551-1.14.551-.206.552-3.152.551.662.552-.226.55-1.425.552-1.948.552 1.01.551.679.551 4.12.552-2.16.551-.513.552 1.403.551.939.551-.425.552-.789.551-6.134 1.103-.505.551-1.782.552-.758.551-.502.551-.249 1.103 3.287.552-.593.551-.014.551 1.069.552.631.551.312.552-1.211.55-.733.552-1.148.552-.078.551-1.367 1.103 1.01.551.97 1.103 3.96.551-.495.552 2.612 1.102.07.552.712.551-.434.552.206.551 1.197.551.456.552-3.37.551.14.552 1.596.55.389.552 2.92.552.673.551.937.551 3.564.552-.002 1.103-.664.551-.728.551.465.552-2.113 1.103.032 1.102 2.285.552-.13.551.437.551 2.749 1.103.067.552 3.564.551-1.812.551 1.496.552 1.153.551-1.773.552.062.55-.077.552-1.763.552 1.618 1.102 2.166.552 2.188 1.103.25 1.102 1.186.552.256.551.117.552-1.328 1.102-.12 1.654 1.476.552-.165.551 2.449 1.654.347.552.286.551.765.551 1.16.552-1.218 1.103.021.551.902.551-.27.552.327.551-.127.552 1.536.55.085.552-.057.552-.777.551.844.551.16.552.306.551-.933.552.03 1.102-.106.552-.004.551-.497.552-.093.55.774.552-.178.552.262 1.102-.376.552-.054 1.103-.864.551.214h0" clip-path="url(#pfbc1d9f21b)" style="fill:none;stroke:#7516fd;stroke-width:1.5;stroke-linecap:square"/><path id="line2d_33" d="m67.645 287.35 24.26-.099 3.31-.226 3.307-.67 2.757-.67 4.411-.204 2.206.209 4.411.69 3.86.234 7.72.4 23.709.162 3.308-.027 4.411.062 12.682-.052 17.093-.273 3.308.06 4.411-.049 14.336-.375 4.411-.697 4.411-1.16 1.103-.613 1.103-.437 1.654-.996 1.654-.528 1.103-.304 2.205-.6 3.309-.27.551-.045 1.103.17 1.102.009 3.86.033 3.86.22 1.103-.111 1.102-.212.552-.022 1.654-.57.551-.251 1.654-.336.552-.34 2.205-.616.552-.014.551-.25.552.146.55-.258.552.404.552.827.551.442 1.654.716.552-.017 2.205.438 1.103.11.551.302.552-.438.551-.59.551-.325 1.103-.174 1.103.14.551.465.552.296 2.205.661 1.103.455 1.103.191.551.02 1.103.38 2.757.636.551.015 1.103.335 2.206.324 3.308.786 4.41-.068 1.655-.105 2.206-.1 4.962-.12 4.411-1.019 1.103-.393 1.103-.198 1.102-.215 1.655-.672 1.102-.275 1.654-.243.552-.015.551.115.552.244 1.102.199.552.361.551.191.552-.175 1.654-.804.551-.192 1.103-1.033 2.205.02.552.06.551-.157 2.757-.072.551-.067 1.103.365 3.86 1.145.551.287 1.654.447 1.103.223.552.222 1.654.937 1.102.169 1.655.567 1.102.127 1.103.247 1.103.707 2.757.33.551-.112.552.082 1.102.36 3.309.33 2.205.12 2.206.285 4.41.144 7.169-.016 4.962-.18 12.682-.65 7.168-1.403 2.206-.61 4.962-.505 1.654-.134 2.206.16 1.103.074 1.654.332 1.102.087 3.309.414 1.654-.006 1.654-.154 1.103.076 1.654.005 4.411-.22 1.654-.201.552-.089 3.308-1.404.551-.182.552-.304.551-.587 1.654-.72.552-.15.55-.017.552.138.552-.29 1.102-1.223 1.103-.614.552-.54 1.102-1.744 1.655-1.598 1.102-.898 1.103-1.39.551-.213.552-.925 1.654-1.45 1.103-1.21.551-1.15 1.103-.239 1.103.042.551-.015 2.206.48.55.075.552.475.552-.118.551.127 1.103 1.172.551.462 1.103.556.551.898.552.684 1.103 1.04 1.102.44 1.654 1.217.552.762 1.103 1.956 1.102.222.552.275.551.106 1.103-.49 1.103-.345.551-.465 1.654-2.725 1.103-2.628.551-.33.552-.743 1.103-1.894.55-1.761.552-1.086.552-.783.551-.437 1.103-2.974 1.654-7.73 1.103-3.051 1.102-5.115.552-3.416 1.103-5.09.551-1.645.551-.732.552-1.75.551-2.184.552-1.619.55-2.88.552-1.406 1.103-1.529.551-.341.552-1.264.551-.577 1.654 1.213.552.923.551.508 1.103 1.301 1.103 2.003.551.35.551.127.552 1.635.551.536.552.947.551.457 1.103 1.148.551.565.552.186.55 1.112.552.277.552-.336.551-.804.551-.44.552-.79 1.103-3.147.551-2.556.551-1.73.552-2.202.551-1.458.552-.685 2.205-8.148.551-1.136.552.727.551.003 1.654-3.327.552.067.551.403 1.103 2.227.551-.75.552.749.551-10.262.551 14.554.552 2.727.551-.194 1.103 6.108.551-7.275.552 17.286.551-7.398.551 6.92.552 4.141.551-9.837.552 2.049.551 12.335.551.903.552 5.551.551.77.552.506.55 8.734.552-2.942.552-1.028.551-.238.551-4.786 1.103.05.552-5.61.551 9.745.551-4.193.552 2.95.551 2.345.552 1.347.55.788.552 1.143.552-5.234.551 8.618 1.103 1.55.551.159.552.033.551.292 1.103.826.551.79.552.51 1.102.165 1.103 2.271.551 1.484 1.103 1.942 1.103.167 1.654 3.128.552 2.31 1.102.172 1.103.149.551-.286.552-.432.551-2.004.552-.054.551.133.551-.129.552 2.952 2.205-5.805 1.103-.098.551-5.108.552-.378.551-.564.552 2.442.55-.733 1.104-.077.551-.847 1.103-2.802.551-3.93.552-.445h.551l.551.301.552-.943 1.103-1.376.55-.241.552-.458 1.103-.077.551-.253.552.158 1.103-.361.551.135 1.103-.056.551-.355.552.153.55-.822.552.394.552-1.33h.551l.551.17.552-.292.551-.657.552.762.551.092.551 1.523h1.103l.552.747.55.943.552 1.595 1.103 2.406 1.103-.042 1.103 3.773 1.102 2.688.552.804 1.102.042.552 1.178 1.103 1.458.551.474.551.184h1.103l.552.735.55.262 1.104.212.551.47 1.103-.003.551.163.552.71.551 2.88.551-1.955.552.151 1.103.002.55.29.552 2.598.552-4.353.551 2.582.551.19h1.103l.552.236.551-2.282.551 2.29 1.103-.142h1.103l1.654-.71.551-.136.552-.316h1.103l1.102-.527 1.655-1.613h1.102l.552-1.425.551-1.919.551-1.074.552-2.236.551-1.32h1.103l.551 4.382.552-1.852.551-2.632.551-3.815.552-2.376h1.103l.551-8.467.551-.158.552-.624.551 2.94.552 1.51h1.102l.552 1.103.551.327.551 1.394.552 1.076.551.828h1.103l2.757 8.118h1.103l1.102 6.469.552.013.551.239.552.434h.551" clip-path="url(#pfbc1d9f21b)" style="fill:none;stroke:#d8b009;stroke-width:1.5;stroke-linecap:square"/><path id="line2d_34" d="m67.645 287.35 263.561-.077 7.168-.085 35.289.157 87.118-.01 52.382-.26 2.757-.245 1.654-.368 1.654-.6 1.103-.73 1.103-.951.55-.585.552.257.552-1.701 1.654-3.038 1.103 1.58.551-6.327.551-.483.552-1.406.551-1.739.552 1.775.55-6.328.552-3.373.552 3.299.551-.735 1.103-2.55.551-4.207.552 2.176.551-.528.551-.223.552-.814.551-.21.552.37.55-.445 2.206.727.552.054.551.244.552.897 1.102 1.325.552.348.551-.116.551.401.552.2.551.403.552-.563.551.565.551.388.552.827 1.654 1.665.551 1.273.552-.003 1.102.945 1.103 1.547.552.466 1.102 1.192.552.345 1.103 1.087 1.102.95 1.654.883 1.655 1.148 3.308 1.484 2.205.753.552.056 1.103.335 2.205.442 2.757.316 6.065.478 4.411-.063 2.757-.229 2.757-.903 2.206-.933 2.757-1.575 1.102-.583 2.757-.181 1.654-1.428.552-.363.551-.185.552-.364.551-.14 2.757.54 1.103.01 1.654-.255 1.654-.614 2.757-1.158 1.103-.126.551.065.551.399.552.123.551-.341 2.206.475.551-.169.551.381 1.103 1.206 1.103.687.551.123 1.103.493 1.103.333 1.654.523 1.103.59 1.654.962h0" clip-path="url(#pfbc1d9f21b)" style="fill:none;stroke:#fe7b74;stroke-width:1.5;stroke-linecap:square"/><g id="text_21" style="fill:#53a577" transform="matrix(.14 0 0 -.14 642.385 249.39)"><defs><path id="DejaVuSans-4a" d="M628 4666h631V325q0-844-320-1225T-91-1281h-240v531h197q418 0 590 235 172 234 172 840v4341z" transform="scale(.01563)"/><path id="DejaVuSans-61" d="M2194 1759q-697 0-966-159t-269-544q0-306 202-486 202-179 548-179 479 0 768 339t289 901v128h-572zm1147 238V0h-575v531q-197-318-491-470T1556-91q-537 0-855 302-317 302-317 808 0 590 395 890 396 300 1180 300h807v57q0 397-261 614t-733 217q-300 0-585-72-284-72-546-216v532q315 122 612 182 297 61 578 61 760 0 1135-394 375-393 375-1193z" transform="scale(.01563)"/><path id="DejaVuSans-70" d="M1159 525v-1856H581v4831h578v-531q182 312 458 463 277 152 661 152 638 0 1036-506 399-506 399-1331T3314 415Q2916-91 2278-91q-384 0-661 152-276 152-458 464zm1957 1222q0 634-261 995t-717 361q-457 0-718-361t-261-995q0-634 261-995t718-361q456 0 717 361t261 995z" transform="scale(.01563)"/><path id="DejaVuSans-6e" d="M3513 2113V0h-575v2094q0 497-194 743-194 247-581 247-466 0-735-297-269-296-269-809V0H581v3500h578v-544q207 316 486 472 280 156 646 156 603 0 912-373 310-373 310-1098z" transform="scale(.01563)"/></defs><use xlink:href="#DejaVuSans-4a"/><use xlink:href="#DejaVuSans-61" x="29.492"/><use xlink:href="#DejaVuSans-70" x="90.771"/><use xlink:href="#DejaVuSans-61" x="154.248"/><use xlink:href="#DejaVuSans-6e" x="215.527"/></g><g id="text_22" style="fill:#2f618f" transform="matrix(.14 0 0 -.14 642.385 263.39)"><defs><path id="DejaVuSans-4b" d="M628 4666h631V2694l2094 1972h813L1850 2491 4331 0h-831L1259 2247V0H628v4666z" transform="scale(.01563)"/><path id="DejaVuSans-6f" d="M1959 3097q-462 0-731-361t-269-989q0-628 267-989 268-361 733-361 460 0 728 362 269 363 269 988 0 622-269 986-268 364-728 364zm0 487q750 0 1178-488 429-487 429-1349 0-859-429-1349Q2709-91 1959-91q-753 0-1180 489-426 490-426 1349 0 862 426 1349 427 488 1180 488z" transform="scale(.01563)"/><path id="DejaVuSans-72" d="M2631 2963q-97 56-211 82-114 27-251 27-488 0-749-317t-261-911V0H581v3500h578v-544q182 319 472 473 291 155 707 155 59 0 131-8 72-7 159-23l3-590z" transform="scale(.01563)"/><path id="DejaVuSans-65" d="M3597 1894v-281H953q38-594 358-905t892-311q331 0 642 81t618 244V178Q3153 47 2828-22t-659-69q-838 0-1327 487-489 488-489 1320 0 859 464 1363 464 505 1252 505 706 0 1117-455 411-454 411-1235zm-575 169q-6 471-264 752-258 282-683 282-481 0-770-272t-333-766l2050 4z" transform="scale(.01563)"/><path id="DejaVuSans-2c" d="M750 794h659V256L897-744H494L750 256v538z" transform="scale(.01563)"/><path id="DejaVuSans-53" d="M3425 4513v-616q-359 172-678 256-319 85-616 85-515 0-795-200t-280-569q0-310 186-468 186-157 705-254l381-78q706-135 1042-474t336-907q0-679-455-1029Q2797-91 1919-91q-331 0-705 75-373 75-773 222v650q384-215 753-325 369-109 725-109 540 0 834 212 294 213 294 607 0 343-211 537t-692 291l-385 75q-706 140-1022 440-315 300-315 835 0 619 436 975t1201 356q329 0 669-60 341-59 697-177z" transform="scale(.01563)"/><path id="DejaVuSans-75" d="M544 1381v2119h575V1403q0-497 193-746 194-248 582-248 465 0 735 297 271 297 271 810v1984h575V0h-575v538q-209-319-486-474-276-155-642-155-603 0-916 375-312 375-312 1097zm1447 2203z" transform="scale(.01563)"/><path id="DejaVuSans-74" d="M1172 4494v-994h1184v-447H1172V1153q0-428 117-550t477-122h590V0h-590q-666 0-919 248-253 249-253 905v1900H172v447h422v994h578z" transform="scale(.01563)"/><path id="DejaVuSans-68" d="M3513 2113V0h-575v2094q0 497-194 743-194 247-581 247-466 0-735-297-269-296-269-809V0H581v4863h578V2956q207 316 486 472 280 156 646 156 603 0 912-373 310-373 310-1098z" transform="scale(.01563)"/></defs><use xlink:href="#DejaVuSans-4b"/><use xlink:href="#DejaVuSans-6f" x="60.576"/><use xlink:href="#DejaVuSans-72" x="121.758"/><use xlink:href="#DejaVuSans-65" x="160.621"/><use xlink:href="#DejaVuSans-61" x="222.145"/><use xlink:href="#DejaVuSans-2c" x="283.424"/><use xlink:href="#DejaVuSans-20" x="315.211"/><use xlink:href="#DejaVuSans-53" x="346.998"/><use xlink:href="#DejaVuSans-6f" x="410.475"/><use xlink:href="#DejaVuSans-75" x="471.656"/><use xlink:href="#DejaVuSans-74" x="535.035"/><use xlink:href="#DejaVuSans-68" x="574.244"/></g><g id="text_23" style="fill:#7516fd" transform="matrix(.14 0 0 -.14 642.385 277.39)"><defs><path id="DejaVuSans-55" d="M556 4666h635V1831q0-750 271-1080 272-329 882-329 606 0 878 329 272 330 272 1080v2835h634V1753q0-912-452-1378Q3225-91 2344-91q-885 0-1337 466-451 466-451 1378v2913z" transform="scale(.01563)"/></defs><use xlink:href="#DejaVuSans-55"/><use xlink:href="#DejaVuSans-53" x="73.193"/></g><g id="text_24" style="fill:#d8b009" transform="matrix(.14 0 0 -.14 642.385 291.39)"><defs><path id="DejaVuSans-47" d="M3809 666v1253H2778v519h1656V434q-365-259-806-392-440-133-940-133-1094 0-1712 639-617 640-617 1780 0 1144 617 1783 618 639 1712 639 456 0 867-113 411-112 758-331v-672q-350 297-744 447t-828 150q-857 0-1287-478-429-478-429-1425 0-944 429-1422 430-478 1287-478 334 0 596 58 263 58 472 180z" transform="scale(.01563)"/><path id="DejaVuSans-6d" d="M3328 2828q216 388 516 572t706 184q547 0 844-383 297-382 297-1088V0h-578v2094q0 503-179 746-178 244-543 244-447 0-707-297-259-296-259-809V0h-578v2094q0 506-178 748t-550 242q-441 0-701-298-259-298-259-808V0H581v3500h578v-544q197 322 472 475t653 153q382 0 649-194 267-193 395-562z" transform="scale(.01563)"/><path id="DejaVuSans-79" d="M2059-325q-243-625-475-815-231-191-618-191H506v481h338q237 0 368 113 132 112 291 531l103 262L191 3500h609L1894 763l1094 2737h609L2059-325z" transform="scale(.01563)"/></defs><use xlink:href="#DejaVuSans-47"/><use xlink:href="#DejaVuSans-65" x="77.49"/><use xlink:href="#DejaVuSans-72" x="139.014"/><use xlink:href="#DejaVuSans-6d" x="178.377"/><use xlink:href="#DejaVuSans-61" x="275.789"/><use xlink:href="#DejaVuSans-6e" x="337.068"/><use xlink:href="#DejaVuSans-79" x="400.447"/></g><g id="text_25" style="fill:#fe7b74" transform="matrix(.14 0 0 -.14 642.385 305.39)"><defs><path id="DejaVuSans-54" d="M-19 4666h3947v-532H2272V0h-634v4134H-19v532z" transform="scale(.01563)"/><path id="DejaVuSans-69" d="M603 3500h575V0H603v3500zm0 1363h575v-729H603v729z" transform="scale(.01563)"/><path id="DejaVuSans-77" d="M269 3500h575l719-2731 715 2731h678l719-2731 716 2731h575L4050 0h-678l-753 2869L1863 0h-679L269 3500z" transform="scale(.01563)"/><path id="DejaVuSans-2a" d="m3009 3897-1121-606 1121-610-181-306-1050 634V1831h-356v1178L372 2375l-181 306 1122 610-1122 606 181 309 1050-634v1178h356V3572l1050 634 181-309z" transform="scale(.01563)"/></defs><use xlink:href="#DejaVuSans-54"/><use xlink:href="#DejaVuSans-61" x="44.584"/><use xlink:href="#DejaVuSans-69" x="105.863"/><use xlink:href="#DejaVuSans-77" x="133.646"/><use xlink:href="#DejaVuSans-61" x="215.434"/><use xlink:href="#DejaVuSans-6e" x="276.713"/><use xlink:href="#DejaVuSans-2a" x="340.092"/></g></g></g><defs><clipPath id="pfbc1d9f21b"><path d="M67.645 10.15h558v277.2h-558z"/></clipPath></defs></svg>