<svg xmlns:xlink="http://www.w3.org/1999/xlink" width="928.157" height="419.272" viewBox="0 0 696.117 314.454" xmlns="http://www.w3.org/2000/svg"><defs><style>*{stroke-linejoin:round;stroke-linecap:butt}</style></defs><g id="figure_1"><path d="M0 314.454h696.117V0H0v314.454z" style="fill:none" id="patch_1"/><g id="axes_1"><path d="M49.83 284.4h558V7.2h-558v277.2z" style="fill:none" id="patch_2"/><g id="matplotlib.axis_1"><g id="xtick_1"><g id="line2d_1"><defs><path id="mdf75124719" d="M0 0v3.5" style="stroke:#b0b0b0;stroke-width:.4"/></defs><use xlink:href="#mdf75124719" x="86.571" y="284.4" style="fill:#b0b0b0;stroke:#b0b0b0;stroke-width:.4"/></g><g style="fill:#b0b0b0" transform="matrix(.14 0 0 -.14 57.323 302.038)" id="text_1"><defs><path id="DejaVuSans-32" d="M1228 531h2203V0H469v531q359 372 979 998 621 627 780 809 303 340 423 576 121 236 121 464 0 372-261 606-261 235-680 235-297 0-627-103-329-103-704-313v638q381 153 712 231 332 78 607 78 725 0 1156-363 431-362 431-968 0-288-108-546-107-257-392-607-78-91-497-524-418-433-1181-1211z" transform="scale(.01563)"/><path id="DejaVuSans-30" d="M2034 4250q-487 0-733-480-245-479-245-1442 0-959 245-1439 246-480 733-480 491 0 736 480 246 480 246 1439 0 963-246 1442-245 480-736 480zm0 500q785 0 1199-621 414-620 414-1801 0-1178-414-1799Q2819-91 2034-91q-784 0-1198 620-414 621-414 1799 0 1181 414 1801 414 621 1198 621z" transform="scale(.01563)"/><path id="DejaVuSans-2d" d="M313 2009h1684v-512H313v512z" transform="scale(.01563)"/><path id="DejaVuSans-34" d="M2419 4116 825 1625h1594v2491zm-166 550h794V1625h666v-525h-666V0h-628v1100H313v609l1940 2957z" transform="scale(.01563)"/></defs><use xlink:href="#DejaVuSans-32"/><use xlink:href="#DejaVuSans-30" x="63.623"/><use xlink:href="#DejaVuSans-32" x="127.246"/><use xlink:href="#DejaVuSans-30" x="190.869"/><use xlink:href="#DejaVuSans-2d" x="254.492"/><use xlink:href="#DejaVuSans-30" x="290.576"/><use xlink:href="#DejaVuSans-34" x="354.199"/></g></g><g id="xtick_2"><use xlink:href="#mdf75124719" x="138.811" y="284.4" style="fill:#b0b0b0;stroke:#b0b0b0;stroke-width:.4" id="line2d_2"/><g style="fill:#b0b0b0" transform="matrix(.14 0 0 -.14 109.564 302.038)" id="text_2"><defs><path id="DejaVuSans-37" d="M525 4666h3000v-269L1831 0h-659l1594 4134H525v532z" transform="scale(.01563)"/></defs><use xlink:href="#DejaVuSans-32"/><use xlink:href="#DejaVuSans-30" x="63.623"/><use xlink:href="#DejaVuSans-32" x="127.246"/><use xlink:href="#DejaVuSans-30" x="190.869"/><use xlink:href="#DejaVuSans-2d" x="254.492"/><use xlink:href="#DejaVuSans-30" x="290.576"/><use xlink:href="#DejaVuSans-37" x="354.199"/></g></g><g id="xtick_3"><use xlink:href="#mdf75124719" x="191.626" y="284.4" style="fill:#b0b0b0;stroke:#b0b0b0;stroke-width:.4" id="line2d_3"/><g style="fill:#b0b0b0" transform="matrix(.14 0 0 -.14 162.378 302.038)" id="text_3"><defs><path id="DejaVuSans-31" d="M794 531h1031v3560L703 3866v575l1116 225h631V531h1031V0H794v531z" transform="scale(.01563)"/></defs><use xlink:href="#DejaVuSans-32"/><use xlink:href="#DejaVuSans-30" x="63.623"/><use xlink:href="#DejaVuSans-32" x="127.246"/><use xlink:href="#DejaVuSans-30" x="190.869"/><use xlink:href="#DejaVuSans-2d" x="254.492"/><use xlink:href="#DejaVuSans-31" x="290.576"/><use xlink:href="#DejaVuSans-30" x="354.199"/></g></g><g id="xtick_4"><use xlink:href="#mdf75124719" x="244.441" y="284.4" style="fill:#b0b0b0;stroke:#b0b0b0;stroke-width:.4" id="line2d_4"/><g style="fill:#b0b0b0" transform="matrix(.14 0 0 -.14 215.193 302.038)" id="text_4"><use xlink:href="#DejaVuSans-32"/><use xlink:href="#DejaVuSans-30" x="63.623"/><use xlink:href="#DejaVuSans-32" x="127.246"/><use xlink:href="#DejaVuSans-31" x="190.869"/><use xlink:href="#DejaVuSans-2d" x="254.492"/><use xlink:href="#DejaVuSans-30" x="290.576"/><use xlink:href="#DejaVuSans-31" x="354.199"/></g></g><g id="xtick_5"><use xlink:href="#mdf75124719" x="296.108" y="284.4" style="fill:#b0b0b0;stroke:#b0b0b0;stroke-width:.4" id="line2d_5"/><g style="fill:#b0b0b0" transform="matrix(.14 0 0 -.14 266.86 302.038)" id="text_5"><use xlink:href="#DejaVuSans-32"/><use xlink:href="#DejaVuSans-30" x="63.623"/><use xlink:href="#DejaVuSans-32" x="127.246"/><use xlink:href="#DejaVuSans-31" x="190.869"/><use xlink:href="#DejaVuSans-2d" x="254.492"/><use xlink:href="#DejaVuSans-30" x="290.576"/><use xlink:href="#DejaVuSans-34" x="354.199"/></g></g><g id="xtick_6"><use xlink:href="#mdf75124719" x="348.349" y="284.4" style="fill:#b0b0b0;stroke:#b0b0b0;stroke-width:.4" id="line2d_6"/><g style="fill:#b0b0b0" transform="matrix(.14 0 0 -.14 319.1 302.038)" id="text_6"><use xlink:href="#DejaVuSans-32"/><use xlink:href="#DejaVuSans-30" x="63.623"/><use xlink:href="#DejaVuSans-32" x="127.246"/><use xlink:href="#DejaVuSans-31" x="190.869"/><use xlink:href="#DejaVuSans-2d" x="254.492"/><use xlink:href="#DejaVuSans-30" x="290.576"/><use xlink:href="#DejaVuSans-37" x="354.199"/></g></g><g id="xtick_7"><use xlink:href="#mdf75124719" x="401.163" y="284.4" style="fill:#b0b0b0;stroke:#b0b0b0;stroke-width:.4" id="line2d_7"/><g style="fill:#b0b0b0" transform="matrix(.14 0 0 -.14 371.915 302.038)" id="text_7"><use xlink:href="#DejaVuSans-32"/><use xlink:href="#DejaVuSans-30" x="63.623"/><use xlink:href="#DejaVuSans-32" x="127.246"/><use xlink:href="#DejaVuSans-31" x="190.869"/><use xlink:href="#DejaVuSans-2d" x="254.492"/><use xlink:href="#DejaVuSans-31" x="290.576"/><use xlink:href="#DejaVuSans-30" x="354.199"/></g></g><g id="xtick_8"><use xlink:href="#mdf75124719" x="453.978" y="284.4" style="fill:#b0b0b0;stroke:#b0b0b0;stroke-width:.4" id="line2d_8"/><g style="fill:#b0b0b0" transform="matrix(.14 0 0 -.14 424.73 302.038)" id="text_8"><use xlink:href="#DejaVuSans-32"/><use xlink:href="#DejaVuSans-30" x="63.623"/><use xlink:href="#DejaVuSans-32" x="127.246"/><use xlink:href="#DejaVuSans-32" x="190.869"/><use xlink:href="#DejaVuSans-2d" x="254.492"/><use xlink:href="#DejaVuSans-30" x="290.576"/><use xlink:href="#DejaVuSans-31" x="354.199"/></g></g><g id="xtick_9"><use xlink:href="#mdf75124719" x="505.645" y="284.4" style="fill:#b0b0b0;stroke:#b0b0b0;stroke-width:.4" id="line2d_9"/><g style="fill:#b0b0b0" transform="matrix(.14 0 0 -.14 476.397 302.038)" id="text_9"><use xlink:href="#DejaVuSans-32"/><use xlink:href="#DejaVuSans-30" x="63.623"/><use xlink:href="#DejaVuSans-32" x="127.246"/><use xlink:href="#DejaVuSans-32" x="190.869"/><use xlink:href="#DejaVuSans-2d" x="254.492"/><use xlink:href="#DejaVuSans-30" x="290.576"/><use xlink:href="#DejaVuSans-34" x="354.199"/></g></g><g id="xtick_10"><use xlink:href="#mdf75124719" x="557.886" y="284.4" style="fill:#b0b0b0;stroke:#b0b0b0;stroke-width:.4" id="line2d_10"/><g style="fill:#b0b0b0" transform="matrix(.14 0 0 -.14 528.638 302.038)" id="text_10"><use xlink:href="#DejaVuSans-32"/><use xlink:href="#DejaVuSans-30" x="63.623"/><use xlink:href="#DejaVuSans-32" x="127.246"/><use xlink:href="#DejaVuSans-32" x="190.869"/><use xlink:href="#DejaVuSans-2d" x="254.492"/><use xlink:href="#DejaVuSans-30" x="290.576"/><use xlink:href="#DejaVuSans-37" x="354.199"/></g></g></g><g id="matplotlib.axis_2"><g id="ytick_1"><path d="M49.83 284.4h558" clip-path="url(#p3cae5074ca)" style="fill:none;stroke:#b0b0b0;stroke-width:.3;stroke-linecap:square" id="line2d_11"/><g id="line2d_12"><defs><path id="mf21dfcd83b" d="M0 0h-3.5" style="stroke:#b0b0b0;stroke-width:.3"/></defs><use xlink:href="#mf21dfcd83b" x="49.83" y="284.4" style="fill:#b0b0b0;stroke:#b0b0b0;stroke-width:.3"/></g><use xlink:href="#DejaVuSans-30" style="fill:#b0b0b0" transform="matrix(.14 0 0 -.14 33.922 289.719)" id="text_11"/></g><g id="ytick_2"><path d="M49.83 243.4h558" clip-path="url(#p3cae5074ca)" style="fill:none;stroke:#b0b0b0;stroke-width:.3;stroke-linecap:square" id="line2d_13"/><use xlink:href="#mf21dfcd83b" x="49.83" y="243.399" style="fill:#b0b0b0;stroke:#b0b0b0;stroke-width:.3" id="line2d_14"/><g style="fill:#b0b0b0" transform="matrix(.14 0 0 -.14 16.108 248.718)" id="text_12"><defs><path id="DejaVuSans-35" d="M691 4666h2478v-532H1269V2991q137 47 274 70 138 23 276 23 781 0 1237-428 457-428 457-1159 0-753-469-1171Q2575-91 1722-91q-294 0-599 50Q819 9 494 109v635q281-153 581-228t634-75q541 0 856 284 316 284 316 772 0 487-316 771-315 285-856 285-253 0-505-56-251-56-513-175v2344z" transform="scale(.01563)"/></defs><use xlink:href="#DejaVuSans-35"/><use xlink:href="#DejaVuSans-30" x="63.623"/><use xlink:href="#DejaVuSans-30" x="127.246"/></g></g><g id="ytick_3"><path d="M49.83 202.399h558" clip-path="url(#p3cae5074ca)" style="fill:none;stroke:#b0b0b0;stroke-width:.3;stroke-linecap:square" id="line2d_15"/><use xlink:href="#mf21dfcd83b" x="49.83" y="202.399" style="fill:#b0b0b0;stroke:#b0b0b0;stroke-width:.3" id="line2d_16"/><g style="fill:#b0b0b0" transform="matrix(.14 0 0 -.14 7.2 207.717)" id="text_13"><use xlink:href="#DejaVuSans-31"/><use xlink:href="#DejaVuSans-30" x="63.623"/><use xlink:href="#DejaVuSans-30" x="127.246"/><use xlink:href="#DejaVuSans-30" x="190.869"/></g></g><g id="ytick_4"><path d="M49.83 161.398h558" clip-path="url(#p3cae5074ca)" style="fill:none;stroke:#b0b0b0;stroke-width:.3;stroke-linecap:square" id="line2d_17"/><use xlink:href="#mf21dfcd83b" x="49.83" y="161.398" style="fill:#b0b0b0;stroke:#b0b0b0;stroke-width:.3" id="line2d_18"/><g style="fill:#b0b0b0" transform="matrix(.14 0 0 -.14 7.2 166.717)" id="text_14"><use xlink:href="#DejaVuSans-31"/><use xlink:href="#DejaVuSans-35" x="63.623"/><use xlink:href="#DejaVuSans-30" x="127.246"/><use xlink:href="#DejaVuSans-30" x="190.869"/></g></g><g id="ytick_5"><path d="M49.83 120.397h558" clip-path="url(#p3cae5074ca)" style="fill:none;stroke:#b0b0b0;stroke-width:.3;stroke-linecap:square" id="line2d_19"/><use xlink:href="#mf21dfcd83b" x="49.83" y="120.397" style="fill:#b0b0b0;stroke:#b0b0b0;stroke-width:.3" id="line2d_20"/><g style="fill:#b0b0b0" transform="matrix(.14 0 0 -.14 7.2 125.716)" id="text_15"><use xlink:href="#DejaVuSans-32"/><use xlink:href="#DejaVuSans-30" x="63.623"/><use xlink:href="#DejaVuSans-30" x="127.246"/><use xlink:href="#DejaVuSans-30" x="190.869"/></g></g><g id="ytick_6"><path d="M49.83 79.396h558" clip-path="url(#p3cae5074ca)" style="fill:none;stroke:#b0b0b0;stroke-width:.3;stroke-linecap:square" id="line2d_21"/><use xlink:href="#mf21dfcd83b" x="49.83" y="79.396" style="fill:#b0b0b0;stroke:#b0b0b0;stroke-width:.3" id="line2d_22"/><g style="fill:#b0b0b0" transform="matrix(.14 0 0 -.14 7.2 84.715)" id="text_16"><use xlink:href="#DejaVuSans-32"/><use xlink:href="#DejaVuSans-35" x="63.623"/><use xlink:href="#DejaVuSans-30" x="127.246"/><use xlink:href="#DejaVuSans-30" x="190.869"/></g></g><g id="ytick_7"><path d="M49.83 38.396h558" clip-path="url(#p3cae5074ca)" style="fill:none;stroke:#b0b0b0;stroke-width:.3;stroke-linecap:square" id="line2d_23"/><use xlink:href="#mf21dfcd83b" x="49.83" y="38.396" style="fill:#b0b0b0;stroke:#b0b0b0;stroke-width:.3" id="line2d_24"/><g style="fill:#b0b0b0" transform="matrix(.14 0 0 -.14 7.2 43.715)" id="text_17"><defs><path id="DejaVuSans-33" d="M2597 2516q453-97 707-404 255-306 255-756 0-690-475-1069Q2609-91 1734-91q-293 0-604 58T488 141v609q262-153 574-231 313-78 654-78 593 0 904 234t311 681q0 413-289 645-289 233-804 233h-544v519h569q465 0 712 186t247 536q0 359-255 551-254 193-729 193-260 0-557-57-297-56-653-174v562q360 100 674 150t592 50q719 0 1137-327 419-326 419-882 0-388-222-655t-631-370z" transform="scale(.01563)"/></defs><use xlink:href="#DejaVuSans-33"/><use xlink:href="#DejaVuSans-30" x="63.623"/><use xlink:href="#DejaVuSans-30" x="127.246"/><use xlink:href="#DejaVuSans-30" x="190.869"/></g></g></g><path d="m49.83 284.4 20.093-.082 2.87-.152 1.148-.012 1.148-.117 1.722-.211 1.149-.668 1.148-1.37 1.722-3.632.574-1.874.574-2.413.574-3.198.574-4.042.574-4.873.574-7.146.575-5.002.574-6.092.574-9.793 1.148-28.536 1.722-33.75.574-12.37.574-17.888.574-6.033 1.148-17.49.574-5.67 1.149-5.834.574 1.465.574-5.53.574.809.574 1.288.574 1.886.574-.984.574-3.338.574.351.574 1.863.574-2.823.574.468.575 2.39.574 6.466.574 9.372.574 2.565.574 1.066.574 2.765.574 2.155.574-.046.574 2.483.574 1.359 1.148 1.242.574 3.35.574 1.3.575 3.187.574 2.366.574 4.03 1.148 14.21 1.148 3.256.574 3.538.574 2.179.574-2.296.574 1.92.574 2.637.574 6.876.575 4.967.574 1.066.574 2.062.574 7.286.574 9.079.574.21 1.722 3.995.574.188.574-1.957.574-3.725.574 5.295.574.797.575 2.8.574 3.631.574 1.91.574 3.104.574.726.574 1.664.574 2.19.574.55.574-.796 2.87 6.795.575 2.249.574 1.675 1.722 1.09.574-.153.574 1.71.574.024.574.75.574-.047.574.093.574 2.133.574.62.575-2.237.574-.598.574 2.25h.574l.574-.164.574-6.97.574-1.652.574-3.444.574-1.453.574-5.213.574-1.78.574-.715.574 2.929.575-1.418.574.738 1.148-2.975.574-.094.574-1.007.574-2.367.574-3.034.574-1.195.574-2.015.574-.925.574-.656.574-6.76.574-1.358 1.149-5.06.574-.926.574-1.722.574.902.574 6.396.574-.504.574.2.574 1.276.574-1.394.574.305.574-1.3.574.444.575 2.11.574-1.09.574 1.757.574-.164.574.62.574-.491.574.562.574-1.804.574 9.664.574-.773.574 2.46.574.937.574 1.266.574.515.575.105.574-5.564.574-.082.574 1.992.574-.059.574.773.574-.562.574 1.792 1.148 2.25.574-.317.574 1.968.574.07.575 1.851.574 6.959.574-.55.574 1.323.574-2.226 1.148 1.125.574-1.148.574-8.411.574 1.968.574.703.574 2.155.574.855.574 1.511.575.13.574 2.002.574-1.382.574-.48.574.504.574-1.137.574-.457.574.82 1.148 3.21.574-.07 1.148 1.968.575-.762.574-1.581.574 2.425.574-.035.574-.902.574-1.465.574.27.574-1.101.574.937.574-.621.574-.96.574 1.58.574.34.574-1.651.575-.223.574-1.359 1.148-4.545 1.148-.55.574-2.132.574.363.574-.516.574-.832.574 1.465 1.148-2.952.575.386.574-.667.574-.492.574-7.064.574-.89.574-2.285.574-1.745.574-2.18.574-.784.574-2.39.574 2.179.574-4.053.574-.586.574-.07 1.149-5.33.574-.89.574-3.574.574-5.54 1.148-17.783 1.722-9.512.574-5.155.574-3.795.574 7.321.575 4.147.574 2.613.574.316.574-2.753.574-4.381.574-6.092.574-17.817 1.148-23.921.574-4.335.574-3.116.574-.515.574-2.003.574-.036.575-7.813.574-1.23.574-2.085.574-.633.574-3.561.574-8.599.574-5.904.574 4.745.574-2.706.574-1.172.574-1.534.574-5.002.574 4.346.575 6.548.574 16.763.574 9.665.574 3.104.574-.843.574-2.859.574-6.349.574-4.58 1.148-15.381.574.093.574-1.335.574.059.574-.2.575-8.762.574-22.855 1.148-15.815.574 1.816.574-9.395.574-1.347.574 2.589.574 3.971.574-4.1.574 1.289.574 3.256.574 23.078.575-4.768.574-3.784 1.148.773.574 1.804.574-2.366.574-18.462 1.148 7.322.574 2.495.574 7.825.574-1.23.574.023.574 5.202.575 2.33.574-.936.574-1.16.574 1.523.574 5.506.574 3.854 1.148 11.785 1.148 18.098.574 5.565.574 3.631.574 5.893.575 16.295.574 11.187.574 7.064 1.148 7.802.574-.68.574-3.08.574-7.229.574-9.488.574 1.687 1.148 9.172.574 1.44.574-1.253.575 4.054.574 8.118 1.148 10.601.574-.082.574 4.51.574 7.03.574 1.791.574 11.563.574 4.486.574 3.433.574 6.466.574 2.179.575.14.574 5.952.574 4.006.574-1.043.574 4.674.574 2.308.574-2.25.574 1.77.574 3.608.574-3.128.574 3.35.574-1.558.574-.398.574 3.104.575-.96.574.62.574 4.581 1.148 5.963.574.574.574 1.511.574 2.003.574.715.574-17.935.574 1.019 1.148-.176 1.149.387.574-.387.574 19.505.574 1.23.574.387.574.597.574-.68.574-.503.574.316.574.457.574-.387.574 1.254.574-.48.575.48.574.176.574 2.003.574-1.008.574.668.574-.48.574.011 1.148-.222.574-2.437.574 1.992.574 1.03.574.54.575 1.288.574.703.574.984.574 2.273 1.148 1.136 1.148 2.835 1.148-.07.574-1.184.574 1.312.574.738 1.149.762.574.75.574-.457.574 1.663.574-3.877.574-7.802.574.796.574 1.875.574.667.574 3.046.574-.035.574 4.967.574 8.423.575.199.574-3 .574-.257.574-1.511.574 3.9.574 1.008.574 2.671.574-.105.574 3.702.574.68.574 1.417.574-.164 1.148 2.296.575-.867.574 1.148.574.386.574-.82.574-.246.574-.035.574-.492.574.844 1.148.152.574 1.171.574.176.574 1.007.575.68 1.148 2.003 1.722 1.136.574-.304.574.375.574-.317.574.059.574-.949.574-1.335.574-.61.574-.023.575-1.23 1.148.176.574.304.574.434.574.785.574-.41.574.796.574-1.148.574-.75.574-.082.574-.609.574-1.968 1.149-.585.574-3.913.574-.457.574-1.523.574-1.09.574-1.499.574-1.91 1.148-5.318.574-1.066.574 1.137.574-2.015 1.149-5.94.574-5.927.574.855.574-.047.574-.949.574-6.15.574-2.202.574-4.686.574-8.832.574-4.721.574-3.562h.574l.574-3.467 1.723-13.999.574-3.257.574-.89.574-1.3.574-4.405.574-.176.574-5.751.574-9.302.574-2.33.574-.024.574-1.172.574 12.933.575-7.59.574-3.187.574-2.53.574-6.104.574-2.237.574.539.574-18.146.574 1.944.574-4.873.574-3.104.574.082.574-1.921.574-.258.575-1.757.574-6.115.574.504.574 2.167.574-.375.574 1.792.574-2.19.574.574.574-.785.574.597.574 5.635.574 4.135.574.023.574.563.575 3.854.574 7.321.574-.21 1.722 12.675.574.574.574 8.774.574-4.721.574-6.15.574 3.315.574-.2.574-1.721.575.164.574-6.865.574 3.854.574-.047.574 2.027.574-.61.574.294.574 2.33.574 3.503.574 4.218.574 13.178 1.722 5.565.575.258.574 2.506.574 3.714.574.878.574 7.662.574-4.557.574-1.265 1.148.808.574-1.898 1.148 6.947.574-3.866.575-1.078.574-.011.574-.844.574 1.523.574.34.574-5.12.574 8.002.574 1.452.574-.21.574.41 1.148-.786.574 9.993.574 16.178.575 1.616.574-.34.574-7.825 1.148-6.923.574-39.841.574-14.327.574-4.24.574-1.582.574 5.728.574 1.5.574 2.109.574 27.341.575-1.652.574.879 1.148.902h.574l.574-4.838.574 3.315.574-1.3.574-.644.574.585.574-1.85.574-4.651.574-22.832.574-1.628.575 13.764.574 5.12.574-.586.574-3.444.574-4.428.574 21.285.574-.96.574-.48.574-1.864.574-.421.574-.668.574-.457.574 1.617.575-7.1.574-19.996.574-5.494.574-2.495.574-1.769.574-2.237.574-7.24.574-5.424.574-4.182 1.148-3.292.574 11.926.574-2.542.574-7.38.575-4.358.574-6.947.574-.246.574.305.574-13.355 1.148-9.442.574 3.679.574-8.26.574-2.084.574 2.952.574-5.026.574-2.366.575 3.21.574 1.593.574-.352.574 3.304.574.21.574-3.315.574 4.183.574 2.963.574-9.02.574 16.658.574 1.218.574-1.358.574-3.433.574 4.65.575 1.782.574 3.49.574 2.332 1.148 3.163.574 26.533.574 5.072.574 1.101.574-.035.574 4.885.574-.855.574 2.565.574-14.361.575 4.72.574 11.727.574 14.608.574 4.03.574 5.283.574.152.574 5.201.574 4.089.574.796.574-.738.574.937 1.148.598 1.149 8.493.574 2.05.574 3.21.574 9.887.574-.07.574 1.23.574.327.574 3.585.574 2.437.574 7.415.574 2.296.574 1.57.574.316.575 3.104.574-2.495.574 5.53.574 4.064.574-2.483 1.148-.07 1.148 10.554.574.48.574-3.713.574 2.25.574.151.574.364.575 3.034.574-.96.574 1.03.574 1.277.574 3.385.574.024.574.21.574.914 1.148 3.374.574 3.807.574-2.05.574 1.043.575-.246.574-.106 1.148 2.601.574-.129.574 1.207.574-.715.574.106.574-.34.574-1.511.574-13.448.574 1.312.574.492.574-.856.575-.082.574.469.574 1.43.574 14.853.574-.023.574 2.038.574 1.5.574-.083.574.094.574-.808.574-3.362.574-.387.574-2.472 1.149-.304.574.023.574.621.574-1.359.574-.234.574-1.335 1.148.784.574 2.379.574-.282.574 4.803.574.328.574 1.535.575-1.37.574-.2.574-2.835.574-1.265.574-6.103 1.148.75.574.55.574.059.574-.082.574 1.3.574 5.74.574-1.71.575.562.574.797.574-.293.574 2.308.574-1.078.574-1.722.574.726 1.148-2.753.574.399.574-2.402.574-1.406.574 1.5.574 7.696.575-.656.574 1.218.574.153.574 2.577.574 1.335.574-.48.574-15.803.574-.34.574-.035.574-.269.574-4.58.574-1.207.574-2.437.575 8.189.574.246.574-.059.574-.28.574.339.574-.785.574.867.574-1.441.574-.82.574-.21 1.148.468.574.96.574-.609.575 1.113.574-.539.574.469.574.21.574-1.745.574.469.574-1.664.574-2.565.574-1.078 1.148-.34.574.844.574-1.582.575 1.77 1.148 1.475.574-.058.574.175.574.399.574 1.57.574-1.887.574-.597.574.785.574.035.574-9.032.574 8.458.574-1.218.575 1.675.574-.094.574-1.324.574.082.574 9.044.574-8.575.574 2.518.574-6.524.574-.727.574 2.66 1.148.175.574 4.686.575-2.355.574 8.505.574-.07.574-.809 1.148-.082.574-4.37.574.985.574-1.956.574.246.574 1.429 1.148.152.574.832.575 1.124 1.148.692.574-.317.574-.164 1.148.082h0" clip-path="url(#p3cae5074ca)" style="fill:none;stroke:#7516fd;stroke-width:1.5;stroke-linecap:square" id="line2d_25"/><path d="m49.83 284.4 35.593-.094 1.722-.222 5.166-.422 1.149-.445.574-.129 3.444-1.699 1.148-.68.574-.093 2.87-1.03 1.723-1.676 1.148.246 1.148-.597 1.148.375.574-.024.575-.597.574-.352 1.148-.351 2.87-.598.574.036.574-.094 1.723-1.289.574-.234.574-.691.574-.012.574-.691.574-.305.574-.55.574-.96.574-.493.574.176.574-.75 1.722-.21.575 1.03.574-.187.574.047.574.515.574.129.574-.457.574-.047.574-.457.574.973.574.175 1.148-.62.574.257.575-.117.574.023.574-.55.574.117 1.148 1.03.574.47.574 1.066.574.058.574-.316 1.148.117.574-.012 1.149-1.37h.574l.574.246 1.148-.879.574-.515.574.503.574-.34.574.024.574-.246.574.047 1.148.632 1.149.293.574-.14.574.773.574.41 1.148.48.574-.105.574.234.574.387.574-.281.574.21 1.723.024.574.222.574-.093.574.597 1.722.211.574.34.574.164.574.492.574-.399.574-.07 1.723.387.574-.094 1.722.281.574.188.574.011 1.148.328.574.281 1.148-.082.574-.128.575.128.574.012 1.148-.363 1.148.164.574-.21 1.148-.06.574.07.574-.128 1.148.105.575.387.574.012.574-.305.574-.152.574.199.574-.094.574-.351.574-.07.574-.34.574.129.574-.188 1.148-.644.574.14.575-.175.574-.059.574-.175.574-.047.574.304 1.148-.527.574.129.574-.023 1.148-.563.574-.925 1.149-.152.574-.645 1.148-.574 1.722-.62.574-.387.574-.094.574-.656.574-.457.574-1.136.574-.375.574-.972 1.149-.996.574-.328.574-.914.574-.058.574-.598.574-.199 2.296-2.062 1.148-1.675.575-.363.574-.129 1.148-.597.574-.492.574.82.574-.211.574-.363.574-.504.574-.187.574-.07.574-.493.574-1.64 1.149-.656.574-.785.574-.527.574-.96 1.148-.586.574-.633.574-.96 2.296-2.331.574-.68 1.149-.832.574-.644.574-.117 1.148-1.851.574-.328.574-.82 1.148.082.574-.972.574.082.574.398.574-.07 1.723-1.558.574.058.574-.14.574-.445.574-.293.574-.012 1.148-.445.574-.457.574.152.574.563.575-.586.574.597.574.235.574-.504 1.148.058.574-.574.574.527.574.282.574 1.37.574.54.574.07.574.527.574 1.804 1.149 2.061.574-.222 1.148 1.195.574-.188.574-1.452.574-.727 1.148-2.612 1.148-.691.574-.633.575-.316.574-.504.574-.28.574.386.574-.13 1.722.458 1.148.925.574.48.574.059 1.148.48 1.149 1.394 1.148.211.574.621.574.34.574.082.574-.13.574-.397.574.222 1.148-.047.574.153 1.723 2.46.574.41 1.148.421.574.656.574.446.574.948 1.148.867 1.148.914.574.047.575-.258.574-.761 1.148-.75.574-.023.574.105.574-.539.574 1.207.574-.176.574.187.574-.28 1.148-.75.575-.34.574-1.254.574.446h.574l.574.456.574.961.574.258.574.527 1.148.527.574.761.574.446.574.046.574.422.575.762.574.175.574-.105 1.722.281.574-.223.574-.538.574.257.574.387.574.199.574-.047.574-.21.575.198 1.148 1.383 1.148-.68 1.148.082.574-.585.574-.809.574-.492 2.296.07.575.668 1.148-.257.574.14.574.422 2.296.187.574.645.574.328 1.148.351.575.27 2.296.398.574-.48.574-.211.574.035.574-.68.574-.246 1.148-.82.574-.058.574.187.575-.246.574.387.574.246.574-.34 2.296-.691.574.047.574-.223 1.148.352.574.093.575.305 2.296.105.574-.07.574.129.574-.234 1.148-.106.574-.48 1.148.035.574-.398 1.149-1.465.574-1.077.574-.797 1.722-5.447 2.87-8.306 1.149-2.589 1.148-1.792.574-.691.574-.48.574-.973 2.296-2.553.574-1.043.574-.68.574-.48 1.723-2.26.574-.422 1.148-.293 1.722-.047.574.058 1.722-.386.574.047.575-.14 1.148.081.574.176.574-.059.574-.62h.574l1.148.327 1.722.188.574.222.574-.023 1.149-.375 1.148-.632 1.148-.844.574-.187.574.058.574.235 1.148.62.574.633.574.281.575.129.574-.082.574-.363.574-.152.574.023.574-.375 1.148-.152 1.148.398 1.722-.07h2.297l.574.14 1.148.047.574.75 1.148.2 1.722-.036.574-.082.575-.644 1.148-.691.574-.328.574-.457.574-.305.574-.176.574-.035 1.722-1.616 1.148-1.547.574-1.019.575-1.253.574-.434 1.148-1.464.574-.539 1.148-1.734 1.722-2.33 1.148-1.325 1.149-.667 1.722-1.36 1.148-1.23 2.296-3.28 1.148-2.202.574-1.253 2.297-3.737 1.148-1.37 1.722-.575 2.296-1.98.574-.515 1.149-1.265 1.722-.785 1.722-.48 1.148-.55 1.148.222 1.723.68 1.722.843 3.444 1.171 2.87 2.449 1.149 1.581 1.722 1.37 1.722 3.421 1.148 2.519 1.148 2.929 4.593 7.65 1.722 4.497 1.148 2.285 1.149 2.776 1.148.984.574 1.008.574.492.574.878 1.722 2.05 2.296 3.315 1.149 1.172.574.457.574.058 1.148.258.574.515 1.148.422.574.152.574.692.574.351.574.2.575-.294 1.148-.14 1.148-1.055.574.141.574-.445.574.082 1.148-.902.574-.152.574-.516.574-.843.574-.059 2.297-3.502 1.148-1.09.574-1.054.574-.41.574.304 1.148.082.574-.246 1.723.164.574-.21.574.117.574.515.574.316.574.75 1.722 4.557 1.148 2.6 1.148 3.316.575 1.078.574.808.574 1.206 1.722 5.167.574 1.429.574 1.007 1.148 3.374 1.148 2.6 2.87 5.296 1.149 1.335.574.375.574.574.574.21 2.296 2.496 1.723 1.335 1.722.937.574.54 1.148.702 1.722 1.675 2.297 2.906 1.148 1.358 1.722.938 1.148.492.574.585 1.148.715 1.723.89 1.722.973 2.296 1.136.574.152 1.148-.187 1.148.27.575.07 2.296.737 1.148.223.574.21 1.148-.023 1.148.106 2.87.433 1.149.246 6.889 1.02 4.592.14 4.593.972 5.74.621 1.149-.058 1.722.14 1.148.024 1.148.117 1.148-.024 3.445-.128 1.722-.211 1.722-.176 4.019-.914 1.148-.07 2.296-.422 1.148-.164 1.723-.363 4.018-1.628 4.019-.153 4.592-.55 1.148-.27.575.047 1.148-.187.574.07.574-.058 1.148.128h0" clip-path="url(#p3cae5074ca)" style="fill:none;stroke:#5feb16;stroke-width:1.5;stroke-linecap:square" id="line2d_26"/><path d="m49.83 284.4 24.685-.094 2.87-.14 2.87.07 2.297.012 8.037-.235 3.445-.456 1.722-.235 1.722-.316.574-.164 2.297-.117 2.87.152.574-.234 1.722-.176 2.87.55 1.149.176 1.148-.21 1.722-.036 1.148.153 1.148.222 2.87.363 10.908.574 2.87-.035.575-.175 2.296.035 1.148-.047.574.222 2.296.036 3.445.058 2.87-.023 9.76-.082 1.722-.059 1.148.035 4.018-.246 2.87-.082 2.297-.363 1.148-.105 1.148-.059 2.87.082 2.871-.187 2.296.093 1.149.106 1.722-.047.574.094 1.148-.024 2.296.094.574-.012 1.148.13 1.149.093.574.082h1.148l2.296-.047 2.87-.012 1.149.082 5.166.14 1.148-.14 1.723.012.574.023.574-.093 1.722.035 1.148-.094 1.722.082.575-.117 6.888-.105.574-.094 2.87.023 1.149-.152 1.148-.105 1.148-.024 1.148-.176.575-.199 1.148-.129 1.722-.597 1.722-.34 1.148-.328 1.148-.187 1.149.164.574-.07.574.128 3.444-.656.574-.187 1.722.012 1.723-.457 2.87-.188 1.148.364.574-.235.574.035.574-.199 1.149-.246 1.148-.668.574.176h.574l.574.14.574-.374 2.87-.152.574-.469.575.059 1.722-.996 2.87-.469.574.14 2.296-.444.575-.352.574.106 1.148-.153.574.153.574-.035.574.292.574-.011.574.304.574.504.574.34 1.148.28.575-.081.574.492 1.148-.012 1.148-.293.574.2.574.55 1.148.14.574-.163.574.433.574.234.574.059.575-.129 1.148.152.574.293 1.148.082 1.722.258.574.258 2.297-.059.574.012 1.148.28 1.148.669 1.722.129.574.257 1.148.059 1.148-.258.575.047.574.234.574-.328 1.148.235 1.148.48 1.722.398 1.148-.14.574-.223 1.149-.117.574-.188 1.148-.164 1.148-.386 1.722-.07 1.148-.27 1.148-.27.575-.41.574-.058.574-.21.574-.013.574-.421.574.199.574-.34 1.148-.28.574.151.574-.105.574.152.574-1.277 1.149-.082.574-.257.574-.738 1.148-.961.574.785.574-.094.574.211.574-.597.574-1.207.574.105.574-.046.574-.364.575.13.574-.176.574.433.574 1.312 1.148-.387.574.2.574-.094 1.148.21 1.722.165.575.105.574.316 1.722.07.574.2.574.468.574.27 1.148.316.574.176.574.375 1.723.644.574.316.574.14 1.722.82.574.06.574.199.574-.012.574.117.574-.035 6.315 1.699 1.148-.024.574.188.574.046 1.149-.128.574.117 2.296-.164h.574l.574.187 2.87.211.575.14 1.148-.105 4.592-.176 2.297-.234.574-.187 2.296-.293.574-.328 3.444-.703.575.059 1.148-.457.574-.246.574-.094.574-.293 1.148-.422.574-.304 1.722-.445.574.21 1.149.094 1.722-.527.574.047 1.148-.223 1.148.258.574.293.574.047 1.148-.082.575.304.574.094 2.87 1.207 1.148-.094 4.019.55.574.258.574.035.574-.14 2.296.304.574-.082.574.07.574.27.574.129h1.149l.574.023 1.148.469 1.722.281 2.296.375 1.723-.059 1.722.082 3.444.317 2.87.199 1.723-.012 4.018.024 2.87.07 25.834-.082 1.148-.164 1.148-.012 1.723-.27.574.024 1.722-.445.574-.387.574-.222 1.148-.855 2.296-1.16 1.723-1.757.574-.867.574-.445.574-.762 1.148-1.98.574-.866.574-.55.574-.34.574-.809.574-.422 1.149-1.698.574-1.254 1.148-1.558 1.148-.539.574-1.007.574-.187.574.761.574-.797.574-.445.574.176.574-.293.575.984.574.129.574-.61.574.516.574.844.574.14.574.914.574-.129.574.258.574.82.574.293 1.148.995.574.047 1.149 1.3.574.2.574.62.574.434.574.281.574.68.574 1.37 1.722 1.488 1.723.012.574-.117 1.722 1.019.574.539 1.148.55.574.2 1.148.737 1.148.176.574-.059 2.87.598.575.012 1.148.222.574-.058.574.21h.574l1.723.434 1.722-.422 1.722.457.574-.222 1.148.222.574.469.574.246.574.093.574-.152.575.094 1.148.012 1.148-.41 4.018.07 1.149-.117.574.082 1.148-.094.574.082.574-.07.574.07 1.148-.07 2.87.492.575.152 1.722.187.574.176h.574l1.722.305h1.148l1.148.011 1.149-.023 1.148.082 1.148.234 2.87.2.574-1.067 3.445-.035.574 1.031 1.148.047 1.722-.187 1.148-.047 1.149-.434 1.722-.175 1.148-.106 1.722-.68.574-.644.574-.093.574-.34 1.148-1.91 1.149-1.593.574-.304 1.148-1.207.574-.328 1.148-1.019.574-1.078.574-.597 1.148-1.476.574-1.582.575-.96.574-.527.574.046.574-1.218.574-.012.574-.632.574-.328.574-.457 1.148-1.933.574.023.574-.855 1.148-.913 1.149-.235.574-.316.574-.082 1.148.187.574.282.574-.434.574-.082 1.148-.656 1.723.2 4.592 8.34 1.148 1.347.574.82.574.375.574.797.575 1.09 1.148 1.487.574 1.054.574.82.574.27.574.035h0" clip-path="url(#p3cae5074ca)" style="fill:none;stroke:#53a577;stroke-width:1.5;stroke-linecap:square" id="line2d_27"/><path d="m49.83 284.4 26.407-.094 1.149-.023 1.722-.059 1.722-.328 2.296-1.581 1.148-1.172.575-.656.574-.41 2.296-4.627.574-.808.574-1.406.574-.304.574-.528 1.722-3.889.574-.351.575.644.574-.398.574.035.574-.363.574-.809.574-.386 1.148-1.476.574.187.574-.28.574.046.574 1.171 1.149 1.582.574.515h.574l.574.363.574.926 1.148.89.574.996 1.148 1.558.574.281.574.434 1.148 1.124.575-.105.574.562 1.148.515.574.75.574.398 1.148 1.078 1.148-.07.574.515.574.211.574.375.575.867.574.176 1.148.152 1.148.738 1.722-.164.574.234.574-.011.574.398.574.21.574.376 1.149.152.574-.129.574.059.574-.305 1.722.457 1.148.363.574.023.574.328.574-.14 3.445.07 1.148.281.574-.058 1.148.011 1.722.047 4.019.235h1.148l2.296.082 1.149.164 4.018.082 1.722-.13 4.019.13 1.722-.2 1.722-.082.574-.093 2.297.222.574-.07 1.148.082 6.889.082.574.07 2.87-.164 5.741.14 5.74-.198 1.149-.281 2.87-.164 1.148.164.574-.118h1.723l2.296-.023 1.148-.117.574-.012 1.148-.515 1.723-.352.574-.07.574-.398 1.148.082 1.148-.48 1.148-.364.574.059 2.297-2.19h.574l.574-.294.574-1.042.574-.773.574-.34.574-1.043 2.296-1.148 1.148-2.425 1.723-1.687.574.012.574-1.324 1.722-1.429.574-.89 1.148-.691.574.21.574-1.23 1.723-5.025.574-.234.574-.41.574-1.628 1.148-1.957.574-.07 1.148-2.355.574-.257.574-.41.574-1.207.574.457.575-1.945.574-.152.574-.773.574-.48.574-.903.574-4.24 1.148-5.541.574-2.413.574-1.031.574-.445.574-2.706.574-.118.575-1.218 1.148 10.11.574.62 1.148-2.846 1.722-5.506.574-1.124 1.148 1.054.574-1.078.574 1.289.575-1.242 1.148-16.19.574-1.792.574-.48.574.62.574-.48.574-2.038.574.879.574 1.206.574.235.574 1.51 1.149-2.178 1.148 5.682 1.148 2.307.574-.035.574 1.008.574 1.944.574.844.574.234.574.996.574-.586 1.148.984.575.082.574 1.816.574-.188.574 1.23.574 1.968.574.2.574 4.451.574 1.898.574 1.405.574 3.503.574 1.617.574.152.574.492.575-.55.574 2.963.574 1.547 1.148 1.276.574.856.574.632.574 1.324 1.722 4.697.574 1.418.574-.14.574.023.575.667.574.047.574.305.574 1.523 1.148 1.523.574.304 1.148 2.59.574.444.574.14.574.715.574.305.575-.152.574.199.574.597.574 1.101 1.148.68.574-.34 2.296-.176 1.148 1.09 1.149.187.574.82.574-.011.574.316.574-.574.574.433.574.258.574-.082.574 1.054.574-.574.574-1.23.574-.75.574-1.475.575-.422.574-.574.574-2.39.574-.515.574.152.574.574 1.722.832.574-.035.574.128.574.399.574-.211 1.149-1.406.574.375.574-.55.574.222.574-.059.574-.48.574.633.574.117.574-.281 1.148.656 1.148.421.575-.07.574-.199 1.722.925.574-.328.574 1.102 1.148 1.37.574-.117.574.726.574-.187.574.48.574-.422.575.082.574-.128.574.246.574 2.202.574.164.574-.375.574.398.574.082.574.305.574.082.574-1.406 1.148 2.273.575 1.242.574.48.574-.211 1.148.316 1.148 1.687 1.148-.27.574.657.574.14.574.55.574-.35.574-.13.575.13.574.35 1.148.024.574.188.574 1.007.574.14 1.148.704 2.296.292.575.352.574-.082.574.61 1.148.093.574.304.574.094.574.375.574.234.574-.222 1.722.058.574.235.575-.012.574.363.574.152 1.148.047.574-.094.574.106 2.296-.387 1.723-.093.574.246 2.296.187.574.223 1.722-.036 2.296-.082 2.297.446 1.148-.012 1.722-.258.574.07 1.148-.07h.574l1.149-.363 1.722-.059 1.722-.386.574.187.574-.14.574-.363 2.297-.094 1.722-.457.574-.246.574.152 1.148-.152.574-.562.574-.211.574.41.574-.211.574-.352.575-.011.574-.153.574.141 1.148-1.078 1.148.13.574.034.574-.234.574.047.574.562 1.148-.14.574.222 2.297.047.574-.152.574.011.574-.175 1.148.023.574-.187.574-.047.574.246.574-.117.575.082 1.722-.035.574.058.574-.597 1.722-.281.574-.469.574-.258.574-.69 2.297-.294.574.55.574-.936 1.722-1.453 1.148-.164.574-1.03.574-.493.574-.82.574-.433.575-1.008 1.148-.328.574-1.124.574-.68.574-.34.574-.117 1.722-.69 1.148-.996.574-1.02.574-1.827.575-.644.574-.34.574-.129.574-.925.574-1.3 1.148-.82.574-.88.574.118 1.148-.223 1.723-2.952.574-1.546 1.148-.855.574-.867.574.867.574-.668.574.55.574 1.125.574-.562.574-.035.574.129.574-.668.574 1.136.575.785.574 3.01.574 1.078.574.586 1.148 2.179 1.148 1.043.574-.317.574.492.574.012.574.187.574.797.575-.703.574.691.574-.984.574-.363.574.188.574.398.574-.445.574 1.488.574-.258 1.148.738.574.258 1.148 3.21.575.96.574 1.359.574.656 1.722-.305.574.855.574.54 1.722-.094.574-.387.574.305.575-.352.574.281h.574l1.148.328 1.148.27 1.148-1.758.574-.656 1.148-.503.574.082.574-.773.575.292.574-.269.574-.445 1.148-.316.574.234 1.148-1.347.574.21.574.446.574-.469.574.188.574-.024.575.832.574-.024.574-.28.574-.762.574-.059 1.148.07.574-1.042.574-.152.574.093.574.492 1.722.141 1.149 1.007.574-.222 1.148.597 1.148.082.574.223.574-.703.574-.258 1.148-1.394 1.149-.082.574-.503.574-.223.574-3.468.574 3.527 1.148-.352.574.234.574-.105.574-3.749.574 3.07.574-3.773.574 3 .574.609.575-3.386.574-.527.574 4.194.574 1.429.574 3.28.574.27.574.023.574 3.303.574.153.574-.164.574-.902.574-2.402.574-.129.575.059.574-3.48.574 4.077.574-3.104 1.148 1.757 1.148.234.574.75.574-2.823.574 4.756h.574l.574-.293 1.149-.059.574.258.574.117.574-.164 1.148 1.055 1.722.129.574.667.574.375.574.152.574.282 1.149.058.574.656.574.188.574.34.574 1.745.574.55 1.148-.093.574.269.574.785.574.058.574-1.042 1.149.094.574.023.574 1.57.574-.633.574.48.574-.175 1.722-.059.574-1.23.574.387.574.199.574 1.02.575.222 1.148.011.574-.878.574.093.574-.292.574-.832.574-.305h1.148l.574.809.574-.832 1.148.246.575-.223 1.722.094.574.62.574-.292.574-.55 1.722-.07.574-.739.574.211.574-.433.575.187.574-.351 1.148.093.574.738 1.148-.75.574.024.574.21h1.148l.574-.995.574-.527.574.234.575-.468 1.722-.094.574.187 1.722-.89.574-.281 2.296.059.575.456 1.722.024h.574l1.148.597.574-.363.574-.023.574.187 1.722-.07.574.527.575 2.155.574-.433.574.234h1.148l.574.317.574 1.722.574-3.175.574.68.574-.223h1.148l.574.234.575-1.406.574 1.804 1.148.785 1.722.106.574.129.574-1.324 1.148-.047h1.148l.574-.656.575.223.574 1.452.574.281 1.722-.023.574.328h0" clip-path="url(#p3cae5074ca)" style="fill:none;stroke:#d8b009;stroke-width:1.5;stroke-linecap:square" id="line2d_28"/><path d="m49.83 284.4 29.278-.07 2.296-.328 2.87-.727 1.149-.34 1.148-.655.574-.773.574-.235.574-.785.574-.187.574-.644 1.148-2.039.574-.55.574-.844.574.223.575-.68.574-.316 1.148-1.792.574-.668.574-1.289.574-1.71.574-.105.574-.235 1.148 1.043.574-2.776 1.149-3.468.574-1.417.574-2.25 1.148-6.923.574-.796.574-.387.574.047.574-.715.574.012.574-1.066.574-2.577.574-1.277.574-4.932.575-3.397.574-2.073 1.148-5.284.574-1.51 1.148-3.433.574-.715.574.13.574-2.402 1.722-10.883.575-.797.574-4.053.574-2.366.574.093.574.89.574.176 1.148-2.659 1.148 4.323.574-.164.574-3.643.574-1.558.574-3.749 1.149 1.453.574-.059.574-1.43.574 2.016.574-.516 1.148 5.565.574-.656.574-1.851.574 1.16.574-1.629.574.621.575.34.574-3.854.574-1.464.574.597.574.023.574-.867.574.95.574.69.574 2.097.574-.574.574-.128.574.468.574 1.043.574.21.575-.925.574-2.577.574-.34 1.148.855.574.2.574-1.02.574.434.574-.996.574 1.5.574-.692.574-1.757.574.07.575-1.253.574-.902.574 2.05.574 1.03.574-1.065.574.785 1.148-.457.574-.164.574-.492.574-2.987.574 1.487.574.973.574.69 1.149 2.438.574-1.195.574 1.85.574.668.574.973.574-1.172.574-1.956.574-.281.574 2.132.574 1.335.574-.527.574-2.19 1.149 4.053.574-.188.574.914.574 1.218.574-.21.574-.083.574-1.85.574.245.574.059.574-.515.574-1.23.574 1.546.574.855.575 1.745.574.985.574 2.952.574 2.366.574-.808.574.632.574.89.574.621.574-1.464.574 1.382h.574l.574 3.433.574-.668.575 3.83.574 7.322.574.55.574-1.253.574.012.574-1.91.574.621.574-1.616.574-6.525.574 2.284.574 1.23.574.234.574 1.008.574.632.575-.093.574 3.374.574.351.574.867.574.07.574-.48.574.14.574.879 1.148-1.335.574.257.574 1.968.574 1.57.575-.223.574-.023.574.562.574 3.011.574.445h.574l.574.633.574.937.574 2.331.574 5.06.574-.081.574-.926.574.13.574 1.393.575.504.574-1.546.574-3.163.574 1.886.574 3.62.574.937.574.328.574.023.574.281.574 1.43.574.784.574-.539.574-.117.575 1.113.574.352.574 1.604.574 2.788.574-1.335.574-.61.574 3.539.574.75.574.152.574-.246.574 1.054.574.515 1.148-7.438.575-5.928.574.586.574-.832.574-5.623.574-2.108.574 3.315.574.738.574 4.416.574-.445.574-1.148.574.597.574 1.535 1.149-1.242.574-2.19.574-.645.574.047 1.722-1.933 1.148-2.6.574-1.254.574-.867.574-1.323.574-2.039.574-.093.575.199.574-.352.574.528.574-1.031.574-1.594.574-1.03.574-3.421.574-1.828.574.211.574-1.452 1.148-.973.574-.28 1.149 7.45.574 4.252.574.96.574.27.574-.96 1.148-5.951.574.152.574.035.574.305.574-.692.574-1.604.574-.164.575-5.881 1.148-15.557.574-2.097.574 1.242.574.738.574-.387.574 4.264.574-.632.574-.059.574-.714.574.175.574-.41.575-1.534.574-2.261.574.75.574-1.535.574-.515.574-2.507.574.058.574.691.574-1.066.574-.187.574-.55.574.316.574.784.574-1.241 1.149 3.502.574-1.92.574 2.986.574.926.574-1.148.574-.633 1.148-3.842.574.363.574-1.03.574-1.922.574 1.289.575 2.612.574 2.015.574.035.574-1.3.574-.07.574.55.574-1.172 1.148-6.138.574-1.593.574-.14.574-2.59.574-1.956.574-1.37 1.149-8.95.574-2.73.574-4.346.574-2.788 1.148-7.251.574-2.695.574-6.243 1.148-9.313.574-5.46.574.329.575-2.484.574-10.531.574-3.28 1.148-12.453.574-4.826.574-2.074 1.148-6.63.574 4.03.574.82.574-10.004.574-12.195.574-3.924.575-4.803.574-5.951.574-18.837.574-11.726.574 8.305.574 17.572.574 3.983.574 1.183.574-4.838.574 2.975.574-5.775.574-11.14.574-5.494.575-7.205.574 2.355.574 3.643.574 2.647.574 7.697.574 4.861.574-5.845.574 3.924.574-.527.574 4.803.574 2.905.574 16.869.574 3.456.574 1.3.575 2.202.574 4.405.574 3.116.574 2.167.574-11.492.574 2.12.574 6.163.574.796.574 2.987.574 1.195.574 2.823.574 5.81.574 7.908.575 1.85.574 4.03.574.165.574 8.598.574 2.226.574 3.034.574-.012.574.95.574-1.63.574.305.574-2.413.574.95.574-2.742.574.714.575 3.222.574 2.015 1.148 5.74.574.433.574 4.803.574-3.514.574-2.519.574-.28.574-1.22.574-1.756.574-.527.574 2.19.575 14.468.574 3.174.574.387.574-2.144.574-3.678.574 1.359.574-6.924.574-11.55.574-3.561.574-2.812.574 1.511.574-.433.574-3.632.574 2.238.575-3.503.574-2.706.574 1.043.574.457.574 6.817.574 5.12.574 3.233.574 5.482.574 8.06 1.148 6.76.574 1.932.574 2.355.575 1.241.574 1.547.574-1.394.574-.586.574-.879.574 2.097.574 5.611.574 2.402 1.148 10.332.574 2.413.574.082.574 1.172.574.574.575 1.382.574.972.574-1.323.574.984.574 1.335.574 3.28.574 1.593.574 2.085.574 1.149.574 2.225.574.024.574.503.574 1.055.575.316.574 1.054.574 4.756.574 1.547.574.75.574.948.574.61.574 3.526.574 2.518.574-.867.574-.585 1.148.726.574-.363.575.316.574 1.289.574.784.574 1.02h.574l.574 1.1.574 2.04.574.643 1.148-.105.574 3.526.574.656.574-.035.575 2.753.574 1.206.574 1.781.574.89.574-.21.574.644.574 1.16.574-.258.574 2.226 1.148 1.956.574-.106.574.082.574 1.148 1.149 11.738.574-.492.574 1.219 1.148-.692.574-.75.574-4.111.574-6.466.574 1.886.574-.024.574.972.574.598.575.222.574.06.574 1.592.574.399.574-.492.574.538.574-.21.574.831.574-1.687.574-.187.574.246.574 2.226.574 1.007.574.469.575-.117 1.722 4.967.574-1.64.574.445.574.878.574-.035.574 5.963.574 4.264.574-1.687.574 1.44.574-.573.575.27.574.058 1.148-4.65.574 1.24.574.704.574 1.347.574.105.574-.058.574-.281.574-.422.574 1.09.574.456.574 1.57.575-.164.574 1.218 1.148 5.81.574-.714.574.305.574-1.02.574.739.574-.2.574-.656.574-.925.574 2.273.574-2.8 1.149.011.574.586.574.762.574-1.266.574-.374.574 4.486.574 1.172.574-.363.574-.656.574-1.781.574 1.242.574-.188.574-.785.575-.234 1.148.281.574-.363.574.035.574 1.078 1.148 1.78.574.106.574-.164.574.761.574.328.574-.046.575.07.574 1.09.574-.13.574 1.02.574 1.733.574-.68.574.903.574.351.574-.995.574.316.574-.445.574.492.574 1.78.574-.035.575.41.574 1.254 1.148.316.574-1.289.574.34.574-.328.574.914.574-.024.574.141 1.148-.082.574 1.37.575 1.805 1.148-1.933.574-3.28.574-.504.574.469.574-1.57.574-2.214 1.148-1.406.574 2.577.574-.422 2.297-8.2.574-1.71.574-.996.574-1.347.574-1.968.574-3.116 1.148-8.235.574-4.499.574-1.183.574-2.026.574-3.21 1.149-8.013.574-2.155 1.148-3.152.574.082 1.148-8.938.574.973.574-1.933.574-.574.574 1.077.574-.538 1.149 6.208.574-1.675.574-.644.574.28.574-.82.574 1.782.574 1.265.574.48.574.832.574 4.58 1.148 3.643.574 1.02 1.723 19.176.574 1.113.574-.07 1.148.703.574-2.812.574-3.526.574-.504.574 2.753.574 3.55.574 1.136.574.14.575 1.933.574 3.28.574 1.77.574.679.574 1.171.574.223.574 1.148.574-1.043.574.844 1.148 3.49.574 1.172.574-.082.575.375.574 1.511.574.234.574.715.574.14 1.148 1.863.574-1.078 1.148 1.547.574.058.574 1.101 1.148.106.575 1.136.574.598.574.363.574 1.277.574.445.574.785.574.187.574-.012.574.469.574-1.171 1.148 1.253 1.149-.422.574-.105.574-.223.574.246.574-.257.574-1.57.574-.398.574.234.574-.152.574.609.574 2.085.574-.27.574-.117.574.61.575.035.574.398.574-1.242.574-.726.574.152.574.668.574-.668.574-.386.574-.164.574 2.319 1.148 2.929.574-4.311.575 1.1.574-1.03.574.34.574-2.788.574-1.547.574.95.574 4.298.574-.866.574.843.574-.305.574.914.574.082.574-2.46.574 1.148 1.149 1.57.574-.082 1.148-3.76.574-.164 1.148-2.847.574-.422h.574l.574 1.558.574-.468 1.723 5.002.574.421.574-4.662.574-.644.574 2.331 1.148-8.188h1.148l.574 1.932.574-1.019.574 1.64.574-2.378.575.586.574-1.85.574-.622.574 2.12.574-.937.574-4.229.574 3.34.574.21.574-.668.574-.035.574-.304.574.609 1.149-.387.574-.527 1.148.129.574-.235.574-.105 1.722 1.09.574 2.401.574-1.675.574-.129.574.023.574.422.575.047.574.422.574-2.027.574 1.992.574-.258 1.148 1.183.574.047.574.258.574-.094.574-.34.574.363.574-.82.575 3.105.574-2.507.574-.293.574 2.12.574.668.574-1.57.574 1.863.574-2.894.574 3.151.574 1.23h1.148l.574 1.324.574 2.413.575-3.28.574.574.574-.257h1.148l.574-.399.574-2.682.574 4.838.574 1.839.574-1.558h1.148l.574.726.575 2.683.574 1.335h.574l.574-1.066h1.148l.574.914 1.722-3.573.574 4.545h1.148l.574-1.593 1.149 2.566.574-1.957.574-.855h1.148l.574 1.593h0" clip-path="url(#p3cae5074ca)" style="fill:none;stroke:#42537f;stroke-width:1.5;stroke-linecap:square" id="line2d_29"/><g style="fill:#7516fd" transform="matrix(.14 0 0 -.14 624.57 248.342)" id="text_18"><defs><path id="DejaVuSans-55" d="M556 4666h635V1831q0-750 271-1080 272-329 882-329 606 0 878 329 272 330 272 1080v2835h634V1753q0-912-452-1378Q3225-91 2344-91q-885 0-1337 466-451 466-451 1378v2913z" transform="scale(.01563)"/><path id="DejaVuSans-53" d="M3425 4513v-616q-359 172-678 256-319 85-616 85-515 0-795-200t-280-569q0-310 186-468 186-157 705-254l381-78q706-135 1042-474t336-907q0-679-455-1029Q2797-91 1919-91q-331 0-705 75-373 75-773 222v650q384-215 753-325 369-109 725-109 540 0 834 212 294 213 294 607 0 343-211 537t-692 291l-385 75q-706 140-1022 440-315 300-315 835 0 619 436 975t1201 356q329 0 669-60 341-59 697-177z" transform="scale(.01563)"/></defs><use xlink:href="#DejaVuSans-55"/><use xlink:href="#DejaVuSans-53" x="73.193"/></g><g style="fill:#5feb16" transform="matrix(.14 0 0 -.14 624.57 262.342)" id="text_19"><defs><path id="DejaVuSans-52" d="M2841 2188q203-69 395-294t386-619L4263 0h-679l-596 1197q-232 469-449 622t-592 153h-688V0H628v4666h1425q800 0 1194-335 394-334 394-1009 0-441-205-732-205-290-595-402zM1259 4147V2491h794q456 0 689 211t233 620q0 409-233 617t-689 208h-794z" transform="scale(.01563)"/><path id="DejaVuSans-75" d="M544 1381v2119h575V1403q0-497 193-746 194-248 582-248 465 0 735 297 271 297 271 810v1984h575V0h-575v538q-209-319-486-474-276-155-642-155-603 0-916 375-312 375-312 1097zm1447 2203z" transform="scale(.01563)"/><path id="DejaVuSans-73" d="M2834 3397v-544q-243 125-506 187-262 63-544 63-428 0-642-131t-214-394q0-200 153-314t616-217l197-44q612-131 870-370t258-667q0-488-386-773Q2250-91 1575-91q-281 0-586 55T347 128v594q319-166 628-249 309-82 613-82 406 0 624 139 219 139 219 392 0 234-158 359-157 125-692 241l-200 47q-534 112-772 345-237 233-237 639 0 494 350 762 350 269 994 269 318 0 599-47 282-46 519-140z" transform="scale(.01563)"/><path id="DejaVuSans-69" d="M603 3500h575V0H603v3500zm0 1363h575v-729H603v729z" transform="scale(.01563)"/><path id="DejaVuSans-61" d="M2194 1759q-697 0-966-159t-269-544q0-306 202-486 202-179 548-179 479 0 768 339t289 901v128h-572zm1147 238V0h-575v531q-197-318-491-470T1556-91q-537 0-855 302-317 302-317 808 0 590 395 890 396 300 1180 300h807v57q0 397-261 614t-733 217q-300 0-585-72-284-72-546-216v532q315 122 612 182 297 61 578 61 760 0 1135-394 375-393 375-1193z" transform="scale(.01563)"/></defs><use xlink:href="#DejaVuSans-52"/><use xlink:href="#DejaVuSans-75" x="64.982"/><use xlink:href="#DejaVuSans-73" x="128.361"/><use xlink:href="#DejaVuSans-73" x="180.461"/><use xlink:href="#DejaVuSans-69" x="232.561"/><use xlink:href="#DejaVuSans-61" x="260.344"/></g><g style="fill:#53a577" transform="matrix(.14 0 0 -.14 624.57 276.342)" id="text_20"><defs><path id="DejaVuSans-4a" d="M628 4666h631V325q0-844-320-1225T-91-1281h-240v531h197q418 0 590 235 172 234 172 840v4341z" transform="scale(.01563)"/><path id="DejaVuSans-70" d="M1159 525v-1856H581v4831h578v-531q182 312 458 463 277 152 661 152 638 0 1036-506 399-506 399-1331T3314 415Q2916-91 2278-91q-384 0-661 152-276 152-458 464zm1957 1222q0 634-261 995t-717 361q-457 0-718-361t-261-995q0-634 261-995t718-361q456 0 717 361t261 995z" transform="scale(.01563)"/><path id="DejaVuSans-6e" d="M3513 2113V0h-575v2094q0 497-194 743-194 247-581 247-466 0-735-297-269-296-269-809V0H581v3500h578v-544q207 316 486 472 280 156 646 156 603 0 912-373 310-373 310-1098z" transform="scale(.01563)"/></defs><use xlink:href="#DejaVuSans-4a"/><use xlink:href="#DejaVuSans-61" x="29.492"/><use xlink:href="#DejaVuSans-70" x="90.771"/><use xlink:href="#DejaVuSans-61" x="154.248"/><use xlink:href="#DejaVuSans-6e" x="215.527"/></g><g style="fill:#d8b009" transform="matrix(.14 0 0 -.14 624.57 290.342)" id="text_21"><defs><path id="DejaVuSans-47" d="M3809 666v1253H2778v519h1656V434q-365-259-806-392-440-133-940-133-1094 0-1712 639-617 640-617 1780 0 1144 617 1783 618 639 1712 639 456 0 867-113 411-112 758-331v-672q-350 297-744 447t-828 150q-857 0-1287-478-429-478-429-1425 0-944 429-1422 430-478 1287-478 334 0 596 58 263 58 472 180z" transform="scale(.01563)"/><path id="DejaVuSans-65" d="M3597 1894v-281H953q38-594 358-905t892-311q331 0 642 81t618 244V178Q3153 47 2828-22t-659-69q-838 0-1327 487-489 488-489 1320 0 859 464 1363 464 505 1252 505 706 0 1117-455 411-454 411-1235zm-575 169q-6 471-264 752-258 282-683 282-481 0-770-272t-333-766l2050 4z" transform="scale(.01563)"/><path id="DejaVuSans-72" d="M2631 2963q-97 56-211 82-114 27-251 27-488 0-749-317t-261-911V0H581v3500h578v-544q182 319 472 473 291 155 707 155 59 0 131-8 72-7 159-23l3-590z" transform="scale(.01563)"/><path id="DejaVuSans-6d" d="M3328 2828q216 388 516 572t706 184q547 0 844-383 297-382 297-1088V0h-578v2094q0 503-179 746-178 244-543 244-447 0-707-297-259-296-259-809V0h-578v2094q0 506-178 748t-550 242q-441 0-701-298-259-298-259-808V0H581v3500h578v-544q197 322 472 475t653 153q382 0 649-194 267-193 395-562z" transform="scale(.01563)"/><path id="DejaVuSans-79" d="M2059-325q-243-625-475-815-231-191-618-191H506v481h338q237 0 368 113 132 112 291 531l103 262L191 3500h609L1894 763l1094 2737h609L2059-325z" transform="scale(.01563)"/></defs><use xlink:href="#DejaVuSans-47"/><use xlink:href="#DejaVuSans-65" x="77.49"/><use xlink:href="#DejaVuSans-72" x="139.014"/><use xlink:href="#DejaVuSans-6d" x="178.377"/><use xlink:href="#DejaVuSans-61" x="275.789"/><use xlink:href="#DejaVuSans-6e" x="337.068"/><use xlink:href="#DejaVuSans-79" x="400.447"/></g><g style="fill:#42537f" transform="matrix(.14 0 0 -.14 624.57 304.342)" id="text_22"><defs><path id="DejaVuSans-42" d="M1259 2228V519h1013q509 0 754 211 246 211 246 645 0 438-246 645-245 208-754 208H1259zm0 1919V2741h935q462 0 688 173 227 174 227 530 0 353-227 528-226 175-688 175h-935zm-631 519h1613q722 0 1112-300 391-300 391-853 0-429-200-682t-588-315q466-100 724-418 258-317 258-792 0-625-425-966Q3088 0 2303 0H628v4666z" transform="scale(.01563)"/><path id="DejaVuSans-7a" d="M353 3500h2731v-525L922 459h2162V0H275v525l2163 2516H353v459z" transform="scale(.01563)"/><path id="DejaVuSans-6c" d="M603 4863h575V0H603v4863z" transform="scale(.01563)"/></defs><use xlink:href="#DejaVuSans-42"/><use xlink:href="#DejaVuSans-72" x="68.604"/><use xlink:href="#DejaVuSans-61" x="109.717"/><use xlink:href="#DejaVuSans-7a" x="170.996"/><use xlink:href="#DejaVuSans-69" x="223.486"/><use xlink:href="#DejaVuSans-6c" x="251.27"/></g></g></g><defs><clipPath id="p3cae5074ca"><path d="M49.83 7.2h558v277.2h-558z"/></clipPath></defs></svg>