<svg xmlns:xlink="http://www.w3.org/1999/xlink" width="992.186" height="416.199" viewBox="0 0 744.14 312.149" xmlns="http://www.w3.org/2000/svg"><defs><style>*{stroke-linejoin:round;stroke-linecap:butt}</style></defs><g id="figure_1"><path d="M0 312.15h744.14V0H0v312.15z" style="fill:none" id="patch_1"/><g id="axes_1"><path d="M49.83 284.4h558V7.2h-558v277.2z" style="fill:none" id="patch_2"/><g id="matplotlib.axis_1"><g id="xtick_1"><g id="line2d_1"><defs><path id="m4a80114e38" d="M0 0v3.5" style="stroke:#b0b0b0;stroke-width:.4"/></defs><use xlink:href="#m4a80114e38" x="88.354" y="284.4" style="fill:#b0b0b0;stroke:#b0b0b0;stroke-width:.4"/></g><g style="fill:#b0b0b0" transform="matrix(.14 0 0 -.14 59.106 302.038)" id="text_1"><defs><path id="DejaVuSans-32" d="M1228 531h2203V0H469v531q359 372 979 998 621 627 780 809 303 340 423 576 121 236 121 464 0 372-261 606-261 235-680 235-297 0-627-103-329-103-704-313v638q381 153 712 231 332 78 607 78 725 0 1156-363 431-362 431-968 0-288-108-546-107-257-392-607-78-91-497-524-418-433-1181-1211z" transform="scale(.01563)"/><path id="DejaVuSans-30" d="M2034 4250q-487 0-733-480-245-479-245-1442 0-959 245-1439 246-480 733-480 491 0 736 480 246 480 246 1439 0 963-246 1442-245 480-736 480zm0 500q785 0 1199-621 414-620 414-1801 0-1178-414-1799Q2819-91 2034-91q-784 0-1198 620-414 621-414 1799 0 1181 414 1801 414 621 1198 621z" transform="scale(.01563)"/><path id="DejaVuSans-2d" d="M313 2009h1684v-512H313v512z" transform="scale(.01563)"/><path id="DejaVuSans-34" d="M2419 4116 825 1625h1594v2491zm-166 550h794V1625h666v-525h-666V0h-628v1100H313v609l1940 2957z" transform="scale(.01563)"/></defs><use xlink:href="#DejaVuSans-32"/><use xlink:href="#DejaVuSans-30" x="63.623"/><use xlink:href="#DejaVuSans-32" x="127.246"/><use xlink:href="#DejaVuSans-30" x="190.869"/><use xlink:href="#DejaVuSans-2d" x="254.492"/><use xlink:href="#DejaVuSans-30" x="290.576"/><use xlink:href="#DejaVuSans-34" x="354.199"/></g></g><g id="xtick_2"><use xlink:href="#m4a80114e38" x="143.131" y="284.4" style="fill:#b0b0b0;stroke:#b0b0b0;stroke-width:.4" id="line2d_2"/><g style="fill:#b0b0b0" transform="matrix(.14 0 0 -.14 113.883 302.038)" id="text_2"><defs><path id="DejaVuSans-37" d="M525 4666h3000v-269L1831 0h-659l1594 4134H525v532z" transform="scale(.01563)"/></defs><use xlink:href="#DejaVuSans-32"/><use xlink:href="#DejaVuSans-30" x="63.623"/><use xlink:href="#DejaVuSans-32" x="127.246"/><use xlink:href="#DejaVuSans-30" x="190.869"/><use xlink:href="#DejaVuSans-2d" x="254.492"/><use xlink:href="#DejaVuSans-30" x="290.576"/><use xlink:href="#DejaVuSans-37" x="354.199"/></g></g><g id="xtick_3"><use xlink:href="#m4a80114e38" x="198.51" y="284.4" style="fill:#b0b0b0;stroke:#b0b0b0;stroke-width:.4" id="line2d_3"/><g style="fill:#b0b0b0" transform="matrix(.14 0 0 -.14 169.262 302.038)" id="text_3"><defs><path id="DejaVuSans-31" d="M794 531h1031v3560L703 3866v575l1116 225h631V531h1031V0H794v531z" transform="scale(.01563)"/></defs><use xlink:href="#DejaVuSans-32"/><use xlink:href="#DejaVuSans-30" x="63.623"/><use xlink:href="#DejaVuSans-32" x="127.246"/><use xlink:href="#DejaVuSans-30" x="190.869"/><use xlink:href="#DejaVuSans-2d" x="254.492"/><use xlink:href="#DejaVuSans-31" x="290.576"/><use xlink:href="#DejaVuSans-30" x="354.199"/></g></g><g id="xtick_4"><use xlink:href="#m4a80114e38" x="253.888" y="284.4" style="fill:#b0b0b0;stroke:#b0b0b0;stroke-width:.4" id="line2d_4"/><g style="fill:#b0b0b0" transform="matrix(.14 0 0 -.14 224.64 302.038)" id="text_4"><use xlink:href="#DejaVuSans-32"/><use xlink:href="#DejaVuSans-30" x="63.623"/><use xlink:href="#DejaVuSans-32" x="127.246"/><use xlink:href="#DejaVuSans-31" x="190.869"/><use xlink:href="#DejaVuSans-2d" x="254.492"/><use xlink:href="#DejaVuSans-30" x="290.576"/><use xlink:href="#DejaVuSans-31" x="354.199"/></g></g><g id="xtick_5"><use xlink:href="#m4a80114e38" x="308.063" y="284.4" style="fill:#b0b0b0;stroke:#b0b0b0;stroke-width:.4" id="line2d_5"/><g style="fill:#b0b0b0" transform="matrix(.14 0 0 -.14 278.815 302.038)" id="text_5"><use xlink:href="#DejaVuSans-32"/><use xlink:href="#DejaVuSans-30" x="63.623"/><use xlink:href="#DejaVuSans-32" x="127.246"/><use xlink:href="#DejaVuSans-31" x="190.869"/><use xlink:href="#DejaVuSans-2d" x="254.492"/><use xlink:href="#DejaVuSans-30" x="290.576"/><use xlink:href="#DejaVuSans-34" x="354.199"/></g></g><g id="xtick_6"><use xlink:href="#m4a80114e38" x="362.84" y="284.4" style="fill:#b0b0b0;stroke:#b0b0b0;stroke-width:.4" id="line2d_6"/><g style="fill:#b0b0b0" transform="matrix(.14 0 0 -.14 333.592 302.038)" id="text_6"><use xlink:href="#DejaVuSans-32"/><use xlink:href="#DejaVuSans-30" x="63.623"/><use xlink:href="#DejaVuSans-32" x="127.246"/><use xlink:href="#DejaVuSans-31" x="190.869"/><use xlink:href="#DejaVuSans-2d" x="254.492"/><use xlink:href="#DejaVuSans-30" x="290.576"/><use xlink:href="#DejaVuSans-37" x="354.199"/></g></g><g id="xtick_7"><use xlink:href="#m4a80114e38" x="418.218" y="284.4" style="fill:#b0b0b0;stroke:#b0b0b0;stroke-width:.4" id="line2d_7"/><g style="fill:#b0b0b0" transform="matrix(.14 0 0 -.14 388.97 302.038)" id="text_7"><use xlink:href="#DejaVuSans-32"/><use xlink:href="#DejaVuSans-30" x="63.623"/><use xlink:href="#DejaVuSans-32" x="127.246"/><use xlink:href="#DejaVuSans-31" x="190.869"/><use xlink:href="#DejaVuSans-2d" x="254.492"/><use xlink:href="#DejaVuSans-31" x="290.576"/><use xlink:href="#DejaVuSans-30" x="354.199"/></g></g><g id="xtick_8"><use xlink:href="#m4a80114e38" x="473.597" y="284.4" style="fill:#b0b0b0;stroke:#b0b0b0;stroke-width:.4" id="line2d_8"/><g style="fill:#b0b0b0" transform="matrix(.14 0 0 -.14 444.349 302.038)" id="text_8"><use xlink:href="#DejaVuSans-32"/><use xlink:href="#DejaVuSans-30" x="63.623"/><use xlink:href="#DejaVuSans-32" x="127.246"/><use xlink:href="#DejaVuSans-32" x="190.869"/><use xlink:href="#DejaVuSans-2d" x="254.492"/><use xlink:href="#DejaVuSans-30" x="290.576"/><use xlink:href="#DejaVuSans-31" x="354.199"/></g></g><g id="xtick_9"><use xlink:href="#m4a80114e38" x="527.772" y="284.4" style="fill:#b0b0b0;stroke:#b0b0b0;stroke-width:.4" id="line2d_9"/><g style="fill:#b0b0b0" transform="matrix(.14 0 0 -.14 498.524 302.038)" id="text_9"><use xlink:href="#DejaVuSans-32"/><use xlink:href="#DejaVuSans-30" x="63.623"/><use xlink:href="#DejaVuSans-32" x="127.246"/><use xlink:href="#DejaVuSans-32" x="190.869"/><use xlink:href="#DejaVuSans-2d" x="254.492"/><use xlink:href="#DejaVuSans-30" x="290.576"/><use xlink:href="#DejaVuSans-34" x="354.199"/></g></g><g id="xtick_10"><use xlink:href="#m4a80114e38" x="582.548" y="284.4" style="fill:#b0b0b0;stroke:#b0b0b0;stroke-width:.4" id="line2d_10"/><g style="fill:#b0b0b0" transform="matrix(.14 0 0 -.14 553.3 302.038)" id="text_10"><use xlink:href="#DejaVuSans-32"/><use xlink:href="#DejaVuSans-30" x="63.623"/><use xlink:href="#DejaVuSans-32" x="127.246"/><use xlink:href="#DejaVuSans-32" x="190.869"/><use xlink:href="#DejaVuSans-2d" x="254.492"/><use xlink:href="#DejaVuSans-30" x="290.576"/><use xlink:href="#DejaVuSans-37" x="354.199"/></g></g></g><g id="matplotlib.axis_2"><g id="ytick_1"><path d="M49.83 284.4h558" clip-path="url(#p72e0c35cff)" style="fill:none;stroke:#b0b0b0;stroke-width:.3;stroke-linecap:square" id="line2d_11"/><g id="line2d_12"><defs><path id="mf4ee4d38a1" d="M0 0h-3.5" style="stroke:#b0b0b0;stroke-width:.3"/></defs><use xlink:href="#mf4ee4d38a1" x="49.83" y="284.4" style="fill:#b0b0b0;stroke:#b0b0b0;stroke-width:.3"/></g><use xlink:href="#DejaVuSans-30" style="fill:#b0b0b0" transform="matrix(.14 0 0 -.14 33.922 289.719)" id="text_11"/></g><g id="ytick_2"><path d="M49.83 243.555h558" clip-path="url(#p72e0c35cff)" style="fill:none;stroke:#b0b0b0;stroke-width:.3;stroke-linecap:square" id="line2d_13"/><use xlink:href="#mf4ee4d38a1" x="49.83" y="243.555" style="fill:#b0b0b0;stroke:#b0b0b0;stroke-width:.3" id="line2d_14"/><g style="fill:#b0b0b0" transform="matrix(.14 0 0 -.14 16.108 248.874)" id="text_12"><defs><path id="DejaVuSans-35" d="M691 4666h2478v-532H1269V2991q137 47 274 70 138 23 276 23 781 0 1237-428 457-428 457-1159 0-753-469-1171Q2575-91 1722-91q-294 0-599 50Q819 9 494 109v635q281-153 581-228t634-75q541 0 856 284 316 284 316 772 0 487-316 771-315 285-856 285-253 0-505-56-251-56-513-175v2344z" transform="scale(.01563)"/></defs><use xlink:href="#DejaVuSans-35"/><use xlink:href="#DejaVuSans-30" x="63.623"/><use xlink:href="#DejaVuSans-30" x="127.246"/></g></g><g id="ytick_3"><path d="M49.83 202.71h558" clip-path="url(#p72e0c35cff)" style="fill:none;stroke:#b0b0b0;stroke-width:.3;stroke-linecap:square" id="line2d_15"/><use xlink:href="#mf4ee4d38a1" x="49.83" y="202.709" style="fill:#b0b0b0;stroke:#b0b0b0;stroke-width:.3" id="line2d_16"/><g style="fill:#b0b0b0" transform="matrix(.14 0 0 -.14 7.2 208.028)" id="text_13"><use xlink:href="#DejaVuSans-31"/><use xlink:href="#DejaVuSans-30" x="63.623"/><use xlink:href="#DejaVuSans-30" x="127.246"/><use xlink:href="#DejaVuSans-30" x="190.869"/></g></g><g id="ytick_4"><path d="M49.83 161.864h558" clip-path="url(#p72e0c35cff)" style="fill:none;stroke:#b0b0b0;stroke-width:.3;stroke-linecap:square" id="line2d_17"/><use xlink:href="#mf4ee4d38a1" x="49.83" y="161.864" style="fill:#b0b0b0;stroke:#b0b0b0;stroke-width:.3" id="line2d_18"/><g style="fill:#b0b0b0" transform="matrix(.14 0 0 -.14 7.2 167.183)" id="text_14"><use xlink:href="#DejaVuSans-31"/><use xlink:href="#DejaVuSans-35" x="63.623"/><use xlink:href="#DejaVuSans-30" x="127.246"/><use xlink:href="#DejaVuSans-30" x="190.869"/></g></g><g id="ytick_5"><path d="M49.83 121.019h558" clip-path="url(#p72e0c35cff)" style="fill:none;stroke:#b0b0b0;stroke-width:.3;stroke-linecap:square" id="line2d_19"/><use xlink:href="#mf4ee4d38a1" x="49.83" y="121.019" style="fill:#b0b0b0;stroke:#b0b0b0;stroke-width:.3" id="line2d_20"/><g style="fill:#b0b0b0" transform="matrix(.14 0 0 -.14 7.2 126.337)" id="text_15"><use xlink:href="#DejaVuSans-32"/><use xlink:href="#DejaVuSans-30" x="63.623"/><use xlink:href="#DejaVuSans-30" x="127.246"/><use xlink:href="#DejaVuSans-30" x="190.869"/></g></g><g id="ytick_6"><path d="M49.83 80.173h558" clip-path="url(#p72e0c35cff)" style="fill:none;stroke:#b0b0b0;stroke-width:.3;stroke-linecap:square" id="line2d_21"/><use xlink:href="#mf4ee4d38a1" x="49.83" y="80.173" style="fill:#b0b0b0;stroke:#b0b0b0;stroke-width:.3" id="line2d_22"/><g style="fill:#b0b0b0" transform="matrix(.14 0 0 -.14 7.2 85.492)" id="text_16"><use xlink:href="#DejaVuSans-32"/><use xlink:href="#DejaVuSans-35" x="63.623"/><use xlink:href="#DejaVuSans-30" x="127.246"/><use xlink:href="#DejaVuSans-30" x="190.869"/></g></g><g id="ytick_7"><path d="M49.83 39.328h558" clip-path="url(#p72e0c35cff)" style="fill:none;stroke:#b0b0b0;stroke-width:.3;stroke-linecap:square" id="line2d_23"/><use xlink:href="#mf4ee4d38a1" x="49.83" y="39.328" style="fill:#b0b0b0;stroke:#b0b0b0;stroke-width:.3" id="line2d_24"/><g style="fill:#b0b0b0" transform="matrix(.14 0 0 -.14 7.2 44.647)" id="text_17"><defs><path id="DejaVuSans-33" d="M2597 2516q453-97 707-404 255-306 255-756 0-690-475-1069Q2609-91 1734-91q-293 0-604 58T488 141v609q262-153 574-231 313-78 654-78 593 0 904 234t311 681q0 413-289 645-289 233-804 233h-544v519h569q465 0 712 186t247 536q0 359-255 551-254 193-729 193-260 0-557-57-297-56-653-174v562q360 100 674 150t592 50q719 0 1137-327 419-326 419-882 0-388-222-655t-631-370z" transform="scale(.01563)"/></defs><use xlink:href="#DejaVuSans-33"/><use xlink:href="#DejaVuSans-30" x="63.623"/><use xlink:href="#DejaVuSans-30" x="127.246"/><use xlink:href="#DejaVuSans-30" x="190.869"/></g></g></g><path d="m49.83 284.4 21.068-.082 3.01-.151 1.204-.012 1.203-.117 1.806-.21 1.204-.665 1.204-1.365 1.806-3.618.602-1.867.602-2.404.602-3.186.602-4.027.602-4.854.602-7.12.601-4.982.602-6.069 1.204-20.48.602-13.001 1.806-33.248.602-12.079.602-17.47.602-10.48 1.806-23.142 1.204-6.021.602 1.202.601-5.229.602.362.602 1.074.602 2.217.602-1.062.602-3.034.602-.105.602 1.529.602-2.696.602-.864.602 2.474.602 6.699.602 8.928.602 2.777.602.875 1.204 5.649.601-.105.602 2.369.602 1.424.602.268.602.817.602 3.22.602 1.6.602 3.232.602 2.37.602 3.769 1.204 14.226.602 1.657.602 1.237.602 3.139.602 1.984.602-2.16.601 1.681.602 2.708.602 6.827.602 5.38.602 1.435.602 2.206.602 7.27.602 9.196.602.28 1.806 3.595.602.233.602-2.065.602-3.781.602 5.461.602.98.601 2.766.602 3.665.602 1.925.602 3.058.602.735.602 1.622.602 2.194.602.677.602-.957 1.204 2.567 1.204 2.988.602 1.354 1.204 4.003 1.805 1.132.602-.082.602 1.774.602.046.602.794.602-.082.602.094.602 2.17.602.642.602-2.217.602-.549.602 2.276 1.204.035.602-6.874.602-1.645.602-3.466.601-1.646.602-5.24.602-1.773.602-.759.602 2.86.602-1.424.602.805.602-1.19.602-1.588.602-.058.602-1.132.602-2.217.602-3.058.602-1.435.602-2.008.602-.98.602-.677.601-6.745.602-1.506 1.204-4.936.602-1.085.602-1.728.602.876.602 6.395.602-.479.602.362.602 1.307.602-1.283.602.385.602-1.296.602.467.602 2.02.602-1.145.601 1.67.602-.164.602.513.602-.466.602.583.602-1.692.602 9.651.602-.7.602 2.486.602.933.602 1.284.602.537.602.128.602-5.532.602-.093.602 1.984.602-.012.601.724.602-.654.602 1.798 1.204 2.229.602-.28.602 1.867.602.058.602 1.902.602 7.026.602-.584.602 1.33.602-2.24.602.735.602.502.602-1.179.602-8.53.601 1.937.602.7.602 2.17.602.91.602 1.506.602.129.602 1.995.602-1.295.602-.479.602.549.602-1.19.602-.444.602.875 1.204 3.174.602-.07.602.876.601 1.108.602-.793.602-1.587.602 2.322.602.047.602-.922.602-1.54.602.163.602-1.039.602.91 1.204-1.89.602 1.715.602.467.602-1.517.602.012.602-1.039 1.203-3.851.602-.105.602-.257.602-1.995.602.151.602-.385.602-.817.602 1.739.602-1.762.602-1.272.602.408 1.204-1.027.602-6.908.602-1.167 1.805-5.929.602-.723.602-2.358.602 2.16.602-3.665.602-.467.602.117 1.204-5.45.602-.712.602-3.466.602-5.718 1.204-18.323 1.806-9.452.601-5.018.602-3.712.602 7.283.602 4.54.602 3.337.602.21.602-2.883.602-4.854.602-6.804.602-18.042 1.204-24.46.602-4.155.602-2.93.602-.244.602-4.097.602-.338.601-8.916.602-1.459.602-3.092.602-1.074.602-4.738 1.204-12.009.602 5.112.602-3.454.602-.607.602-1.657.602-3.746.602 4.014.602 6.139.602 16.536.602 10.48.602 3.174.601-.864.602-3.71.602-5.929.602-4.306 1.204-15.918.602.07.602-1.296.602.199.602-.269.602-8.53.602-22.477 1.204-15.86.602 1.704.602-9.056.602-1.167.601 2.812.602 4.097.602-3.793.602 1.167.602 3.14.602 23.118 1.204-8.485 1.204.794.602 1.716.602-2.334.602-18.45 1.204 7.2.602 2.392.602 7.726.602-1.214.601-.047.602 5.193.602 2.544.602-.91.602-1.167.602 1.622.602 5.614.602 3.84 1.204 11.482 1.204 18.183.602 5.403.602 3.618.602 5.858.602 16.396.602 11.332.601 6.874 1.204 7.889.602-.63.602-3.023.602-7.457.602-9.5.602 1.903 1.204 9.196.602 1.423.602-1.33.602 4.143.602 8.11 1.204 10.55h.602l.601 4.528.602 7.084.602 1.774.602 11.518 1.204 7.924.602 6.29.602 2.183.602.047.602 5.928.602 4.05.602-.946.602 4.587.602 2.369.602-2.264.602 1.797.602 3.653.601-3.128.602 3.35.602-1.506.602-.409.602 3.128.602-.91.602.583.602 4.587 1.204 5.998.602.618.602 1.53.602 1.96.602.77.602-17.902.602 1.12.602-.268.601-.023 1.204.42.602-.432.602 19.524.602 1.167 1.204 1.097.602-.723.602-.502.602.268.602.525.602-.338.602 1.319.602-.642.602.56.602.14.601 2.007.602-1.108.602.606.602-.606.602.151.602-.221.602-.012.602-2.45.602 1.901.602 1.027.602.549.602 1.319.602.758.602 1.015.602 2.276 1.204.759 1.203 2.742 1.204-.198.602-1.074.602 1.412.602.91.602.105.602.479.602.864.602-.479.602 1.494.602-3.805.602-7.854.602 1.016.602 1.68.602.537.602 3.058.601.198.602 5.018.602 8.414.602.117.602-2.8.602-.176.602-1.68.602 3.652.602.91.602 2.58.602-.14.602 3.594.602.677.602 1.54.602-.105 1.204 2.58.601-.852.602 1.155.602.373.602-.875 1.204-.432.602-.537.602.922.602.234h.602l.602 1.318.602.106.602 1.132.602.676.602 1.062.602.736 1.805 1.178.602-.291.602.443.602-.385.602.082.602-.91.602-1.331.602-.677h.602l.602-1.249 1.204.269 1.204.817.602.817.602-.397.601.793.602-1.202.602-.607.602-.14.602-.781.602-1.891.602-.128.602-.409.602-3.816.602-.432.602-1.435.602-1.027.602-1.506 1.204-4.283.602-2.929.602-1.073.601 1.132.602-2.066 1.204-5.893.602-5.975.602.945.602-.07.602-.922.602-5.882.602-2.124.602-4.82.602-8.752.602-4.715.602-3.478.602-.081.602-3.536 1.805-13.69.602-3.337.602-.945.602-1.202.602-4.447.602-.198.602-5.812.602-9.324.602-2.24.602.023.602-1.19.602 12.661.602-7.422.602-3.186.602-2.567.602-6.162.602-2.24.601.524.602-17.972.602 1.88.602-5.03.602-2.86.602.059.602-1.833.602-.245.602-1.657.602-6.255.602.63.602 1.95.602-.223.602 1.786.602-2.1.602.49.602-.736.601.735.602 5.754.602 3.793.602.035.602.501.602 3.98.602 7.41.602-.361 1.204 7.842.602 4.668.602.607.602 8.66.602-4.89.602-6.36.602 3.64.602-.023.601-1.506.602.175.602-6.955.602 3.956.602.28.602 1.914.602-.537.602.187.602 2.38.602 3.525.602 4.4.602 13.07 1.806 5.45.602.28.602 2.311.601 3.49.602 1.12.602 7.375.602-4.703.602-1.073 1.204.595.602-1.774.602 3.244.602 3.91.602-3.863.602-1.144.602.047.602-.549.602 1.179.602.42.602-5.555.601 7.737.602 1.33.602-.22.602.42.602-.514.602-.735.602 10.234.602 16.56.602 1.669.602-.315.602-7.784.602-3.198.602-4.05.602-40.016.602-14.12.602-4.284.602-1.657.602 6.057.601.875.602 2.72.602 27.237.602-2.59.602.77.602.408.602.082.602.245.602-5.053.602 3.139 1.204-1.179.602.642.602-2.019.602-4.843.602-22.64.602-1.132.601 13.444.602 5.03.602-.584.602-2.497.602-4.376.602 21.461.602-1.085.602-.315.602-1.89.602-.374.602-.56.602.28.602 1.878.602-6.885.602-19.57.602-5.229 1.203-4.47.602-2.287.602-7.364.602-5.205.602-4.107 1.204-3.571.602 11.576.602-1.96.602-7.89.602-4.737.602-7.27.602-.024.602.362.602-13.304.602-6.186.602-4.072.601 3.559.602-8.543.602-2.182.602 2.813.602-5.369.602-1.913.602 3.057.602 1.832.602.152.602 3.303.602.128.602-5.146.602 4.457.602 1.751.602-9.394.602 16.338.602 1.027 1.203-2.941.602 4.54.602 2.987.602 3.77.602 2.357 1.204 3.127.602 26.643.602 5.1.602.84.602-.128.602 4.913.602-.887.602 2.498.602-14.39.602 4.517.601 11.915.602 14.634.602 4.038.602 5.287.602.128 1.204 9.464.602.782.602-.688.602.933.602.362.602.222 1.204 8.297.602 2.078.602 3.069.602 9.826.602-.105.601 1.249.602-2.393.602 6.092.602 2.334.602 7.55.602 2.23.602 1.552.602.303.602 5.835.602-4.901.602 5.613.602 4.003.602-2.462 1.204-.082 1.204 10.655.601.467.602-3.595.602 2.23.602.15.602.398.602 2.94.602-1.178.602 1.038.602 1.448.602 3.15.602.024.602.175.602.91 1.204 3.665.602 3.209.602-2.194.601 1.074 1.204-.572 1.204 2.415.602.234.602 1.529.602-.747.602.093.602-.035.602-4.948.602-13.397.602 1.167.602.583.602-.828.602-.047.602.478.601 4.925.602 11.95.602 2.93.602 2.065.602 1.494.602-.105.602.07.602-.7.602-.409.602-3.15.602-2.475.602-.186.602-.07.602.128.602.513.602-1.283.602-.175.601-1.704 1.204.782.602 2.299.602-.07.602 4.738.602.198.602 1.914.602-1.354.602-.151.602-2.836.602-1.529.602-6.255 1.204.618.602.537 1.203.023.602 1.436.602 5.742.602-1.74.602.526.602.863.602-.256.602 2.229.602-1.039.602-1.797.602.618 1.204-2.765.602.385.602-2.498.602-1.388.602 1.517.602 7.854.601-.607.602 1.249.602.116.602 2.591.602 1.47.602-.361.602-16.128.602-.456.602-.046.602-.245.602-4.435.602-1.505.602-2.556.602 8.589.602.537.602-.129.602-.303.601.082.602-.712.602.992.602-1.576.602-.933.602-.059 1.204.666.602 1.085.602-.595.602 1.19.602-.688.602.42.602.163.602-1.657.602.338.602-1.68.601-2.52.602-.853 1.204-.07.602 1.389.602-.817.602 2.1.602-.023.602.479h0" clip-path="url(#p72e0c35cff)" style="fill:none;stroke:#7516fd;stroke-width:1.5;stroke-linecap:square" id="line2d_25"/><path d="m49.83 284.4 30.699-.07 2.408-.327 3.01-.723 1.203-.339 1.204-.653.602-.77.602-.234.602-.782.602-.187.602-.641 1.204-2.031.602-.548.602-.84.602.221.602-.677.602-.315 1.203-1.785.602-.666.602-1.283.602-1.704.602-.105.602-.234 1.204 1.039.602-2.766 1.204-3.454.602-1.412.602-2.24.602-3.805.602-3.093.602-.794.602-.385.601.047.602-.712.602.012.602-1.062.602-2.568.602-1.272.602-4.913.602-3.384.602-2.066 1.204-5.263.602-1.505 1.204-3.42.602-.712.602.129.602-2.393 1.805-10.841.602-.794.602-4.037.602-2.358.602.094.602.886.602.175 1.204-2.649 1.204 4.307.602-.164.602-3.63.602-1.551.602-3.735 1.203 1.447.602-.058.602-1.424.602 2.008.602-.514 1.204 5.543.602-.653.602-1.844.602 1.155.602-1.622.602.619.602.338.602-3.84.602-1.458.602.595.601.023.602-.863.602.945.602.689.602 2.089.602-.572.602-.129.602.467.602 1.039.602.21.602-.922.602-2.567.602-.339 1.204.852.602.198.602-1.015.602.432.601-.992.602 1.494.602-.689.602-1.75.602.07.602-1.249.602-.899.602 2.043.602 1.027.602-1.062.602.782 1.204-.456.602-.163.602-.49.602-2.976.602 1.482.601.969.602.688 1.204 2.428.602-1.19.602 1.843.602.665.602.969.602-1.167.602-1.949.602-.28.602 2.124.602 1.33.602-.525.602-2.182 1.204 4.038.601-.187.602.91.602 1.214.602-.21.602-.082.602-1.844.602.245.602.059.602-.514.602-1.225.602 1.54.602.852.602 1.74.602.98.602 2.94.602 2.358.602-.806.601.63.602.887.602.619.602-1.459.602 1.377h.602l.602 3.42.602-.666.602 3.817.602 7.293.602.549.602-1.249.602.012.602-1.902.602.618.602-1.61.602-6.5.601 2.275.602 1.225.602.234.602 1.003.602.63.602-.093.602 3.361.602.35.602.864.602.07.602-.478.602.14.602.875 1.204-1.33.602.256.602 1.96.601 1.565.602-.222.602-.024.602.56.602 3 .602.443h.602l.602.63.602.934.602 2.322.602 5.042.602-.082.602-.922.602.129.602 1.388.602.502.602-1.54.602-3.151.601 1.879.602 3.606.602.933.602.327.602.024.602.28.602 1.423.602.782.602-.537.602-.116.602 1.108.602.35.602 1.6.602 2.777.602-1.33.602-.607.602 3.524.601.747.602.152.602-.246.602 1.05.602.514 1.204-7.41.602-5.905.602.583.602-.828.602-5.602.602-2.1.602 3.302.602.735.602 4.4.602-.444.602-1.143.601.595.602 1.529 1.204-1.237.602-2.183.602-.642.602.047 1.806-1.925 1.204-2.591.602-1.249.602-.863.602-1.32.602-2.03.602-.093.601.198.602-.35.602.525.602-1.027.602-1.587.602-1.027.602-3.407.602-1.821.602.21.602-1.447 1.204-.969.602-.28 1.204 7.422.602 4.237.602.957.601.268.602-.957 1.204-5.928.602.151.602.035.602.304.602-.689.602-1.599.602-.163.602-5.858 1.204-15.498.602-2.09.602 1.238.602.735.602-.385.601 4.248.602-.63.602-.059.602-.711.602.175.602-.409.602-1.529.602-2.252.602.747.602-1.529.602-.513.602-2.498.602.059.602.688.602-1.062.602-.187.602-.548.602.315.601.782.602-1.237 1.204 3.49.602-1.915.602 2.976.602.922.602-1.144.602-.63 1.204-3.828.602.362.602-1.027.602-1.914.602 1.284.602 2.603.602 2.007.601.035.602-1.296.602-.07.602.549.602-1.167 1.204-6.115.602-1.587.602-.14.602-2.58.602-1.948.602-1.366 1.204-8.916.602-2.719.602-4.33.602-2.777 1.203-7.224.602-2.684.602-6.22 1.204-9.278.602-5.438.602.327.602-2.474.602-10.492.602-3.267 1.204-12.406.602-4.808.602-2.065 1.204-6.606.601 4.015.602.817.602-9.967.602-12.148.602-3.91.602-4.784.602-5.929.602-18.765.602-11.682.602 8.274.602 17.505.602 3.968.602 1.179.602-4.82.602 2.964.602-5.753.602-11.099.601-5.473.602-7.177.602 2.346.602 3.63.602 2.637.602 7.667.602 4.843.602-5.823.602 3.91.602-.526.602 4.785.602 2.894.602 16.805.602 3.442.602 1.296.602 2.194.602 4.388.601 3.104.602 2.159.602-11.448.602 2.112.602 6.138.602.794.602 2.976.602 1.19.602 2.813.602 5.788.602 7.877.602 1.844.602 4.015.602.163.602 8.566.602 2.217.602 3.023.602-.012.601.946.602-1.623.602.304.602-2.404.602.945.602-2.73.602.711.602 3.21.602 2.007.602 2.602.602 3.116.602.432.602 4.785.602-3.501.602-2.51.602-.28.602-1.213.601-1.75.602-.526.602 2.182.602 14.413.602 3.162.602.386.602-2.136.602-3.664.602 1.353.602-6.897.602-11.506.602-3.548.602-2.801.602 1.505.602-.431.602-3.618.602 2.229.601-3.49.602-2.695.602 1.038.602.456.602 6.792.602 5.1.602 3.22.602 5.462.602 8.029 1.204 6.734.602 1.925.602 2.346.602 1.237.602 1.54.602-1.388.602-.584.601-.875.602 2.089.602 5.59.602 2.392 1.204 10.293.602 2.404.602.082.602 1.167.602.572.602 1.377.602.968.602-1.318.602.98.602 1.33.602 3.268.602 1.587.601 2.077.602 1.144.602 2.217.602.024.602.502.602 1.05.602.315.602 1.05.602 4.738.602 1.54.602.748.602.945.602.607.602 3.513.602 2.509.602-.864.602-.584 1.203.724.602-.362.602.315.602 1.284.602.782.602 1.015h.602l.602 1.097.602 2.03.602.643 1.204-.105.602 3.512.602.654.602-.035.602 2.742.602 1.202.601 1.774.602.887.602-.21.602.642.602 1.155.602-.256.602 2.217 1.204 1.949.602-.105.602.081.602 1.144.602 6.465.602 5.229.602-.49.602 1.213 1.203-.688.602-.747.602-4.097.602-6.441.602 1.878.602-.023.602.969.602.595.602.222.602.058.602 1.587.602.397.602-.49.602.537.602-.21.602.828.602-1.68.601-.187.602.245.602 2.217.602 1.004.602.467.602-.117 1.806 4.948.602-1.634.602.444.602.875.602-.035.602 5.94.602 4.248.602-1.68.602 1.435.601-.572.602.269.602.058 1.204-4.633.602 1.237.602.7.602 1.342.602.105.602-.058.602-.28.602-.42.602 1.085.602.455.602 1.564.602-.163.602 1.213 1.203 5.789.602-.712.602.303.602-1.015.602.735.602-.198.602-.654.602-.922.602 2.264.602-2.789 1.204.012.602.583.602.759.602-1.26.602-.374.601 4.47.602 1.167.602-.362.602-.654.602-1.774.602 1.237.602-.186.602-.782.602-.234 1.204.28.602-.361.602.035.602 1.073 1.204 1.774.602.105.602-.163.601.759.602.326.602-.046.602.07.602 1.085.602-.128.602 1.015.602 1.727.602-.677.602.899.602.35.602-.992.602.315.602-.443.602.49.602 1.774.602-.035.601.408.602 1.249 1.204.315.602-1.284.602.338.602-.326.602.91.602-.023.602.14 1.204-.082.602 1.365.602 1.798 1.204-1.926.602-3.268.601-.501.602.466.602-1.563.602-2.206 1.204-1.4.602 2.567.602-.42 1.806-6.232 1.204-3.641.602-.992.602-1.342.602-1.96.602-3.105 1.203-8.204.602-4.481.602-1.179.602-2.019.602-3.198 1.204-7.982.602-2.147 1.204-3.14.602.082 1.204-8.904.602.969.602-1.926.602-.572.601 1.074.602-.537 1.204 6.185.602-1.669.602-.642.602.28.602-.816.602 1.774.602 1.26.602.478.602.829.602 4.563 1.204 3.63.602 1.015 1.805 19.104.602 1.108.602-.07 1.204.7.602-2.8.602-3.513.602-.502.602 2.743.602 3.536.602 1.132.602.14.602 1.925.602 3.268.602 1.762.602.677.602 1.167.601.222.602 1.143.602-1.038.602.84 1.204 3.478.602 1.167.602-.082.602.373.602 1.506.602.233.602.712.602.14 1.204 1.856.602-1.074 1.203 1.54.602.059.602 1.097 1.204.105.602 1.132.602.595.602.362.602 1.272.602.443.602.782.602.187.602-.012.602.467.602-1.167.602.549.602.7 1.203-.42.602-.105.602-.222.602.245.602-.257.602-1.564.602-.396.602.233.602-.152.602.607.602 2.077.602-.268.602-.117.602.607.602.035.602.397.601-1.237.602-.724.602.152.602.665.602-.665.602-.385.602-.163.602 2.31 1.204 2.918.602-4.295.602 1.097.602-1.027.602.339.602-2.778.602-1.54.602.945.601 4.283.602-.864.602.84.602-.303.602.91.602.082.602-2.45.602 1.143 1.204 1.564.602-.082 1.204-3.746.602-.163 1.204-2.836.602-.42h.601l.602 1.552.602-.467 1.806 4.983.602.42.602-4.644.602-.642.602 2.322 1.204-8.157h1.204l.602 1.925.602-1.015.602 1.634.602-2.37.601.584.602-1.844.602-.618.602 2.112.602-.933.602-4.213.602 3.326.602.21.602-.665.602-.036.602-.303.602.607 1.204-.385.602-.525 1.204.128.601-.233.602-.105 1.806 1.085.602 2.392.602-1.669.602-.128.602.023.602.42.602.047.602.42.602-2.019.602 1.984.602-.256 1.204 1.178.601.047.602.257.602-.094.602-.338.602.362.602-.817.602 3.092.602-2.497.602-.292h0" clip-path="url(#p72e0c35cff)" style="fill:none;stroke:#42537f;stroke-width:1.5;stroke-linecap:square" id="line2d_26"/><path d="m49.83 284.4 25.883-.093 3.01-.14 3.01.07 2.408.011 8.427-.233 3.612-.455 1.805-.234 1.806-.315.602-.163 2.408-.117 3.01.152.602-.234 1.805-.175 3.01.549 1.204.175 1.204-.21 1.806-.035 1.204.152 1.203.221 3.01.362 11.437.572 3.01-.035.602-.175 2.407.035 1.204-.047.602.222 2.408.035 3.612.058 3.01-.023 10.232-.082 1.806-.058 1.204.035 4.214-.245 3.01-.082 2.407-.362 1.204-.105 1.204-.058 3.01.082 3.01-.187 2.407.093 1.204.105 1.806-.046.602.093 1.204-.023 2.407.093.602-.012 1.204.129 1.204.093.602.082h1.204l2.408-.047 3.01-.012 1.203.082 5.418.14 1.204-.14 1.806.012.601.023.602-.093 1.806.035 1.204-.094 1.806.082.602-.117 7.223-.105.602-.093 3.01.023 1.204-.151 1.204-.105 1.203-.024 1.204-.175.602-.198 1.204-.128 1.806-.596 1.806-.338 1.204-.327 1.204-.187 1.203.164.602-.07.602.128 3.612-.653.602-.187 1.806.012 1.806-.456 3.01-.186 1.203.362.602-.234.602.035.602-.198 1.204-.245 1.204-.666.602.176h.602l.602.14.602-.374 3.01-.152.601-.466.602.058 1.806-.992 3.01-.467.602.14 2.407-.443.602-.35.602.105 1.204-.152.602.152.602-.035.602.291.602-.011.602.303.602.502.602.338 1.204.28.602-.081.602.49 1.203-.012 1.204-.291.602.198.602.548 1.204.14.602-.163.602.432.602.233.602.059.602-.129 1.204.152.602.292 1.203.081 1.806.257.602.257 2.408-.058.602.011 1.204.28 1.204.665 1.806.129.601.257 1.204.058 1.204-.257.602.047.602.233.602-.326 1.204.233 1.204.478 1.806.397 1.204-.14.601-.222 1.204-.116.602-.187 1.204-.163 1.204-.385 1.806-.07 1.204-.269 1.204-.268.602-.409.602-.058.601-.21.602-.012.602-.42.602.198.602-.338 1.204-.28.602.152.602-.105.602.151.602-1.272 1.204-.081.602-.257.602-.735 1.204-.957.602.782.601-.094.602.21.602-.595.602-1.202.602.105.602-.047.602-.361.602.128.602-.175.602.432.602 1.307 1.204-.385.602.198.602-.093 1.204.21 1.805.163.602.105.602.315 1.806.07.602.199.602.466.602.269 1.204.315.602.175.602.373 1.805.642.602.315.602.14 1.806.817.602.059.602.198.602-.012.602.117.602-.035 6.621 1.692 1.204-.023.602.187.602.046 1.204-.128.602.117 2.408-.164h.602l.601.187 3.01.21.602.14 1.204-.105 4.816-.175 2.407-.233.602-.187 2.408-.292.602-.327 3.612-.7.602.059 1.203-.456.602-.245.602-.093.602-.292 1.204-.42.602-.303 1.806-.444.602.21 1.204.094 1.806-.526.602.047 1.203-.222 1.204.257.602.292.602.047 1.204-.082.602.303.602.094 3.01 1.202 1.204-.094 4.213.549.602.257.602.035.602-.14 2.408.303.602-.082.602.07.602.269.601.128h1.204l.602.023 1.204.467 1.806.28 2.408.374 1.806-.059 1.805.082 3.612.315 3.01.199 1.806-.012 4.213.023 3.01.07 27.087-.081 1.204-.164 1.204-.011 1.806-.269.602.023 1.806-.443.602-.385.602-.222 1.203-.852 2.408-1.155 1.806-1.75.602-.864.602-.444.602-.758 1.204-1.972.602-.864.602-.549.602-.338.601-.805.602-.42 1.204-1.692.602-1.25 1.204-1.551 1.204-.537.602-1.004.602-.186.602.758.602-.794.602-.443.602.175.602-.292.602.98.601.129.602-.607.602.514.602.84.602.14.602.91.602-.128.602.257.602.816.602.292 1.204.992.602.047 1.204 1.295.602.199.602.618.602.432.601.28.602.677.602 1.365 1.806 1.482 1.806.012.602-.117 1.806 1.016.602.536 1.204.549.602.198 1.203.736 1.204.175.602-.059 3.01.595.602.012 1.204.222.602-.058.602.21h.602l1.805.431 1.806-.42 1.806.455.602-.221 1.204.221.602.467.602.245.602.094.602-.152.602.093 1.203.012 1.204-.409 4.214.07 1.204-.116.602.081 1.204-.093.602.082.602-.07.601.07 1.204-.07 3.01.49.602.152 1.806.186.602.175h.602l1.806.304h1.203l1.204.012 1.204-.024 1.204.082 1.204.233 3.01.199.602-1.062 3.611-.035.602 1.027 1.204.046 1.806-.186 1.204-.047 1.204-.432 1.806-.175 1.203-.105 1.806-.677.602-.642.602-.093.602-.338 1.204-1.903 1.204-1.587.602-.303 1.204-1.202.602-.327 1.203-1.015.602-1.074.602-.595 1.204-1.47.602-1.576.602-.957.602-.525.602.047h0" clip-path="url(#p72e0c35cff)" style="fill:none;stroke:#53a577;stroke-width:1.5;stroke-linecap:square" id="line2d_27"/><path d="m49.83 284.4 27.087-.105 2.408-.782 3.01-1.984.602-.618 1.204-3.35.602-1.575 1.204-5.73.601-2.066 1.204-6.477 2.408-21.834.602-4.552.602-2.252.602-8.216.602-4.178 1.204-9.896.602-1.027.602-.642.602-1.832.602.35.601 1.739.602.922.602 2.439.602-3.093.602 2.603.602 1.774.602-1.716.602.304.602 4.166.602-1.214.602 3.42.602.816 1.204 5.894.602 1.015.602.56.602 3.723.601 2.684.602 1.284.602.572.602 2.847.602 1.424.602 2.065.602 1.39.602 3.64.602.432.602 1.004.602 1.295.602 2.334.602 1.214.602 2.672.602-1.587.602 1.75.602.49 1.203 2.732.602.933.602.689.602 2.229.602-3.641.602.49.602 4.306.602-1.097.602-.805.602.21.602.77.602 3.723.602.21.602-1.377.602 1.96.602 2.475 1.203.315.602.07.602.455.602.63.602 1.05.602.642.602 1.482 1.204.735.602.21.602.876.602.63.602.105 1.204.969.602-.059.601.175 1.204.572.602-.373.602.081.602.362 1.204-.07.602.467.602-.117.602.677.602.327 2.408.35.602.467 1.203.292 1.204.291 1.204.129.602.361 2.408.245h.602l1.204.327.602.175 1.806-.105 1.203.129.602-.199 1.806.269 1.806.093.602.233.602-.21 1.806.21.602-.198.602.058 1.203-.07 1.806.012.602.175 1.204.047 1.204.245.602-.175 3.01-.14.602-.082 3.611.35 2.408-.023.602-.339 3.01.07.602-.07.602.059 1.805-.467 1.204-.362 1.204-.14 1.806-.502 1.204-.081.602-.024 1.204-.805.602-.222.602-.373 1.805-.42 1.806-.245.602-.245 1.806-1.11 1.806-2.275.602-.572.602-.805.602-.023.602-.35.602-1.144 1.203-1.225.602-1.027.602-.28.602-.98.602-.257 1.204-2.86.602-1.062.602-.583.602-1.774.602-.128 1.204-.747.602-2.124 1.204-2.09.601-1.014.602.07.602-.689.602-1.575.602-1.214.602-2.159.602-.245.602-.572 1.204-.362.602-.782 1.204 1.494.602-1.575.602 1.423.602-2.695.602.081.601-.105.602-1.937.602.047.602-.105.602-1.622.602 2.147 1.204.105.602.548.602.98.602.187.602.957.602-.186.602.163.602.047.602 1.342.602-1.19.601.933.602-1.435.602 1.015.602-.514.602 1.086.602-.922.602-.187.602-.758.602-.175.602-2.16.602.21.602-2.158.602-1.564.602-.502.602-.957.602 3.77.602-.21.601-1.658.602 2.72.602-2.743.602-4.551.602-.502.602-2.743.602-1.26.602-.584.602-4.89.602-.746.602-2.346 1.204-15.241 1.204-2.743.602-4.282.602-6.116.601-1.015.602.502.602-3.046.602-1.33.602-.852.602-4.295.602-3 .602-.5.602-1.343.602-.607.602.817.602.093.602-.28.602 1.167.602.666 1.204 3.5.602.246 1.203 4.353.602 4.714.602 3.77.602 2.73.602 4.377.602 2.509.602.864.602 4.644.602 3.735 1.806 8.157 1.204 2.52 2.407 11.286.602 2.042 1.204 1.144 1.204 6.395.602 1.529 1.204 3.99 1.204 1.716.602 2.393.602-.525.602.957 1.204 2.824.601.723.602.455.602 1.308.602 3.466 1.204 1.412 1.204.782.602.011.602 1.412.602.572 1.204 1.89 1.204.514.602.537.602-.023 1.203.875 1.806.933.602-.058 1.204 1.307 1.204.362.602.56.602.128.602-.058.602.409 1.806-.14.601-.35.602.034.602.152.602-.035.602.082 1.204.56 1.806.117.602-.117 1.204.338.602-.081 1.204.035.602-.012.601.187 1.204-.164 1.204.584 1.204.035 1.806.292 1.204.035.602.14.602-.047.602-.163.602.186 1.805-.035 1.204-.023 1.204.245 3.01.175 1.806-.198 2.408-.024.601.176 4.816-.269.602.128 1.806-.105 5.417-.303 1.204-.14 2.408-.222 1.806.094.602-.105 1.204.011 1.203-.233 1.204-.385.602-.035 1.204-.315.602.035 1.204-.35.602-.362 1.204-.374.602-.023.602-.152.602-.607 1.203-.466.602-.175.602-.479 1.204.058.602-.338.602-.63 1.204-.129.602.199.602-.432 1.204-.222 1.204.082 1.204-.677.601.234 1.204-.222.602.152 1.204-.129.602.105.602-.163.602.117.602-.28.602-.036 1.204-.396.602-.105.602.116.602-.163.602-.047 1.203-.782.602.164.602-.35 1.204-.222.602 1.435.602-.665.602-.432.602-.233.602.163.602-.081.602.035.602-1.856 1.204.303 1.204-.723.601.14.602-.187.602.269.602-.105.602.093.602-.397 1.204-.163.602.128.602-.198.602.385.602-.42.602.011.602.409.602-.023.602.116.602.315.601.094 1.204 1.283.602.059.602.245h.602l2.408.443.602-.385 1.204.199.602-.21.602.14.602-.42.602-.222.601.105 1.204-.42 1.204-.957.602.49.602-.42.602.151.602-.175.602.059 1.806-1.377.602-.07.602-.362 1.204-.058.601-.339.602-.093.602-.619.602-.07 1.204.269.602-.164.602.339.602.011.602.234.602.56 1.204-.047.602.117.602.572.602.175.602-.012.601-.163 1.204.116.602.024 1.806 1.785.602-.011 1.204.338 1.204.175.602-.28 2.408.245.602-.117.601-.233.602.128.602-.07.602.28 1.204-.035.602.07.602.35h1.204l1.204.199.602.058.602-.058.602-.257.602.269.602-.047.601-.315.602 1.354.602.513.602-1.155.602 1.785.602.969.602-2.17.602-.76.602-1.691.602-.817.602 1.167.602-.362.602-3.326.602 1.202.602-.304.602-1.878 1.203-.677.602-3.84.602-.7.602-1.214.602-.548.602.327.602.105.602-.199.602-.688.602.49.602.035 1.204-.257.602.129.602.431.602-.046.602.175.601-.105 1.204.128 1.204-.117.602-7.924.602-2.205 1.204.443.602.409 1.204.256.602 9.406.602 2.941.602 1.354.602.7.602 1.097.601.269.602.128 1.204 1.902 1.204.712.602.455.602-.257.602.059 1.204.758.602.7.602.456.602 1.494.602.863.602-1.237.602-.747.601 1.05.602-.793.602.14 1.806-.035.602.642.602-.56.602.583 1.806-.047.602.035.602-.14.602-.35.602.059.602-.152h1.203l2.408-1.4.602-.526h1.204l1.204-1.237.602-.198.602-.385.602-.222 1.806.094.602-.794.601-31.906.602-1.482.602-1.82h1.204l.602-1.611.602.98.602 26.713.602-.35.602 4.05h1.204l.602 4.06.602-2.275.602 1.68 1.204-7.235 1.203-.012.602-3.98.602.374.602 2.45.602 4.657.602 1.202 1.204.012.602 3.98.602.525.602.875.602-2.217.602-.14h1.204l.602-2.475.601 1.413.602.245.602 2.94.602.97 1.204-.024.602.63.602 1.179.602.91.602.198.602.724 1.204.023 1.204 1.155.602.432.602.91.601.316 1.204-.024 1.204.584.602.035.602 1.05.602.7 1.204.024 1.204-.642.602.058.602-.957.602-.583h1.204l.601.7 1.204.934.602.256.602-.151h1.204l1.204-.304.602-.338.602-.199 2.408-.233.602-.14.602-.502.602-.082.601-.233h1.204l.602.98.602 1.354.602-2.136 1.204 2.008 2.408.011.602-6.547 3.611.012.602-3.373 3.612-.046.602-.887 3.612.035.602 1.4 3.611-.023.602.84 1.204.035h0" clip-path="url(#p72e0c35cff)" style="fill:none;stroke:#89f9c9;stroke-width:1.5;stroke-linecap:square" id="line2d_28"/><path d="m49.83 284.4 16.252-.082 3.612-.28.602-.163 1.204-.584 1.806-1.272.602-1.493.602-.922 1.203-3.606.602-1.728.602-2.345.602-1.622 3.01-13.783.602-4.4.602-7.212 1.204-6.243.602-4.645.602-2.427 1.204-6.734 1.203-2.346.602-2.462.602-1.097 1.204-1.074.602 1.786 3.01 12.055.602 1.75.602 2.288.602.724.602 1.097.602.816.602.024.601-.42.602.992.602-.059.602 1.6.602-.024.602 1.307.602.793.602 1.646.602.712.602 1.809.602.781.602 2.02.602 1.411.602 1.774.602 1.33 1.204 3.852.601-.689.602 1.004 1.204 3.314.602-.537.602.129.602.303.602 3.268 1.204.292.602.747.602 2.03.602.14.602.012.602.478.602.234.602.933.601.117.602.397 1.204 2.544.602.397.602 1.108.602.082.602.98.602.514.602 1.003.602.502.602.094.602-.292 1.806 1.179.602-.21.601.023.602.455.602.257.602-.059.602-.28h.602l1.204.747.602-.07.602.105 1.806 1.307.602-.152.602.106 1.204.571.601.035.602.187.602.864.602.373.602.198.602.479.602.023.602.199.602-.059.602-.606.602.046.602.175.602-.151.602.175 1.806-.035.602.21.601.035.602.163 1.204-.082.602.152.602.023 1.204-.081.602-.082 1.204.07 1.204.07 1.806.292.602-.024 1.805.176.602.081 2.408-.163.602.07 1.204-.082.602.07.602-.093 1.806.152h1.805l.602-1.693 1.806-.011 1.204.035.602-.07.602 1.809 3.01-.082 4.815-.012.602-.175 3.612-.21.602.117 3.611-.024 1.204-.303 1.806-.187 1.204-.233 1.204.058.602.012.602-.117 1.806-.035 1.203-.128 1.204-.047.602-.14 1.204-.035 1.204-.117 1.204-.42.602-.14.602-.712 1.806-1.027.602-.396.602-.56.601-.98.602-.62.602-.42.602-1.213 1.204-1.482.602-1.54 1.204-1.856.602-1.26.602-1.705 1.204-2.007 1.204-3.256 1.204-5.345 1.805-4.364.602-2.65.602-3.162.602-2.427 1.204-2.603.602-2.509 1.806-5.006.602-.199 1.204-3.466.602-.186 1.203-2.895.602.362.602-1.972.602-1.494.602.07.602.245.602-.49.602.794.602.443.602-1.996.602.152.602.28.602-.268 1.204 3.443.602 2.159.602 1.237.601.618.602.152.602.933.602.432 1.204-4.586.602 2.38 1.204 2.136.602 1.54.602.888.602 2.544.602 1.482.602 2.077.602 2.51.602 3.407.602.548 1.805-.968.602-.584.602-.035.602-1.202.602-.49.602 1.132.602.117.602.315.602 1.645.602-1.844.602-1.388.602-.164.602-1.167 1.204.864.601-1.26.602 1.668.602.094.602-.187.602.828.602.152.602-.198 1.204.07.602-.152.602.91.602-.501 1.204 1.388.602.339.602-.059 1.204 1.506.601 1.062.602.49.602-.105.602.829.602 1.167.602.42.602-.385.602.256.602.899.602 1.634.602.35 3.01 3.723.602-.386.601.514.602-.374.602.7 1.204-.314.602-.234 1.204 1.05.602 1.11.602-.34 1.204.794.602.152 1.204-.7.602-.514.602-.315.601-.175.602-.84.602-.385.602.175.602-.397.602-.969.602-.116.602-.665.602-.42.602-1.471.602-1.155.602-.584.602-.07.602-.98 3.01-2.136.601-.828.602.245.602.035.602-.362.602.257.602-.082.602-.478.602-.28.602.046.602-.338 1.204 2.672.602-1.867.602.163.602-2.766.601.374.602-.058 1.204-1.366.602 1.844.602 1.249.602 3.372.602.397.602.934.602.49.602 1.004.602 1.225.602.233.602 1.016.602-.14.602.396 1.805.607 1.204 1.762.602 1.12.602.853.602.525 1.204 1.692.602.35.602.654 1.204.081 1.204 1.307.602.059.602.665.602.292.601 1.027 1.204 1.213.602.584.602 1.319.602.431.602-.42.602.129 1.204.595 1.204.735.602-.082.602 1.074.602.49 1.204.654 1.203 1.54.602 1.307.602.619.602.303.602-.082.602.199 1.204-.28.602-.339 1.204.105 1.204.63.602.456.602.291.602.596 1.203.676 1.204.28 1.204.63.602.316 1.204-.385.602.035 2.408-.269 1.204.537 1.203-.012 1.204.327 3.612.56.602-.105.602.047.602.163 1.204.035 1.806.21 1.203-.14.602.094.602-.047 1.204-.338.602.07 9.03-.77 1.203-.386 1.806-.385.602-.443.602-.292 1.806-.222.602-.233.602-.07 1.805.303 1.806-.373 2.408-.665.602-.024.602-.14 3.612.035 1.203.362 1.204-.058 1.204-.14 1.204.163.602-.093 3.01.35.602-.21 1.805.058.602.14h.602l.602.292 1.806.397.602.28.602.116.602.257.602-.245 1.806.117 1.204.035.602-.14.601.373.602.035.602-.117.602-.245 1.806.129.602-.292h.602l1.204.42 1.204-.362 1.204.094.602-.024 1.203.199 1.806-.467 1.204.07.602-.14.602-.315.602.035 1.204-.292.602-.257 3.01-.49.601.234.602.046.602-.116.602-.304 2.408-.315.602-.478 1.806-.024.602-.21.602-.011.602-.269.602.175.602.047.602-.315.601-.117.602.198.602-.081.602-.514 1.204-.513.602-.07.602-.245 1.204-1.016.602-.023 1.204-.677 1.204-.84.602-.198.602-.526 1.203-.49.602.187.602-.058.602-.572 1.204.257.602-.164.602.385.602-.607.602.024.602-.665.602-1.11.602-.49 1.204-1.645.602-.28.601-1.015.602-.409.602-.956 1.204-2.976.602-1.447.602-1.062.602-.7.602-1.634 1.204-1.588.602-.151.602-.292.602.245.602-.759.602-.396.602-.549 1.203-.105.602-.513.602-.094.602.035 1.204.852.602-.292.602-.641 1.204.093.602.268 1.204.269 1.204 2.194.602 1.237 1.805 1.284.602 1.237.602.058 1.204.432.602.583 1.204 1.704.602.303.602.829.602 1.412.602.49 1.204-.105.602 1.039.601.443.602.747.602-.198 1.204.887.602.898 1.806 1.82.602.631.602.467.602.222 1.204.058.602.222.602.093.602-.105.602.56.601-.081.602.116 1.204-.385.602-.63.602.222.602-.385.602.128 1.204.513.602-.198.602.268 1.204-.221 1.204-.77.602-.199 1.203.35 1.204.315.602.327.602.117.602.291 1.204-.058.602.128.602-.245.602.059 1.204.91.602-.583.602-.199.602-.805.601-.117.602.07 1.204-.385.602.222.602.408.602.806.602.151 1.204-.665.602-.082.602.397.602-.082 1.204.292 1.204.852.601-.058.602.432 1.204.21.602.256.602.117.602-.21.602.117.602-.245 1.204.56h.602l1.204.583.602.619.602-.012.602.164.601-.339.602.292.602.082.602.21.602.338.602.91.602.175.602.91.602.222 1.204-.093.602-.047.602-.245 1.204-.198.602-.152.602.012.601.338.602-.035.602.374 1.204.361 1.204.269.602-.21.602.128 1.204-.152.602-.116.602.058.602-.303 1.806-.245.602.186 1.805-.665.602.047.602-.292.602-.14 1.806-1.144.602.152 1.204-1.529.602-.396.602-.129.602-.338.602-.21.602-.409.601.175.602-.221 1.204-1.203.602-.245 1.204-.035.602.094.602-.899 1.204-1.073.602-1.04 1.204-.127.602-.199.602.735 1.203.864.602.805.602-.432 1.806.35 1.806.934h0" clip-path="url(#p72e0c35cff)" style="fill:none;stroke:#1007e1;stroke-width:1.5;stroke-linecap:square" id="line2d_29"/><g style="fill:#7516fd" transform="matrix(.14 0 0 -.14 624.57 241.248)" id="text_18"><defs><path id="DejaVuSans-55" d="M556 4666h635V1831q0-750 271-1080 272-329 882-329 606 0 878 329 272 330 272 1080v2835h634V1753q0-912-452-1378Q3225-91 2344-91q-885 0-1337 466-451 466-451 1378v2913z" transform="scale(.01563)"/><path id="DejaVuSans-53" d="M3425 4513v-616q-359 172-678 256-319 85-616 85-515 0-795-200t-280-569q0-310 186-468 186-157 705-254l381-78q706-135 1042-474t336-907q0-679-455-1029Q2797-91 1919-91q-331 0-705 75-373 75-773 222v650q384-215 753-325 369-109 725-109 540 0 834 212 294 213 294 607 0 343-211 537t-692 291l-385 75q-706 140-1022 440-315 300-315 835 0 619 436 975t1201 356q329 0 669-60 341-59 697-177z" transform="scale(.01563)"/></defs><use xlink:href="#DejaVuSans-55"/><use xlink:href="#DejaVuSans-53" x="73.193"/></g><g style="fill:#42537f" transform="matrix(.14 0 0 -.14 624.57 255.248)" id="text_19"><defs><path id="DejaVuSans-42" d="M1259 2228V519h1013q509 0 754 211 246 211 246 645 0 438-246 645-245 208-754 208H1259zm0 1919V2741h935q462 0 688 173 227 174 227 530 0 353-227 528-226 175-688 175h-935zm-631 519h1613q722 0 1112-300 391-300 391-853 0-429-200-682t-588-315q466-100 724-418 258-317 258-792 0-625-425-966Q3088 0 2303 0H628v4666z" transform="scale(.01563)"/><path id="DejaVuSans-72" d="M2631 2963q-97 56-211 82-114 27-251 27-488 0-749-317t-261-911V0H581v3500h578v-544q182 319 472 473 291 155 707 155 59 0 131-8 72-7 159-23l3-590z" transform="scale(.01563)"/><path id="DejaVuSans-61" d="M2194 1759q-697 0-966-159t-269-544q0-306 202-486 202-179 548-179 479 0 768 339t289 901v128h-572zm1147 238V0h-575v531q-197-318-491-470T1556-91q-537 0-855 302-317 302-317 808 0 590 395 890 396 300 1180 300h807v57q0 397-261 614t-733 217q-300 0-585-72-284-72-546-216v532q315 122 612 182 297 61 578 61 760 0 1135-394 375-393 375-1193z" transform="scale(.01563)"/><path id="DejaVuSans-7a" d="M353 3500h2731v-525L922 459h2162V0H275v525l2163 2516H353v459z" transform="scale(.01563)"/><path id="DejaVuSans-69" d="M603 3500h575V0H603v3500zm0 1363h575v-729H603v729z" transform="scale(.01563)"/><path id="DejaVuSans-6c" d="M603 4863h575V0H603v4863z" transform="scale(.01563)"/></defs><use xlink:href="#DejaVuSans-42"/><use xlink:href="#DejaVuSans-72" x="68.604"/><use xlink:href="#DejaVuSans-61" x="109.717"/><use xlink:href="#DejaVuSans-7a" x="170.996"/><use xlink:href="#DejaVuSans-69" x="223.486"/><use xlink:href="#DejaVuSans-6c" x="251.27"/></g><g style="fill:#53a577" transform="matrix(.14 0 0 -.14 624.57 269.248)" id="text_20"><defs><path id="DejaVuSans-4a" d="M628 4666h631V325q0-844-320-1225T-91-1281h-240v531h197q418 0 590 235 172 234 172 840v4341z" transform="scale(.01563)"/><path id="DejaVuSans-70" d="M1159 525v-1856H581v4831h578v-531q182 312 458 463 277 152 661 152 638 0 1036-506 399-506 399-1331T3314 415Q2916-91 2278-91q-384 0-661 152-276 152-458 464zm1957 1222q0 634-261 995t-717 361q-457 0-718-361t-261-995q0-634 261-995t718-361q456 0 717 361t261 995z" transform="scale(.01563)"/><path id="DejaVuSans-6e" d="M3513 2113V0h-575v2094q0 497-194 743-194 247-581 247-466 0-735-297-269-296-269-809V0H581v3500h578v-544q207 316 486 472 280 156 646 156 603 0 912-373 310-373 310-1098z" transform="scale(.01563)"/></defs><use xlink:href="#DejaVuSans-4a"/><use xlink:href="#DejaVuSans-61" x="29.492"/><use xlink:href="#DejaVuSans-70" x="90.771"/><use xlink:href="#DejaVuSans-61" x="154.248"/><use xlink:href="#DejaVuSans-6e" x="215.527"/></g><g style="fill:#89f9c9" transform="matrix(.14 0 0 -.14 624.57 283.248)" id="text_21"><defs><path id="DejaVuSans-74" d="M1172 4494v-994h1184v-447H1172V1153q0-428 117-550t477-122h590V0h-590q-666 0-919 248-253 249-253 905v1900H172v447h422v994h578z" transform="scale(.01563)"/><path id="DejaVuSans-65" d="M3597 1894v-281H953q38-594 358-905t892-311q331 0 642 81t618 244V178Q3153 47 2828-22t-659-69q-838 0-1327 487-489 488-489 1320 0 859 464 1363 464 505 1252 505 706 0 1117-455 411-454 411-1235zm-575 169q-6 471-264 752-258 282-683 282-481 0-770-272t-333-766l2050 4z" transform="scale(.01563)"/><path id="DejaVuSans-64" d="M2906 2969v1894h575V0h-575v525q-181-312-458-464-276-152-664-152-634 0-1033 506-398 507-398 1332t398 1331q399 506 1033 506 388 0 664-152 277-151 458-463zM947 1747q0-634 261-995t717-361q456 0 718 361 263 361 263 995t-263 995q-262 361-718 361t-717-361q-261-361-261-995z" transform="scale(.01563)"/><path id="DejaVuSans-4b" d="M628 4666h631V2694l2094 1972h813L1850 2491 4331 0h-831L1259 2247V0H628v4666z" transform="scale(.01563)"/><path id="DejaVuSans-67" d="M2906 1791q0 625-258 968-257 344-723 344-462 0-720-344-258-343-258-968 0-622 258-966t720-344q466 0 723 344 258 344 258 966zm575-1357q0-893-397-1329-396-436-1215-436-303 0-572 45t-522 139v559q253-137 500-202 247-66 503-66 566 0 847 295t281 892v285q-178-310-456-463T1784 0Q1141 0 747 490 353 981 353 1791q0 812 394 1302 394 491 1037 491 388 0 666-153t456-462v531h575V434z" transform="scale(.01563)"/><path id="DejaVuSans-6f" d="M1959 3097q-462 0-731-361t-269-989q0-628 267-989 268-361 733-361 460 0 728 362 269 363 269 988 0 622-269 986-268 364-728 364zm0 487q750 0 1178-488 429-487 429-1349 0-859-429-1349Q2709-91 1959-91q-753 0-1180 489-426 490-426 1349 0 862 426 1349 427 488 1180 488z" transform="scale(.01563)"/><path id="DejaVuSans-6d" d="M3328 2828q216 388 516 572t706 184q547 0 844-383 297-382 297-1088V0h-578v2094q0 503-179 746-178 244-543 244-447 0-707-297-259-296-259-809V0h-578v2094q0 506-178 748t-550 242q-441 0-701-298-259-298-259-808V0H581v3500h578v-544q197 322 472 475t653 153q382 0 649-194 267-193 395-562z" transform="scale(.01563)"/></defs><use xlink:href="#DejaVuSans-55"/><use xlink:href="#DejaVuSans-6e" x="73.193"/><use xlink:href="#DejaVuSans-69" x="136.572"/><use xlink:href="#DejaVuSans-74" x="164.355"/><use xlink:href="#DejaVuSans-65" x="203.564"/><use xlink:href="#DejaVuSans-64" x="265.088"/><use xlink:href="#DejaVuSans-20" x="328.564"/><use xlink:href="#DejaVuSans-4b" x="360.352"/><use xlink:href="#DejaVuSans-69" x="425.928"/><use xlink:href="#DejaVuSans-6e" x="453.711"/><use xlink:href="#DejaVuSans-67" x="517.09"/><use xlink:href="#DejaVuSans-64" x="580.566"/><use xlink:href="#DejaVuSans-6f" x="644.043"/><use xlink:href="#DejaVuSans-6d" x="705.225"/></g><g style="fill:#1007e1" transform="matrix(.14 0 0 -.14 624.57 297.248)" id="text_22"><defs><path id="DejaVuSans-49" d="M628 4666h631V0H628v4666z" transform="scale(.01563)"/><path id="DejaVuSans-79" d="M2059-325q-243-625-475-815-231-191-618-191H506v481h338q237 0 368 113 132 112 291 531l103 262L191 3500h609L1894 763l1094 2737h609L2059-325z" transform="scale(.01563)"/></defs><use xlink:href="#DejaVuSans-49"/><use xlink:href="#DejaVuSans-74" x="29.492"/><use xlink:href="#DejaVuSans-61" x="68.701"/><use xlink:href="#DejaVuSans-6c" x="129.98"/><use xlink:href="#DejaVuSans-79" x="157.764"/></g></g></g><defs><clipPath id="p72e0c35cff"><path d="M49.83 7.2h558v277.2h-558z"/></clipPath></defs></svg>