<svg xmlns:xlink="http://www.w3.org/1999/xlink" width="951.91" height="420.142" viewBox="0 0 713.933 315.107" xmlns="http://www.w3.org/2000/svg"><defs><style>*{stroke-linejoin:round;stroke-linecap:butt}</style></defs><g id="figure_1"><path d="M0 315.107h713.933V0H0v315.107z" style="fill:none" id="patch_1"/><g id="axes_1"><path d="M67.645 287.357h558v-277.2h-558v277.2z" style="fill:none" id="patch_2"/><g id="matplotlib.axis_1"><g id="xtick_1"><g id="line2d_1"><defs><path id="mce984a13bc" d="M0 0v3.5" style="stroke:#b0b0b0;stroke-width:.4"/></defs><use xlink:href="#mce984a13bc" x="103.5" y="287.357" style="fill:#b0b0b0;stroke:#b0b0b0;stroke-width:.4"/></g><g style="fill:#b0b0b0" transform="matrix(.14 0 0 -.14 74.252 304.995)" id="text_1"><defs><path id="DejaVuSans-32" d="M1228 531h2203V0H469v531q359 372 979 998 621 627 780 809 303 340 423 576 121 236 121 464 0 372-261 606-261 235-680 235-297 0-627-103-329-103-704-313v638q381 153 712 231 332 78 607 78 725 0 1156-363 431-362 431-968 0-288-108-546-107-257-392-607-78-91-497-524-418-433-1181-1211z" transform="scale(.01563)"/><path id="DejaVuSans-30" d="M2034 4250q-487 0-733-480-245-479-245-1442 0-959 245-1439 246-480 733-480 491 0 736 480 246 480 246 1439 0 963-246 1442-245 480-736 480zm0 500q785 0 1199-621 414-620 414-1801 0-1178-414-1799Q2819-91 2034-91q-784 0-1198 620-414 621-414 1799 0 1181 414 1801 414 621 1198 621z" transform="scale(.01563)"/><path id="DejaVuSans-2d" d="M313 2009h1684v-512H313v512z" transform="scale(.01563)"/><path id="DejaVuSans-34" d="M2419 4116 825 1625h1594v2491zm-166 550h794V1625h666v-525h-666V0h-628v1100H313v609l1940 2957z" transform="scale(.01563)"/></defs><use xlink:href="#DejaVuSans-32"/><use xlink:href="#DejaVuSans-30" x="63.623"/><use xlink:href="#DejaVuSans-32" x="127.246"/><use xlink:href="#DejaVuSans-30" x="190.869"/><use xlink:href="#DejaVuSans-2d" x="254.492"/><use xlink:href="#DejaVuSans-30" x="290.576"/><use xlink:href="#DejaVuSans-34" x="354.199"/></g></g><g id="xtick_2"><use xlink:href="#mce984a13bc" x="154.482" y="287.357" style="fill:#b0b0b0;stroke:#b0b0b0;stroke-width:.4" id="line2d_2"/><g style="fill:#b0b0b0" transform="matrix(.14 0 0 -.14 125.234 304.995)" id="text_2"><defs><path id="DejaVuSans-37" d="M525 4666h3000v-269L1831 0h-659l1594 4134H525v532z" transform="scale(.01563)"/></defs><use xlink:href="#DejaVuSans-32"/><use xlink:href="#DejaVuSans-30" x="63.623"/><use xlink:href="#DejaVuSans-32" x="127.246"/><use xlink:href="#DejaVuSans-30" x="190.869"/><use xlink:href="#DejaVuSans-2d" x="254.492"/><use xlink:href="#DejaVuSans-30" x="290.576"/><use xlink:href="#DejaVuSans-37" x="354.199"/></g></g><g id="xtick_3"><use xlink:href="#mce984a13bc" x="206.025" y="287.357" style="fill:#b0b0b0;stroke:#b0b0b0;stroke-width:.4" id="line2d_3"/><g style="fill:#b0b0b0" transform="matrix(.14 0 0 -.14 176.777 304.995)" id="text_3"><defs><path id="DejaVuSans-31" d="M794 531h1031v3560L703 3866v575l1116 225h631V531h1031V0H794v531z" transform="scale(.01563)"/></defs><use xlink:href="#DejaVuSans-32"/><use xlink:href="#DejaVuSans-30" x="63.623"/><use xlink:href="#DejaVuSans-32" x="127.246"/><use xlink:href="#DejaVuSans-30" x="190.869"/><use xlink:href="#DejaVuSans-2d" x="254.492"/><use xlink:href="#DejaVuSans-31" x="290.576"/><use xlink:href="#DejaVuSans-30" x="354.199"/></g></g><g id="xtick_4"><use xlink:href="#mce984a13bc" x="257.567" y="287.357" style="fill:#b0b0b0;stroke:#b0b0b0;stroke-width:.4" id="line2d_4"/><g style="fill:#b0b0b0" transform="matrix(.14 0 0 -.14 228.319 304.995)" id="text_4"><use xlink:href="#DejaVuSans-32"/><use xlink:href="#DejaVuSans-30" x="63.623"/><use xlink:href="#DejaVuSans-32" x="127.246"/><use xlink:href="#DejaVuSans-31" x="190.869"/><use xlink:href="#DejaVuSans-2d" x="254.492"/><use xlink:href="#DejaVuSans-30" x="290.576"/><use xlink:href="#DejaVuSans-31" x="354.199"/></g></g><g id="xtick_5"><use xlink:href="#mce984a13bc" x="307.988" y="287.357" style="fill:#b0b0b0;stroke:#b0b0b0;stroke-width:.4" id="line2d_5"/><g style="fill:#b0b0b0" transform="matrix(.14 0 0 -.14 278.74 304.995)" id="text_5"><use xlink:href="#DejaVuSans-32"/><use xlink:href="#DejaVuSans-30" x="63.623"/><use xlink:href="#DejaVuSans-32" x="127.246"/><use xlink:href="#DejaVuSans-31" x="190.869"/><use xlink:href="#DejaVuSans-2d" x="254.492"/><use xlink:href="#DejaVuSans-30" x="290.576"/><use xlink:href="#DejaVuSans-34" x="354.199"/></g></g><g id="xtick_6"><use xlink:href="#mce984a13bc" x="358.97" y="287.357" style="fill:#b0b0b0;stroke:#b0b0b0;stroke-width:.4" id="line2d_6"/><g style="fill:#b0b0b0" transform="matrix(.14 0 0 -.14 329.722 304.995)" id="text_6"><use xlink:href="#DejaVuSans-32"/><use xlink:href="#DejaVuSans-30" x="63.623"/><use xlink:href="#DejaVuSans-32" x="127.246"/><use xlink:href="#DejaVuSans-31" x="190.869"/><use xlink:href="#DejaVuSans-2d" x="254.492"/><use xlink:href="#DejaVuSans-30" x="290.576"/><use xlink:href="#DejaVuSans-37" x="354.199"/></g></g><g id="xtick_7"><use xlink:href="#mce984a13bc" x="410.512" y="287.357" style="fill:#b0b0b0;stroke:#b0b0b0;stroke-width:.4" id="line2d_7"/><g style="fill:#b0b0b0" transform="matrix(.14 0 0 -.14 381.265 304.995)" id="text_7"><use xlink:href="#DejaVuSans-32"/><use xlink:href="#DejaVuSans-30" x="63.623"/><use xlink:href="#DejaVuSans-32" x="127.246"/><use xlink:href="#DejaVuSans-31" x="190.869"/><use xlink:href="#DejaVuSans-2d" x="254.492"/><use xlink:href="#DejaVuSans-31" x="290.576"/><use xlink:href="#DejaVuSans-30" x="354.199"/></g></g><g id="xtick_8"><use xlink:href="#mce984a13bc" x="462.055" y="287.357" style="fill:#b0b0b0;stroke:#b0b0b0;stroke-width:.4" id="line2d_8"/><g style="fill:#b0b0b0" transform="matrix(.14 0 0 -.14 432.807 304.995)" id="text_8"><use xlink:href="#DejaVuSans-32"/><use xlink:href="#DejaVuSans-30" x="63.623"/><use xlink:href="#DejaVuSans-32" x="127.246"/><use xlink:href="#DejaVuSans-32" x="190.869"/><use xlink:href="#DejaVuSans-2d" x="254.492"/><use xlink:href="#DejaVuSans-30" x="290.576"/><use xlink:href="#DejaVuSans-31" x="354.199"/></g></g><g id="xtick_9"><use xlink:href="#mce984a13bc" x="512.476" y="287.357" style="fill:#b0b0b0;stroke:#b0b0b0;stroke-width:.4" id="line2d_9"/><g style="fill:#b0b0b0" transform="matrix(.14 0 0 -.14 483.228 304.995)" id="text_9"><use xlink:href="#DejaVuSans-32"/><use xlink:href="#DejaVuSans-30" x="63.623"/><use xlink:href="#DejaVuSans-32" x="127.246"/><use xlink:href="#DejaVuSans-32" x="190.869"/><use xlink:href="#DejaVuSans-2d" x="254.492"/><use xlink:href="#DejaVuSans-30" x="290.576"/><use xlink:href="#DejaVuSans-34" x="354.199"/></g></g><g id="xtick_10"><use xlink:href="#mce984a13bc" x="563.458" y="287.357" style="fill:#b0b0b0;stroke:#b0b0b0;stroke-width:.4" id="line2d_10"/><g style="fill:#b0b0b0" transform="matrix(.14 0 0 -.14 534.21 304.995)" id="text_10"><use xlink:href="#DejaVuSans-32"/><use xlink:href="#DejaVuSans-30" x="63.623"/><use xlink:href="#DejaVuSans-32" x="127.246"/><use xlink:href="#DejaVuSans-32" x="190.869"/><use xlink:href="#DejaVuSans-2d" x="254.492"/><use xlink:href="#DejaVuSans-30" x="290.576"/><use xlink:href="#DejaVuSans-37" x="354.199"/></g></g><g id="xtick_11"><use xlink:href="#mce984a13bc" x="615" y="287.357" style="fill:#b0b0b0;stroke:#b0b0b0;stroke-width:.4" id="line2d_11"/><g style="fill:#b0b0b0" transform="matrix(.14 0 0 -.14 585.752 304.995)" id="text_11"><use xlink:href="#DejaVuSans-32"/><use xlink:href="#DejaVuSans-30" x="63.623"/><use xlink:href="#DejaVuSans-32" x="127.246"/><use xlink:href="#DejaVuSans-32" x="190.869"/><use xlink:href="#DejaVuSans-2d" x="254.492"/><use xlink:href="#DejaVuSans-31" x="290.576"/><use xlink:href="#DejaVuSans-30" x="354.199"/></g></g></g><g id="matplotlib.axis_2"><g id="ytick_1"><path d="M67.645 287.357h558" clip-path="url(#p2584544bc5)" style="fill:none;stroke:#b0b0b0;stroke-width:.3;stroke-linecap:square" id="line2d_12"/><g id="line2d_13"><defs><path id="md71f57fa13" d="M0 0h-3.5" style="stroke:#b0b0b0;stroke-width:.3"/></defs><use xlink:href="#md71f57fa13" x="67.645" y="287.357" style="fill:#b0b0b0;stroke:#b0b0b0;stroke-width:.3"/></g><use xlink:href="#DejaVuSans-30" style="fill:#b0b0b0" transform="matrix(.14 0 0 -.14 51.737 292.676)" id="text_12"/></g><g id="ytick_2"><path d="M67.645 253.003h558" clip-path="url(#p2584544bc5)" style="fill:none;stroke:#b0b0b0;stroke-width:.3;stroke-linecap:square" id="line2d_14"/><use xlink:href="#md71f57fa13" x="67.645" y="253.003" style="fill:#b0b0b0;stroke:#b0b0b0;stroke-width:.3" id="line2d_15"/><g style="fill:#b0b0b0" transform="matrix(.14 0 0 -.14 7.2 258.321)" id="text_13"><use xlink:href="#DejaVuSans-31"/><use xlink:href="#DejaVuSans-30" x="63.623"/><use xlink:href="#DejaVuSans-30" x="127.246"/><use xlink:href="#DejaVuSans-30" x="190.869"/><use xlink:href="#DejaVuSans-30" x="254.492"/><use xlink:href="#DejaVuSans-30" x="318.115"/></g></g><g id="ytick_3"><path d="M67.645 218.648h558" clip-path="url(#p2584544bc5)" style="fill:none;stroke:#b0b0b0;stroke-width:.3;stroke-linecap:square" id="line2d_16"/><use xlink:href="#md71f57fa13" x="67.645" y="218.648" style="fill:#b0b0b0;stroke:#b0b0b0;stroke-width:.3" id="line2d_17"/><g style="fill:#b0b0b0" transform="matrix(.14 0 0 -.14 7.2 223.967)" id="text_14"><use xlink:href="#DejaVuSans-32"/><use xlink:href="#DejaVuSans-30" x="63.623"/><use xlink:href="#DejaVuSans-30" x="127.246"/><use xlink:href="#DejaVuSans-30" x="190.869"/><use xlink:href="#DejaVuSans-30" x="254.492"/><use xlink:href="#DejaVuSans-30" x="318.115"/></g></g><g id="ytick_4"><path d="M67.645 184.293h558" clip-path="url(#p2584544bc5)" style="fill:none;stroke:#b0b0b0;stroke-width:.3;stroke-linecap:square" id="line2d_18"/><use xlink:href="#md71f57fa13" x="67.645" y="184.293" style="fill:#b0b0b0;stroke:#b0b0b0;stroke-width:.3" id="line2d_19"/><g style="fill:#b0b0b0" transform="matrix(.14 0 0 -.14 7.2 189.612)" id="text_15"><defs><path id="DejaVuSans-33" d="M2597 2516q453-97 707-404 255-306 255-756 0-690-475-1069Q2609-91 1734-91q-293 0-604 58T488 141v609q262-153 574-231 313-78 654-78 593 0 904 234t311 681q0 413-289 645-289 233-804 233h-544v519h569q465 0 712 186t247 536q0 359-255 551-254 193-729 193-260 0-557-57-297-56-653-174v562q360 100 674 150t592 50q719 0 1137-327 419-326 419-882 0-388-222-655t-631-370z" transform="scale(.01563)"/></defs><use xlink:href="#DejaVuSans-33"/><use xlink:href="#DejaVuSans-30" x="63.623"/><use xlink:href="#DejaVuSans-30" x="127.246"/><use xlink:href="#DejaVuSans-30" x="190.869"/><use xlink:href="#DejaVuSans-30" x="254.492"/><use xlink:href="#DejaVuSans-30" x="318.115"/></g></g><g id="ytick_5"><path d="M67.645 149.938h558" clip-path="url(#p2584544bc5)" style="fill:none;stroke:#b0b0b0;stroke-width:.3;stroke-linecap:square" id="line2d_20"/><use xlink:href="#md71f57fa13" x="67.645" y="149.938" style="fill:#b0b0b0;stroke:#b0b0b0;stroke-width:.3" id="line2d_21"/><g style="fill:#b0b0b0" transform="matrix(.14 0 0 -.14 7.2 155.257)" id="text_16"><use xlink:href="#DejaVuSans-34"/><use xlink:href="#DejaVuSans-30" x="63.623"/><use xlink:href="#DejaVuSans-30" x="127.246"/><use xlink:href="#DejaVuSans-30" x="190.869"/><use xlink:href="#DejaVuSans-30" x="254.492"/><use xlink:href="#DejaVuSans-30" x="318.115"/></g></g><g id="ytick_6"><path d="M67.645 115.583h558" clip-path="url(#p2584544bc5)" style="fill:none;stroke:#b0b0b0;stroke-width:.3;stroke-linecap:square" id="line2d_22"/><use xlink:href="#md71f57fa13" x="67.645" y="115.583" style="fill:#b0b0b0;stroke:#b0b0b0;stroke-width:.3" id="line2d_23"/><g style="fill:#b0b0b0" transform="matrix(.14 0 0 -.14 7.2 120.902)" id="text_17"><defs><path id="DejaVuSans-35" d="M691 4666h2478v-532H1269V2991q137 47 274 70 138 23 276 23 781 0 1237-428 457-428 457-1159 0-753-469-1171Q2575-91 1722-91q-294 0-599 50Q819 9 494 109v635q281-153 581-228t634-75q541 0 856 284 316 284 316 772 0 487-316 771-315 285-856 285-253 0-505-56-251-56-513-175v2344z" transform="scale(.01563)"/></defs><use xlink:href="#DejaVuSans-35"/><use xlink:href="#DejaVuSans-30" x="63.623"/><use xlink:href="#DejaVuSans-30" x="127.246"/><use xlink:href="#DejaVuSans-30" x="190.869"/><use xlink:href="#DejaVuSans-30" x="254.492"/><use xlink:href="#DejaVuSans-30" x="318.115"/></g></g><g id="ytick_7"><path d="M67.645 81.229h558" clip-path="url(#p2584544bc5)" style="fill:none;stroke:#b0b0b0;stroke-width:.3;stroke-linecap:square" id="line2d_24"/><use xlink:href="#md71f57fa13" x="67.645" y="81.229" style="fill:#b0b0b0;stroke:#b0b0b0;stroke-width:.3" id="line2d_25"/><g style="fill:#b0b0b0" transform="matrix(.14 0 0 -.14 7.2 86.547)" id="text_18"><defs><path id="DejaVuSans-36" d="M2113 2584q-425 0-674-291-248-290-248-796 0-503 248-796 249-292 674-292t673 292q248 293 248 796 0 506-248 796-248 291-673 291zm1253 1979v-575q-238 112-480 171-242 60-480 60-625 0-955-422-329-422-376-1275 184 272 462 417 279 145 613 145 703 0 1111-427 408-426 408-1160 0-719-425-1154Q2819-91 2113-91q-810 0-1238 620-428 621-428 1799 0 1106 525 1764t1409 658q238 0 480-47t505-140z" transform="scale(.01563)"/></defs><use xlink:href="#DejaVuSans-36"/><use xlink:href="#DejaVuSans-30" x="63.623"/><use xlink:href="#DejaVuSans-30" x="127.246"/><use xlink:href="#DejaVuSans-30" x="190.869"/><use xlink:href="#DejaVuSans-30" x="254.492"/><use xlink:href="#DejaVuSans-30" x="318.115"/></g></g><g id="ytick_8"><path d="M67.645 46.874h558" clip-path="url(#p2584544bc5)" style="fill:none;stroke:#b0b0b0;stroke-width:.3;stroke-linecap:square" id="line2d_26"/><use xlink:href="#md71f57fa13" x="67.645" y="46.874" style="fill:#b0b0b0;stroke:#b0b0b0;stroke-width:.3" id="line2d_27"/><g style="fill:#b0b0b0" transform="matrix(.14 0 0 -.14 7.2 52.193)" id="text_19"><use xlink:href="#DejaVuSans-37"/><use xlink:href="#DejaVuSans-30" x="63.623"/><use xlink:href="#DejaVuSans-30" x="127.246"/><use xlink:href="#DejaVuSans-30" x="190.869"/><use xlink:href="#DejaVuSans-30" x="254.492"/><use xlink:href="#DejaVuSans-30" x="318.115"/></g></g><g id="ytick_9"><path d="M67.645 12.519h558" clip-path="url(#p2584544bc5)" style="fill:none;stroke:#b0b0b0;stroke-width:.3;stroke-linecap:square" id="line2d_28"/><use xlink:href="#md71f57fa13" x="67.645" y="12.519" style="fill:#b0b0b0;stroke:#b0b0b0;stroke-width:.3" id="line2d_29"/><g style="fill:#b0b0b0" transform="matrix(.14 0 0 -.14 7.2 17.838)" id="text_20"><defs><path id="DejaVuSans-38" d="M2034 2216q-450 0-708-241-257-241-257-662 0-422 257-663 258-241 708-241t709 242q260 243 260 662 0 421-258 662-257 241-711 241zm-631 268q-406 100-633 378-226 279-226 679 0 559 398 884 399 325 1092 325 697 0 1094-325t397-884q0-400-227-679-226-278-629-378 456-106 710-416 255-309 255-755 0-679-414-1042Q2806-91 2034-91q-771 0-1186 362-414 363-414 1042 0 446 256 755 257 310 713 416zm-231 997q0-362 226-565 227-203 636-203 407 0 636 203 230 203 230 565 0 363-230 566-229 203-636 203-409 0-636-203-226-203-226-566z" transform="scale(.01563)"/></defs><use xlink:href="#DejaVuSans-38"/><use xlink:href="#DejaVuSans-30" x="63.623"/><use xlink:href="#DejaVuSans-30" x="127.246"/><use xlink:href="#DejaVuSans-30" x="190.869"/><use xlink:href="#DejaVuSans-30" x="254.492"/><use xlink:href="#DejaVuSans-30" x="318.115"/></g></g></g><path d="m67.645 287.357 24.65-.099 3.362-.226 3.361-.67 2.802-.67 4.482-.204 2.24.21 4.483.689 3.921.234 7.844.4 24.09.162 3.361-.027 4.482.062 12.886-.052 17.367-.273 3.362.06 4.482-.049 14.566-.374 4.482-.698 4.482-1.16 1.12-.613 1.12-.437 1.682-.996 1.68-.528 1.12-.304 2.242-.6 3.361-.27.56-.045 1.12.17 1.121.009 3.922.033 3.922.22 1.12-.111 1.12-.212.56-.022 1.682-.57.56-.251 1.68-.336.56-.34 2.242-.617.56-.013.56-.25.56.146.56-.259.561.405.56.827.56.442 1.681.716.56-.018 2.241.44 1.12.108.561.303.56-.438.56-.59.56-.325 1.121-.174 1.12.14.561.465.56.296 2.241.661 1.12.455 1.121.19.56.021 1.121.38 2.801.636.56.015 1.12.335 2.242.324 3.361.786 4.482-.068 1.68-.105 2.242-.1 5.042-.12 4.482-1.019 1.12-.393 1.121-.198 1.12-.215 1.681-.672 1.12-.275 1.681-.243.56-.015.56.115.561.244 1.12.198.56.362.561.191.56-.175 1.681-.804.56-.192 1.12-1.033 2.242.02.56.06.56-.158 2.801-.07.56-.068 1.121.365 3.922 1.145.56.287 1.68.447 1.121.223.56.222 1.681.937 1.12.169 1.681.567 1.12.127 1.121.247 1.12.707 2.802.33.56-.112.56.082 1.121.36 3.361.33 2.241.12 2.241.285 4.482.144 7.283-.016 5.043-.18 12.885-.65 7.283-1.403 2.241-.61 5.042-.505 1.681-.134 2.241.16 1.12.074 1.681.332 1.12.087 3.362.414 1.681-.006 1.68-.154 1.121.076 1.68.005 4.483-.22 1.68-.201.56-.089 3.362-1.404.56-.182.56-.304.561-.587 1.68-.72.56-.15.561-.017.56.138.56-.29 1.121-1.223 1.12-.614.56-.54 1.121-1.744 1.681-1.598 1.12-.899 1.121-1.39.56-.212.56-.925 1.681-1.45 1.12-1.21.561-1.15 1.12-.24 1.12.042.561-.014 2.241.48.56.074.56.476.56-.118.561.127 1.12 1.172.56.462 1.121.556.56.898.56.684 1.121 1.04.56.162 1.681.918.56.576.56.763 1.121 1.955 1.12.223.56.275.561.106 1.12-.49 1.121-.345.56-.465 1.681-2.726 1.12-2.627.56-.33.561-.743 1.12-1.894.56-1.762.561-1.086.56-.783.56-.436 1.121-2.975 1.68-7.73 1.121-3.051 1.12-5.115.56-3.416 1.121-5.09.56-1.645.56-.732.561-1.75.56-2.184.56-1.62.56-2.88.561-1.406 1.12-1.528.56-.342.561-1.264.56-.576 1.681 1.212.56.923.56.508 1.121 1.302 1.12 2.002.56.35.56.128.561 1.635.56.536.56.947.56.457 1.121 1.148.56.565.56.186.561 1.111.56.278.56-.336.56-.804.561-.44.56-.79 1.12-3.148.561-2.555.56-1.73.56-2.203.56-1.458.561-.685 2.241-8.148.56-1.136.56.727.56.003 1.681-3.326.56.066.56.403 1.121 2.227.56-.75.56.75.561-10.263.56 14.554.56 2.727.56-.194 1.121 6.108.56-7.275.56 17.287.561-7.398.56 6.92.56 4.141.56-9.837.561 2.049.56 12.335.56.903.56 5.551.56.77.561.506.56 8.734.56-2.941.56-1.029.561-.238.56-4.786 1.12.05.561-5.61.56 9.745.56-4.193.56 2.95.561 2.345.56 1.348.56.788.56 1.142.561-5.233.56 8.618 1.12 1.55.561.158.56.034.56.292 1.121.826.56.789.56.51 1.12.166 1.121 2.27.56 1.485 1.121 1.942 1.12.166 1.681 3.129.56 2.31 1.121.171 1.12.15.56-.286.561-.432.56-2.004.56-.055.56.134.561-.13.56 2.952 2.241-5.804 1.12-.098.56-5.109.561-.377.56-.565.56 2.442.56-.732 1.121-.077.56-.847 1.121-2.803.56-3.93.56-.445h.56l.561.302.56-.944 1.12-1.376.561-.24.56-.459 1.12-.077.561-.253.56.158 1.12-.361.56.135 1.121-.056.56-.355.56.153.561-.822.56.395.56-1.332h.56l.561.172.56-.293.56-.657.56.762.561.092.56 1.523h1.12l.561.747.56.943.56 1.595 1.121 2.407 1.12-.043 1.121 3.773 1.12 2.688.56.805 1.121.042.56 1.178 1.12 1.457.561.475.56.184h1.12l.561.734.56.263 1.12.212.561.469 1.12-.003.56.164.561.71.56 2.88.56-1.955.56.15 1.121.003.56.29.56 2.598.561-4.353.56 2.582.56.19h1.12l.561.236.56-2.282.56 2.29 1.121-.142h1.12l1.681-.711.56-.135.56-.317h1.121l1.12-.526 1.681-1.613h1.121l.56-1.425.56-1.92.56-1.073.56-2.237.561-1.32h1.12l.56 4.382.561-1.85.56-2.633.56-3.816.56-2.375h1.121l.56-8.468.56-.158.561-.624.56 2.94.56 1.51h1.121l.56 1.103.56.328.56 1.394.561 1.075h0" clip-path="url(#p2584544bc5)" style="fill:none;stroke:#d8b009;stroke-width:1.5;stroke-linecap:square" id="line2d_30"/><path d="m67.645 287.357 24.65-.091 3.922-.334 1.12-.064 1.681-.23 1.681-.276.56-.145 1.12-.063.561-.265.56-.092.56.09.56-.071.561 1.066 1.12.17.56.305h1.682l.56-.523.56-2.45.56-.023.56-1.027.56.031.561-.431 1.12-.132.56 2.437.561.034.56.726.56.069.56.7.561-.044 1.12.127 1.12-.084.561.16.56-.144 1.12.156.561.013 1.12.252.56-.274 8.965.28 4.482-.15 1.68.008.56.167 1.121-.05 1.12.055 1.121-.052.56-.19.56.197 6.163-.016 21.29-.17 6.162-.216 2.241-.144 1.12-.302.56.202 1.681-.197 1.681-.197 1.12-.138.56.171.561-.315 1.12-.229 1.681-.161.56-.334.56.201 1.121-.214 6.163-.791.56-.024 1.68-.496.561.038 1.12-.256.56-.279 1.121-.173 1.12.056.561.102.56-.056 1.12.322 2.802-.657.56-.215 1.12-.92 2.242-.658.56-.606 1.12-.494.56-.68 1.681-.798.56-.543 1.121-1.49.56 1.14.56-2.881.56-.691.561-.498 1.12-.611.56.499 1.681-5.437.56 4.106 1.121-1.112.56-2.53.56.373.56 4.156.561 2.453.56-4.05.56 1.24.56 1.807.561 2.684 1.12 1.116.56-1.128.561.371.56.578.56.042 1.121 1.392.56.245.56 1.75.56.594 1.681 1.152.56.165 1.121.11 1.12.134 1.121.042 1.12-.014.56-.275 1.682-.172 1.68-.07.56.114 3.362-.86.56-.007.56.134 1.121-.378.56.703 1.12.336.561.018.56-.566 1.12.129.56-.018.561-.178.56-.048.56-.459.56.066 1.121-.112.56-.82.56-.17 3.923-.017.56.001 1.12-.348 1.681-.298 1.12-.112 1.121.082 1.12-.05 1.681-.045 1.12-.032.56 1.167.561-1.098.56.17 1.12-.016.561.211.56.05.56-1.034.56 1.222.561-.032.56.15 2.241-.084 1.681-.488 1.12-.041.56-.319 1.121-.195.56-.085 1.12.099.561-.132.56.232 3.362-.023 2.24-.667.561-.227.56-.045 1.681-1.113.56-.493 1.681-.94.56.753.56-1.318.56-.52 1.681-1.007.56.33.56-.787.561.31 1.12-.48.56 2.083.561-2.135.56-.083.56 1.112.56 2.853.561-2.275.56 2.283.56-.06.56-1.83.561.11.56-1.525.56-2.09.56 2.895 1.121-3.472.56 4.345.56.09.561-.243.56.422 2.241.827.56.037.56.674.56.166 1.682 1.074.56.715.56.108 2.241 1.054.56.24 1.12.062 1.681.557.56.593.561.25.56-.24.56-.002 1.12.245.561 4.704h3.362l.56-3.295 2.24.273.561-.329.56.555.56-.08 1.681.622.56-.04.56.189.561-.207.56.544 1.681.39.56.024 1.68.379 6.164.346 1.12-.011 3.922-.313 3.361-.536.56.13 2.241-1.35.56-.144.56-.552.561-.988 1.68-1.68 1.121-.194 1.12-.749 1.121-.404.56.093 1.121-.376.56.139 2.801-.344.56.068 1.121-.4 1.12-.232 1.121.03.56-.303 3.922 1.314.56-.038 1.12.59.561 1.104.56-.634.56.18.56.01.561 1.271.56-.462.56.271.56-.725.561 1.095 1.12.385.56-.712.56 1.335.561-.195 1.12.432 1.121.155.56.004 1.12.456 2.802.614.56-.33.56.347 6.723.653.56-.171 3.362.036.56.399.56-.219 1.121-.075 1.68.014.561-.22.56.166 2.241-.15 3.922-.22.56.229 2.241-.558 1.12-.126.56-.513 1.121-.24.56.255 1.121-.44.56-.052 1.681-1.153.56-.853 1.12-.75.561-.1 1.12-1.123 2.241-2.578.56-.158 2.242-3.184.56-.706.56-.519.56-.151 1.12-1.115.561-.414.56-.26 1.12-.204.561-.023 3.362-1.225.56-.149.56-.464.56-.913 1.12-3.274.561-2.261.56 1.02.56-.754 1.12-11.328.561-5.64 1.12-12.396 1.121-3.325.56-4.523.56-6.091.56-2.766 1.121-8.863.56-11.664.56-1.298.561-4.753.56-1.452.56-2.232.56-.073.561-1.027.56.882.56-.429.56-4.733.561-3.666.56-5.836 1.12-6.696.56-1.154.561-.335.56-1.869.56.434.56 1.655.561 2.314 1.12 5.355.56 1.032.561 4.349 2.801 27.074.56 1.943.56 8.64.561 15.411.56-2.843 1.12 9.999.561 3.38.56.797.56 11.618.56-11.822.561 11.814 1.12 4.442.56 1.352.56.595.561-4.69.56 8.313 1.681 3.676.56.805.56.232 1.121 1.585.56.354 1.12.016 1.121-.161 2.241-2.555 1.12-1.5.561-.309.56-1.163.56-1.896 2.241-4.999.56-.093.56-3.132 1.682-6.343.56-2.033.56-1.418.56-.258.56-1.791.56-.735.561-1.431.56-.267 1.12.751.561-.113.56.389.56.889.56.523.561.002.56-.474.56-.265.56.323.561.932.56.22 1.12 2.212.56 1.482.561 1.031.56.281.56 8.112.56-.456 2.242 6.338.56.282.56-3.534.56 4.318 1.121 3.903.56 1.526.56 1.09.56.261.561 1.491 1.12 1.737 1.121 1.19.56.364.56.069.56.523 2.802 1.82.56.07.56.624.56-1.172 2.242 1.501.56 1.747.56.562.56 2.078.56.324.56.959 1.121-.027.56-1.685 1.681-.557.56-.997.56-.078.561-.201.56-.077.56 1.154.56-1.359.561-.725 1.68 3.477.56.304.561-8.095.56.092.56-.634.56-2.48 1.121-.005.56-5.003.56 3.98 1.682-3.999h1.12l1.12-5.655 1.681-7.165h1.12l.561-3.853.56-2.925 1.12-2.84.56-.792h1.121l.56-.397 1.121 2.5 1.12 14.836h1.121l.56-5.22.56 2.347.56 1.844 1.121-7.629h1.12l.561 11.184.56 2.271 1.681 4.395h1.12l.56 2.447.561 1.644 1.12 1.847.56.737h1.121l.56 1.217.56.818 1.121 1.048.56.393h1.12l.561 2.703 1.12-.904 2.242.157.56-1.89.56.968.56.712 1.12.288h1.121l1.12.231 1.681.236h1.12l.561.186 1.12.007 2.242-.19.56-.422.56-.933.56-.464.56-.659.56-.47h1.121l.56-1.03.56-.29.561-.426.56-.254.56-.434h1.121l.56-.754.56-1.147 1.12-1.3.561-.528h1.12l1.681-2.189 1.12-1.329h1.121l.56-.811.56-.275.561-.061 2.801.306 1.681.954h0" clip-path="url(#p2584544bc5)" style="fill:none;stroke:#0309a6;stroke-width:1.5;stroke-linecap:square" id="line2d_31"/><path d="m67.645 287.357 267.795-.077 7.283-.085 35.856.157 88.518-.01 53.223-.26 2.8-.245 1.682-.368 1.68-.6 1.12-.73 1.121-.951.56-.584.56.256.561-1.701 1.68-3.038 1.121 1.58.56-6.327.56-.483.561-1.406.56-1.74.56 1.776.56-6.329.56-3.373.561 3.3.56-.736 1.12-2.55.561-4.207.56 2.176.56-.527.56-.224.561-.814.56-.21.56.37.56-.445 2.242.727.56.055.56.243.56.898 1.121 1.325.56.347.56-.116.56.401.561.2.56.404.56-.564.56.565.56.388.561.827 1.68 1.665.561 1.274.56-.003 1.12.945 1.121 1.547.56.466 1.121 1.191.56.346 1.12 1.087 1.121.95 1.681.883 1.68 1.148 3.362 1.484 2.241.753.56.056 1.12.335 2.242.441 2.801.317 6.163.478 4.482-.063 2.8-.23 2.802-.902 2.241-.934 2.801-1.574 1.12-.584 2.802-.18 1.68-1.428.56-.364.561-.185.56-.363.56-.14 2.802.54 1.12.01 1.68-.255 1.682-.614 2.8-1.159 1.121-.126.56.066.56.398.561.124.56-.341 2.241.475.56-.17.56.382.561.667h0" clip-path="url(#p2584544bc5)" style="fill:none;stroke:#fe7b74;stroke-width:1.5;stroke-linecap:square" id="line2d_32"/><path d="m67.645 287.357 19.608-.107 3.362-.243 1.12-.11 4.482-.812 1.681-.415 2.241-.254 2.24.086 5.043.44 11.205.554 2.801.221 11.765.423 17.928.141 2.801-.01 3.362.018 24.09-.098 3.922-.155 3.361-.116 17.928-.234 3.361-.359 3.922-1.09 2.24-1.021.561-.244 2.241-1.62 2.801-2.399 1.681-1.604 1.68-.837 1.681-1.102 1.12-.281.561-.336 1.68-.441.561.125 1.12-.169.56.143.561-.065 1.12.268.56.122 1.682.934 2.8 1.994.561.322 1.12.443 1.681.75 1.12.218.56.222 1.121.695.56.264 2.242.185.56-.237.56-.06 1.68.479 1.121.131.56.18.56.01.561-.18 1.12.593 1.121.216.56-.113 1.12-.423.56-.07.561-.26 1.12-.313.56-.202 1.121.478.56-.4.56-.215.561-.085.56.055.56.224 1.121.125.56.18 1.12.48 1.682.449 1.68.314 1.681-.07 2.24.037 3.923.123 7.283-.062 1.68-.373 1.12-.513 1.682-.638 5.042-1.454 1.12-.208 1.12-.255 3.362-.075 1.12.166.561-.454 2.801.312.56.022.56.57.56.13.561-.129 2.241.385.56.109 1.681 1.151 2.241.485.56-.279.56-.121.56.012 1.681.404 2.802.328 1.12.054 1.68.125 3.362.573 2.802.582 1.12.15 6.163 1.403 3.361.421 4.482.448 11.765.584 6.163-.03 4.482-.265 3.361-.504 2.241-.416 6.723-.506 7.283-.162 2.241-.043 2.241-.087 11.205.687 3.922.268 5.042.24 3.921.142 2.802.074 2.8-.02 11.206-.978 1.68-.438 7.283-1.208 2.241-.53 1.681-.338 3.922-.963.56.211 2.241-.75 1.12-.5.56-.666 1.121-.744 1.12-.422 1.121-1.14 1.12-1.986.561-1.312.56-.029.56-.716.56-2.332.56-3.028 1.682-12.885 1.12-3.607 1.68-13.547.561 1.764.56-2.762.56-4.638 1.121-4.861.56-.35.56 1.711.56-4.543.561.226.56-.09.56 1.67.56-.374.561-.233.56-.701 1.68 2.25.561.28.56.827.56 1.474 1.681 6.085.56 1.883.56.984.561 3.826 1.12 4.648 1.121 4.303.56 1.236.56.786.56 1.516 1.682 5.292 1.12 2.825.56.63.56 1.541 1.121 1.96 1.12 1.243.56.498.56.21 3.362 3.212.56.304 1.121 1.189 1.12.423 1.121-.295.56-.215 3.362-3.983.56-.346 2.801-6.03.56-.566.56-.184.56-.515.561-.207.56-.013 1.681.21.56.092.56-.166 1.121.748.56-.032.56.157.56.275.561.012.56.558.56.075.56.208 1.121.805 1.12.182 1.681.818.56.262 1.121.077.56.496.56 2.784.56-1.858 1.682-1.39 1.68-.684.56.59.56.292 1.682 2.288.56.304.56-1.59.56 2 .56 1.047 1.121 1.387.56.51.56.08 2.802 1.481 1.12.351 3.362 3.217.56.185.56.696.56.333.56.483 1.681.676.56.107 1.121.557.56.155.56.595.56-.206 1.121-.056 1.681-.677.56-.604.56.017 1.12-.287 1.682-1.703 1.68-2.043.56-.306 1.681-3.232 1.681-2.807.56-.399.56-1.025.56-1.992 1.121-2.812 1.12-2.584.561-.583.56-2.397.56-.715.56-1.185 1.121-1.37.56-.425.56-2.3.56-.543 1.121-.089.56.193.56.369.561.617.56 2.537 1.12 2.344 1.682 3.709.56.84.56.39.56 1.592 1.12 2.116 1.681 2.49.56.226 1.121 2.061 1.12 1.672.56.751 1.121.89.56 1.081 1.681 1.98 1.12.854.561.102.56 1.675.56-.224 2.242.173.56-.026.56-1.297.56.534 1.12.322 3.922.986 3.922 1.355 1.12.188.56-.032.561.083 3.362-.341.56-.257 1.12-.338 1.12-.438.561-.33.56-.086 1.68-2.31 1.121-1.184.56-.496.56-.162.561-.756 1.68-1.273.561-.523.56-.272.56-.087.56-.277 1.121-.166 2.802 1.063 1.12.55h0" clip-path="url(#p2584544bc5)" style="fill:none;stroke:#1007e1;stroke-width:1.5;stroke-linecap:square" id="line2d_33"/><path d="m67.645 287.357 25.21-.097 2.242-.184 1.12-.311 1.681-.965 2.241-2.025.56-.6.56-.794.56-.354.56-.54.561-.773.56-1.163 1.12-1.389.561-.469 1.12-1.103.56-.185.561.224 1.12-.27 2.242.592 1.68.602 1.12.121.561-.167.56.125 1.12-.291.561.08.56-.16.56-.04.56.29 1.121.224.56.122.56-.164 1.121.307 1.68.177.561.095.56.378.56.121 1.121.474.56.028.56.212 1.681.212.56.003.56-.154.561.144.56-.136 1.12.088.561.196.56-.073 2.241.642 1.68-.12.561.065 1.12-.08.56-.328.561-.077 1.12.173 1.121.032.56-.132.56.27.56.038.561-.195.56-.056 1.681-.677 2.24-1.276.561-.436.56-.7 1.12-.998.561-.887.56-.44.56-.837 1.681-1.754.56-.771.56-.127.561-.255.56-.541.56-.103.56-.362.561-.547.56-.233 1.12-1.546.561-.307.56-.785 1.681-1.23.56.112.56-.19.56.06 1.681-.244.56.147.56-.418.561.028.56.165.56.043 1.121.35.56-.07.56.52 1.121.74.56.888.56.143 1.121.935.56.193 1.12-.67.561-.477.56.233.56-.053.56.422.561-.474.56.562.56.962 1.12 1.253.561.457.56.31.56 1.089.56.346 2.242.625.56-.26 1.12.187.56-.11 1.682.158.56.257 1.12-.123.56.25.56.433.561.73 1.12.58.56.189.56-.116 1.121-.955.56-.506 2.242-.774 1.12-.032 1.12-.183.56-.172 1.121.263.56.388 1.121-.48 1.12.241 1.121-.607 1.12.022.56-.132 1.121-1.102.56-.088.56-.287.56-.662 1.121-.522.56-.47.56-.275.561-.734.56.02.56-.265.56-1.266.561-.584.56-.108.56-.804.56-.578.561-1.14.56-.397.56.206.56-.806.561-1.324.56-.615.56-.904.56-.428 1.121-1.825.56-2.35.56-.677.561-1.83.56-1.4 1.68-5.755.561-.611.56-2.33.56-1.452.56-2.444.561-1.745.56-.937.56-1.785 2.242-5.22.56-.725.56-.33.56-1.405 1.12-.766.561 3.885.56-.689.56.496.56.273.561 1.271.56-1.172.56-.775.56-5.238.56-.982.561-2.573 1.12-3.745.56-1.406 1.121-1.718 1.12-.224 1.121-1.3.56.008.56-.906.561-.17.56-.47.56.87.56.22.561.63.56 1.053.56.657.56 1.356.561 5.94.56-.644.56 2.455.56 1.12.561-.044.56.101.56-5.018 1.12-5.229.561-3.289.56-.597.56-1.247.56-2.017.561 1.411.56-6.154.56.446.56-.331.561-.87.56.481.56 1.53 1.681 7.611.56 1.658 1.121 6.315 1.12 4.119.56 2.598 1.121 3.73.56.552.56.28.561 1.595 1.68 3.944.56 1.337.561.202 3.922 11.766.56 1.068.56 1.41.56.907 1.121 2.786.56 1.03.56 1.327.56 1.76.561 1.312.56 1.664.56 1.213 1.121 1.459.56.005.56-.688 1.12-.532.561-.004 1.12.31.56.291.561.744 2.241 1.685.56.496.56.263.56.14 1.121.789 1.681.607.56-.332.56.037 1.121-.128.56.067.56-.097 1.681.422.56-1.372.56-.254.56-.748.561-.271.56-.538.56-.896.56-.464.561.904.56-.464.56.11.56-.034.561.417 1.12-.134.56-.312.561-.147.56-.517.56-.287.56-.464.561.246.56-.849.56.038.56.276.561.081.56.736 1.12.337.561.902 1.12.899.56.986.56.052.561.462.56.813 1.12.939.561.417 1.68.73.561-.102 1.12.95 1.681 1.693.56.386.56.618 1.121.848 1.12.718 1.121.471 2.241 1.39 1.12 1.104 2.802 1.01 1.68 1.044.56.776.561.133 1.68 1.017.561-.107.56.064.56-.384.56.407.561-.08.56.17.56-.342.56.31 1.121.155.56.106.56.317 1.121.32 3.362-.114.56-.174 1.12.005.56-.15.56.16 1.682-.423.56.186.56.02.56.225.56-.738 1.121-.531.56-.853.56-.233.56-.368.561-1.006.56-.191 1.12-1.083.56-1.524.561-.198.56-.423.56-.96 1.121-1.48.56-1.201.56-2.1.56-.75.561-.405 1.12-2.675.56-1.262.561-.782.56-3.454 1.12-1.574 1.681-4.455.56-1.827.561-2.98.56-.944.56.476.56-2.499.56-.992.561-2.556.56-1.68.56 1.23 1.121-1.102 1.12-3.33 1.681-1.793.56-.948.56.122.561-.629.56-.2.56-.582.56-1.398.561.038.56.656.56-.384 1.121-2.283.56-.56 1.12.384.561-.352.56-.565.56 6.77.56-1.476 1.121 1.24.56-.324.56-.154.56.741.561-5.778.56 3.166.56.213.56.395.561 1.528.56.697.56.175.56 1.88.561 1.164.56 2.046.56 1.451.56 1.77.561.707.56-.472.56.76 1.121.903 1.12 1.899 1.681 1.71.56.866 1.12.893.561 1.192.56.463.56.257.56 2.343.561-.759.56.218.56.732.56 1.069.561-.051.56.384.56-.186.56 1.391.561.79.56.434.56.633.56.347.561.6.56-.63.56.735.56-.501 1.121.19.56-.097.56-.64 1.121-.137.56.774.56-.33 1.681-.406.56.124 1.121-.9.56 1.162.56-2.306.56-.437.561.25.56-1.165.56-.396.56-.849.561-2.502.56.876.56-.05 1.681-1.04.56.058 1.121 7.006.56.922.56-.176.56-2.169 1.121-2.522 1.12-10.016.56-1.94.561-.558.56.495.56.252.56-.612.561.708.56.021.56.505.56.151.561-.407.56-.045.56.182.56-.895.561-1.723.56-1.174.56-1.842 1.121-6.222.56-5.02.56-6.484.56-2.73.561-.33.56-4.565.56-12.997.56-9.323.56-12.93 1.121-28.812 1.12-10.613 1.121-48.745.56-8.087.56-12.075.561-18.043 1.12-20.251.56-15.31.561 2.106.56-8.746.56-1.012.56-.008.561-.409.56.355.56 34.152.56-17.055.561-2.771.56 6.621.56 2.585 1.12 10.996.561-12.329.56 31.427 1.681 33.056.56 6.207.56 8.322.56 18.354.561 8.152.56 17.169 1.12 23.936.561 4.598.56 5.68.56 9.48.56 5.523.561 6.884.56 5.051.56 7.195.56 1.732.561 1.26.56 8.629.56 5.069 1.681 10.191.56 1.014.56 1.746.56 4.305.561 1.045 1.12 3.143.56 3.45.561-.772.56.245.56-.835.56 2.099.561 1.524.56.884.56 1.128.56 1.596.561.29.56 1.735 1.12 1.62 2.242.52.56 1.325.56.292.56-.698.56-.307.561.841 1.12-.05.56-.34.56.112 1.121 1.043.56-.625 1.681.237.56-.1.56.089.561-.118.56.652.56-.114.56.345 1.121-.106.56-.087.56-.255.561-2.063.56-.05.56-.237h.56l.561-.504.56-.792.56.09.56 1.913 1.121.105.56-1.053.56-.16 1.121-1.195.56-2.68 2.241-1.418.56-1.08.56-.818.561 1.353 1.12-.38.56-1.258.561-.234.56-1.106.56-.55.56-3.328.561-.199.56.528.56-1.733.56-1.02.561-2.39.56-.841.56 2.05.56.52.56-1.302.561-2.343.56-.724.56-2.103.56-1.472.561-3.02.56-.49.56.97.56 1.37.561.079.56-.338.56.008.56 2.002.561.682.56.31.56 4.25.56-4.097.561-.893.56.647.56-2.404.56-.68.561-.453.56-4.774.56 3.949.56 1.475.561-.467.56 2.493.56-.352.56-.073.56.392.561-.163.56.675.56.092.56-1.601.561.86.56-.014.56 2.736.56-1.04.561-.025.56-.425.56 1.064.56-1.14.561-.206.56-3.152.56.661.56-.226.561-1.425.56-1.947.56 1.01.56.679.561 4.12.56-2.16.56-.513.56 1.403.56.939.561-.425.56-.79.56-6.134 1.121-.504.56-1.782.56-.759.56-.5.561-.25 1.12 3.288.56-.593.561-.014.56 1.069.56.631.56.312.561-1.212.56-.733.56-1.147.56-.079.561-1.367 1.12 1.01.56.97 1.121 3.959.56-.495.56 2.612 1.121.07.56.712.56-.434.56.206.561 1.198.56.456.56-3.371.56.14.561 1.596.56.389.56 2.92.56.673.561.937.56 3.564.56-.002 1.121-.663.56-.73.56.466.56-2.113 1.121.032 1.12 2.285.561-.13.56.438.56 2.748 1.12.068.561 3.564.56-1.812.56 1.495.56 1.153.561-1.773.56.062.56-.077.56-1.763.561 1.618 1.12 2.166.56 2.188 1.121.25 1.12 1.186.561.256.56.117.56-1.328 1.121-.12 1.68 1.478.56-.166.561 2.449 1.68.35.561.286.56.766.56 1.16.56-1.216 1.121.021.56.901.56-.267.561.327.56-.127.56 1.542.56.087.561-.045.56-.719.56.365.56.217.561.338h0" clip-path="url(#p2584544bc5)" style="fill:none;stroke:#7516fd;stroke-width:1.5;stroke-linecap:square" id="line2d_34"/><g style="fill:#d8b009" transform="matrix(.14 0 0 -.14 642.385 245.986)" id="text_21"><defs><path id="DejaVuSans-47" d="M3809 666v1253H2778v519h1656V434q-365-259-806-392-440-133-940-133-1094 0-1712 639-617 640-617 1780 0 1144 617 1783 618 639 1712 639 456 0 867-113 411-112 758-331v-672q-350 297-744 447t-828 150q-857 0-1287-478-429-478-429-1425 0-944 429-1422 430-478 1287-478 334 0 596 58 263 58 472 180z" transform="scale(.01563)"/><path id="DejaVuSans-65" d="M3597 1894v-281H953q38-594 358-905t892-311q331 0 642 81t618 244V178Q3153 47 2828-22t-659-69q-838 0-1327 487-489 488-489 1320 0 859 464 1363 464 505 1252 505 706 0 1117-455 411-454 411-1235zm-575 169q-6 471-264 752-258 282-683 282-481 0-770-272t-333-766l2050 4z" transform="scale(.01563)"/><path id="DejaVuSans-72" d="M2631 2963q-97 56-211 82-114 27-251 27-488 0-749-317t-261-911V0H581v3500h578v-544q182 319 472 473 291 155 707 155 59 0 131-8 72-7 159-23l3-590z" transform="scale(.01563)"/><path id="DejaVuSans-6d" d="M3328 2828q216 388 516 572t706 184q547 0 844-383 297-382 297-1088V0h-578v2094q0 503-179 746-178 244-543 244-447 0-707-297-259-296-259-809V0h-578v2094q0 506-178 748t-550 242q-441 0-701-298-259-298-259-808V0H581v3500h578v-544q197 322 472 475t653 153q382 0 649-194 267-193 395-562z" transform="scale(.01563)"/><path id="DejaVuSans-61" d="M2194 1759q-697 0-966-159t-269-544q0-306 202-486 202-179 548-179 479 0 768 339t289 901v128h-572zm1147 238V0h-575v531q-197-318-491-470T1556-91q-537 0-855 302-317 302-317 808 0 590 395 890 396 300 1180 300h807v57q0 397-261 614t-733 217q-300 0-585-72-284-72-546-216v532q315 122 612 182 297 61 578 61 760 0 1135-394 375-393 375-1193z" transform="scale(.01563)"/><path id="DejaVuSans-6e" d="M3513 2113V0h-575v2094q0 497-194 743-194 247-581 247-466 0-735-297-269-296-269-809V0H581v3500h578v-544q207 316 486 472 280 156 646 156 603 0 912-373 310-373 310-1098z" transform="scale(.01563)"/><path id="DejaVuSans-79" d="M2059-325q-243-625-475-815-231-191-618-191H506v481h338q237 0 368 113 132 112 291 531l103 262L191 3500h609L1894 763l1094 2737h609L2059-325z" transform="scale(.01563)"/></defs><use xlink:href="#DejaVuSans-47"/><use xlink:href="#DejaVuSans-65" x="77.49"/><use xlink:href="#DejaVuSans-72" x="139.014"/><use xlink:href="#DejaVuSans-6d" x="178.377"/><use xlink:href="#DejaVuSans-61" x="275.789"/><use xlink:href="#DejaVuSans-6e" x="337.068"/><use xlink:href="#DejaVuSans-79" x="400.447"/></g><g style="fill:#0309a6" transform="matrix(.14 0 0 -.14 642.385 259.986)" id="text_22"><defs><path id="DejaVuSans-46" d="M628 4666h2681v-532H1259V2759h1850v-531H1259V0H628v4666z" transform="scale(.01563)"/><path id="DejaVuSans-63" d="M3122 3366v-538q-244 135-489 202t-495 67q-560 0-870-355-309-354-309-995t309-996q310-354 870-354 250 0 495 67t489 202V134Q2881 22 2623-34q-257-57-548-57-791 0-1257 497-465 497-465 1341 0 856 470 1346 471 491 1290 491 265 0 518-55 253-54 491-163z" transform="scale(.01563)"/></defs><use xlink:href="#DejaVuSans-46"/><use xlink:href="#DejaVuSans-72" x="50.27"/><use xlink:href="#DejaVuSans-61" x="91.383"/><use xlink:href="#DejaVuSans-6e" x="152.662"/><use xlink:href="#DejaVuSans-63" x="216.041"/><use xlink:href="#DejaVuSans-65" x="271.021"/></g><g style="fill:#fe7b74" transform="matrix(.14 0 0 -.14 642.385 273.986)" id="text_23"><defs><path id="DejaVuSans-54" d="M-19 4666h3947v-532H2272V0h-634v4134H-19v532z" transform="scale(.01563)"/><path id="DejaVuSans-69" d="M603 3500h575V0H603v3500zm0 1363h575v-729H603v729z" transform="scale(.01563)"/><path id="DejaVuSans-77" d="M269 3500h575l719-2731 715 2731h678l719-2731 716 2731h575L4050 0h-678l-753 2869L1863 0h-679L269 3500z" transform="scale(.01563)"/><path id="DejaVuSans-2a" d="m3009 3897-1121-606 1121-610-181-306-1050 634V1831h-356v1178L372 2375l-181 306 1122 610-1122 606 181 309 1050-634v1178h356V3572l1050 634 181-309z" transform="scale(.01563)"/></defs><use xlink:href="#DejaVuSans-54"/><use xlink:href="#DejaVuSans-61" x="44.584"/><use xlink:href="#DejaVuSans-69" x="105.863"/><use xlink:href="#DejaVuSans-77" x="133.646"/><use xlink:href="#DejaVuSans-61" x="215.434"/><use xlink:href="#DejaVuSans-6e" x="276.713"/><use xlink:href="#DejaVuSans-2a" x="340.092"/></g><g style="fill:#1007e1" transform="matrix(.14 0 0 -.14 642.385 287.986)" id="text_24"><defs><path id="DejaVuSans-49" d="M628 4666h631V0H628v4666z" transform="scale(.01563)"/><path id="DejaVuSans-74" d="M1172 4494v-994h1184v-447H1172V1153q0-428 117-550t477-122h590V0h-590q-666 0-919 248-253 249-253 905v1900H172v447h422v994h578z" transform="scale(.01563)"/><path id="DejaVuSans-6c" d="M603 4863h575V0H603v4863z" transform="scale(.01563)"/></defs><use xlink:href="#DejaVuSans-49"/><use xlink:href="#DejaVuSans-74" x="29.492"/><use xlink:href="#DejaVuSans-61" x="68.701"/><use xlink:href="#DejaVuSans-6c" x="129.98"/><use xlink:href="#DejaVuSans-79" x="157.764"/></g><g style="fill:#7516fd" transform="matrix(.14 0 0 -.14 642.385 301.986)" id="text_25"><defs><path id="DejaVuSans-55" d="M556 4666h635V1831q0-750 271-1080 272-329 882-329 606 0 878 329 272 330 272 1080v2835h634V1753q0-912-452-1378Q3225-91 2344-91q-885 0-1337 466-451 466-451 1378v2913z" transform="scale(.01563)"/><path id="DejaVuSans-53" d="M3425 4513v-616q-359 172-678 256-319 85-616 85-515 0-795-200t-280-569q0-310 186-468 186-157 705-254l381-78q706-135 1042-474t336-907q0-679-455-1029Q2797-91 1919-91q-331 0-705 75-373 75-773 222v650q384-215 753-325 369-109 725-109 540 0 834 212 294 213 294 607 0 343-211 537t-692 291l-385 75q-706 140-1022 440-315 300-315 835 0 619 436 975t1201 356q329 0 669-60 341-59 697-177z" transform="scale(.01563)"/></defs><use xlink:href="#DejaVuSans-55"/><use xlink:href="#DejaVuSans-53" x="73.193"/></g></g></g><defs><clipPath id="p2584544bc5"><path d="M67.645 10.157h558v277.2h-558z"/></clipPath></defs></svg>