<svg xmlns="http://www.w3.org/2000/svg" xmlns:xlink="http://www.w3.org/1999/xlink" width="992.186" height="416.199" viewBox="0 0 744.14 312.149"><defs><style>*{stroke-linejoin:round;stroke-linecap:butt}</style></defs><g id="figure_1"><path id="patch_1" d="M0 312.15h744.14V0H0v312.15z" style="fill:none"/><g id="axes_1"><path id="patch_2" d="M49.83 284.4h558V7.2h-558v277.2z" style="fill:none"/><g id="matplotlib.axis_1"><g id="xtick_1"><g id="line2d_1"><defs><path id="m435b4e0af0" d="M0 0v3.5" style="stroke:#b0b0b0;stroke-width:.4"/></defs><use xlink:href="#m435b4e0af0" x="98.397" y="284.4" style="fill:#b0b0b0;stroke:#b0b0b0;stroke-width:.4"/></g><g id="text_1" style="fill:#b0b0b0" transform="matrix(.14 0 0 -.14 69.149 302.038)"><defs><path id="DejaVuSans-32" d="M1228 531h2203V0H469v531q359 372 979 998 621 627 780 809 303 340 423 576 121 236 121 464 0 372-261 606-261 235-680 235-297 0-627-103-329-103-704-313v638q381 153 712 231 332 78 607 78 725 0 1156-363 431-362 431-968 0-288-108-546-107-257-392-607-78-91-497-524-418-433-1181-1211z" transform="scale(.01563)"/><path id="DejaVuSans-30" d="M2034 4250q-487 0-733-480-245-479-245-1442 0-959 245-1439 246-480 733-480 491 0 736 480 246 480 246 1439 0 963-246 1442-245 480-736 480zm0 500q785 0 1199-621 414-620 414-1801 0-1178-414-1799Q2819-91 2034-91q-784 0-1198 620-414 621-414 1799 0 1181 414 1801 414 621 1198 621z" transform="scale(.01563)"/><path id="DejaVuSans-2d" d="M313 2009h1684v-512H313v512z" transform="scale(.01563)"/><path id="DejaVuSans-35" d="M691 4666h2478v-532H1269V2991q137 47 274 70 138 23 276 23 781 0 1237-428 457-428 457-1159 0-753-469-1171Q2575-91 1722-91q-294 0-599 50Q819 9 494 109v635q281-153 581-228t634-75q541 0 856 284 316 284 316 772 0 487-316 771-315 285-856 285-253 0-505-56-251-56-513-175v2344z" transform="scale(.01563)"/></defs><use xlink:href="#DejaVuSans-32"/><use xlink:href="#DejaVuSans-30" x="63.623"/><use xlink:href="#DejaVuSans-32" x="127.246"/><use xlink:href="#DejaVuSans-30" x="190.869"/><use xlink:href="#DejaVuSans-2d" x="254.492"/><use xlink:href="#DejaVuSans-30" x="290.576"/><use xlink:href="#DejaVuSans-35" x="354.199"/></g></g><g id="xtick_2"><use xlink:href="#m435b4e0af0" id="line2d_2" x="161.947" y="284.4" style="fill:#b0b0b0;stroke:#b0b0b0;stroke-width:.4"/><g id="text_2" style="fill:#b0b0b0" transform="matrix(.14 0 0 -.14 132.699 302.038)"><defs><path id="DejaVuSans-39" d="M703 97v575q238-113 481-172 244-59 479-59 625 0 954 420 330 420 377 1277-181-269-460-413-278-144-615-144-700 0-1108 423-408 424-408 1159 0 718 425 1152 425 435 1131 435 810 0 1236-621 427-620 427-1801 0-1103-524-1761Q2575-91 1691-91q-238 0-482 47Q966 3 703 97zm1256 1978q425 0 673 290 249 291 249 798 0 503-249 795-248 292-673 292t-673-292q-248-292-248-795 0-507 248-798 248-290 673-290z" transform="scale(.01563)"/></defs><use xlink:href="#DejaVuSans-32"/><use xlink:href="#DejaVuSans-30" x="63.623"/><use xlink:href="#DejaVuSans-32" x="127.246"/><use xlink:href="#DejaVuSans-30" x="190.869"/><use xlink:href="#DejaVuSans-2d" x="254.492"/><use xlink:href="#DejaVuSans-30" x="290.576"/><use xlink:href="#DejaVuSans-39" x="354.199"/></g></g><g id="xtick_3"><use xlink:href="#m435b4e0af0" id="line2d_3" x="224.98" y="284.4" style="fill:#b0b0b0;stroke:#b0b0b0;stroke-width:.4"/><g id="text_3" style="fill:#b0b0b0" transform="matrix(.14 0 0 -.14 195.732 302.038)"><defs><path id="DejaVuSans-31" d="M794 531h1031v3560L703 3866v575l1116 225h631V531h1031V0H794v531z" transform="scale(.01563)"/></defs><use xlink:href="#DejaVuSans-32"/><use xlink:href="#DejaVuSans-30" x="63.623"/><use xlink:href="#DejaVuSans-32" x="127.246"/><use xlink:href="#DejaVuSans-31" x="190.869"/><use xlink:href="#DejaVuSans-2d" x="254.492"/><use xlink:href="#DejaVuSans-30" x="290.576"/><use xlink:href="#DejaVuSans-31" x="354.199"/></g></g><g id="xtick_4"><use xlink:href="#m435b4e0af0" id="line2d_4" x="286.98" y="284.4" style="fill:#b0b0b0;stroke:#b0b0b0;stroke-width:.4"/><g id="text_4" style="fill:#b0b0b0" transform="matrix(.14 0 0 -.14 257.732 302.038)"><use xlink:href="#DejaVuSans-32"/><use xlink:href="#DejaVuSans-30" x="63.623"/><use xlink:href="#DejaVuSans-32" x="127.246"/><use xlink:href="#DejaVuSans-31" x="190.869"/><use xlink:href="#DejaVuSans-2d" x="254.492"/><use xlink:href="#DejaVuSans-30" x="290.576"/><use xlink:href="#DejaVuSans-35" x="354.199"/></g></g><g id="xtick_5"><use xlink:href="#m435b4e0af0" id="line2d_5" x="350.53" y="284.4" style="fill:#b0b0b0;stroke:#b0b0b0;stroke-width:.4"/><g id="text_5" style="fill:#b0b0b0" transform="matrix(.14 0 0 -.14 321.282 302.038)"><use xlink:href="#DejaVuSans-32"/><use xlink:href="#DejaVuSans-30" x="63.623"/><use xlink:href="#DejaVuSans-32" x="127.246"/><use xlink:href="#DejaVuSans-31" x="190.869"/><use xlink:href="#DejaVuSans-2d" x="254.492"/><use xlink:href="#DejaVuSans-30" x="290.576"/><use xlink:href="#DejaVuSans-39" x="354.199"/></g></g><g id="xtick_6"><use xlink:href="#m435b4e0af0" id="line2d_6" x="413.563" y="284.4" style="fill:#b0b0b0;stroke:#b0b0b0;stroke-width:.4"/><g id="text_6" style="fill:#b0b0b0" transform="matrix(.14 0 0 -.14 384.315 302.038)"><use xlink:href="#DejaVuSans-32"/><use xlink:href="#DejaVuSans-30" x="63.623"/><use xlink:href="#DejaVuSans-32" x="127.246"/><use xlink:href="#DejaVuSans-32" x="190.869"/><use xlink:href="#DejaVuSans-2d" x="254.492"/><use xlink:href="#DejaVuSans-30" x="290.576"/><use xlink:href="#DejaVuSans-31" x="354.199"/></g></g><g id="xtick_7"><use xlink:href="#m435b4e0af0" id="line2d_7" x="475.563" y="284.4" style="fill:#b0b0b0;stroke:#b0b0b0;stroke-width:.4"/><g id="text_7" style="fill:#b0b0b0" transform="matrix(.14 0 0 -.14 446.315 302.038)"><use xlink:href="#DejaVuSans-32"/><use xlink:href="#DejaVuSans-30" x="63.623"/><use xlink:href="#DejaVuSans-32" x="127.246"/><use xlink:href="#DejaVuSans-32" x="190.869"/><use xlink:href="#DejaVuSans-2d" x="254.492"/><use xlink:href="#DejaVuSans-30" x="290.576"/><use xlink:href="#DejaVuSans-35" x="354.199"/></g></g><g id="xtick_8"><use xlink:href="#m435b4e0af0" id="line2d_8" x="539.113" y="284.4" style="fill:#b0b0b0;stroke:#b0b0b0;stroke-width:.4"/><g id="text_8" style="fill:#b0b0b0" transform="matrix(.14 0 0 -.14 509.865 302.038)"><use xlink:href="#DejaVuSans-32"/><use xlink:href="#DejaVuSans-30" x="63.623"/><use xlink:href="#DejaVuSans-32" x="127.246"/><use xlink:href="#DejaVuSans-32" x="190.869"/><use xlink:href="#DejaVuSans-2d" x="254.492"/><use xlink:href="#DejaVuSans-30" x="290.576"/><use xlink:href="#DejaVuSans-39" x="354.199"/></g></g><g id="xtick_9"><use xlink:href="#m435b4e0af0" id="line2d_9" x="602.147" y="284.4" style="fill:#b0b0b0;stroke:#b0b0b0;stroke-width:.4"/><g id="text_9" style="fill:#b0b0b0" transform="matrix(.14 0 0 -.14 572.899 302.038)"><defs><path id="DejaVuSans-33" d="M2597 2516q453-97 707-404 255-306 255-756 0-690-475-1069Q2609-91 1734-91q-293 0-604 58T488 141v609q262-153 574-231 313-78 654-78 593 0 904 234t311 681q0 413-289 645-289 233-804 233h-544v519h569q465 0 712 186t247 536q0 359-255 551-254 193-729 193-260 0-557-57-297-56-653-174v562q360 100 674 150t592 50q719 0 1137-327 419-326 419-882 0-388-222-655t-631-370z" transform="scale(.01563)"/></defs><use xlink:href="#DejaVuSans-32"/><use xlink:href="#DejaVuSans-30" x="63.623"/><use xlink:href="#DejaVuSans-32" x="127.246"/><use xlink:href="#DejaVuSans-33" x="190.869"/><use xlink:href="#DejaVuSans-2d" x="254.492"/><use xlink:href="#DejaVuSans-30" x="290.576"/><use xlink:href="#DejaVuSans-31" x="354.199"/></g></g></g><g id="matplotlib.axis_2"><g id="ytick_1"><path id="line2d_10" d="M49.83 284.4h558" clip-path="url(#p5f54c01083)" style="fill:none;stroke:#b0b0b0;stroke-width:.3;stroke-linecap:square"/><g id="line2d_11"><defs><path id="m3ba34efbe8" d="M0 0h-3.5" style="stroke:#b0b0b0;stroke-width:.3"/></defs><use xlink:href="#m3ba34efbe8" x="49.83" y="284.4" style="fill:#b0b0b0;stroke:#b0b0b0;stroke-width:.3"/></g><use xlink:href="#DejaVuSans-30" id="text_10" style="fill:#b0b0b0" transform="matrix(.14 0 0 -.14 33.922 289.719)"/></g><g id="ytick_2"><path id="line2d_12" d="M49.83 243.394h558" clip-path="url(#p5f54c01083)" style="fill:none;stroke:#b0b0b0;stroke-width:.3;stroke-linecap:square"/><use xlink:href="#m3ba34efbe8" id="line2d_13" x="49.83" y="243.394" style="fill:#b0b0b0;stroke:#b0b0b0;stroke-width:.3"/><g id="text_11" style="fill:#b0b0b0" transform="matrix(.14 0 0 -.14 16.108 248.713)"><use xlink:href="#DejaVuSans-35"/><use xlink:href="#DejaVuSans-30" x="63.623"/><use xlink:href="#DejaVuSans-30" x="127.246"/></g></g><g id="ytick_3"><path id="line2d_14" d="M49.83 202.388h558" clip-path="url(#p5f54c01083)" style="fill:none;stroke:#b0b0b0;stroke-width:.3;stroke-linecap:square"/><use xlink:href="#m3ba34efbe8" id="line2d_15" x="49.83" y="202.388" style="fill:#b0b0b0;stroke:#b0b0b0;stroke-width:.3"/><g id="text_12" style="fill:#b0b0b0" transform="matrix(.14 0 0 -.14 7.2 207.707)"><use xlink:href="#DejaVuSans-31"/><use xlink:href="#DejaVuSans-30" x="63.623"/><use xlink:href="#DejaVuSans-30" x="127.246"/><use xlink:href="#DejaVuSans-30" x="190.869"/></g></g><g id="ytick_4"><path id="line2d_16" d="M49.83 161.382h558" clip-path="url(#p5f54c01083)" style="fill:none;stroke:#b0b0b0;stroke-width:.3;stroke-linecap:square"/><use xlink:href="#m3ba34efbe8" id="line2d_17" x="49.83" y="161.382" style="fill:#b0b0b0;stroke:#b0b0b0;stroke-width:.3"/><g id="text_13" style="fill:#b0b0b0" transform="matrix(.14 0 0 -.14 7.2 166.701)"><use xlink:href="#DejaVuSans-31"/><use xlink:href="#DejaVuSans-35" x="63.623"/><use xlink:href="#DejaVuSans-30" x="127.246"/><use xlink:href="#DejaVuSans-30" x="190.869"/></g></g><g id="ytick_5"><path id="line2d_18" d="M49.83 120.376h558" clip-path="url(#p5f54c01083)" style="fill:none;stroke:#b0b0b0;stroke-width:.3;stroke-linecap:square"/><use xlink:href="#m3ba34efbe8" id="line2d_19" x="49.83" y="120.376" style="fill:#b0b0b0;stroke:#b0b0b0;stroke-width:.3"/><g id="text_14" style="fill:#b0b0b0" transform="matrix(.14 0 0 -.14 7.2 125.695)"><use xlink:href="#DejaVuSans-32"/><use xlink:href="#DejaVuSans-30" x="63.623"/><use xlink:href="#DejaVuSans-30" x="127.246"/><use xlink:href="#DejaVuSans-30" x="190.869"/></g></g><g id="ytick_6"><path id="line2d_20" d="M49.83 79.37h558" clip-path="url(#p5f54c01083)" style="fill:none;stroke:#b0b0b0;stroke-width:.3;stroke-linecap:square"/><use xlink:href="#m3ba34efbe8" id="line2d_21" x="49.83" y="79.37" style="fill:#b0b0b0;stroke:#b0b0b0;stroke-width:.3"/><g id="text_15" style="fill:#b0b0b0" transform="matrix(.14 0 0 -.14 7.2 84.69)"><use xlink:href="#DejaVuSans-32"/><use xlink:href="#DejaVuSans-35" x="63.623"/><use xlink:href="#DejaVuSans-30" x="127.246"/><use xlink:href="#DejaVuSans-30" x="190.869"/></g></g><g id="ytick_7"><path id="line2d_22" d="M49.83 38.364h558" clip-path="url(#p5f54c01083)" style="fill:none;stroke:#b0b0b0;stroke-width:.3;stroke-linecap:square"/><use xlink:href="#m3ba34efbe8" id="line2d_23" x="49.83" y="38.364" style="fill:#b0b0b0;stroke:#b0b0b0;stroke-width:.3"/><g id="text_16" style="fill:#b0b0b0" transform="matrix(.14 0 0 -.14 7.2 43.683)"><use xlink:href="#DejaVuSans-33"/><use xlink:href="#DejaVuSans-30" x="63.623"/><use xlink:href="#DejaVuSans-30" x="127.246"/><use xlink:href="#DejaVuSans-30" x="190.869"/></g></g></g><path id="line2d_24" d="m49.83 284.4 18.083-.082 2.584-.152 1.033-.012 1.033-.117 1.55-.211 1.034-.668 1.033-1.37 1.55-3.633.517-1.874.516-2.414.517-3.198 1.033-8.916.517-7.147.517-5.002.516-6.093.517-9.794 1.033-28.54 1.55-33.754.517-12.372.517-17.89.516-6.034 1.55-23.163 1.034-5.834.516 1.464.517-5.53.517.809.516 1.288.517 1.887.517-.984.516-3.34.517.34.517 1.863.516-2.823.517.468.517 2.39.516 6.467.517 9.362.517 2.577.516 1.066.517 2.765.517 2.156.516-.047.517 2.484.517 1.37 1.033 1.242.517 3.351.516 1.3.517 3.187.517 2.367.516 4.03 1.034 14.212 1.033 3.257.517 3.538.516 2.18.517-2.297.517 1.921.516 2.637.517 6.877.517 4.967.516 1.067.517 2.062.517 7.287.516 9.08.517.21 1.55 3.996.517.187.516-1.956.517-3.726.517 5.296.516.796.517 2.8.517 3.632.516 1.91.517 3.105.517.726.516 1.664.517 2.19.517.551.516-.796 2.584 6.795.516 2.25.517 1.675 1.55 1.101.517-.164.516 1.71.517.024.517.75.516-.047.517.094.517 2.12.516.621.517-2.237.517-.586.516 2.25h.517l.517-.165.516-6.97.517-1.641.517-3.445.516-1.476.517-5.225.517-1.804.516-.68.517 2.917.517-1.394.516.762 1.034-2.988.516-.07.517-1.031.517-2.355.516-3.081.517-1.23.517-1.957.516-.914.517-.656.517-6.795.516-1.36 1.034-5.037.516-.914.517-1.734.517.867.516 6.397.517-.457.517.14.516 1.266.517-1.453.517.316.516-1.312.517.469.517 2.038.516-1.019.517 1.804.517-.14.516.597.517-.445.517.55.516-1.757.517 9.654.517-.773.516 2.449.517.972.517 1.277.516.527.517.047.517-5.541.516-.082.517 2.026.517-.082.516.774.517-.574.517 1.827 1.033 2.215.517-.34.516 1.98.517.047.517 1.863.516 6.959.517-.539.517 1.324.516-2.238 1.034 1.148.516-1.148.517-8.412.517 1.957.516.69.517 2.157.517.831.516 1.512.517.105.517 1.992.516-1.383.517-.445.517.516.516-1.125.517-.457.517.844 1.033 3.198.517-.094 1.033 1.957.517-.762.516-1.581.517 2.413.517-.011.516-.903.517-1.464.517.293.516-1.102.517.938.517-.61.516-.972.517 1.558.517.34.516-1.664.517-.222.517-1.36 1.033-4.58 1.033-.516.517-2.144.517.352.516-.54.517-.82.517 1.477 1.033-2.917.517.386.516-.668.517-.48.517-7.065.516-.89.517-2.296.517-1.734.516-2.191.517-.773.517-2.402.516 2.167.517-4.03.517-.598.516-.105 1.034-5.366.516-.867.517-3.585.517-5.589 1.033-17.808 1.55-9.501.517-5.167.516-3.738.517 7.276.517 4.17.516 2.602.517.328.517-2.789.516-4.381.517-6.08.517-17.75 1.033-23.784.517-4.358.516-3.093.517-.457.517-1.992.516-.082.517-7.838.517-1.312.516-2.062.517-.633.517-3.526.516-8.623.517-5.893.517 4.756.516-2.706.517-1.207.517-1.535.516-5.038.517 4.359.517 6.56.516 16.766.517 9.654.517 3.14.516-.843.517-2.847.517-6.386.516-4.592 1.034-15.419.516.059.517-1.37.517.023.516-.211.517-8.775.517-22.823 1.033-15.746.517 1.862.516-9.384.517-1.324.517 2.624.516 3.949.517-4.09.517 1.254.516 3.234.517 23.08 1.033-8.552 1.034.785.516 1.827.517-2.354.517-18.465 1.033 7.276.517 2.507.516 7.803.517-1.23.517.011.516 5.19.517 2.344.517-.89.516-1.149.517 1.523.517 5.495.516 3.878 1.034 11.798 1.55 23.701.516 3.644.517 5.893.517 16.262.516 11.177.517 7.041 1.033 7.71.517-.692.517-3.081.516-7.194.517-9.478.517 1.699 1.033 9.22.517 1.453.516-1.253.517 4.042.517 8.13 1.033 10.615.517-.07.516 4.499.517 7.006.517 1.78.516 11.553.517 4.475.517 3.41.516 6.467.517 2.19.517.153.516 5.975.517 4.007.517-1.043.516 4.687.517 2.308.517-2.238.516 1.78.517 3.598.517-3.14.516 3.35.517-1.558.517-.41.516 3.093.517-.96.517.62.516 4.581 1.034 5.964.516.574.517 1.511.517 1.992.516.691.517-17.937.517 1.031 1.033-.176 1.033.399.517-.375.517 19.507.516 1.23.517.387.517.597 1.033-1.183.517.316.516.457.517-.398.517 1.253.516-.48.517.48.517.176.516 2.004.517-1.008.517.668.516-.48.517.011 1.033-.222.517-2.45.517 1.993.516 1.03.517.54.517 1.288.516.703.517.984.517 2.285 1.033 1.137 1.033 2.835 1.034-.07.516-1.184.517 1.312.517.738 1.033.762.517.75.516-.457.517 1.664.517-3.878.516-7.803.517.785.517 1.874.516.668.517 3.046.517-.047.516 4.98.517 8.423.517.211.516-2.999.517-.246.517-1.511.516 3.925.517.995.517 2.672.516-.106.517 3.702.517.668.516 1.418.517-.176 1.033 2.296.517-.867.517 1.149.516.386.517-.832.517-.246.516-.035.517-.492.517.844 1.033.152.517 1.183.516.176.517 1.008.517.68 1.033 2.014 1.55 1.125.517-.316.516.386.517-.328.517.059.516-.95.517-1.335.517-.597h.516l.517-1.242 1.033.176 1.034.738.516.785.517-.422.517.797.516-1.16.517-.75.517-.082.516-.61.517-1.968 1.033-.585.517-3.902.517-.468.516-1.535.517-1.09.517-1.5.516-1.91 1.034-5.342.516-1.054.517 1.148.517-2.039 1.033-5.916.517-5.928.516.867.517-.047.517-.961.516-6.14.517-2.249.517-4.674.516-8.846.517-4.721.517-3.597.516-.035.517-3.457 1.55-14 .517-3.292.516-.88.517-1.241.517-4.417.516-.105.517-5.753.517-9.197.516-2.308.517-.012.517-1.195.516 12.946.517-7.638 1.033-5.811.517-6.105.517-2.179.516.563.517-18.148.517 1.968.516-4.92.517-3.106.517.082.516-2.003.517-.281.517-1.758.516-6.08.517.562.517 2.168.516-.352.517 1.793.517-2.203.516.563.517-.832.517.597.516 5.647.517 4.136.517.082.516.574.517 3.831.517 7.311.516-.234 1.55 12.63.517.574.517 8.81.516-4.628.517-6.198.517 3.304.516-.222.517-1.687.517.164.516-6.878.517 3.785h.517l.516 2.05.517-.562.517.257.516 2.344 1.034 7.72.516 13.216 1.55 5.53.517.258.517 2.507.516 3.714.517.843.517 7.663.516-4.57.517-1.241.517.316.516.469.517-1.898 1.033 6.959.517-3.855.517-1.09.516.012.517-.843.517 1.523.516.328.517-5.096.517 8.002.516 1.452.517-.21.517.41 1.033-.809.517 9.97.516 16.168.517 1.606.517-.34.516-7.827 1.034-6.9.516-39.846.517-14.317.517-4.23.516-1.581.517 5.729.517 1.5.516 2.108.517 27.345.517-1.663.516.878 1.034.903h.516l.517-4.84.517 3.317.516-1.301.517-.644.517.585.516-1.85.517-4.652.517-22.858.516-1.617.517 13.767.517 5.12.516-.586.517-3.445.517-4.417.516 21.312.517-.973.517-.492.516-1.863.517-.421.517-.68.516-.469.517 1.594.517-7.088.516-20.011.517-5.507.517-2.495.516-1.758.517-2.237.517-7.23.516-5.447.517-4.183 1.033-3.28.517 11.927.517-2.554.516-7.393.517-4.347.517-6.96.516-.257.517.281.517-13.403 1.033-9.408.517 3.632.516-8.213.517-2.108.517 2.964.516-5.003.517-2.355.517 3.257.516 1.617.517-.363.517 3.339.516.222.517-3.304.517 4.171.516 2.964.517-8.997.517 16.625.516 1.206.517-1.359.517-3.433.516 4.617.517 1.792.517 3.503.516 2.343 1.034 3.187.516 26.549.517 5.084.517 1.066.516-.035.517 4.944.517-.89.516 2.59.517-14.365.517 4.745.516 11.716.517 14.61.517 4.019.516 5.307.517.129 1.033 9.29.517.797.517-.75.516.914 1.034.598 1.033 8.47.517 2.05.516 3.223.517 9.888.517-.07.516 1.23.517.328.517 3.597.516 2.437.517 7.393.517 2.296.516 1.57.517.316.517 3.105.516-2.496.517 5.53.517 4.077.516-2.46 1.034-.07 1.033 10.556.517.738.516-3.972.517 2.508.517-.13.516.352.517 3.14.517-1.066.516 2.003.517 1.348.517 2.062.516 1.347.517.223.517.972.516 1.746.517.48.517 3.855.516-.82 1.034-.41.516-.247 1.034 2.8.516-.199.517 1.219.517-.75.516.105.517-.316.517-1.523.516-13.66.517 1.522.517.563.516-.926.517-.082.517.48.516 1.418.517 14.985.517-.153 1.033 3.539.517-.082.516.082.517-.809.517-3.233.516-.516.517-2.32.517-.34 1.033-.128.517.668.516-1.5.517-.105.517-1.465.516.562.517.352.517 2.366.516-.269.517 4.827.517.316.516 1.781.517-1.605.517-.2.516-2.764.517-1.336.517-5.963 1.033.363.517.785 1.033.14.517 1.137.516 5.53.517-1.5.517.492.516.867.517-.292.517 2.331.516-1.113.517-1.652.517.656 1.033-2.753.517.375.516-2.648.517-1.148.517 1.605.516 7.58.517-.761.517 1.324.516.175.517 2.566.517 1.347.516-.527.517-15.746.517.176.516-.563.517-.28.517-4.418.516-1.382.517-2.402.517 8.154.516-.117.517.316.517-.27.516.212.517-.645.517.82.516-1.394.517-.68.517-.362 1.033.421.517.973.516-.54.517 1.032.517-.644.516.597.517.223.517-1.676.516.41.517-1.44.517-2.79.516-.96 1.034-.457.516.832.517-1.57.517 1.664 1.033 1.687.517-.176.516.176.517.398.517 1.535.516-1.816.517-.703.517.621.516.152.517-9.033.517 8.389.516-1.183.517 1.616.517-.011.516-1.254.517.024.517 9.02.516-8.54.517 2.46.517-6.56.516-.786.517 2.578 1.033.094.517 4.522.517-2.285.516 8.319.517.07.517-.621 1.033-.246.517-4.265.516.914.517-1.991.517.187.516 1.125.517.27.517-.013 1.033 1.664.517-.187 1.033.175.517-.27.516.048.517.258.517-.036.516-3.573.517-.433.517.925.516.539.517.012.517.878.516-.62.517 2.858.517 1.195.516-.949.517-.187.517.058.516 1.828.517-1.218.517 3.01.516.364.517.808 1.033.117.517-2.343.517 2.015.516.703.517-.129.517-2.929.516.223.517-.012.517 1.488.516.024.517-4.57.517.141.516 4.558.517-.141.517.035.516.914.517-.117.517 4.44.516-.61.517-1.909.517.035 1.033-.129.517 2.637.516-2.18.517.621.517 3.503.516.317.517.058.517-1.406.516-2.132.517 1.242.517.75.516-5.308.517-.21.517-.082.516.503 1.034-4.1 1.033 8.13 1.033.212.517-1.02.517 1.816.516 4.991.517-5.823.517-1.816.516-.175.517.011.517.89.516-2.249.517-5.225.517-2.39.516 1.289 1.55-.094.517.14.517 1.465.516.832.517-2.648 1.033.035.517-.574.517.164.516-1.84 1.034 5.332 1.033.152 1.033 5.635.517.691.517-3.83 1.033-.118 1.033.14.517-.468.517-3.468.516 1.125.517-2.695 1.033.094.517-2.706 1.033-11.529.517 1.664h0" clip-path="url(#p5f54c01083)" style="fill:none;stroke:#7516fd;stroke-width:1.5;stroke-linecap:square"/><path id="line2d_25" d="m49.83 284.4 22.217-.094 2.583-.14 2.583.07 2.067.012 7.233-.235 3.1-.457 1.55-.234 1.55-.316.517-.164 2.067-.117 2.583.152.517-.234 1.55-.176 2.583.55 1.033.176 1.034-.21 1.55-.036 1.033.153 1.033.222 2.584.363 9.816.574 2.584-.035.516-.175 2.067.035 1.033-.047.517.222 2.067.036 3.1.058 2.583-.023 8.783-.082 1.55-.059 1.034.035 3.616-.246 2.584-.082 2.066-.363 1.034-.105 1.033-.059 2.583.082 2.584-.187 2.066.093 1.034.106 1.55-.047.516.094 1.034-.024 2.066.094.517-.012 1.033.129 1.034.094.516.082h1.034l2.066-.047 2.584-.012 1.033.082 4.65.14 1.033-.14 1.55.012.517.023.517-.093 1.55.035 1.033-.094 1.55.082.517-.117 6.2-.106.516-.093 2.584.023 1.033-.152 1.033-.106 1.034-.023 1.033-.176.517-.199 1.033-.129 1.55-.597 1.55-.34 1.033-.328 1.034-.188 1.033.164.517-.07.516.129 3.1-.656.517-.188 1.55.012 1.55-.457 2.583-.187 1.034.363.516-.234.517.035.517-.2 1.033-.245 1.033-.668.517.176h.517l.516.14.517-.375 2.583-.152.517-.469.517.059 1.55-.996 2.583-.469.517.141 2.066-.445.517-.352.517.106 1.033-.153.517.153.516-.035.517.292.517-.011.516.304.517.504.517.34 1.033.281.517-.082.516.492 1.034-.012 1.033-.292.517.199.516.55 1.034.141.516-.164.517.433.517.235.516.058.517-.129 1.033.153.517.293 1.033.082 1.55.257.517.258 2.067-.058.516.011 1.034.281 1.033.668 1.55.13.517.257 1.033.059 1.033-.258.517.047.517.234.516-.328 1.034.234 1.033.48 1.55.399 1.033-.14.517-.223 1.033-.117.517-.188 1.033-.164 1.034-.387 1.55-.07 1.033-.27 1.033-.269.517-.41.517-.058.516-.211.517-.012.517-.422.516.2.517-.34 1.033-.282.517.153.517-.106.516.153.517-1.277 1.033-.082.517-.258.517-.738 1.033-.961.517.785.516-.094.517.211.517-.597.516-1.207.517.105.517-.047.516-.363.517.13.517-.177.516.434.517 1.312 1.033-.387.517.2.517-.094 1.033.21 1.55.165.517.105.516.317 1.55.07.517.199.517.469.516.27 1.034.315.516.176.517.375 1.55.644.517.317.516.14 1.55.809.517.058.517.2.516-.012.517.117.517-.035 5.683 1.71 1.033-.023.517.187.517.047 1.033-.129.517.118 2.066-.164h.517l.517.187 2.583.21.517.13 1.033-.106 5.167-.222 2.583-.469.517-.012.516-.175.517-.328 3.1-.703.517.058 1.033-.457.517-.246.516-.093.517-.293 1.033-.422.517-.305 1.55-.445.517.21 1.033.095 1.55-.528.517.047 1.033-.222 1.033.257.517.293.517.047 1.033-.082.517.305.516.094 2.584 1.206 1.033-.093 3.617.55.516.258.517.035.517-.14 2.066.292.517-.082.517.07.516.27.517.129h1.033l.517.035 1.033.469 1.55.281 2.067.375 1.55-.059 1.55.082 3.1.317 2.583.199 1.55-.012 3.617.024 2.583.07 23.25-.082 1.034-.164 1.033-.012 1.55-.27.517.024 1.55-.445.516-.387.517-.222 1.033-.856 2.067-1.16 1.55-1.757.517-.867.516-.445.517-.762 1.033-1.98.517-.867.517-.55.516-.34.517-.808.517-.422 1.033-1.699.517-1.254 1.033-1.558 1.033-.539.517-1.007.517-.188.516.762.517-.797.517-.445.516.176.517-.293.517.984.516.129.517-.61.517.516.516.843.517.141.517.914.516-.129.517.258.517.82.516.293 1.034.996.516.047 1.034 1.3.516.2.517.62.517.434.516.28.517.68.517 1.371 1.55 1.488 1.55.012.516-.13 1.55 1.02.517.54 1.033.55.517.21 1.033.739 1.034.175.516-.058 2.584.597.516.012 1.034.223.516-.059.517.211h.517l1.55.434 1.55-.422 1.55.457.516-.223 1.034.223.516.468.517.246.517.094.516-.152.517.093 1.033.012 1.034-.41 3.616.07 1.034-.117.516.082 1.034-.093.516.082.517-.07.517.07 1.033-.07 2.583.491.517.153 1.55.187.517.176h.516l1.55.304h1.034l1.033.012 1.033-.023 1.034.082 1.033.234 2.583.2.517-1.067 3.1-.035.517 1.031 1.033.047 1.55-.188 1.033-.046 1.034-.434 1.55-.176 1.033-.105 1.55-.68.517-.644.516-.094.517-.34 1.033-1.91 1.034-1.593.516-.304 1.034-1.207.516-.328 1.034-1.02.516-1.077.517-.598 1.033-1.476.517-1.582.517-.96.516-.528.517.047.517-1.218.516-.012.517-.632 1.033-.785 1.034-1.934.516.024.517-.855 1.033-.914 1.034-.235.516-.316.517-.082 1.033.188.517.28.517-.433.516-.082 1.034-.656 1.55.2 4.133 8.341 1.033 1.347.517.82.517.375.516.797.517 1.09 1.033 1.488 1.034 1.874.516.27.517.035 1.033.609 1.034-.574.516-.434.517-.257.517.246.516.468.517.258 1.55 1.125.517.164.516.035.517.445 1.033.387 1.55.422.517.351.517-.34.516-.164.517.082 1.55-.14.517-.176.516.21 1.034.013 1.55.445.516.14.517-.164 1.55-.105.517-.164.516-.047 1.55-.75 1.034-.62 1.033-.516.517-.07.516.937.517-.164.517-.469 1.033-.2.517-.643.516-.106.517-1.804.517-.574.516.117.517-.094.517-.738.516-.234.517-.54.517-.105 1.033-1.195.517-1.019 1.55-.457 1.033.059.517-.715 1.55-1.43.516-.116.517-.785 2.067-1.64 1.033-1.114.517-.199 1.55-1.992 1.033-1.745 1.033-.902.517-1.395.517-.949.516-.128 1.034 1.241.516.106.517.562.517 2.308.516 1.008.517-1.523 1.033-3.878.517-1.5.517-.351 1.033-3.726h0" clip-path="url(#p5f54c01083)" style="fill:none;stroke:#53a577;stroke-width:1.5;stroke-linecap:square"/><path id="line2d_26" d="m49.83 284.4 23.767-.094 1.033-.035 1.55-.047 1.55-.328 1.55-1.101 1.033-.996 1.034-1.312.516-.41 2.067-4.628.517-.808.516-1.406.517-.305.517-.527 1.55-3.89.516-.351.517.644.517-.398.516.035.517-.363.517-.809.516-.386 1.034-1.477.516.188.517-.281.517.047.516 1.171 1.034 1.582.516.515h.517l.517.363.516.926 1.034.89 1.033 1.77.517.785.516.28.517.434 1.033 1.125.517-.105.517.562 1.033.515.517.75.516.399 1.034 1.077 1.033-.07.517.516.516.21.517.375.517.867.516.176 1.034.152 1.033.739 1.55-.164.517.234.516-.012.517.398.517.211.516.375 1.034.153.516-.13.517.06.517-.305 1.55.457 1.033.363.517.023.516.328.517-.14 3.1.07 1.033.281.517-.058 1.033.011 1.55.047 3.617.234h1.033l2.067.082 1.033.165 3.617.082 1.55-.13 3.617.13 1.55-.2 1.55-.082.516-.093 2.067.222.517-.07 1.033.082 6.2.082.517.07 2.583-.164 5.167.14 5.166-.198 1.034-.282 2.583-.164 1.033.164.517-.117h1.55l2.067-.023 1.033-.117.517-.012 1.033-.516 1.55-.351.517-.07.516-.399 1.034.082 1.033-.48 1.033-.363.517.058 2.067-2.19h.516l.517-.293.517-1.043.516-.773.517-.34.517-1.043 2.066-1.148 1.034-2.425 1.55-1.687.516.011.517-1.323 1.55-1.43.517-.89 1.033-.692.517.211.516-1.23 1.55-5.026.517-.234.517-.41.516-1.629 1.034-1.956.516-.07 1.034-2.356.516-.257.517-.41.517-1.207.516.457.517-1.945.517-.152.516-.774.517-.48.517-.902.516-4.241 1.034-5.542.516-2.413.517-1.031.517-.446.516-2.706.517-.117.517-1.219.516 9.525 1.034 1.207 1.033-2.847 1.033-3.854h.517l.517-2.777 1.033 1.054.517-1.078.516 1.29.517-1.243.517-13.918 1.033-4.066.517-.48.516.62.517-.48.517-2.038.516.879.517 1.206.517.235.516 1.511 1.034-2.18 1.033 5.683 1.033 2.308.517-.035.517 1.008.516 1.944.517.844.517.234.516.996.517-.586 1.033.985.517.082.517 1.816.516-.188.517 1.23.517 1.969.516.199.517 4.452.517 1.898.516 1.406.517 3.503.517 1.617.516.152.517.492.517-.55.516 2.963.517 1.547 1.033 1.277.517.855.517.633 1.033 2.94.517 1.746 1.033 2.754.517-.141.516.023.517.668.517.047.516.305.517 1.523 1.033 1.523.517.304 1.033 2.59.517.445.517.14.516.715.517.305.517-.153.516.2.517.597.517 1.101 1.033.68.517-.34 2.066-.175 1.034 1.09 1.033.187.517.82.516-.012.517.316.517-.574.516.434.517.257.517-.082.516 1.055.517-.574.517-1.23.516-.75.517-1.476.517-.422.516-.574.517-2.39.517-.516.516.152.517.575 1.55.831.517-.035.516.13.517.397.517-.21 1.033-1.406.517.375.516-.551.517.223.517-.06.516-.48.517.633.517.117.516-.28 1.034.655 1.033.422.517-.07.516-.2 1.55.926.517-.328.517 1.101 1.033 1.371.517-.117.516.726.517-.187.517.48.516-.421.517.082.517-.13.516.247.517 2.202.517.164.516-.375.517.399.517.082.516.304.517.082.517-1.405 1.033 2.272.517 1.242.516.48.517-.21 1.033.316 1.034 1.687 1.033-.27.517.657.516.14.517.551.517-.351.516-.13.517.13.517 1.51.516-1.136h.517l.517.188.516 1.008.517.14.517.34.516-.797.517 1.254.517.023.516.235.517-.059.517.351.516-.082.517.797.517.094.516-.188.517.305.517.094.516.375.517.234h1.033l.517-.223.517.059.516.234.517-.011.517.363h1.033l.517.199.516-.094.517.106 1.55-.305 1.033-.105 1.034-.07.516.245 2.067.188.517.222 1.55-.035 2.583.047 1.033.164h1.034l.516.14 1.55-.257 1.034.07 1.033-.07 1.033-.363h2.067l1.033-.445.517.187.517-.14.516-.364 2.067-.094 2.067-.456h.516l1.034-.246.516-.563.517-.21.517.41h1.033l.517-.575.516-.152.517.14 1.033-1.077h1.034l.516.164.517-.235.517.047.516.563 1.034-.094h.516l1.034.34 1.55-.27h1.033l.517-.164.516.024.517-.188.517-.047.516.246 3.1-.011.517-.598h1.033l.517-.281.517-.469.516-.258.517-.69 1.033-.06h.517l.517-.234.516.551.517-.937 1.033-.844h1.034l.516-.773.517-1.031.517-.492.516-.82.517-.434h1.033l1.034-2.46.516-.68.517-.34.517-.117h1.033l1.033-1.206.517-.48.517-1.02.516-1.828h1.034l1.55-3.339 1.033-.82h1.033l.517-.855.517-.129 1.55-2.952h1.033l.517-2.402.516-.867.517.867.517-.668.516.55h1.034l.516.528.517.129.517-.668.516 1.136.517 5.12h1.033l.517.34 1.033 2.18.517.491h1.55l.517 8.014.516-7.088.517.797.517-.703.516-3.093h1.034l.516-4.652.517 7.674.517-.445.516 1.488.517-.258h1.033l.517.996 1.033 3.21.517.961.517 1.36h1.033l.517.597.516-.246.517.855.517.539h1.55l.516-.48.517.304.517-.351.516.28h1.55l.517.47.517.128 1.033-1.757.517-.656h1.033l.517-.422.516-.773.517.293.517-.27.516-.445 1.55-.082 1.034-1.347.516.21.517.446h1.033l.517-.305.517.832.516-.024.517-.28.517-.762 1.55.011.516 2.754.517-3.949.517.094.516.492h1.034l.516.14.517-3.315.517 4.323.516-.222.517.27h1.033l.517.41.517.222.516-.703.517-.258.517-.726h1.033l.517-.75.516-.504.517-.222.517.246.516-.188h1.034l1.033-.222.517.093.516-.574.517-.351 1.55-.012.517.316.516-.246.517.211.517 3.913h1.033l.517 4.195 1.033.351.517-.164.516-3.386h1.034l.516-3.093.517-.375.517.059 1.033 1.792h1.033l.517 1.113.517.75.516 1.195.517.738h1.55l.517-.351.516.258.517.117.517-.164.516.586h1.034l.516.562.517.035.517.668.516.375.517.152h1.033l.517.34.517.656.516.187.517 1.934.517.152.516-.973h.517l.517 1.43.516.27.517.784.517-1.535.516.551.517.973h1.033l.517.714.517-.632.516.48.517-.176h1.033l.517-.914.517-.375.516.387.517.2.517 1.018h1.033l.517.235.516-.879.517.094.517-.293.516-.832h1.034l.516-.305.517.809.517-.832 1.033.246h1.033l.517-.258.517.13.516.62.517-.293.517-.55 1.55-.07.516-.739.517.211.517-.433.516.187h1.034l.516-.258.517.738 1.033-.75 1.55.024.517.21.517-.995.516-.527.517.234.517-.468 2.066.093 1.55-.89h1.034l.516-.2 1.034-.023.516.457 1.55-.023.517.047 1.033.597.517-.363 1.55-.024.517.188.516-.07.517.527 1.033 1.722h1.034l1.033.55.517-.398.516.305.517-.68h1.033l.517-.222.517.234.516.715.517-.316.517.34h1.033l.517.445 1.033.234.517-1.324 1.55.023.516-.07.517-.656.517.223.516 1.452.517.282 1.55-.024.517.328.516-.562.517.14.517-.55h1.033l.517 1.054 1.55.106.516.27h1.034l.516-1.512 2.067-3.128h1.033l1.55-1.219.517-.55.517-.153h1.033l.517-.515.516-.75.517.07.517.316 1.033-.07h.517l.516.434 1.034 2.87.516-.996.517-.574h1.033l.517-.469 1.033-2.425.517 1.242.517.2h1.033l1.55.667.517.152 1.55-.023.516-.21.517.233.517.985.516-.012.517-.656h1.033l.517 1.125.517.433 1.033.187.517 1.266h1.033l.517.21.516-.304.517-.457.517.316 1.55-.011 1.033-.574.517-.164.516-1.23.517.28h1.033l.517-.374.517.586.516-.164.517.609.517-.516h1.033l.517 1.722 1.033.012.517-2.003.516.504h1.034l.516-2.918.517-1.757.517-.363.516 1.019.517-.305h1.033l.517-.445.517.445 1.033 1.36h0" clip-path="url(#p5f54c01083)" style="fill:none;stroke:#d8b009;stroke-width:1.5;stroke-linecap:square"/><path id="line2d_27" d="m49.83 284.4 33.067-.082 3.616-.152 2.584.07 4.65.094 2.583.011 185.483-.093 4.65-.809 2.584-.68 1.55-.21 1.55.105 1.033-.386 3.1-.117 1.033.058.517-.082.517.082.516-.058.517.105.517-.14.516-.258 1.034-.141.516-.082.517.129.517-.14 2.583.152.517-.164 1.033.152h1.033l1.55.328.517.117.517-.07 1.033.21 1.55-.198 1.033-.317.517-.012 1.55-.738 1.033.07.517-.023 1.033-.504.517.118.517-.024 1.033-.574.517-.012 1.033-.34 1.033-1.077.517-.352.517.012 1.033-.656.517.058.516-.585.517-.176.517-.012 1.033-.527.517.129.516-.55.517.257.517-.328.516-.07.517-.446.517-.292.516-.914.517-.035.517-.692.516-.047.517-1.066.517-.34.516-.644.517.059.517-.867.516-.399.517-.058.517.34.516-1.031.517-.223 1.033.234.517-.058.517-.832.516-.387.517-.047.517-1.23.516-1.804 1.034-1.172.516-.28.517-.704 1.033.328.517.844 1.55-1.113.517-.164 1.033.949.517-.387.516.024 1.034.878.516.809.517-.598.517.281.516.492.517.961.517.047 1.033 1.16 1.033 2.214.517.375.517.211.516 1.535.517.738.517.304.516-.082.517.036.517.667.516.457 1.55-.093 1.034.386.516.281.517.106 1.033 1.03.517.048.517.433.516.235.517-.07 1.55.163.517.434.516.094.517.234.517.012.516.257.517-.105.517.187.516-.035.517.152.517.036 1.033.785 1.033.234.517.223.517.058.516.258.517-.129.517.023.516-.164.517.106 1.033-.27.517.012.517.188.516-.188.517.223.517-.07 1.033.386.517-.07.516.129.517.34 1.033.234 1.034-.082 1.033.093 1.033.024.517.21.517-.046 1.55.328.516-.152.517.246.517-.012 1.033.445 1.033.188.517.363 1.033-.024 1.55.188.517-.188 1.55.117 1.55.024.517.27.516-.153.517.129 2.583-.129.517.164 1.033-.023.517.152h.517l1.033.223.517.011 1.033.352h.517l.516.234.517-.023 1.033.246 1.034-.047 1.033.058 7.75-.093.517-.035.516-.176 5.684-.106 2.583-.117 1.033-.281 3.1-.293 1.034-.234 1.55-.48 1.55-.352 1.033-.2 1.55-.491 2.583-1.254 1.034-.27 2.583-.304 2.067-.808 1.033-.176 2.067.445.516.059 1.034-.118 1.55-.761 1.033-.34 1.033-.152 1.034.012 1.55-.34.516-1.488.517 1.066 1.033-.668 1.55-.785.517 1.09.517-1.511 1.033-.153 3.617.211 1.033.879 1.033 1.007 1.55 2.437 1.034.774 1.033.585.517-.058 2.066.328 2.584.879.516 1.476.517-1.113.517.023 1.55.34.516-.012.517-1.16.517 1.277 1.033.235 2.067.047h1.033l5.683.796 3.1-.07 2.584.328 1.55.035 1.55-.117 1.55-.21 1.033-.013.517-.34 1.55-.187.516.234.517-.269.517.059.516.34.517.07.517.328 1.033-.633.517.094.516-.176.517.21.517-.585.516-.375.517.129 1.033.012.517.152.517-.316.516.433 1.55.035 2.584-.421 2.583.164 4.65.351h3.1l5.167.574 5.166.633 3.617.117.517.152 1.033-.047 2.583.434 1.034.328 1.033.082h.517l.516-.68h2.067l.517-.62h.516l.517.68h2.067l.516.62.517-.469 13.95-.023.517-.316 6.716-.059.517-.363 10.333-.094.517.281h3.1l.517 1.043.516-.656h3.1l.517.656.517-11.927h1.033" clip-path="url(#p5f54c01083)" style="fill:none;stroke:#103357;stroke-width:1.5;stroke-linecap:square"/><path id="line2d_28" d="m49.83 284.4 20.667-.094 2.066-.28 1.034-.411.516-.34 1.034-1.195 1.033-1.558 1.033-2.636 1.034-3.597.516-2.402.517-3.081 1.55-12.325.517-4.733 1.033-12.572 3.1-41.1 1.55-16.074 1.033-5.588.517-1.816.517-.727.516.47.517 2.155 1.033 1.16.517 2.027.517 2.975.516.82 1.034 3.949 1.55 9.607.516 2.695 2.067 13.239 2.067 10.087 1.55 5.858.516 2.543 1.034 3.96 1.033 5.26 1.55 5.682 1.033 2.777.517.258.517.82 1.033 2.636 2.067 5.624 1.55 2.32.516.55.517.761 1.033 1.945 1.034 1.71.516 1.22 1.034 1.616 1.033.82.517 1.125.516.433 1.034 1.313.516.585.517.317.517.632.516.2.517.714.517.364.516.55.517.164.517.645 1.033.55.517.047.516-.21 1.55.386 1.034.34 1.033 1.1 1.033.61 1.034.398.516.457 1.034.082.516.047 1.55.504 1.034.082.516.469 3.1.668.517-.176 1.033.27.517-.094 1.033.21.517.07.517.223.516-.14.517.035.517.176 1.033-.07.517.175.516-.047 1.034.059 3.616-.059 2.067.27 2.583.41 1.034-.117 2.066.14.517-.105 1.033.152 1.034-.012 2.066-.21 1.034-.06 2.583-.327 1.55-.574.517-.024.516-.234 1.034-.258.516-.316.517.047.517-.117 1.55-.739 1.033-.152 1.033-.832.517-.27 1.033-.233.517-.41.517-.575 1.55-.995 1.033-1.371.517-.41.516-.153 1.034-1.417.516-.926.517-.457 1.033-1.921 1.034-2.332.516-.738.517-.386 1.55-2.953.517-.574.516-.914 1.034-2.905.516-1.219.517-.656.517-1.078 1.55-2.25 1.033-1.768.517-1.828.516-.387.517-.82 1.55-1.37.517-.282.516.727.517-.668.517-1.219.516-.656 1.034-.867.516-.656.517-.902.517-.34 1.033.469.517.293 1.033.281.517.516 1.033 1.827 1.033-.96 1.034 1.687.516-.012 1.034-.949 1.033.187.517-.949 1.55-1.405.516-.422.517-.832.517-1.113 1.033-1.582.517-1.113 1.033-3.151.517-.586.516-.82 1.55-5.038.517-.984.517-1.512.516-2.437 1.034-3.456.516-1.054.517-2.027 3.1-19.144 1.55-11.587 1.55-10.38 1.033-4.148.517-2.003.517-.88 1.033-.175 1.55 4.71.517 3.679 1.55 5.377 1.55 8.916 1.033 5.519.517 4.65 1.033 6.222 2.067 11.411.516 1.746 1.034 5.143 1.55 5.472.516 2.413 2.067 7.627 1.033 4.98 1.034 3.585 1.033 3.608.517 1.547.516.972 1.55 4.78 1.55 3.105.517 1.172 1.55 2.05 1.033 1.886 2.584 3.48 1.033.785.517.117 1.033.574.517.668 1.033.574.517.422.516.89 1.034.902.516-.047 1.034.492.516.27.517-.012.517.281.516.13.517.327.517.012.516.14.517-.011 1.033.222.517-.023 1.55.41.517-.012 2.583.528.517.023.516.234 1.55.2 2.067.597 1.55.246 2.067-.035 1.033.187.517-.046 1.55.14 1.033.024.517-.047 1.55.34.516-.036.517.13 4.65-.106h2.583l.517-.047.517.07 1.55-.129 1.55-.035 1.033-.14 2.067-.059.516-.117 1.034.035.516.082.517-.234 4.133-.469 1.034-.234 2.066-.551 1.034-.422 1.033-.234 1.55-.492.517-.012.516-.246 1.55-1.277.517-.152 1.033-.656 1.034-.024.516.106.517-.035.517-.27.516-.094 2.067-.949 1.033-.164.517-.129.517.07.516-.175 1.55.14 2.584.012.516-.07 2.584-1.008 1.033-.808.517-.187.516.023 2.067-.586.517.14 2.583-.714.517-.293 1.033-1.007.517-.223.516-.504 1.034.047.516.27.517.445.517-.059.516-.293.517.2.517-.434 1.033.059.517-.48.516.374 1.034.106.516.539.517.023 1.033.75 1.034.21.516.387.517.012 1.033.223.517.082.517-.047.516.386.517-.07.517.188 1.033-.106.517-.21.516-.048.517-.21 1.55-.914.517-.305 1.033-.059.517-.199 1.033-.152 1.55-.68 1.033-.703 1.034-.773.516.082.517-.34.517-.515.516.152.517-.058 1.033.539.517-.07 1.033.808 1.034.222 1.033.375 1.033.527 1.034-.21.516.527.517.351 1.033.14.517.153.517.469.516.187.517.035.517-.117 1.033.363 1.033-.421.517.316.517-.187.516.21.517-.21.517-.457.516.316 2.067-.164.517.305.516.632.517-.234.517.387.516-.235 1.034.328 1.033-.07.517.21.516-.269.517.469 1.033-.445.517.152 1.033-.012.517.047.517-.586.516.047 1.034-.925 1.033-1.383 3.1-3.374 1.033-1.582.517-.34.517-.737 2.066-1.09 1.55.305.517.445.517-.094 1.033.879.517.082 1.033.761.517-.222 1.033.996 1.033.574.517-.106.517.094.516.316.517.492.517.094.516.398.517.797 1.55 1.734.517.2 1.033.714.517-.188 1.033.528.517.023 1.55.445.516.528 1.034.328 1.033.117.517.21 1.55.317.516-.328 1.034.387.516.023.517.305 1.033-.41.517.456 1.55-.468 1.033-.41.517-.047.517-.457.516-.27 1.55-1.862.517-.211.517-.492.516-.164.517-.328.517-.106.516.059.517.175.517-.199 1.55-.878 1.033-.621.517-.364.516.024 1.034-.305 1.033-.855.517.2 1.033-.212.517.082.516-.363.517.504.517.785.516.105.517.434.517.164.516.468.517.727.517.363 1.033.363.517.352 1.033.878 1.033.739 1.034.96 1.55.703 1.033 1.031 1.033.176 1.034.656 1.033.164.517.164 1.033.785 1.033.305 1.55.972.517-.023 1.033.363.517.047 1.033.422.517.023.517.34.516.152.517.351 1.033.153.517.105.517-.047.516.2 1.034-.047 1.033.304.517-.187.516.234.517-.187.517.058.516-.152h1.034l.516-.023.517-.317h.517l2.066-.55.517-.305 1.033-.117 1.034-.574 1.55-.48.516-.153.517-.375.517-.234h.516l1.55-.996 1.55-.797 1.55-1.546 1.034-.492.516.047.517-.118.517-.492h.516l1.034-1.488.516-.023 1.034-.293.516.34.517.14 1.033 2.004 1.034.047.516.586.517.386 1.033.504.517.012 1.033.785.517.117 1.033-.07.517.152.517.468 1.033-.386.517-.258 1.033.188 1.033.445 1.034.832.516.152 1.034.668.516-.106.517.047 1.033.469.517.21.517-.035.516.094.517.41.517-.234 2.066.234 1.55.41.517-.011 2.067.375.516-.118.517.176 1.033-.058.517.035 1.033-.153 1.55.059 1.034-.281.516-.024 1.034-.386 1.033-.457.517-.117 1.033-.586 1.033-.492.517-.48.517-.282.516-.433.517-.14.517-.4 1.033-.198 1.033-.492 1.55-.422.517-.317.517-.07.516.258.517-.094.517.106h1.033l.517.164.516-.047 1.55.468.517.211.517.035 2.066.903.517-.07.517.198.516.48.517.083.517.304.516.164.517.375.517.235.516.375h.517l.517.21.516-.035 1.55.293 1.034-.176 2.583.387 1.033.188 1.034-.059.516.129 1.55-.223 1.034.153 1.033-.34 1.033-.223 2.067 2.554 1.033 1.371.517.164 2.067-1.933 1.033-.41 1.55 1.523.517.55 1.033.575 1.033.222 6.2-.093.517-10.65h0" clip-path="url(#p5f54c01083)" style="fill:none;stroke:#89f9c9;stroke-width:1.5;stroke-linecap:square"/><g id="text_17" style="fill:#7516fd" transform="matrix(.14 0 0 -.14 624.57 237.17)"><defs><path id="DejaVuSans-55" d="M556 4666h635V1831q0-750 271-1080 272-329 882-329 606 0 878 329 272 330 272 1080v2835h634V1753q0-912-452-1378Q3225-91 2344-91q-885 0-1337 466-451 466-451 1378v2913z" transform="scale(.01563)"/><path id="DejaVuSans-53" d="M3425 4513v-616q-359 172-678 256-319 85-616 85-515 0-795-200t-280-569q0-310 186-468 186-157 705-254l381-78q706-135 1042-474t336-907q0-679-455-1029Q2797-91 1919-91q-331 0-705 75-373 75-773 222v650q384-215 753-325 369-109 725-109 540 0 834 212 294 213 294 607 0 343-211 537t-692 291l-385 75q-706 140-1022 440-315 300-315 835 0 619 436 975t1201 356q329 0 669-60 341-59 697-177z" transform="scale(.01563)"/></defs><use xlink:href="#DejaVuSans-55"/><use xlink:href="#DejaVuSans-53" x="73.193"/></g><g id="text_18" style="fill:#53a577" transform="matrix(.14 0 0 -.14 624.57 251.17)"><defs><path id="DejaVuSans-4a" d="M628 4666h631V325q0-844-320-1225T-91-1281h-240v531h197q418 0 590 235 172 234 172 840v4341z" transform="scale(.01563)"/><path id="DejaVuSans-61" d="M2194 1759q-697 0-966-159t-269-544q0-306 202-486 202-179 548-179 479 0 768 339t289 901v128h-572zm1147 238V0h-575v531q-197-318-491-470T1556-91q-537 0-855 302-317 302-317 808 0 590 395 890 396 300 1180 300h807v57q0 397-261 614t-733 217q-300 0-585-72-284-72-546-216v532q315 122 612 182 297 61 578 61 760 0 1135-394 375-393 375-1193z" transform="scale(.01563)"/><path id="DejaVuSans-70" d="M1159 525v-1856H581v4831h578v-531q182 312 458 463 277 152 661 152 638 0 1036-506 399-506 399-1331T3314 415Q2916-91 2278-91q-384 0-661 152-276 152-458 464zm1957 1222q0 634-261 995t-717 361q-457 0-718-361t-261-995q0-634 261-995t718-361q456 0 717 361t261 995z" transform="scale(.01563)"/><path id="DejaVuSans-6e" d="M3513 2113V0h-575v2094q0 497-194 743-194 247-581 247-466 0-735-297-269-296-269-809V0H581v3500h578v-544q207 316 486 472 280 156 646 156 603 0 912-373 310-373 310-1098z" transform="scale(.01563)"/></defs><use xlink:href="#DejaVuSans-4a"/><use xlink:href="#DejaVuSans-61" x="29.492"/><use xlink:href="#DejaVuSans-70" x="90.771"/><use xlink:href="#DejaVuSans-61" x="154.248"/><use xlink:href="#DejaVuSans-6e" x="215.527"/></g><g id="text_19" style="fill:#d8b009" transform="matrix(.14 0 0 -.14 624.57 265.17)"><defs><path id="DejaVuSans-47" d="M3809 666v1253H2778v519h1656V434q-365-259-806-392-440-133-940-133-1094 0-1712 639-617 640-617 1780 0 1144 617 1783 618 639 1712 639 456 0 867-113 411-112 758-331v-672q-350 297-744 447t-828 150q-857 0-1287-478-429-478-429-1425 0-944 429-1422 430-478 1287-478 334 0 596 58 263 58 472 180z" transform="scale(.01563)"/><path id="DejaVuSans-65" d="M3597 1894v-281H953q38-594 358-905t892-311q331 0 642 81t618 244V178Q3153 47 2828-22t-659-69q-838 0-1327 487-489 488-489 1320 0 859 464 1363 464 505 1252 505 706 0 1117-455 411-454 411-1235zm-575 169q-6 471-264 752-258 282-683 282-481 0-770-272t-333-766l2050 4z" transform="scale(.01563)"/><path id="DejaVuSans-72" d="M2631 2963q-97 56-211 82-114 27-251 27-488 0-749-317t-261-911V0H581v3500h578v-544q182 319 472 473 291 155 707 155 59 0 131-8 72-7 159-23l3-590z" transform="scale(.01563)"/><path id="DejaVuSans-6d" d="M3328 2828q216 388 516 572t706 184q547 0 844-383 297-382 297-1088V0h-578v2094q0 503-179 746-178 244-543 244-447 0-707-297-259-296-259-809V0h-578v2094q0 506-178 748t-550 242q-441 0-701-298-259-298-259-808V0H581v3500h578v-544q197 322 472 475t653 153q382 0 649-194 267-193 395-562z" transform="scale(.01563)"/><path id="DejaVuSans-79" d="M2059-325q-243-625-475-815-231-191-618-191H506v481h338q237 0 368 113 132 112 291 531l103 262L191 3500h609L1894 763l1094 2737h609L2059-325z" transform="scale(.01563)"/></defs><use xlink:href="#DejaVuSans-47"/><use xlink:href="#DejaVuSans-65" x="77.49"/><use xlink:href="#DejaVuSans-72" x="139.014"/><use xlink:href="#DejaVuSans-6d" x="178.377"/><use xlink:href="#DejaVuSans-61" x="275.789"/><use xlink:href="#DejaVuSans-6e" x="337.068"/><use xlink:href="#DejaVuSans-79" x="400.447"/></g><g id="text_20" style="fill:#103357" transform="matrix(.14 0 0 -.14 624.57 279.17)"><defs><path id="DejaVuSans-54" d="M-19 4666h3947v-532H2272V0h-634v4134H-19v532z" transform="scale(.01563)"/><path id="DejaVuSans-68" d="M3513 2113V0h-575v2094q0 497-194 743-194 247-581 247-466 0-735-297-269-296-269-809V0H581v4863h578V2956q207 316 486 472 280 156 646 156 603 0 912-373 310-373 310-1098z" transform="scale(.01563)"/><path id="DejaVuSans-69" d="M603 3500h575V0H603v3500zm0 1363h575v-729H603v729z" transform="scale(.01563)"/><path id="DejaVuSans-6c" d="M603 4863h575V0H603v4863z" transform="scale(.01563)"/><path id="DejaVuSans-64" d="M2906 2969v1894h575V0h-575v525q-181-312-458-464-276-152-664-152-634 0-1033 506-398 507-398 1332t398 1331q399 506 1033 506 388 0 664-152 277-151 458-463zM947 1747q0-634 261-995t717-361q456 0 718 361 263 361 263 995t-263 995q-262 361-718 361t-717-361q-261-361-261-995z" transform="scale(.01563)"/></defs><use xlink:href="#DejaVuSans-54"/><use xlink:href="#DejaVuSans-68" x="61.084"/><use xlink:href="#DejaVuSans-61" x="124.463"/><use xlink:href="#DejaVuSans-69" x="185.742"/><use xlink:href="#DejaVuSans-6c" x="213.525"/><use xlink:href="#DejaVuSans-61" x="241.309"/><use xlink:href="#DejaVuSans-6e" x="302.588"/><use xlink:href="#DejaVuSans-64" x="365.967"/></g><g id="text_21" style="fill:#89f9c9" transform="matrix(.14 0 0 -.14 624.57 293.17)"><defs><path id="DejaVuSans-74" d="M1172 4494v-994h1184v-447H1172V1153q0-428 117-550t477-122h590V0h-590q-666 0-919 248-253 249-253 905v1900H172v447h422v994h578z" transform="scale(.01563)"/><path id="DejaVuSans-4b" d="M628 4666h631V2694l2094 1972h813L1850 2491 4331 0h-831L1259 2247V0H628v4666z" transform="scale(.01563)"/><path id="DejaVuSans-67" d="M2906 1791q0 625-258 968-257 344-723 344-462 0-720-344-258-343-258-968 0-622 258-966t720-344q466 0 723 344 258 344 258 966zm575-1357q0-893-397-1329-396-436-1215-436-303 0-572 45t-522 139v559q253-137 500-202 247-66 503-66 566 0 847 295t281 892v285q-178-310-456-463T1784 0Q1141 0 747 490 353 981 353 1791q0 812 394 1302 394 491 1037 491 388 0 666-153t456-462v531h575V434z" transform="scale(.01563)"/><path id="DejaVuSans-6f" d="M1959 3097q-462 0-731-361t-269-989q0-628 267-989 268-361 733-361 460 0 728 362 269 363 269 988 0 622-269 986-268 364-728 364zm0 487q750 0 1178-488 429-487 429-1349 0-859-429-1349Q2709-91 1959-91q-753 0-1180 489-426 490-426 1349 0 862 426 1349 427 488 1180 488z" transform="scale(.01563)"/></defs><use xlink:href="#DejaVuSans-55"/><use xlink:href="#DejaVuSans-6e" x="73.193"/><use xlink:href="#DejaVuSans-69" x="136.572"/><use xlink:href="#DejaVuSans-74" x="164.355"/><use xlink:href="#DejaVuSans-65" x="203.564"/><use xlink:href="#DejaVuSans-64" x="265.088"/><use xlink:href="#DejaVuSans-20" x="328.564"/><use xlink:href="#DejaVuSans-4b" x="360.352"/><use xlink:href="#DejaVuSans-69" x="425.928"/><use xlink:href="#DejaVuSans-6e" x="453.711"/><use xlink:href="#DejaVuSans-67" x="517.09"/><use xlink:href="#DejaVuSans-64" x="580.566"/><use xlink:href="#DejaVuSans-6f" x="644.043"/><use xlink:href="#DejaVuSans-6d" x="705.225"/></g></g></g><defs><clipPath id="p5f54c01083"><path d="M49.83 7.2h558v277.2h-558z"/></clipPath></defs></svg>