<svg xmlns="http://www.w3.org/2000/svg" xmlns:xlink="http://www.w3.org/1999/xlink" width="928.157" height="416.199" viewBox="0 0 696.117 312.149"><defs><style>*{stroke-linejoin:round;stroke-linecap:butt}</style></defs><g id="figure_1"><path id="patch_1" d="M0 312.15h696.117V0H0v312.15z" style="fill:none"/><g id="axes_1"><path id="patch_2" d="M49.83 284.4h558V7.2h-558v277.2z" style="fill:none"/><g id="matplotlib.axis_1"><g id="xtick_1"><g id="line2d_1"><defs><path id="m35bfb36c64" d="M0 0v3.5" style="stroke:#b0b0b0;stroke-width:.4"/></defs><use xlink:href="#m35bfb36c64" x="100.023" y="284.4" style="fill:#b0b0b0;stroke:#b0b0b0;stroke-width:.4"/></g><g id="text_1" style="fill:#b0b0b0" transform="matrix(.14 0 0 -.14 70.775 302.038)"><defs><path id="DejaVuSans-32" d="M1228 531h2203V0H469v531q359 372 979 998 621 627 780 809 303 340 423 576 121 236 121 464 0 372-261 606-261 235-680 235-297 0-627-103-329-103-704-313v638q381 153 712 231 332 78 607 78 725 0 1156-363 431-362 431-968 0-288-108-546-107-257-392-607-78-91-497-524-418-433-1181-1211z" transform="scale(.01563)"/><path id="DejaVuSans-30" d="M2034 4250q-487 0-733-480-245-479-245-1442 0-959 245-1439 246-480 733-480 491 0 736 480 246 480 246 1439 0 963-246 1442-245 480-736 480zm0 500q785 0 1199-621 414-620 414-1801 0-1178-414-1799Q2819-91 2034-91q-784 0-1198 620-414 621-414 1799 0 1181 414 1801 414 621 1198 621z" transform="scale(.01563)"/><path id="DejaVuSans-2d" d="M313 2009h1684v-512H313v512z" transform="scale(.01563)"/><path id="DejaVuSans-35" d="M691 4666h2478v-532H1269V2991q137 47 274 70 138 23 276 23 781 0 1237-428 457-428 457-1159 0-753-469-1171Q2575-91 1722-91q-294 0-599 50Q819 9 494 109v635q281-153 581-228t634-75q541 0 856 284 316 284 316 772 0 487-316 771-315 285-856 285-253 0-505-56-251-56-513-175v2344z" transform="scale(.01563)"/></defs><use xlink:href="#DejaVuSans-32"/><use xlink:href="#DejaVuSans-30" x="63.623"/><use xlink:href="#DejaVuSans-32" x="127.246"/><use xlink:href="#DejaVuSans-30" x="190.869"/><use xlink:href="#DejaVuSans-2d" x="254.492"/><use xlink:href="#DejaVuSans-30" x="290.576"/><use xlink:href="#DejaVuSans-35" x="354.199"/></g></g><g id="xtick_2"><use xlink:href="#m35bfb36c64" id="line2d_2" x="165.702" y="284.4" style="fill:#b0b0b0;stroke:#b0b0b0;stroke-width:.4"/><g id="text_2" style="fill:#b0b0b0" transform="matrix(.14 0 0 -.14 136.454 302.038)"><defs><path id="DejaVuSans-39" d="M703 97v575q238-113 481-172 244-59 479-59 625 0 954 420 330 420 377 1277-181-269-460-413-278-144-615-144-700 0-1108 423-408 424-408 1159 0 718 425 1152 425 435 1131 435 810 0 1236-621 427-620 427-1801 0-1103-524-1761Q2575-91 1691-91q-238 0-482 47Q966 3 703 97zm1256 1978q425 0 673 290 249 291 249 798 0 503-249 795-248 292-673 292t-673-292q-248-292-248-795 0-507 248-798 248-290 673-290z" transform="scale(.01563)"/></defs><use xlink:href="#DejaVuSans-32"/><use xlink:href="#DejaVuSans-30" x="63.623"/><use xlink:href="#DejaVuSans-32" x="127.246"/><use xlink:href="#DejaVuSans-30" x="190.869"/><use xlink:href="#DejaVuSans-2d" x="254.492"/><use xlink:href="#DejaVuSans-30" x="290.576"/><use xlink:href="#DejaVuSans-39" x="354.199"/></g></g><g id="xtick_3"><use xlink:href="#m35bfb36c64" id="line2d_3" x="230.846" y="284.4" style="fill:#b0b0b0;stroke:#b0b0b0;stroke-width:.4"/><g id="text_3" style="fill:#b0b0b0" transform="matrix(.14 0 0 -.14 201.598 302.038)"><defs><path id="DejaVuSans-31" d="M794 531h1031v3560L703 3866v575l1116 225h631V531h1031V0H794v531z" transform="scale(.01563)"/></defs><use xlink:href="#DejaVuSans-32"/><use xlink:href="#DejaVuSans-30" x="63.623"/><use xlink:href="#DejaVuSans-32" x="127.246"/><use xlink:href="#DejaVuSans-31" x="190.869"/><use xlink:href="#DejaVuSans-2d" x="254.492"/><use xlink:href="#DejaVuSans-30" x="290.576"/><use xlink:href="#DejaVuSans-31" x="354.199"/></g></g><g id="xtick_4"><use xlink:href="#m35bfb36c64" id="line2d_4" x="294.923" y="284.4" style="fill:#b0b0b0;stroke:#b0b0b0;stroke-width:.4"/><g id="text_4" style="fill:#b0b0b0" transform="matrix(.14 0 0 -.14 265.675 302.038)"><use xlink:href="#DejaVuSans-32"/><use xlink:href="#DejaVuSans-30" x="63.623"/><use xlink:href="#DejaVuSans-32" x="127.246"/><use xlink:href="#DejaVuSans-31" x="190.869"/><use xlink:href="#DejaVuSans-2d" x="254.492"/><use xlink:href="#DejaVuSans-30" x="290.576"/><use xlink:href="#DejaVuSans-35" x="354.199"/></g></g><g id="xtick_5"><use xlink:href="#m35bfb36c64" id="line2d_5" x="360.601" y="284.4" style="fill:#b0b0b0;stroke:#b0b0b0;stroke-width:.4"/><g id="text_5" style="fill:#b0b0b0" transform="matrix(.14 0 0 -.14 331.353 302.038)"><use xlink:href="#DejaVuSans-32"/><use xlink:href="#DejaVuSans-30" x="63.623"/><use xlink:href="#DejaVuSans-32" x="127.246"/><use xlink:href="#DejaVuSans-31" x="190.869"/><use xlink:href="#DejaVuSans-2d" x="254.492"/><use xlink:href="#DejaVuSans-30" x="290.576"/><use xlink:href="#DejaVuSans-39" x="354.199"/></g></g><g id="xtick_6"><use xlink:href="#m35bfb36c64" id="line2d_6" x="425.746" y="284.4" style="fill:#b0b0b0;stroke:#b0b0b0;stroke-width:.4"/><g id="text_6" style="fill:#b0b0b0" transform="matrix(.14 0 0 -.14 396.498 302.038)"><use xlink:href="#DejaVuSans-32"/><use xlink:href="#DejaVuSans-30" x="63.623"/><use xlink:href="#DejaVuSans-32" x="127.246"/><use xlink:href="#DejaVuSans-32" x="190.869"/><use xlink:href="#DejaVuSans-2d" x="254.492"/><use xlink:href="#DejaVuSans-30" x="290.576"/><use xlink:href="#DejaVuSans-31" x="354.199"/></g></g><g id="xtick_7"><use xlink:href="#m35bfb36c64" id="line2d_7" x="489.822" y="284.4" style="fill:#b0b0b0;stroke:#b0b0b0;stroke-width:.4"/><g id="text_7" style="fill:#b0b0b0" transform="matrix(.14 0 0 -.14 460.574 302.038)"><use xlink:href="#DejaVuSans-32"/><use xlink:href="#DejaVuSans-30" x="63.623"/><use xlink:href="#DejaVuSans-32" x="127.246"/><use xlink:href="#DejaVuSans-32" x="190.869"/><use xlink:href="#DejaVuSans-2d" x="254.492"/><use xlink:href="#DejaVuSans-30" x="290.576"/><use xlink:href="#DejaVuSans-35" x="354.199"/></g></g><g id="xtick_8"><use xlink:href="#m35bfb36c64" id="line2d_8" x="555.501" y="284.4" style="fill:#b0b0b0;stroke:#b0b0b0;stroke-width:.4"/><g id="text_8" style="fill:#b0b0b0" transform="matrix(.14 0 0 -.14 526.253 302.038)"><use xlink:href="#DejaVuSans-32"/><use xlink:href="#DejaVuSans-30" x="63.623"/><use xlink:href="#DejaVuSans-32" x="127.246"/><use xlink:href="#DejaVuSans-32" x="190.869"/><use xlink:href="#DejaVuSans-2d" x="254.492"/><use xlink:href="#DejaVuSans-30" x="290.576"/><use xlink:href="#DejaVuSans-39" x="354.199"/></g></g></g><g id="matplotlib.axis_2"><g id="ytick_1"><path id="line2d_9" d="M49.83 284.4h558" clip-path="url(#p8687be10c2)" style="fill:none;stroke:#b0b0b0;stroke-width:.3;stroke-linecap:square"/><g id="line2d_10"><defs><path id="m69f96ebb35" d="M0 0h-3.5" style="stroke:#b0b0b0;stroke-width:.3"/></defs><use xlink:href="#m69f96ebb35" x="49.83" y="284.4" style="fill:#b0b0b0;stroke:#b0b0b0;stroke-width:.3"/></g><use xlink:href="#DejaVuSans-30" id="text_9" style="fill:#b0b0b0" transform="matrix(.14 0 0 -.14 33.922 289.719)"/></g><g id="ytick_2"><path id="line2d_11" d="M49.83 243.394h558" clip-path="url(#p8687be10c2)" style="fill:none;stroke:#b0b0b0;stroke-width:.3;stroke-linecap:square"/><use xlink:href="#m69f96ebb35" id="line2d_12" x="49.83" y="243.394" style="fill:#b0b0b0;stroke:#b0b0b0;stroke-width:.3"/><g id="text_10" style="fill:#b0b0b0" transform="matrix(.14 0 0 -.14 16.108 248.713)"><use xlink:href="#DejaVuSans-35"/><use xlink:href="#DejaVuSans-30" x="63.623"/><use xlink:href="#DejaVuSans-30" x="127.246"/></g></g><g id="ytick_3"><path id="line2d_13" d="M49.83 202.388h558" clip-path="url(#p8687be10c2)" style="fill:none;stroke:#b0b0b0;stroke-width:.3;stroke-linecap:square"/><use xlink:href="#m69f96ebb35" id="line2d_14" x="49.83" y="202.388" style="fill:#b0b0b0;stroke:#b0b0b0;stroke-width:.3"/><g id="text_11" style="fill:#b0b0b0" transform="matrix(.14 0 0 -.14 7.2 207.707)"><use xlink:href="#DejaVuSans-31"/><use xlink:href="#DejaVuSans-30" x="63.623"/><use xlink:href="#DejaVuSans-30" x="127.246"/><use xlink:href="#DejaVuSans-30" x="190.869"/></g></g><g id="ytick_4"><path id="line2d_15" d="M49.83 161.382h558" clip-path="url(#p8687be10c2)" style="fill:none;stroke:#b0b0b0;stroke-width:.3;stroke-linecap:square"/><use xlink:href="#m69f96ebb35" id="line2d_16" x="49.83" y="161.382" style="fill:#b0b0b0;stroke:#b0b0b0;stroke-width:.3"/><g id="text_12" style="fill:#b0b0b0" transform="matrix(.14 0 0 -.14 7.2 166.701)"><use xlink:href="#DejaVuSans-31"/><use xlink:href="#DejaVuSans-35" x="63.623"/><use xlink:href="#DejaVuSans-30" x="127.246"/><use xlink:href="#DejaVuSans-30" x="190.869"/></g></g><g id="ytick_5"><path id="line2d_17" d="M49.83 120.376h558" clip-path="url(#p8687be10c2)" style="fill:none;stroke:#b0b0b0;stroke-width:.3;stroke-linecap:square"/><use xlink:href="#m69f96ebb35" id="line2d_18" x="49.83" y="120.376" style="fill:#b0b0b0;stroke:#b0b0b0;stroke-width:.3"/><g id="text_13" style="fill:#b0b0b0" transform="matrix(.14 0 0 -.14 7.2 125.695)"><use xlink:href="#DejaVuSans-32"/><use xlink:href="#DejaVuSans-30" x="63.623"/><use xlink:href="#DejaVuSans-30" x="127.246"/><use xlink:href="#DejaVuSans-30" x="190.869"/></g></g><g id="ytick_6"><path id="line2d_19" d="M49.83 79.37h558" clip-path="url(#p8687be10c2)" style="fill:none;stroke:#b0b0b0;stroke-width:.3;stroke-linecap:square"/><use xlink:href="#m69f96ebb35" id="line2d_20" x="49.83" y="79.37" style="fill:#b0b0b0;stroke:#b0b0b0;stroke-width:.3"/><g id="text_14" style="fill:#b0b0b0" transform="matrix(.14 0 0 -.14 7.2 84.69)"><use xlink:href="#DejaVuSans-32"/><use xlink:href="#DejaVuSans-35" x="63.623"/><use xlink:href="#DejaVuSans-30" x="127.246"/><use xlink:href="#DejaVuSans-30" x="190.869"/></g></g><g id="ytick_7"><path id="line2d_21" d="M49.83 38.364h558" clip-path="url(#p8687be10c2)" style="fill:none;stroke:#b0b0b0;stroke-width:.3;stroke-linecap:square"/><use xlink:href="#m69f96ebb35" id="line2d_22" x="49.83" y="38.364" style="fill:#b0b0b0;stroke:#b0b0b0;stroke-width:.3"/><g id="text_15" style="fill:#b0b0b0" transform="matrix(.14 0 0 -.14 7.2 43.683)"><defs><path id="DejaVuSans-33" d="M2597 2516q453-97 707-404 255-306 255-756 0-690-475-1069Q2609-91 1734-91q-293 0-604 58T488 141v609q262-153 574-231 313-78 654-78 593 0 904 234t311 681q0 413-289 645-289 233-804 233h-544v519h569q465 0 712 186t247 536q0 359-255 551-254 193-729 193-260 0-557-57-297-56-653-174v562q360 100 674 150t592 50q719 0 1137-327 419-326 419-882 0-388-222-655t-631-370z" transform="scale(.01563)"/></defs><use xlink:href="#DejaVuSans-33"/><use xlink:href="#DejaVuSans-30" x="63.623"/><use xlink:href="#DejaVuSans-30" x="127.246"/><use xlink:href="#DejaVuSans-30" x="190.869"/></g></g></g><path id="line2d_23" d="m49.83 284.4 18.689-.082 2.67-.152 1.068-.012 1.068-.117 1.602-.211 1.068-.668 1.068-1.37 1.601-3.633.534-1.874.534-2.414.534-3.198 1.068-8.916.534-7.147.534-5.002.534-6.093.534-9.794 1.068-28.54 1.602-33.754.534-12.372.534-17.89.534-6.034 1.602-23.163 1.068-5.834.534 1.464.534-5.53.534.809.534 1.288.534 1.887.534-.984.534-3.34.534.34.534 1.863.534-2.823.534.468.533 2.39.534 6.467.534 9.362.534 2.577.534 1.066.534 2.765.534 2.156.534-.047.534 2.484.534 1.37 1.068 1.242.534 3.351.534 1.3.534 3.187.534 2.367.534 4.03 1.068 14.212 1.068 3.257.534 3.538.534 2.18.534-2.297.534 1.921.534 2.637.534 6.877.534 4.967.534 1.067.534 2.062.534 7.287.534 9.08.534.21 1.601 3.996.534.187.534-1.956.534-3.726.534 5.296.534.796.534 2.8.534 3.632.534 1.91.534 3.105.534.726.534 1.664.534 2.19.534.551.534-.796 2.67 6.795.534 2.25.534 1.675 1.602 1.101.534-.164.534 1.71.534.024.534.75.534-.047.534.094.534 2.12.534.621.534-2.237.533-.586.534 2.25h.534l.534-.165.534-6.97.534-1.641.534-3.445.534-1.476.534-5.225.534-1.804.534-.68.534 2.917.534-1.394.534.762 1.068-2.988.534-.07.534-1.031.534-2.355.534-3.081.534-1.23.534-1.957.534-.914.534-.656.534-6.795.534-1.36 1.068-5.037.534-.914.534-1.734.534.867.534 6.397.534-.457.534.14.534 1.266.533-1.453.534.316.534-1.312.534.469.534 2.038.534-1.019.534 1.804.534-.14.534.597.534-.445.534.55.534-1.757.534 9.654.534-.773.534 2.449.534.972.534 1.277.534.527.534.047.534-5.541.534-.082.534 2.026.534-.082.534.774.534-.574.534 1.827 1.068 2.215.534-.34.534 1.98.534.047.534 1.863.534 6.959.534-.539.534 1.324.533-2.238 1.068 1.148.534-1.148.534-8.412.534 1.957.534.69.534 2.157.534.831.534 1.512.534.105.534 1.992.534-1.383.534-.445.534.516.534-1.125.534-.457.534.844 1.068 3.198.534-.094 1.068 1.957.534-.762.534-1.581.534 2.413.534-.011.534-.903.534-1.464.534.293.534-1.102.534.938.534-.61.534-.972.534 1.558.533.34.534-1.664.534-.222.534-1.36 1.068-4.58 1.068-.516.534-2.144.534.352.534-.54.534-.82.534 1.477 1.068-2.917.534.386.534-.668.534-.48.534-7.065.534-.89.534-2.296.534-1.734.534-2.191.534-.773.534-2.402.534 2.167.534-4.03.534-.598.534-.105 1.068-5.366.534-.867.534-3.585.534-5.589 1.067-17.808 1.602-9.501.534-5.167.534-3.738.534 7.276.534 4.17.534 2.602.534.328.534-2.789.534-4.381.534-6.08.534-17.75 1.068-23.784.534-4.358.534-3.093.534-.457.534-1.992.534-.082.534-7.838.534-1.312.534-2.062.534-.633.534-3.526.534-8.623.534-5.893.534 4.756.534-2.706.534-1.207.534-1.535.534-5.038.534 4.359.533 6.56.534 16.766.534 9.654.534 3.14.534-.843.534-2.847.534-6.386.534-4.592 1.068-15.419.534.059.534-1.37.534.023.534-.211.534-8.775.534-22.823 1.068-15.746.534 1.862.534-9.384.534-1.324.534 2.624.534 3.949.534-4.09.534 1.254.534 3.234.534 23.08 1.068-8.552 1.068.785.534 1.827.534-2.354.534-18.465 1.067 7.276.534 2.507.534 7.803.534-1.23.534.011.534 5.19.534 2.344.534-.89.534-1.149.534 1.523.534 5.495.534 3.878 1.068 11.798 1.602 23.701.534 3.644.534 5.893.534 16.262.534 11.177.534 7.041 1.068 7.71.534-.692.534-3.081.534-7.194.534-9.478.534 1.699 1.068 9.22.534 1.453.534-1.253.534 4.042.534 8.13 1.067 10.615.534-.07.534 4.499.534 7.006.534 1.78.534 11.553.534 4.475.534 3.41.534 6.467.534 2.19.534.153.534 5.975.534 4.007.534-1.043.534 4.687.534 2.308.534-2.25.534 1.781.534 3.597.534-3.14.534 3.35.534-1.557.534-.41.534 3.104.534-.96.534.62.534 4.581 1.068 5.964.534.574.534 1.511.534 1.992.534.691.534-17.937.533 1.031 1.068-.176 1.068.399.534-.375.534 19.507.534 1.23.534.387.534.597 1.068-1.183.534.316.534.457.534-.398.534 1.253.534-.48.534.48.534.176.534 2.004.534-1.008.534.668.534-.48.534.011 1.068-.222.534-2.45.534 1.993.534 1.03.534.54.534 1.288.534.703.534.984.534 2.285 1.067 1.137 1.068 2.835 1.068-.07.534-1.184.534 1.312.534.738 1.068.762.534.75.534-.457.534 1.664.534-3.878.534-7.803.534.785.534 1.874.534.668.534 3.046.534-.047.534 4.98.534 8.423.534.211.534-2.999.534-.246.534-1.511.534 3.925.534.995.534 2.672.534-.106.534 3.702.534.668.534 1.418.534-.176 1.067 2.296.534-.867.534 1.149.534.386.534-.832.534-.246.534-.035.534-.492.534.844 1.068.152.534 1.183.534.176.534 1.008.534.68 1.068 2.014 1.602 1.125.534-.316.534.386.534-.328.534.059.534-.95.534-1.335.534-.597h.534l.534-1.242 1.068.176.534.304.534.434.534.785.533-.422.534.797.534-1.16.534-.75.534-.082.534-.61.534-1.968 1.068-.585.534-3.902.534-.468.534-1.535.534-1.09.534-1.5.534-1.91 1.068-5.342.534-1.054.534 1.148.534-2.039 1.068-5.916.534-5.928.534.867.534-.047.534-.961.534-6.14.534-2.249.534-4.674.534-8.846.534-4.721.534-3.597.534-.035.534-3.457 1.601-14 .534-3.292.534-.88.534-1.241.534-4.417.534-.105.534-5.753.534-9.197.534-2.308.534-.012.534-1.195.534 12.946.534-7.638 1.068-5.811.534-6.105.534-2.179.534.563.534-18.148.534 1.968.534-4.92.534-3.106.534.082.534-2.003.534-.281.534-1.758.534-6.08.534.562.534 2.168.534-.352.534 1.793.534-2.203.534.563.534-.832.533.597.534 5.647.534 4.136.534.082.534.574.534 3.831.534 7.311.534-.234 1.602 12.63.534.574.534 8.81.534-4.628.534-6.198.534 3.304.534-.222.534-1.687.534.164.534-6.878.534 3.785h.534l.534 2.05.534-.562.534.257.534 2.344 1.068 7.72.534 13.216 1.602 5.53.534.258.534 2.507.534 3.714.533.843.534 7.663.534-4.57.534-1.241.534.316.534.469.534-1.898 1.068 6.959.534-3.855.534-1.09.534.012.534-.843.534 1.523.534.328.534-5.096.534 8.002.534 1.452.534-.21.534.41 1.068-.809.534 9.97.534 16.168.534 1.606.534-.34.534-7.827 1.068-6.9.534-39.846.534-14.317.534-4.23.534-1.581.534 5.729.534 1.5.533 2.108.534 27.345.534-1.663.534.878 1.068.903h.534l.534-4.84.534 3.317.534-1.301.534-.644.534.585.534-1.85.534-4.652.534-22.858.534-1.617.534 13.767.534 5.12.534-.586.534-3.445.534-4.417.534 21.312.534-.973.534-.492.534-1.863.534-.421.534-.68.534-.469.534 1.606.534-7.089.534-19.999.534-5.506.534-2.496.534-1.757.534-2.238.533-7.24.534-5.448.534-4.195 1.068-3.28.534 11.927.534-2.554.534-7.393.534-4.347.534-6.96.534-.257.534.293.534-13.403 1.068-9.408.534 3.632.534-8.213.534-2.109.534 2.953.534-5.003.534-2.355.534 3.269.534 1.628.534-.363.534 3.34.534.222.534-3.304.534 4.17.534 2.953.534-9.01.534 16.637.534 1.207.534-1.359.534-3.433.533 4.616.534 1.793.534 3.503.534 2.331 1.068 3.187.534 26.549.534 5.084.534 1.066.534-.035.534 4.944.534-.89.534 2.59.534-14.365.534 4.745.534 11.716.534 14.61.534 4.019.534 5.307.534.129.534 5.202.534 4.089.534.796.534-.75.534.914 1.068.598 1.068 8.47.534 2.05.534 3.223.534 9.888.534-.07.534 1.23.534.328.533 3.597.534 2.437.534 7.393.534 2.296.534 1.57.534.316.534 3.105.534-2.496.534 5.53.534 4.077.534-2.46 1.068-.07 1.068 10.556.534.48.534-3.714.534 2.226.534.153.534.351.534 3.035.534-.961.534 2.074.534 1.277.534 2.343.534 1.066.534.223.534.913.534 1.805.534.527.534 3.808.534-.985h.534l.534-.246.534-.105 1.067 2.6.534-.128.534 1.183.534-.714.534.105.534-.34.534-1.511.534-13.45.534 1.312.534.492.534-.855.534-.082.534.469.534 1.43.534 14.855.534-.024.534 2.04.534 1.499.534-.082.534.093.534-.82.534-3.362.534-.387.534-2.472 1.068-.304.534.023.534.633.534-1.36.534-.245.534-1.336 1.068.785.534 2.378.533-.281.534 4.804.534.34.534 1.546.534-1.37.534-.2.534-2.835.534-1.266.534-6.104 1.068.738.534.551.534.059.534-.082.534 1.3.534 5.74.534-1.71.534.563.534.796.534-.292.534 2.296.534-1.078.534-1.722.534.726 1.068-2.753.534.387.534-2.39.534-1.406.534 1.5.534 7.697.534-.657.534 1.219.534.164.534 2.577.533 1.336.534-.48.534-15.805.534-.34.534-.047.534-.28.534-4.582.534-1.218.534-2.437.534 8.19.534.245.534-.047.534-.27.534.34.534-.773.534.867.534-1.44.534-.832.534-.211 1.068.445.534.96.534-.62.534 1.113.534-.516.534.469.534.21.534-1.733.534.468.534-1.652.534-2.577.534-1.078 1.068-.34.534.855.533-1.581.534 1.757 1.068 1.476.534-.058.534.187.534.364.534 1.57.534-1.91.534-.61.534.774.534.011.534-9.044.534 8.435.534-1.242.534 1.687.534-.082.534-1.323.534.082.534 9.02.534-8.575.534 2.495.534-6.572.534-.774.534 2.625 1.068.07.534 4.604.534-2.366.534 8.47.534-.082.534-.785 1.068-.105.533-4.358.534 1.007.534-1.991.534.199.534 1.347 1.068.035.534.738.534.95.534-.235 1.068.152.534-.21.534.046.534.328.534-.105.534-3.644.534-.351.534 1.277.534.199.534.023.534.902.534-.656.534 2.777.534 1.265.534-.96.534-.188.534.059.534 1.827.534-1.23.534 3.48.534-.902.534 1.605 1.068.117.533-2.331.534 2.015.534.152.534 1.219.534-3.726.534.222.534-.023.534 1.476.534.024.534-4.452.534.035.534 4.557.534-.14.534.035.534.914.534-.094.534 4.288.534-.457.534-1.898.534.035 1.068-.129.534 2.613.534-2.308.534.785.534 3.503.534.328.534.082.534-1.347.534-2.086.534 1.242.534.82.534-5.26.534-.164h.534l.533.515 1.068-3.843 1.068 8.096 1.068.211.534-1.03.534 1.721.534 5.308.534-6.128.534-1.84.534-.152.534.06.534 1.007.534-2.05.534-5.39.534-1.629h0" clip-path="url(#p8687be10c2)" style="fill:none;stroke:#7516fd;stroke-width:1.5;stroke-linecap:square"/><path id="line2d_24" d="m49.83 284.4 22.96-.094 2.67-.14 2.67.07 2.136.012 7.476-.235 3.204-.457 1.602-.234 1.602-.316.534-.164 2.135-.117 2.67.152.534-.234 1.602-.176 2.67.55 1.068.176 1.068-.21 1.602-.036 1.068.153 1.068.222 2.67.363 10.145.574 2.67-.035.534-.175 2.136.035 1.068-.047.534.222 2.136.036 3.203.058 2.67-.023 9.078-.082 1.602-.059 1.068.035 3.737-.246 2.67-.082 2.136-.363 1.068-.105 1.068-.059 2.67.082 2.67-.187 2.136.093 1.068.106 1.602-.047.533.094 1.068-.024 2.136.094.534-.012 1.068.129 1.068.094.534.082h1.068l2.136-.047 2.67-.012 1.068.082 4.806.14 1.067-.14 1.602.012.534.023.534-.093 1.602.035 1.068-.094 1.602.082.534-.117 6.408-.106.534-.093 2.67.023 1.067-.152 1.068-.106 1.068-.023 1.068-.176.534-.199 1.068-.129 1.602-.597 1.602-.34 1.068-.328 1.068-.188 1.068.164.534-.07.534.129 3.204-.656.534-.188 1.602.012 1.601-.457 2.67-.187 1.068.363.534-.234.534.035.534-.2 1.068-.245 1.068-.668.534.176h.534l.534.14.534-.375 2.67-.152.534-.469.534.059 1.602-.996 2.67-.469.533.141 2.136-.445.534-.352.534.106 1.068-.153.534.153.534-.035.534.292.534-.011.534.304.534.504.534.34 1.068.281.534-.082.534.492 1.068-.012 1.068-.292.534.199.534.55 1.068.141.534-.164.534.433.534.235.534.058.534-.129 1.067.153.534.293 1.068.082 1.602.257.534.258 2.136-.058.534.011 1.068.281 1.068.668 1.602.13.534.257 1.068.059 1.068-.258.534.047.534.234.534-.328 1.068.234 1.068.48 1.602.399 1.067-.14.534-.223 1.068-.117.534-.188 1.068-.164 1.068-.387 1.602-.07 1.068-.27 1.068-.269.534-.41.534-.058.534-.211.534-.012.534-.422.534.2.534-.34 1.068-.282.534.153.534-.106.534.153.534-1.277 1.068-.082.534-.258.534-.738 1.067-.961.534.785.534-.094.534.211.534-.597.534-1.207.534.105.534-.047.534-.363.534.13.534-.177.534.434.534 1.312 1.068-.387.534.2.534-.094 1.068.21 1.602.165.534.105.534.317 1.602.07.534.199.534.469.534.27 1.068.315.534.176.534.375 1.601.644.534.317.534.14 1.602.809.534.058.534.2.534-.012.534.117.534-.035 5.874 1.71 1.068-.023.534.187.534.047 1.068-.129.534.118 2.136-.164h.533l.534.187 2.67.21.534.13 1.068-.106 5.34-.222 2.67-.469.534-.012.534-.175.534-.328 3.204-.703.534.058 1.067-.457.534-.246.534-.093.534-.293 1.068-.422.534-.305 1.602-.445.534.21 1.068.095 1.602-.528.534.047 1.068-.222 1.068.257.534.293.534.047 1.068-.082.534.305.534.094 2.67 1.206 1.068-.093 3.737.55.534.258.534.035.534-.14 2.136.292.534-.082.534.07.534.27.534.129h1.068l.534.035 1.068.469 1.602.281 2.136.375 1.602-.059 1.601.082 3.204.317 2.67.199 1.602-.012 3.738.024 2.67.07 24.028-.082 1.068-.164 1.068-.012 1.602-.27.534.024 1.602-.445.534-.387.534-.222 1.068-.856 2.136-1.16 1.602-1.757.534-.867.534-.445.534-.762 1.068-1.98.534-.867.534-.55.534-.34.534-.808.534-.422 1.067-1.699.534-1.254 1.068-1.558 1.068-.539.534-1.007.534-.188.534.762.534-.797.534-.445.534.176.534-.293.534.984.534.129.534-.61.534.516.534.843.534.141.534.914.534-.129.534.258.534.82.534.293 1.068.996.534.047 1.068 1.3.534.2.534.62.534.434.534.28.534.68.533 1.371 1.602 1.488 1.602.012.534-.13 1.602 1.02.534.54 1.068.55.534.21 1.068.739 1.068.175.534-.058 2.67.597.534.012 1.068.223.534-.059.534.211h.534l1.602.434 1.601-.422 1.602.457.534-.223 1.068.223.534.468.534.246.534.094.534-.152.534.093 1.068.012 1.068-.41 3.738.07 1.068-.117.534.082 1.068-.093.534.082.534-.07.534.07 1.068-.07 2.67.491.533.153 1.602.187.534.176h.534l1.602.304h1.068l1.068.012 1.068-.023 1.068.082 1.068.234 2.67.2.534-1.067 3.204-.035.533 1.031 1.068.047 1.602-.188 1.068-.046 1.068-.434 1.602-.176 1.068-.105 1.602-.68.534-.644.534-.094.534-.34 1.068-1.91 1.068-1.593.534-.304 1.068-1.207.534-.328 1.068-1.02.534-1.077.534-.598 1.068-1.476.533-1.582.534-.96.534-.528.534.047.534-1.218.534-.012.534-.632 1.068-.785 1.068-1.934.534.024.534-.855 1.068-.914 1.068-.235.534-.316.534-.082 1.068.188.534.28.534-.433.534-.082 1.068-.656 1.602.2 4.271 8.341 1.068 1.347.534.82.534.375.534.797.534 1.09 1.068 1.488 1.068 1.874.534.27.534.035 1.068.609 1.068-.574.534-.434.534-.257.534.246.534.468.534.258 1.602 1.125.534.164.534.035.534.445 1.068.387 1.602.422.533.351.534-.34.534-.164.534.082 1.602-.14.534-.176.534.21 1.068.013 1.602.445.534.14.534-.164 1.602-.105.534-.164.534-.047 1.602-.75 1.068-.62 1.068-.516.534-.07.534.937.534-.164.534-.469 1.068-.2.534-.643.533-.106.534-1.804.534-.574.534.117.534-.094.534-.738.534-.234.534-.54.534-.105 1.068-1.195.534-1.019 1.602-.457 1.068.059.534-.715h0" clip-path="url(#p8687be10c2)" style="fill:none;stroke:#53a577;stroke-width:1.5;stroke-linecap:square"/><path id="line2d_25" d="m49.83 284.4 24.563-.094 1.068-.023 1.602-.059 1.601-.328 2.136-1.581 1.068-1.172.534-.656.534-.41 2.136-4.628.534-.808.534-1.406.534-.305.534-.527 1.602-3.89.534-.351.534.644.534-.398.534.035.534-.363.534-.809.534-.386 1.068-1.477.534.188.534-.281.534.047.534 1.171 1.067 1.582.534.515h.534l.534.363.534.926 1.068.89 1.068 1.77.534.785.534.28.534.434 1.068 1.125.534-.105.534.562 1.068.515.534.75.534.399 1.068 1.077 1.068-.07.534.516.534.21.534.375.534.867.534.176 1.068.152 1.068.739 1.601-.164.534.234.534-.012.534.398.534.211.534.375 1.068.153.534-.13.534.06.534-.305 1.602.457 1.068.363.534.023.534.328.534-.14 3.204.07 1.068.281.534-.058 1.068.011 1.602.047 3.737.234h1.068l2.136.082 1.068.165 3.738.082 1.602-.13 3.738.13 1.602-.2 1.601-.082.534-.093 2.136.222.534-.07 1.068.082 6.408.082.534.07 2.67-.164 5.34.14 5.34-.198 1.067-.282 2.67-.164 1.068.164.534-.117h1.602l2.136-.023 1.068-.117.534-.012 1.068-.516 1.601-.351.534-.07.534-.399 1.068.082 1.068-.48 1.068-.363.534.058 2.136-2.19h.534l.534-.293.534-1.043.534-.773.534-.34.534-1.043 2.136-1.148 1.068-2.425 1.602-1.687.534.011.534-1.323 1.601-1.43.534-.89 1.068-.692.534.211.534-1.23 1.602-5.026.534-.234.534-.41.534-1.629 1.068-1.956.534-.07 1.068-2.356.534-.257.534-.41.534-1.207.534.457.534-1.945.534-.152.534-.774.534-.48.534-.902.534-4.241 1.068-5.542.534-2.413.534-1.031.534-.446.534-2.706.534-.117.533-1.219 1.068 10.111.534.621 1.068-2.847 1.602-5.506.534-1.125 1.068 1.054.534-1.078.534 1.29.534-1.243 1.068-16.191.534-1.793.534-.48.534.62.534-.48.534-2.038.534.879.534 1.206.534.235.534 1.511 1.068-2.18 1.068 5.683 1.068 2.308.534-.035.534 1.008.534 1.944.533.844.534.234.534.996.534-.586 1.068.985.534.082.534 1.816.534-.188.534 1.23.534 1.969.534.199.534 4.452.534 1.898.534 1.406.534 3.503.534 1.617.534.152.534.492.534-.55.534 2.963.534 1.547 1.068 1.277.534.855.534.633 1.068 2.94.534 1.746 1.068 2.754.534-.141.534.023.534.668.534.047.533.305.534 1.523 1.068 1.523.534.304 1.068 2.59.534.445.534.14.534.715.534.305.534-.153.534.2.534.597.534 1.101 1.068.68.534-.34 2.136-.175 1.068 1.09 1.068.187.534.82.534-.012.534.316.534-.574.534.434.534.257.534-.082.534 1.055.534-.574.533-1.23.534-.75.534-1.476.534-.422.534-.574.534-2.39.534-.516.534.152.534.575 1.602.831.534-.035.534.13.534.397.534-.21 1.068-1.406.534.375.534-.551.534.223.534-.06.534-.48.534.633.534.117.534-.28 1.068.655 1.068.422.534-.07.534-.2 1.602.926.533-.328.534 1.101 1.068 1.371.534-.117.534.726.534-.187.534.48.534-.421.534.082.534-.13.534.247.534 2.202.534.164.534-.375.534.399.534.082.534.304.534.082.534-1.405 1.068 2.272.534 1.242.534.48.534-.21 1.068.316 1.068 1.687 1.068-.27.534.657.534.14.534.551.534-.351.533-.13.534.13.534.351 1.068.023.534.188.534 1.008.534.14 1.068.703 2.136.293.534.351.534-.082.534.61 1.068.093.534.305.534.094.534.375.534.234.534-.223 1.602.059.534.234.534-.011.534.363.534.152 1.068.047.534-.094.533.106 2.136-.387 1.602-.094.534.246 2.136.188.534.222 1.602-.035 2.136-.082 2.136.445 1.068-.011 1.602-.258.534.07 1.068-.07h.534l1.067-.363 1.602-.059 1.602-.386.534.187.534-.14.534-.364 2.136-.094 1.602-.456.534-.246.534.152 1.068-.152.534-.563.534-.21.534.41.534-.212.534-.351.534-.012.534-.152.534.14 1.068-1.077 1.068.129.534.035.534-.235.533.047.534.563 1.068-.141.534.223 2.136.046.534-.152.534.012.534-.176 1.068.024.534-.188.534-.047.534.246.534-.117.534.082 1.602-.035.534.059.534-.598 1.602-.281.534-.469.534-.258.534-.69 2.136-.294.534.551.533-.937 1.602-1.453 1.068-.164.534-1.031.534-.492.534-.82.534-.434.534-1.007 1.068-.328.534-1.125.534-.68.534-.34.534-.117 1.602-.69 1.068-.997.534-1.019.534-1.828.534-.644.534-.34.534-.129.534-.925.534-1.3 1.068-.82.534-.88.534.118 1.068-.223 1.601-2.952.534-1.547 1.068-.855.534-.867.534.867.534-.668.534.55.534 1.125.534-.562.534-.035.534.129.534-.668.534 1.136.534.785.534 3.011.534 1.078.534.586 1.068 2.18 1.068 1.042.534-.316.534.492.534.011.534.188.534.797.534-.703.534.69.534-.983.534-.364.534.188.534.398.533-.445.534 1.488.534-.258 1.068.738.534.258 1.068 3.21.534.961.534 1.36.534.655 1.602-.304.534.855.534.539 1.602-.094.534-.387.534.305.534-.351.534.28h.534l1.068.329 1.068.27 1.068-1.758.534-.656 1.068-.504.534.082.533-.773.534.293.534-.27.534-.445 1.068-.316.534.234 1.068-1.347.534.21.534.446.534-.469.534.187.534-.023.534.832.534-.024.534-.28.534-.762.534-.059 1.068.07.534-1.042.534-.153.534.094.534.492 1.602.14 1.068 1.008.534-.222 1.068.597 1.068.082.533.223.534-.703.534-.258 1.068-1.394 1.068-.082.534-.504.534-.222.534-3.468.534 3.526 1.068-.351.534.234.534-.105.534-3.75.534 3.07.534-3.772.534 2.999.534.609.534-3.386.534-.527.534 4.194.534 1.43.534 3.28.534.27.534.023.534 3.304.534.152.534-.164.534-.902.534-2.402.534-.129.534.059.534-3.48.533 4.077.534-3.104 1.068 1.757 1.068.234.534.75.534-2.823.534 4.756h.534l.534-.293 1.068-.058.534.258.534.117.534-.164 1.068 1.054 1.602.13.534.667.534.375.534.152.534.281 1.068.059.534.656.534.187.534.34.534 1.746.534.55 1.068-.093.534.27.533.784.534.059.534-1.043 1.068.094.534.023.534 1.57.534-.632.534.48.534-.176 1.602-.058.534-1.23.534.386.534.2.534 1.018.534.223 1.068.012.534-.879.534.094.534-.293.534-.832.534-.305h1.068l.534.809.534-.832 1.068.246.534-.223 1.602.094.533.621.534-.293.534-.55 1.602-.07.534-.739.534.211.534-.433.534.187.534-.351 1.068.093.534.738 1.068-.75.534.024.534.21h1.068l.534-.995.534-.527.534.234.534-.468 1.602-.094.534.187 1.602-.89.534-.281 2.135.058.534.457 1.602.024h.534l1.068.597.534-.363.534-.024.534.188 1.602-.07.534.527.534 2.156.534-.434.534.234h1.068l.534.317.534 1.722.534-3.175.534.68.534-.223h1.068l.534.234.534-1.406.534 1.805 1.068.785 1.601.105.534.129.534-1.324 1.068-.047h1.068l.534-.656.534.223.534 1.452.534.282 1.602-.024.534.328.534-.562.534.14.534-.55.534-.305h1.068l.534 1.383.534.117.534-.035.534.27.534-.153h1.068l.534-2.168 1.602-2.32.534-.363h1.068l.533-.28 1.068-1.126.534-.152.534-.515h1.068l.534-.75.534.07.534.316.534-.07.534.434h1.068l1.068 2.87.534-.996 1.068-1.043h1.068l1.068-2.425.534 1.242 1.068.457h1.068l.534.363 1.602.176.534-.21h1.068l.533.233.534.985.534-.012.534-.656.534 1.125h1.068l.534.433 1.068.187.534 1.266.534.21h1.068l.534-.304.534-.457.534.316.534-.011h0" clip-path="url(#p8687be10c2)" style="fill:none;stroke:#d8b009;stroke-width:1.5;stroke-linecap:square"/><path id="line2d_26" d="m49.83 284.4 27.233-.07 2.135-.328 2.67-.727 1.068-.34 1.068-.656.534-.773.534-.234.534-.785.534-.188.534-.644 1.602-2.59.534-.843.534.223.534-.68.534-.316 1.068-1.793.534-.667.534-1.29.534-1.71.534-.105.534-.234 1.068 1.042.534-2.776 1.067-3.468.534-1.418.534-2.25 1.068-6.924.534-.796.534-.387.534.047.534-.715.534.012.534-1.066.534-2.578.534-1.277.534-4.932.534-3.398 1.068-4.58.534-2.777 1.068-3.351.534-1.594.534-.714.534.129.534-2.402 1.602-10.884.534-.797.534-4.054.534-2.366.534.093.534.89.534.177 1.067-2.66 1.068 4.323.534-.164.534-3.643.534-1.559.534-3.749 1.068 1.453.534-.059.534-1.429.534 2.015.534-.515 1.068 5.565.534-.656.534-1.851.534 1.16.534-1.629.534.62.534.34.534-3.854.534-1.464.534.597.534.024.534-.867.534.949.534.69.534 2.098.534-.574.534-.129.534.469.534 1.042.534.211.534-.925.533-2.578.534-.34 1.068.856.534.199.534-1.02.534.434.534-.996.534 1.5.534-.691.534-1.758.534.07.534-1.253.534-.902.534 2.05.534 1.031.534-1.066.534.785 1.068-.457.534-.164.534-.492.534-2.988.534 1.488.534.973.534.69 1.068 2.438.534-1.195.534 1.85.534.669.534.972.534-1.171.534-1.957.534-.281.533 2.132.534 1.336.534-.527.534-2.191 1.068 4.053.534-.187.534.914.534 1.218.534-.21.534-.083.534-1.85.534.245.534.059.534-.516.534-1.23.534 1.547.534.855.534 1.746.534.984 1.068 5.319.534-.809.534.633.534.89.534.621.534-1.464.534 1.382h.534l.534 3.433.534-.668.534 3.831.534 7.323.534.55.534-1.253.533.012.534-1.91.534.621.534-1.617.534-6.526.534 2.285.534 1.23.534.234.534 1.008.534.633.534-.094.534 3.374.534.352.534.867.534.07.534-.48.534.14.534.879 1.068-1.336.534.258 1.068 3.538.534-.222.534-.024.534.563.534 3.01.534.446h.534l.534.632.534.938.534 2.331.534 5.062.534-.082.534-.926.533.129.534 1.394.534.504.534-1.547.534-3.163.534 1.886.534 3.62.534.938.534.328.534.023.534.281.534 1.43.534.785.534-.54.534-.116.534 1.113.534.351.534 1.605.534 2.789.534-1.336.534-.61.534 3.539.534.75.534.152.534-.246.534 1.055.534.515 1.068-7.44.534-5.928.534.586.534-.832.534-5.624.534-2.108.534 3.315.533.738.534 4.417.534-.445.534-1.148.534.597.534 1.535 1.068-1.242.534-2.19.534-.645.534.047 1.602-1.933 1.068-2.601.534-1.254.534-.867.534-1.324.534-2.038.534-.094.534.2.534-.352.534.527.534-1.031.534-1.594.534-1.03.534-3.422.534-1.827.534.21.534-1.452 1.068-.973.534-.28 1.067 7.45.534 4.253.534.961.534.27.534-.961 1.068-5.952.534.153.534.035.534.304.534-.69.534-1.606.534-.164.534-5.881 1.068-15.56.534-2.096.534 1.241.534.739.534-.387.534 4.265.534-.633.534-.059.534-.714.534.175.534-.41.534-1.534.534-2.262.534.75.534-1.535.534-.515.534-2.507.534.058.534.691.533-1.066.534-.187.534-.55.534.316.534.784.534-1.241 1.068 3.503.534-1.922.534 2.988.534.925.534-1.148.534-.632 1.068-3.843.534.363.534-1.031.534-1.922.534 1.29.534 2.612.534 2.015.534.035.534-1.3.534-.07.534.55.534-1.172 1.068-6.139.534-1.593.534-.14.534-2.59.534-1.956.534-1.371 1.068-8.951.533-2.73.534-4.347.534-2.788 1.068-7.252.534-2.695.534-6.245 1.068-9.314.534-5.46.534.329.534-2.484.534-10.533.534-3.28 1.068-12.454.534-4.827.534-2.074 1.068-6.631.534 4.03.534.82.534-10.005.534-12.197.534-3.925.534-4.803.534-5.952.534-18.84.534-11.727.534 8.307.534 17.574.534 3.983.534 1.184.534-4.84.534 2.977.533-5.776.534-11.142.534-5.495.534-7.205.534 2.355.534 3.643.534 2.648.534 7.698.534 4.862.534-5.847.534 3.925.534-.527.534 4.804.534 2.905.534 16.871.534 3.456.534 1.3.534 2.203.534 4.406.534 3.116.534 2.168.534-11.494.534 2.12.534 6.163.534.797.534 2.988.534 1.195.534 2.823.534 5.811.534 7.909.534 1.85.534 4.031.534.164.534 8.6.534 2.226.533 3.034.534-.012.534.95.534-1.63.534.305.534-2.413.534.949.534-2.742.534.715.534 3.222.534 2.015 1.068 5.74.534.434.534 4.804.534-3.515.534-2.519.534-.28.534-1.22.534-1.757.534-.527.534 2.19.534 14.47.534 3.175.534.387.534-2.144.534-3.68.534 1.36.534-6.924.534-11.552.534-3.562.534-2.812.534 1.512.534-.434.534-3.632.533 2.238.534-3.503.534-2.706.534 1.042.534.457.534 6.819.534 5.12.534 3.233.534 5.484.534 8.06 1.068 6.76.534 1.933.534 2.355.534 1.242.534 1.547.534-1.395.534-.585.534-.879.534 2.097.534 5.612.534 2.402 1.068 10.333.534 2.414.534.082.534 1.171.534.575.534 1.382.534.972.534-1.323.534.984.534 1.335.534 3.28.533 1.594.534 2.086.534 1.148.534 2.226.534.023.534.504.534 1.054.534.317.534 1.054.534 4.757.534 1.546.534.75.534.95.534.608.534 3.527.534 2.519.534-.867.534-.586 1.068.727.534-.364.534.317.534 1.288.534.785.534 1.02h.534l.534 1.101.534 2.039.534.644 1.068-.106.534 3.527.534.656.534-.035.534 2.753.533 1.207.534 1.78.534.891.534-.21.534.644.534 1.16.534-.258.534 2.226 1.068 1.956.534-.105.534.082.534 1.148 1.068 11.74.534-.493.534 1.219 1.068-.691.534-.75.534-4.112.534-6.468.534 1.887.534-.024.534.973.534.597.534.223.534.058.534 1.594.534.398.534-.492.534.539.534-.211.534.832.534-1.687.533-.188.534.246.534 2.226.534 1.008.534.469.534-.118 1.602 4.968.534-1.64.534.445.534.879.534-.036.534 5.964.534 4.265.534-1.688.534 1.442.534-.575.534.27.534.058 1.068-4.65.534 1.241.534.703.534 1.347.534.106.534-.059.534-.28.534-.423.534 1.09.534.457.534 1.57.534-.164.534 1.218 1.067 5.811.534-.714.534.304.534-1.019.534.738.534-.2.534-.655.534-.926.534 2.273.534-2.8 1.068.012.534.586.534.761.534-1.265.534-.375.534 4.487.534 1.172.534-.364.534-.656.534-1.78.534 1.241.534-.187.534-.785.534-.234 1.068.28.534-.362.534.035 1.068 1.91.534.949.534.105.534-.164.534.762.533.328.534-.047.534.07.534 1.09.534-.13.534 1.02.534 1.734.534-.68.534.903.534.351.534-.996.534.317.534-.446.534.492.534 1.781.534-.035.534.41.534 1.254 1.068.316.534-1.289.534.34.534-.328.534.914.534-.024.534.141 1.068-.082.534 1.37.534 1.805 1.068-1.933.534-3.28.534-.504.534.468.533-1.57.534-2.214 1.068-1.406.534 2.578.534-.422 2.136-8.201.534-1.71.534-.997.534-1.347.534-1.968 1.068-6.89 1.068-8.962.534-1.183.534-2.027.534-3.21 1.068-8.014.534-2.156 1.068-3.151.534.082 1.068-8.94.534.973.534-1.933.534-.575.534 1.078.534-.539 1.067 6.21.534-1.676.534-.644.534.281.534-.82.534 1.781.534 1.265.534.48.534.832.534 4.581 1.068 3.644.534 1.02 1.602 19.178.534 1.113.534-.07 1.068.703.534-2.812.534-3.526.534-.504.534 2.753.534 3.55.534 1.137.534.14.534 1.933.534 3.28.534 1.77.534.68.534 1.171.534.223.534 1.148.533-1.043.534.844 1.068 3.491.534 1.172.534-.082.534.375.534 1.51.534.235.534.715.534.14 1.068 1.863.534-1.078 1.068 1.547.534.059.534 1.1 1.068.106.534 1.137.534.597.534.363.534 1.277.534.446.534.785.534.187.534-.012.534.469.534-1.172 1.068 1.254 1.068-.422.534-.105.533-.223.534.246.534-.257.534-1.57.534-.399.534.235.534-.153.534.61.534 2.085.534-.27.534-.117.534.61.534.035.534.398.534-1.242.534-.726.534.152.534.668.534-.668.534-.387.534-.164.534 2.32 1.068 2.93.534-4.312.534 1.101.534-1.031.534.34.534-2.789.534-1.546.534.949.534 4.3.534-.867.534.843.534-.304.533.913.534.082.534-2.46.534 1.148 1.068 1.57.534-.082 1.068-3.76.534-.165 1.068-2.847.534-.421h.534l.534 1.558.534-.469 1.602 5.003.534.422.534-4.663.534-.645.534 2.332 1.068-8.19h1.068l.534 1.933.534-1.019.534 1.64.534-2.378.534.586.534-1.851.534-.621.534 2.12.533-.937.534-4.23.534 3.34.534.21.534-.667.534-.035.534-.305.534.61 1.068-.387.534-.528 1.068.13.534-.235.534-.106 1.602 1.09.534 2.402.534-1.676.534-.128.534.023.534.422.534.047.534.421.534-2.026.534 1.991.534-.258 1.068 1.184.534.047.534.257.534-.093.534-.34.534.363.533-.82.534 3.105.534-2.507.534-.293.534 2.12.534.668.534-1.57.534 1.863.534-2.894.534 3.152.534 1.23h1.068l.534 1.324.534 2.413.534-3.28.534.574.534-.258h1.068l.534-.398.534-2.683.534 4.838.534 1.84.534-1.558h1.068l.534.726.534 2.683.534 1.336h.534l.534-1.067h1.068l.533.914 1.602-3.573.534 4.546h1.068l.534-1.594 1.068 2.566.534-1.956.534-.856h1.068l.534 1.594.534.047.534-1.078.534 2.917.534-.422h1.068l.534-2.929h.534l1.068-2.847.534 1.277h1.068l.534 1.922.534-1.008.534 2.367.534.316.534-.879h1.068l.533 2.004.534 1.007.534-3.268.534 1.242.534-.34h1.068l.534-.55.534-1.594.534.96.534-.644.534 1.219h1.068l.534-1.734.534.867.534 2.308.534.082.534-.762h1.068l.534 1.547.534.726h.534l.534-1.921.534.187h1.068l.534.738h.534l.534-1.265.534 1.652.534-.27h1.601l.534-2.905.534-.106.534.012.534-.328h1.602l.534.293.534 1.37.534-2.46.534-.34h1.068l.534-1.815.534 2.612h.534l.534-1.968h0" clip-path="url(#p8687be10c2)" style="fill:none;stroke:#42537f;stroke-width:1.5;stroke-linecap:square"/><path id="line2d_27" d="m49.83 284.4 14.417-.082 3.204-.281.534-.164 1.068-.586 1.602-1.277.534-1.5.534-.925 1.068-3.62.534-1.734.534-2.355.534-1.629 2.67-13.836.534-4.417.533-7.24 1.068-6.269.534-4.663.534-2.437 1.068-6.76 1.068-2.355.534-2.472.534-1.101 1.068-1.078.534 1.792 2.67 12.103.534 1.757.534 2.297.534.726.534 1.102.534.82.534.023.534-.422.534.996.534-.058.534 1.605.534-.024.534 1.312.534.797.534 1.652.534.715.534 1.816.533.785.534 2.027.534 1.417.534 1.781.534 1.336 1.068 3.866.534-.691.534 1.007 1.068 3.328.534-.54.534.13.534.304.534 3.28 1.068.293.534.75.534 2.039.534.14.534.012.534.48.534.235.534.937.534.117.534.399 1.068 2.554.534.398.534 1.113.534.082.534.984.534.516.534 1.007.533.504.534.094.534-.293 1.602 1.183.534-.21.534.023.534.457.534.257.534-.058.534-.281h.534l1.068.75.534-.07.534.105 1.602 1.312.534-.152.534.105 1.068.574.534.035.534.188.534.867.534.375.534.199.534.48.534.024.534.199.534-.059.534-.61.534.048.533.176.534-.153.534.176 1.602-.035.534.21.534.036.534.164 1.068-.082.534.152.534.024 1.068-.082.534-.082 1.068.07 1.068.07 1.602.293.534-.023 1.602.175.534.082 2.136-.164.534.07 1.068-.081.533.07.534-.094 1.602.152h1.602l.534-1.698 1.602-.012 1.068.035.534-.07.534 1.816 2.67-.082 4.272-.012.534-.176 3.203-.21.534.117 3.204-.024 1.068-.304 1.602-.188 1.068-.234 1.068.058.534.012.534-.117 1.602-.035 1.068-.13 1.068-.046.534-.14 1.068-.036 1.068-.117 1.068-.422.534-.14.534-.715 1.601-1.03.534-.4.534-.562.534-.984.534-.62.534-.422.534-1.219 1.068-1.488.534-1.546 1.068-1.863.534-1.266.534-1.71 1.068-2.015 1.068-3.269 1.068-5.366 1.602-4.382 1.602-8.271 1.068-2.613.534-2.519 1.602-5.026.534-.2 1.067-3.479.534-.187 1.068-2.906.534.363.534-1.98.534-1.5.534.071.534.246.534-.492.534.797.534.445.534-2.003.534.152.534.281.534-.27 1.068 3.457.534 2.167.534 1.242.534.621.534.152.534.938.534.433 1.068-4.604.534 2.39 1.068 2.144.534 1.546.534.89.534 2.555.534 1.488 1.067 4.604.534 3.421.534.55 1.602-.972.534-.585.534-.036.534-1.206.534-.492.534 1.136.534.117.534.317.534 1.652.534-1.852.534-1.394.534-.164.534-1.171 1.068.867.534-1.266.534 1.676.534.093.534-.187.534.832.534.152.534-.2 1.068.071.534-.152.534.914.534-.504 1.068 1.394.533.34.534-.059 1.068 1.512.534 1.066.534.492.534-.106.534.832.534 1.172.534.422.534-.387.534.258.534.902.534 1.64.534.352 2.67 3.737.534-.387.534.516.534-.375.534.703 1.068-.316.534-.235 1.068 1.055.534 1.113.534-.34 1.068.797.534.152 1.067-.703.534-.515.534-.317.534-.176.534-.843.534-.387.534.176.534-.398.534-.973.534-.117.534-.668.534-.421 1.068-2.637.534-.585.534-.07.534-.985 2.67-2.144.534-.832.534.246.534.036.534-.364.534.258.534-.082.534-.48.534-.281.534.046.534-.34 1.068 2.684.534-1.875.533.164.534-2.777.534.375.534-.058 1.068-1.371.534 1.851.534 1.254.534 3.386.534.398.534.937.534.492 1.068 2.238.534.234.534 1.02.534-.141.534.398 1.602.61 1.068 1.769.534 1.124.534.856.534.527 1.068 1.699.534.351.534.656 1.068.082 1.068 1.313.534.058.533.668.534.293.534 1.03 1.068 1.22.534.585.534 1.324.534.433.534-.421.534.129 1.068.597 1.068.738.534-.082.534 1.078.534.492 1.068.656 1.068 1.547.534 1.312.534.62.534.305.534-.082.534.2 1.068-.282.534-.34 1.068.106 1.068.633.534.457.534.293.533.597 1.068.68 1.068.28 1.068.634.534.316 1.068-.387.534.035 2.136-.27 1.068.54 1.068-.012 1.068.328 3.204.563.534-.106.534.047.534.164 1.068.035 1.601.211 1.068-.14.534.093.534-.047 1.068-.34.534.07 8.01-.772 1.068-.387 1.602-.387.534-.445.534-.293 1.602-.222.534-.235.534-.07 1.601.305 1.602-.375 2.136-.668.534-.024.534-.14 3.204.035 1.068.363 1.068-.058 1.068-.141 1.068.164.534-.094 2.67.352.534-.211 1.601.058.534.141h.534l.534.293 1.602.398.534.282.534.117.534.257.534-.246 1.602.118 1.068.035.534-.14.534.374.534.035.534-.117.534-.246 1.602.129.534-.293h.534l1.068.422 1.068-.363 1.068.093.534-.023 1.068.199 1.601-.469 1.068.07.534-.14.534-.316.534.035 1.068-.293.534-.258 2.67-.492.534.234.534.047.534-.117.534-.304 2.136-.317.534-.48 1.602-.024.534-.21.534-.012.534-.27.534.176.534.047.534-.316.534-.118.533.2.534-.082.534-.516 1.068-.515.534-.07.534-.247 1.068-1.019.534-.023 1.068-.68 1.068-.843.534-.2.534-.527 1.068-.492.534.188.534-.06.534-.573 1.068.258.534-.164.534.386.534-.609.534.023.534-.667.534-1.113.534-.493 1.068-1.651.534-.282.534-1.019.534-.41.533-.96 2.136-5.507.534-.703.534-1.64 1.068-1.594.534-.152.534-.293.534.246.534-.761.534-.399.534-.55 1.068-.106.534-.515.534-.094.534.035 1.068.855.534-.293.534-.644 1.068.094.534.27 1.068.269 1.068 2.202.534 1.242 1.601 1.289.534 1.242.534.058 1.068.434.534.586 1.068 1.71.534.305.534.832.534 1.417.534.492 1.068-.105.534 1.043.534.445.534.75.534-.2 1.068.89.534.903 1.602 1.828 1.068 1.101.534.223 1.068.058.534.223.534.094.534-.106.534.562.534-.082.534.118 1.067-.387.534-.633.534.223.534-.387.534.13 1.068.515.534-.2.534.27 1.068-.223 1.068-.773.534-.2 1.068.352 1.068.317.534.328.534.117.534.293 1.068-.059.534.13.534-.247.534.059 1.068.914.534-.586.534-.2.534-.808.534-.117.534.07 1.067-.386.534.222.534.41.534.809.534.152 1.068-.668.534-.082.534.399.534-.082 1.068.292 1.068.856.534-.059.534.434 1.068.21.534.258.534.117.534-.21.534.117.534-.246 1.068.562h.534l1.068.586.534.62.534-.01.534.163.534-.34.534.293.534.082.534.211.533.34.534.914.534.175.534.914.534.223 1.068-.094.534-.047.534-.246 1.068-.199.534-.152.534.012.534.34.534-.036.534.375 1.068.363 1.068.27.534-.211.534.129 1.068-.153.534-.117.534.059.534-.305 1.602-.246.534.188 1.602-.668.534.047.533-.293.534-.14 1.602-1.149.534.152 1.068-1.534.534-.399.534-.129 1.602-.96.534.175.534-.222 1.068-1.207.534-.246 1.068-.035.534.094.534-.903 1.068-1.077.534-1.043 1.068-.129.534-.2.534.739 1.068.867.534.808.534-.433 1.601.351 2.136 1.277.534-.047.534.832.534 1.254.534.2.534-.2.534.328.534.48.534.176.534-.387.534-.75.534.188.534.738.534.293.534.094 2.67 1.3.534.094.534.375 1.068.363.534.211.534.387.534-.246.534.374 1.068-.035.533.422 1.068-.293.534.34 1.068.281.534.024.534-.317 1.068.656 1.068-.058.534-.059.534.223 1.602-.082.534.351 1.068.188 1.602-.211.534.058 1.602-.843.534-.246.534-.047 1.602-.656.534-.422.534-.152.534.105 1.067-.878 1.068-.352.534.082 1.068-.457.534.633 2.136-.27.534.188 1.068 1.066.534 1.406 1.068 2.19.534-2.928.534.89h2.67l.534-2.507h3.204l.534.187h3.203l.534-.55h3.204l.534-.645h3.204" clip-path="url(#p8687be10c2)" style="fill:none;stroke:#1007e1;stroke-width:1.5;stroke-linecap:square"/><g id="text_16" style="fill:#7516fd" transform="matrix(.14 0 0 -.14 624.57 245.54)"><defs><path id="DejaVuSans-55" d="M556 4666h635V1831q0-750 271-1080 272-329 882-329 606 0 878 329 272 330 272 1080v2835h634V1753q0-912-452-1378Q3225-91 2344-91q-885 0-1337 466-451 466-451 1378v2913z" transform="scale(.01563)"/><path id="DejaVuSans-53" d="M3425 4513v-616q-359 172-678 256-319 85-616 85-515 0-795-200t-280-569q0-310 186-468 186-157 705-254l381-78q706-135 1042-474t336-907q0-679-455-1029Q2797-91 1919-91q-331 0-705 75-373 75-773 222v650q384-215 753-325 369-109 725-109 540 0 834 212 294 213 294 607 0 343-211 537t-692 291l-385 75q-706 140-1022 440-315 300-315 835 0 619 436 975t1201 356q329 0 669-60 341-59 697-177z" transform="scale(.01563)"/></defs><use xlink:href="#DejaVuSans-55"/><use xlink:href="#DejaVuSans-53" x="73.193"/></g><g id="text_17" style="fill:#53a577" transform="matrix(.14 0 0 -.14 624.57 259.54)"><defs><path id="DejaVuSans-4a" d="M628 4666h631V325q0-844-320-1225T-91-1281h-240v531h197q418 0 590 235 172 234 172 840v4341z" transform="scale(.01563)"/><path id="DejaVuSans-61" d="M2194 1759q-697 0-966-159t-269-544q0-306 202-486 202-179 548-179 479 0 768 339t289 901v128h-572zm1147 238V0h-575v531q-197-318-491-470T1556-91q-537 0-855 302-317 302-317 808 0 590 395 890 396 300 1180 300h807v57q0 397-261 614t-733 217q-300 0-585-72-284-72-546-216v532q315 122 612 182 297 61 578 61 760 0 1135-394 375-393 375-1193z" transform="scale(.01563)"/><path id="DejaVuSans-70" d="M1159 525v-1856H581v4831h578v-531q182 312 458 463 277 152 661 152 638 0 1036-506 399-506 399-1331T3314 415Q2916-91 2278-91q-384 0-661 152-276 152-458 464zm1957 1222q0 634-261 995t-717 361q-457 0-718-361t-261-995q0-634 261-995t718-361q456 0 717 361t261 995z" transform="scale(.01563)"/><path id="DejaVuSans-6e" d="M3513 2113V0h-575v2094q0 497-194 743-194 247-581 247-466 0-735-297-269-296-269-809V0H581v3500h578v-544q207 316 486 472 280 156 646 156 603 0 912-373 310-373 310-1098z" transform="scale(.01563)"/></defs><use xlink:href="#DejaVuSans-4a"/><use xlink:href="#DejaVuSans-61" x="29.492"/><use xlink:href="#DejaVuSans-70" x="90.771"/><use xlink:href="#DejaVuSans-61" x="154.248"/><use xlink:href="#DejaVuSans-6e" x="215.527"/></g><g id="text_18" style="fill:#d8b009" transform="matrix(.14 0 0 -.14 624.57 273.54)"><defs><path id="DejaVuSans-47" d="M3809 666v1253H2778v519h1656V434q-365-259-806-392-440-133-940-133-1094 0-1712 639-617 640-617 1780 0 1144 617 1783 618 639 1712 639 456 0 867-113 411-112 758-331v-672q-350 297-744 447t-828 150q-857 0-1287-478-429-478-429-1425 0-944 429-1422 430-478 1287-478 334 0 596 58 263 58 472 180z" transform="scale(.01563)"/><path id="DejaVuSans-65" d="M3597 1894v-281H953q38-594 358-905t892-311q331 0 642 81t618 244V178Q3153 47 2828-22t-659-69q-838 0-1327 487-489 488-489 1320 0 859 464 1363 464 505 1252 505 706 0 1117-455 411-454 411-1235zm-575 169q-6 471-264 752-258 282-683 282-481 0-770-272t-333-766l2050 4z" transform="scale(.01563)"/><path id="DejaVuSans-72" d="M2631 2963q-97 56-211 82-114 27-251 27-488 0-749-317t-261-911V0H581v3500h578v-544q182 319 472 473 291 155 707 155 59 0 131-8 72-7 159-23l3-590z" transform="scale(.01563)"/><path id="DejaVuSans-6d" d="M3328 2828q216 388 516 572t706 184q547 0 844-383 297-382 297-1088V0h-578v2094q0 503-179 746-178 244-543 244-447 0-707-297-259-296-259-809V0h-578v2094q0 506-178 748t-550 242q-441 0-701-298-259-298-259-808V0H581v3500h578v-544q197 322 472 475t653 153q382 0 649-194 267-193 395-562z" transform="scale(.01563)"/><path id="DejaVuSans-79" d="M2059-325q-243-625-475-815-231-191-618-191H506v481h338q237 0 368 113 132 112 291 531l103 262L191 3500h609L1894 763l1094 2737h609L2059-325z" transform="scale(.01563)"/></defs><use xlink:href="#DejaVuSans-47"/><use xlink:href="#DejaVuSans-65" x="77.49"/><use xlink:href="#DejaVuSans-72" x="139.014"/><use xlink:href="#DejaVuSans-6d" x="178.377"/><use xlink:href="#DejaVuSans-61" x="275.789"/><use xlink:href="#DejaVuSans-6e" x="337.068"/><use xlink:href="#DejaVuSans-79" x="400.447"/></g><g id="text_19" style="fill:#42537f" transform="matrix(.14 0 0 -.14 624.57 287.54)"><defs><path id="DejaVuSans-42" d="M1259 2228V519h1013q509 0 754 211 246 211 246 645 0 438-246 645-245 208-754 208H1259zm0 1919V2741h935q462 0 688 173 227 174 227 530 0 353-227 528-226 175-688 175h-935zm-631 519h1613q722 0 1112-300 391-300 391-853 0-429-200-682t-588-315q466-100 724-418 258-317 258-792 0-625-425-966Q3088 0 2303 0H628v4666z" transform="scale(.01563)"/><path id="DejaVuSans-7a" d="M353 3500h2731v-525L922 459h2162V0H275v525l2163 2516H353v459z" transform="scale(.01563)"/><path id="DejaVuSans-69" d="M603 3500h575V0H603v3500zm0 1363h575v-729H603v729z" transform="scale(.01563)"/><path id="DejaVuSans-6c" d="M603 4863h575V0H603v4863z" transform="scale(.01563)"/></defs><use xlink:href="#DejaVuSans-42"/><use xlink:href="#DejaVuSans-72" x="68.604"/><use xlink:href="#DejaVuSans-61" x="109.717"/><use xlink:href="#DejaVuSans-7a" x="170.996"/><use xlink:href="#DejaVuSans-69" x="223.486"/><use xlink:href="#DejaVuSans-6c" x="251.27"/></g><g id="text_20" style="fill:#1007e1" transform="matrix(.14 0 0 -.14 624.57 301.54)"><defs><path id="DejaVuSans-49" d="M628 4666h631V0H628v4666z" transform="scale(.01563)"/><path id="DejaVuSans-74" d="M1172 4494v-994h1184v-447H1172V1153q0-428 117-550t477-122h590V0h-590q-666 0-919 248-253 249-253 905v1900H172v447h422v994h578z" transform="scale(.01563)"/></defs><use xlink:href="#DejaVuSans-49"/><use xlink:href="#DejaVuSans-74" x="29.492"/><use xlink:href="#DejaVuSans-61" x="68.701"/><use xlink:href="#DejaVuSans-6c" x="129.98"/><use xlink:href="#DejaVuSans-79" x="157.764"/></g></g></g><defs><clipPath id="p8687be10c2"><path d="M49.83 7.2h558v277.2h-558z"/></clipPath></defs></svg>