<svg xmlns="http://www.w3.org/2000/svg" xmlns:xlink="http://www.w3.org/1999/xlink" width="985.137" height="420.129" viewBox="0 0 738.852 315.096"><defs><style>*{stroke-linejoin:round;stroke-linecap:butt}</style></defs><g id="figure_1"><path id="patch_1" d="M0 315.096h738.852V0H0v315.096z" style="fill:none"/><g id="axes_1"><path id="patch_2" d="M67.645 287.347h558v-277.2h-558v277.2z" style="fill:none"/><g id="matplotlib.axis_1"><g id="xtick_1"><g id="line2d_1"><defs><path id="m6ad1cb3723" d="M0 0v3.5" style="stroke:#b0b0b0;stroke-width:.4"/></defs><use xlink:href="#m6ad1cb3723" x="116.392" y="287.347" style="fill:#b0b0b0;stroke:#b0b0b0;stroke-width:.4"/></g><g id="text_1" style="fill:#b0b0b0" transform="matrix(.14 0 0 -.14 87.144 304.985)"><defs><path id="DejaVuSans-32" d="M1228 531h2203V0H469v531q359 372 979 998 621 627 780 809 303 340 423 576 121 236 121 464 0 372-261 606-261 235-680 235-297 0-627-103-329-103-704-313v638q381 153 712 231 332 78 607 78 725 0 1156-363 431-362 431-968 0-288-108-546-107-257-392-607-78-91-497-524-418-433-1181-1211z" transform="scale(.01563)"/><path id="DejaVuSans-30" d="M2034 4250q-487 0-733-480-245-479-245-1442 0-959 245-1439 246-480 733-480 491 0 736 480 246 480 246 1439 0 963-246 1442-245 480-736 480zm0 500q785 0 1199-621 414-620 414-1801 0-1178-414-1799Q2819-91 2034-91q-784 0-1198 620-414 621-414 1799 0 1181 414 1801 414 621 1198 621z" transform="scale(.01563)"/><path id="DejaVuSans-2d" d="M313 2009h1684v-512H313v512z" transform="scale(.01563)"/><path id="DejaVuSans-35" d="M691 4666h2478v-532H1269V2991q137 47 274 70 138 23 276 23 781 0 1237-428 457-428 457-1159 0-753-469-1171Q2575-91 1722-91q-294 0-599 50Q819 9 494 109v635q281-153 581-228t634-75q541 0 856 284 316 284 316 772 0 487-316 771-315 285-856 285-253 0-505-56-251-56-513-175v2344z" transform="scale(.01563)"/></defs><use xlink:href="#DejaVuSans-32"/><use xlink:href="#DejaVuSans-30" x="63.623"/><use xlink:href="#DejaVuSans-32" x="127.246"/><use xlink:href="#DejaVuSans-30" x="190.869"/><use xlink:href="#DejaVuSans-2d" x="254.492"/><use xlink:href="#DejaVuSans-30" x="290.576"/><use xlink:href="#DejaVuSans-35" x="354.199"/></g></g><g id="xtick_2"><use xlink:href="#m6ad1cb3723" id="line2d_2" x="180.178" y="287.347" style="fill:#b0b0b0;stroke:#b0b0b0;stroke-width:.4"/><g id="text_2" style="fill:#b0b0b0" transform="matrix(.14 0 0 -.14 150.93 304.985)"><defs><path id="DejaVuSans-39" d="M703 97v575q238-113 481-172 244-59 479-59 625 0 954 420 330 420 377 1277-181-269-460-413-278-144-615-144-700 0-1108 423-408 424-408 1159 0 718 425 1152 425 435 1131 435 810 0 1236-621 427-620 427-1801 0-1103-524-1761Q2575-91 1691-91q-238 0-482 47Q966 3 703 97zm1256 1978q425 0 673 290 249 291 249 798 0 503-249 795-248 292-673 292t-673-292q-248-292-248-795 0-507 248-798 248-290 673-290z" transform="scale(.01563)"/></defs><use xlink:href="#DejaVuSans-32"/><use xlink:href="#DejaVuSans-30" x="63.623"/><use xlink:href="#DejaVuSans-32" x="127.246"/><use xlink:href="#DejaVuSans-30" x="190.869"/><use xlink:href="#DejaVuSans-2d" x="254.492"/><use xlink:href="#DejaVuSans-30" x="290.576"/><use xlink:href="#DejaVuSans-39" x="354.199"/></g></g><g id="xtick_3"><use xlink:href="#m6ad1cb3723" id="line2d_3" x="243.446" y="287.347" style="fill:#b0b0b0;stroke:#b0b0b0;stroke-width:.4"/><g id="text_3" style="fill:#b0b0b0" transform="matrix(.14 0 0 -.14 214.198 304.985)"><defs><path id="DejaVuSans-31" d="M794 531h1031v3560L703 3866v575l1116 225h631V531h1031V0H794v531z" transform="scale(.01563)"/></defs><use xlink:href="#DejaVuSans-32"/><use xlink:href="#DejaVuSans-30" x="63.623"/><use xlink:href="#DejaVuSans-32" x="127.246"/><use xlink:href="#DejaVuSans-31" x="190.869"/><use xlink:href="#DejaVuSans-2d" x="254.492"/><use xlink:href="#DejaVuSans-30" x="290.576"/><use xlink:href="#DejaVuSans-31" x="354.199"/></g></g><g id="xtick_4"><use xlink:href="#m6ad1cb3723" id="line2d_4" x="305.677" y="287.347" style="fill:#b0b0b0;stroke:#b0b0b0;stroke-width:.4"/><g id="text_4" style="fill:#b0b0b0" transform="matrix(.14 0 0 -.14 276.429 304.985)"><use xlink:href="#DejaVuSans-32"/><use xlink:href="#DejaVuSans-30" x="63.623"/><use xlink:href="#DejaVuSans-32" x="127.246"/><use xlink:href="#DejaVuSans-31" x="190.869"/><use xlink:href="#DejaVuSans-2d" x="254.492"/><use xlink:href="#DejaVuSans-30" x="290.576"/><use xlink:href="#DejaVuSans-35" x="354.199"/></g></g><g id="xtick_5"><use xlink:href="#m6ad1cb3723" id="line2d_5" x="369.463" y="287.347" style="fill:#b0b0b0;stroke:#b0b0b0;stroke-width:.4"/><g id="text_5" style="fill:#b0b0b0" transform="matrix(.14 0 0 -.14 340.215 304.985)"><use xlink:href="#DejaVuSans-32"/><use xlink:href="#DejaVuSans-30" x="63.623"/><use xlink:href="#DejaVuSans-32" x="127.246"/><use xlink:href="#DejaVuSans-31" x="190.869"/><use xlink:href="#DejaVuSans-2d" x="254.492"/><use xlink:href="#DejaVuSans-30" x="290.576"/><use xlink:href="#DejaVuSans-39" x="354.199"/></g></g><g id="xtick_6"><use xlink:href="#m6ad1cb3723" id="line2d_6" x="432.731" y="287.347" style="fill:#b0b0b0;stroke:#b0b0b0;stroke-width:.4"/><g id="text_6" style="fill:#b0b0b0" transform="matrix(.14 0 0 -.14 403.483 304.985)"><use xlink:href="#DejaVuSans-32"/><use xlink:href="#DejaVuSans-30" x="63.623"/><use xlink:href="#DejaVuSans-32" x="127.246"/><use xlink:href="#DejaVuSans-32" x="190.869"/><use xlink:href="#DejaVuSans-2d" x="254.492"/><use xlink:href="#DejaVuSans-30" x="290.576"/><use xlink:href="#DejaVuSans-31" x="354.199"/></g></g><g id="xtick_7"><use xlink:href="#m6ad1cb3723" id="line2d_7" x="494.961" y="287.347" style="fill:#b0b0b0;stroke:#b0b0b0;stroke-width:.4"/><g id="text_7" style="fill:#b0b0b0" transform="matrix(.14 0 0 -.14 465.713 304.985)"><use xlink:href="#DejaVuSans-32"/><use xlink:href="#DejaVuSans-30" x="63.623"/><use xlink:href="#DejaVuSans-32" x="127.246"/><use xlink:href="#DejaVuSans-32" x="190.869"/><use xlink:href="#DejaVuSans-2d" x="254.492"/><use xlink:href="#DejaVuSans-30" x="290.576"/><use xlink:href="#DejaVuSans-35" x="354.199"/></g></g><g id="xtick_8"><use xlink:href="#m6ad1cb3723" id="line2d_8" x="558.747" y="287.347" style="fill:#b0b0b0;stroke:#b0b0b0;stroke-width:.4"/><g id="text_8" style="fill:#b0b0b0" transform="matrix(.14 0 0 -.14 529.5 304.985)"><use xlink:href="#DejaVuSans-32"/><use xlink:href="#DejaVuSans-30" x="63.623"/><use xlink:href="#DejaVuSans-32" x="127.246"/><use xlink:href="#DejaVuSans-32" x="190.869"/><use xlink:href="#DejaVuSans-2d" x="254.492"/><use xlink:href="#DejaVuSans-30" x="290.576"/><use xlink:href="#DejaVuSans-39" x="354.199"/></g></g><g id="xtick_9"><use xlink:href="#m6ad1cb3723" id="line2d_9" x="622.015" y="287.347" style="fill:#b0b0b0;stroke:#b0b0b0;stroke-width:.4"/><g id="text_9" style="fill:#b0b0b0" transform="matrix(.14 0 0 -.14 592.767 304.985)"><defs><path id="DejaVuSans-33" d="M2597 2516q453-97 707-404 255-306 255-756 0-690-475-1069Q2609-91 1734-91q-293 0-604 58T488 141v609q262-153 574-231 313-78 654-78 593 0 904 234t311 681q0 413-289 645-289 233-804 233h-544v519h569q465 0 712 186t247 536q0 359-255 551-254 193-729 193-260 0-557-57-297-56-653-174v562q360 100 674 150t592 50q719 0 1137-327 419-326 419-882 0-388-222-655t-631-370z" transform="scale(.01563)"/></defs><use xlink:href="#DejaVuSans-32"/><use xlink:href="#DejaVuSans-30" x="63.623"/><use xlink:href="#DejaVuSans-32" x="127.246"/><use xlink:href="#DejaVuSans-33" x="190.869"/><use xlink:href="#DejaVuSans-2d" x="254.492"/><use xlink:href="#DejaVuSans-30" x="290.576"/><use xlink:href="#DejaVuSans-31" x="354.199"/></g></g></g><g id="matplotlib.axis_2"><g id="ytick_1"><path id="line2d_10" d="M67.645 287.347h558" clip-path="url(#p58609d1040)" style="fill:none;stroke:#b0b0b0;stroke-width:.3;stroke-linecap:square"/><g id="line2d_11"><defs><path id="mea6f76bccc" d="M0 0h-3.5" style="stroke:#b0b0b0;stroke-width:.3"/></defs><use xlink:href="#mea6f76bccc" x="67.645" y="287.347" style="fill:#b0b0b0;stroke:#b0b0b0;stroke-width:.3"/></g><use xlink:href="#DejaVuSans-30" id="text_10" style="fill:#b0b0b0" transform="matrix(.14 0 0 -.14 51.737 292.666)"/></g><g id="ytick_2"><path id="line2d_12" d="M67.645 252.994h558" clip-path="url(#p58609d1040)" style="fill:none;stroke:#b0b0b0;stroke-width:.3;stroke-linecap:square"/><use xlink:href="#mea6f76bccc" id="line2d_13" x="67.645" y="252.994" style="fill:#b0b0b0;stroke:#b0b0b0;stroke-width:.3"/><g id="text_11" style="fill:#b0b0b0" transform="matrix(.14 0 0 -.14 7.2 258.312)"><use xlink:href="#DejaVuSans-31"/><use xlink:href="#DejaVuSans-30" x="63.623"/><use xlink:href="#DejaVuSans-30" x="127.246"/><use xlink:href="#DejaVuSans-30" x="190.869"/><use xlink:href="#DejaVuSans-30" x="254.492"/><use xlink:href="#DejaVuSans-30" x="318.115"/></g></g><g id="ytick_3"><path id="line2d_14" d="M67.645 218.64h558" clip-path="url(#p58609d1040)" style="fill:none;stroke:#b0b0b0;stroke-width:.3;stroke-linecap:square"/><use xlink:href="#mea6f76bccc" id="line2d_15" x="67.645" y="218.64" style="fill:#b0b0b0;stroke:#b0b0b0;stroke-width:.3"/><g id="text_12" style="fill:#b0b0b0" transform="matrix(.14 0 0 -.14 7.2 223.959)"><use xlink:href="#DejaVuSans-32"/><use xlink:href="#DejaVuSans-30" x="63.623"/><use xlink:href="#DejaVuSans-30" x="127.246"/><use xlink:href="#DejaVuSans-30" x="190.869"/><use xlink:href="#DejaVuSans-30" x="254.492"/><use xlink:href="#DejaVuSans-30" x="318.115"/></g></g><g id="ytick_4"><path id="line2d_16" d="M67.645 184.287h558" clip-path="url(#p58609d1040)" style="fill:none;stroke:#b0b0b0;stroke-width:.3;stroke-linecap:square"/><use xlink:href="#mea6f76bccc" id="line2d_17" x="67.645" y="184.287" style="fill:#b0b0b0;stroke:#b0b0b0;stroke-width:.3"/><g id="text_13" style="fill:#b0b0b0" transform="matrix(.14 0 0 -.14 7.2 189.605)"><use xlink:href="#DejaVuSans-33"/><use xlink:href="#DejaVuSans-30" x="63.623"/><use xlink:href="#DejaVuSans-30" x="127.246"/><use xlink:href="#DejaVuSans-30" x="190.869"/><use xlink:href="#DejaVuSans-30" x="254.492"/><use xlink:href="#DejaVuSans-30" x="318.115"/></g></g><g id="ytick_5"><path id="line2d_18" d="M67.645 149.933h558" clip-path="url(#p58609d1040)" style="fill:none;stroke:#b0b0b0;stroke-width:.3;stroke-linecap:square"/><use xlink:href="#mea6f76bccc" id="line2d_19" x="67.645" y="149.933" style="fill:#b0b0b0;stroke:#b0b0b0;stroke-width:.3"/><g id="text_14" style="fill:#b0b0b0" transform="matrix(.14 0 0 -.14 7.2 155.252)"><defs><path id="DejaVuSans-34" d="M2419 4116 825 1625h1594v2491zm-166 550h794V1625h666v-525h-666V0h-628v1100H313v609l1940 2957z" transform="scale(.01563)"/></defs><use xlink:href="#DejaVuSans-34"/><use xlink:href="#DejaVuSans-30" x="63.623"/><use xlink:href="#DejaVuSans-30" x="127.246"/><use xlink:href="#DejaVuSans-30" x="190.869"/><use xlink:href="#DejaVuSans-30" x="254.492"/><use xlink:href="#DejaVuSans-30" x="318.115"/></g></g><g id="ytick_6"><path id="line2d_20" d="M67.645 115.58h558" clip-path="url(#p58609d1040)" style="fill:none;stroke:#b0b0b0;stroke-width:.3;stroke-linecap:square"/><use xlink:href="#mea6f76bccc" id="line2d_21" x="67.645" y="115.579" style="fill:#b0b0b0;stroke:#b0b0b0;stroke-width:.3"/><g id="text_15" style="fill:#b0b0b0" transform="matrix(.14 0 0 -.14 7.2 120.898)"><use xlink:href="#DejaVuSans-35"/><use xlink:href="#DejaVuSans-30" x="63.623"/><use xlink:href="#DejaVuSans-30" x="127.246"/><use xlink:href="#DejaVuSans-30" x="190.869"/><use xlink:href="#DejaVuSans-30" x="254.492"/><use xlink:href="#DejaVuSans-30" x="318.115"/></g></g><g id="ytick_7"><path id="line2d_22" d="M67.645 81.226h558" clip-path="url(#p58609d1040)" style="fill:none;stroke:#b0b0b0;stroke-width:.3;stroke-linecap:square"/><use xlink:href="#mea6f76bccc" id="line2d_23" x="67.645" y="81.226" style="fill:#b0b0b0;stroke:#b0b0b0;stroke-width:.3"/><g id="text_16" style="fill:#b0b0b0" transform="matrix(.14 0 0 -.14 7.2 86.545)"><defs><path id="DejaVuSans-36" d="M2113 2584q-425 0-674-291-248-290-248-796 0-503 248-796 249-292 674-292t673 292q248 293 248 796 0 506-248 796-248 291-673 291zm1253 1979v-575q-238 112-480 171-242 60-480 60-625 0-955-422-329-422-376-1275 184 272 462 417 279 145 613 145 703 0 1111-427 408-426 408-1160 0-719-425-1154Q2819-91 2113-91q-810 0-1238 620-428 621-428 1799 0 1106 525 1764t1409 658q238 0 480-47t505-140z" transform="scale(.01563)"/></defs><use xlink:href="#DejaVuSans-36"/><use xlink:href="#DejaVuSans-30" x="63.623"/><use xlink:href="#DejaVuSans-30" x="127.246"/><use xlink:href="#DejaVuSans-30" x="190.869"/><use xlink:href="#DejaVuSans-30" x="254.492"/><use xlink:href="#DejaVuSans-30" x="318.115"/></g></g><g id="ytick_8"><path id="line2d_24" d="M67.645 46.872h558" clip-path="url(#p58609d1040)" style="fill:none;stroke:#b0b0b0;stroke-width:.3;stroke-linecap:square"/><use xlink:href="#mea6f76bccc" id="line2d_25" x="67.645" y="46.872" style="fill:#b0b0b0;stroke:#b0b0b0;stroke-width:.3"/><g id="text_17" style="fill:#b0b0b0" transform="matrix(.14 0 0 -.14 7.2 52.191)"><defs><path id="DejaVuSans-37" d="M525 4666h3000v-269L1831 0h-659l1594 4134H525v532z" transform="scale(.01563)"/></defs><use xlink:href="#DejaVuSans-37"/><use xlink:href="#DejaVuSans-30" x="63.623"/><use xlink:href="#DejaVuSans-30" x="127.246"/><use xlink:href="#DejaVuSans-30" x="190.869"/><use xlink:href="#DejaVuSans-30" x="254.492"/><use xlink:href="#DejaVuSans-30" x="318.115"/></g></g><g id="ytick_9"><path id="line2d_26" d="M67.645 12.519h558" clip-path="url(#p58609d1040)" style="fill:none;stroke:#b0b0b0;stroke-width:.3;stroke-linecap:square"/><use xlink:href="#mea6f76bccc" id="line2d_27" x="67.645" y="12.519" style="fill:#b0b0b0;stroke:#b0b0b0;stroke-width:.3"/><g id="text_18" style="fill:#b0b0b0" transform="matrix(.14 0 0 -.14 7.2 17.838)"><defs><path id="DejaVuSans-38" d="M2034 2216q-450 0-708-241-257-241-257-662 0-422 257-663 258-241 708-241t709 242q260 243 260 662 0 421-258 662-257 241-711 241zm-631 268q-406 100-633 378-226 279-226 679 0 559 398 884 399 325 1092 325 697 0 1094-325t397-884q0-400-227-679-226-278-629-378 456-106 710-416 255-309 255-755 0-679-414-1042Q2806-91 2034-91q-771 0-1186 362-414 363-414 1042 0 446 256 755 257 310 713 416zm-231 997q0-362 226-565 227-203 636-203 407 0 636 203 230 203 230 565 0 363-230 566-229 203-636 203-409 0-636-203-226-203-226-566z" transform="scale(.01563)"/></defs><use xlink:href="#DejaVuSans-38"/><use xlink:href="#DejaVuSans-30" x="63.623"/><use xlink:href="#DejaVuSans-30" x="127.246"/><use xlink:href="#DejaVuSans-30" x="190.869"/><use xlink:href="#DejaVuSans-30" x="254.492"/><use xlink:href="#DejaVuSans-30" x="318.115"/></g></g></g><path id="line2d_28" d="m67.645 287.347 35.783-.103 10.371-.02 13.484.111 22.299-.047 11.927-.207 7.78-.175 6.222.118 18.67.174 7.26-.029 12.964-.1 13.483-.49 6.742-.12 6.742-.23 2.074-.085 1.037.03 1.556-.219 1.037-.383 1.037-.38 1.038-.059 2.074.133 3.111.15 2.593.457 5.186.657 4.149.308 10.89.153 5.705-.058 5.704-.202 8.816-.587 5.705-.453 4.148-.155 1.038.16 4.667-.521 12.965 1.412 4.667.242 3.111.017 8.816-.18 2.593-.223 3.63-.453 1.038-.08 1.037-.31 1.037-.492 2.074-1.198 3.63-1.474.519.068 1.037-.267 1.556-.615.518-.139 1.038-.856 1.555-.842.519-.219 1.556-.186 1.037.097 2.074.638 1.037.55 1.556 1.025 1.037.616 2.593 1.778 1.556.685 2.074.803.519.096 1.037.397 2.593.464 1.037.065 1.556.2 2.593.193 4.667.169 22.3.158 18.669-.15 1.037-.147 1.037-.474 1.037-.77 1.037-.528.519-.527 1.037-1.483 1.556-2.401 2.074-5.366 1.037-2.61.519-1.17 3.112-9.019 1.037-1.727 1.555-3.195.52-.853.518-.584.518-.345.519-.957.518-.143.519.232.519-.009.518 1.661.519.616.518.387.519.834 1.556 1.083.518-.642 1.037.694.519.715.519.52.518 1.666.519 1.082 1.037.843.519.04.518.209.519.38.518-.444.519.096 1.037.894 1.037 1.253 2.075 1.668 1.555.527 1.556.998 1.037 1.081.519.235.518 1.511.52.812 1.036.269 1.556-.426.519-1.2.518-.6 4.667-.887 1.038-.278 2.074-.507.519.12.518.25 2.075 1.835 1.037.73.518.179 2.075.106 1.037.573.518.926.519.571.519.274.518.493 1.556 2.737 1.037-1.452 1.037-1.01 1.556-2.884.519-.005 1.555.93 1.038.314 1.037.28 1.555.538 1.038.767 3.111 2.954 1.037.934 1.038.643 1.037.393 1.555.562 1.038.225 4.148.383 1.556-.095 2.074-.288 1.038-.493 1.555-1.09 1.038-.798.518-.827 1.037-2.309 1.038-2.794.518-1.511.519-1 .518-1.951 1.556-7.452 1.037-5.259.519-1.913.518.456.519-2.848 2.074-16.757.519-2.47.518-6.367 1.038-5.101 1.037-2.331.518-1.045 1.038-1.356.518-1.969.519-.274.518-.609.519-.257.519-.425.518.09 1.556-.173.518 3.189.52 2.151.518 1.378.518-.034.519 2.274.518.93.519-.755.519-4.53.518-3.412.519-2.347.518-.12.519-2.077.519-.595.518 1.7 1.556 10.315.518 2.213.52 2.742 1.555 10.166 1.037 5.246.519 1.367 1.555 5.774 1.556 4.294.519.742 1.037 2.656 1.037 2.452 1.037 1.923.519.726.518 2.741.519 1.493.519.417.518.595.519 1.558.518.848.519-.27.519-.588.518.973.519 1.728.518 1.334.519.178.518.856.519 1.392.519.196 2.074 1.637.519.32.518.105.519 1.305.518-.203.519-.602 1.556-1.098.518-.114.519-1.432.518.096.519.47.519.246 1.037-.012.518-.073 1.556-.922 1.037-.883.519-.478.518-.27 1.038-1.849.518-1.214.519.255 1.037-2.72.519-.456 1.555-2.171.519-1.964.519-.261.518-.123.519-.291 1.555-2.54 1.038-1.083.518-.434.519-.239 1.037-2.31.519 1.546 1.037-3.313.518-1.018.519-.329.519-.68.518-.247.519-2.85.518.387.519.773.518.437.519.073.519-.107.518-.539 1.037-1.572 1.038-2.737.518-.722 1.556-5.711 1.037-2.411.519-.838 1.037-.916 1.556-2.55.518-.944.519-.659.518-.31.519-.848 1.037-.833.519 1.205 1.037 6.522.518.05 1.038 11.01.518-1.71.519-4.749 1.037-11.523h0" clip-path="url(#p58609d1040)" style="fill:none;stroke:#53a577;stroke-width:1.5;stroke-linecap:square"/><path id="line2d_29" d="m67.645 287.347 23.336-.097 2.075-.184 1.037-.312 1.556-.964 2.074-2.025.519-.6.518-.794.519-.354.518-.54.519-.773.519-1.163 1.037-1.389.518-.469 1.038-1.103.518-.185.519.224 1.037-.27 2.074.592 1.556.602 1.037.121.519-.167.518.126 1.038-.292.518.08.519-.16.518-.04.519.29 1.037.224.519.122.518-.164 1.037.307 1.556.177.519.095.518.378.519.121 1.037.474.519.028.518.212 1.556.212.519.003.518-.154.519.144.518-.136 1.038.088.518.196.519-.073 2.074.642 1.556-.12.518.065 1.038-.08.518-.328.519-.077 1.037.173 1.037.032.519-.132.518.27.519.038.518-.195.52-.056 1.555-.677 2.074-1.276.519-.436.518-.7 1.038-.998.518-.887.519-.44.518-.837 1.556-1.754.519-.771.518-.127.519-.255.518-.541.519-.103.519-.362.518-.547.519-.233 1.037-1.546.519-.307.518-.785 1.556-1.23.518.113.519-.19.519.06 1.555-.244.519.146.519-.417.518.027.519.165.518.044 1.037.35.52-.07.518.52 1.037.74.518.887.519.144 1.037.935.519.192 1.037-.67.519-.477.518.234.519-.054.518.422.519-.473.518.562.52.961 1.036 1.253 1.037.768.519 1.088.519.346 2.074.626.519-.26 1.037.187.518-.111 1.556.158.519.257 1.037-.123.518.25.519.433.519.73 1.037.581.518.188.519-.116 1.037-.954.519-.507 2.074-.773 1.037-.032 1.037-.184.519-.172 1.037.264.519.387 1.037-.48 1.037.241 1.037-.607 1.037.023.519-.132 1.037-1.102.519-.088.518-.288.519-.662 1.037-.522.519-.47.518-.275.519-.734.518.02.52-.265.518-1.265.518-.584.519-.109.518-.803.519-.579.519-1.14.518-.397.519.207.518-.806.519-1.325.519-.614.518-.904.519-.428 1.037-1.825.518-2.35.519-.677.519-1.83.518-1.4 1.556-5.755.519-.61.518-2.33.519-1.452.518-2.445.519-1.744.519-.938.518-1.784 2.074-5.22.519-.725.519-.33.518-1.406 1.037-.765.519 3.885.519-.689.518.496.519.273.518 1.27.519-1.171.518-.775.52-5.238.518-.982.518-2.573 1.037-3.745.519-1.405 1.037-1.719 1.037-.224 1.038-1.299.518.008.519-.907.518-.169.519-.47.518.87.52.219.518.63.518 1.053.519.658.518 1.356.519 5.939.519-.643.518 2.454.519 1.12.518-.044.519.101.519-5.018 1.037-5.228.518-3.29.519-.596.518-1.247.52-2.017.518 1.412.518-6.155.519.447.518-.332.519-.87.519.481.518 1.53 1.556 7.61.519 1.659 1.037 6.315 1.037 4.118.518 2.598 1.038 3.73.518.552.519.28 1.037 2.839 1.556 4.036.518.203 3.63 11.765.519 1.069.519 1.41.518.907 1.037 2.785.519 1.03.519 1.327.518 1.76.519 1.312.518 1.664.519 1.212 1.037 1.46.519.004.518-.687 1.037-.532.519-.004 1.037.31.519.29.518.745 2.075 1.684.518.497 1.556.862 1.037.57 1.037.367.519-.332.519.037 1.037-.128.518.067.519-.098 1.556.422.518-1.371.519-.255.518-.747.519-.272.519-.538.518-.895.519-.464.518.904.519-.464.519.11.518-.034.519.417 1.037-.135.519-.311.518-.147.519-.517.518-.287.519-.464.518.246.519-.85.519.039.518.276.519.08.518.737 1.038.336.518.903 1.037.898.519.986.518.053.52.462.518.813 1.037.938.518.418 1.556.73.519-.103 1.037.95 1.556 1.694.518.385.519.618 1.037.848 1.037.719 1.037.47 2.075 1.39 1.037 1.104 2.593 1.01 1.556 1.043.518.777.519.133 1.556 1.017.518-.107.519.064.518-.384.519.407.519-.08.518.17.519-.342.518.31 1.037.155.519.106.519.317 1.037.32 3.111-.114.519-.174 1.037.004.519-.149.518.16 1.556-.423.519.186.518.019.519.226.518-.738 1.038-.531.518-.853.519-.233.518-.368.519-1.006.518-.191 1.038-1.083.518-1.524.519-.198.518-.423.519-.96 1.037-1.479.519-1.202.518-2.1.519-.75.519-.404 1.037-2.675.518-1.262.519-.782.518-3.454 1.038-1.574 1.555-4.455.519-1.827.519-2.98.518-.944.519.476.518-2.498.519-.993.519-2.556.518-1.679.519 1.23 1.037-1.103 1.037-3.33 1.556-1.792.518-.948.519.123.519-.63.518-.2.519-.582.518-1.398.519.038.518.656.52-.384 1.036-2.283.519-.56 1.037.384.519-.352.518-.565.519 6.77.518-1.476 1.038 1.239.518-.323.519-.155.518.742.519-5.778.518 3.166.52.213.518.395.518 1.528.519.697.518.175.519 1.88.519 1.164.518 2.046 1.037 3.22.519.708.519-.473.518.76 1.037.904 1.037 1.898 1.556 1.71.519.867 1.037.893.519 1.191.518.463.519.257.518 2.343.519-.76.519.219.518.731.519 1.07.518-.051.519.384.518-.186.519 1.39.519.79.518.435.519.632.518.347.519.6.519-.63.518.735.519-.501 1.037.19.518-.097.52-.64 1.036-.137.519.774.518-.33 1.556-.405.519.124 1.037-.901.519 1.163.518-2.307.519-.437.518.25.519-1.164.518-.396.52-.849.518-2.503.518.877.519-.05 1.556-1.04.518.058 1.037 7.006.519.922.519-.176.518-2.17 1.037-2.522 1.037-10.016.52-1.94.518-.557.518.495.519.252.518-.612.519.708.519.022.518.505.519.15.518-.407.519-.044.519.181.518-.895.519-1.723.518-1.174.519-1.841 1.037-6.223.519-5.019.518-6.484.519-2.73.518-.33.519-4.565.519-12.997.518-9.322.519-12.93 1.037-28.81 1.037-10.614 1.037-48.746.519-8.087.518-12.077.519-18.043 1.037-20.252.519-15.31.518 2.106.519-8.748.519-1.01.518-.008.519-.409.518.356.519 34.15.518-17.054.52-2.77.518 6.623.518 2.584 1.037 10.995.519-12.33.519 31.428 1.555 33.056.519 6.207.519 8.323.518 18.355.519 8.153.518 17.168 1.037 23.935.52 4.599.518 5.679.518 9.48.519 5.522.518 6.884.519 5.05.519 7.195.518 1.732.519 1.261.518 8.628.519 5.07 1.556 10.191.518 1.014.519 1.745.518 4.305.519 1.046 1.037 3.142.519 3.45.518-.772.519.245.519-.835.518 2.1.519 1.523.518.884.519 1.129.519 1.595.518.29.519 1.736 1.037 1.619 2.074.52.519 1.325.518.292.519-.698.519-.307.518.841 1.037-.05.519-.34.518.112 1.038 1.043.518-.625 1.556.237.519-.1.518.089.519-.118.518.652.519-.115.519.345 1.037-.105.518-.088.519-.254.518-2.063.52-.05.518-.237h.518l.519-.504.518-.792.519.089.519 1.914 1.037.105.518-1.053.519-.16 1.037-1.195.519-2.68 2.074-1.418.519-1.081.518-.818.519 1.353 1.037-.38.519-1.258.518-.234.519-1.105.518-.55.519-3.328.519-.198.518.527.519-1.733.518-1.02.519-2.39.518-.84.519 2.051.519.519.518-1.302.519-2.343.518-.724.519-2.103.519-1.472.518-3.02.519-.49.518.97.519 1.37.518.079.52-.338.518.008.518 2.002.519.682.518.31.519 4.249.519-4.096.518-.893.519.646.518-2.404.519-.68.519-.453.518-4.774.519 3.948.518 1.475.519-.466.518 2.492.52-.352.518-.073.518.392.519-.162.518.675.519.092.519-1.601.518.86.519-.014.518 2.736.519-1.04.519-.025.518-.425.519 1.064.518-1.14.519-.207.518-3.152.52.662.518-.226.518-1.425.519-1.948.518 1.01.519.679.519 4.12.518-2.16.519-.514.518 1.403.519.938.519-.424.518-.79.519-6.134 1.037-.504.518-1.782.519-.759.519-.501.518-.25 1.037 3.287.519-.593.519-.015.518 1.07.519.631.518.313.519-1.212.518-.732.52-1.147.518-.078.518-1.367 1.037 1.009.519.971 1.037 3.958.519-.495.518 2.612 1.038.07.518.712.519-.434.518.205.519 1.198.518.456.52-3.37.518.14.518 1.596.519.39.518 2.92.519.673.519.938.518 3.563.519-.002 1.037-.664.519-.728.518.465.519-2.113 1.037.033 1.037 2.284.519-.13.518.437.519 2.749 1.037.068.519 3.564.518-1.813.519 1.496.518 1.154.519-1.773.519.062.518-.077.519-1.763.518 1.618 1.037 2.166.519 2.187 1.037.25 1.037 1.186.519.256.519.116.518-1.328 1.037-.12 1.556 1.47.519-.17.518 2.44 1.556.326.519.276.518.759.519 1.155.518-1.214 1.038.022.518.905.519-.268.518.326.519-.13.518 1.534.52.086.518-.058.518-.779.519.844.518.159.519.304.519-.935.518.03 1.037-.111.519-.006.519-.499.518-.094.519.773.518-.178.519.255 1.037-.528.519-.12 1.037-.973.518.188.519-.23.519.21.518.86.519-1.144.518.221.519 1.254h.519l.518.268.519-.476.518-1.395 1.037 1.225.519-2.082 1.037-.049 1.037.463.519-1.408 1.037 3.492.519.086.518-.096.519-.872.519-.546.518.023.519-3.639.518-2.06.519-.185.518.022.519.23 1.037-2.944.519-.427.518 1.345 1.038-.038.518-.077.519.086.518-.126.519-.633.518-.879 1.556.014.519.588.518-1.192 1.038 1.586 1.037.156.518 2.36.519-1.418.519 3.25.518-.396.519.06 1.037-.07.518.256.52 1.188.518-4.018 1.037-2.427.518.141.519-.082h0" clip-path="url(#p58609d1040)" style="fill:none;stroke:#7516fd;stroke-width:1.5;stroke-linecap:square"/><path id="line2d_30" d="m67.645 287.347 16.076-.105 3.63-.104 7.78.174 10.89.02 24.373.002 103.718-.262 4.667-.072 4.667.019 8.816.158 9.853.038 31.634-.068 10.372-.03 8.816.016 6.223.007 12.446.048 8.297-.125 6.223-.21 19.188-.133 6.223.052 7.779-.08 1.556.008 3.111-.265 1.556.081 4.667.202 6.223.163 3.112-.13 4.149-.152 5.704-.121 7.779-.586 3.111-.458 2.075-.331 3.111-.103 3.63.268 2.593.38 3.63.39 2.075.07 2.074-.084 2.074-.2 2.593-.704.519-.22 1.037-.743 4.149-3.733 2.074-3.758 1.556-4.27 2.074-3.734 1.038-3.92 1.037-5.064 1.037-4.375.518-2.08 1.038-7.748 2.074-10.948 1.556-5.694 1.037-9.279 1.037-7.418.519-3.127 1.037-12.363.518-.792 1.038-11.577.518-4.861.519-7.833.518-2.861.519-14.418.519-6.088.518.114.519.76.518 4.936.519.423.518-4.416.52 11.077.518 3.32.518 2.25.519.813.518 1.077.519.312 2.074 13.333.519 4.114.519 2.946.518 3.994.519 6.786.518 4.707 1.556 10.96.519 1.78.518 2.715 1.037 8.206 1.556 11.218.519 2.12 1.037 8.652.519 2.827.518 2.198 1.037 2.981.519.657 1.037 3.566.519 4.457.518-1.324 1.037 2.9.519.702 1.037 2.797.519-2.074.518 3.988.519.182 1.037-.138.519.056 1.037.566.518-.28.519.491.519.718.518.359 1.037 1.345 1.556 1.04.519.3.518.163 3.112 2.439.518.188 1.556 1.286 1.037.315 1.038.193.518.54.519.12.518-.11 1.556.454.519.059.518-.176 1.556.5 1.556.156 3.63.07 1.037-.1 1.556-.41 1.037-.326 2.074-1.762 1.556-1.294 2.074-3.94 1.038-2.01.518-.667 1.556-5.118 1.037-2.796.519-1.231.518-.47 1.037-2.432 1.556-2.321 1.037-.833.519-.61 1.037-1.925 1.556-4.327.519-.52 1.037-3.435.518-1.44 1.556-2.15.519-.334.518 3.224.519-1.42.518-2.025.519-.494.519-.238.518.425.519.149.518-3.238.519 2.036.519 3.2 1.037 3.509.518 1.258.519.78 1.556 4.987.518.567 1.037 1.426.519.275 1.037 1.679.519.437.518.988 1.038 3.967.518.03.519 2.082.518 4.195.519-4.551.518.862.519-.034.519-.321.518.86.519.464.518-2.024.519 6.496.519 1.117.518.691.519.44.518.258.519.417.519.25 2.592.46.519 1.125 1.037.18 2.075 1.121.518.047.519.206.518.082 1.037-.23 1.038-.288.518-.869 1.556.07 1.556-.594 3.111-3.01.519-.207 1.556-1.987.518-.37 1.037-.281.519-.008.519-.192 1.037-.797 2.074-2.029.519-.52.518-.202.519-.004 1.037.437 1.037.153h.519l2.074-.68 1.037-.013 3.112.364.518-.041 1.038-.66 1.037-.879 1.037-.865.519-.123 1.037-.938 2.074-.874 1.037-.081 1.556-.511 2.593.138 1.037.357 1.037.199.519.137 1.037.76 1.037.765 1.037.985.519.178h0" clip-path="url(#p58609d1040)" style="fill:none;stroke:#2f618f;stroke-width:1.5;stroke-linecap:square"/><path id="line2d_31" d="m67.645 287.077 1.037-.098 1.037-.146 1.038-.312 3.111-.312 1.037.123.519.165.518-.588.519-.145 2.593.118.519.72.518.294 1.037.132 1.556.145 5.186.105 3.111.057 8.816-.02 1.038-.083 16.076.104 24.892-.005 289.372-.054 9.853-.008h7.26l4.149-.073 3.63-.38 1.556-.521 3.63-1.65.518-3.365 1.556-7.037 1.556-9.759.519.334.518.536 1.037 1.762 1.556 6.514.519 1.903.518.219 1.037.72.519-.116 1.037.77.519.357.518.933 1.037 1.1.52.827 1.036.749.519.37 1.037.384.519.303.518.035.519.172 1.037.05 1.556-.505.518-.355 2.593-2.99 1.556-.896 1.037.187 1.037.406.519.235 1.037 1.218.519.304.518.029 2.075.714 1.037.828 1.556 1.934 1.037.917 2.074 1.031 4.667 1.218 2.593.2 8.298.252 3.111-.065 20.225-1.28 4.667-.222 4.668.08 1.037-.062 1.037-.191 3.112-.983 4.148-.1.519-.324 1.037-.11 1.037-.215 1.037-.287 3.63-.107 2.593.755 3.112.548 1.556.443 1.037.302 2.593.374 2.593.044 1.556-.272 2.074-.413 2.074.021.519.11 1.037-.007 2.593-.042 5.186-.446.518-.277.519.084 1.037-.439.519-.58.518.074.519-.394.519-.85.518-.132 1.037-1.045.519-1.311.518-.157.519-.758 1.037-2.408.519-.655.518.71.519-.834.519-.11.518-.436.519.503 1.037-1.215.519-3.424.518 2.47 1.037-3.17.519 1.411 1.037.645.519 2.149.518-1.178.519.494.518 2.044.519-.62 1.556 2.213 1.037 2.002.518.739.52 1.029.518.38.518-.614.519.288 1.556-1.141.518-.893.519-.3.518.603.519-.435.519-.15.518-.342 1.037-1.023.519-.197 1.037-.065 1.556.083.518.43.519.028h0" clip-path="url(#p58609d1040)" style="fill:none;stroke:#ae54a5;stroke-width:1.5;stroke-linecap:square"/><path id="line2d_32" d="m67.645 287.347 247.885-.077 6.741-.085 33.19.156 81.937-.009 49.266-.26 2.593-.245 1.555-.368 1.556-.6 1.037-.73 1.037-.952.519-.584.519.256.518-1.7 1.556-3.038 1.037 1.58.519-6.327.518-.483.519-1.406.518-1.739.519 1.775.519-6.328.518-3.373.519 3.3.518-.736 1.038-2.55.518-4.207.519 2.176.518-.528.519-.223.518-.814.52-.21.518.37.518-.445 2.075.727.518.054.519.244.518.897 1.556 1.673.519-.116.518.401.519.2.518.404.52-.564.518.565.518.388.519.827 1.556 1.665.518 1.273.519-.003 1.037.945 1.037 1.548.519.465 1.037 1.192.518.345 1.038 1.087 1.037.95 1.556.883 1.555 1.148 3.112 1.484 2.074.753.519.056 1.037.335 2.074.441 2.593.317 5.705.478 4.148-.063 2.593-.229 2.593-.903 2.075-.934 2.593-1.574 1.037-.583 2.593-.181 1.555-1.428.519-.363.519-.185.518-.364.519-.14 2.593.54 1.037.01 1.556-.255 1.555-.614 2.593-1.158 1.038-.126.518.065.519.399.518.123.519-.341 2.074.475.519-.169.518.381 1.038 1.206 1.037.687.518.123 1.038.493 1.555.488 1.556.609 6.223 4.15.519-.002.518.315 2.593.573.519.232.518.018 1.556.622 1.037.306 2.075.133 2.593.107 1.555.053 4.668-.448 1.037.026.518-.074 1.556-.485 1.037-.318 1.556-1.2 1.556-1.162 1.556-.421.518-.175 1.037.052.519.097h0" clip-path="url(#p58609d1040)" style="fill:none;stroke:#fe7b74;stroke-width:1.5;stroke-linecap:square"/><g id="text_19" style="fill:#53a577" transform="matrix(.14 0 0 -.14 642.385 233.59)"><defs><path id="DejaVuSans-4a" d="M628 4666h631V325q0-844-320-1225T-91-1281h-240v531h197q418 0 590 235 172 234 172 840v4341z" transform="scale(.01563)"/><path id="DejaVuSans-61" d="M2194 1759q-697 0-966-159t-269-544q0-306 202-486 202-179 548-179 479 0 768 339t289 901v128h-572zm1147 238V0h-575v531q-197-318-491-470T1556-91q-537 0-855 302-317 302-317 808 0 590 395 890 396 300 1180 300h807v57q0 397-261 614t-733 217q-300 0-585-72-284-72-546-216v532q315 122 612 182 297 61 578 61 760 0 1135-394 375-393 375-1193z" transform="scale(.01563)"/><path id="DejaVuSans-70" d="M1159 525v-1856H581v4831h578v-531q182 312 458 463 277 152 661 152 638 0 1036-506 399-506 399-1331T3314 415Q2916-91 2278-91q-384 0-661 152-276 152-458 464zm1957 1222q0 634-261 995t-717 361q-457 0-718-361t-261-995q0-634 261-995t718-361q456 0 717 361t261 995z" transform="scale(.01563)"/><path id="DejaVuSans-6e" d="M3513 2113V0h-575v2094q0 497-194 743-194 247-581 247-466 0-735-297-269-296-269-809V0H581v3500h578v-544q207 316 486 472 280 156 646 156 603 0 912-373 310-373 310-1098z" transform="scale(.01563)"/></defs><use xlink:href="#DejaVuSans-4a"/><use xlink:href="#DejaVuSans-61" x="29.492"/><use xlink:href="#DejaVuSans-70" x="90.771"/><use xlink:href="#DejaVuSans-61" x="154.248"/><use xlink:href="#DejaVuSans-6e" x="215.527"/></g><g id="text_20" style="fill:#7516fd" transform="matrix(.14 0 0 -.14 642.385 254.808)"><defs><path id="DejaVuSans-55" d="M556 4666h635V1831q0-750 271-1080 272-329 882-329 606 0 878 329 272 330 272 1080v2835h634V1753q0-912-452-1378Q3225-91 2344-91q-885 0-1337 466-451 466-451 1378v2913z" transform="scale(.01563)"/><path id="DejaVuSans-53" d="M3425 4513v-616q-359 172-678 256-319 85-616 85-515 0-795-200t-280-569q0-310 186-468 186-157 705-254l381-78q706-135 1042-474t336-907q0-679-455-1029Q2797-91 1919-91q-331 0-705 75-373 75-773 222v650q384-215 753-325 369-109 725-109 540 0 834 212 294 213 294 607 0 343-211 537t-692 291l-385 75q-706 140-1022 440-315 300-315 835 0 619 436 975t1201 356q329 0 669-60 341-59 697-177z" transform="scale(.01563)"/></defs><use xlink:href="#DejaVuSans-55"/><use xlink:href="#DejaVuSans-53" x="73.193"/></g><g id="text_21" style="fill:#2f618f" transform="matrix(.14 0 0 -.14 642.385 268.808)"><defs><path id="DejaVuSans-4b" d="M628 4666h631V2694l2094 1972h813L1850 2491 4331 0h-831L1259 2247V0H628v4666z" transform="scale(.01563)"/><path id="DejaVuSans-6f" d="M1959 3097q-462 0-731-361t-269-989q0-628 267-989 268-361 733-361 460 0 728 362 269 363 269 988 0 622-269 986-268 364-728 364zm0 487q750 0 1178-488 429-487 429-1349 0-859-429-1349Q2709-91 1959-91q-753 0-1180 489-426 490-426 1349 0 862 426 1349 427 488 1180 488z" transform="scale(.01563)"/><path id="DejaVuSans-72" d="M2631 2963q-97 56-211 82-114 27-251 27-488 0-749-317t-261-911V0H581v3500h578v-544q182 319 472 473 291 155 707 155 59 0 131-8 72-7 159-23l3-590z" transform="scale(.01563)"/><path id="DejaVuSans-65" d="M3597 1894v-281H953q38-594 358-905t892-311q331 0 642 81t618 244V178Q3153 47 2828-22t-659-69q-838 0-1327 487-489 488-489 1320 0 859 464 1363 464 505 1252 505 706 0 1117-455 411-454 411-1235zm-575 169q-6 471-264 752-258 282-683 282-481 0-770-272t-333-766l2050 4z" transform="scale(.01563)"/><path id="DejaVuSans-2c" d="M750 794h659V256L897-744H494L750 256v538z" transform="scale(.01563)"/><path id="DejaVuSans-75" d="M544 1381v2119h575V1403q0-497 193-746 194-248 582-248 465 0 735 297 271 297 271 810v1984h575V0h-575v538q-209-319-486-474-276-155-642-155-603 0-916 375-312 375-312 1097zm1447 2203z" transform="scale(.01563)"/><path id="DejaVuSans-74" d="M1172 4494v-994h1184v-447H1172V1153q0-428 117-550t477-122h590V0h-590q-666 0-919 248-253 249-253 905v1900H172v447h422v994h578z" transform="scale(.01563)"/><path id="DejaVuSans-68" d="M3513 2113V0h-575v2094q0 497-194 743-194 247-581 247-466 0-735-297-269-296-269-809V0H581v4863h578V2956q207 316 486 472 280 156 646 156 603 0 912-373 310-373 310-1098z" transform="scale(.01563)"/></defs><use xlink:href="#DejaVuSans-4b"/><use xlink:href="#DejaVuSans-6f" x="60.576"/><use xlink:href="#DejaVuSans-72" x="121.758"/><use xlink:href="#DejaVuSans-65" x="160.621"/><use xlink:href="#DejaVuSans-61" x="222.145"/><use xlink:href="#DejaVuSans-2c" x="283.424"/><use xlink:href="#DejaVuSans-20" x="315.211"/><use xlink:href="#DejaVuSans-53" x="346.998"/><use xlink:href="#DejaVuSans-6f" x="410.475"/><use xlink:href="#DejaVuSans-75" x="471.656"/><use xlink:href="#DejaVuSans-74" x="535.035"/><use xlink:href="#DejaVuSans-68" x="574.244"/></g><g id="text_22" style="fill:#ae54a5" transform="matrix(.14 0 0 -.14 642.385 282.808)"><defs><path id="DejaVuSans-43" d="M4122 4306v-665q-319 297-680 443-361 147-767 147-800 0-1225-489t-425-1414q0-922 425-1411t1225-489q406 0 767 147t680 444V359q-331-225-702-338-370-112-782-112-1060 0-1670 648-609 649-609 1771 0 1125 609 1773 610 649 1670 649 418 0 788-111 371-111 696-333z" transform="scale(.01563)"/><path id="DejaVuSans-69" d="M603 3500h575V0H603v3500zm0 1363h575v-729H603v729z" transform="scale(.01563)"/></defs><use xlink:href="#DejaVuSans-43"/><use xlink:href="#DejaVuSans-68" x="69.824"/><use xlink:href="#DejaVuSans-69" x="133.203"/><use xlink:href="#DejaVuSans-6e" x="160.986"/><use xlink:href="#DejaVuSans-61" x="224.365"/></g><g id="text_23" style="fill:#fe7b74" transform="matrix(.14 0 0 -.14 642.385 296.808)"><defs><path id="DejaVuSans-54" d="M-19 4666h3947v-532H2272V0h-634v4134H-19v532z" transform="scale(.01563)"/><path id="DejaVuSans-77" d="M269 3500h575l719-2731 715 2731h678l719-2731 716 2731h575L4050 0h-678l-753 2869L1863 0h-679L269 3500z" transform="scale(.01563)"/><path id="DejaVuSans-2a" d="m3009 3897-1121-606 1121-610-181-306-1050 634V1831h-356v1178L372 2375l-181 306 1122 610-1122 606 181 309 1050-634v1178h356V3572l1050 634 181-309z" transform="scale(.01563)"/></defs><use xlink:href="#DejaVuSans-54"/><use xlink:href="#DejaVuSans-61" x="44.584"/><use xlink:href="#DejaVuSans-69" x="105.863"/><use xlink:href="#DejaVuSans-77" x="133.646"/><use xlink:href="#DejaVuSans-61" x="215.434"/><use xlink:href="#DejaVuSans-6e" x="276.713"/><use xlink:href="#DejaVuSans-2a" x="340.092"/></g></g></g><defs><clipPath id="p58609d1040"><path d="M67.645 10.147h558v277.2h-558z"/></clipPath></defs></svg>