<svg xmlns:xlink="http://www.w3.org/1999/xlink" width="992.186" height="417.451" viewBox="0 0 744.14 313.088" xmlns="http://www.w3.org/2000/svg"><defs><style>*{stroke-linejoin:round;stroke-linecap:butt}</style></defs><g id="figure_1"><path d="M0 313.088h744.14V0H0v313.088z" style="fill:none" id="patch_1"/><g id="axes_1"><path d="M49.83 284.4h558V7.2h-558v277.2z" style="fill:none" id="patch_2"/><g id="matplotlib.axis_1"><g id="xtick_1"><g id="line2d_1"><defs><path id="m0b18e87fc1" d="M0 0v3.5" style="stroke:#b0b0b0;stroke-width:.4"/></defs><use xlink:href="#m0b18e87fc1" x="85.83" y="284.4" style="fill:#b0b0b0;stroke:#b0b0b0;stroke-width:.4"/></g><g style="fill:#b0b0b0" transform="matrix(.14 0 0 -.14 56.582 302.038)" id="text_1"><defs><path id="DejaVuSans-32" d="M1228 531h2203V0H469v531q359 372 979 998 621 627 780 809 303 340 423 576 121 236 121 464 0 372-261 606-261 235-680 235-297 0-627-103-329-103-704-313v638q381 153 712 231 332 78 607 78 725 0 1156-363 431-362 431-968 0-288-108-546-107-257-392-607-78-91-497-524-418-433-1181-1211z" transform="scale(.01563)"/><path id="DejaVuSans-30" d="M2034 4250q-487 0-733-480-245-479-245-1442 0-959 245-1439 246-480 733-480 491 0 736 480 246 480 246 1439 0 963-246 1442-245 480-736 480zm0 500q785 0 1199-621 414-620 414-1801 0-1178-414-1799Q2819-91 2034-91q-784 0-1198 620-414 621-414 1799 0 1181 414 1801 414 621 1198 621z" transform="scale(.01563)"/><path id="DejaVuSans-2d" d="M313 2009h1684v-512H313v512z" transform="scale(.01563)"/><path id="DejaVuSans-34" d="M2419 4116 825 1625h1594v2491zm-166 550h794V1625h666v-525h-666V0h-628v1100H313v609l1940 2957z" transform="scale(.01563)"/></defs><use xlink:href="#DejaVuSans-32"/><use xlink:href="#DejaVuSans-30" x="63.623"/><use xlink:href="#DejaVuSans-32" x="127.246"/><use xlink:href="#DejaVuSans-30" x="190.869"/><use xlink:href="#DejaVuSans-2d" x="254.492"/><use xlink:href="#DejaVuSans-30" x="290.576"/><use xlink:href="#DejaVuSans-34" x="354.199"/></g></g><g id="xtick_2"><use xlink:href="#m0b18e87fc1" x="137.018" y="284.4" style="fill:#b0b0b0;stroke:#b0b0b0;stroke-width:.4" id="line2d_2"/><g style="fill:#b0b0b0" transform="matrix(.14 0 0 -.14 107.77 302.038)" id="text_2"><defs><path id="DejaVuSans-37" d="M525 4666h3000v-269L1831 0h-659l1594 4134H525v532z" transform="scale(.01563)"/></defs><use xlink:href="#DejaVuSans-32"/><use xlink:href="#DejaVuSans-30" x="63.623"/><use xlink:href="#DejaVuSans-32" x="127.246"/><use xlink:href="#DejaVuSans-30" x="190.869"/><use xlink:href="#DejaVuSans-2d" x="254.492"/><use xlink:href="#DejaVuSans-30" x="290.576"/><use xlink:href="#DejaVuSans-37" x="354.199"/></g></g><g id="xtick_3"><use xlink:href="#m0b18e87fc1" x="188.768" y="284.4" style="fill:#b0b0b0;stroke:#b0b0b0;stroke-width:.4" id="line2d_3"/><g style="fill:#b0b0b0" transform="matrix(.14 0 0 -.14 159.52 302.038)" id="text_3"><defs><path id="DejaVuSans-31" d="M794 531h1031v3560L703 3866v575l1116 225h631V531h1031V0H794v531z" transform="scale(.01563)"/></defs><use xlink:href="#DejaVuSans-32"/><use xlink:href="#DejaVuSans-30" x="63.623"/><use xlink:href="#DejaVuSans-32" x="127.246"/><use xlink:href="#DejaVuSans-30" x="190.869"/><use xlink:href="#DejaVuSans-2d" x="254.492"/><use xlink:href="#DejaVuSans-31" x="290.576"/><use xlink:href="#DejaVuSans-30" x="354.199"/></g></g><g id="xtick_4"><use xlink:href="#m0b18e87fc1" x="240.518" y="284.4" style="fill:#b0b0b0;stroke:#b0b0b0;stroke-width:.4" id="line2d_4"/><g style="fill:#b0b0b0" transform="matrix(.14 0 0 -.14 211.27 302.038)" id="text_4"><use xlink:href="#DejaVuSans-32"/><use xlink:href="#DejaVuSans-30" x="63.623"/><use xlink:href="#DejaVuSans-32" x="127.246"/><use xlink:href="#DejaVuSans-31" x="190.869"/><use xlink:href="#DejaVuSans-2d" x="254.492"/><use xlink:href="#DejaVuSans-30" x="290.576"/><use xlink:href="#DejaVuSans-31" x="354.199"/></g></g><g id="xtick_5"><use xlink:href="#m0b18e87fc1" x="291.142" y="284.4" style="fill:#b0b0b0;stroke:#b0b0b0;stroke-width:.4" id="line2d_5"/><g style="fill:#b0b0b0" transform="matrix(.14 0 0 -.14 261.895 302.038)" id="text_5"><use xlink:href="#DejaVuSans-32"/><use xlink:href="#DejaVuSans-30" x="63.623"/><use xlink:href="#DejaVuSans-32" x="127.246"/><use xlink:href="#DejaVuSans-31" x="190.869"/><use xlink:href="#DejaVuSans-2d" x="254.492"/><use xlink:href="#DejaVuSans-30" x="290.576"/><use xlink:href="#DejaVuSans-34" x="354.199"/></g></g><g id="xtick_6"><use xlink:href="#m0b18e87fc1" x="342.33" y="284.4" style="fill:#b0b0b0;stroke:#b0b0b0;stroke-width:.4" id="line2d_6"/><g style="fill:#b0b0b0" transform="matrix(.14 0 0 -.14 313.082 302.038)" id="text_6"><use xlink:href="#DejaVuSans-32"/><use xlink:href="#DejaVuSans-30" x="63.623"/><use xlink:href="#DejaVuSans-32" x="127.246"/><use xlink:href="#DejaVuSans-31" x="190.869"/><use xlink:href="#DejaVuSans-2d" x="254.492"/><use xlink:href="#DejaVuSans-30" x="290.576"/><use xlink:href="#DejaVuSans-37" x="354.199"/></g></g><g id="xtick_7"><use xlink:href="#m0b18e87fc1" x="394.08" y="284.4" style="fill:#b0b0b0;stroke:#b0b0b0;stroke-width:.4" id="line2d_7"/><g style="fill:#b0b0b0" transform="matrix(.14 0 0 -.14 364.832 302.038)" id="text_7"><use xlink:href="#DejaVuSans-32"/><use xlink:href="#DejaVuSans-30" x="63.623"/><use xlink:href="#DejaVuSans-32" x="127.246"/><use xlink:href="#DejaVuSans-31" x="190.869"/><use xlink:href="#DejaVuSans-2d" x="254.492"/><use xlink:href="#DejaVuSans-31" x="290.576"/><use xlink:href="#DejaVuSans-30" x="354.199"/></g></g><g id="xtick_8"><use xlink:href="#m0b18e87fc1" x="445.83" y="284.4" style="fill:#b0b0b0;stroke:#b0b0b0;stroke-width:.4" id="line2d_8"/><g style="fill:#b0b0b0" transform="matrix(.14 0 0 -.14 416.582 302.038)" id="text_8"><use xlink:href="#DejaVuSans-32"/><use xlink:href="#DejaVuSans-30" x="63.623"/><use xlink:href="#DejaVuSans-32" x="127.246"/><use xlink:href="#DejaVuSans-32" x="190.869"/><use xlink:href="#DejaVuSans-2d" x="254.492"/><use xlink:href="#DejaVuSans-30" x="290.576"/><use xlink:href="#DejaVuSans-31" x="354.199"/></g></g><g id="xtick_9"><use xlink:href="#m0b18e87fc1" x="496.455" y="284.4" style="fill:#b0b0b0;stroke:#b0b0b0;stroke-width:.4" id="line2d_9"/><g style="fill:#b0b0b0" transform="matrix(.14 0 0 -.14 467.207 302.038)" id="text_9"><use xlink:href="#DejaVuSans-32"/><use xlink:href="#DejaVuSans-30" x="63.623"/><use xlink:href="#DejaVuSans-32" x="127.246"/><use xlink:href="#DejaVuSans-32" x="190.869"/><use xlink:href="#DejaVuSans-2d" x="254.492"/><use xlink:href="#DejaVuSans-30" x="290.576"/><use xlink:href="#DejaVuSans-34" x="354.199"/></g></g><g id="xtick_10"><use xlink:href="#m0b18e87fc1" x="547.643" y="284.4" style="fill:#b0b0b0;stroke:#b0b0b0;stroke-width:.4" id="line2d_10"/><g style="fill:#b0b0b0" transform="matrix(.14 0 0 -.14 518.395 302.038)" id="text_10"><use xlink:href="#DejaVuSans-32"/><use xlink:href="#DejaVuSans-30" x="63.623"/><use xlink:href="#DejaVuSans-32" x="127.246"/><use xlink:href="#DejaVuSans-32" x="190.869"/><use xlink:href="#DejaVuSans-2d" x="254.492"/><use xlink:href="#DejaVuSans-30" x="290.576"/><use xlink:href="#DejaVuSans-37" x="354.199"/></g></g><g id="xtick_11"><use xlink:href="#m0b18e87fc1" x="599.393" y="284.4" style="fill:#b0b0b0;stroke:#b0b0b0;stroke-width:.4" id="line2d_11"/><g style="fill:#b0b0b0" transform="matrix(.14 0 0 -.14 570.145 302.038)" id="text_11"><use xlink:href="#DejaVuSans-32"/><use xlink:href="#DejaVuSans-30" x="63.623"/><use xlink:href="#DejaVuSans-32" x="127.246"/><use xlink:href="#DejaVuSans-32" x="190.869"/><use xlink:href="#DejaVuSans-2d" x="254.492"/><use xlink:href="#DejaVuSans-31" x="290.576"/><use xlink:href="#DejaVuSans-30" x="354.199"/></g></g></g><g id="matplotlib.axis_2"><g id="ytick_1"><path d="M49.83 284.4h558" clip-path="url(#pbab578c28c)" style="fill:none;stroke:#b0b0b0;stroke-width:.3;stroke-linecap:square" id="line2d_12"/><g id="line2d_13"><defs><path id="m3629bd9891" d="M0 0h-3.5" style="stroke:#b0b0b0;stroke-width:.3"/></defs><use xlink:href="#m3629bd9891" x="49.83" y="284.4" style="fill:#b0b0b0;stroke:#b0b0b0;stroke-width:.3"/></g><use xlink:href="#DejaVuSans-30" style="fill:#b0b0b0" transform="matrix(.14 0 0 -.14 33.922 289.719)" id="text_12"/></g><g id="ytick_2"><path d="M49.83 244.67h558" clip-path="url(#pbab578c28c)" style="fill:none;stroke:#b0b0b0;stroke-width:.3;stroke-linecap:square" id="line2d_14"/><use xlink:href="#m3629bd9891" x="49.83" y="244.67" style="fill:#b0b0b0;stroke:#b0b0b0;stroke-width:.3" id="line2d_15"/><g style="fill:#b0b0b0" transform="matrix(.14 0 0 -.14 16.108 249.99)" id="text_13"><use xlink:href="#DejaVuSans-32"/><use xlink:href="#DejaVuSans-30" x="63.623"/><use xlink:href="#DejaVuSans-30" x="127.246"/></g></g><g id="ytick_3"><path d="M49.83 204.94h558" clip-path="url(#pbab578c28c)" style="fill:none;stroke:#b0b0b0;stroke-width:.3;stroke-linecap:square" id="line2d_16"/><use xlink:href="#m3629bd9891" x="49.83" y="204.941" style="fill:#b0b0b0;stroke:#b0b0b0;stroke-width:.3" id="line2d_17"/><g style="fill:#b0b0b0" transform="matrix(.14 0 0 -.14 16.108 210.26)" id="text_14"><use xlink:href="#DejaVuSans-34"/><use xlink:href="#DejaVuSans-30" x="63.623"/><use xlink:href="#DejaVuSans-30" x="127.246"/></g></g><g id="ytick_4"><path d="M49.83 165.21h558" clip-path="url(#pbab578c28c)" style="fill:none;stroke:#b0b0b0;stroke-width:.3;stroke-linecap:square" id="line2d_18"/><use xlink:href="#m3629bd9891" x="49.83" y="165.211" style="fill:#b0b0b0;stroke:#b0b0b0;stroke-width:.3" id="line2d_19"/><g style="fill:#b0b0b0" transform="matrix(.14 0 0 -.14 16.108 170.53)" id="text_15"><defs><path id="DejaVuSans-36" d="M2113 2584q-425 0-674-291-248-290-248-796 0-503 248-796 249-292 674-292t673 292q248 293 248 796 0 506-248 796-248 291-673 291zm1253 1979v-575q-238 112-480 171-242 60-480 60-625 0-955-422-329-422-376-1275 184 272 462 417 279 145 613 145 703 0 1111-427 408-426 408-1160 0-719-425-1154Q2819-91 2113-91q-810 0-1238 620-428 621-428 1799 0 1106 525 1764t1409 658q238 0 480-47t505-140z" transform="scale(.01563)"/></defs><use xlink:href="#DejaVuSans-36"/><use xlink:href="#DejaVuSans-30" x="63.623"/><use xlink:href="#DejaVuSans-30" x="127.246"/></g></g><g id="ytick_5"><path d="M49.83 125.481h558" clip-path="url(#pbab578c28c)" style="fill:none;stroke:#b0b0b0;stroke-width:.3;stroke-linecap:square" id="line2d_20"/><use xlink:href="#m3629bd9891" x="49.83" y="125.481" style="fill:#b0b0b0;stroke:#b0b0b0;stroke-width:.3" id="line2d_21"/><g style="fill:#b0b0b0" transform="matrix(.14 0 0 -.14 16.108 130.8)" id="text_16"><defs><path id="DejaVuSans-38" d="M2034 2216q-450 0-708-241-257-241-257-662 0-422 257-663 258-241 708-241t709 242q260 243 260 662 0 421-258 662-257 241-711 241zm-631 268q-406 100-633 378-226 279-226 679 0 559 398 884 399 325 1092 325 697 0 1094-325t397-884q0-400-227-679-226-278-629-378 456-106 710-416 255-309 255-755 0-679-414-1042Q2806-91 2034-91q-771 0-1186 362-414 363-414 1042 0 446 256 755 257 310 713 416zm-231 997q0-362 226-565 227-203 636-203 407 0 636 203 230 203 230 565 0 363-230 566-229 203-636 203-409 0-636-203-226-203-226-566z" transform="scale(.01563)"/></defs><use xlink:href="#DejaVuSans-38"/><use xlink:href="#DejaVuSans-30" x="63.623"/><use xlink:href="#DejaVuSans-30" x="127.246"/></g></g><g id="ytick_6"><path d="M49.83 85.751h558" clip-path="url(#pbab578c28c)" style="fill:none;stroke:#b0b0b0;stroke-width:.3;stroke-linecap:square" id="line2d_22"/><use xlink:href="#m3629bd9891" x="49.83" y="85.751" style="fill:#b0b0b0;stroke:#b0b0b0;stroke-width:.3" id="line2d_23"/><g style="fill:#b0b0b0" transform="matrix(.14 0 0 -.14 7.2 91.07)" id="text_17"><use xlink:href="#DejaVuSans-31"/><use xlink:href="#DejaVuSans-30" x="63.623"/><use xlink:href="#DejaVuSans-30" x="127.246"/><use xlink:href="#DejaVuSans-30" x="190.869"/></g></g><g id="ytick_7"><path d="M49.83 46.022h558" clip-path="url(#pbab578c28c)" style="fill:none;stroke:#b0b0b0;stroke-width:.3;stroke-linecap:square" id="line2d_24"/><use xlink:href="#m3629bd9891" x="49.83" y="46.022" style="fill:#b0b0b0;stroke:#b0b0b0;stroke-width:.3" id="line2d_25"/><g style="fill:#b0b0b0" transform="matrix(.14 0 0 -.14 7.2 51.34)" id="text_18"><use xlink:href="#DejaVuSans-31"/><use xlink:href="#DejaVuSans-32" x="63.623"/><use xlink:href="#DejaVuSans-30" x="127.246"/><use xlink:href="#DejaVuSans-30" x="190.869"/></g></g></g><path d="m49.83 284.4 24.188-.085 2.812-.199 1.125.029.563-.17 1.124-.682.563-.113 1.688-2.668 1.124-2.412 1.126-3.178.562-.994 2.25-11.21.563-1.957.562-3.406.563-.737.562-1.277 1.688-9.422.562-.851.563 1.56.562-.964.563.085.562-.88.563-1.958.562-.937.563-2.015.562-1.56.563.454.562-.681.563.113.562 2.838 1.125 3.831.563 1.249h.562l.563.88.562 2.241 1.125 2.157.563 2.412 1.124 3.775.563.68.563 1.05 1.124 2.725.563-.255.563 1.362 1.124 1.248.563 1.817.563.964 1.124 2.611.563-.198.563.028.562 1.249.563.51.562.909.563 2.1.562.425.563.057.562.312.563.766.562 1.022.563-.142.562-.34.563.085.562.567.563-.028.562.965.563.51.562.909 1.125.369.563-.313.562.142.563-.738.562.313.563.113.562.681 1.125.88.563.057.562.794.563-.34h.562l.563-.227 1.125.397h1.125l1.125.681.562-.142.563.142 1.125-.142.562-.057 1.688.653h1.687l.563.114 3.375.085.562.113 1.125.398 2.813.227 1.687-.199.563-.17 3.937.142.563.198 1.687-.482 1.125-.057 1.125-.369 1.688.454.562.085.563-.17.562.17 1.688.029.562-.029.563-.17.562.199 2.813-.057 1.687.426.563-.114 1.125.029.562-.227.563-.086 4.5.454 1.125-.113.562-.028.563-.227 1.125.085.562-.17h1.688l.562.056.563-.199.562-.454.563-.227 2.812-.397 1.125.397.563-.283.562.085 1.125-.085.563.028 1.125-.199.562.114.563-.256 1.125-.056.562-.767 1.688-1.362.562.029.563-.17.562-.965 1.125.198.563-.71 1.687-1.333.563.142.562-1.306.563-1.674.562-.794.563-1.533h.562l.563-.71.562-2.525.563-1.873.562-.823.563-2.526.562-.766.563-.965.562-.397.563-.653 1.125-5.874 1.125-2.838.562-1.249.563.029.562-3.207 1.125-2.27.563-1.192.562-2.157 1.125-1.674.563.51.562-2.98.563-3.915.562-4.711.563-3.547.562-.568.563-.993.562-3.945 1.125-4.739.563-.17 1.125-5.704.562-.625.563-.993.562-2.923.563 1.107.562-4.71.563-.37.562-1.873.563-1.163.562-2.185.563-10.273 1.125-13.423.562-5.846.563-2.498.562-1.078.563-6.555.562-.284.563-2.952 1.125 24.491.562 1.504 1.125-6.896 1.688-13.338.562-2.724 1.125 2.554.563-2.61.562 3.12.563-3.007 1.125-39.22.562-4.341.563-1.164.562 1.504.563-1.163.562-4.938.563 2.128.562 2.923.563.568.562 3.66 1.125-5.278 1.125 13.764 1.125 5.59.563-.085.562 2.44.563 4.712.562 2.043.562.567.563 2.413.563-1.42 1.125 2.385.562.198.563 4.399.562-.454.563 2.98.562 4.767.563.482.562 10.784.563 4.598.562 3.405.563 8.485.562 3.916.563.37.562 1.191.563-1.334.562 7.18.563 3.746.562 1.362 1.688 5.335.562 3.207 1.688 11.38.562 3.434.563-.34.562.056.563 1.617.562.114.563.738.562 3.689 1.125 3.69.563.737 1.125 6.272.562 1.078.563.34.562 1.732.563.737.562-.369.563.483.562 1.447.563 2.668 1.125 1.646.562-.823.563-.085.562-.34h1.125l1.125 2.638 1.125.454.563 1.987.562-.029.563.767.562-1.39.563 1.05.562.623.563-.198.562 2.554.563-1.39.562-2.98.563-1.817.562-3.575.563-1.022.562-1.39.563-5.79.562-1.248.563.369.562 1.39.563.766.562 1.05.563.199.562-.085.563.312.562.965.563-.51.562-1.902.563-1.504.562.908.563-1.334.562.54.563-.143.562-1.163.563 1.532.562.284.563-.681 1.125 1.59.562.396.563.625.562-.17.563-.483 1.125 1.76.562.482.563-.795.562 2.668 1.125 3.32.563-.284.562 1.76.563-.454.562 1.163.563-1.021.562.198.563-.312.562.596.563 5.335.562.398.563-.909.562.965.563.199.562.738.563.198.562-3.405 1.125 5.505.563 3.009.562 1.163.563-.51 1.125.765 1.125 4.087.562-.454.563-.199.562 1.59.563.34.562 1.334.563-.852.562-.312.563.312.562.852 1.125.057.563.454.562 2.44.563.34 1.125 1.703.562.227.563.057.562.568.563-.142.562.851.563-.198.562 1.475.563.029.562.198.563.738.562.227.563.908.562.568.563-.54 1.687.142.563.568.562-.028.563.88.562.368 1.125.114.563-.227.562.255.563-.284.562-.454.563-.17 1.125-.085 1.125-.17.562.596 2.25.454.563.539 1.125-.256.562.17 1.688-.198h.562l1.125.568.563.142.562.368 1.125-.028 1.125-.482.563-.142.562.17.563-.17h1.125l1.125-.88h1.125l1.125-.397.562-.17.563-.511.562.454.563-.34.562-.88.563-.057.562-.256 1.125.085.563-.34.562-.483.563-.283.562-.596.563.369.562-.114.563-.255.562-1.362.563-.511.562.993.563-.51.562-.852.563-.029.562-.368.563.34 1.125-2.61.562.028.563.283.562.086.563-.568.562.113.563 1.363 1.125-.34.562.538.563.085.562.313.563-.256.562-.028.563-.37.562.03.563-.426 1.125.056.562-.454.563-.113.562.596.563-.284.562.199 1.125-.086h.563l.562.142.563-1.447.562-.312 1.125-.369.563-1.135.562-.624.563-1.675 1.687-.539.563-.17.562 1.334.563-2.27 1.687-3.52.563-.113.562-.284.563-2.497.562-1.192.563-1.987.562-1.05.563-2.44.562-.511.563-.284.562-2.724.563-1.646.562-.823.563-.284 1.687-1.674 1.125-2.412.563-2.47.562-4.426.563-1.561.562-.823.563-.312.562-2.242.563-3.15 1.125-1.987.562-2.128.563.284 1.125-.54 1.687-7.15.563-3.747 1.125-2.071.562-2.1.563 2.1.562-1.618.563 1.334.562 2.724.563-1.362.562-.085.563.312.562-1.617.563 2.752.562 1.902.563 7.293.562 2.61.563 1.42 1.125 5.278 1.125 2.526.562-.767.563 1.192.562.029.563.454.562 1.93.563-1.703.562 1.674.563-2.384.562-.88.563.455.562.965.563-1.079.562 3.604.563-.624 1.125 1.788.562.624 1.125 7.776.563 2.327.562 3.292.563 1.589.562-.199.563.057.562-.596.563 2.072.562 1.305 1.125-.085.563-.142.562-.937.563.738.562-.851.563.681h.562l.563.284.562.51 1.125.653 1.125-4.256.563-1.59.562-.737.563-.483.562.199.563-1.873.562.71.563-.653.562-1.079 1.125-.766.563.568 1.125-3.264.562.51.563 1.08.562-1.136.563.454.562-.057.563 2.015.562-.057.563-.68.562-1.845.563-.142.562.17h.563l.562-2.525.563-.37.562.228.563 1.192.562.17.563.028.562.142 1.125 2.44.563-.539 1.125 1.448.562.028.563.17.562.54.563-1.703.562-.624 1.125-3.378h.563l.562-.198.563-1.22.562-.54.563-8.4.562 8.542 1.125-.851.563.567.562-.255.563-9.081.562 7.435.563-9.138.562 7.265.563 1.476.562-8.202.563-1.277.562 10.16.563 3.462.562 7.946.563.653.562.056.563 8.003.562.37.563-.398.562-2.185.563-5.818.562-.312.563.142.562-8.429.563 9.876.562-7.52 1.125 4.257.563.397.562.17.563 1.816.562-6.839.563 11.522h.562l.563-.71h.562l.563-.142.562.625.563.284.562-.398 1.125 2.554 1.688.313.562 1.617.563.908.562.37.563.68.562.17.563-.028.562 1.59.563.453.562.823.563 4.229.562 1.333.563-.198.562-.029.563.653.562 1.901.563.142.562-2.525h.563l.562.227.563.056.562 3.803.563-1.532.562 1.163.563-.425.562-.114 1.125-.028.563-2.98.562.936.563.483.562 2.469.563.539 1.125.028.562-2.128.563.227.562-.71.563-2.014.562-.738h1.125l.563 1.958.562-2.015.563.426.562.17.563-.54 1.125-.084.562.312.563 1.504.562-.71.563-1.333 1.687-.17.563-1.788.562.51.563-1.05.562.454.563-.85h.562l.563.226.562 1.788 1.125-1.816.563.057.562.51h1.125l.563-2.412.562-1.277.563.568.562-1.135 1.125-.029.563-.198.562.454 1.125-1.817.563-.34.562-.681h.563l.562.198.563.029.562-.085.563 1.106.562-.056.563.113h1.125l.562.852.563.595.562-.88.563-.056.562.454h1.125l.563-.17.562 1.277.563 5.221.562-1.05.563.568h1.125l.562.766.563 4.172.562-7.69.563 1.645.562-.539h1.125l.563.568.562-3.406.563 4.37.562.823.563 1.079h1.125l1.125.567.562-3.206.563.056.562-.17h1.125l.563-1.59.562.54.563 3.519.562.681 1.125-.057h.563l.562.795.563-1.362.562.34.563-1.333.562-.738h1.125l.563 3.348.562.284.563-.085.562.653.563-.37h1.125l.562-5.25 1.125-4.256.563-1.362.562-.88h1.125" clip-path="url(#pbab578c28c)" style="fill:none;stroke:#d8b009;stroke-width:1.5;stroke-linecap:square" id="line2d_26"/><path d="m49.83 284.4 14.625-.085 3.938-.795.562-.397 1.125-1.419.563-1.022.562-1.277.563-.794.562-3.633.563-2.242 1.124-8.768.563-4.2.563-5.704.562-3.945 2.813-33.515.562-10.699.563-17.537 1.124-15.183.563-11.294.563-5.903 1.124-16.374 1.126-5.705.562-5.987.563-2.668 1.124-2.61.563 4.341 2.813 29.315.562 4.257.563 5.562.562 1.76.563 2.667.562 1.986.563.057.562-1.021.563 2.412.562-.142.563 3.888.562-.057.563 3.178.562 1.93.563 4.001.562 1.731.563 4.4.562 1.9.563 4.91.562 3.434.563 4.313.562 3.235 1.125 9.365.563-1.674.562 2.44 1.125 8.06.563-1.306.562.313.563.737.562 7.946.563.256.562.454.563 1.816.562 4.938.563.34.562.029.563 1.163.562.568.563 2.27.562.284.563.965 1.124 6.186.563.965.563 2.696.562.199.563 2.384.562 1.248.563 2.44.562 1.221.563.227.562-.71.563.909.562.652.563 1.306.562-.511.563.057.562 1.107.563.624.562-.142.563-.681h.562l1.125 1.816.563-.17.562.255 1.688 3.179.562-.37.563.256.562.823.563.568.562.085.563.454.562 2.1.563.908.562.482.563 1.164.562.057.563.482.562-.142.563-1.475.562.113.563.426.562-.37.563.426.562-.056.563-.199.562.17.563.511.562.085.563.398 1.125-.2.562.37.563.057.562-.227.563.028.562-.199.563.17 1.125.057.562.114 1.125.454.563.255.562-.056 1.125.34.563.085.562.199.563-.114 1.125-.085.562-.198.563.17 1.125-.199.562.17.563-.227 1.125.398 2.25-.029.562-4.115 1.125-.056 1.688.113.562-.17.563 4.399 1.125-.086.562.029.563-.17 2.812.113.563-.113.562.198 1.125-.198.563-.426 1.687-.312.563-.227 1.125.028.562.284 3.375-.057.563-.51.562-.228 1.125-.227 1.688-.794.562.198 1.125-.028.563-.284h1.125l.562-.085.563-.284 1.687-.142.563-.34.562.057 1.688-.426.562-.653 1.125-.71.563-1.73.562-.767.563-.51 1.687-3.548.563-2.383.562-1.505.563-1.021.562-2.951 1.125-3.605.563-3.745 1.125-4.513.562-3.065.563-4.143 1.125-4.88 1.125-7.918 1.125-12.998 1.687-10.613 1.688-20.035 1.125-6.329.562-6.101 1.688-12.174.562-.483 1.125-8.428.563-.454 1.125-7.038.562.88.563-4.796.562-3.633.563.17.562.596.563-1.191.562 1.93.563 1.078.562-4.853.563.369.562.681.563-.653 1.125 8.372.562 5.25.563 3.008.562 1.504.563.369.562 2.27.563 1.05 1.125-11.152.562 5.789 1.125 5.193.563 3.746.562 2.157.563 6.186.562 3.604.563 5.052.562 6.1.563 8.287.562 1.334 1.688-2.355.562-1.42.563-.084.562-2.923.563-1.192.562 2.753.563.283.562.767.563 4 .562-4.483.563-3.377.562-.397.563-2.838.562.936.563 1.164.562-3.065.563 4.058.562.227.563-.454.562 2.015.563.369.562-.482.563.028.562.142.563-.37.562 2.214.563-1.22 1.125 3.377.562.823.562-.142 1.125 3.661.563 2.582.563 1.192.562-.255.563 2.015.562 2.838.563 1.021.562-.936.563.624.562 2.185.563 3.973.562.852.563 1.73.562 2.1 1.125 2.782.563 2.44.562-.936.563 1.248.562-.908.563 1.703.562-.312 1.125-1.022.563 1.448.562 1.106.563 2.696.562-.823.563 1.135.562.795.563.369 1.125-1.703.562-1.248.563-.767.562-.425.563-2.044.562-.936.563.426.562-.965.563-2.356.562-.283.563-1.618.562-1.022.563-3.575.562-2.81.563-1.419.562-.17.563-2.384 1.125-1.93.562-1.39.563-.823.562-1.05.563-2.015.562.596.563.085.562-.88.563.625.562-.199.563-1.163.562-.681.563.113.562-.823 1.125 6.499.563-4.54.562.397.563-6.726.562.908.563-.142 1.125-3.32.562 4.484.563 3.036.562 8.201.563.965.562 2.27.563 1.192.562 2.441.563 2.98.562.567.563 2.47.562-.341.563.965 1.125.908.562.567 1.125 4.285.563 2.725.562 2.071.563 1.277 1.125 4.115.562.852.563 1.589 1.125.198 1.125 3.179.562.142.563 1.617.562.71.563 2.497.562 1.305 1.125 3.065.563 3.207.562 1.05.563-1.022.562.313.563.596 1.687 2.639.563-.199.562 2.61.563 1.193 1.125 1.589 1.125 3.746.562 3.178.563 1.504.562.738.563-.198.562.482.563-.255.562-.426.563-.823 1.125.255 1.125 1.533.562 1.106.563.71.562 1.447.563.965.562.681.563.256.562.425.563.908 1.125 1.39.562-.595.563-.34.562.085 1.125-.511.563.17.562-.312.563.794.562.511.563.057.562-.085.563.51 1.125.512.562.085.563.283.562.142.563.511.562.114.563-.256.562.114.563.397.562-.028 1.125.283.563.284.562.057 1.125-.34.563.226.562-.113 1.125-.823.563.17 1.125-.142.562-.312 1.125.114 1.125-.256 1.688-.567 1.125-.227.562-.114.563-.284.562-.085.563-.596 1.125-.567.562-.057.563-.653.562-1.078.563-.71.562-.113.563-.312.562-.114.563-.567.562-.17 1.688.737.562-.255.563-.397.562-.256.563-.425.562-.284.563-.54.562-.368.563-.057.562-.34 1.688.141.562.085 1.125-.142 1.125.88 1.125-.142 1.125-.34 1.125.397.563-.227 1.687.426.563.397.562.028.563-.51 1.125.028.562.113.563.341h.562l.563.71 1.687.964.563.681.562.284.563.625.562-.596 1.125.255 1.688.113.562-.34.563.908.562.085.563-.284.562-.596 1.688.313.562-.71h.563l.562.397.563.625 1.125-.88 1.125.227.562-.057 1.125.483 1.688-1.135.562.17h.563l.562-.34.563-.767.562.085.563-.227 1.687-1.39.563-.34.562-.171.563-.34.562-.057.563.567.562.114.563-.284.562-.738 1.688-.681.562-.085.563-1.164.562-.028.563.142.562-.17.563-.511.562-.029.563-.652.562.425.563.114.562-.766.563-.284.562.482.563-.198.562-1.249 1.125-1.249.563-.17.562-.596 1.125-2.469.563-.057 1.125-1.645 1.125-2.044.562-.482.563-1.277 1.125-1.192.562.454.563-.142.562-1.39 1.125.624.563-.397.562.936.563-1.476.562.057.563-1.617.562-2.696.563-1.192 1.125-4.002.562-.68.563-2.47.562-.993.563-2.327 1.125-7.236.562-3.52.563-2.582.562-1.702.563-3.973 1.125-3.86.562-.369.563-.71.562.597.563-1.845.562-.965.563-1.334 1.125-.255.562-1.249.563-.227.562.086.563 1.163.562.908.563-.71.562-1.56.563.057.562.17.563.653 1.125.652 1.125 5.335.562 3.009 1.688 3.121.562 3.008.563.142 1.125 1.05.562 1.42 1.125 4.142.563.738.562 2.015.563 3.434.562 1.192 1.125-.256.563 2.526.562 1.078.563 1.817.562-.483 1.125 2.157.563 2.185 1.687 4.427.563 1.532.562 1.136.563.539 1.125.142.562.539.563.227.562-.255.563 1.362.562-.199.563.284 1.125-.937.562-1.532.563.54.562-.937.563.312 1.125 1.248.562-.482.563.653 1.125-.54 1.125-1.872.562-.483.563.568 1.125.567.562.483.563.794.562.284.563.71.562-.142h.563l.562.312.563-.596.562.142 1.125 2.213.563-1.419.562-.482.563-1.958.562-.284.563.17.562-.397.563-.54.562.54.563.993.562 1.958.563.37 1.125-1.618.562-.199.563.965.562-.199.563.227.562.483 1.125 2.071.563-.142.562 1.05 1.125.511.563.625.562.283.563-.51.562.283.563-.596 1.125 1.363h.562l1.125 1.418.563 1.504.562-.028.563.397.562-.823.563.71.562.199.563.51.562.823.563 2.214.562.426.563 2.213.562.54h.563l1.125-.341.562-.596.563-.142 1.125-.71.562.029.563.823.562-.085.563.908.562.567 1.688.965.562-.51.563.311.562-.056 1.125-.596.563.142.562-.738 1.125-.312.563-.284.562.454 1.125-1.249.563-.369.562.114.563-.71.562-.34 1.688-2.781.562.369 1.125-3.718.563-.965.562-.312.563-.823.562-.51.563-.994.562.426.563-.54 1.125-2.922.562-.596.563-.142.562.057.563.227.562-2.186 1.125-2.61.563-2.526 1.125-.312.562-.483.563 1.788 1.125 2.1.562 1.958.563-1.05 1.687.852 2.25 3.093.563-.114.562 2.015.563 3.037.562.482.563-.482.562.794.563 1.164.562.426.563-.937.562-1.816.563.454.562 1.788.563.71.562.226.563.625.562.425.563 1.022.562.624.563.454.562.227.563.908.562.312 1.125 1.079.563.936.562-.596.563.909.562.028.563-.114.562 1.022 1.125-.71.563.824.562.425.563.256.562.056.563-.766.562.937.563.652h.562l1.125-.283.563.539 1.125-.142.562-.057.563.851.562.313.563.141.562-.198.563-.426 1.125.256 1.687-2.044.563-.596.562-.113.563-.568.562-.738.563-.283.562-1.022.563-.369.562.256h0" clip-path="url(#pbab578c28c)" style="fill:none;stroke:#1007e1;stroke-width:1.5;stroke-linecap:square" id="line2d_27"/><path d="m49.83 284.4 20.25-.057 3.375-.369.563-.17 1.124-.71.563-.595.563-.823 1.124-2.895 1.126-3.774.562-2.895.563-3.49 1.124-8.713.563-5.817.563-7.464 1.687-29.854.563-11.465 1.124-30.45 3.376-99.55 1.687-38.936 1.125-13.537.563-4.398.562-1.76.563 1.136.562 5.221 1.125 2.81.563 4.91.562 7.207.563 1.987 1.124 9.563 1.688 23.27.563 6.527 2.25 32.068 2.25 24.434L106.08 150l.563 6.158 1.124 9.592 1.126 12.742 1.687 13.763 1.125 6.726.563.624.562 1.987.563 2.866 2.812 17.14 1.125 4.059 1.688 4.739 1.124 4.71 1.126 4.144.562 2.951 1.125 3.917 1.125 1.986.563 2.724.562 1.05.563 1.788 1.124 2.81.563.766.563 1.532.562.483.563 1.73.562.88.563 1.334.562.398.563 1.56 1.125 1.334.562.114.563-.511.562.255 2.25 1.504 1.125 2.668.563.88 1.125 1.135.562.426.563 1.106.562.199h.563l.562.113.563.398.562.567.563.256.562.028.563.17.562 1.135 1.125.483.563.227 1.125.71.562.198.563-.426.562.426.563.227.562-.227.563.369 1.125.312.562.54.563-.341.562.085.563.426 1.125-.17.562.425.563-.114.562.2 1.688-.171.562.199.563-.313.562-.056.563.17.562-.029 1.688.37 1.125.482 1.125.539.562-.057.563.312 1.125-.283.562.113.563-.057 1.125.284.562-.255.563.312 1.125.113 1.687-.312 1.125-.283.563.028 2.25-.766.562.085.563-.284 1.687-1.39.563-.057.562-.568 1.125-.624.563-.766.562.113.563-.284.562-.624.563-.454.562-.71.563-.283.562-.085 1.125-2.015.563-.653.562-.199.563-.369.562-.993.563-1.39 1.125-1.362.562-1.05 1.125-3.32.563-.994.562-.369 1.125-3.434.563-2.242.562-1.106.563-2.072 2.25-10.018.562-.936 1.688-7.151.562-1.39.563-2.214 1.125-7.038.562-2.952.563-1.589.562-2.61 1.125-3.605 1.125-4.03.563-2.1.562-4.426.563-.937.562-1.986 1.688-3.32.562-.682.563 1.76.562-1.618.563-2.951.562-1.59 1.125-2.1.563-1.589.562-2.185.563-.823.562.426 1.125 1.419 1.125.681.563 1.249 1.125 4.427 1.125-2.327 1.125 4.086.562-.028.563-1.334.562-.965 1.125.454.563-2.299 1.125-2.412 1.125-2.015.562-2.014.563-2.696.562-1.731.563-2.1.562-2.696.563-3.463.562-4.171.563-1.42.562-1.986 1.688-12.202.562-2.384.563-3.66.562-5.904 1.125-8.371.563-2.554.562-4.91 2.25-28.406.563-7.407 1.687-30.138 2.25-33.543 1.125-10.075.563-4.852.562-2.1.563-.312.562-.114 1.688 11.408.562 8.94 1.687 12.968 1.688 21.625.563 6.044.562 7.322.563 11.266 1.125 15.04 2.25 27.584.562 4.229 1.125 12.458 1.688 13.28.562 5.847 2.25 18.474.563 6.754.562 5.307 1.125 8.712 1.125 8.797.563 3.746.562 2.356 1.688 11.55 1.125 5.08 1.687 6.895 1.125 3.292 1.125 4.57 1.688 5.391.562.993.563 2.072 1.125 1.93.562.284.563.822.562.568.563 1.618.562.596.563.794.562.993.563 2.157 1.125 2.157.562-.114.563.454 1.125 1.391.562-.057.563.681.562.312.563.823.562.029.563.34.562-.028 1.125.568.563-.057.562.284.563.51.562.17.563-.028 1.125.681.562.34.563-.027.562.255.563.057.562.567 1.125.199.563.284 1.687 1.22 2.25.823.563-.028 1.125.085.562-.114 1.125.454.563-.113.562.198 2.25.17.563-.113 1.687.823.563-.085.562.312 1.688-.142.562-.284.563-.028.562.114.563-.227 1.125.312 1.125.085.562-.227h.563l.562.142.563-.114.562.17 1.125-.312 1.125.029.563-.142.562.028 1.125-.34.563.028.562.199 1.125-.37.563-.283 1.125.085.562.199.563-.568.562-.113.563.085 1.125-.199.562-.17.563-.483.562.029 3.375-1.76.563-.425.562-.596.563-.398.562-.17 2.25-1.589.563-.057.562-.596 1.125-2.412.563-.68.562-.37 1.125-1.56.563-.143.562.086.563.255.562-.085.563-.653.562-.255 1.688-1.873.562-.398.563-.113 1.125-.596.562.17.563-.454 1.125.454.562-.113 2.25.057.563-.029.562-.17 1.125-.993.563-.256.562-.851.563-.34 1.125-1.959.562-.454.563.057 1.125-.653.562-.482.563-.284.562.34.563-.312 1.125-.766 1.125-.624.562-.71 1.125-2.44.563-.54.562-1.22 1.125.086.563.652.562 1.107.563-.142.562-.71.563.483.562-1.05.563.199.562-.029.563-1.192.562.937.563.227.562.028.563 1.306.562.056 1.125 1.817 1.125.51.563.937.562.028.563.398 1.125.312.562-.142.563.936.562-.17.563.454h.562l.563-.227.562-.51.563-.114.562-.51.563-.824.562-.51 1.125-1.618 1.125-.142.563-.483.562-.113.563-.284.562-.54.563-.709.562-.34.563-.965.562-.71 1.125-1.872.563.198.562-.851.563-1.249.562.34.563-.141.562.766.563.568.562-.17 1.125 1.986.563.199 1.125.652 1.687 1.873 1.125-.539.563 1.305.562.852.563.028 1.125.624.562 1.164.563.454.562.057.563-.284.562.34.563.54.562-.653.563-.397.562.794.563-.454.562.511.563-.51.562-1.107.563.766.562-.085.563-.284.562.17.563-.227.562.766.563 1.533.562-.568.563.937.562-.568 1.125.823.563-.227.562.057.563.51.562-.652.563 1.135 1.125-1.078.562.369.563-.142 1.125.255.562-1.419.563.142 1.125-2.242 1.125-3.32 1.687-3.86.563-1.106.562-1.987.563-1.248 1.125-3.86.562-.851.563-1.788 1.125-.993.562-1.107.563-.397.562.17h.563l.562.567.563.994.562-.227 1.125 2.071.563.227.562 1.05.563.767.562-.511 1.125 2.412.563.88.562.567.563-.227.562.227.563.738.562 1.192.563.255.562.937.563 1.901 1.125 2.299.562 1.901.563.454 1.125 1.675.562-.426 1.125 1.334.563.085.562.397.563.653.562.085.563 1.277.562.426.563.283.562.057.563.227.562.596 1.125.312.563.398.562-.795.563.624.562.34.563-.028.562.71.563-.568.562-.397.563 1.107 1.687-1.192 1.125-.937.563-.141.562-1.107.563-.653 1.687-4.342.563-.454.562-1.135.563-.312.562-.738.563-.284.562.142.563.312.562-.51.563-.795.562-.596 2.25-3.065.563.114.562-.313.563-.454 1.125-2.128.562.482 1.125-.652.563.227.562-.908.563 1.163.562 1.93.563.199.562 1.021.563.426.562 1.107.563 1.759.562.88 1.125 1.021.563.852 1.125 2.1 1.125 1.816 1.125 2.185 1.687 1.788 1.125 2.469.563.369.562.142 1.125 1.589.563.17 1.125.766.562.823.563 1.022 1.125.653 1.687 2.27.563-.028 1.125.85.562.114 1.125.994.563.056.562.795.563.369.562.851.563.312.562.057.563.256.562-.114.563.454 1.125-.113.562.255.563.51.562-.396.563.539.562-.454.563.113.562-.369.563.085 1.125-.227.562-.737.563.028.562-.312.563-.057.562-.284 1.125-1.334 1.125-.34 1.125-1.362 1.125-.71 1.125-.823.563-.908.562-.539.563-.028.562-.738.563-.937 1.687-2.015.563-.397.562-1.334.563-1.021.562-1.306 1.125-1.22h.563l.562-.284.563-1.163.562-.029 1.125-3.547.563-.057 1.125-.68.562.765.563.341 1.125 4.768 1.125.113.562 1.419.563.965 1.125 1.248.562.057.563 1.107.562.823.563.255 1.125-.198.562.397.563 1.107 1.125-.937.562-.567 1.125.51 1.125.965 1.125 1.93.563.397.562.909.563.624.562-.199.563.114.562.397.563.738.562.482.563.057.562.227.563.993.562-.51.563.113.562-.085.563.085 1.125.851.562.142.563.454.562-.085 1.125.596.563.37.562-.086.563-.199.562.483 1.125.34.563.17.562.029 1.125.426 1.688 1.532 2.25 3.718 1.687 1.475h6.75l.563-11.919 1.125.057h.562" clip-path="url(#pbab578c28c)" style="fill:none;stroke:#89f9c9;stroke-width:1.5;stroke-linecap:square" id="line2d_28"/><path d="m49.83 284.4 20.25-.057 2.25-.425 1.125-.341.563-.426.562.085.563-.822.562-.142.563.085.562-1.476.563.227.562.426.563-2.696.562-4.995 1.125-6.044.563-3.633 1.687-21 .563-2.61 1.687-17.538.563-7.407.562-29.003.563-6.953 1.124-44.185.563-6.385.563-11.805.562-25.966.563 20.12.562-20.745.563 3.888.562 11.805.563-1.191.562 7.378.563 19.099.562-25.37.563 16.657.562 6.357.563-.142.562 4.881.563.738.562 6.102.563 25.37.562 6.725.563 10.557.562 7.72.563 4.142.562 3.122.563 4.569.562 3.349.563 6.441 1.124 9.763.563 3.065.563 3.717.562.965.563 4.285.562 3.122.563-.71.562 3.32.563 1.845.562 1.22.563-.425.562 5.392.563-4.881.562 3.972.563-.51.562-11.72.563 3.802.562 16.034.563-.738.562 7.634.563-1.306.562.341.563 15.977.562 1.135.563-10.046.562 3.122.563.425.562 2.753.563.823.562-3.15.563 1.618.562.88.563-2.27.562.624.563.17.562.738.563.51.562-.652.563.51.562 1.703 1.125.993 1.125.284.563.766.562-.737 1.125-.142.563.397 1.687.397.563 1.703 1.125.596.562-.34.563.482.562.17.563-.312.562.681.563-.17 1.687.425.563.029.562.142.563.539.562-.34.563-.086.562-.227 1.125-.113 1.125.454.563-1.618.562-.028.563.369 1.687-.029.563.426.562 2.327 1.125.255 1.688.256.562-.738 1.125-.369 1.688-.028.562-.34.563.311.562.086.563.34 1.687-.085.563.426 1.687-.909.563-.17 1.125-.057.562-.113.563-.255.562.028.563.17 1.687-.312 1.125.17.563.511.562-.681 1.125.255.563-.085.562-.425.563-.227.562-.738.563.51.562 1.079.563-.17.562-.029.563.227.562-.312 1.125-.227.563-2.894.562-.17.563-.03 1.125-.652.562-.454.563-.794.562-2.044 1.125-.369.563-.539.562-.823 1.688.114 1.125-.852.562-.88.563.17.562-.964.563-.255 1.125.823.562-.142.563.369.562-.398h.563l.562-.454.563.738 1.125-.68.562-.739.563-1.163.562-.738.563-.34.562-1.959 1.125-2.185.563-1.447.562-4.342 1.125-3.718.563-3.433.562-1.788.563 3.008 1.125-13.849 1.125-4.824.562-7.01.563-2.44.562-7.152.563-1.106.562-21.312.563 8.314.562-3.518.563-8.003.562-2.299.563-1.107.562-3.746.563 1.363.562-10.273.563-1.646.562-2.952.563-1.419.562-.936.563 1.39.562.142.563-2.923.562-.056.563-5.903 1.125 5.392.562.142.563 6.101.562 1.22.563 2.44.562 5.166.563 1.135.562.454.563 2.781.562 6.64.563 2.186.562.198.563 9.337h.562l.563.68.562 1.193.563-1.731.562.397.563.795.562.056 1.125 1.22.563-.283.562 1.334.563.198.562.994.563.454.562.113 1.125 1.164.563-.313.562.37.563-.852.562 12.855.563 1.22.562-1.191.563-.397.562-4.74.563-.766.562 1.135.563.738.562-.284.563 1.618.562-.483.563 2.867.562.624.563-.71.562-12.997.563-.34.562-.994.563 2.072.562 3.576.563 1.504.562-.227.563-1.277.562-.71.563.284.562-2.61.563 2.44.562-2.299.563-1.788.562-.369 1.688-3.121.562 1.192.563-1.135.562.085.562-4.881.563-.313.563-.652.562-.284.563-3.178.562-.227.563 9.762.562-5.307.563 1.419.562.68.563-.113.562.057.563 1.76.562-10.217.563 10.302.562-.227.563.113.562 1.362.563 3.888.562-.397 1.125 4.597.563 1.192.562.227.563 2.214.562 4.427.563.908.562.284.563.936.562-.795.563 1.05.562-1.163.563.369.562-1.249.563-.908.562 2.838.563.426.562-.227.563.425.562 1.42.563-.256.562.794.563 6.13.562.029.563-.313.562.767.563-1.136.562 2.554.563-.085.562-1.76.563-.198.562.057.563-.284.562 3.434.563-.142.562 1.192.563-17.368.562-.425.563.227.562-.483.563-2.667.562-1.618.563-2.327.562 16.034.563.142.562-1.533.563 4.626.562-1.277.563-3.349.562-.993.563.029.562-.596.563.255.562-5.335.563 2.299.562 3.518.563 1.334h.562l.563.511.562 1.022.563-1.76.562-1.22.563-.454.562.369.563-.029.562-.794.563-.142 1.125 2.554.562-.057.563-.652.562 1.135 1.125 1.589 2.25 9.507.563 1.163.562.454.563-.028.562.539.563.17.562 1.703 1.125 4.71.563 1.817.562.965.563 2.724.562.653.563 1.22.562-.057.563 1.42.562.652.563.284.562 3.803.563.198.562-.113.563-.256.562-.057.563.596.562.767.563-1.817.562 2.47.563 1.39.562 2.043.563 1.05 1.125.653 1.125 3.434.562.88.563.056.562.397.563.653.562.454.563.029.562-.142.563.596.562.34.563.17.562.34.563.03.562.652.563.823 1.125.653.562.993.563.284 1.125-.199 1.125.397.562.426.563.255.562-.141 1.688.68.562-.084 1.125.283.563-.056 1.125.425.562-.539.563.624.562.256.563-.114 1.687.312.563.596.562-.454.563.114.562-.426.563-.17.562-.029.563-.737.562.113 2.25-2.469 1.125-.652.563-.88.562-.142.563-.681.562-.085.563.34.562-.369.563-.766.562-.567.563-.398 1.687-2.157.563-.368 1.125-2.554 1.125-3.661.562-.085 1.125-3.69.563-.936.562-1.419.563.142h.562l.563-.681.562 1.078.563 1.76.562.34 1.125 1.39 1.125.625.563-.255.562.113.563-.312.562.88.563-1.731.562.88.563.113.562 1.05.563.567.562 1.164.563-2.61.562 4.256.563 1.532 1.125.085.562-.141.563 1.475.562 2.072.563-1.816.562-1.135.563.624.562.965.563.255.562-.851.563 1.958.562.596.563.397.562.681.563-.936.562.227.563 1.05.562-.114.563-.369.562.596.563.34.562.653.563.142.562.653.563.284 1.125.965.562.198 1.125.057.563-.284 1.125 1.306.562-.227.563.227.562-.085 1.688.142.562-.341 1.125.369.563.028.562-.113.563 1.135.562-1.419.563.057.562-.426.563.085.562-.085.563.057.562-1.447.563 1.191.562.142.563.795.562-.624.563.255.562-.17.563-.483.562-.056.563-.653.562-.965.563-.057.562-.227h.563l.562-.624.563-1.022 1.125-1.277 1.125-.51.562-.114 1.125-1.703.563-.426.562-.88.563-1.957.562-.454.563-.2 1.125-3.575 1.125-2.015 1.687-1.646.563-1.362.562.398.563-.483.562-1.476 1.125-.908.563-.766.562.54.563-2.016.562-.539.563.256.562-.142.563.028.562-.596.563-.908.562-1.76.563-.397.562-.085 1.125-1.362.563.142.562-.397 1.125-3.462.563-.653.562-.114.563-.908.562.029.563-.284.562.284h.563l.562-.596.563.056.562-.17.563.256 1.125-1.93.562 6.64.563-6.754.562-1.192.563-.539.562-.965 1.125-4.938.563-6.924.562 5.534.563-.851 1.125-.653.562.908.563 2.838.562-.568.563.142.562-2.61.563.226.562-.056.563-1.59.562-9.109.563 7.832.562-11.096.563 2.413.562.255.563.624.562.908.563 19.61.562-18.985.563 10.443.562-.993.563.397.562 3.008.563 10.273.562-18.673.563 12.6.562.142.563 3.32.562 1.306.563-2.129.562-5.96.563 12.658.562 1.078.563 2.866.562.17.563-.539.562 1.249.563 1.59.562 1.22.563.908.562 2.1.563.908.562 1.986.563.114.562-.34.563.652.562-.511.563-.284.562 1.079.563-.34.562-.058.563 1.022.562.34.563 1.675.562.085 1.688-.71.562.086 1.688-2.554.562-.37.563-.028.562.284.563-.255 1.687 2.752.563-.142 2.25-2.213 1.125-1.788.562-.34.563.737.562.284.563 3.69.562-.653.563-2.129.562-1.475.563.142.562-.398.563-.142.562-4.228.563.34.562 2.129.563 1.504.562-.34.563.397.562.227.563.482.562 1.42.563 1.077.562.284.563 1.362.562-.028.563-.624.562 1.362.563-.085.562.51.563 1.079.562.312 1.125 2.781.563-2.015.562.937 1.125.936.563.965.562.256.563.113.562 2.015.563.028.562.823.563 1.107.562.568 1.125.113 1.125.681.563-.198.562-.37.563.2 1.125-.143.562 3.434.563-1.277.562-.54.563-.027.562 1.078.563-1.022 1.125.085.562-.794.563.794.562-.198.563-1.22.562 1.106h.563l.562-1.901.563 2.64.562-.483.563.255.562-.17h1.125l.563-.625 1.125 1.05 2.25-.141.562-1.476.563-1.078.562-.142.563-1.334.562-.624h1.125l.563-.596 1.125-3.065 1.125 4.625h1.125l.562-7.35 1.125-.936 1.125-6.981h1.125l.563 5.988 1.125 1.333 1.125 1.277h1.125l1.687 1.278.563.709.562.255h1.125l.563.625.562-.284.563.057 1.125.369h1.125l.562 4.937.563-1.9.562-.143.563-.34h1.687l.563-3.292.562 2.554.563 1.021.562 1.363.563.652h1.125l.562.17.563.455 1.125.17.562-.114h1.125l.563.738 1.125.568.562-.483.563.681h1.125l.562.653.563-.113 1.125 1.504 1.125.085h.562l.563-.284.562.454.563-.426.562.086.563-.142 2.25-.085 1.687-.2h1.125l.563-.368.562-.71.563-.312 1.125-1.021h1.125l.562-.767 1.688-.88.562-.737h1.125" clip-path="url(#pbab578c28c)" style="fill:none;stroke:#0309a6;stroke-width:1.5;stroke-linecap:square" id="line2d_29"/><path d="m49.83 284.4 20.813-.085 1.124-.199 1.688-.68.563-.512h.562l.563-2.156.562-1.618.563-2.469.562-1.192.563-5.221.562-2.015.563-5.846.562-3.831 1.125-16.261.563-13.792.562-8.684.563-21.255 2.25-56.956.562-10.613.563-7.123.562-2.384.563-6.896.562-2.185.563 2.696.562 3.604.563 6.045.562 1.248.563 4.995.562 8.684 1.125 12.486.563 2.583.562 4.341.563 11.465.562 2.696.563 1.362.562-1.504.563 13.736.562 5.477.563 4.2.562-3.69.563 6.158.562 4.74.563 9.08.562-9.563.563 3.462.562 1.93.563 3.66.562-.51.563 4.881.562 10.415.563-5.08.562 3.52.563 4.738.562 3.292.563 5.931.562 1.561.563-6.498.562 10.727.563.596.562 1.163.563.255.562 1.703.563-.113 1.124 4.71.563 4.059.563-.653.562 3.036.563 2.1.562 4.683.563-15.608.562 1.532.563-2.1.562 33.742h3.375l.563-8.315.562 8.031 1.688-.085 1.124.114 1.688.028 1.125.17 2.813.057h.562l.563-33.458.562-.199 2.813-.227.562 33.231.563.114 1.125-.085 1.125-.426.562-.028.563-.256 1.125.142h.562l1.125.284.563-.028.562.425 6.188.085 1.687.085 5.063-.028 1.125-1.39 1.125.141 1.687-.028.563-1.305.562.596.563.085.562-.71.563-.255h1.125l.562 1.249.563-.54.562-3.66.563.283.562-.369h1.125l.563-.142.562-.794.563 2.27.562-.255.563.284h1.125l.562-1.391.563-.17.562.142.563-.426.562-4.796h1.125l.563-.426.562-.567.563.227.562-.88.563 3.86 1.687-.086.563-2.213.562-5.818.563-2.582.562-1.192h1.125l.563-1.901.562-2.413.563 3.094.562 2.213.563-.68h1.125l.562-.313.563 6.84.562-7.095.563-2.782 1.687.029.563 1.135.562-7.407.563 8.627.562 1.59.563-3.633h1.125l.562-1.59.563 5.137.562-3.774.563-.397.562.539h1.125l.563-.624.562-3.917.563 1.504.562-.425.563-.256h1.125l.562-1.76.563-1.39.562-.34.563-.511.562-.227h1.125l.563-2.838.562.823.563-41.29.562-5.534.563-3.065h1.125l.562-3.774.563 6.754.562 24.49.563.34.562 1.107h1.125l.563.795.562-12.345.563 11.607.562 2.952.563-.568h1.125l.562-.795.563-2.894.562-.511.563-2.412.562.965h1.125l1.125 5.846 1.125 5.08.563 2.27h1.125l.562.198.563 12.544.562-2.838 1.125-3.888h1.125l.563.142.562-11.011 1.125 9.138.563 3.717h1.125l.562 1.561.563 3.633.562.482.563 1.56.562 4.23h1.125l.563 1.02 1.125-3.66.562-.624h1.688l.562 1.617.563-.908.562 7.01.563-2.753.562-5.647h1.125l.563-4.54.562-1.59.563-5.534.562 1.249.563-1.022h1.125l.562-1.532.563.113.562-7.634 1.125-10.443h1.125l.563-8.854.562-5.165.563-.936 1.124-6.357h1.125l.563.142.563-3.916.562-1.93.563 2.355.562-2.014h1.125l.563-4.172.562-1.192 1.125-4.512.563 1.532h1.125l1.125 12.572.562 8.684 1.125 7.321h1.125l.563 4.74.562 2.468.563-1.475.562 1.22.563 1.93h1.125l.562 1.93.563 7.122.562-1.617.563 2.582.562-8.74h1.125l.563 4.796.562-2.81.563 6.016.562 3.69.563 13.167h1.125l1.125 8.003 1.125.369.562 4.91h1.125l.563-13.253.562-1.703.563 6.47 1.125-32.607h1.125l.562 12.6.563 2.696.562-4.37 1.125 33.6.563-4.455h.562l.563 2.951.562-.624.563.794.562-1.702.563-4.229.562 4.456h.563l.562-3.179.563.795.562-.142.563.454.562 1.419h1.125l.563 2.157.562 2.838.563-3.718.562-.17.563.113h1.125l.562-.738.563-3.32.562 4.938.563-.142.562-1.163h1.125l.563 1.986.562.312.563-2.242.562-.652.563 1.986h1.125l.562-.738.563-2.81.562 1.675.563 2.469.562.227h1.125l.563.284.562 3.83 1.688 3.435 1.687.056.563-.567.562.34 2.25.057.563 1.22.562 1.703.563-.34.562.936.563-3.66 1.125-.03.562.228.563-1.22.562 1.22.563-3.774.562 3.121 1.125.029.563.68.562.313.563-.37.562 3.236.563.51h1.125l.562-.595.563.908.562.199.563.028.562.142h1.125l.563.766.562-.284.563-.482.562.284.563-.426h1.125l.562-.369.563.624.562.823.563-.567.562.624h1.125l1.688.511.562-.369.563-.17h1.125l.562-.17.563-.455.562-.227.563.37.562-.426h1.125l1.125-1.42.563-1.56 1.125-.993h1.125l.562-3.122.563-2.128.562.056.563-1.163.562-.88h1.125l.563 1.079.562.794.563-.624h.562l.563.34h1.125l.562-.17 1.688-3.604.562-1.958h1.125l.563-2.157.562-1.305.563-.54.562-1.418.563-.199h1.125l.562 1.56.563-.113.562.88.563.085.562-.454h1.125l.563.37 1.125 3.036 1.125 5.108h1.125l.562.851.563-.482.562-.256.563-.851.562.794h1.125l.563-.425.562 2.071.563-.34 2.25.028.562 1.39.563.625.562 1.788.563 2.327.562-.114h1.125l.563.142.562-.965.563-.51.562-.142.563-.823h1.125l.562.425.563 2.668.562.426.563-.71.562.568h1.125l.563-.199.562-.596.563.312 1.125 1.561 1.687.057.563-.88.562-.567 1.125-.823h1.125l.563 1.532.562-.085.563.34 1.125 1.05h1.125l.562-1.532.563 1.56 1.125-.992 1.687.028.563.312.562-.823.563.823.562.029.563.567h1.125l.562.596 1.688-.312.562-.51h1.125l.563-.88.562-.284.563.283 1.125-.794h1.125l.562 1.504.563-.965.562.795.563-1.192.562-.625 1.125-.028.563-2.923.562.568.563-2.186.562 1.022.563.51 1.125.03.562.51.563-1.022.562.767.563-.965.562 1.163h1.125l.563-.993.562-.567.563-.795.562.227h1.688l.562-1.362.563-.057.562-1.986.563 2.1.562-2.753h1.125l.563-.965.562-3.718.563.653.562-3.178.563-1.192h1.125l1.125-1.958.562-.994.563-1.418 1.125-.086h.562l.563-.539.562-2.78.563-1.562.562-.397.563-1.618h1.125l.562-.17.563-.738 1.125-.454.562 5.648h1.125l.563-7.69.562 1.333.563-1.646.562-5.96.563-11.039h1.125l.562-2.015.563 1.448.562-4.598.563.937.562 2.866h1.125l2.25 15.637.563 1.135h1.125l.562 13.167.563-8.513.562 4.171.563.681.562 2.1h1.125l.563-4.568.562 5.335.563.596 1.125 6.612h1.125l.562 4.569.563.113.562 3.775.563 2.412.562-6.499h1.688l.562-1.958h1.125l.563-1.476h1.687l.563 14.87h1.125l.562.455h1.688l.562-10.784h1.125l.563-.965h1.687l.563 5.846h1.125l.562 10.131h2.25l.563-17.51h.562l.563-5.306h1.687l.563-9.053.562 17.51h.563l.562-1.192h1.688l.562 3.036h1.125l.563.795h1.125l.562-7.208.563 6.016h1.125l.562-3.406h1.125l.563 7.209.562-5.62h1.125l.563 9.11.562-8.797h1.125l.563 5.76h.562l.563-4.483.562-6.697.563 8.797h1.125l.562-.142.563-4.314.562 4.484.563-1.93h1.687l.563-3.32.562 4.314h.563l.562 3.121h1.688l.562-.397h1.125l.563-1.39h1.687l.563.255h1.125l.562 1.362h1.688l.562.426h1.125l.563-.284h1.687l.563-1.164h1.125l.562-7.548h1.688l.562-2.725h1.125l.563 2.753h1.687l.563-1.419h1.125l.562-4.852h1.688l.562 2.468h1.125l.563 6.244h1.687l.563 6.044h1.125l.562-1.589h1.688l.562-7.123h1.125l.563 1.504h1.687l.563.17h1.125l.562 3.009h1.688l.562 3.433h1.125l.563.398h1.687l.563-.795h1.125l.562.114h1.688l.562.539.563.227 2.812-.085.563-.625.562-.227h.563l.562-6.782h1.688l.562.823h1.125l.563 8.003h1.687l.563 1.277h1.125l.562 1.958h1.688l.562-.227h1.125l.563-3.15h1.687l.563 2.355h1.125l.562.937h1.125" clip-path="url(#pbab578c28c)" style="fill:none;stroke:#907eba;stroke-width:1.5;stroke-linecap:square" id="line2d_30"/><g style="fill:#d8b009" transform="matrix(.14 0 0 -.14 624.57 246.976)" id="text_19"><defs><path id="DejaVuSans-47" d="M3809 666v1253H2778v519h1656V434q-365-259-806-392-440-133-940-133-1094 0-1712 639-617 640-617 1780 0 1144 617 1783 618 639 1712 639 456 0 867-113 411-112 758-331v-672q-350 297-744 447t-828 150q-857 0-1287-478-429-478-429-1425 0-944 429-1422 430-478 1287-478 334 0 596 58 263 58 472 180z" transform="scale(.01563)"/><path id="DejaVuSans-65" d="M3597 1894v-281H953q38-594 358-905t892-311q331 0 642 81t618 244V178Q3153 47 2828-22t-659-69q-838 0-1327 487-489 488-489 1320 0 859 464 1363 464 505 1252 505 706 0 1117-455 411-454 411-1235zm-575 169q-6 471-264 752-258 282-683 282-481 0-770-272t-333-766l2050 4z" transform="scale(.01563)"/><path id="DejaVuSans-72" d="M2631 2963q-97 56-211 82-114 27-251 27-488 0-749-317t-261-911V0H581v3500h578v-544q182 319 472 473 291 155 707 155 59 0 131-8 72-7 159-23l3-590z" transform="scale(.01563)"/><path id="DejaVuSans-6d" d="M3328 2828q216 388 516 572t706 184q547 0 844-383 297-382 297-1088V0h-578v2094q0 503-179 746-178 244-543 244-447 0-707-297-259-296-259-809V0h-578v2094q0 506-178 748t-550 242q-441 0-701-298-259-298-259-808V0H581v3500h578v-544q197 322 472 475t653 153q382 0 649-194 267-193 395-562z" transform="scale(.01563)"/><path id="DejaVuSans-61" d="M2194 1759q-697 0-966-159t-269-544q0-306 202-486 202-179 548-179 479 0 768 339t289 901v128h-572zm1147 238V0h-575v531q-197-318-491-470T1556-91q-537 0-855 302-317 302-317 808 0 590 395 890 396 300 1180 300h807v57q0 397-261 614t-733 217q-300 0-585-72-284-72-546-216v532q315 122 612 182 297 61 578 61 760 0 1135-394 375-393 375-1193z" transform="scale(.01563)"/><path id="DejaVuSans-6e" d="M3513 2113V0h-575v2094q0 497-194 743-194 247-581 247-466 0-735-297-269-296-269-809V0H581v3500h578v-544q207 316 486 472 280 156 646 156 603 0 912-373 310-373 310-1098z" transform="scale(.01563)"/><path id="DejaVuSans-79" d="M2059-325q-243-625-475-815-231-191-618-191H506v481h338q237 0 368 113 132 112 291 531l103 262L191 3500h609L1894 763l1094 2737h609L2059-325z" transform="scale(.01563)"/></defs><use xlink:href="#DejaVuSans-47"/><use xlink:href="#DejaVuSans-65" x="77.49"/><use xlink:href="#DejaVuSans-72" x="139.014"/><use xlink:href="#DejaVuSans-6d" x="178.377"/><use xlink:href="#DejaVuSans-61" x="275.789"/><use xlink:href="#DejaVuSans-6e" x="337.068"/><use xlink:href="#DejaVuSans-79" x="400.447"/></g><g style="fill:#1007e1" transform="matrix(.14 0 0 -.14 624.57 260.976)" id="text_20"><defs><path id="DejaVuSans-49" d="M628 4666h631V0H628v4666z" transform="scale(.01563)"/><path id="DejaVuSans-74" d="M1172 4494v-994h1184v-447H1172V1153q0-428 117-550t477-122h590V0h-590q-666 0-919 248-253 249-253 905v1900H172v447h422v994h578z" transform="scale(.01563)"/><path id="DejaVuSans-6c" d="M603 4863h575V0H603v4863z" transform="scale(.01563)"/></defs><use xlink:href="#DejaVuSans-49"/><use xlink:href="#DejaVuSans-74" x="29.492"/><use xlink:href="#DejaVuSans-61" x="68.701"/><use xlink:href="#DejaVuSans-6c" x="129.98"/><use xlink:href="#DejaVuSans-79" x="157.764"/></g><g style="fill:#89f9c9" transform="matrix(.14 0 0 -.14 624.57 274.976)" id="text_21"><defs><path id="DejaVuSans-55" d="M556 4666h635V1831q0-750 271-1080 272-329 882-329 606 0 878 329 272 330 272 1080v2835h634V1753q0-912-452-1378Q3225-91 2344-91q-885 0-1337 466-451 466-451 1378v2913z" transform="scale(.01563)"/><path id="DejaVuSans-69" d="M603 3500h575V0H603v3500zm0 1363h575v-729H603v729z" transform="scale(.01563)"/><path id="DejaVuSans-64" d="M2906 2969v1894h575V0h-575v525q-181-312-458-464-276-152-664-152-634 0-1033 506-398 507-398 1332t398 1331q399 506 1033 506 388 0 664-152 277-151 458-463zM947 1747q0-634 261-995t717-361q456 0 718 361 263 361 263 995t-263 995q-262 361-718 361t-717-361q-261-361-261-995z" transform="scale(.01563)"/><path id="DejaVuSans-4b" d="M628 4666h631V2694l2094 1972h813L1850 2491 4331 0h-831L1259 2247V0H628v4666z" transform="scale(.01563)"/><path id="DejaVuSans-67" d="M2906 1791q0 625-258 968-257 344-723 344-462 0-720-344-258-343-258-968 0-622 258-966t720-344q466 0 723 344 258 344 258 966zm575-1357q0-893-397-1329-396-436-1215-436-303 0-572 45t-522 139v559q253-137 500-202 247-66 503-66 566 0 847 295t281 892v285q-178-310-456-463T1784 0Q1141 0 747 490 353 981 353 1791q0 812 394 1302 394 491 1037 491 388 0 666-153t456-462v531h575V434z" transform="scale(.01563)"/><path id="DejaVuSans-6f" d="M1959 3097q-462 0-731-361t-269-989q0-628 267-989 268-361 733-361 460 0 728 362 269 363 269 988 0 622-269 986-268 364-728 364zm0 487q750 0 1178-488 429-487 429-1349 0-859-429-1349Q2709-91 1959-91q-753 0-1180 489-426 490-426 1349 0 862 426 1349 427 488 1180 488z" transform="scale(.01563)"/></defs><use xlink:href="#DejaVuSans-55"/><use xlink:href="#DejaVuSans-6e" x="73.193"/><use xlink:href="#DejaVuSans-69" x="136.572"/><use xlink:href="#DejaVuSans-74" x="164.355"/><use xlink:href="#DejaVuSans-65" x="203.564"/><use xlink:href="#DejaVuSans-64" x="265.088"/><use xlink:href="#DejaVuSans-20" x="328.564"/><use xlink:href="#DejaVuSans-4b" x="360.352"/><use xlink:href="#DejaVuSans-69" x="425.928"/><use xlink:href="#DejaVuSans-6e" x="453.711"/><use xlink:href="#DejaVuSans-67" x="517.09"/><use xlink:href="#DejaVuSans-64" x="580.566"/><use xlink:href="#DejaVuSans-6f" x="644.043"/><use xlink:href="#DejaVuSans-6d" x="705.225"/></g><g style="fill:#0309a6" transform="matrix(.14 0 0 -.14 624.57 288.976)" id="text_22"><defs><path id="DejaVuSans-46" d="M628 4666h2681v-532H1259V2759h1850v-531H1259V0H628v4666z" transform="scale(.01563)"/><path id="DejaVuSans-63" d="M3122 3366v-538q-244 135-489 202t-495 67q-560 0-870-355-309-354-309-995t309-996q310-354 870-354 250 0 495 67t489 202V134Q2881 22 2623-34q-257-57-548-57-791 0-1257 497-465 497-465 1341 0 856 470 1346 471 491 1290 491 265 0 518-55 253-54 491-163z" transform="scale(.01563)"/></defs><use xlink:href="#DejaVuSans-46"/><use xlink:href="#DejaVuSans-72" x="50.27"/><use xlink:href="#DejaVuSans-61" x="91.383"/><use xlink:href="#DejaVuSans-6e" x="152.662"/><use xlink:href="#DejaVuSans-63" x="216.041"/><use xlink:href="#DejaVuSans-65" x="271.021"/></g><g style="fill:#907eba" transform="matrix(.14 0 0 -.14 624.57 302.976)" id="text_23"><defs><path id="DejaVuSans-53" d="M3425 4513v-616q-359 172-678 256-319 85-616 85-515 0-795-200t-280-569q0-310 186-468 186-157 705-254l381-78q706-135 1042-474t336-907q0-679-455-1029Q2797-91 1919-91q-331 0-705 75-373 75-773 222v650q384-215 753-325 369-109 725-109 540 0 834 212 294 213 294 607 0 343-211 537t-692 291l-385 75q-706 140-1022 440-315 300-315 835 0 619 436 975t1201 356q329 0 669-60 341-59 697-177z" transform="scale(.01563)"/><path id="DejaVuSans-70" d="M1159 525v-1856H581v4831h578v-531q182 312 458 463 277 152 661 152 638 0 1036-506 399-506 399-1331T3314 415Q2916-91 2278-91q-384 0-661 152-276 152-458 464zm1957 1222q0 634-261 995t-717 361q-457 0-718-361t-261-995q0-634 261-995t718-361q456 0 717 361t261 995z" transform="scale(.01563)"/></defs><use xlink:href="#DejaVuSans-53"/><use xlink:href="#DejaVuSans-70" x="63.477"/><use xlink:href="#DejaVuSans-61" x="126.953"/><use xlink:href="#DejaVuSans-69" x="188.232"/><use xlink:href="#DejaVuSans-6e" x="216.016"/></g></g></g><defs><clipPath id="pbab578c28c"><path d="M49.83 7.2h558v277.2h-558z"/></clipPath></defs></svg>