<svg xmlns:xlink="http://www.w3.org/1999/xlink" width="951.91" height="419.721" viewBox="0 0 713.933 314.791" xmlns="http://www.w3.org/2000/svg"><defs><style>*{stroke-linejoin:round;stroke-linecap:butt}</style></defs><g id="figure_1"><path d="M0 314.79h713.933V0H0v314.79z" style="fill:none" id="patch_1"/><g id="axes_1"><path d="M67.645 287.041h558V9.841h-558v277.2z" style="fill:none" id="patch_2"/><g id="matplotlib.axis_1"><g id="xtick_1"><g id="line2d_1"><defs><path id="m734517c1ce" d="M0 0v3.5" style="stroke:#b0b0b0;stroke-width:.4"/></defs><use xlink:href="#m734517c1ce" x="110.465" y="287.041" style="fill:#b0b0b0;stroke:#b0b0b0;stroke-width:.4"/></g><g style="fill:#b0b0b0" transform="matrix(.14 0 0 -.14 81.217 304.679)" id="text_1"><defs><path id="DejaVuSans-32" d="M1228 531h2203V0H469v531q359 372 979 998 621 627 780 809 303 340 423 576 121 236 121 464 0 372-261 606-261 235-680 235-297 0-627-103-329-103-704-313v638q381 153 712 231 332 78 607 78 725 0 1156-363 431-362 431-968 0-288-108-546-107-257-392-607-78-91-497-524-418-433-1181-1211z" transform="scale(.01563)"/><path id="DejaVuSans-30" d="M2034 4250q-487 0-733-480-245-479-245-1442 0-959 245-1439 246-480 733-480 491 0 736 480 246 480 246 1439 0 963-246 1442-245 480-736 480zm0 500q785 0 1199-621 414-620 414-1801 0-1178-414-1799Q2819-91 2034-91q-784 0-1198 620-414 621-414 1799 0 1181 414 1801 414 621 1198 621z" transform="scale(.01563)"/><path id="DejaVuSans-2d" d="M313 2009h1684v-512H313v512z" transform="scale(.01563)"/><path id="DejaVuSans-34" d="M2419 4116 825 1625h1594v2491zm-166 550h794V1625h666v-525h-666V0h-628v1100H313v609l1940 2957z" transform="scale(.01563)"/></defs><use xlink:href="#DejaVuSans-32"/><use xlink:href="#DejaVuSans-30" x="63.623"/><use xlink:href="#DejaVuSans-32" x="127.246"/><use xlink:href="#DejaVuSans-30" x="190.869"/><use xlink:href="#DejaVuSans-2d" x="254.492"/><use xlink:href="#DejaVuSans-30" x="290.576"/><use xlink:href="#DejaVuSans-34" x="354.199"/></g></g><g id="xtick_2"><use xlink:href="#m734517c1ce" x="171.35" y="287.041" style="fill:#b0b0b0;stroke:#b0b0b0;stroke-width:.4" id="line2d_2"/><g style="fill:#b0b0b0" transform="matrix(.14 0 0 -.14 142.102 304.679)" id="text_2"><defs><path id="DejaVuSans-37" d="M525 4666h3000v-269L1831 0h-659l1594 4134H525v532z" transform="scale(.01563)"/></defs><use xlink:href="#DejaVuSans-32"/><use xlink:href="#DejaVuSans-30" x="63.623"/><use xlink:href="#DejaVuSans-32" x="127.246"/><use xlink:href="#DejaVuSans-30" x="190.869"/><use xlink:href="#DejaVuSans-2d" x="254.492"/><use xlink:href="#DejaVuSans-30" x="290.576"/><use xlink:href="#DejaVuSans-37" x="354.199"/></g></g><g id="xtick_3"><use xlink:href="#m734517c1ce" x="232.904" y="287.041" style="fill:#b0b0b0;stroke:#b0b0b0;stroke-width:.4" id="line2d_3"/><g style="fill:#b0b0b0" transform="matrix(.14 0 0 -.14 203.656 304.679)" id="text_3"><defs><path id="DejaVuSans-31" d="M794 531h1031v3560L703 3866v575l1116 225h631V531h1031V0H794v531z" transform="scale(.01563)"/></defs><use xlink:href="#DejaVuSans-32"/><use xlink:href="#DejaVuSans-30" x="63.623"/><use xlink:href="#DejaVuSans-32" x="127.246"/><use xlink:href="#DejaVuSans-30" x="190.869"/><use xlink:href="#DejaVuSans-2d" x="254.492"/><use xlink:href="#DejaVuSans-31" x="290.576"/><use xlink:href="#DejaVuSans-30" x="354.199"/></g></g><g id="xtick_4"><use xlink:href="#m734517c1ce" x="294.458" y="287.041" style="fill:#b0b0b0;stroke:#b0b0b0;stroke-width:.4" id="line2d_4"/><g style="fill:#b0b0b0" transform="matrix(.14 0 0 -.14 265.21 304.679)" id="text_4"><use xlink:href="#DejaVuSans-32"/><use xlink:href="#DejaVuSans-30" x="63.623"/><use xlink:href="#DejaVuSans-32" x="127.246"/><use xlink:href="#DejaVuSans-31" x="190.869"/><use xlink:href="#DejaVuSans-2d" x="254.492"/><use xlink:href="#DejaVuSans-30" x="290.576"/><use xlink:href="#DejaVuSans-31" x="354.199"/></g></g><g id="xtick_5"><use xlink:href="#m734517c1ce" x="354.674" y="287.041" style="fill:#b0b0b0;stroke:#b0b0b0;stroke-width:.4" id="line2d_5"/><g style="fill:#b0b0b0" transform="matrix(.14 0 0 -.14 325.426 304.679)" id="text_5"><use xlink:href="#DejaVuSans-32"/><use xlink:href="#DejaVuSans-30" x="63.623"/><use xlink:href="#DejaVuSans-32" x="127.246"/><use xlink:href="#DejaVuSans-31" x="190.869"/><use xlink:href="#DejaVuSans-2d" x="254.492"/><use xlink:href="#DejaVuSans-30" x="290.576"/><use xlink:href="#DejaVuSans-34" x="354.199"/></g></g><g id="xtick_6"><use xlink:href="#m734517c1ce" x="415.559" y="287.041" style="fill:#b0b0b0;stroke:#b0b0b0;stroke-width:.4" id="line2d_6"/><g style="fill:#b0b0b0" transform="matrix(.14 0 0 -.14 386.31 304.679)" id="text_6"><use xlink:href="#DejaVuSans-32"/><use xlink:href="#DejaVuSans-30" x="63.623"/><use xlink:href="#DejaVuSans-32" x="127.246"/><use xlink:href="#DejaVuSans-31" x="190.869"/><use xlink:href="#DejaVuSans-2d" x="254.492"/><use xlink:href="#DejaVuSans-30" x="290.576"/><use xlink:href="#DejaVuSans-37" x="354.199"/></g></g><g id="xtick_7"><use xlink:href="#m734517c1ce" x="477.113" y="287.041" style="fill:#b0b0b0;stroke:#b0b0b0;stroke-width:.4" id="line2d_7"/><g style="fill:#b0b0b0" transform="matrix(.14 0 0 -.14 447.865 304.679)" id="text_7"><use xlink:href="#DejaVuSans-32"/><use xlink:href="#DejaVuSans-30" x="63.623"/><use xlink:href="#DejaVuSans-32" x="127.246"/><use xlink:href="#DejaVuSans-31" x="190.869"/><use xlink:href="#DejaVuSans-2d" x="254.492"/><use xlink:href="#DejaVuSans-31" x="290.576"/><use xlink:href="#DejaVuSans-30" x="354.199"/></g></g><g id="xtick_8"><use xlink:href="#m734517c1ce" x="538.667" y="287.041" style="fill:#b0b0b0;stroke:#b0b0b0;stroke-width:.4" id="line2d_8"/><g style="fill:#b0b0b0" transform="matrix(.14 0 0 -.14 509.419 304.679)" id="text_8"><use xlink:href="#DejaVuSans-32"/><use xlink:href="#DejaVuSans-30" x="63.623"/><use xlink:href="#DejaVuSans-32" x="127.246"/><use xlink:href="#DejaVuSans-32" x="190.869"/><use xlink:href="#DejaVuSans-2d" x="254.492"/><use xlink:href="#DejaVuSans-30" x="290.576"/><use xlink:href="#DejaVuSans-31" x="354.199"/></g></g><g id="xtick_9"><use xlink:href="#m734517c1ce" x="598.882" y="287.041" style="fill:#b0b0b0;stroke:#b0b0b0;stroke-width:.4" id="line2d_9"/><g style="fill:#b0b0b0" transform="matrix(.14 0 0 -.14 569.634 304.679)" id="text_9"><use xlink:href="#DejaVuSans-32"/><use xlink:href="#DejaVuSans-30" x="63.623"/><use xlink:href="#DejaVuSans-32" x="127.246"/><use xlink:href="#DejaVuSans-32" x="190.869"/><use xlink:href="#DejaVuSans-2d" x="254.492"/><use xlink:href="#DejaVuSans-30" x="290.576"/><use xlink:href="#DejaVuSans-34" x="354.199"/></g></g></g><g id="matplotlib.axis_2"><g id="ytick_1"><path d="M67.645 287.041h558" clip-path="url(#p629fa161bc)" style="fill:none;stroke:#b0b0b0;stroke-width:.3;stroke-linecap:square" id="line2d_10"/><g id="line2d_11"><defs><path id="mef4b7d6bdc" d="M0 0h-3.5" style="stroke:#b0b0b0;stroke-width:.3"/></defs><use xlink:href="#mef4b7d6bdc" x="67.645" y="287.041" style="fill:#b0b0b0;stroke:#b0b0b0;stroke-width:.3"/></g><use xlink:href="#DejaVuSans-30" style="fill:#b0b0b0" transform="matrix(.14 0 0 -.14 51.737 292.36)" id="text_10"/></g><g id="ytick_2"><path d="M67.645 252.726h558" clip-path="url(#p629fa161bc)" style="fill:none;stroke:#b0b0b0;stroke-width:.3;stroke-linecap:square" id="line2d_12"/><use xlink:href="#mef4b7d6bdc" x="67.645" y="252.726" style="fill:#b0b0b0;stroke:#b0b0b0;stroke-width:.3" id="line2d_13"/><g style="fill:#b0b0b0" transform="matrix(.14 0 0 -.14 7.2 258.045)" id="text_11"><use xlink:href="#DejaVuSans-31"/><use xlink:href="#DejaVuSans-30" x="63.623"/><use xlink:href="#DejaVuSans-30" x="127.246"/><use xlink:href="#DejaVuSans-30" x="190.869"/><use xlink:href="#DejaVuSans-30" x="254.492"/><use xlink:href="#DejaVuSans-30" x="318.115"/></g></g><g id="ytick_3"><path d="M67.645 218.41h558" clip-path="url(#p629fa161bc)" style="fill:none;stroke:#b0b0b0;stroke-width:.3;stroke-linecap:square" id="line2d_14"/><use xlink:href="#mef4b7d6bdc" x="67.645" y="218.411" style="fill:#b0b0b0;stroke:#b0b0b0;stroke-width:.3" id="line2d_15"/><g style="fill:#b0b0b0" transform="matrix(.14 0 0 -.14 7.2 223.73)" id="text_12"><use xlink:href="#DejaVuSans-32"/><use xlink:href="#DejaVuSans-30" x="63.623"/><use xlink:href="#DejaVuSans-30" x="127.246"/><use xlink:href="#DejaVuSans-30" x="190.869"/><use xlink:href="#DejaVuSans-30" x="254.492"/><use xlink:href="#DejaVuSans-30" x="318.115"/></g></g><g id="ytick_4"><path d="M67.645 184.095h558" clip-path="url(#p629fa161bc)" style="fill:none;stroke:#b0b0b0;stroke-width:.3;stroke-linecap:square" id="line2d_16"/><use xlink:href="#mef4b7d6bdc" x="67.645" y="184.095" style="fill:#b0b0b0;stroke:#b0b0b0;stroke-width:.3" id="line2d_17"/><g style="fill:#b0b0b0" transform="matrix(.14 0 0 -.14 7.2 189.414)" id="text_13"><defs><path id="DejaVuSans-33" d="M2597 2516q453-97 707-404 255-306 255-756 0-690-475-1069Q2609-91 1734-91q-293 0-604 58T488 141v609q262-153 574-231 313-78 654-78 593 0 904 234t311 681q0 413-289 645-289 233-804 233h-544v519h569q465 0 712 186t247 536q0 359-255 551-254 193-729 193-260 0-557-57-297-56-653-174v562q360 100 674 150t592 50q719 0 1137-327 419-326 419-882 0-388-222-655t-631-370z" transform="scale(.01563)"/></defs><use xlink:href="#DejaVuSans-33"/><use xlink:href="#DejaVuSans-30" x="63.623"/><use xlink:href="#DejaVuSans-30" x="127.246"/><use xlink:href="#DejaVuSans-30" x="190.869"/><use xlink:href="#DejaVuSans-30" x="254.492"/><use xlink:href="#DejaVuSans-30" x="318.115"/></g></g><g id="ytick_5"><path d="M67.645 149.78h558" clip-path="url(#p629fa161bc)" style="fill:none;stroke:#b0b0b0;stroke-width:.3;stroke-linecap:square" id="line2d_18"/><use xlink:href="#mef4b7d6bdc" x="67.645" y="149.78" style="fill:#b0b0b0;stroke:#b0b0b0;stroke-width:.3" id="line2d_19"/><g style="fill:#b0b0b0" transform="matrix(.14 0 0 -.14 7.2 155.099)" id="text_14"><use xlink:href="#DejaVuSans-34"/><use xlink:href="#DejaVuSans-30" x="63.623"/><use xlink:href="#DejaVuSans-30" x="127.246"/><use xlink:href="#DejaVuSans-30" x="190.869"/><use xlink:href="#DejaVuSans-30" x="254.492"/><use xlink:href="#DejaVuSans-30" x="318.115"/></g></g><g id="ytick_6"><path d="M67.645 115.465h558" clip-path="url(#p629fa161bc)" style="fill:none;stroke:#b0b0b0;stroke-width:.3;stroke-linecap:square" id="line2d_20"/><use xlink:href="#mef4b7d6bdc" x="67.645" y="115.465" style="fill:#b0b0b0;stroke:#b0b0b0;stroke-width:.3" id="line2d_21"/><g style="fill:#b0b0b0" transform="matrix(.14 0 0 -.14 7.2 120.784)" id="text_15"><defs><path id="DejaVuSans-35" d="M691 4666h2478v-532H1269V2991q137 47 274 70 138 23 276 23 781 0 1237-428 457-428 457-1159 0-753-469-1171Q2575-91 1722-91q-294 0-599 50Q819 9 494 109v635q281-153 581-228t634-75q541 0 856 284 316 284 316 772 0 487-316 771-315 285-856 285-253 0-505-56-251-56-513-175v2344z" transform="scale(.01563)"/></defs><use xlink:href="#DejaVuSans-35"/><use xlink:href="#DejaVuSans-30" x="63.623"/><use xlink:href="#DejaVuSans-30" x="127.246"/><use xlink:href="#DejaVuSans-30" x="190.869"/><use xlink:href="#DejaVuSans-30" x="254.492"/><use xlink:href="#DejaVuSans-30" x="318.115"/></g></g><g id="ytick_7"><path d="M67.645 81.15h558" clip-path="url(#p629fa161bc)" style="fill:none;stroke:#b0b0b0;stroke-width:.3;stroke-linecap:square" id="line2d_22"/><use xlink:href="#mef4b7d6bdc" x="67.645" y="81.149" style="fill:#b0b0b0;stroke:#b0b0b0;stroke-width:.3" id="line2d_23"/><g style="fill:#b0b0b0" transform="matrix(.14 0 0 -.14 7.2 86.468)" id="text_16"><defs><path id="DejaVuSans-36" d="M2113 2584q-425 0-674-291-248-290-248-796 0-503 248-796 249-292 674-292t673 292q248 293 248 796 0 506-248 796-248 291-673 291zm1253 1979v-575q-238 112-480 171-242 60-480 60-625 0-955-422-329-422-376-1275 184 272 462 417 279 145 613 145 703 0 1111-427 408-426 408-1160 0-719-425-1154Q2819-91 2113-91q-810 0-1238 620-428 621-428 1799 0 1106 525 1764t1409 658q238 0 480-47t505-140z" transform="scale(.01563)"/></defs><use xlink:href="#DejaVuSans-36"/><use xlink:href="#DejaVuSans-30" x="63.623"/><use xlink:href="#DejaVuSans-30" x="127.246"/><use xlink:href="#DejaVuSans-30" x="190.869"/><use xlink:href="#DejaVuSans-30" x="254.492"/><use xlink:href="#DejaVuSans-30" x="318.115"/></g></g><g id="ytick_8"><path d="M67.645 46.834h558" clip-path="url(#p629fa161bc)" style="fill:none;stroke:#b0b0b0;stroke-width:.3;stroke-linecap:square" id="line2d_24"/><use xlink:href="#mef4b7d6bdc" x="67.645" y="46.834" style="fill:#b0b0b0;stroke:#b0b0b0;stroke-width:.3" id="line2d_25"/><g style="fill:#b0b0b0" transform="matrix(.14 0 0 -.14 7.2 52.153)" id="text_17"><use xlink:href="#DejaVuSans-37"/><use xlink:href="#DejaVuSans-30" x="63.623"/><use xlink:href="#DejaVuSans-30" x="127.246"/><use xlink:href="#DejaVuSans-30" x="190.869"/><use xlink:href="#DejaVuSans-30" x="254.492"/><use xlink:href="#DejaVuSans-30" x="318.115"/></g></g><g id="ytick_9"><path d="M67.645 12.519h558" clip-path="url(#p629fa161bc)" style="fill:none;stroke:#b0b0b0;stroke-width:.3;stroke-linecap:square" id="line2d_26"/><use xlink:href="#mef4b7d6bdc" x="67.645" y="12.519" style="fill:#b0b0b0;stroke:#b0b0b0;stroke-width:.3" id="line2d_27"/><g style="fill:#b0b0b0" transform="matrix(.14 0 0 -.14 7.2 17.838)" id="text_18"><defs><path id="DejaVuSans-38" d="M2034 2216q-450 0-708-241-257-241-257-662 0-422 257-663 258-241 708-241t709 242q260 243 260 662 0 421-258 662-257 241-711 241zm-631 268q-406 100-633 378-226 279-226 679 0 559 398 884 399 325 1092 325 697 0 1094-325t397-884q0-400-227-679-226-278-629-378 456-106 710-416 255-309 255-755 0-679-414-1042Q2806-91 2034-91q-771 0-1186 362-414 363-414 1042 0 446 256 755 257 310 713 416zm-231 997q0-362 226-565 227-203 636-203 407 0 636 203 230 203 230 565 0 363-230 566-229 203-636 203-409 0-636-203-226-203-226-566z" transform="scale(.01563)"/></defs><use xlink:href="#DejaVuSans-38"/><use xlink:href="#DejaVuSans-30" x="63.623"/><use xlink:href="#DejaVuSans-30" x="127.246"/><use xlink:href="#DejaVuSans-30" x="190.869"/><use xlink:href="#DejaVuSans-30" x="254.492"/><use xlink:href="#DejaVuSans-30" x="318.115"/></g></g></g><path d="m67.645 287.04 30.108-.096 2.676-.184 1.338-.31 2.007-.964 2.677-2.023.669-.6.669-.792.669-.354.669-.539 2.676-3.092.67-.475.668-.643.67-.472.669-.179.669.006 1.338-.256 2.676.598 1.338.546 2.007.18.67-.145.668.11 1.339-.309.669.056.669-.175.669-.027.669.266 1.338.222.669.111.67-.143 1.337.313 2.007.185.67.096.669.378.669.113 1.338.476.669.031.669.22 2.007.224.67.001.668-.158.67.14.668-.137 1.338.086.67.19.669-.071 2.676.634 2.007-.142.67.062 1.337-.086.67-.327.668-.067 1.338.192 1.339.035.669-.126.669.277.669.043.669-.19.669-.053 2.007-.67 2.676-1.277.67-.431.669-.695 1.338-.994.669-.882.669-.438.669-.837 2.007-1.739.67-.767.668-.12.67-.255.668-.53.67-.09.668-.364.67-.548.669-.231 1.338-1.561.669-.314.669-.794.669-.414.669-.28.669-.547.67.117.668-.19.67.058 2.006-.262.67.144.669-.426.669.006 2.676.53.669-.066.669.518 1.338.753.67.884.668.156 1.338.923.67.196 1.338-.663.669-.487.669.23.669-.043.669.418.669-.468.669.566.669.96 1.338 1.267.67.459.668.32.67 1.104.668.33 2.677.623.669-.264 2.007.072 2.007.165.67.264 1.337-.117.67.246.668.431.67.747 1.338.589.669.182.669-.096.669-.548 2.007-1.132 1.338-.56 2.676-.103 1.339-.313 1.338.259.669.384 1.338-.464 1.338.251 1.338-.59 1.338.05.67-.122 1.337-1.086.67-.08.669-.299.669-.675 1.338-.505.669-.456.669-.277.669-.74.669.026.67-.258.668-1.265.67-.57.668-.11.67-.789.668-.563.67-1.154.669-.431.669.162.669-.759.669-1.263.669-.572.669-.892.669-.44 1.338-1.671.67-2.33.668-.677.67-1.803.668-1.334 2.008-5.721.669-.578.669-2.325.669-1.506.669-2.571.669-1.813.669-.983.669-1.771 2.676-5.296.67-.773.668-.337.67-1.393 1.338-.841.669 3.679.669-.636.669.568.669.306.669 1.304.669-1.154.669-.782.67-5.048.668-1.017.67-2.636 1.337-3.9.67-1.467 1.338-1.792 1.338-.297 1.338-1.306.669.036.669-.922.669-.162.669-.443.67.916.668.216.67.636.668.999.67.655.668 1.339.67 5.92.669-.568.669 2.511.669 1.155.669-.002.669.154.669-5.007 1.338-5.224.67-3.306.668-.598.67-1.318.668-2.033.67 1.414.668-6.136.67.37.669-.365.669-.905.669.542.669 1.492 2.007 7.686.669 1.68 1.338 6.278 1.338 4.165.67 2.609 1.337 3.722.67.55.669.289.669 1.565 2.007 3.974.669 1.337.669.21 3.345 8.506.67 1.149.668 2.084.67 1.061.669 1.426.669.895 1.338 2.776.669 1.036.669 1.34.669 1.773.669 1.296.67 1.676.668 1.247.67.832.668.64.67-.002.668-.718 1.339-.533.669-.013 1.338.294.669.247.669.757 2.676 1.672.67.498.668.31.67.144 1.337.805 1.339.465.669.115.669-.34.669.07 1.338-.103.669.048.669-.1 1.338.367.67.06.668-1.397.67-.257.668-.722.67-.254.669-.537.669-.904.669-.433.669.893.669-.452.669.115.669-.04.669.411 1.338-.115.67-.306.668-.157.67-.526.668-.278.67-.467.668.24.67-.883.669.009.669.298.669.063.669.737 1.338.356.669.902.67.552.668.356.67 1.01.668.024.67.445.668.797 1.339.947.669.387 2.007.745.669-.115 1.338.909 2.007 1.738.67.377.668.6 3.346 1.757 1.338.604 2.007 1.06.669.657.67.467 3.344.98 2.008 1.025.669.765.669.183 1.338.8.669.215.669-.112.669.066.67-.383.668.383.67-.09.668.177.67-.357.668.316 1.339.148.669.113.669.327 2.007.348 2.676.037 2.007-.316.67.014.668-.15.67.163 2.007-.416.669.193.669.017.669.231.669-.725 1.338-.519.67-.874.668-.23.67-.366.668-1.006.67-.209 1.338-1.08.669-1.496.669-.196.669-.42.669-.952.669-.647.669-.814.669-1.205.67-2.093.668-.717.67-.375 1.337-2.735.67-1.267.668-.786.67-3.463 1.338-1.556 2.007-4.442.669-1.82.669-2.964.67-.937.668.475.67-2.521.668-.983.67-2.549.668-1.685.67 1.229 1.338-1.078 1.338-3.302 2.676-2.73.669.127.67-.68.668-.19.67-.557.668-1.4.67.02.668.652.67-.382.669-1.03.669-1.249.669-.566 1.338.386.669-.344.669-.564.669 6.642.67-1.433 1.337 1.29.67-.322.668-.158.67.743.668-5.738.67 3.126.669.18.669.374.669 1.528.669.694.669.17.669 1.912.669 1.16.669 2.053.67 1.452.668 1.77.67.71.668-.464.67.778 1.337.93 1.339 1.897 2.007 1.709.669.859 1.338.886.67 1.147.668.46.67.25.668 2.297.67-.754.668.183.67.714.669 1.075.669-.047.669.393.669-.141.669 1.406.669.826.669.434.669.664.669.36.67.613.668-.668.67.748.668-.537 1.338.188.67-.091.669-.645 1.338-.136.669.832.669-.31 2.007-.335.67.122 1.337-.936.67 1.167.668-2.287.67-.446.668.241.67-1.141.669-.437.669-.871.669-2.559.669.816.669-.07.669-.388.669-.518.67-.2.668.062 1.338 7.057.67.923.668-.163.67-2.043 1.338-2.514 1.338-10.036.669-1.951.669-.59.669.422.669.188.669-.627.67.702.668.02.67.478.668.141.67-.382.668-.086.67.308.669-.844.669-1.688.669-1.136.669-1.809.669-2.674.669-3.156.669-4.907.669-6.276.67-2.738.668-.338.67-4.372.668-12.77.67-8.95.668-12.664.67-15.73.669-12.992 1.338-10.276.669-26.686.669-22.07.669-7.869.669-11.98.669-17.461 1.338-20.004.67-16.616.668 1.214.67-9.12.668-1.29 1.338-1.028.67.256.669 34.748.669-16.771.669-2.916.669 6.311.669 1.911 1.338 10.793.67-12.108.668 31.194.67 13.925 1.337 22.223.67 6.072.668 8.21.67 18.62.669 8.225.669 14.437 1.338 24.05.669 4.52.669 5.612.669 9.599.669 5.444.67 6.918.668 5.068.67 7.14.668 1.694.67 1.233.668 8.641.67 5.058 1.338 7.025.669 3.144.669 1.003.669 1.731.669 4.28.669 1.07 1.338 3.151.67 3.471.668-.784.67.234.668-.786.67 2.09.668 1.556.67.905.669 1.133.669 1.593.669.286.669 1.707 1.338 1.601 2.676.472.67 1.407.668.264 1.338-.737.67.9 1.338-.052.669-.337.669-.01.669.251.669.5.669-.74 3.345.324.67-.13.668.698.67-.117.669.345.669.493 2.007-.242.669-2.098.669-.044.669-.235 2.007-1.765.67-.077.668 1.94 1.338.119.67-1.033.669-.172 1.338-1.183.669-2.677 2.676-1.38.67-1.032.668-.731.67 1.42.668-.204.67.036.668-1.14.67-.15.669-1.183.669-.621.669-3.072.669-.148.669.38.669-.821.669-1.855.669-2.413h0" clip-path="url(#p629fa161bc)" style="fill:none;stroke:#7516fd;stroke-width:1.5;stroke-linecap:square" id="line2d_28"/><path d="m67.645 287.04 29.439-.098 4.014-.226 4.015-.669 3.345-.67 5.352-.203 2.677.209 5.352.688 4.684.235 9.367.4 28.77.161 4.014-.027 5.352.062 15.389-.052 20.74-.273 4.015.06 5.353-.048 17.395-.375 5.353-.696 5.352-1.16 1.339-.611 1.338-.437 2.007-.995 2.007-.527 1.338-.304 2.676-.599 4.015-.27.669-.045 1.338.17 1.338.009 4.684.033 4.683.22 1.338-.111 1.338-.212.67-.022 2.007-.57.669-.25 2.007-.335.669-.34 2.676-.616.67-.014.668-.25.67.147.668-.259.67.405.669.825.669.442 2.007.715.669-.017 2.676.438 1.338.109.67.302.668-.438.67-.588.669-.325 1.338-.174 1.338.14.669.465.669.295 2.676.66 1.338.455 1.338.19.67.02 1.338.38 3.345.635.669.015 1.338.335 2.676.324 4.015.785 5.352-.068 2.008-.105 2.676-.1 6.021-.12 5.353-1.017 1.338-.393 1.338-.198 1.338-.215 2.007-.67 1.339-.276 2.007-.242.669-.016.669.115.669.244 1.338.198.67.362.668.19.67-.175 2.006-.802.67-.193 1.338-1.03 2.676.019.669.059.67-.157 4.683-.008 2.007.61 2.007.426 3.345.966 2.007.332.67.222 2.007.936 1.338.168 2.007.567 1.338.127 1.338.247 1.338.706 3.346.33.669-.112.669.082 1.338.36 4.014.328 2.677.12 2.676.286 5.352.143 8.698-.016 6.022-.18 15.388-.65 8.698-1.4 2.676-.61 6.022-.504 2.007-.134 2.676.16 1.339.073 2.007.332 1.338.087 4.014.414 2.007-.006 2.008-.154 1.338.076 2.007.005 5.353-.22 2.007-.2.669-.09 4.014-1.402.67-.182.668-.304.67-.586 2.007-.718.669-.151.669-.017.669.138.669-.29 1.338-1.22 1.338-.614.67-.54 1.337-1.742 2.007-1.596 1.339-.897 1.338-1.389.669-.212.669-.924 2.007-1.448.67-.69.668-.518.67-1.15 1.337-.239 1.339.042.669-.015 2.676.48.669.074.669.476.669-.119.67.128 1.337 1.17.67.461 1.337.556.67.897.669.683 1.338 1.04.669.161 2.007.916.669.576.67.762 1.337 1.953 1.338.222.67.276.668.105 1.339-.49 1.338-.344.669-.464 2.007-2.723.669-1.446.67-1.178.668-.33.67-.742.668-1.055.67-.837.668-1.76.67-1.084.669-.782.669-.436 1.338-2.971 2.007-7.72 1.338-3.05 1.338-5.109.67-3.412 1.337-5.083.67-1.644.669-.731.669-1.748.669-2.182.669-1.617.669-2.877.669-1.404 1.338-1.527.669-.341.67-1.263.668-.575 2.007 1.21.67.923.668.507 1.339 1.3 1.338 2 .669.35.669.127.669 1.633.669.536.67.946.668.456 1.338 1.147.67.564.668.186.67 1.11.669.277.669-.336.669-.802.669-.44.669-.789 1.338-3.144.669-2.553.669-1.727.67-2.2.668-1.457.67-.684 2.676-8.138.669-1.135.669.726.669.003 2.007-3.323.669.066.669.403.67 1.008.668 1.216.67-.748.668.747.67-10.25.668 14.538.67 2.724.669-.194 1.338 6.1.669-7.266.669 17.267.669-7.39.669 6.912.669 4.137.67-9.826.668 2.046.67 12.322.668.902.67 5.545.668.769.67.505.669 8.724.669-2.938.669-1.028.669-.238.669-4.78 1.338.05.669-5.605.669 9.735.67-4.188.668 2.947.67 2.342.668 1.346.67.787.668 1.141.67-5.227.669 8.608 1.338 1.548.669.158.669.034.669.292 1.338.825h0" clip-path="url(#p629fa161bc)" style="fill:none;stroke:#d8b009;stroke-width:1.5;stroke-linecap:square" id="line2d_29"/><path d="m67.645 287.04 38.806-.103 6.021.01 12.713.084 35.46.006 29.439-.143 5.352-.018 8.698.073 10.705.06 36.13.027 181.985-.054 18.734-.233 15.389-.31 6.69.019 13.382-.188 8.697.134 3.346.151 5.352.013 15.389-.01 6.69-.168 3.346-.521 1.338-.257 3.345-1.306.67-.358 1.337-1.234.67-1.254.669-1.005.669-1.373.669-.967.669-1.615 2.676-10.786.669-3.65 1.338-4.524.67-.633.668-4.894.67-2.45.668.58.67-.048.669.635.669.463.669-.01.669 5.278.669 3.15 1.338 4.353 2.007 4.2.67.814.668-.112.67-1.119.668.977.67-.22.669 4.161.669.626.669 1.313 2.007 4.754.669.562.669-2.658.669.423.67.625.668.045.67.234.668-.128.67.635.668-.174.67.35.669.688.669.418.669-.032.669.403.669-.29.669.282.669-.041.669-1.345.67-.193.668.167.67-.008.668-.16.67-.012.668.17.67-.743.669.074.669-.143 1.338-.026.669-.958.669-.438.669.18.669-.32.669-.606.67-.79.668-.209.67.792 1.337-2.178.67-.857.669-.582.669-.36.669-.823.669-1.19 1.338-.284.669-.864.669-.05 2.676-1.19 1.338.042.67-.349.668-.066.67.508.669.01.669-.504.669-.116 1.338.523.669.445.669-.398.67.455.668 1.117.67.387 1.337 1.31.67-.008.668.802 1.339.327.669.04.669-.164.669-.031.669.202.669-.066.669.223.669.524.67.148.668.395.67-.047.668.463.67-.27 1.337-.138.67-.362 1.338.152.669-.647.669-.06.669-.498.669-.722.669.045h0" clip-path="url(#p629fa161bc)" style="fill:none;stroke:#4442e4;stroke-width:1.5;stroke-linecap:square" id="line2d_30"/><path d="m67.645 287.04 319.813-.076 8.698-.085 42.82.156 105.712-.009 63.561-.26 3.346-.244 2.007-.368 2.007-.599 1.338-.73 1.338-.95.67-.583.668.255.67-1.698 2.007-3.035 1.338 1.58.669-6.322.669-.482.669-1.404h0" clip-path="url(#p629fa161bc)" style="fill:none;stroke:#fe7b74;stroke-width:1.5;stroke-linecap:square" id="line2d_31"/><path d="m67.645 287.041 23.417-.107 4.015-.243 1.338-.11 5.352-.81 2.007-.416 2.677-.253 2.676.086 6.022.439 13.38.554 3.346.22 14.05.423 21.41.141 3.346-.01 4.014.018 28.77-.098 4.684-.154 4.014-.117 21.41-.233 4.014-.359 4.684-1.089 2.676-1.02.67-.243 2.675-1.618 3.346-2.397 1.338-1.179.669-.423 2.007-.836 2.007-1.1 1.339-.281.669-.336 2.007-.44.669.125 1.338-.17.669.143.67-.065 1.337.268.67.122 2.006.933 3.346 1.992.669.321 1.338.443 2.007.748 1.338.219.67.221 1.338.695.669.264 2.676.184.669-.236.669-.06 2.007.478 1.338.13.67.18.668.01.67-.178 1.338.591 1.338.215.669-.112 1.338-.422.669-.07.67-.26 1.337-.313.67-.202 1.337.478.67-.4.669-.215.669-.085.669.056.669.223 1.338.126.669.18 1.338.479 2.007.448 2.007.314 2.008-.07 2.676.037 4.683.123 8.698-.063 2.007-.372 1.339-.512 2.007-.637 6.021-1.453 1.338-.208 1.339-.254 4.014-.075 1.338.165.67-.453 3.344.312.67.021.669.57.669.13.669-.129 2.676.384.669.109 2.007 1.15 2.676.484.67-.278.669-.121.669.012 2.007.403 3.345.329 1.338.053 2.008.124 4.014.573 3.345.582 1.338.149 7.36 1.401 4.014.421 5.353.448 14.05.584 7.36-.03 5.353-.266 4.014-.503 2.676-.415 8.029-.506 8.698-.162 2.676-.042 2.676-.087 13.382.686 4.683.268 6.022.24 4.683.141 3.345.073 3.346-.019 13.381-.977 2.007-.438 8.698-1.206 2.676-.529 2.008-.339 4.683-.96.67.21 2.675-.75 1.338-.498.67-.667 1.338-.742 1.338-.421.669-.496.669-.644 1.338-1.984.67-1.31.668-.028.67-.716.668-2.329.67-3.024 1.338-8.632.669-4.239 1.338-3.602 2.007-13.532.669 1.762.669-2.759.67-4.632 1.337-4.856.67-.349.668 1.709.67-4.538.668.225.67-.09.669 1.668.669-.373.669-.233.669-.7 2.007 2.247.67.28.668.826.67 1.472 2.006 6.078.67 1.882.669.982.669 3.822 1.338 4.643 1.338 4.298.669 1.234.669.785.669 1.514 2.007 5.286 1.338 2.823.67.628.668 1.54 1.339 1.958 1.338 1.241.669.497.669.21 4.014 3.208.67.304 1.337 1.188 1.339.422 1.338-.295.669-.215 4.014-3.978.67-.345 2.676-4.991.669-1.032.669-.566.669-.183.669-.515.669-.206.669-.014 2.007.21.67.093.668-.167 1.338.747.67-.032.668.157.67.275.669.011.669.558.669.075.669.208 1.338.804 1.338.182.67.238.668.358 1.338.483 1.338.076.67.496.669 2.781.669-1.856 2.007-1.388 2.007-.684.67.589.668.292 1.338 1.537.67.748.668.305.67-1.59.669 2 .669 1.045 1.338 1.385.669.509.669.08 1.338.548h0" clip-path="url(#p629fa161bc)" style="fill:none;stroke:#1007e1;stroke-width:1.5;stroke-linecap:square" id="line2d_32"/><g style="fill:#7516fd" transform="matrix(.14 0 0 -.14 642.385 243.608)" id="text_19"><defs><path id="DejaVuSans-55" d="M556 4666h635V1831q0-750 271-1080 272-329 882-329 606 0 878 329 272 330 272 1080v2835h634V1753q0-912-452-1378Q3225-91 2344-91q-885 0-1337 466-451 466-451 1378v2913z" transform="scale(.01563)"/><path id="DejaVuSans-53" d="M3425 4513v-616q-359 172-678 256-319 85-616 85-515 0-795-200t-280-569q0-310 186-468 186-157 705-254l381-78q706-135 1042-474t336-907q0-679-455-1029Q2797-91 1919-91q-331 0-705 75-373 75-773 222v650q384-215 753-325 369-109 725-109 540 0 834 212 294 213 294 607 0 343-211 537t-692 291l-385 75q-706 140-1022 440-315 300-315 835 0 619 436 975t1201 356q329 0 669-60 341-59 697-177z" transform="scale(.01563)"/></defs><use xlink:href="#DejaVuSans-55"/><use xlink:href="#DejaVuSans-53" x="73.193"/></g><g style="fill:#d8b009" transform="matrix(.14 0 0 -.14 642.385 257.608)" id="text_20"><defs><path id="DejaVuSans-47" d="M3809 666v1253H2778v519h1656V434q-365-259-806-392-440-133-940-133-1094 0-1712 639-617 640-617 1780 0 1144 617 1783 618 639 1712 639 456 0 867-113 411-112 758-331v-672q-350 297-744 447t-828 150q-857 0-1287-478-429-478-429-1425 0-944 429-1422 430-478 1287-478 334 0 596 58 263 58 472 180z" transform="scale(.01563)"/><path id="DejaVuSans-65" d="M3597 1894v-281H953q38-594 358-905t892-311q331 0 642 81t618 244V178Q3153 47 2828-22t-659-69q-838 0-1327 487-489 488-489 1320 0 859 464 1363 464 505 1252 505 706 0 1117-455 411-454 411-1235zm-575 169q-6 471-264 752-258 282-683 282-481 0-770-272t-333-766l2050 4z" transform="scale(.01563)"/><path id="DejaVuSans-72" d="M2631 2963q-97 56-211 82-114 27-251 27-488 0-749-317t-261-911V0H581v3500h578v-544q182 319 472 473 291 155 707 155 59 0 131-8 72-7 159-23l3-590z" transform="scale(.01563)"/><path id="DejaVuSans-6d" d="M3328 2828q216 388 516 572t706 184q547 0 844-383 297-382 297-1088V0h-578v2094q0 503-179 746-178 244-543 244-447 0-707-297-259-296-259-809V0h-578v2094q0 506-178 748t-550 242q-441 0-701-298-259-298-259-808V0H581v3500h578v-544q197 322 472 475t653 153q382 0 649-194 267-193 395-562z" transform="scale(.01563)"/><path id="DejaVuSans-61" d="M2194 1759q-697 0-966-159t-269-544q0-306 202-486 202-179 548-179 479 0 768 339t289 901v128h-572zm1147 238V0h-575v531q-197-318-491-470T1556-91q-537 0-855 302-317 302-317 808 0 590 395 890 396 300 1180 300h807v57q0 397-261 614t-733 217q-300 0-585-72-284-72-546-216v532q315 122 612 182 297 61 578 61 760 0 1135-394 375-393 375-1193z" transform="scale(.01563)"/><path id="DejaVuSans-6e" d="M3513 2113V0h-575v2094q0 497-194 743-194 247-581 247-466 0-735-297-269-296-269-809V0H581v3500h578v-544q207 316 486 472 280 156 646 156 603 0 912-373 310-373 310-1098z" transform="scale(.01563)"/><path id="DejaVuSans-79" d="M2059-325q-243-625-475-815-231-191-618-191H506v481h338q237 0 368 113 132 112 291 531l103 262L191 3500h609L1894 763l1094 2737h609L2059-325z" transform="scale(.01563)"/></defs><use xlink:href="#DejaVuSans-47"/><use xlink:href="#DejaVuSans-65" x="77.49"/><use xlink:href="#DejaVuSans-72" x="139.014"/><use xlink:href="#DejaVuSans-6d" x="178.377"/><use xlink:href="#DejaVuSans-61" x="275.789"/><use xlink:href="#DejaVuSans-6e" x="337.068"/><use xlink:href="#DejaVuSans-79" x="400.447"/></g><g style="fill:#4442e4" transform="matrix(.14 0 0 -.14 642.385 271.608)" id="text_21"><defs><path id="DejaVuSans-41" d="m2188 4044-857-2322h1716l-859 2322zm-357 622h716L4325 0h-656l-425 1197H1141L716 0H50l1781 4666z" transform="scale(.01563)"/><path id="DejaVuSans-75" d="M544 1381v2119h575V1403q0-497 193-746 194-248 582-248 465 0 735 297 271 297 271 810v1984h575V0h-575v538q-209-319-486-474-276-155-642-155-603 0-916 375-312 375-312 1097zm1447 2203z" transform="scale(.01563)"/><path id="DejaVuSans-73" d="M2834 3397v-544q-243 125-506 187-262 63-544 63-428 0-642-131t-214-394q0-200 153-314t616-217l197-44q612-131 870-370t258-667q0-488-386-773Q2250-91 1575-91q-281 0-586 55T347 128v594q319-166 628-249 309-82 613-82 406 0 624 139 219 139 219 392 0 234-158 359-157 125-692 241l-200 47q-534 112-772 345-237 233-237 639 0 494 350 762 350 269 994 269 318 0 599-47 282-46 519-140z" transform="scale(.01563)"/><path id="DejaVuSans-74" d="M1172 4494v-994h1184v-447H1172V1153q0-428 117-550t477-122h590V0h-590q-666 0-919 248-253 249-253 905v1900H172v447h422v994h578z" transform="scale(.01563)"/><path id="DejaVuSans-6c" d="M603 4863h575V0H603v4863z" transform="scale(.01563)"/><path id="DejaVuSans-69" d="M603 3500h575V0H603v3500zm0 1363h575v-729H603v729z" transform="scale(.01563)"/></defs><use xlink:href="#DejaVuSans-41"/><use xlink:href="#DejaVuSans-75" x="68.408"/><use xlink:href="#DejaVuSans-73" x="131.787"/><use xlink:href="#DejaVuSans-74" x="183.887"/><use xlink:href="#DejaVuSans-72" x="223.096"/><use xlink:href="#DejaVuSans-61" x="264.209"/><use xlink:href="#DejaVuSans-6c" x="325.488"/><use xlink:href="#DejaVuSans-69" x="353.271"/><use xlink:href="#DejaVuSans-61" x="381.055"/></g><g style="fill:#fe7b74" transform="matrix(.14 0 0 -.14 642.385 285.608)" id="text_22"><defs><path id="DejaVuSans-54" d="M-19 4666h3947v-532H2272V0h-634v4134H-19v532z" transform="scale(.01563)"/><path id="DejaVuSans-77" d="M269 3500h575l719-2731 715 2731h678l719-2731 716 2731h575L4050 0h-678l-753 2869L1863 0h-679L269 3500z" transform="scale(.01563)"/><path id="DejaVuSans-2a" d="m3009 3897-1121-606 1121-610-181-306-1050 634V1831h-356v1178L372 2375l-181 306 1122 610-1122 606 181 309 1050-634v1178h356V3572l1050 634 181-309z" transform="scale(.01563)"/></defs><use xlink:href="#DejaVuSans-54"/><use xlink:href="#DejaVuSans-61" x="44.584"/><use xlink:href="#DejaVuSans-69" x="105.863"/><use xlink:href="#DejaVuSans-77" x="133.646"/><use xlink:href="#DejaVuSans-61" x="215.434"/><use xlink:href="#DejaVuSans-6e" x="276.713"/><use xlink:href="#DejaVuSans-2a" x="340.092"/></g><g style="fill:#1007e1" transform="matrix(.14 0 0 -.14 642.385 299.608)" id="text_23"><defs><path id="DejaVuSans-49" d="M628 4666h631V0H628v4666z" transform="scale(.01563)"/></defs><use xlink:href="#DejaVuSans-49"/><use xlink:href="#DejaVuSans-74" x="29.492"/><use xlink:href="#DejaVuSans-61" x="68.701"/><use xlink:href="#DejaVuSans-6c" x="129.98"/><use xlink:href="#DejaVuSans-79" x="157.764"/></g></g></g><defs><clipPath id="p629fa161bc"><path d="M67.645 9.841h558v277.2h-558z"/></clipPath></defs></svg>