<svg xmlns="http://www.w3.org/2000/svg" xmlns:xlink="http://www.w3.org/1999/xlink" width="940.033" height="422.014" viewBox="0 0 705.025 316.511"><defs><style>*{stroke-linejoin:round;stroke-linecap:butt}</style></defs><g id="figure_1"><path id="patch_1" d="M0 316.51h705.025V0H0v316.51z" style="fill:none"/><g id="axes_1"><path id="patch_2" d="M58.737 284.4h558V7.2h-558v277.2z" style="fill:none"/><g id="matplotlib.axis_1"><g id="xtick_1"><g id="line2d_1"><defs><path id="m17969aa9a2" d="M0 0v3.5" style="stroke:#b0b0b0;stroke-width:.4"/></defs><use xlink:href="#m17969aa9a2" x="106.421" y="284.4" style="fill:#b0b0b0;stroke:#b0b0b0;stroke-width:.4"/></g><g id="text_1" style="fill:#b0b0b0" transform="matrix(.14 0 0 -.14 77.173 302.038)"><defs><path id="DejaVuSans-32" d="M1228 531h2203V0H469v531q359 372 979 998 621 627 780 809 303 340 423 576 121 236 121 464 0 372-261 606-261 235-680 235-297 0-627-103-329-103-704-313v638q381 153 712 231 332 78 607 78 725 0 1156-363 431-362 431-968 0-288-108-546-107-257-392-607-78-91-497-524-418-433-1181-1211z" transform="scale(.01563)"/><path id="DejaVuSans-30" d="M2034 4250q-487 0-733-480-245-479-245-1442 0-959 245-1439 246-480 733-480 491 0 736 480 246 480 246 1439 0 963-246 1442-245 480-736 480zm0 500q785 0 1199-621 414-620 414-1801 0-1178-414-1799Q2819-91 2034-91q-784 0-1198 620-414 621-414 1799 0 1181 414 1801 414 621 1198 621z" transform="scale(.01563)"/><path id="DejaVuSans-2d" d="M313 2009h1684v-512H313v512z" transform="scale(.01563)"/><path id="DejaVuSans-35" d="M691 4666h2478v-532H1269V2991q137 47 274 70 138 23 276 23 781 0 1237-428 457-428 457-1159 0-753-469-1171Q2575-91 1722-91q-294 0-599 50Q819 9 494 109v635q281-153 581-228t634-75q541 0 856 284 316 284 316 772 0 487-316 771-315 285-856 285-253 0-505-56-251-56-513-175v2344z" transform="scale(.01563)"/></defs><use xlink:href="#DejaVuSans-32"/><use xlink:href="#DejaVuSans-30" x="63.623"/><use xlink:href="#DejaVuSans-32" x="127.246"/><use xlink:href="#DejaVuSans-30" x="190.869"/><use xlink:href="#DejaVuSans-2d" x="254.492"/><use xlink:href="#DejaVuSans-30" x="290.576"/><use xlink:href="#DejaVuSans-35" x="354.199"/></g></g><g id="xtick_2"><use xlink:href="#m17969aa9a2" id="line2d_2" x="168.816" y="284.4" style="fill:#b0b0b0;stroke:#b0b0b0;stroke-width:.4"/><g id="text_2" style="fill:#b0b0b0" transform="matrix(.14 0 0 -.14 139.568 302.038)"><defs><path id="DejaVuSans-39" d="M703 97v575q238-113 481-172 244-59 479-59 625 0 954 420 330 420 377 1277-181-269-460-413-278-144-615-144-700 0-1108 423-408 424-408 1159 0 718 425 1152 425 435 1131 435 810 0 1236-621 427-620 427-1801 0-1103-524-1761Q2575-91 1691-91q-238 0-482 47Q966 3 703 97zm1256 1978q425 0 673 290 249 291 249 798 0 503-249 795-248 292-673 292t-673-292q-248-292-248-795 0-507 248-798 248-290 673-290z" transform="scale(.01563)"/></defs><use xlink:href="#DejaVuSans-32"/><use xlink:href="#DejaVuSans-30" x="63.623"/><use xlink:href="#DejaVuSans-32" x="127.246"/><use xlink:href="#DejaVuSans-30" x="190.869"/><use xlink:href="#DejaVuSans-2d" x="254.492"/><use xlink:href="#DejaVuSans-30" x="290.576"/><use xlink:href="#DejaVuSans-39" x="354.199"/></g></g><g id="xtick_3"><use xlink:href="#m17969aa9a2" id="line2d_3" x="230.703" y="284.4" style="fill:#b0b0b0;stroke:#b0b0b0;stroke-width:.4"/><g id="text_3" style="fill:#b0b0b0" transform="matrix(.14 0 0 -.14 201.455 302.038)"><defs><path id="DejaVuSans-31" d="M794 531h1031v3560L703 3866v575l1116 225h631V531h1031V0H794v531z" transform="scale(.01563)"/></defs><use xlink:href="#DejaVuSans-32"/><use xlink:href="#DejaVuSans-30" x="63.623"/><use xlink:href="#DejaVuSans-32" x="127.246"/><use xlink:href="#DejaVuSans-31" x="190.869"/><use xlink:href="#DejaVuSans-2d" x="254.492"/><use xlink:href="#DejaVuSans-30" x="290.576"/><use xlink:href="#DejaVuSans-31" x="354.199"/></g></g><g id="xtick_4"><use xlink:href="#m17969aa9a2" id="line2d_4" x="291.576" y="284.4" style="fill:#b0b0b0;stroke:#b0b0b0;stroke-width:.4"/><g id="text_4" style="fill:#b0b0b0" transform="matrix(.14 0 0 -.14 262.328 302.038)"><use xlink:href="#DejaVuSans-32"/><use xlink:href="#DejaVuSans-30" x="63.623"/><use xlink:href="#DejaVuSans-32" x="127.246"/><use xlink:href="#DejaVuSans-31" x="190.869"/><use xlink:href="#DejaVuSans-2d" x="254.492"/><use xlink:href="#DejaVuSans-30" x="290.576"/><use xlink:href="#DejaVuSans-35" x="354.199"/></g></g><g id="xtick_5"><use xlink:href="#m17969aa9a2" id="line2d_5" x="353.97" y="284.4" style="fill:#b0b0b0;stroke:#b0b0b0;stroke-width:.4"/><g id="text_5" style="fill:#b0b0b0" transform="matrix(.14 0 0 -.14 324.722 302.038)"><use xlink:href="#DejaVuSans-32"/><use xlink:href="#DejaVuSans-30" x="63.623"/><use xlink:href="#DejaVuSans-32" x="127.246"/><use xlink:href="#DejaVuSans-31" x="190.869"/><use xlink:href="#DejaVuSans-2d" x="254.492"/><use xlink:href="#DejaVuSans-30" x="290.576"/><use xlink:href="#DejaVuSans-39" x="354.199"/></g></g><g id="xtick_6"><use xlink:href="#m17969aa9a2" id="line2d_6" x="415.858" y="284.4" style="fill:#b0b0b0;stroke:#b0b0b0;stroke-width:.4"/><g id="text_6" style="fill:#b0b0b0" transform="matrix(.14 0 0 -.14 386.61 302.038)"><use xlink:href="#DejaVuSans-32"/><use xlink:href="#DejaVuSans-30" x="63.623"/><use xlink:href="#DejaVuSans-32" x="127.246"/><use xlink:href="#DejaVuSans-32" x="190.869"/><use xlink:href="#DejaVuSans-2d" x="254.492"/><use xlink:href="#DejaVuSans-30" x="290.576"/><use xlink:href="#DejaVuSans-31" x="354.199"/></g></g><g id="xtick_7"><use xlink:href="#m17969aa9a2" id="line2d_7" x="476.73" y="284.4" style="fill:#b0b0b0;stroke:#b0b0b0;stroke-width:.4"/><g id="text_7" style="fill:#b0b0b0" transform="matrix(.14 0 0 -.14 447.482 302.038)"><use xlink:href="#DejaVuSans-32"/><use xlink:href="#DejaVuSans-30" x="63.623"/><use xlink:href="#DejaVuSans-32" x="127.246"/><use xlink:href="#DejaVuSans-32" x="190.869"/><use xlink:href="#DejaVuSans-2d" x="254.492"/><use xlink:href="#DejaVuSans-30" x="290.576"/><use xlink:href="#DejaVuSans-35" x="354.199"/></g></g><g id="xtick_8"><use xlink:href="#m17969aa9a2" id="line2d_8" x="539.125" y="284.4" style="fill:#b0b0b0;stroke:#b0b0b0;stroke-width:.4"/><g id="text_8" style="fill:#b0b0b0" transform="matrix(.14 0 0 -.14 509.877 302.038)"><use xlink:href="#DejaVuSans-32"/><use xlink:href="#DejaVuSans-30" x="63.623"/><use xlink:href="#DejaVuSans-32" x="127.246"/><use xlink:href="#DejaVuSans-32" x="190.869"/><use xlink:href="#DejaVuSans-2d" x="254.492"/><use xlink:href="#DejaVuSans-30" x="290.576"/><use xlink:href="#DejaVuSans-39" x="354.199"/></g></g><g id="xtick_9"><use xlink:href="#m17969aa9a2" id="line2d_9" x="601.012" y="284.4" style="fill:#b0b0b0;stroke:#b0b0b0;stroke-width:.4"/><g id="text_9" style="fill:#b0b0b0" transform="matrix(.14 0 0 -.14 571.764 302.038)"><defs><path id="DejaVuSans-33" d="M2597 2516q453-97 707-404 255-306 255-756 0-690-475-1069Q2609-91 1734-91q-293 0-604 58T488 141v609q262-153 574-231 313-78 654-78 593 0 904 234t311 681q0 413-289 645-289 233-804 233h-544v519h569q465 0 712 186t247 536q0 359-255 551-254 193-729 193-260 0-557-57-297-56-653-174v562q360 100 674 150t592 50q719 0 1137-327 419-326 419-882 0-388-222-655t-631-370z" transform="scale(.01563)"/></defs><use xlink:href="#DejaVuSans-32"/><use xlink:href="#DejaVuSans-30" x="63.623"/><use xlink:href="#DejaVuSans-32" x="127.246"/><use xlink:href="#DejaVuSans-33" x="190.869"/><use xlink:href="#DejaVuSans-2d" x="254.492"/><use xlink:href="#DejaVuSans-30" x="290.576"/><use xlink:href="#DejaVuSans-31" x="354.199"/></g></g></g><g id="matplotlib.axis_2"><g id="ytick_1"><path id="line2d_10" d="M58.737 284.4h558" clip-path="url(#p34d5b16970)" style="fill:none;stroke:#b0b0b0;stroke-width:.3;stroke-linecap:square"/><g id="line2d_11"><defs><path id="m441f6a84b5" d="M0 0h-3.5" style="stroke:#b0b0b0;stroke-width:.3"/></defs><use xlink:href="#m441f6a84b5" x="58.737" y="284.4" style="fill:#b0b0b0;stroke:#b0b0b0;stroke-width:.3"/></g><use xlink:href="#DejaVuSans-30" id="text_10" style="fill:#b0b0b0" transform="matrix(.14 0 0 -.14 42.83 289.719)"/></g><g id="ytick_2"><path id="line2d_12" d="M58.737 231.163h558" clip-path="url(#p34d5b16970)" style="fill:none;stroke:#b0b0b0;stroke-width:.3;stroke-linecap:square"/><use xlink:href="#m441f6a84b5" id="line2d_13" x="58.737" y="231.163" style="fill:#b0b0b0;stroke:#b0b0b0;stroke-width:.3"/><g id="text_11" style="fill:#b0b0b0" transform="matrix(.14 0 0 -.14 16.108 236.482)"><use xlink:href="#DejaVuSans-32"/><use xlink:href="#DejaVuSans-30" x="63.623"/><use xlink:href="#DejaVuSans-30" x="127.246"/><use xlink:href="#DejaVuSans-30" x="190.869"/></g></g><g id="ytick_3"><path id="line2d_14" d="M58.737 177.926h558" clip-path="url(#p34d5b16970)" style="fill:none;stroke:#b0b0b0;stroke-width:.3;stroke-linecap:square"/><use xlink:href="#m441f6a84b5" id="line2d_15" x="58.737" y="177.926" style="fill:#b0b0b0;stroke:#b0b0b0;stroke-width:.3"/><g id="text_12" style="fill:#b0b0b0" transform="matrix(.14 0 0 -.14 16.108 183.245)"><defs><path id="DejaVuSans-34" d="M2419 4116 825 1625h1594v2491zm-166 550h794V1625h666v-525h-666V0h-628v1100H313v609l1940 2957z" transform="scale(.01563)"/></defs><use xlink:href="#DejaVuSans-34"/><use xlink:href="#DejaVuSans-30" x="63.623"/><use xlink:href="#DejaVuSans-30" x="127.246"/><use xlink:href="#DejaVuSans-30" x="190.869"/></g></g><g id="ytick_4"><path id="line2d_16" d="M58.737 124.69h558" clip-path="url(#p34d5b16970)" style="fill:none;stroke:#b0b0b0;stroke-width:.3;stroke-linecap:square"/><use xlink:href="#m441f6a84b5" id="line2d_17" x="58.737" y="124.69" style="fill:#b0b0b0;stroke:#b0b0b0;stroke-width:.3"/><g id="text_13" style="fill:#b0b0b0" transform="matrix(.14 0 0 -.14 16.108 130.009)"><defs><path id="DejaVuSans-36" d="M2113 2584q-425 0-674-291-248-290-248-796 0-503 248-796 249-292 674-292t673 292q248 293 248 796 0 506-248 796-248 291-673 291zm1253 1979v-575q-238 112-480 171-242 60-480 60-625 0-955-422-329-422-376-1275 184 272 462 417 279 145 613 145 703 0 1111-427 408-426 408-1160 0-719-425-1154Q2819-91 2113-91q-810 0-1238 620-428 621-428 1799 0 1106 525 1764t1409 658q238 0 480-47t505-140z" transform="scale(.01563)"/></defs><use xlink:href="#DejaVuSans-36"/><use xlink:href="#DejaVuSans-30" x="63.623"/><use xlink:href="#DejaVuSans-30" x="127.246"/><use xlink:href="#DejaVuSans-30" x="190.869"/></g></g><g id="ytick_5"><path id="line2d_18" d="M58.737 71.453h558" clip-path="url(#p34d5b16970)" style="fill:none;stroke:#b0b0b0;stroke-width:.3;stroke-linecap:square"/><use xlink:href="#m441f6a84b5" id="line2d_19" x="58.737" y="71.453" style="fill:#b0b0b0;stroke:#b0b0b0;stroke-width:.3"/><g id="text_14" style="fill:#b0b0b0" transform="matrix(.14 0 0 -.14 16.108 76.772)"><defs><path id="DejaVuSans-38" d="M2034 2216q-450 0-708-241-257-241-257-662 0-422 257-663 258-241 708-241t709 242q260 243 260 662 0 421-258 662-257 241-711 241zm-631 268q-406 100-633 378-226 279-226 679 0 559 398 884 399 325 1092 325 697 0 1094-325t397-884q0-400-227-679-226-278-629-378 456-106 710-416 255-309 255-755 0-679-414-1042Q2806-91 2034-91q-771 0-1186 362-414 363-414 1042 0 446 256 755 257 310 713 416zm-231 997q0-362 226-565 227-203 636-203 407 0 636 203 230 203 230 565 0 363-230 566-229 203-636 203-409 0-636-203-226-203-226-566z" transform="scale(.01563)"/></defs><use xlink:href="#DejaVuSans-38"/><use xlink:href="#DejaVuSans-30" x="63.623"/><use xlink:href="#DejaVuSans-30" x="127.246"/><use xlink:href="#DejaVuSans-30" x="190.869"/></g></g><g id="ytick_6"><path id="line2d_20" d="M58.737 18.216h558" clip-path="url(#p34d5b16970)" style="fill:none;stroke:#b0b0b0;stroke-width:.3;stroke-linecap:square"/><use xlink:href="#m441f6a84b5" id="line2d_21" x="58.737" y="18.216" style="fill:#b0b0b0;stroke:#b0b0b0;stroke-width:.3"/><g id="text_15" style="fill:#b0b0b0" transform="matrix(.14 0 0 -.14 7.2 23.535)"><use xlink:href="#DejaVuSans-31"/><use xlink:href="#DejaVuSans-30" x="63.623"/><use xlink:href="#DejaVuSans-30" x="127.246"/><use xlink:href="#DejaVuSans-30" x="190.869"/><use xlink:href="#DejaVuSans-30" x="254.492"/></g></g></g><path id="line2d_22" d="m58.737 283.902.508.057 1.522-.384.507-.335 4.565-1.201.508.254.507-.692 1.014-.464 1.522-.125.507-.41 1.015 1.072.507-.24.508.384.507-.198 1.522.848.507-.167.507.6.508-.125.507.411 1.014.202 1.015.045 4.565.57 5.073.217 7.61.054 2.028.034 1.522.019.507-4.92 3.044.041.507 4.92 336.83-.06 3.55-.62 1.522-.704.507-.277.508-.799 2.029-2.068.507-.575.507-.745.507-.171 1.015-.745.507-.407.508-.247 1.014-.137 2.03.14 2.028.601 1.522.898 1.015.783.507.205 1.014.624 1.015.586 1.015.243 1.014.544 1.522.304 1.522.51 1.014.289 1.015.235 1.522.316 2.536.639 1.522-.37 1.014-.235 1.522-.369 4.058 1.232 5.073.324 6.595.053 8.623.023 9.131-.03 3.551-.035 2.537-.023 9.13-.034 9.131-.02 1.522-.056 6.595-.053 7.101-.11.508-.567 2.029.076 1.014.026.508.597 15.218.016 4.058-.073 1.522.02 2.029.045.507.232h3.044l.507-.3 12.175-.434 1.522-.335.507.13.507-.187 1.015.038 1.521.065.508-.228.507.084 1.014-.384 3.044-.4.507.042 1.015-.11 1.522.11 1.014-.099.508.1.507-227.729 1.522.175 1.014.3.508-48.038.507 227.865 1.014.064 1.522.255.507 23.919.508.068 1.014.327.507.103h0" clip-path="url(#p34d5b16970)" style="fill:none;stroke:#ae54a5;stroke-width:1.5;stroke-linecap:square"/><path id="line2d_23" d="m58.737 284.4 21.813-.084 2.537-.201 1.014-.327.507-.236 1.522-1.179.508-.608.507-.784.507-1.038 1.015-2.893.507-2.32 1.014-3.601.508-3.18 1.014-9.304 1.522-10.952.507-4.015.508-5.807.507-1.958 1.522-7.472 1.014-1.898.507.475.508-1.794.507.262.507.418.508.609.507-.32.507-1.08.507.114.508.605.507-.909.507.152.507.776.508 2.103.507 3.038.507.825.508.346 1.014 1.597.507-.129.508.81.507.441 1.014.422.508 1.092.507.414.507 1.149.508.76.507 1.308 1.014 4.617 1.015 1.076.507 1.148.507.7.508-.746.507.613.507.855.508 2.229.507 1.597.507.342.507.688.508 2.365.507 2.94.507.068 1.522 1.308.507.057.508-.635.507-1.235.507 1.722.507.255.508.909.507 1.171.507.612.508 1.008.507.266.507.54.507.723.508.182.507-.262 2.536 2.198 1.015 1.281 1.522.35.507-.053.507.551h.507l.508.243 1.014.012.507.692.508.201.507-.752.507-.183.508.73 1.014-.05.507-2.262.508-.536.507-1.099.507-.475.507-1.742.508-.498.507-.297.507.91.508-.42.507.297 1.014-1.007.508.004.507-.384.507-.636.508-1.102.507-.365.507-.635.507-.225.508-.376.507-2.095 1.014-1.194.508-.932.507-.316.507-.536.507.33.508 1.952.507-.126.507.072.508.38.507-.391.507.068.507-.384.508.255.507.65.507-.52.508.657 1.014.08.507-.13.508.248.507-.57.507 3.16.507-.198.508.65 1.014.875 1.015.057.507-1.68.507-.104.508.715.507-.004.507.149.507-.118.508.593 1.014.586.507-.088.508.654.507.016.507.616.508 2.235.507-.102.507.44.507-.73 1.015.377.507-.384.507-2.726.508.639.507.224.507.703.508.27.507.506.507.053.507.643.508-.452.507-.18.507.164.507-.365.508-.175.507.278 1.015 1.103 1.014.099.507.342.508-.304.507-.521.507.718h.507l1.015-.52.507.09.508-.3.507.308 1.014-.547.508.51.507.08.507-.537.507.011.508-.445 1.014-1.44 1.015-.27.507-.697.507.03 1.015-.364.507.479 1.015-.875.507.03.507-.216.508-.647.507-2.38.507-.152.507-.833.508-.43.507-.62 1.014-.543.508.604.507-1.445 1.015-.125.507-1.038.507-.688.507-.27.508-1.065.507-1.795 1.014-6.012.508-.878 2.029-4.951.507 2.342.507 1.449.508.836.507.126 1.014-2.274.508-2.46.507-5.742 1.015-7.575.507-1.43.507-.848 1.015-.715.507-.023.507-2.684.507-.419.508-.566.507-.244.507-1.129.508-2.715.507-1.901.507 1.437.507-.878 1.015-.985.507-1.525.507 1.41.508 2.1.507 5.536.507 3.141.508.894.507-.281.507-.913.507-2.202.508-1.354 1.014-5.392.507.251.508-.445.507-.136.507.03.508-2.962.507-7.56.507-2.14.507-2.628.508.623.507-2.947.507-.384.508.84.507 1.56.507-1.506.507.293.508 1.022.507 7.51.507-1.646.507-1.099 1.015.27.507.704.507-.765.508-6.228 1.014 2.437.508.67.507 2.684.507-.4.507.012.508 1.734.507.776.507-.43.508-.258.507.346.507 1.79.507 1.256 1.015 3.897 1.522 7.727.507 1.179.507 1.913.507 5.24.508 3.627.507 2.263 1.015 2.502.507-.224.507-.97.507-2.316.508-3.065.507.19 1.014 3.016.508.464.507-.065.507 1.278 1.015 4.867.507 1.346.507.18.508 1.47.507 1.89.507.62.507 3.951 1.015 2.552.507 1.897.508.491.507.274.507 1.935.507 1.3.508-.33.507 1.517.507.742.507-.514.508.37.507.958.507-.795.508 1.091.507-.494.507-.133.507 1.007.508-.311.507.41.507 1.274 1.015 1.901.507.183 1.522 1.365.507-5.818.507.342 1.015-.038 1.014.118.508-.13.507 6.329.507.395 1.015.32 1.014-.38 1.015.235.507-.126.507.4.508-.152 1.014.228.508.646.507-.323.507.213.507-.152 1.015-.065.507-.03.508-.67.507.64.507.334.507.179.508.414 1.014.567.507.616 1.015.391 1.014.913 1.015-.019.507-.38.508.426 1.014.327 1.015.376.507-.133.507.536.507-1.258.508-2.53.507.27.507.61.508.22.507.97.507-.016.507 1.597.508 2.742.507.05.507-.982.507-.08.508-.475.507 1.274.507.342.508.864.507-.035.507 1.206.507.217.508.46.507-.057 1.014.741.508-.278.507.377.507.122.508-.282 1.521-.247.508.27 1.014.05.507.384.508.049 1.522.901.507.29 1.522.38.507-.107.507.122.507-.1.508.027 1.522-.927.507.011.507-.4 1.522.16.507.126.508.255.507-.152.507.262 1.015-.62.507-.03.507-.194.507-.643 1.015-.182.507-1.267.507-.156 2.03-2.095 1.014-1.722.507-.354.508.361.507-.566 1.014-1.879.508-1.92.507.262.507-.034.508-.278.507-1.996.507-.791.507-1.506.508-2.848.507-1.49.507-1.141.507-.03.508-1.096 1.522-4.521.507-1.114 1.014-.666.508-1.441.507-.03.507-1.894.507-3.187.508-.73.507-.027.507-.368.508 4.167.507-2.464.507-.992.507-.658.508-1.974.507-.7.507.156.507-5.829.508.65.507-1.631.507-.981.508-.008.507-.627.507-.103.507-.59.508-1.977.507.187.507.68.507-.09.508.596.507-.715.507.198.508-.274.507.179.507 1.856.507 1.353.508-.09.507.185.507 1.229.507 2.38.508-.076 1.522 4.16.507.198.507 2.848.507-1.525.508-2.008.507 1.069.507-.065.507-.543.508.053.507-2.221.507 1.236.508-.015.507.654.507-.183.507.08.508.757 1.014 2.544.507 4.297 1.522 1.795.508.083.507.799.507 1.11.507.278.508 2.49.507-1.486.507-.407 1.015.266.507-.525 1.015 2.255.507-1.247.507-.35.507.004.508-.293.507.483.507.122.508-1.655.507 2.601.507.476.507-.072.508.133 1.014-.248.507 3.233.508 5.24.507.52.507-.106.507-2.548 1.015-2.255.507-13.134.508-4.643.507-1.376.507-.514.507 1.871.508.49.507.685.507 9.077.507-.544.508.29 1.014.285.508.003.507-1.563.507 1.084.507-.422.508-.21.507.195.507-.605.507-1.525.508-7.426.507-.521.507 4.468.508 1.662.507-.19.507-1.126.507-1.437.508 6.958.507-.311.507-.16.507-.605 1.015-.559.507-.133.508.487.507-2.308.507-6.499.507-1.791 1.522-1.901.507-2.365.508-1.78.507-1.365 1.015-1.069.507 3.84.507-.813.507-2.407.508-1.407.507-2.22.507-.092.507.088.508-4.324 1.014-3.042.508 1.19.507-2.7.507-.68.507.965.508-1.59.507-.722.507.943.508.514.507-.126.507 1.08.507.069.508-1.061 1.014 2.388.507-2.917.508 5.396.507.388.507-.434.507-1.14.508 1.517.507.57.507 1.164.508.76 1.014 1.042.507 8.64.508 1.624.507.353.507-.034.507 1.628.508-.29.507.849.507-4.72.508 1.552.507 3.78.507 4.75.507 1.319.508 1.722.507.042 1.014 3 .508.278.507-.213.507.278 1.015.19 1.014 2.764.508.673.507 1.02.507 2.32.507-.02.508.407 1.522 2.936.507 2.384.507.776.507.51 1.522.27.507 1.794.508 1.335 1.014.023.508.003.507 1.654.507.951.507.232.508-1.297.507.814.507-.038.507.114.508.985.507-.342.507.65.508.434.507.669.507.437.507.072.508.331.507.555.507.221.508 1.251.507-.266 1.522-.224 1.014.848.507-.058.508.396.507-.243.507.034.507-.122.508-.498.507-4.434.507.487.508.182.507-.3.507-.027.507.171.508.46.507 4.864.507-.05 1.015 1.15h1.014l.508-.26.507-1.049.507-.167.507-.753 1.015-.149.507-.003.507.213.508-.487.507-.038.507-.475 1.015.296.507.768.507-.087.508 1.566.507.1.507.577.507-.52.508-.065.507-.898.507-.433.508-1.936 1.014.126.507.255 1.015.041.507.37.507 1.817.508-.487.507.16.507.281.508-.091.507.757.507-.35.507-.555.508.213 1.014-.902.507.122.508-.855.507-.385.507.518.508 2.46.507-.24.507.422.507.054.508.829.507.437.507-.167.507-5.111.508.05 1.014-.26.508-1.437.507-.448.507-.784.507 2.643.508-.034.507.103.507-.084.508.087.507-.213.507.27.507-.444 1.015-.335 1.014.13.508.319.507-.183.507.316.508-.213.507.194.507.072.507-.548.508.126.507-.445.507-.894.507-.315 1.015-.152.507.273.507-.498.508.521 1.014.56 1.015.003.507.122.507.49.508-.585.507-.225.507.194.508.046.507-2.932.507 2.73.507-.38.508.521.507-.008.507-.403.507.012.508 2.924.507-2.78.507.799.507-2.134.508-.25.507.832 1.015.03.507 1.468.507-.737.507 2.707.508.02.507-.21 1.014-.08.508-1.372.507.292.507-.65.508.065.507.38 1.522.312.507.3 1.014-.045.508.034 1.014-.069 1.015.08.507-1.16.507-.136 1.015.475h.507l.507.281.508-.201.507.931.507.388.508-.308 1.014-.038.507.593.508-.399.507.974.507.125.508.262 1.014.038.507-.768.508.658.507.228.507-.053.507-.95 1.015.068.507.487.508.007.507-1.483.507.046.507 1.48 1.015-.039.507.293.507-.038.508 1.433.507-.194.507-.62 1.522-.03.507.852.508-.7.507.198.507 1.137 1.015.126.507-.457.507-.688.508.407.507.243.507-1.726 1.015-.095.507.163 1.014-1.33 1.015 2.642 1.014.065.508-.331.507.586.507 1.62.508-1.894.507-.601 1.014-.053.508.289.507-.734.507-1.689.507-.78.508.434 2.029.016.507.464.507.277.508-.863 1.014-.008.508-.201.507.042.507-.605 1.015 1.685 1.014.034 1.015 1.84.507.21.507-1.244 2.537-.19.507-1.118.507.334.507-.9h1.015l.507-1.046 1.015-3.856.507.456.507.285 1.015-.06.507.996.507.562.508.947.507-2.27.507-.213 1.015.122.507-1.027.507-.22.508.802.507 1.665.507 1.274 1.015.027.507.357.507.624.507.365h0" clip-path="url(#p34d5b16970)" style="fill:none;stroke:#7516fd;stroke-width:1.5;stroke-linecap:square"/><path id="line2d_24" d="m58.737 284.4 33.48-.106 7.61-.267 3.55-.17 3.044-.027 2.03-.027 5.072.118 2.536.13 3.551.151 1.522.008 8.116.148 5.073-.076 1.015.069 15.218.007 24.349-.255 7.609.118 4.565.023 3.551.038 9.639-.11 13.696-.297 3.044-.304 2.029-.167 2.029.072 9.13-.48 1.015.119 1.522-.13 1.015-.08 1.014-.216 1.522.102 1.015-.129 2.029-.042.507-.152.507.02 2.03-.35 1.014-.061 2.029-.05 4.565-.205 3.551.555.507-.027.508.16 1.522-.053 1.014.019.507.179 1.015.045.507-.053 1.015.217 9.13.391 1.522.225 4.566.144.507-.106 3.044.289 1.014.045 3.551-.243 1.522-.122 3.044-.201 1.014-.152 1.522-.21.507.065 1.015-.148 1.014-.004 1.015.015.507-.414 1.522-.11 1.015-.415.507-.137.507.255 1.522-.156.507-.392 1.015.02.507-.118 1.522.125.507.426 1.015-.126 1.522.084 5.072.297 1.015.24 1.522.159 1.522.274 2.536.388 1.522.163 2.029.076 3.043.323 5.58.244 2.537-.053 1.522.098 9.13-.09 1.522-.096 1.015-.06 1.014-.145 2.03-.171 2.029-.149 3.55-.49 2.03-.004 1.014-.06 1.015-.104 5.58.24 3.043.373 1.522.038 3.551.224 1.015-.015 13.189.585 8.116.137 10.653.05 18.769-.088 4.058-.35 1.015-.216 1.521-.29 2.03-.566 2.536-1.236 1.014-.585 2.537-.981.507-.259.507-.407 1.522-.59.507-.09.508-.328.507-.06.507.247 1.015-.403.507.057.507-.095.508.32.507.04.507-.197 2.536.742.508.083.507.267 1.015.258.507.16.507.015 1.015.422.507.065 1.014.342.508.091.507.22.507.446 1.522.483 3.044.152 2.029.494 4.058.453 2.03.09 4.057.263 2.03-.087 2.536.099 1.014.232 1.522.011 10.653-.144 10.145.422 1.522.072 3.044.095.507-.346 3.044-.011.507.334 2.029-.019 6.087-.414.508-.08.507-.21 1.014-.14 1.522-.87.508-.267.507-.099 1.014-.392 1.015-.258.507-.179.507-.35 1.522-.673.507-.513.508-.312.507-.171.507.015.508-.395.507-.004 1.014-.312.508-.148 1.014-.628.508.008 1.014-.434 1.015-.182 2.536-.103.507.091 1.015-.167 1.014-.213 1.522.065 4.058 2.707 2.537 1.084 1.014.574 2.03.959 1.014.095.507.114 2.03-.411 1.521.316 1.522.365 5.073.475 1.014-.027 3.551-.03 2.03.19 1.521-.057 2.536-.24 2.537-.471.507-.023.507.304 2.03-.27.507-.209.507-.034.507-.586.507-.186 1.015.008.507-.24 1.522-.285 1.015-.388.507-.33 1.522-.15 1.014.02 1.015-.388 1.014-.308.508-.038.507-.255 2.536-.692.508-.201.507-.065 1.522-.646 1.014-.567 1.015-.293 1.014-.76.507-.042 2.03.62.507.749.507.327.507-.495 1.015-1.258.507-.487.507-.114 1.015-1.21 1.522-.273.507.198 1.015-.654 1.014.353 1.015.738 1.014.308.508.308.507.156 1.522.825 1.521.639h0" clip-path="url(#p34d5b16970)" style="fill:none;stroke:#53a577;stroke-width:1.5;stroke-linecap:square"/><path id="line2d_25" d="m58.737 284.4 26.379-.099 2.029-.289 1.522-.456 2.029-.94 1.014-.779 1.522-1.06 1.015-.27 1.521-1.263.508-.114.507.209.507-.13.507.012.508-.118.507-.262.507-.126 1.015-.48.507.062 1.015-.076 1.014.654 1.015.407h.507l.507.118.508.3 1.014.289 1.015.574.507.255 1.014.232 1.015.365.507-.034 1.015.262.507.088 1.015.372 1.014.35 1.015-.023 1.014.236.508.122.507.281 3.044.327 1.014-.034 3.551.441 2.029-.08 1.015.107 2.536.186 3.55.065 1.523.049 2.536.015 1.522.046 6.087.103 3.044.019 3.043-.038 28.915-.092 3.044-.083 2.029.026 5.072-.163 2.03-.179 2.536-.22 2.536-.335 1.015-.331.507-.205 1.015-.095 1.014-.59.507-.11.508-.339 2.029-.372 1.014-.787 1.522-.548.507.004.508-.43 3.043-.977.508.068 1.014-.924 1.015-1.106 1.014-.21.507-.528 1.015-.635.507-.023 1.015-.764 1.014-.217.508-.392.507.149.507-.632.507-.049 1.522-.7.508-1.376 1.014-1.799.507-.783.508-.335.507-.144.507-.879.507-.038.508-.395.507 3.091 1.015.392 1.014-.924 1.015-1.251h.507l.507-.901 1.015.342.507-.35.507.418.508-.403.507-4.517 1.014-1.32.508-.156.507.202.507-.156.508-.662 2.029 1.244 1.014-.708 1.015 1.845 1.014.749.507-.012.508.328.507.63.507.275.508.076.507.323.507-.19 1.015.32.507.026.507.59.508-.062.507.4.507.638.507.065.508 1.445 1.014 1.072.507 1.137.508.525 1.014.21.507-.18.508.963.507.502 1.015.414 1.521.913 2.03 1.985 1.014-.038.507.216 1.015.114.507.495 1.015.494.507.099 1.014.84 2.03.521.507-.05.507.066.507.193.508.358 1.014.22 1.015-.121 1.522-.046 1.521.388.508.027.507.266 2.029.053 1.015.057.507.342.507-.186.507-.4.508-.243.507-.479 1.014-.323.508-.776.507-.167.507.05 1.015.288 1.014.168 1.015.03.507.13.507-.069 1.015-.456.507.121.508-.178 1.014.053.507-.156.508.205.507.038.507-.09 2.03.349 1.521.027 1.015.186.507-.107 1.014.59.508.213.507-.038.507.235.508-.06.507.156.507-.137 1.522.064.507.715.507.053.508-.121 1.014.156 1.015.125.507-.456 2.03 1.297.506-.069 1.015.103 1.015.547 1.014-.087.507.213.508.045.507.18 1.014-.157.508.042.507.49.507-.368 1.015.06.507.328 1.015.156.507-.26.507.408 1.522.064.507.115.508-.027.507.259 2.536.22 1.015.076 2.536.02.507.117 8.624.053 1.015.057 3.043-.023 2.03.096 5.072-.092 1.015-.06 2.029-.08.507-.069 1.014.015.508-.118 2.536-.076 1.522-.102 1.522-.08 1.014-.251.508.133h1.014l.507-.186 1.522-.183.507-.171 2.537-.008.507.183 1.522-.03 1.014.11 4.566-.21 1.014.08 2.537-.003.507-.194 1.522-.091 1.522-.46 2.029-.096.507.18.507-.305 1.015-.274h1.014l2.537-1.152h1.014l1.015-.799 1.014-.33 2.03-.263 1.014-.323.507-.331.508-.593h1.014l1.522-1.084 1.015-.266h1.014l.507-.278.508-.042 1.522-.958h1.014l.507-.78.508-.28.507.28.507-.216.507.179h1.015l.507.17.507.043.508-.217.507.369.507 1.661 1.522.11 1.015.708.507.16h1.522l.507 2.6.507-2.3.508.259.507-.228.507-1.004h1.015l.507-1.51.507 2.49.507-.144.508.483 1.014-.083h.508l.507.323 1.522 1.353.507.442h1.014l.508.194.507-.08 1.015.452h1.521l.508-.156.507.1.507-.115 1.015.091h1.014l1.015.194 1.522-.783h1.014l1.015-.388.507.095 1.522-.232 1.014-.026 1.015-.438 2.029.213.507-.099.508.27 1.014-.099.507-.247 1.522.004.507.894.508-1.282.507.03.507.16 1.522.046.507-1.076.508 1.403.507-.072 1.014.087h.508l1.014.206.508-.229.507-.083.507-.236h1.015l1.014-.407.507-.072.508.08 1.014-.061 2.03-.042 1.014-.3 3.044.087.507 1.27h1.014l.508 1.361 1.014.115.508-.054.507-1.099h1.014l.508-1.004.507-.121.507.019 1.015.582h1.014l1.522.992.507.24h1.522l.507-.114 1.015.121.507-.053.507.19h1.015l.507.183.508.011 1.014.339 2.03.16.506.212.508.061.507.627.507.05.508-.316h.507l.507.464.507.088.508.254.507-.498.507.179.507.316h1.015l.507.232.508-.206.507.156 1.014-.057h.508l.507-.296.507-.122 1.015.19.507.33 1.522.077.507-.285.507.03.508-.095.507-.27 1.522-.099.507.263.507-.27 1.522.08 1.522-.042.507.201 2.03-.274.507-.023.507-.24.507.07.507-.141 1.015.06 1.014-.083.508.24 1.014-.244 2.03.076.507-.323.507-.171.507.076.508-.152 2.536-.08 1.014-.179 5.073.084 1.015.194 1.014-.126 2.03.038 1.014.43.507.3 1.522.076.507.103.507-.13.508.1.507-.22 2.03.003.506.232.508-.103 1.014.11h.507l1.015.18.507.041.508-.43 2.029-.015.507-.213.507.072.508.472 1.014.091 2.536-.038.508-.179h1.014l.507.343 3.044.121.507-.49 2.03-1.015h1.014l3.044-.624h.507l1.522-.388.507.103 1.522-.023.507.14 1.015.932.507-.323.507-.186h1.015l.507-.152 1.015-.788.507.404 1.014.064 1.015.084 1.014.133 1.522.042 1.522.007.507.32.508-.004.507-.213h1.014l.508.365.507.14 1.015.062.507.41 2.029-.03.507-.148 1.015.098 1.522-.098 1.014-.141.507-.4 1.015.092h.507l.508-.122.507.19.507-.053.507.198.508-.167h1.014l.507.558 1.015.004.507-.65.507.164h1.015l.507-.947.508-.57.507-.119.507.331 1.015-.099h.507l.507-.144 1.015.35.507.235 1.015.077h.507l1.014.676.508-.216 2.029.144 1.014.304.508.38 1.014.039 2.536.045h0" clip-path="url(#p34d5b16970)" style="fill:none;stroke:#d8b009;stroke-width:1.5;stroke-linecap:square"/><path id="line2d_26" d="m58.737 284.4 27.393-.095 4.058-.38 1.015-.213.507-.251.508-.076.507-.255.507-.06 1.015-.514.507-.358 1.014-.452.508.072 2.536-1.122 1.015-.973 1.014-.11 1.015.338.507-.901 1.014-1.126.508-.46.507-.73 1.015-2.247.507-.259.507-.126.507.016.508-.232.507.004.507-.346.507-.837.508-.415.507-1.6.507-1.103 1.015-1.487.507-.901 2.03-1.837.506.042.508-.78 1.522-3.532.507-.259.507-1.316.507-.768.508.03.507.29.507.057 1.015-.863 1.014 1.403.508-.054.507-1.182.507-.506.507-1.217 1.015.472.507-.02.508-.463.507.654.507-.167 1.015 1.806.507-.213.507-.6.507.376.508-.529 1.014.312.507-1.251.508-.476.507.194.507.008.508-.281 1.014.532.507.68.508-.186.507-.042.507.153.507.338.508.068.507-.3.507-.837.508-.11 1.521.342.508-.33.507.14.507-.323.507.487.508-.225.507-.57.507.023 1.015-.7.507.666.507.334.508-.346.507.255 2.029-.361.507-.97.508.483 2.029 1.33.507-.387.507.6 1.015.533.507-.38.507-.635.508-.091.507.692.507.433.507-.17.508-.712 1.014 1.316.508-.061 1.014.692 1.015-.095.507-.6 1.014.098.508-.167.507-.4.507.502.507.278.508.567.507.319 1.015 1.726.507-.262 1.522.696.507-.476.507.45h.507l.508 1.113.507-.216.507 1.243.508 2.377.507.178.507-.406.507.003.508-.62.507.202.507-.525.507-2.118.508.742.507.399.507.076 1.015.532.507-.03.507 1.095.508.114.507.282.507.022.507-.155.508.045.507.285 1.015-.433.507.084 1.014 1.148 1.015-.08.507.183.507.977.508.144h.507l1.015.51.507.757.507 1.642.507-.026.508-.3.507.041.507.453.507.163.508-.502.507-1.026.507.612.508 1.175.507.304 1.014.114.508.091.507.464.507.255.508-.175.507-.038.507.361.507.114.508.521.507.905.507-.433.507-.198.508 1.149.507.243.507.05.507-.08.508.342.507.167 1.015-2.415.507-1.924.507.19.507-.27.508-1.825.507-.684.507 1.076.508.24.507 1.433.507-.144.507-.373.508.194.507.498 1.014-.403.508-.711.507-.21.507.016 1.522-.628 1.522-1.25.507-.282.507-.43.508-.661 1.522-.08.507.17.507-.334.507-.517.508-.335.507-1.11.507-.593.507.068.508-.471 1.014-.316.507-.091 1.015 2.418.507 1.38.508.313.507.087.507-.312 1.015-1.932 1.522.16.507-.224.507-.521.507-.053 1.015-4.237.507-2.722.507-.68.508.402.507.24.507-.126.508 1.384.507-.205.507-.019.507-.232.508.057.507-.133.507-.498.507-.734.508.243.507-.498.507-.167.507-.814.508.02.507.224.507-.347.508-.06.507-.18.507.104.507.254.508-.403 1.014 1.137.508-.623.507.97.507.3.507-.373.508-.205 1.014-1.248.507.118.508-.334.507-.624.507.418 1.015 1.502.507.012.507-.422.508-.023.507.179.507-.38 1.015-1.993.507-.517.507-.046 1.015-1.475.507-.445 1.015-2.906.507-.886.507-1.41.507-.905 1.015-2.354.507-.875.507-2.027 1.015-3.023.507-1.772.508.107.507-.806.507-3.419.507-1.065 1.522-5.609.507-.673 1.015-2.152.507 1.308.508.266 1.014-7.206 1.015-2.833.507-1.931.507-6.115.507-3.806.508 2.696.507 5.704.507 1.293.508.384.507-1.57.507.965.507-1.875.508-3.616.507-1.783.507-2.339.507.764.508 1.183.507.86.507 2.498.508 1.578.507-1.898.507 1.274.507-.171.508 1.56.507.942.507 5.476.507 1.122.508.422.507.715.507 1.43.508 1.011.507.703.507-3.73.507.688.508 2 .507.26.507.969.508.388.507.916.507 1.886.507 2.567.508.6.507 1.309.507.053.507 2.791.508.723.507.985.507-.004.507.308.508-.529.507.1.507-.784.508.308.507-.89.507.232.507 1.046.508.654 1.014 1.863.507.14.508 1.56.507-1.141.507-.818.508-.09.507-.396.507-.57.507-.172.508.711.507 4.697.507 1.03.507.126.508-.696.507-1.194.507.44.508-2.247.507-3.749 1.014-2.069.508.49.507-.14.507-1.179.507.727 1.015-2.016.507.339.508.148.507 2.213.507 1.662.507 1.05.508 1.779.507 2.616 1.014 2.194 1.522 1.795.508.502.507-.452 1.014-.476.508.681.507 1.821.507.78 1.015 3.354.507.783.507.027.508.38.507.186 1.014.765.508-.43 1.014.753.508 1.065.507.517.507.677.507.372.508.723.507.008.507.163.507.342.508.103.507.342.507 1.544.507.502 1.522.75.508 1.144.507.817 1.014-.471 1.015.235.507-.117.507.102.508.419 1.014.585h.508l.507.358.507.661.507.21 1.015-.035.507 1.145.507.213.508-.012.507.894.507.392.508.578.507.289.507-.069.507.21.508.376.507-.084.507.723 1.015.635 1.014-.008.508.373 1.014 3.81.507-.16.508.396 1.014-.225.507-.243.508-1.335.507-2.099.507.612.508-.007 1.014.51 1.015.09.507.518.507.13.507-.16.508.174.507-.068.507.27.508-.548.507-.06.507.08.507.722.508.327.507.152.507-.038 1.522 1.612.507-.532.508.144.507.286.507-.012.507 1.936.508 1.384.507-.548.507.468.507-.186 1.015.106 1.015-1.51.507.404.507.228.507.437 1.015.015 1.014-.228.508.354.507.148.507.51.508-.054.507.396 1.014 1.886.508-.232.507.099.507-.331.507.24.508-.065 1.014-.513.508.737.507-.909 1.014.004 1.015.437.507-.41.508-.122.507 1.457.507.38 1.015-.331.507-.578.507.403.507-.06.508-.256.507-.076 1.014.092.508-.118.507.011 1.522.928 1.014-.019.508.247.507.107 1.014.007.508.354.507-.042.507.33.508.564.507-.22.507.292.507.114.508-.323.507.102.507-.144.507.16.508.578.507-.012.507.133.508.407 1.014.103.507-.418.508.11.507-.107.507.297 2.03.011 1.014 1.03 1.014-.626.508-1.065.507-.164.507.152.507-.51.508-.718 1.014-.456.508.836.507-.137 2.029-2.661.507-.556 1.015-.76.507-.639 1.015-2.236 1.014-2.909.507-.384.508-.658.507-1.042 1.014-2.6.508-.7 1.014-1.023.508.026 1.014-2.901.507.316.508-.628.507-.186.507.35.507-.175 1.015 2.015.507-.544.508-.209.507.091.507-.266 1.015.989 1.014.426.507 1.487 1.015 1.182.507.331 1.522 6.225.507.361.508-.023 1.014.229.507-.913.508-1.145.507-.163.507.893.508 1.153.507.369.507.045.507.628.508 1.064.507.575.507.22.507.38.508.073.507.372.507-.338.508.274 1.014 1.133.507.38.508-.027.507.122.507.49.507.077.508.232.507.045 1.015.605.507-.35 1.014.502.508.019.507.357 1.014.035.508.369 1.014.311.508.415 1.521.46.508-.004.507.152.507-.38 1.015.407 2.029-.243.507.08.507-.084.508-.51.507-.13.507.077.507-.05.508.198.507.677 1.015-.125.507.197.507.012.507.13.508-.404.507-.236.507.05.507.216 1.015-.342.507-.053.508.753 1.014.95.507-1.399.508.358.507-.335.507.11.507-.905.508-.502.507.308.507 1.396.508-.282.507.274.507-.099.507.297.508.027.507-.799 1.014.646.508.236.507-.026 1.015-1.221.507-.053 1.014-.924.508-.137h.507l.507.506.507-.153 1.522 1.624.508.137.507-1.513.507-.21.507.757 1.015-2.658h1.014l.508.628.507-.331.507.532.508-.772.507.19.507-.6.507-.202.508.688.507-.304.507-1.373.507 1.084.508.068.507-.216 1.015-.11.507.197 3.043-.33.508-.035 1.522.354.507.78.507-.544 1.015-.035.507.137.507.015.508.137.507-.658.507.647.507-.084 1.015.384 2.536.076.507-.266.508 1.008.507-.814.507-.095.508.688.507.217.507-.51.507.605.508-.94.507 1.024.507.4h1.015l.507.429.507.783.508-1.065.507.187 1.014-.084h.508l.507-.13.507-.87.507 1.57.508.597.507-.505h1.015l.507.235.507.871.507.434h.508l.507-.346h1.014l.508.296 1.522-1.16.507 1.476h1.014l.508-.517 1.014.833.508-.635.507-.278h1.014l.508.517.507.015.507-.35.507.947.508-.137h1.014l.507-.95h.508l1.014-.924.508.414h1.014l.507.624.508-.327.507.768.507.103.508-.286h1.014l.507.65.508.328.507-1.061.507.403 1.015-.11h.507l.507-.18.508-.516.507.312.507-.21.507.396h1.015l.507-.563.507.281.508.75.507.026.507-.247h1.015l.507.502.507.236h.508l.507-.624 1.014.06h.508l.507.24h.507l.508-.41.507.536 1.014-.087h1.015l.507-.944 3.044-.136.507.095.507.445.508-.799 1.014-.11h.507l.508-.59.507.848h.507l.507-.639.508.491h1.014l1.015-1.316.507-1.03.507.931.508-.6h1.014l.508.407.507-.29.507.343.507.045.508.601h1.014l.507-.327.508.034.507-.692.507.073.507-.453h1.015l1.015 1.593.507-.254.507.654.507-.947h1.015l.507.487.507-.784.508 1.244.507-.563.507 1.091 1.522-.353.507.35.508.045.507.563.507-1.871.508-.16 1.014-.004 1.015-.281h.507l.507 1.65.507.251.508-.053.507-.25 1.014-.111h0" clip-path="url(#p34d5b16970)" style="fill:none;stroke:#42537f;stroke-width:1.5;stroke-linecap:square"/><g id="text_16" style="fill:#ae54a5" transform="matrix(.14 0 0 -.14 633.477 250.4)"><defs><path id="DejaVuSans-43" d="M4122 4306v-665q-319 297-680 443-361 147-767 147-800 0-1225-489t-425-1414q0-922 425-1411t1225-489q406 0 767 147t680 444V359q-331-225-702-338-370-112-782-112-1060 0-1670 648-609 649-609 1771 0 1125 609 1773 610 649 1670 649 418 0 788-111 371-111 696-333z" transform="scale(.01563)"/><path id="DejaVuSans-68" d="M3513 2113V0h-575v2094q0 497-194 743-194 247-581 247-466 0-735-297-269-296-269-809V0H581v4863h578V2956q207 316 486 472 280 156 646 156 603 0 912-373 310-373 310-1098z" transform="scale(.01563)"/><path id="DejaVuSans-69" d="M603 3500h575V0H603v3500zm0 1363h575v-729H603v729z" transform="scale(.01563)"/><path id="DejaVuSans-6e" d="M3513 2113V0h-575v2094q0 497-194 743-194 247-581 247-466 0-735-297-269-296-269-809V0H581v3500h578v-544q207 316 486 472 280 156 646 156 603 0 912-373 310-373 310-1098z" transform="scale(.01563)"/><path id="DejaVuSans-61" d="M2194 1759q-697 0-966-159t-269-544q0-306 202-486 202-179 548-179 479 0 768 339t289 901v128h-572zm1147 238V0h-575v531q-197-318-491-470T1556-91q-537 0-855 302-317 302-317 808 0 590 395 890 396 300 1180 300h807v57q0 397-261 614t-733 217q-300 0-585-72-284-72-546-216v532q315 122 612 182 297 61 578 61 760 0 1135-394 375-393 375-1193z" transform="scale(.01563)"/></defs><use xlink:href="#DejaVuSans-43"/><use xlink:href="#DejaVuSans-68" x="69.824"/><use xlink:href="#DejaVuSans-69" x="133.203"/><use xlink:href="#DejaVuSans-6e" x="160.986"/><use xlink:href="#DejaVuSans-61" x="224.365"/></g><g id="text_17" style="fill:#7516fd" transform="matrix(.14 0 0 -.14 633.477 264.4)"><defs><path id="DejaVuSans-55" d="M556 4666h635V1831q0-750 271-1080 272-329 882-329 606 0 878 329 272 330 272 1080v2835h634V1753q0-912-452-1378Q3225-91 2344-91q-885 0-1337 466-451 466-451 1378v2913z" transform="scale(.01563)"/><path id="DejaVuSans-53" d="M3425 4513v-616q-359 172-678 256-319 85-616 85-515 0-795-200t-280-569q0-310 186-468 186-157 705-254l381-78q706-135 1042-474t336-907q0-679-455-1029Q2797-91 1919-91q-331 0-705 75-373 75-773 222v650q384-215 753-325 369-109 725-109 540 0 834 212 294 213 294 607 0 343-211 537t-692 291l-385 75q-706 140-1022 440-315 300-315 835 0 619 436 975t1201 356q329 0 669-60 341-59 697-177z" transform="scale(.01563)"/></defs><use xlink:href="#DejaVuSans-55"/><use xlink:href="#DejaVuSans-53" x="73.193"/></g><g id="text_18" style="fill:#53a577" transform="matrix(.14 0 0 -.14 633.477 278.4)"><defs><path id="DejaVuSans-4a" d="M628 4666h631V325q0-844-320-1225T-91-1281h-240v531h197q418 0 590 235 172 234 172 840v4341z" transform="scale(.01563)"/><path id="DejaVuSans-70" d="M1159 525v-1856H581v4831h578v-531q182 312 458 463 277 152 661 152 638 0 1036-506 399-506 399-1331T3314 415Q2916-91 2278-91q-384 0-661 152-276 152-458 464zm1957 1222q0 634-261 995t-717 361q-457 0-718-361t-261-995q0-634 261-995t718-361q456 0 717 361t261 995z" transform="scale(.01563)"/></defs><use xlink:href="#DejaVuSans-4a"/><use xlink:href="#DejaVuSans-61" x="29.492"/><use xlink:href="#DejaVuSans-70" x="90.771"/><use xlink:href="#DejaVuSans-61" x="154.248"/><use xlink:href="#DejaVuSans-6e" x="215.527"/></g><g id="text_19" style="fill:#d8b009" transform="matrix(.14 0 0 -.14 633.477 292.4)"><defs><path id="DejaVuSans-47" d="M3809 666v1253H2778v519h1656V434q-365-259-806-392-440-133-940-133-1094 0-1712 639-617 640-617 1780 0 1144 617 1783 618 639 1712 639 456 0 867-113 411-112 758-331v-672q-350 297-744 447t-828 150q-857 0-1287-478-429-478-429-1425 0-944 429-1422 430-478 1287-478 334 0 596 58 263 58 472 180z" transform="scale(.01563)"/><path id="DejaVuSans-65" d="M3597 1894v-281H953q38-594 358-905t892-311q331 0 642 81t618 244V178Q3153 47 2828-22t-659-69q-838 0-1327 487-489 488-489 1320 0 859 464 1363 464 505 1252 505 706 0 1117-455 411-454 411-1235zm-575 169q-6 471-264 752-258 282-683 282-481 0-770-272t-333-766l2050 4z" transform="scale(.01563)"/><path id="DejaVuSans-72" d="M2631 2963q-97 56-211 82-114 27-251 27-488 0-749-317t-261-911V0H581v3500h578v-544q182 319 472 473 291 155 707 155 59 0 131-8 72-7 159-23l3-590z" transform="scale(.01563)"/><path id="DejaVuSans-6d" d="M3328 2828q216 388 516 572t706 184q547 0 844-383 297-382 297-1088V0h-578v2094q0 503-179 746-178 244-543 244-447 0-707-297-259-296-259-809V0h-578v2094q0 506-178 748t-550 242q-441 0-701-298-259-298-259-808V0H581v3500h578v-544q197 322 472 475t653 153q382 0 649-194 267-193 395-562z" transform="scale(.01563)"/><path id="DejaVuSans-79" d="M2059-325q-243-625-475-815-231-191-618-191H506v481h338q237 0 368 113 132 112 291 531l103 262L191 3500h609L1894 763l1094 2737h609L2059-325z" transform="scale(.01563)"/></defs><use xlink:href="#DejaVuSans-47"/><use xlink:href="#DejaVuSans-65" x="77.49"/><use xlink:href="#DejaVuSans-72" x="139.014"/><use xlink:href="#DejaVuSans-6d" x="178.377"/><use xlink:href="#DejaVuSans-61" x="275.789"/><use xlink:href="#DejaVuSans-6e" x="337.068"/><use xlink:href="#DejaVuSans-79" x="400.447"/></g><g id="text_20" style="fill:#42537f" transform="matrix(.14 0 0 -.14 633.477 306.4)"><defs><path id="DejaVuSans-42" d="M1259 2228V519h1013q509 0 754 211 246 211 246 645 0 438-246 645-245 208-754 208H1259zm0 1919V2741h935q462 0 688 173 227 174 227 530 0 353-227 528-226 175-688 175h-935zm-631 519h1613q722 0 1112-300 391-300 391-853 0-429-200-682t-588-315q466-100 724-418 258-317 258-792 0-625-425-966Q3088 0 2303 0H628v4666z" transform="scale(.01563)"/><path id="DejaVuSans-7a" d="M353 3500h2731v-525L922 459h2162V0H275v525l2163 2516H353v459z" transform="scale(.01563)"/><path id="DejaVuSans-6c" d="M603 4863h575V0H603v4863z" transform="scale(.01563)"/></defs><use xlink:href="#DejaVuSans-42"/><use xlink:href="#DejaVuSans-72" x="68.604"/><use xlink:href="#DejaVuSans-61" x="109.717"/><use xlink:href="#DejaVuSans-7a" x="170.996"/><use xlink:href="#DejaVuSans-69" x="223.486"/><use xlink:href="#DejaVuSans-6c" x="251.27"/></g></g></g><defs><clipPath id="p34d5b16970"><path d="M58.737 7.2h558v277.2h-558z"/></clipPath></defs></svg>