<svg xmlns:xlink="http://www.w3.org/1999/xlink" width="1015.94" height="416.199" viewBox="0 0 761.955 312.149" xmlns="http://www.w3.org/2000/svg"><defs><style>*{stroke-linejoin:round;stroke-linecap:butt}</style></defs><g id="figure_1"><path d="M0 312.15h761.955V0H0v312.15z" style="fill:none" id="patch_1"/><g id="axes_1"><path d="M67.645 284.4h558V7.2h-558v277.2z" style="fill:none" id="patch_2"/><g id="matplotlib.axis_1"><g id="xtick_1"><g id="line2d_1"><defs><path id="m759e143c5d" d="M0 0v3.5" style="stroke:#b0b0b0;stroke-width:.4"/></defs><use xlink:href="#m759e143c5d" x="111.356" y="284.4" style="fill:#b0b0b0;stroke:#b0b0b0;stroke-width:.4"/></g><g style="fill:#b0b0b0" transform="matrix(.14 0 0 -.14 82.108 302.038)" id="text_1"><defs><path id="DejaVuSans-32" d="M1228 531h2203V0H469v531q359 372 979 998 621 627 780 809 303 340 423 576 121 236 121 464 0 372-261 606-261 235-680 235-297 0-627-103-329-103-704-313v638q381 153 712 231 332 78 607 78 725 0 1156-363 431-362 431-968 0-288-108-546-107-257-392-607-78-91-497-524-418-433-1181-1211z" transform="scale(.01563)"/><path id="DejaVuSans-30" d="M2034 4250q-487 0-733-480-245-479-245-1442 0-959 245-1439 246-480 733-480 491 0 736 480 246 480 246 1439 0 963-246 1442-245 480-736 480zm0 500q785 0 1199-621 414-620 414-1801 0-1178-414-1799Q2819-91 2034-91q-784 0-1198 620-414 621-414 1799 0 1181 414 1801 414 621 1198 621z" transform="scale(.01563)"/><path id="DejaVuSans-2d" d="M313 2009h1684v-512H313v512z" transform="scale(.01563)"/><path id="DejaVuSans-34" d="M2419 4116 825 1625h1594v2491zm-166 550h794V1625h666v-525h-666V0h-628v1100H313v609l1940 2957z" transform="scale(.01563)"/></defs><use xlink:href="#DejaVuSans-32"/><use xlink:href="#DejaVuSans-30" x="63.623"/><use xlink:href="#DejaVuSans-32" x="127.246"/><use xlink:href="#DejaVuSans-30" x="190.869"/><use xlink:href="#DejaVuSans-2d" x="254.492"/><use xlink:href="#DejaVuSans-30" x="290.576"/><use xlink:href="#DejaVuSans-34" x="354.199"/></g></g><g id="xtick_2"><use xlink:href="#m759e143c5d" x="173.508" y="284.4" style="fill:#b0b0b0;stroke:#b0b0b0;stroke-width:.4" id="line2d_2"/><g style="fill:#b0b0b0" transform="matrix(.14 0 0 -.14 144.26 302.038)" id="text_2"><defs><path id="DejaVuSans-37" d="M525 4666h3000v-269L1831 0h-659l1594 4134H525v532z" transform="scale(.01563)"/></defs><use xlink:href="#DejaVuSans-32"/><use xlink:href="#DejaVuSans-30" x="63.623"/><use xlink:href="#DejaVuSans-32" x="127.246"/><use xlink:href="#DejaVuSans-30" x="190.869"/><use xlink:href="#DejaVuSans-2d" x="254.492"/><use xlink:href="#DejaVuSans-30" x="290.576"/><use xlink:href="#DejaVuSans-37" x="354.199"/></g></g><g id="xtick_3"><use xlink:href="#m759e143c5d" x="236.343" y="284.4" style="fill:#b0b0b0;stroke:#b0b0b0;stroke-width:.4" id="line2d_3"/><g style="fill:#b0b0b0" transform="matrix(.14 0 0 -.14 207.095 302.038)" id="text_3"><defs><path id="DejaVuSans-31" d="M794 531h1031v3560L703 3866v575l1116 225h631V531h1031V0H794v531z" transform="scale(.01563)"/></defs><use xlink:href="#DejaVuSans-32"/><use xlink:href="#DejaVuSans-30" x="63.623"/><use xlink:href="#DejaVuSans-32" x="127.246"/><use xlink:href="#DejaVuSans-30" x="190.869"/><use xlink:href="#DejaVuSans-2d" x="254.492"/><use xlink:href="#DejaVuSans-31" x="290.576"/><use xlink:href="#DejaVuSans-30" x="354.199"/></g></g><g id="xtick_4"><use xlink:href="#m759e143c5d" x="299.177" y="284.4" style="fill:#b0b0b0;stroke:#b0b0b0;stroke-width:.4" id="line2d_4"/><g style="fill:#b0b0b0" transform="matrix(.14 0 0 -.14 269.93 302.038)" id="text_4"><use xlink:href="#DejaVuSans-32"/><use xlink:href="#DejaVuSans-30" x="63.623"/><use xlink:href="#DejaVuSans-32" x="127.246"/><use xlink:href="#DejaVuSans-31" x="190.869"/><use xlink:href="#DejaVuSans-2d" x="254.492"/><use xlink:href="#DejaVuSans-30" x="290.576"/><use xlink:href="#DejaVuSans-31" x="354.199"/></g></g><g id="xtick_5"><use xlink:href="#m759e143c5d" x="360.646" y="284.4" style="fill:#b0b0b0;stroke:#b0b0b0;stroke-width:.4" id="line2d_5"/><g style="fill:#b0b0b0" transform="matrix(.14 0 0 -.14 331.398 302.038)" id="text_5"><use xlink:href="#DejaVuSans-32"/><use xlink:href="#DejaVuSans-30" x="63.623"/><use xlink:href="#DejaVuSans-32" x="127.246"/><use xlink:href="#DejaVuSans-31" x="190.869"/><use xlink:href="#DejaVuSans-2d" x="254.492"/><use xlink:href="#DejaVuSans-30" x="290.576"/><use xlink:href="#DejaVuSans-34" x="354.199"/></g></g><g id="xtick_6"><use xlink:href="#m759e143c5d" x="422.798" y="284.4" style="fill:#b0b0b0;stroke:#b0b0b0;stroke-width:.4" id="line2d_6"/><g style="fill:#b0b0b0" transform="matrix(.14 0 0 -.14 393.55 302.038)" id="text_6"><use xlink:href="#DejaVuSans-32"/><use xlink:href="#DejaVuSans-30" x="63.623"/><use xlink:href="#DejaVuSans-32" x="127.246"/><use xlink:href="#DejaVuSans-31" x="190.869"/><use xlink:href="#DejaVuSans-2d" x="254.492"/><use xlink:href="#DejaVuSans-30" x="290.576"/><use xlink:href="#DejaVuSans-37" x="354.199"/></g></g><g id="xtick_7"><use xlink:href="#m759e143c5d" x="485.633" y="284.4" style="fill:#b0b0b0;stroke:#b0b0b0;stroke-width:.4" id="line2d_7"/><g style="fill:#b0b0b0" transform="matrix(.14 0 0 -.14 456.385 302.038)" id="text_7"><use xlink:href="#DejaVuSans-32"/><use xlink:href="#DejaVuSans-30" x="63.623"/><use xlink:href="#DejaVuSans-32" x="127.246"/><use xlink:href="#DejaVuSans-31" x="190.869"/><use xlink:href="#DejaVuSans-2d" x="254.492"/><use xlink:href="#DejaVuSans-31" x="290.576"/><use xlink:href="#DejaVuSans-30" x="354.199"/></g></g><g id="xtick_8"><use xlink:href="#m759e143c5d" x="548.468" y="284.4" style="fill:#b0b0b0;stroke:#b0b0b0;stroke-width:.4" id="line2d_8"/><g style="fill:#b0b0b0" transform="matrix(.14 0 0 -.14 519.22 302.038)" id="text_8"><use xlink:href="#DejaVuSans-32"/><use xlink:href="#DejaVuSans-30" x="63.623"/><use xlink:href="#DejaVuSans-32" x="127.246"/><use xlink:href="#DejaVuSans-32" x="190.869"/><use xlink:href="#DejaVuSans-2d" x="254.492"/><use xlink:href="#DejaVuSans-30" x="290.576"/><use xlink:href="#DejaVuSans-31" x="354.199"/></g></g><g id="xtick_9"><use xlink:href="#m759e143c5d" x="609.936" y="284.4" style="fill:#b0b0b0;stroke:#b0b0b0;stroke-width:.4" id="line2d_9"/><g style="fill:#b0b0b0" transform="matrix(.14 0 0 -.14 580.688 302.038)" id="text_9"><use xlink:href="#DejaVuSans-32"/><use xlink:href="#DejaVuSans-30" x="63.623"/><use xlink:href="#DejaVuSans-32" x="127.246"/><use xlink:href="#DejaVuSans-32" x="190.869"/><use xlink:href="#DejaVuSans-2d" x="254.492"/><use xlink:href="#DejaVuSans-30" x="290.576"/><use xlink:href="#DejaVuSans-34" x="354.199"/></g></g></g><g id="matplotlib.axis_2"><g id="ytick_1"><path d="M67.645 284.4h558" clip-path="url(#pce07c565c5)" style="fill:none;stroke:#b0b0b0;stroke-width:.3;stroke-linecap:square" id="line2d_10"/><g id="line2d_11"><defs><path id="m2cc1bc0b89" d="M0 0h-3.5" style="stroke:#b0b0b0;stroke-width:.3"/></defs><use xlink:href="#m2cc1bc0b89" x="67.645" y="284.4" style="fill:#b0b0b0;stroke:#b0b0b0;stroke-width:.3"/></g><use xlink:href="#DejaVuSans-30" style="fill:#b0b0b0" transform="matrix(.14 0 0 -.14 51.737 289.719)" id="text_10"/></g><g id="ytick_2"><path d="M67.645 246.636h558" clip-path="url(#pce07c565c5)" style="fill:none;stroke:#b0b0b0;stroke-width:.3;stroke-linecap:square" id="line2d_12"/><use xlink:href="#m2cc1bc0b89" x="67.645" y="246.636" style="fill:#b0b0b0;stroke:#b0b0b0;stroke-width:.3" id="line2d_13"/><g style="fill:#b0b0b0" transform="matrix(.14 0 0 -.14 16.108 251.955)" id="text_11"><defs><path id="DejaVuSans-35" d="M691 4666h2478v-532H1269V2991q137 47 274 70 138 23 276 23 781 0 1237-428 457-428 457-1159 0-753-469-1171Q2575-91 1722-91q-294 0-599 50Q819 9 494 109v635q281-153 581-228t634-75q541 0 856 284 316 284 316 772 0 487-316 771-315 285-856 285-253 0-505-56-251-56-513-175v2344z" transform="scale(.01563)"/></defs><use xlink:href="#DejaVuSans-35"/><use xlink:href="#DejaVuSans-30" x="63.623"/><use xlink:href="#DejaVuSans-30" x="127.246"/><use xlink:href="#DejaVuSans-30" x="190.869"/><use xlink:href="#DejaVuSans-30" x="254.492"/></g></g><g id="ytick_3"><path d="M67.645 208.872h558" clip-path="url(#pce07c565c5)" style="fill:none;stroke:#b0b0b0;stroke-width:.3;stroke-linecap:square" id="line2d_14"/><use xlink:href="#m2cc1bc0b89" x="67.645" y="208.872" style="fill:#b0b0b0;stroke:#b0b0b0;stroke-width:.3" id="line2d_15"/><g style="fill:#b0b0b0" transform="matrix(.14 0 0 -.14 7.2 214.191)" id="text_12"><use xlink:href="#DejaVuSans-31"/><use xlink:href="#DejaVuSans-30" x="63.623"/><use xlink:href="#DejaVuSans-30" x="127.246"/><use xlink:href="#DejaVuSans-30" x="190.869"/><use xlink:href="#DejaVuSans-30" x="254.492"/><use xlink:href="#DejaVuSans-30" x="318.115"/></g></g><g id="ytick_4"><path d="M67.645 171.108h558" clip-path="url(#pce07c565c5)" style="fill:none;stroke:#b0b0b0;stroke-width:.3;stroke-linecap:square" id="line2d_16"/><use xlink:href="#m2cc1bc0b89" x="67.645" y="171.108" style="fill:#b0b0b0;stroke:#b0b0b0;stroke-width:.3" id="line2d_17"/><g style="fill:#b0b0b0" transform="matrix(.14 0 0 -.14 7.2 176.427)" id="text_13"><use xlink:href="#DejaVuSans-31"/><use xlink:href="#DejaVuSans-35" x="63.623"/><use xlink:href="#DejaVuSans-30" x="127.246"/><use xlink:href="#DejaVuSans-30" x="190.869"/><use xlink:href="#DejaVuSans-30" x="254.492"/><use xlink:href="#DejaVuSans-30" x="318.115"/></g></g><g id="ytick_5"><path d="M67.645 133.344h558" clip-path="url(#pce07c565c5)" style="fill:none;stroke:#b0b0b0;stroke-width:.3;stroke-linecap:square" id="line2d_18"/><use xlink:href="#m2cc1bc0b89" x="67.645" y="133.344" style="fill:#b0b0b0;stroke:#b0b0b0;stroke-width:.3" id="line2d_19"/><g style="fill:#b0b0b0" transform="matrix(.14 0 0 -.14 7.2 138.663)" id="text_14"><use xlink:href="#DejaVuSans-32"/><use xlink:href="#DejaVuSans-30" x="63.623"/><use xlink:href="#DejaVuSans-30" x="127.246"/><use xlink:href="#DejaVuSans-30" x="190.869"/><use xlink:href="#DejaVuSans-30" x="254.492"/><use xlink:href="#DejaVuSans-30" x="318.115"/></g></g><g id="ytick_6"><path d="M67.645 95.58h558" clip-path="url(#pce07c565c5)" style="fill:none;stroke:#b0b0b0;stroke-width:.3;stroke-linecap:square" id="line2d_20"/><use xlink:href="#m2cc1bc0b89" x="67.645" y="95.581" style="fill:#b0b0b0;stroke:#b0b0b0;stroke-width:.3" id="line2d_21"/><g style="fill:#b0b0b0" transform="matrix(.14 0 0 -.14 7.2 100.9)" id="text_15"><use xlink:href="#DejaVuSans-32"/><use xlink:href="#DejaVuSans-35" x="63.623"/><use xlink:href="#DejaVuSans-30" x="127.246"/><use xlink:href="#DejaVuSans-30" x="190.869"/><use xlink:href="#DejaVuSans-30" x="254.492"/><use xlink:href="#DejaVuSans-30" x="318.115"/></g></g><g id="ytick_7"><path d="M67.645 57.817h558" clip-path="url(#pce07c565c5)" style="fill:none;stroke:#b0b0b0;stroke-width:.3;stroke-linecap:square" id="line2d_22"/><use xlink:href="#m2cc1bc0b89" x="67.645" y="57.817" style="fill:#b0b0b0;stroke:#b0b0b0;stroke-width:.3" id="line2d_23"/><g style="fill:#b0b0b0" transform="matrix(.14 0 0 -.14 7.2 63.136)" id="text_16"><defs><path id="DejaVuSans-33" d="M2597 2516q453-97 707-404 255-306 255-756 0-690-475-1069Q2609-91 1734-91q-293 0-604 58T488 141v609q262-153 574-231 313-78 654-78 593 0 904 234t311 681q0 413-289 645-289 233-804 233h-544v519h569q465 0 712 186t247 536q0 359-255 551-254 193-729 193-260 0-557-57-297-56-653-174v562q360 100 674 150t592 50q719 0 1137-327 419-326 419-882 0-388-222-655t-631-370z" transform="scale(.01563)"/></defs><use xlink:href="#DejaVuSans-33"/><use xlink:href="#DejaVuSans-30" x="63.623"/><use xlink:href="#DejaVuSans-30" x="127.246"/><use xlink:href="#DejaVuSans-30" x="190.869"/><use xlink:href="#DejaVuSans-30" x="254.492"/><use xlink:href="#DejaVuSans-30" x="318.115"/></g></g><g id="ytick_8"><path d="M67.645 20.053h558" clip-path="url(#pce07c565c5)" style="fill:none;stroke:#b0b0b0;stroke-width:.3;stroke-linecap:square" id="line2d_24"/><use xlink:href="#m2cc1bc0b89" x="67.645" y="20.053" style="fill:#b0b0b0;stroke:#b0b0b0;stroke-width:.3" id="line2d_25"/><g style="fill:#b0b0b0" transform="matrix(.14 0 0 -.14 7.2 25.372)" id="text_17"><use xlink:href="#DejaVuSans-33"/><use xlink:href="#DejaVuSans-35" x="63.623"/><use xlink:href="#DejaVuSans-30" x="127.246"/><use xlink:href="#DejaVuSans-30" x="190.869"/><use xlink:href="#DejaVuSans-30" x="254.492"/><use xlink:href="#DejaVuSans-30" x="318.115"/></g></g></g><path d="m67.645 284.4 28.002-.104 2.732-.169 2.732-.36.683-.082 3.415-1.083 1.366-.722 1.366-.537.683-.387.683-.218 4.781-.564 4.098.786.683.336 2.049.476 1.366.437 4.78.405 1.367.245 7.513.789 1.366.013 8.195.252 2.05.063 18.44.088 3.415-.13 4.78.126 15.027-.02 6.146-.139 12.977-.433 2.05-.1 10.927.102 2.049-.093 2.732-.076 8.879-.332 2.732-.104 4.098-.652 1.366-.362 1.366-.277 2.048-.831 1.366-.563 1.366-.497.683-.265 1.366-.924 1.366-1.345 1.366-.96.683-.796.683-.592.683-.803.683-.468 1.366-.692.683-.426 1.366-.59.683-.304.683-.469 1.366-.335.683.002 1.366-.34.683-.219.683.101.683-.1.683.274 1.366.198 2.049-.146.683.13 2.732.01 2.732.317.683-.005.683.147 1.366-.045.683-.175.683-.341 1.366-.174.683-.383.683-.176 1.366-1.246.683-.262.683-.435.683-.04.683-.747 2.732-1.357.683-.03.683-.55.683.322.683-.568.683.89.683 1.817.683.972 1.365 1.328.683.246.683-.038 2.05.843 2.048.36.683.665.683-.963.683-1.295.683-.715.683-.286.683-.098 1.366.31.683 1.022.683.65.683.33.683.578.683.154 1.366.906.683.486 1.366.42.683.044.683.535 1.366.606 1.366.856 2.049.268 1.366.738 1.366.318.683.278.683.116 4.098 1.729 4.098.012.683-.168 2.049-.046 1.366-.275 2.049-.126 2.049-.12 1.366-.041 2.732-.1 3.414-1.306.683-.132 2.05-1.304 1.365-.68 1.366-.336.683-.256 1.366-.997 1.366-.85 2.05-.59.682-.178.683-.034.683.253.683.537.683.149.683.287.683.796.683.42.683-.386 1.366-1.255 1.366-.935.683-1.297.683-.973 2.049-.151 1.366.324.683-.344.683-.01.683-.185 2.049.038.683-.147.683.286.683.516.683.347.683.48 1.366.565 2.049 1.125.683.63 2.049.984.683.152.683.338.683.489 1.366 1.612.683.448 1.366.37.683.417.683.553.683.277 1.366.28 1.365.543.683.907.683.646 1.366.329.683.309 1.366.09.683-.248.683.18 1.366.793 1.366.245.683.063 1.366.336 4.098.537 1.366.348 2.05.178 11.61.251 7.513-.459 4.78-.312 1.367-.1 1.366-.174 6.83-.612 1.365-.23 2.732-.893 1.366-.256 2.732-1.32 1.366-.417.683-.198 2.732-1.34 1.366-.244h.683l2.05-.57.682-.058.683-.22 2.05-.13.682-.184.683.138.683-.04.683.335.683-.083 1.366.163 2.049.73.683.001 4.098 1.15.683-.048 1.366.13 2.732-.483.683.174 4.098-.065.683-.156 2.049-.06 1.366-.197 1.366-.341 1.366-.296.683-.552.682-.399.683-.869 2.05-1.269.682-.4.683-.668.683-1.29 2.05-1.58.682-.334.683-.036.683.303.683-.638 1.366-2.688 1.366-1.35.683-1.188 1.366-3.833 2.05-3.513.682-.873.683-1.102 1.366-3.057.683-.467.683-2.033.683-.996.683-.759 2.049-4.092.683-2.53.683-.345.683-.18.683.138 1.366-.08 2.049.802 1.366.418.683 1.046.683-.26.683.28 1.366 2.576.683 1.016 1.366 1.222.683 1.974.683 1.504 1.366 2.288.683.356.683.61.683.798.683.609.683 1.267.683 1.677 1.366 4.3 1.366.487.683.606.683.233.683-.627.683-.45.683-.261.682-.497.683-1.023 2.05-5.992.682-3.183.683-2.593.683-.727.683-1.633.683-2.321.683-1.843.683-3.872.683-2.388.683-1.721.683-.96 1.366-6.539 2.05-16.993 1.365-6.71 1.366-11.245.683-7.51 1.366-11.188.683-3.618.683-1.61.683-3.848.683-4.801.683-3.559.683-6.332.683-3.091.683-1.533.683-1.829.683-.75.683-2.779.683-1.267 2.049 2.666.683 2.028.683 1.118 1.366 2.86 1.366 4.403.683.77.683.28.683 3.594.683 1.179.683 2.082.683 1.004.683 1.432 1.366 2.335.683.41.683 2.442.683.61.683-.74.683-1.766.683-.969.683-1.734 1.366-6.92.683-5.62.683-3.802.683-4.842.683-3.207.683-1.505 2.731-17.913.683-2.498.683 1.599.683.007 2.05-7.314.682.145.683.886.683 2.22.683 2.677.683-1.648.683 1.646.683-22.561.683 31.997.683 5.996.683-.427 1.366 13.428.683-15.994.683 38.004.683-16.264.683 15.212.683 9.106.683-21.627.683 4.504.683 27.12.683 1.985.683 12.203.683 1.693.683 1.112.683 19.201.683-6.466.683-2.261.683-.524.683-10.521 1.366.108h0" clip-path="url(#pce07c565c5)" style="fill:none;stroke:#d8b009;stroke-width:1.5;stroke-linecap:square" id="line2d_26"/><path d="m67.645 284.4 27.32-.107 3.414-.224 2.732-.309 2.732-.435 1.366-.375 1.366-.299 2.732-.79.683-.107.683-.581.683-.203.683.196.683-.155.683 2.344 1.366.372.683.673h2.049l.683-1.151.683-5.384.683-.052.683-2.259.683.07.683-.949.683-.035.683-.255.683 5.358.683.075.683 1.595.683.152.683 1.541.683-.1.683.23.683.05 1.366-.184.683.351.683-.316.683.247 1.366.125 1.366.554.683-.603 2.049.08 2.049.077.683.39 9.561.19.683-.332.683.017 1.366-.207 1.366.089.683.367 1.366-.109.683.132 2.05-.127.682-.415.683.43 3.415-.017 4.098-.017 3.415.023.683.081 2.732-.135 1.366.088 2.049-.087 3.415.02h1.366l3.415-.005 4.098-.223 2.049-.06 2.049-.098 2.048-.092 6.147-.505 1.366-.172 1.366-.664.683.445 1.366-.204 1.366-.45.683-.029 2.05-.489.682.378.683-.693 1.366-.503 1.366-.192.683-.163.683-.734.683.443.683-.133.683-.339 4.78-1.293.684.073 1.366-.34.683-.18.683-.05.683-.4.683-.24.683-.453.683.085 1.366-.564.683-.612.683-.31 1.366-.081 1.366.358.683-.122 1.366.706 1.366-.449.683-.144.683-.357 1.366-.967 1.366-2.024 2.731-1.445.683-1.333 1.366-1.086.683-1.494.683-.547.683-.729.683-.48.683-1.192.683-1.858.683-1.416.683 2.506.683-6.336.683-1.52.683-1.094 1.366-1.343.683 1.097 1.366-7.838.683-4.116.683 9.028 1.366-2.445.683-5.562.683.821.683 9.136.683 5.393.683-8.904.683 2.726.683 3.972.683 5.902 1.366 2.454.683-2.48.683.815.683 1.27.683.094 1.366 3.059.683.538.683 3.85.683 1.304.683.84.683 1.132.683.56.683.364 1.366.24.683.273.683.024.683.136 2.049-.075.683-.604 1.366-.166 1.366-.328 1.366-.04.683.25.683-.328.683-.488 2.732-1.075.683-.014.683.295 1.366-.832.683 1.547 1.365.738.683.04.683-1.244 1.366.283.683-.04.683-.392.683-.105.683-1.008.683.144.683-.19.683-.055.683-1.803.683-.373 1.366.145 1.366.182 2.05-.365.682.002.683-.46.683-.305 1.366-.365 1.366-.484.683-.054.683.203 2.732-.124 2.049-.236.683.059.683 2.567.683-2.414.683.373 1.366-.036.683.466.683.107.683-2.272.683 2.687.683-.07.683.328 2.049-.029.683-.155.683-.37.683-.122.683-.58 1.366-.091.683-.7.683-.312 1.366-.305.683.225.683-.008.683-.289.683.509.683.014 1.366.262 1.366-.292.683-.033 1.366-.61.682-.17.683-.687.683-.498.683-.1.683-.739.683-.955.683-.754.683-1.083 1.366-1.057.683-1.007.683 1.654.683-2.9.683-1.142 2.05-2.213.682.724.683-1.73.683.685 1.366-1.06.683 4.582.683-4.695.683-.182.683 2.446.683 6.271.683-5.001.683 5.019.683-.134.683-4.02.683.241.683-3.353.683-4.594.683 6.365 1.366-7.634.683 9.551.683.199.683-.534.683.926 1.366.945.683.348.683.526.683.081.683 1.484.683.365 2.049 2.359.683 1.573.683.237 1.366 1.239 2.049 1.606 1.366.136 1.366.981.683.243.683 1.306.683.55.683-.53.683-.005 1.366.54.683 10.342h4.097l.683-7.246 2.732.602.683-.723.683 1.22.683-.176 2.05 1.368.682-.087.683.413.683-.455.683 1.196 1.366.621.683.238.683.052 2.05.832 7.512.762.683-.128.683.103 4.098-.397 1.366-.484 2.049-.571.683-.05.683-.364.683.284 2.732-2.967.683-.315.683-1.215.683-2.171.683-1.192.683-.914.683-1.59.683-.292.683-.132.683-.961.683-.686.683-.359.683-.529.683.203.683-.482.683-.343.683.305 3.414-.755.683.148 1.366-.879 1.366-.511.683.154.683-.087.683-.667 2.732 1.685.683.185.683.428.683.592.683-.085 1.366 1.298.683 2.426.683-1.394.683.396.683.025.683 2.793.683-1.017.683.597.683-1.594.683 2.406.683.347.683.5.683-1.565.683 2.934.683-.428.683.562 1.366.65 1.366.088.683.598.683.403 2.049.655.683.084.683.613.683-.728.683.764.683.116.683.281 6.83 1.038.683-.376 4.098.08.683.876.683-.48.683-.15 2.732.016.683-.483.682.364.683-.029 1.366-.28 1.366-.101.683-.108 1.366.016 2.05-.311.682.503 2.05-.983 1.365-.483.683-.038.683-1.129.683-.176.683-.35.683.56 1.366-.967.683-.115 2.05-2.534.682-1.876 1.366-1.648.683-.22 1.366-2.47 2.732-5.667.683-.347 2.732-7.001.683-1.551.683-1.14.683-.333 1.366-2.451.683-.911.683-.571 1.366-.448.683-.05 2.049-1.375.683-.322 1.366-.997.683-.327.683-1.022.683-2.006.683-3.316.683-3.882.683-4.971.683 2.241.683-1.656 1.366-24.905.683-12.398.683-14.897.683-12.356.683-3.316.682-3.993.683-9.945.683-13.39.683-6.08 1.366-19.485.683-25.643.683-2.854.683-10.45.683-3.19.683-4.909.683-.16.683-2.259.683 1.939.683-.941.683-10.407.683-8.058.683-12.832 1.366-14.72.683-2.537.683-.736.683-4.109.683.954.683 3.638.683 5.088 1.366 11.772.683 2.269.683 9.56 3.415 59.522.683 4.273.683 18.994.683 33.88.683-6.25 1.366 21.981.683 7.431.683 1.752.683 25.542.683-25.989.683 25.973 1.366 9.765.683 2.972.683 1.309.683-10.31.683 18.274 2.049 8.082.683 1.77.683.51 1.366 3.485.683.778 1.366.035.683-.294.683-.06 2.049-4.106.683-1.512.683-1.818.683-1.479.683-.68.683-2.555.683-4.169 2.048-8.59.683-2.4.683-.206.683-6.884 2.05-13.946.682-4.468.683-3.118.683-.569.683-3.936.683-1.615.683-3.147.683-.587 1.366 1.652.683-.25.683.855.683 1.955.683 1.15.683.005.683-1.043.683-.581.683.71.683 2.049.683.482 1.366 4.864.683 3.258.683 2.267.683.618.683 17.832.683-1.001 2.732 13.933h0" clip-path="url(#pce07c565c5)" style="fill:none;stroke:#0309a6;stroke-width:1.5;stroke-linecap:square" id="line2d_27"/><path d="m67.645 284.4 21.173-.094 3.415-.19 2.731-.329 4.098-1.035 3.415-1.149 1.366-.701 2.05-.566 1.365-.204 2.05.108 2.731.421 2.05.366 1.365.158 2.049.22 2.732.092 1.366.172 1.366.179 2.049.236.683-.076 2.049.296 10.928 1.246 1.366.025 6.83.332 16.391.284 2.732.034 4.098-.035 11.61.058 15.026-.056 11.611-.251 8.196-.51 3.415-.064 2.732-.062 4.098.033 6.147-.183 3.415-.167 2.732-.338 1.366-.309 1.366-.516 3.414-1.618 2.05-1.53.682-.674 1.366-1.046 2.732-3.56.683-1.032.683-.827 3.415-6.011.683-.932 2.05-1.84 2.048-2.422 1.366-.618.683-.74 1.366-.634.683-.335.683.276 1.366-.372.683.313.683-.142.683.194 2.049 1.272.683.478 1.366 1.876.683.774 2.049 2.702.683.707.683.418 2.732 2.203 1.366.481.683.487.683.858 1.366 1.252 2.732.405.683-.52.683-.133 2.049 1.053 1.366.29.683.394.683.021.683-.392 1.366 1.302 1.365.474.683-.248.683-.587.683-.342.683-.153.683-.573.683-.24 1.366-.893 1.366 1.05.683-.879.683-.472.683-.187.683.122.683.491 1.366.276.683.396.683.656 1.366.804 1.366.582 1.366.592 1.366.128.683-.01.683-.175 1.366-.025 2.732.276.683.217.683.076 3.415-.299.683.025.683-.16 4.098.277.683.15 2.049-.579 1.366-.561.683-.468 1.366-1.201 3.415-2.123 1.366-.7.683-.51.683-.355.683-.084.683-.287.683-.155 2.048-.861 2.05-.28.682-.083 1.366.197 1.366.365.683-.998 2.732.677 1.366.057.683 1.251.683.29.683-.285 1.366.394 1.366.45.683.24.683.895.683 1.1.683.537 2.05.968.682.097.683-.612.683-.267.683.026 2.049.89 1.366.246.683.25 6.83 1.037.683.433.683.27.683.138 2.732 1.187 1.366.186 1.366.529 2.049 1.103 2.049.719 3.415 1.158 2.048.405 2.732.592 2.05.264 1.365.363 2.732.293 4.098.346 8.196.744 5.464-.006 2.732-.116 4.78-.528 3.416-.882 4.098-1.253 2.049-.379 2.049-.369 1.366-.042 2.049-.21 2.048-.196 1.366-.12 8.196-.134 1.366-.128 4.098.053 2.732.356 3.415.446 2.049.295 2.732.297 2.049.272 2.049.203 2.732.39 3.415.23 4.098.232 6.147.269 2.732-.148 7.512-1.293.683-.03.683.131 1.366-.176 2.732-.684 2.05-.962 2.048-.57.683-.07 2.732-.844 1.366-.555 1.366-.37 1.366-.582.683-.338.683-.143.683-.348.683-.169 2.732-1.265.683-.405 2.049-.711.683-.31.683.463 1.366-.85 2.732-1.897.683-1.466 1.366-1.635.683-.549.683-.378.683-1.091.683-1.418.683-1.994.683-2.37.683-2.885.683-.062.683-1.575.683-5.127.683-6.656 1.366-18.999.683-9.33 1.365-7.929 2.05-29.783.682 3.88.683-6.073.683-10.197 1.366-10.687.683-.768.683 3.76.683-9.988.683.496.683-.196.683 3.67.683-.82.683-.514.683-1.542 2.05 4.947.682.617.683 1.818.683 3.24 2.05 13.377.682 4.141.683 2.162.683 8.413.683 5.57 2.049 14.108.683 2.716.683 1.73.683 3.33 2.049 11.636 1.366 6.212.683 1.383.683 3.389 1.366 4.31 1.366 2.732.683 1.094.683.463 4.098 7.06.683.669 1.366 2.613 1.366.93.683-.216 1.366-.906 1.366-2.75.683-1.356 1.366-3.125.683-1.525.683-.76 2.731-10.986.683-2.27.683-1.245.683-.405.683-1.132.683-.454.683-.03 1.366.36 1.366.305.683-.366 1.366 1.644.683-.07.683.346.683.605.683.025.683 1.228.683.164.683.458.683 1.014.683.754.683.118.683.283.683.524.683.788 1.366 1.063.683-.012.683.18.683 1.092.683 6.12.683-4.084 1.366-2.355.683-.701.683-.496h0" clip-path="url(#pce07c565c5)" style="fill:none;stroke:#1007e1;stroke-width:1.5;stroke-linecap:square" id="line2d_28"/><path d="m67.645 284.4 28.685-.075 6.147-.436 2.05-.28 6.146-1.76 2.05-.626 2.731-.428 1.366-.019 4.098.378 2.732-.27 2.049-.16 6.83.3 1.366.197 2.049.415 1.366.298 1.366.048 1.366.09 1.366.181 1.366.063 1.365.145 11.611.99 5.464.182 4.098.032 8.196.361 1.366.09 3.415-.065 1.366-.07 6.83-.148 1.366.083 19.806-.323 2.05.02 8.878-.465 5.464-1.06 1.366-.033 1.366-.195 2.732-.434 1.366-.432 1.366-.624 1.366-.37.683.036.683-.24 1.366-.132.683-.012.683-.737.683-1.863 1.366-1.72.683-.761.683-1.146.683-.745.683-.248.683 1.088.683-.15.683-.29.682-.603 2.05-.456 2.048-1.41.683-.748.683-.244.683-.528.683-.74 1.366-.528.683-.165.683.214.683-.197.683-.416.683.12.683-.373 1.366.517 2.05-.052.682-.332.683.289.683-.26.683-.041.683.237.683-1.009.683-.432.683-.205.683-.474 1.366.038.683.363.683 1.142 2.049 2.194.683.638.683.944.683.15 2.732 2.304.683.334.683-.233 1.366.504.683-.172.683.032.683-.555.683-.258.683.115.683-.045 2.049-1.883.683-.128 1.366-1.272.683-.932.683-1.556 1.366-1.357.683-1.896.683-1.41.683-1.987.683-1.521 1.366-.852.683-.823.683.396.682-.863.683-1.756.683-1.174.683-1.815 1.366-4.71.683-2.447.683-1.886.683-.842.683-1.329.683.347.683-1.588.683-.237.683.01.683 1.362 1.366 3.273.683.43.683 1.329 1.366 3.775.683.937.683 1.318.683.936.683 1.167.683 1.679 1.366 1.766 1.366 3.089.683 1.47.683.99 1.366 2.314.683.962 1.366.737.683.66.683.87.683 1.078 3.415 2.746.683.776 1.366.97 1.366 1 .683.195.683.035.683.156 1.366.647.683.125.683-.094 2.049.755 2.049 1.11.683.56.683.23 2.049 1.02 1.366.23 2.049.171 3.414-.01 4.098.256 3.415-.16 1.366.34 1.366.212 1.366.348.683.303.683.053 3.415.854.683.886 1.366.15 1.366-.104 1.366.068.683-.82 2.732.096 6.147.198 5.464.163 6.83-.121.683.524 2.049-.043 2.049-.109.682-.516 5.464-.806 2.05-.682 2.048-.786 1.366-.552 4.098-1.184.683-.385 2.732-1.02.683-.42 1.366-1.408.683-.544.683-.852.683-.602.683-1.316 1.366-1.991 1.366-2.422.683-.708.683-1.005.683-.483.683-.884.683-.7.683-.482 1.366-1.762 2.049-2.467.683-1.086 1.366-3.535.683-2.415.683-1.806.683-.595.683-1.103.683-.212.683.923.683 1.713 1.366 4.508.683 1.653.683 2.509.683 1.99.683.983 1.366 1.376.683.524 1.366.433.683-.368.683.093 2.048-.848 1.366-.476.683-.028.683-.306 1.366-.193.683.081 2.05-1.187 2.048-1.167.683-.6 2.05-1.004 1.365-.26 1.366-.13.683.59.683-.14 1.366.019 2.05-1.366.682-1.57.683-.591.683-.327.683.046.683.576 1.366 1.698 2.732 4.418.683.481 1.366-.13 1.366-1.077.683-.421.683-.998.683-.34.683-.054.683-.408.683-.18.683-.391.683-.155 1.366.11.683.051 1.366.699.683.173 1.366-.832.683-.045.683-1.077.683-.427 1.366-1.062.683-.297.683-.524.683-1.002.683-.369 1.366-2.198.683-.62 1.365-1.522.683-.497.683-.238.683.643.683 1.36.683-.018.683.508.683 1.321.683.62.683.44.683.116.683-.385.683 1.082 1.366.55 2.05 2.984.682.829.683.08.683.215 3.415-3.644.683-.447.683.15 1.366-1.108 1.366-.616 2.049-1.682.683.1.683-.553.683.03 2.049.887.683-.528.683-.682 1.366-.331.683-.741.683-.954.683-.535.683-.329.683.325.683-.798.683-1.163.683-.51.683-.31.683-1.53.683-2.918 2.049-11.725 2.049-10.991.683-2.986.683-3.802 1.366-6.675.683-4.001.683-1.706.683-5.263 1.366-15.582.683-7.457.683-4.46.683-1.76 1.365-17.917.683-1.304.683.889.683 1.157.683 2.335.683-.71.683 4.798.683 11.488.683 6.813 2.05 23.306.682 7.713.683 5.838 1.366 5.026.683-.179 1.366.846 1.366-1.08.683-.085.683.625.683 1.183.683.772.683.515.683 1.332.683-81.211.683-1.922.683 1.602.683.16.683.725.683 1.318.683.992.683 84.615.683 5.003.683 2.116.683-7.42.683 2.564 1.366 2.93 1.366 4.598.683 1.478.683 12.032.683 1.208.683.727.683 1.1.683.323.683.508 2.049 4.675.683 4.232.683 3.346.683-4.725.683-6.262.683-.505.683-.748.683-1.391h1.366l.683-4.789.683 3.94.683-2.519.683-4.192.683-3.038h1.366l.683-4.83.683-6.208.683-2.728.683-.697.682-2.162h1.366l.683-5.907.683 2.7 1.366-2.107.683 1.604h1.366l.683 1.189 1.366 3.057.683 2.864.683.911h1.366l.683 7.768.683 3.282.683 4.037 1.366 5.845h1.366l.683 5.617 1.366 2.862.683 1.65.683 4.53h1.366l.683 9.856.683-8.399 1.366 2.358.683-2.582h1.366" clip-path="url(#pce07c565c5)" style="fill:none;stroke:#89f9c9;stroke-width:1.5;stroke-linecap:square" id="line2d_29"/><path d="m67.645 284.4 28.002-.103 2.05-.115.682-.303 2.732-.564.683-.17.683-.437.683.054.683-.41.683-.215.683-.455.683-.318.683-.806.683-.455.683-.592 2.732-1.157.683.155 2.05.18.682.15 2.732 1.12 4.098 1.266.683-.248.683-.09.683.416.683-.339.683.187.683-.165.683.097.683.288.683 1.718.683-.219.683.563.683-.032 2.049.955.683-1.275 2.049.397.683-.001.683.124 1.366-.025 1.366.081.683-.274 2.732.227 1.366.105.683.235 2.048.073.683-.124 8.196.062 1.366.179 2.732.04 5.464-.04 4.098-.002 10.928-.057 6.83-.366.683-.273 7.513-.78h1.365l.683-.233.683-.425 3.415-.392.683-.01.683.23.683-.023.683-.374 1.366-.105h.683l.683-.825.683-.16.683-.378.683.055.683-.288h1.366l1.366-.552.683-.067 1.366-.459h1.366l.683-.452 1.366-.246.683.075 1.366-.075h.683l.683-.322 2.049-.317.683-.184 2.049-.092.683-.05.683-.252.683-.056.683-.239h1.366l.683-.434.683-.147 1.366.059.683.228 2.049-.038.683 1.165.683-1.04 1.366.236h1.366l.683.896.683-1.295.683 1.126.683-.324.683-.158h1.366l.683-.472.683.526 2.048-.515h1.366l.683-1.082.683-.729.683-.54.683-.827.683-.503h1.366l.683-1.543.683-.49 1.366-.582.683-.62h1.366l.683-.305.683-.027.683-.57.683.18.683.333h1.366l.683.284.683 2.015.683-1.236.683.259.683.123h1.366l.683 1.523.683-1.42.683 2.285.683.354.683.67h1.366l.683 1.337.683.1 1.366.975.683.465h1.366l.683.637.683.429.683.096 1.366.46h1.366l.683.248.683.891.683-.047.683.234.683-.191h1.366l.683-.392.683-1.114.683-.141.683-.45.683-.14 2.049-.076 1.366-.177.683-.057.683 1.275h1.366l1.365-.635 1.366-1.048h2.05l.682-.66.683-1.037.683 1.803 1.366-5.37h1.366l.683-3.328.683-.187.683-4.194.683.7.683-1.591h1.366l.683-2.467.683-.955.683-.292.683-.915.683-.29h1.366l.683-1.029.683-.231.683.139.683 1.02.683.515h1.366l.683 1.525 2.732 3.296h1.366l.683 3.517 2.732 5.636h1.366l.683 1.817 1.366 1.471 1.366.7h1.366l.683 1.014 1.366.455.683.533.683.334h1.366l.683.526.683 5.455h4.098l.683-3.755 1.366-.13.682.142 4.098.077.683.577h1.366l.683-.552.683-.06.683.658 1.366-1.596 2.05.105.682.056.683-.92 1.366 1.506.683-1.033h.683l.683.555.683-.176.683-.027.683-.309.683-1.173.683 1.033h.683l.683-1.336.683.035.683-.182 3.415.236.683.68.683-.782 1.366-.247h1.366l.683.132.683-.827.683.977.683.072.683.28h1.366l1.366.717 1.366.49 1.366.102h.683l.683.255 1.366-.057 1.366.443h1.366l.683.315 1.366.14.683-.004.683.168 2.049-.001.682-.148 1.366.164 1.366-.075h.683l1.366.249 4.098.083 1.366.155.683-.944 1.366.089h.683l.683.148 1.366.072.683 1.058 2.05-.007.682.103 3.415-.23h.683l1.366-.65.683-.528 1.366-1.67h1.366l.683-2.42 2.732-3.181h1.366l.683-.143.683-3.218 2.049-3.081h1.366l.683-2.989.683 1.8.683-.454.683-.199 2.732-.011.683.095 1.366.678.683.693h1.366l2.732 2.41.683.344h1.365l.683 1.759 2.732 2.09h1.366l.683 1.502.683.145 1.366 1.082.683.346h1.366l.683.197.683.46.683.127.683.575.683.32h1.366l.683.907.683.249.683.428.683-.264.683.343h1.366l.683.661 1.366.371.683.518.683.202h1.366l3.415.822h1.366l1.366.284 2.049.259 2.049.102 4.098.17 2.732.25 2.049-.03.683.048.683.194 2.049-.056 2.049-.071.683-.204 2.731-.003 5.464-.008.683.484.683-.42.683.027 1.366-.207h1.366l.683-.692.683.628.683-.45 2.05-.244h.682l1.366-.806.683-.022 1.366-.465h1.366l.683-.656 2.732-1.161h1.366l.683-.76.683-.376.683-.216.683-.566.683-.413h1.366l.683 2.472.683-3.62.683 1.137.683-1.285.683-.362 1.366.009.683-5.374.683 1.907.683-2.928.683-.269.683-1.754 1.366-.01.683-3.226.683-2.555.683-3.55.683-4.75.683 3.6h1.366l.683-14.557.683-5.378.683-4.394.683-9.578h2.049l.682-17.064.683-1.953.683-3.93.683 17.446.683-26.159h1.366l.683 8.672.683-1.852.683-4.526.683-17.173.683 8.625h1.366l.683-4.216.683 4.366.683 2.286.683.185.683 2.31h1.366l.683 2.81.683-2.202 2.05 7.89h1.365l.683 13.304.683 3.993.683 5.106.683 6.099.683 12.831h1.366l.683-1.47.683 3.672 1.366 4.823.683-5.288h1.366l.683 13.709.683 1.02.683 2.776 1.366 4.017h1.366l.683 2.15.683 1.315.683.345.683-.181.683.333h1.366l.683 5.263.683-3.924 1.366 3.006.683.553h1.366l.683-3.884.683 3.82.683-.337.683.057.683.275h1.366l.683 3.884.683-1.394 1.366 4.807.682-4.828h2.05l.682-1.951h1.366l.683-.895h2.05l.682-.268h1.366l.683 3.196h2.05l.682 3.19h1.366l.683-.602h2.05l.682-.825h1.366l.683 5.27h2.05l.682-4.312h1.366l.683-5.302h1.366" clip-path="url(#pce07c565c5)" style="fill:none;stroke:#907eba;stroke-width:1.5;stroke-linecap:square" id="line2d_30"/><g style="fill:#d8b009" transform="matrix(.14 0 0 -.14 642.385 205.89)" id="text_18"><defs><path id="DejaVuSans-47" d="M3809 666v1253H2778v519h1656V434q-365-259-806-392-440-133-940-133-1094 0-1712 639-617 640-617 1780 0 1144 617 1783 618 639 1712 639 456 0 867-113 411-112 758-331v-672q-350 297-744 447t-828 150q-857 0-1287-478-429-478-429-1425 0-944 429-1422 430-478 1287-478 334 0 596 58 263 58 472 180z" transform="scale(.01563)"/><path id="DejaVuSans-65" d="M3597 1894v-281H953q38-594 358-905t892-311q331 0 642 81t618 244V178Q3153 47 2828-22t-659-69q-838 0-1327 487-489 488-489 1320 0 859 464 1363 464 505 1252 505 706 0 1117-455 411-454 411-1235zm-575 169q-6 471-264 752-258 282-683 282-481 0-770-272t-333-766l2050 4z" transform="scale(.01563)"/><path id="DejaVuSans-72" d="M2631 2963q-97 56-211 82-114 27-251 27-488 0-749-317t-261-911V0H581v3500h578v-544q182 319 472 473 291 155 707 155 59 0 131-8 72-7 159-23l3-590z" transform="scale(.01563)"/><path id="DejaVuSans-6d" d="M3328 2828q216 388 516 572t706 184q547 0 844-383 297-382 297-1088V0h-578v2094q0 503-179 746-178 244-543 244-447 0-707-297-259-296-259-809V0h-578v2094q0 506-178 748t-550 242q-441 0-701-298-259-298-259-808V0H581v3500h578v-544q197 322 472 475t653 153q382 0 649-194 267-193 395-562z" transform="scale(.01563)"/><path id="DejaVuSans-61" d="M2194 1759q-697 0-966-159t-269-544q0-306 202-486 202-179 548-179 479 0 768 339t289 901v128h-572zm1147 238V0h-575v531q-197-318-491-470T1556-91q-537 0-855 302-317 302-317 808 0 590 395 890 396 300 1180 300h807v57q0 397-261 614t-733 217q-300 0-585-72-284-72-546-216v532q315 122 612 182 297 61 578 61 760 0 1135-394 375-393 375-1193z" transform="scale(.01563)"/><path id="DejaVuSans-6e" d="M3513 2113V0h-575v2094q0 497-194 743-194 247-581 247-466 0-735-297-269-296-269-809V0H581v3500h578v-544q207 316 486 472 280 156 646 156 603 0 912-373 310-373 310-1098z" transform="scale(.01563)"/><path id="DejaVuSans-79" d="M2059-325q-243-625-475-815-231-191-618-191H506v481h338q237 0 368 113 132 112 291 531l103 262L191 3500h609L1894 763l1094 2737h609L2059-325z" transform="scale(.01563)"/></defs><use xlink:href="#DejaVuSans-47"/><use xlink:href="#DejaVuSans-65" x="77.49"/><use xlink:href="#DejaVuSans-72" x="139.014"/><use xlink:href="#DejaVuSans-6d" x="178.377"/><use xlink:href="#DejaVuSans-61" x="275.789"/><use xlink:href="#DejaVuSans-6e" x="337.068"/><use xlink:href="#DejaVuSans-79" x="400.447"/></g><g style="fill:#0309a6" transform="matrix(.14 0 0 -.14 642.385 229.629)" id="text_19"><defs><path id="DejaVuSans-46" d="M628 4666h2681v-532H1259V2759h1850v-531H1259V0H628v4666z" transform="scale(.01563)"/><path id="DejaVuSans-63" d="M3122 3366v-538q-244 135-489 202t-495 67q-560 0-870-355-309-354-309-995t309-996q310-354 870-354 250 0 495 67t489 202V134Q2881 22 2623-34q-257-57-548-57-791 0-1257 497-465 497-465 1341 0 856 470 1346 471 491 1290 491 265 0 518-55 253-54 491-163z" transform="scale(.01563)"/></defs><use xlink:href="#DejaVuSans-46"/><use xlink:href="#DejaVuSans-72" x="50.27"/><use xlink:href="#DejaVuSans-61" x="91.383"/><use xlink:href="#DejaVuSans-6e" x="152.662"/><use xlink:href="#DejaVuSans-63" x="216.041"/><use xlink:href="#DejaVuSans-65" x="271.021"/></g><g style="fill:#1007e1" transform="matrix(.14 0 0 -.14 642.385 243.629)" id="text_20"><defs><path id="DejaVuSans-49" d="M628 4666h631V0H628v4666z" transform="scale(.01563)"/><path id="DejaVuSans-74" d="M1172 4494v-994h1184v-447H1172V1153q0-428 117-550t477-122h590V0h-590q-666 0-919 248-253 249-253 905v1900H172v447h422v994h578z" transform="scale(.01563)"/><path id="DejaVuSans-6c" d="M603 4863h575V0H603v4863z" transform="scale(.01563)"/></defs><use xlink:href="#DejaVuSans-49"/><use xlink:href="#DejaVuSans-74" x="29.492"/><use xlink:href="#DejaVuSans-61" x="68.701"/><use xlink:href="#DejaVuSans-6c" x="129.98"/><use xlink:href="#DejaVuSans-79" x="157.764"/></g><g style="fill:#89f9c9" transform="matrix(.14 0 0 -.14 642.385 264.368)" id="text_21"><defs><path id="DejaVuSans-55" d="M556 4666h635V1831q0-750 271-1080 272-329 882-329 606 0 878 329 272 330 272 1080v2835h634V1753q0-912-452-1378Q3225-91 2344-91q-885 0-1337 466-451 466-451 1378v2913z" transform="scale(.01563)"/><path id="DejaVuSans-69" d="M603 3500h575V0H603v3500zm0 1363h575v-729H603v729z" transform="scale(.01563)"/><path id="DejaVuSans-64" d="M2906 2969v1894h575V0h-575v525q-181-312-458-464-276-152-664-152-634 0-1033 506-398 507-398 1332t398 1331q399 506 1033 506 388 0 664-152 277-151 458-463zM947 1747q0-634 261-995t717-361q456 0 718 361 263 361 263 995t-263 995q-262 361-718 361t-717-361q-261-361-261-995z" transform="scale(.01563)"/><path id="DejaVuSans-4b" d="M628 4666h631V2694l2094 1972h813L1850 2491 4331 0h-831L1259 2247V0H628v4666z" transform="scale(.01563)"/><path id="DejaVuSans-67" d="M2906 1791q0 625-258 968-257 344-723 344-462 0-720-344-258-343-258-968 0-622 258-966t720-344q466 0 723 344 258 344 258 966zm575-1357q0-893-397-1329-396-436-1215-436-303 0-572 45t-522 139v559q253-137 500-202 247-66 503-66 566 0 847 295t281 892v285q-178-310-456-463T1784 0Q1141 0 747 490 353 981 353 1791q0 812 394 1302 394 491 1037 491 388 0 666-153t456-462v531h575V434z" transform="scale(.01563)"/><path id="DejaVuSans-6f" d="M1959 3097q-462 0-731-361t-269-989q0-628 267-989 268-361 733-361 460 0 728 362 269 363 269 988 0 622-269 986-268 364-728 364zm0 487q750 0 1178-488 429-487 429-1349 0-859-429-1349Q2709-91 1959-91q-753 0-1180 489-426 490-426 1349 0 862 426 1349 427 488 1180 488z" transform="scale(.01563)"/></defs><use xlink:href="#DejaVuSans-55"/><use xlink:href="#DejaVuSans-6e" x="73.193"/><use xlink:href="#DejaVuSans-69" x="136.572"/><use xlink:href="#DejaVuSans-74" x="164.355"/><use xlink:href="#DejaVuSans-65" x="203.564"/><use xlink:href="#DejaVuSans-64" x="265.088"/><use xlink:href="#DejaVuSans-20" x="328.564"/><use xlink:href="#DejaVuSans-4b" x="360.352"/><use xlink:href="#DejaVuSans-69" x="425.928"/><use xlink:href="#DejaVuSans-6e" x="453.711"/><use xlink:href="#DejaVuSans-67" x="517.09"/><use xlink:href="#DejaVuSans-64" x="580.566"/><use xlink:href="#DejaVuSans-6f" x="644.043"/><use xlink:href="#DejaVuSans-6d" x="705.225"/></g><g style="fill:#907eba" transform="matrix(.14 0 0 -.14 642.385 278.368)" id="text_22"><defs><path id="DejaVuSans-53" d="M3425 4513v-616q-359 172-678 256-319 85-616 85-515 0-795-200t-280-569q0-310 186-468 186-157 705-254l381-78q706-135 1042-474t336-907q0-679-455-1029Q2797-91 1919-91q-331 0-705 75-373 75-773 222v650q384-215 753-325 369-109 725-109 540 0 834 212 294 213 294 607 0 343-211 537t-692 291l-385 75q-706 140-1022 440-315 300-315 835 0 619 436 975t1201 356q329 0 669-60 341-59 697-177z" transform="scale(.01563)"/><path id="DejaVuSans-70" d="M1159 525v-1856H581v4831h578v-531q182 312 458 463 277 152 661 152 638 0 1036-506 399-506 399-1331T3314 415Q2916-91 2278-91q-384 0-661 152-276 152-458 464zm1957 1222q0 634-261 995t-717 361q-457 0-718-361t-261-995q0-634 261-995t718-361q456 0 717 361t261 995z" transform="scale(.01563)"/></defs><use xlink:href="#DejaVuSans-53"/><use xlink:href="#DejaVuSans-70" x="63.477"/><use xlink:href="#DejaVuSans-61" x="126.953"/><use xlink:href="#DejaVuSans-69" x="188.232"/><use xlink:href="#DejaVuSans-6e" x="216.016"/></g></g></g><defs><clipPath id="pce07c565c5"><path d="M67.645 7.2h558v277.2h-558z"/></clipPath></defs></svg>