<svg xmlns:xlink="http://www.w3.org/1999/xlink" width="985.137" height="418.73" viewBox="0 0 738.852 314.048" xmlns="http://www.w3.org/2000/svg"><defs><style>*{stroke-linejoin:round;stroke-linecap:butt}</style></defs><g id="figure_1"><path d="M0 314.048h738.852V0H0v314.048z" style="fill:none" id="patch_1"/><g id="axes_1"><path d="M67.645 286.298h558V9.098h-558v277.2z" style="fill:none" id="patch_2"/><g id="matplotlib.axis_1"><g id="xtick_1"><g id="line2d_1"><defs><path id="mfb7526ff11" d="M0 0v3.5" style="stroke:#b0b0b0;stroke-width:.4"/></defs><use xlink:href="#mfb7526ff11" x="112.341" y="286.298" style="fill:#b0b0b0;stroke:#b0b0b0;stroke-width:.4"/></g><g style="fill:#b0b0b0" transform="matrix(.14 0 0 -.14 83.093 303.936)" id="text_1"><defs><path id="DejaVuSans-32" d="M1228 531h2203V0H469v531q359 372 979 998 621 627 780 809 303 340 423 576 121 236 121 464 0 372-261 606-261 235-680 235-297 0-627-103-329-103-704-313v638q381 153 712 231 332 78 607 78 725 0 1156-363 431-362 431-968 0-288-108-546-107-257-392-607-78-91-497-524-418-433-1181-1211z" transform="scale(.01563)"/><path id="DejaVuSans-30" d="M2034 4250q-487 0-733-480-245-479-245-1442 0-959 245-1439 246-480 733-480 491 0 736 480 246 480 246 1439 0 963-246 1442-245 480-736 480zm0 500q785 0 1199-621 414-620 414-1801 0-1178-414-1799Q2819-91 2034-91q-784 0-1198 620-414 621-414 1799 0 1181 414 1801 414 621 1198 621z" transform="scale(.01563)"/><path id="DejaVuSans-2d" d="M313 2009h1684v-512H313v512z" transform="scale(.01563)"/><path id="DejaVuSans-34" d="M2419 4116 825 1625h1594v2491zm-166 550h794V1625h666v-525h-666V0h-628v1100H313v609l1940 2957z" transform="scale(.01563)"/></defs><use xlink:href="#DejaVuSans-32"/><use xlink:href="#DejaVuSans-30" x="63.623"/><use xlink:href="#DejaVuSans-32" x="127.246"/><use xlink:href="#DejaVuSans-30" x="190.869"/><use xlink:href="#DejaVuSans-2d" x="254.492"/><use xlink:href="#DejaVuSans-30" x="290.576"/><use xlink:href="#DejaVuSans-34" x="354.199"/></g></g><g id="xtick_2"><use xlink:href="#mfb7526ff11" x="175.893" y="286.298" style="fill:#b0b0b0;stroke:#b0b0b0;stroke-width:.4" id="line2d_2"/><g style="fill:#b0b0b0" transform="matrix(.14 0 0 -.14 146.645 303.936)" id="text_2"><defs><path id="DejaVuSans-37" d="M525 4666h3000v-269L1831 0h-659l1594 4134H525v532z" transform="scale(.01563)"/></defs><use xlink:href="#DejaVuSans-32"/><use xlink:href="#DejaVuSans-30" x="63.623"/><use xlink:href="#DejaVuSans-32" x="127.246"/><use xlink:href="#DejaVuSans-30" x="190.869"/><use xlink:href="#DejaVuSans-2d" x="254.492"/><use xlink:href="#DejaVuSans-30" x="290.576"/><use xlink:href="#DejaVuSans-37" x="354.199"/></g></g><g id="xtick_3"><use xlink:href="#mfb7526ff11" x="240.143" y="286.298" style="fill:#b0b0b0;stroke:#b0b0b0;stroke-width:.4" id="line2d_3"/><g style="fill:#b0b0b0" transform="matrix(.14 0 0 -.14 210.895 303.936)" id="text_3"><defs><path id="DejaVuSans-31" d="M794 531h1031v3560L703 3866v575l1116 225h631V531h1031V0H794v531z" transform="scale(.01563)"/></defs><use xlink:href="#DejaVuSans-32"/><use xlink:href="#DejaVuSans-30" x="63.623"/><use xlink:href="#DejaVuSans-32" x="127.246"/><use xlink:href="#DejaVuSans-30" x="190.869"/><use xlink:href="#DejaVuSans-2d" x="254.492"/><use xlink:href="#DejaVuSans-31" x="290.576"/><use xlink:href="#DejaVuSans-30" x="354.199"/></g></g><g id="xtick_4"><use xlink:href="#mfb7526ff11" x="304.393" y="286.298" style="fill:#b0b0b0;stroke:#b0b0b0;stroke-width:.4" id="line2d_4"/><g style="fill:#b0b0b0" transform="matrix(.14 0 0 -.14 275.145 303.936)" id="text_4"><use xlink:href="#DejaVuSans-32"/><use xlink:href="#DejaVuSans-30" x="63.623"/><use xlink:href="#DejaVuSans-32" x="127.246"/><use xlink:href="#DejaVuSans-31" x="190.869"/><use xlink:href="#DejaVuSans-2d" x="254.492"/><use xlink:href="#DejaVuSans-30" x="290.576"/><use xlink:href="#DejaVuSans-31" x="354.199"/></g></g><g id="xtick_5"><use xlink:href="#mfb7526ff11" x="367.247" y="286.298" style="fill:#b0b0b0;stroke:#b0b0b0;stroke-width:.4" id="line2d_5"/><g style="fill:#b0b0b0" transform="matrix(.14 0 0 -.14 337.999 303.936)" id="text_5"><use xlink:href="#DejaVuSans-32"/><use xlink:href="#DejaVuSans-30" x="63.623"/><use xlink:href="#DejaVuSans-32" x="127.246"/><use xlink:href="#DejaVuSans-31" x="190.869"/><use xlink:href="#DejaVuSans-2d" x="254.492"/><use xlink:href="#DejaVuSans-30" x="290.576"/><use xlink:href="#DejaVuSans-34" x="354.199"/></g></g><g id="xtick_6"><use xlink:href="#mfb7526ff11" x="430.799" y="286.298" style="fill:#b0b0b0;stroke:#b0b0b0;stroke-width:.4" id="line2d_6"/><g style="fill:#b0b0b0" transform="matrix(.14 0 0 -.14 401.551 303.936)" id="text_6"><use xlink:href="#DejaVuSans-32"/><use xlink:href="#DejaVuSans-30" x="63.623"/><use xlink:href="#DejaVuSans-32" x="127.246"/><use xlink:href="#DejaVuSans-31" x="190.869"/><use xlink:href="#DejaVuSans-2d" x="254.492"/><use xlink:href="#DejaVuSans-30" x="290.576"/><use xlink:href="#DejaVuSans-37" x="354.199"/></g></g><g id="xtick_7"><use xlink:href="#mfb7526ff11" x="495.049" y="286.298" style="fill:#b0b0b0;stroke:#b0b0b0;stroke-width:.4" id="line2d_7"/><g style="fill:#b0b0b0" transform="matrix(.14 0 0 -.14 465.801 303.936)" id="text_7"><use xlink:href="#DejaVuSans-32"/><use xlink:href="#DejaVuSans-30" x="63.623"/><use xlink:href="#DejaVuSans-32" x="127.246"/><use xlink:href="#DejaVuSans-31" x="190.869"/><use xlink:href="#DejaVuSans-2d" x="254.492"/><use xlink:href="#DejaVuSans-31" x="290.576"/><use xlink:href="#DejaVuSans-30" x="354.199"/></g></g><g id="xtick_8"><use xlink:href="#mfb7526ff11" x="559.3" y="286.298" style="fill:#b0b0b0;stroke:#b0b0b0;stroke-width:.4" id="line2d_8"/><g style="fill:#b0b0b0" transform="matrix(.14 0 0 -.14 530.052 303.936)" id="text_8"><use xlink:href="#DejaVuSans-32"/><use xlink:href="#DejaVuSans-30" x="63.623"/><use xlink:href="#DejaVuSans-32" x="127.246"/><use xlink:href="#DejaVuSans-32" x="190.869"/><use xlink:href="#DejaVuSans-2d" x="254.492"/><use xlink:href="#DejaVuSans-30" x="290.576"/><use xlink:href="#DejaVuSans-31" x="354.199"/></g></g><g id="xtick_9"><use xlink:href="#mfb7526ff11" x="622.153" y="286.298" style="fill:#b0b0b0;stroke:#b0b0b0;stroke-width:.4" id="line2d_9"/><g style="fill:#b0b0b0" transform="matrix(.14 0 0 -.14 592.905 303.936)" id="text_9"><use xlink:href="#DejaVuSans-32"/><use xlink:href="#DejaVuSans-30" x="63.623"/><use xlink:href="#DejaVuSans-32" x="127.246"/><use xlink:href="#DejaVuSans-32" x="190.869"/><use xlink:href="#DejaVuSans-2d" x="254.492"/><use xlink:href="#DejaVuSans-30" x="290.576"/><use xlink:href="#DejaVuSans-34" x="354.199"/></g></g></g><g id="matplotlib.axis_2"><g id="ytick_1"><path d="M67.645 286.298h558" clip-path="url(#p98acfaf1ba)" style="fill:none;stroke:#b0b0b0;stroke-width:.3;stroke-linecap:square" id="line2d_10"/><g id="line2d_11"><defs><path id="mb07a471b90" d="M0 0h-3.5" style="stroke:#b0b0b0;stroke-width:.3"/></defs><use xlink:href="#mb07a471b90" x="67.645" y="286.298" style="fill:#b0b0b0;stroke:#b0b0b0;stroke-width:.3"/></g><use xlink:href="#DejaVuSans-30" style="fill:#b0b0b0" transform="matrix(.14 0 0 -.14 51.737 291.617)" id="text_10"/></g><g id="ytick_2"><path d="M67.645 252.076h558" clip-path="url(#p98acfaf1ba)" style="fill:none;stroke:#b0b0b0;stroke-width:.3;stroke-linecap:square" id="line2d_12"/><use xlink:href="#mb07a471b90" x="67.645" y="252.076" style="fill:#b0b0b0;stroke:#b0b0b0;stroke-width:.3" id="line2d_13"/><g style="fill:#b0b0b0" transform="matrix(.14 0 0 -.14 16.108 257.395)" id="text_11"><defs><path id="DejaVuSans-35" d="M691 4666h2478v-532H1269V2991q137 47 274 70 138 23 276 23 781 0 1237-428 457-428 457-1159 0-753-469-1171Q2575-91 1722-91q-294 0-599 50Q819 9 494 109v635q281-153 581-228t634-75q541 0 856 284 316 284 316 772 0 487-316 771-315 285-856 285-253 0-505-56-251-56-513-175v2344z" transform="scale(.01563)"/></defs><use xlink:href="#DejaVuSans-35"/><use xlink:href="#DejaVuSans-30" x="63.623"/><use xlink:href="#DejaVuSans-30" x="127.246"/><use xlink:href="#DejaVuSans-30" x="190.869"/><use xlink:href="#DejaVuSans-30" x="254.492"/></g></g><g id="ytick_3"><path d="M67.645 217.853h558" clip-path="url(#p98acfaf1ba)" style="fill:none;stroke:#b0b0b0;stroke-width:.3;stroke-linecap:square" id="line2d_14"/><use xlink:href="#mb07a471b90" x="67.645" y="217.853" style="fill:#b0b0b0;stroke:#b0b0b0;stroke-width:.3" id="line2d_15"/><g style="fill:#b0b0b0" transform="matrix(.14 0 0 -.14 7.2 223.172)" id="text_12"><use xlink:href="#DejaVuSans-31"/><use xlink:href="#DejaVuSans-30" x="63.623"/><use xlink:href="#DejaVuSans-30" x="127.246"/><use xlink:href="#DejaVuSans-30" x="190.869"/><use xlink:href="#DejaVuSans-30" x="254.492"/><use xlink:href="#DejaVuSans-30" x="318.115"/></g></g><g id="ytick_4"><path d="M67.645 183.631h558" clip-path="url(#p98acfaf1ba)" style="fill:none;stroke:#b0b0b0;stroke-width:.3;stroke-linecap:square" id="line2d_16"/><use xlink:href="#mb07a471b90" x="67.645" y="183.631" style="fill:#b0b0b0;stroke:#b0b0b0;stroke-width:.3" id="line2d_17"/><g style="fill:#b0b0b0" transform="matrix(.14 0 0 -.14 7.2 188.95)" id="text_13"><use xlink:href="#DejaVuSans-31"/><use xlink:href="#DejaVuSans-35" x="63.623"/><use xlink:href="#DejaVuSans-30" x="127.246"/><use xlink:href="#DejaVuSans-30" x="190.869"/><use xlink:href="#DejaVuSans-30" x="254.492"/><use xlink:href="#DejaVuSans-30" x="318.115"/></g></g><g id="ytick_5"><path d="M67.645 149.409h558" clip-path="url(#p98acfaf1ba)" style="fill:none;stroke:#b0b0b0;stroke-width:.3;stroke-linecap:square" id="line2d_18"/><use xlink:href="#mb07a471b90" x="67.645" y="149.409" style="fill:#b0b0b0;stroke:#b0b0b0;stroke-width:.3" id="line2d_19"/><g style="fill:#b0b0b0" transform="matrix(.14 0 0 -.14 7.2 154.728)" id="text_14"><use xlink:href="#DejaVuSans-32"/><use xlink:href="#DejaVuSans-30" x="63.623"/><use xlink:href="#DejaVuSans-30" x="127.246"/><use xlink:href="#DejaVuSans-30" x="190.869"/><use xlink:href="#DejaVuSans-30" x="254.492"/><use xlink:href="#DejaVuSans-30" x="318.115"/></g></g><g id="ytick_6"><path d="M67.645 115.186h558" clip-path="url(#p98acfaf1ba)" style="fill:none;stroke:#b0b0b0;stroke-width:.3;stroke-linecap:square" id="line2d_20"/><use xlink:href="#mb07a471b90" x="67.645" y="115.186" style="fill:#b0b0b0;stroke:#b0b0b0;stroke-width:.3" id="line2d_21"/><g style="fill:#b0b0b0" transform="matrix(.14 0 0 -.14 7.2 120.505)" id="text_15"><use xlink:href="#DejaVuSans-32"/><use xlink:href="#DejaVuSans-35" x="63.623"/><use xlink:href="#DejaVuSans-30" x="127.246"/><use xlink:href="#DejaVuSans-30" x="190.869"/><use xlink:href="#DejaVuSans-30" x="254.492"/><use xlink:href="#DejaVuSans-30" x="318.115"/></g></g><g id="ytick_7"><path d="M67.645 80.964h558" clip-path="url(#p98acfaf1ba)" style="fill:none;stroke:#b0b0b0;stroke-width:.3;stroke-linecap:square" id="line2d_22"/><use xlink:href="#mb07a471b90" x="67.645" y="80.964" style="fill:#b0b0b0;stroke:#b0b0b0;stroke-width:.3" id="line2d_23"/><g style="fill:#b0b0b0" transform="matrix(.14 0 0 -.14 7.2 86.283)" id="text_16"><defs><path id="DejaVuSans-33" d="M2597 2516q453-97 707-404 255-306 255-756 0-690-475-1069Q2609-91 1734-91q-293 0-604 58T488 141v609q262-153 574-231 313-78 654-78 593 0 904 234t311 681q0 413-289 645-289 233-804 233h-544v519h569q465 0 712 186t247 536q0 359-255 551-254 193-729 193-260 0-557-57-297-56-653-174v562q360 100 674 150t592 50q719 0 1137-327 419-326 419-882 0-388-222-655t-631-370z" transform="scale(.01563)"/></defs><use xlink:href="#DejaVuSans-33"/><use xlink:href="#DejaVuSans-30" x="63.623"/><use xlink:href="#DejaVuSans-30" x="127.246"/><use xlink:href="#DejaVuSans-30" x="190.869"/><use xlink:href="#DejaVuSans-30" x="254.492"/><use xlink:href="#DejaVuSans-30" x="318.115"/></g></g><g id="ytick_8"><path d="M67.645 46.741h558" clip-path="url(#p98acfaf1ba)" style="fill:none;stroke:#b0b0b0;stroke-width:.3;stroke-linecap:square" id="line2d_24"/><use xlink:href="#mb07a471b90" x="67.645" y="46.741" style="fill:#b0b0b0;stroke:#b0b0b0;stroke-width:.3" id="line2d_25"/><g style="fill:#b0b0b0" transform="matrix(.14 0 0 -.14 7.2 52.06)" id="text_17"><use xlink:href="#DejaVuSans-33"/><use xlink:href="#DejaVuSans-35" x="63.623"/><use xlink:href="#DejaVuSans-30" x="127.246"/><use xlink:href="#DejaVuSans-30" x="190.869"/><use xlink:href="#DejaVuSans-30" x="254.492"/><use xlink:href="#DejaVuSans-30" x="318.115"/></g></g><g id="ytick_9"><path d="M67.645 12.519h558" clip-path="url(#p98acfaf1ba)" style="fill:none;stroke:#b0b0b0;stroke-width:.3;stroke-linecap:square" id="line2d_26"/><use xlink:href="#mb07a471b90" x="67.645" y="12.519" style="fill:#b0b0b0;stroke:#b0b0b0;stroke-width:.3" id="line2d_27"/><g style="fill:#b0b0b0" transform="matrix(.14 0 0 -.14 7.2 17.838)" id="text_18"><use xlink:href="#DejaVuSans-34"/><use xlink:href="#DejaVuSans-30" x="63.623"/><use xlink:href="#DejaVuSans-30" x="127.246"/><use xlink:href="#DejaVuSans-30" x="190.869"/><use xlink:href="#DejaVuSans-30" x="254.492"/><use xlink:href="#DejaVuSans-30" x="318.115"/></g></g></g><path d="m67.645 286.298 19.554-.092 4.19-.25 1.397-.084 3.492.119 2.095.133 3.492.095 5.587.009 25.84.064 76.123-.125 6.285-.104 7.682.113 10.476.053 26.538-.003 27.236-.345 5.587-.204 3.492-.073 9.778.083 14.665.341 5.587-.011 10.476-.025 4.19-.004 4.889.047 60.758-.136 5.587-.015 5.587.059 8.38-.01 9.778-.356 3.492-.206 8.38-.153 4.19.02 3.492-.004 6.984-.194 2.095.019 17.46.014 6.983-.065 2.095-.276 2.794-.256 3.492.39 4.19.18 6.285.29 2.794.02 2.095-.122 4.889-.374 4.888-.05 3.492-.094 12.57-1.443 2.096-.405 3.492-.895 1.396-.206 2.794-.19 4.19.355 2.095.332 1.397.331 2.095.456 1.397.261 4.889.524 2.793-.086 3.492-.486 2.793-1.046 1.397-.797 1.397-1.478 2.095-2.908 1.397-1.89 1.397-1.53.698-1.11 2.793-7.487 2.095-8.506 2.794-7.442 1.397-7.81 1.396-10.09 1.397-8.715.699-4.143 1.396-15.44 1.397-11.739.698-5.742 2.096-12.858.698-2.816 1.397-18.487 1.396-14.78.699-6.23 1.397-24.632.698-1.578.698-12.645 1.397-20.105.698-15.607.699-5.7.698-28.726.699-12.129.698.227.698 1.513.699 9.836.698.841.698-8.798.699 22.072.698 6.611.699 4.484.698 1.62.698 2.147.699.621 2.793 26.565.699 8.197.698 5.869.698 7.957.699 13.521.698 9.378h0" clip-path="url(#p98acfaf1ba)" style="fill:none;stroke:#1f77b4;stroke-width:1.5;stroke-linecap:square" id="line2d_28"/><path d="m67.645 286.298 29.332-.108 2.793-.196 3.492-.54 1.397-.414.698-.088 4.889-1.972 4.888-.511 4.19.712.699.305 2.095.43 1.397.397 5.587.519 9.079.827 2.793-.01 10.476.321 1.397.01 4.888.043 2.794.03 7.682-.06 3.492-.117 4.888.114 15.364-.018 7.682-.166 5.587-.143 5.587-.211 15.365-.056 18.157-.747 4.889-1.137 4.889-1.729 1.396-.836 1.397-1.22 1.397-.87.698-.72.699-.537.698-.728.698-.425 1.397-.627.698-.385 1.397-.535.699-.276.698-.424 1.397-.304.698.002 1.397-.308.698-.199.699.092.698-.091.698.248 1.397.18 2.095-.132.699.118 3.491.091 1.397.235 1.397-.035 1.397.155 1.396-.222.699-.308 1.396-.158.699-.347.698-.16 1.397-1.128.698-.238.699-.394.698-.037.698-.676 2.794-1.23.698-.027.699-.499.698.292.698-.515.699.806.698 1.647.699.882 1.396 1.203.699.223.698-.035 2.095.764 2.095.327.699.602.698-.872.698-1.174.699-.648.698-.26.699-.088 1.396.28.699.927.698.588.698.3.699.524.698.14 1.397.82.698.44 1.397.38.698.041.699.485 2.095.925.698.4 2.095.243 1.397.669 1.397.288.698.252.699.105 4.19 1.567 4.19.01.698-.152 2.096-.041 1.396-.25 2.095-.114 2.096-.109 1.396-.037 2.794-.09 3.492-1.183.698-.12 2.095-1.182 1.397-.616 1.397-.304.698-.233 1.397-.904 1.397-.77 2.095-.535.698-.16.698-.031.699.229.698.487.698.134.699.26.698.722.699.38.698-.35 1.397-1.136 1.396-.848.699-1.175.698-.882 2.095-.137 1.397.294.698-.312.699-.009.698-.167 2.095.034.699-.133.698.259.698.468 3.492 1.598.699.41.698.272.698.571 2.096.892.698.138.698.306.699.443 1.396 1.46.699.407 1.397.335 2.095 1.13 1.396.254 1.397.492.699.823.698.585 1.397.298.698.28 1.397.08.698-.223.698.163 1.397.719 1.397.222 1.397.22 1.396.212 2.794.24 2.095.49 2.095.163 11.873.227 7.682-.416 9.777-.637 2.095-.139 4.889-.724 2.095-.603 1.396-.232 2.794-1.197 1.397-.378.698-.18 2.794-1.214 1.396-.22.699-.001 2.095-.516.698-.053.699-.199 2.095-.117.698-.168.698.126.699-.038.698.304.699-.074 1.396.148 2.095.661.699.001 4.19 1.041.698-.042 1.397.118 2.794-.438.698.157 4.19-.059.699-.141 2.095-.054 1.396-.179 1.397-.31 1.397-.268.698-.5.699-.36.698-.788 2.095-1.15.699-.362.698-.606.698-1.17 2.095-1.432.699-.302.698-.033.699.275.698-.578 1.397-2.436 1.396-1.223.699-1.077 1.397-3.474 2.095-3.183.698-.791.698-1 1.397-2.769.699-.423.698-1.843.698-.902.699-.688 2.095-3.708.698-2.293.699-.313.698-.163.698.125 1.397-.072 2.095.727 1.397.379.698.947.699-.236.698.254 1.397 2.335.698.92 1.397 1.108.698 1.789.699 1.362 1.396 2.074.699.322.698.553.698.723.699.552.698 1.149.699 1.52 1.396 3.895 1.397.443.698.549.699.21.698-.567.699-.409.698-.236.698-.45.699-.928 2.095-5.43.698-2.884.699-2.35.698-.659.698-1.479.699-2.104.698-1.67.698-3.509.699-2.164.698-1.56.699-.869 1.396-5.926 2.095-15.4 1.397-6.08 1.397-10.191.698-6.806 1.397-10.138.698-3.279.699-1.46.698-3.486.699-4.35.698-3.226.698-5.739.699-2.8.698-1.39.698-1.657.699-.68.698-2.518.698-1.148 2.096 2.415.698 1.839.698 1.012 1.397 2.593 1.397 3.99.698.697.699.254.698 3.257.698 1.068.699 1.888.698.91.698 1.297 1.397 2.116.699.37.698 2.215.698.552.699-.67.698-1.601.698-.878.699-1.572 1.397-6.271.698-5.092.698-3.446.699-4.388.698-2.906.698-1.364 2.794-16.233.698-2.264.699 1.45.698.005 2.095-6.628.699.132.698.803.698 2.011.699 2.426.698-1.493.698 1.492.699-24.127.698 28.996.699 5.434.698-.387 1.397 12.169.698-14.495h0" clip-path="url(#p98acfaf1ba)" style="fill:none;stroke:#ff7f0e;stroke-width:1.5;stroke-linecap:square" id="line2d_29"/><path d="m67.645 286.298 27.935-.097 3.492-.202 2.793-.28 2.794-.395 1.397-.34 1.396-.27 2.794-.717.698-.097.698-.526.699-.184.698.177.699-.14.698 2.125 1.397.336.698.61h2.095l.699-1.043.698-4.879.698-.047.699-2.047.698.063.698-.86.699-.031.698-.231.699 4.855.698.068.698 1.445.699.138.698 1.397.698-.09.699.208.698.045 1.397-.167.698.318.699-.286.698.223 1.397.114 1.397.502.698-.547 2.793.083 1.397.06.699.354 9.777.171.698-.3.699.015 1.396-.187 1.397.08.698.332 1.397-.098.698.12 2.096-.115.698-.377.698.39 3.492-.016 4.19-.015 3.492.021.699.074 2.793-.123 1.397.08 2.793-.063 7.683-.003 4.19-.202 2.793-.107 5.587-.203 1.397-.106h.698l1.397-.18 2.095-.244 1.397-.602.698.404 1.397-.185 1.397-.408.698-.026 2.095-.443.699.342.698-.628 1.397-.455 1.397-.175.698-.148.698-.664.699.4.698-.12.698-.306 4.889-1.172.698.065 1.397-.307.699-.163.698-.047.698-.362.699-.217.698-.41.698.077 1.397-.511.699-.555.698-.28 1.397-.075 1.396.325.699-.11 1.396.64 1.397-.407.699-.131.698-.323 1.397-.877 1.396-1.834 2.794-1.31.698-1.207 1.397-.985.698-1.353.699-.497.698-.66.699-.434.698-1.081.698-1.684.699-1.283.698 2.27.698-5.741.699-1.377.698-.991 1.397-1.218.698.994.699-3.868 1.396-6.964.699 8.18 1.397-2.215.698-5.04.698.744.699 8.279.698 4.887.698-8.07.699 2.471.698 3.6.699 5.348 1.396 2.224.699-2.248.698.74.698 1.15.699.085 1.397 2.772.698.488.698 3.489.699 1.182.698.762.698 1.025.699.508.698.33 1.397.218.698.247 3.492.076.698-.548 1.397-.15 1.397-.297 1.397-.036.698.227.698-.298.699-.442 2.793-.974.699-.013.698.267 1.397-.754.698 1.402 1.397.67.698.035.699-1.127 1.396.256.699-.036.698-.355.699-.095.698-.913.698.13.699-.173.698-.05.698-1.633.699-.338 1.397.132 1.396.165 2.095-.332.699.002.698-.417.699-.276 1.396-.331 1.397-.438.698-.049.699.184 4.19-.21.698-.116.699.053.698 2.326.698-2.188.699.338 1.397-.032.698.422.698.097.699-2.058.698 2.434.698-.063.699.297 2.095-.026.698-.141.699-.334.698-.112.698-.525 1.397-.082.699-.635.698-.283 1.397-.276.698.204.698-.007.699-.262.698.461.699.013 1.396.237 1.397-.265.698-.03 1.397-.553.699-.153.698-.623.698-.451.699-.09.698-.67.698-.866.699-.683.698-.982 1.397-.957.698-.913.699 1.499.698-2.628.698-1.035 2.096-2.005.698.655.698-1.567.699.62 1.396-.96.699 4.152.698-4.254.698-.165.699 2.216.698 5.683.699-4.532.698 4.548.698-.12.699-3.645.698.22.698-3.039.699-4.163.698 5.768 1.397-6.919.698 8.656.699.18.698-.483.698.839 1.397.856.699.315.698.477.698.073.699 1.345.698.33 2.095 2.139.699 1.426.698.214 1.397 1.123 2.095 1.456 1.397.123 1.396.889.699.22.698 1.183.698.498.699-.479.698-.005 1.397.49.698 9.371h4.19l.699-6.566 2.793.545.699-.655.698 1.106.698-.16 2.096 1.24.698-.08.698.376.699-.413.698 1.083 1.397.564.698.216.699.046 2.095.755 7.682.69.698-.116.699.093 4.19-.36 1.397-.438 2.095-.518.698-.045.698-.33.699.258 2.793-2.689.699-.286.698-1.1.698-1.968.699-1.08.698-.828.699-1.441.698-.265.698-.12.699-.87.698-.622.698-.325.699-.48.698.184 1.397-.748.698.277 3.492-.685.698.135 1.397-.797 1.397-.463.698.14.699-.08.698-.603 2.794 1.527.698.167.698.388.699.537.698-.078 1.397 1.176.698 2.2.699-1.264.698.36.698.02.699 2.532.698-.921.698.54.699-1.443.698 2.18.699.315.698.453.698-1.42.699 2.66.698-.388.698.51 1.397.588 1.397.08.698.542.699.365 2.095.594.698.076.699.555.698-.66.698.693.699.105.698.255 6.984.94.698-.34 4.19.073.699.793.698-.434.698-.137 2.794.015.698-.438.699.33 1.396-.162 1.397-.139 2.095-.15 1.397-.106 1.397-.18.698.456 2.095-.89 1.397-.438.698-.035.699-1.023.698-.16.699-.317.698.508 1.397-.876.698-.105 2.095-2.297.699-1.7 1.396-1.493.699-.199 1.396-2.238 2.794-5.136.698-.314 2.794-6.345.698-1.406.698-1.033.699-.302 1.397-2.22.698-.826.698-.518 1.397-.406.698-.045 2.096-1.246.698-.292 1.397-.903.698-.297.698-.925.699-1.819.698-3.005.699-3.517.698-4.506.698 2.032.699-1.501 1.396-22.57.699-11.235.698-13.5.699-11.197.698-3.006.698-3.618.699-9.012.698-12.134.698-5.51 1.397-17.658.699-23.239.698-2.586.698-9.47.699-2.891.698-4.448.698-.144.699-2.048.698 1.757.699-.853.698-9.431.698-7.302.699-11.629 1.396-13.34.699-2.299.698-.667.699-3.723.698.865.698 3.297.699 4.61 1.396 10.668.699 2.056.698 8.664 3.492 53.94.698 3.872.699 17.213.698 30.703.698-5.664 1.397 19.92.699 6.734.698 1.587.698 23.147.699-23.551.698 23.536 1.397 8.85.698 2.693.699 1.186.698-9.343.698 16.56 2.095 7.324.699 1.605.698.462 1.397 3.158.698.705 1.397.032.698-.267.699-.055 2.095-3.72.698-1.37.699-1.648.698-1.34.698-.616.699-2.316.698-3.778 2.095-7.784.699-2.175.698-.187.698-6.238 2.096-12.638.698-4.05.698-2.825.699-.515.698-3.568.698-1.463.699-2.852.698-.532 1.397 1.497.698-.226.699.774.698 1.772h0" clip-path="url(#p98acfaf1ba)" style="fill:none;stroke:#2ca02c;stroke-width:1.5;stroke-linecap:square" id="line2d_30"/><path d="m67.645 286.298 336.616-.102 3.492-.073 24.443-.214 3.492-.303 2.095-.307 1.396-.278 1.397-.432 1.397-.494 4.19-1.773.699-.317 1.396-.22.699-.524.698-.096.698-.258.699.095 1.397-.212.698.506.698-.604.699-.076 1.396.573 1.397-.567.698-.913.699.872.698-.129.699.224.698-.476.698.25 1.397.099.698-.153.699-.019.698-.536.699-.145.698-.364 3.492-.888.698-.662.699.13.698-.14.698-.375.699-.175.698.064.698-.158 1.397.497.699-.033.698.17 1.397-.278 1.396.233.699-.236 1.397.236.698.362 4.19 1.258 1.397-.208.698.1.699.291 2.095-.096.698.694.699.271.698-.184.698.154 2.095 1.255.699.022.698.43.698.704 1.397.308 2.095.492 3.492.343 1.397.036 4.889-.185 2.095-.287 4.19-1.145 3.492-1.162 1.397-.235 1.396-.24 1.397-.113 2.095-.597 1.397-.167 1.397-.335.698-2.823 1.397-.41.698-.34.699-.639 1.396-.635.699 2.46.698-.264 1.397-.257.698.202 1.397-.215 1.397.004.698-.157.698-.034.699-.21 1.396-.108 1.397-.226.699-1.834 4.19-.328.698 1.73.699-.09 2.095.127 1.396.445.699-.341 2.793-.235.699-.713.698-.305.698-.585.699.024.698-.168.699-.61.698.11.698.556.699-1.102.698.891 1.397.04.698.734.699 1.449.698-2.205.698 1.206 2.095.077.699.069.698-1.405.699 2.233 1.396.098 1.397.152.698-1.446.699.165.698.462 1.397 1.402 1.397.617.698 1.53.698-.404.699-1.064 3.492-7.328.698-1.232 2.095-3.017.698-1.56.699-2.69 2.095-6.124.698-4.607 1.397-6.774.698-4.307.699-5.342.698-7.392.699-5.67.698-6.844 1.397-19.738.698-7.273.698-9.812.699-2.432.698-7.888.699-11.08.698-4.137.698-1.448.699-27.47.698-.717.698-11.482.699 1.89.698-.232.699-13.25.698-.415.698 2.883.699 4.233.698 13.012.698-7.203.699 12.388.698 22.877.699 3.05.698 26.05.698 7.264.699-12.874.698 13.446.698 5.385.699 2.703.698 7.377.699 9.063.698-.99.698 20.988.699 5.539.698 2.673h0" clip-path="url(#p98acfaf1ba)" style="fill:none;stroke:#d62728;stroke-width:1.5;stroke-linecap:square" id="line2d_31"/><path d="m67.645 286.298 22.348-.104 5.587-.451 4.19-.938 3.492-1.041 1.397-.636 2.095-.513 1.397-.184 2.095.098 2.793.381 2.095.332 2.794.281 2.793.138 1.397.121 2.095.203 2.095.214.699-.069 2.793.34 2.095.238 8.38.82 1.398.023 6.983.3 17.46.245 23.744.065 9.777-.051 12.571-.271 4.889-.393 10.475-.137 4.19-.015 7.683-.2 4.19-.483 2.095-.646 3.492-1.466 2.095-1.387.698-.611 1.397-.948 2.794-3.225 3.492-4.781 1.396-2.352.699-.844 2.095-1.668 2.095-2.195 1.397-.56.698-.67 1.397-.575.698-.303.699.25 1.396-.337.699.283.698-.129.698.177 2.096 1.152.698.433 1.397 1.7.698.702 2.095 2.448.699.64 1.396.883.699.565 1.396.929 1.397.435.698.441.699.778 1.397 1.135 2.793.367.698-.471.699-.12 2.095.953 1.397.262.698.358.698.019.699-.356 1.397 1.18 1.396.43.699-.224.698-.532.698-.31.699-.14.698-.518.699-.217 1.396-.81 1.397.952.698-.797.699-.428.698-.17.699.111.698.445 1.397.25.698.359.698.595 1.397.728 1.397.527 2.095.627 1.397.017.698-.159 1.397-.023 2.793.251.699.197.698.068 3.492-.27.698.022.699-.144 4.19.25.698.136 2.095-.524 1.397-.51.699-.423 1.396-1.089 4.19-2.214 2.096-1.128.698-.076.698-.26.699-.14 2.095-.78 3.492-.257 1.397.313.698.123.698-.904 2.794.614 1.397.051.698 1.134.698.263.699-.258 1.396.357 1.397.408.698.217.699.811.698.998.699.486 2.095.877.698.088.698-.555.699-.242.698.024 2.095.805 1.397.224.698.227 6.984.94.699.392.698.244.698.125 2.794 1.076 1.397.17 1.396.478 2.095 1 2.794.88 2.793.82 2.096.368 2.793.536 2.095.24 1.397.328 2.793.266 7.682.653 6.286.354 3.492-.022 3.492-.107 4.888-.48 3.492-.799 4.19-1.135 2.794-.487 1.397-.19 2.095-.127 1.396-.102 6.984-.338 2.794.032 6.983-.227 4.19.442 9.08 1.044 7.682.793 3.491.083 7.682.427 3.492-.157L516 283.29l.699-.028.698.12 1.397-.16 2.793-.62 2.096-.872 6.285-1.638 3.492-1.073.698-.305.699-.13.698-.315 1.397-.419 2.095-.881.698-.367 2.794-.926.698.42 1.397-.77 2.793-1.72.699-1.328 1.396-1.481.699-.498.698-.342.698-.99.699-1.284.698-1.807.699-2.149.698-2.613.698-.057.699-1.427.698-4.646.698-6.032 1.397-17.217.699-8.455 1.396-7.185 2.095-26.991.699 3.516.698-5.503.699-9.24 1.396-9.686.699-.696.698 3.408.698-9.051.699.45.698-.179.699 3.326.698-.743.698-.466.699-1.397 2.095 4.483.698.56.699 1.647.698 2.936 2.095 12.123.698 3.752.699 1.96.698 7.623.699 5.047 2.095 12.786.698 2.461.698 1.567.699 3.02 2.095 10.544 1.397 5.629.698 1.254.698 3.07.699 2.132.698 1.774 1.397 2.476.698.992.699.42 4.19 6.396.698.607 1.397 2.368 1.397.843.698-.196 1.397-.82 1.397-2.493.698-1.229 1.397-2.832.698-1.382.698-.688 2.794-9.956.698-2.058.699-1.128.698-.366.698-1.026.699-.412.698-.027 1.397.326 1.397.277.698-.332 1.397 1.49.698-.063.699.313.698.548.698.023.699 1.112.698.15h0" clip-path="url(#p98acfaf1ba)" style="fill:none;stroke:#9467bd;stroke-width:1.5;stroke-linecap:square" id="line2d_32"/><g style="fill:#1f77b4" transform="matrix(.14 0 0 -.14 642.385 125.623)" id="text_19"><defs><path id="DejaVuSans-4b" d="M628 4666h631V2694l2094 1972h813L1850 2491 4331 0h-831L1259 2247V0H628v4666z" transform="scale(.01563)"/><path id="DejaVuSans-6f" d="M1959 3097q-462 0-731-361t-269-989q0-628 267-989 268-361 733-361 460 0 728 362 269 363 269 988 0 622-269 986-268 364-728 364zm0 487q750 0 1178-488 429-487 429-1349 0-859-429-1349Q2709-91 1959-91q-753 0-1180 489-426 490-426 1349 0 862 426 1349 427 488 1180 488z" transform="scale(.01563)"/><path id="DejaVuSans-72" d="M2631 2963q-97 56-211 82-114 27-251 27-488 0-749-317t-261-911V0H581v3500h578v-544q182 319 472 473 291 155 707 155 59 0 131-8 72-7 159-23l3-590z" transform="scale(.01563)"/><path id="DejaVuSans-65" d="M3597 1894v-281H953q38-594 358-905t892-311q331 0 642 81t618 244V178Q3153 47 2828-22t-659-69q-838 0-1327 487-489 488-489 1320 0 859 464 1363 464 505 1252 505 706 0 1117-455 411-454 411-1235zm-575 169q-6 471-264 752-258 282-683 282-481 0-770-272t-333-766l2050 4z" transform="scale(.01563)"/><path id="DejaVuSans-61" d="M2194 1759q-697 0-966-159t-269-544q0-306 202-486 202-179 548-179 479 0 768 339t289 901v128h-572zm1147 238V0h-575v531q-197-318-491-470T1556-91q-537 0-855 302-317 302-317 808 0 590 395 890 396 300 1180 300h807v57q0 397-261 614t-733 217q-300 0-585-72-284-72-546-216v532q315 122 612 182 297 61 578 61 760 0 1135-394 375-393 375-1193z" transform="scale(.01563)"/><path id="DejaVuSans-2c" d="M750 794h659V256L897-744H494L750 256v538z" transform="scale(.01563)"/><path id="DejaVuSans-53" d="M3425 4513v-616q-359 172-678 256-319 85-616 85-515 0-795-200t-280-569q0-310 186-468 186-157 705-254l381-78q706-135 1042-474t336-907q0-679-455-1029Q2797-91 1919-91q-331 0-705 75-373 75-773 222v650q384-215 753-325 369-109 725-109 540 0 834 212 294 213 294 607 0 343-211 537t-692 291l-385 75q-706 140-1022 440-315 300-315 835 0 619 436 975t1201 356q329 0 669-60 341-59 697-177z" transform="scale(.01563)"/><path id="DejaVuSans-75" d="M544 1381v2119h575V1403q0-497 193-746 194-248 582-248 465 0 735 297 271 297 271 810v1984h575V0h-575v538q-209-319-486-474-276-155-642-155-603 0-916 375-312 375-312 1097zm1447 2203z" transform="scale(.01563)"/><path id="DejaVuSans-74" d="M1172 4494v-994h1184v-447H1172V1153q0-428 117-550t477-122h590V0h-590q-666 0-919 248-253 249-253 905v1900H172v447h422v994h578z" transform="scale(.01563)"/><path id="DejaVuSans-68" d="M3513 2113V0h-575v2094q0 497-194 743-194 247-581 247-466 0-735-297-269-296-269-809V0H581v4863h578V2956q207 316 486 472 280 156 646 156 603 0 912-373 310-373 310-1098z" transform="scale(.01563)"/></defs><use xlink:href="#DejaVuSans-4b"/><use xlink:href="#DejaVuSans-6f" x="60.576"/><use xlink:href="#DejaVuSans-72" x="121.758"/><use xlink:href="#DejaVuSans-65" x="160.621"/><use xlink:href="#DejaVuSans-61" x="222.145"/><use xlink:href="#DejaVuSans-2c" x="283.424"/><use xlink:href="#DejaVuSans-20" x="315.211"/><use xlink:href="#DejaVuSans-53" x="346.998"/><use xlink:href="#DejaVuSans-6f" x="410.475"/><use xlink:href="#DejaVuSans-75" x="471.656"/><use xlink:href="#DejaVuSans-74" x="535.035"/><use xlink:href="#DejaVuSans-68" x="574.244"/></g><g style="fill:#ff7f0e" transform="matrix(.14 0 0 -.14 642.385 146.053)" id="text_20"><defs><path id="DejaVuSans-47" d="M3809 666v1253H2778v519h1656V434q-365-259-806-392-440-133-940-133-1094 0-1712 639-617 640-617 1780 0 1144 617 1783 618 639 1712 639 456 0 867-113 411-112 758-331v-672q-350 297-744 447t-828 150q-857 0-1287-478-429-478-429-1425 0-944 429-1422 430-478 1287-478 334 0 596 58 263 58 472 180z" transform="scale(.01563)"/><path id="DejaVuSans-6d" d="M3328 2828q216 388 516 572t706 184q547 0 844-383 297-382 297-1088V0h-578v2094q0 503-179 746-178 244-543 244-447 0-707-297-259-296-259-809V0h-578v2094q0 506-178 748t-550 242q-441 0-701-298-259-298-259-808V0H581v3500h578v-544q197 322 472 475t653 153q382 0 649-194 267-193 395-562z" transform="scale(.01563)"/><path id="DejaVuSans-6e" d="M3513 2113V0h-575v2094q0 497-194 743-194 247-581 247-466 0-735-297-269-296-269-809V0H581v3500h578v-544q207 316 486 472 280 156 646 156 603 0 912-373 310-373 310-1098z" transform="scale(.01563)"/><path id="DejaVuSans-79" d="M2059-325q-243-625-475-815-231-191-618-191H506v481h338q237 0 368 113 132 112 291 531l103 262L191 3500h609L1894 763l1094 2737h609L2059-325z" transform="scale(.01563)"/></defs><use xlink:href="#DejaVuSans-47"/><use xlink:href="#DejaVuSans-65" x="77.49"/><use xlink:href="#DejaVuSans-72" x="139.014"/><use xlink:href="#DejaVuSans-6d" x="178.377"/><use xlink:href="#DejaVuSans-61" x="275.789"/><use xlink:href="#DejaVuSans-6e" x="337.068"/><use xlink:href="#DejaVuSans-79" x="400.447"/></g><g style="fill:#2ca02c" transform="matrix(.14 0 0 -.14 642.385 197.666)" id="text_21"><defs><path id="DejaVuSans-46" d="M628 4666h2681v-532H1259V2759h1850v-531H1259V0H628v4666z" transform="scale(.01563)"/><path id="DejaVuSans-63" d="M3122 3366v-538q-244 135-489 202t-495 67q-560 0-870-355-309-354-309-995t309-996q310-354 870-354 250 0 495 67t489 202V134Q2881 22 2623-34q-257-57-548-57-791 0-1257 497-465 497-465 1341 0 856 470 1346 471 491 1290 491 265 0 518-55 253-54 491-163z" transform="scale(.01563)"/></defs><use xlink:href="#DejaVuSans-46"/><use xlink:href="#DejaVuSans-72" x="50.27"/><use xlink:href="#DejaVuSans-61" x="91.383"/><use xlink:href="#DejaVuSans-6e" x="152.662"/><use xlink:href="#DejaVuSans-63" x="216.041"/><use xlink:href="#DejaVuSans-65" x="271.021"/></g><g style="fill:#d62728" transform="matrix(.14 0 0 -.14 642.385 235.438)" id="text_22"><defs><path id="DejaVuSans-56" d="M1831 0 50 4666h659L2188 738l1481 3928h656L2547 0h-716z" transform="scale(.01563)"/><path id="DejaVuSans-69" d="M603 3500h575V0H603v3500zm0 1363h575v-729H603v729z" transform="scale(.01563)"/></defs><use xlink:href="#DejaVuSans-56"/><use xlink:href="#DejaVuSans-69" x="66.158"/><use xlink:href="#DejaVuSans-65" x="93.941"/><use xlink:href="#DejaVuSans-74" x="155.465"/><use xlink:href="#DejaVuSans-6e" x="194.674"/><use xlink:href="#DejaVuSans-61" x="258.053"/><use xlink:href="#DejaVuSans-6d" x="319.332"/></g><g style="fill:#9467bd" transform="matrix(.14 0 0 -.14 642.385 249.438)" id="text_23"><defs><path id="DejaVuSans-49" d="M628 4666h631V0H628v4666z" transform="scale(.01563)"/><path id="DejaVuSans-6c" d="M603 4863h575V0H603v4863z" transform="scale(.01563)"/></defs><use xlink:href="#DejaVuSans-49"/><use xlink:href="#DejaVuSans-74" x="29.492"/><use xlink:href="#DejaVuSans-61" x="68.701"/><use xlink:href="#DejaVuSans-6c" x="129.98"/><use xlink:href="#DejaVuSans-79" x="157.764"/></g></g></g><defs><clipPath id="p98acfaf1ba"><path d="M67.645 9.098h558v277.2h-558z"/></clipPath></defs></svg>