<svg xmlns="http://www.w3.org/2000/svg" xmlns:xlink="http://www.w3.org/1999/xlink" width="916.28" height="416.199" viewBox="0 0 687.21 312.149"><defs><style>*{stroke-linejoin:round;stroke-linecap:butt}</style></defs><g id="figure_1"><path id="patch_1" d="M0 312.15h687.21V0H0v312.15z" style="fill:none"/><g id="axes_1"><path id="patch_2" d="M40.922 284.4h558V7.2h-558v277.2z" style="fill:none"/><g id="matplotlib.axis_1"><g id="xtick_1"><g id="line2d_1"><defs><path id="md794726cc1" d="M0 0v3.5" style="stroke:#b0b0b0;stroke-width:.4"/></defs><use xlink:href="#md794726cc1" x="91.552" y="284.4" style="fill:#b0b0b0;stroke:#b0b0b0;stroke-width:.4"/></g><g id="text_1" style="fill:#b0b0b0" transform="matrix(.14 0 0 -.14 62.304 302.038)"><defs><path id="DejaVuSans-32" d="M1228 531h2203V0H469v531q359 372 979 998 621 627 780 809 303 340 423 576 121 236 121 464 0 372-261 606-261 235-680 235-297 0-627-103-329-103-704-313v638q381 153 712 231 332 78 607 78 725 0 1156-363 431-362 431-968 0-288-108-546-107-257-392-607-78-91-497-524-418-433-1181-1211z" transform="scale(.01563)"/><path id="DejaVuSans-30" d="M2034 4250q-487 0-733-480-245-479-245-1442 0-959 245-1439 246-480 733-480 491 0 736 480 246 480 246 1439 0 963-246 1442-245 480-736 480zm0 500q785 0 1199-621 414-620 414-1801 0-1178-414-1799Q2819-91 2034-91q-784 0-1198 620-414 621-414 1799 0 1181 414 1801 414 621 1198 621z" transform="scale(.01563)"/><path id="DejaVuSans-2d" d="M313 2009h1684v-512H313v512z" transform="scale(.01563)"/><path id="DejaVuSans-35" d="M691 4666h2478v-532H1269V2991q137 47 274 70 138 23 276 23 781 0 1237-428 457-428 457-1159 0-753-469-1171Q2575-91 1722-91q-294 0-599 50Q819 9 494 109v635q281-153 581-228t634-75q541 0 856 284 316 284 316 772 0 487-316 771-315 285-856 285-253 0-505-56-251-56-513-175v2344z" transform="scale(.01563)"/></defs><use xlink:href="#DejaVuSans-32"/><use xlink:href="#DejaVuSans-30" x="63.623"/><use xlink:href="#DejaVuSans-32" x="127.246"/><use xlink:href="#DejaVuSans-30" x="190.869"/><use xlink:href="#DejaVuSans-2d" x="254.492"/><use xlink:href="#DejaVuSans-30" x="290.576"/><use xlink:href="#DejaVuSans-35" x="354.199"/></g></g><g id="xtick_2"><use xlink:href="#md794726cc1" id="line2d_2" x="157.801" y="284.4" style="fill:#b0b0b0;stroke:#b0b0b0;stroke-width:.4"/><g id="text_2" style="fill:#b0b0b0" transform="matrix(.14 0 0 -.14 128.553 302.038)"><defs><path id="DejaVuSans-39" d="M703 97v575q238-113 481-172 244-59 479-59 625 0 954 420 330 420 377 1277-181-269-460-413-278-144-615-144-700 0-1108 423-408 424-408 1159 0 718 425 1152 425 435 1131 435 810 0 1236-621 427-620 427-1801 0-1103-524-1761Q2575-91 1691-91q-238 0-482 47Q966 3 703 97zm1256 1978q425 0 673 290 249 291 249 798 0 503-249 795-248 292-673 292t-673-292q-248-292-248-795 0-507 248-798 248-290 673-290z" transform="scale(.01563)"/></defs><use xlink:href="#DejaVuSans-32"/><use xlink:href="#DejaVuSans-30" x="63.623"/><use xlink:href="#DejaVuSans-32" x="127.246"/><use xlink:href="#DejaVuSans-30" x="190.869"/><use xlink:href="#DejaVuSans-2d" x="254.492"/><use xlink:href="#DejaVuSans-30" x="290.576"/><use xlink:href="#DejaVuSans-39" x="354.199"/></g></g><g id="xtick_3"><use xlink:href="#md794726cc1" id="line2d_3" x="223.511" y="284.4" style="fill:#b0b0b0;stroke:#b0b0b0;stroke-width:.4"/><g id="text_3" style="fill:#b0b0b0" transform="matrix(.14 0 0 -.14 194.263 302.038)"><defs><path id="DejaVuSans-31" d="M794 531h1031v3560L703 3866v575l1116 225h631V531h1031V0H794v531z" transform="scale(.01563)"/></defs><use xlink:href="#DejaVuSans-32"/><use xlink:href="#DejaVuSans-30" x="63.623"/><use xlink:href="#DejaVuSans-32" x="127.246"/><use xlink:href="#DejaVuSans-31" x="190.869"/><use xlink:href="#DejaVuSans-2d" x="254.492"/><use xlink:href="#DejaVuSans-30" x="290.576"/><use xlink:href="#DejaVuSans-31" x="354.199"/></g></g><g id="xtick_4"><use xlink:href="#md794726cc1" id="line2d_4" x="288.145" y="284.4" style="fill:#b0b0b0;stroke:#b0b0b0;stroke-width:.4"/><g id="text_4" style="fill:#b0b0b0" transform="matrix(.14 0 0 -.14 258.897 302.038)"><use xlink:href="#DejaVuSans-32"/><use xlink:href="#DejaVuSans-30" x="63.623"/><use xlink:href="#DejaVuSans-32" x="127.246"/><use xlink:href="#DejaVuSans-31" x="190.869"/><use xlink:href="#DejaVuSans-2d" x="254.492"/><use xlink:href="#DejaVuSans-30" x="290.576"/><use xlink:href="#DejaVuSans-35" x="354.199"/></g></g><g id="xtick_5"><use xlink:href="#md794726cc1" id="line2d_5" x="354.394" y="284.4" style="fill:#b0b0b0;stroke:#b0b0b0;stroke-width:.4"/><g id="text_5" style="fill:#b0b0b0" transform="matrix(.14 0 0 -.14 325.146 302.038)"><use xlink:href="#DejaVuSans-32"/><use xlink:href="#DejaVuSans-30" x="63.623"/><use xlink:href="#DejaVuSans-32" x="127.246"/><use xlink:href="#DejaVuSans-31" x="190.869"/><use xlink:href="#DejaVuSans-2d" x="254.492"/><use xlink:href="#DejaVuSans-30" x="290.576"/><use xlink:href="#DejaVuSans-39" x="354.199"/></g></g><g id="xtick_6"><use xlink:href="#md794726cc1" id="line2d_6" x="420.104" y="284.4" style="fill:#b0b0b0;stroke:#b0b0b0;stroke-width:.4"/><g id="text_6" style="fill:#b0b0b0" transform="matrix(.14 0 0 -.14 390.856 302.038)"><use xlink:href="#DejaVuSans-32"/><use xlink:href="#DejaVuSans-30" x="63.623"/><use xlink:href="#DejaVuSans-32" x="127.246"/><use xlink:href="#DejaVuSans-32" x="190.869"/><use xlink:href="#DejaVuSans-2d" x="254.492"/><use xlink:href="#DejaVuSans-30" x="290.576"/><use xlink:href="#DejaVuSans-31" x="354.199"/></g></g><g id="xtick_7"><use xlink:href="#md794726cc1" id="line2d_7" x="484.737" y="284.4" style="fill:#b0b0b0;stroke:#b0b0b0;stroke-width:.4"/><g id="text_7" style="fill:#b0b0b0" transform="matrix(.14 0 0 -.14 455.49 302.038)"><use xlink:href="#DejaVuSans-32"/><use xlink:href="#DejaVuSans-30" x="63.623"/><use xlink:href="#DejaVuSans-32" x="127.246"/><use xlink:href="#DejaVuSans-32" x="190.869"/><use xlink:href="#DejaVuSans-2d" x="254.492"/><use xlink:href="#DejaVuSans-30" x="290.576"/><use xlink:href="#DejaVuSans-35" x="354.199"/></g></g><g id="xtick_8"><use xlink:href="#md794726cc1" id="line2d_8" x="550.986" y="284.4" style="fill:#b0b0b0;stroke:#b0b0b0;stroke-width:.4"/><g id="text_8" style="fill:#b0b0b0" transform="matrix(.14 0 0 -.14 521.738 302.038)"><use xlink:href="#DejaVuSans-32"/><use xlink:href="#DejaVuSans-30" x="63.623"/><use xlink:href="#DejaVuSans-32" x="127.246"/><use xlink:href="#DejaVuSans-32" x="190.869"/><use xlink:href="#DejaVuSans-2d" x="254.492"/><use xlink:href="#DejaVuSans-30" x="290.576"/><use xlink:href="#DejaVuSans-39" x="354.199"/></g></g></g><g id="matplotlib.axis_2"><g id="ytick_1"><path id="line2d_9" d="M40.922 284.4h558" clip-path="url(#p9bb96d061a)" style="fill:none;stroke:#b0b0b0;stroke-width:.3;stroke-linecap:square"/><g id="line2d_10"><defs><path id="m76b0febf85" d="M0 0h-3.5" style="stroke:#b0b0b0;stroke-width:.3"/></defs><use xlink:href="#m76b0febf85" x="40.922" y="284.4" style="fill:#b0b0b0;stroke:#b0b0b0;stroke-width:.3"/></g><use xlink:href="#DejaVuSans-30" id="text_9" style="fill:#b0b0b0" transform="matrix(.14 0 0 -.14 25.015 289.719)"/></g><g id="ytick_2"><path id="line2d_11" d="M40.922 227.547h558" clip-path="url(#p9bb96d061a)" style="fill:none;stroke:#b0b0b0;stroke-width:.3;stroke-linecap:square"/><use xlink:href="#m76b0febf85" id="line2d_12" x="40.922" y="227.547" style="fill:#b0b0b0;stroke:#b0b0b0;stroke-width:.3"/><g id="text_10" style="fill:#b0b0b0" transform="matrix(.14 0 0 -.14 7.2 232.866)"><use xlink:href="#DejaVuSans-32"/><use xlink:href="#DejaVuSans-30" x="63.623"/><use xlink:href="#DejaVuSans-30" x="127.246"/></g></g><g id="ytick_3"><path id="line2d_13" d="M40.922 170.694h558" clip-path="url(#p9bb96d061a)" style="fill:none;stroke:#b0b0b0;stroke-width:.3;stroke-linecap:square"/><use xlink:href="#m76b0febf85" id="line2d_14" x="40.922" y="170.694" style="fill:#b0b0b0;stroke:#b0b0b0;stroke-width:.3"/><g id="text_11" style="fill:#b0b0b0" transform="matrix(.14 0 0 -.14 7.2 176.012)"><defs><path id="DejaVuSans-34" d="M2419 4116 825 1625h1594v2491zm-166 550h794V1625h666v-525h-666V0h-628v1100H313v609l1940 2957z" transform="scale(.01563)"/></defs><use xlink:href="#DejaVuSans-34"/><use xlink:href="#DejaVuSans-30" x="63.623"/><use xlink:href="#DejaVuSans-30" x="127.246"/></g></g><g id="ytick_4"><path id="line2d_15" d="M40.922 113.84h558" clip-path="url(#p9bb96d061a)" style="fill:none;stroke:#b0b0b0;stroke-width:.3;stroke-linecap:square"/><use xlink:href="#m76b0febf85" id="line2d_16" x="40.922" y="113.84" style="fill:#b0b0b0;stroke:#b0b0b0;stroke-width:.3"/><g id="text_12" style="fill:#b0b0b0" transform="matrix(.14 0 0 -.14 7.2 119.16)"><defs><path id="DejaVuSans-36" d="M2113 2584q-425 0-674-291-248-290-248-796 0-503 248-796 249-292 674-292t673 292q248 293 248 796 0 506-248 796-248 291-673 291zm1253 1979v-575q-238 112-480 171-242 60-480 60-625 0-955-422-329-422-376-1275 184 272 462 417 279 145 613 145 703 0 1111-427 408-426 408-1160 0-719-425-1154Q2819-91 2113-91q-810 0-1238 620-428 621-428 1799 0 1106 525 1764t1409 658q238 0 480-47t505-140z" transform="scale(.01563)"/></defs><use xlink:href="#DejaVuSans-36"/><use xlink:href="#DejaVuSans-30" x="63.623"/><use xlink:href="#DejaVuSans-30" x="127.246"/></g></g><g id="ytick_5"><path id="line2d_17" d="M40.922 56.987h558" clip-path="url(#p9bb96d061a)" style="fill:none;stroke:#b0b0b0;stroke-width:.3;stroke-linecap:square"/><use xlink:href="#m76b0febf85" id="line2d_18" x="40.922" y="56.987" style="fill:#b0b0b0;stroke:#b0b0b0;stroke-width:.3"/><g id="text_13" style="fill:#b0b0b0" transform="matrix(.14 0 0 -.14 7.2 62.306)"><defs><path id="DejaVuSans-38" d="M2034 2216q-450 0-708-241-257-241-257-662 0-422 257-663 258-241 708-241t709 242q260 243 260 662 0 421-258 662-257 241-711 241zm-631 268q-406 100-633 378-226 279-226 679 0 559 398 884 399 325 1092 325 697 0 1094-325t397-884q0-400-227-679-226-278-629-378 456-106 710-416 255-309 255-755 0-679-414-1042Q2806-91 2034-91q-771 0-1186 362-414 363-414 1042 0 446 256 755 257 310 713 416zm-231 997q0-362 226-565 227-203 636-203 407 0 636 203 230 203 230 565 0 363-230 566-229 203-636 203-409 0-636-203-226-203-226-566z" transform="scale(.01563)"/></defs><use xlink:href="#DejaVuSans-38"/><use xlink:href="#DejaVuSans-30" x="63.623"/><use xlink:href="#DejaVuSans-30" x="127.246"/></g></g></g><path id="line2d_19" d="m40.922 284.4 22.622-.081 2.155-.244.538-.162 1.077.08.539.042.539-.244 1.077-.975.538-.162 1.616-3.817 1.077-3.452 1.078-4.549.538-1.42 2.155-16.042.538-2.802.539-4.873.539-1.056.538-1.827 1.616-13.482.539-1.219.538 2.234.539-1.38.538.12.54-1.258.538-2.802.538-1.34.539-2.883.539-2.234.538.65.539-.975.538.163.539 4.06 1.077 5.483.539 1.787h.538l.539 1.259.539 3.208 1.077 3.086.538 3.452 1.078 5.4.538.976.539 1.502 1.077 3.899.539-.366.538 1.95 1.078 1.786.538 2.6.539 1.38 1.077 3.736.539-.284.538.04.539 1.787.538.731.539 1.3.539 3.005.538.609.539.081.538.447.54 1.096.538 1.462.538-.203.539-.487.539.122.538.812.539-.04.538 1.38.539.73.539 1.3 1.077.528.538-.446.539.203.539-1.056.538.447.539.162.538.975 1.078 1.258.538.082.539 1.137.539-.488h.538l.539-.324 1.077.568h1.077l1.077.975.539-.203.539.203.538-.163 1.077-.122 1.616.934h1.617l.538.163h.538l.539-.122 1.077.163.539-.041 1.077.284.539.366.538.203.539.08.538.204.539.081 2.154-.081 1.078-.487 2.154.08h.539l.538.123h.539l.539.284 1.077-.447.538-.243 1.078-.082.538-.203.539-.325 1.616.65.538.122.539-.244.539.244 1.615.04.539-.04.539-.244.538.285 2.155-.244 1.615.528.539.244.539-.163 1.077.04.538-.324.54-.122.538.081.538-.04 1.078.325 1.077.08.538.204h.539l1.077-.163.539-.04.538-.325.539.122h.539l.538-.244 1.077-.04 1.078.121.538-.284.539-.65.539-.325 2.693-.568 1.077.568.538-.406.539.122 1.077-.122.539.04 1.077-.283.539.162.538-.365 1.078-.082.538-1.096 1.616-1.95.539.041.538-.243.539-1.381 1.077.284.539-1.015 1.615-1.909.539.203.539-1.868.538-2.396.539-1.137.538-2.193h.54l.538-1.015.538-3.614.539-2.68.539-1.178.538-3.614.539-1.097.538-1.38.539-.569.539-.934 1.077-8.406 1.077-4.061.539-1.787.538.04.539-4.588 1.077-3.249.539-1.705.538-3.087 1.078-2.396.538.731.539-4.264 1.616-17.421.538-.812.539-1.422.538-5.644 1.078-6.782.538-.244 1.077-8.162.54-.894.538-1.421.538-4.183.539 1.584.538-6.741.54-.528.538-2.68.538-1.665.539-3.127.539-14.701 1.077-19.208.538-8.366.539-3.573.539-1.544.538-9.38.539-.406.538-4.224 1.078 35.046.538 2.152 1.077-9.868 1.616-19.086.539-3.899 1.077 3.655.539-3.736.538 4.467.539-4.304 1.077-56.123.539-6.213.538-1.665.539 2.152.539-1.665.538-7.066.539 3.046.538 4.183.54.812.538 5.239 1.077-7.554 1.077 19.696 1.077 8 .539-.122.539 3.493.538 6.74.539 2.925.538.812.539 3.452.539-2.03 1.077 3.41.538.285.539 6.294.539-.65.538 4.264.539 6.823.538.69.54 15.432.538 6.578.538 4.873.539 12.143.539 5.604.538.528.539 1.705.538-1.908.539 10.274.539 5.36.538 1.95 1.616 7.634.539 4.589 1.615 16.284.54 4.914.538-.487.538.081.539 2.315.539.162.538 1.056.539 5.28 1.077 5.278.539 1.056 1.077 8.975.538 1.543.539.488.539 2.477.538 1.056.539-.528.538.69.54 2.071.538 3.817 1.077 2.356.538-1.178.54-.122.538-.487h1.077l1.077 3.777 1.077.65.539 2.842.539-.04.538 1.096.539-1.99.538 1.502.539.894.539-.284.538 3.654.539-1.99.538-4.263.54-2.6.538-5.116.538-1.462.539-1.99.539-8.284.538-1.787.539.528.538 1.99.539 1.096.539 1.503.538.284.539-.122.538.447.539 1.38.539-.73 1.077-4.874.538 1.3.54-1.909.538.772.538-.203.539-1.665.539 2.193.538.406.539-.975 1.077 2.274.539.569.538.893.539-.243.538-.69 1.078 2.517.538.69.539-1.137.538 3.818 1.078 4.75.538-.405.539 2.518.538-.65.54 1.665.538-1.462.538.284.539-.447.539.853.538 7.635.539.568.538-1.3.539 1.382.539.284.538 1.056.539.284.538-4.873 1.078 7.878.538 4.305.539 1.665.538-.731 1.078 1.096 1.077 5.848.539-.65.538-.284.539 2.274.538.487.539 1.909.539-1.218.538-.447.539.447.538 1.218 1.078.081.538.65.539 3.492.538.488 1.078 2.436.538.325.539.081.538.813.54-.204.538 1.219.538-.285.539 2.112.539.04.538.285.539 1.056.538.325.539 1.3.539.811.538-.771 1.616.203.539.812.538-.04.539 1.258.538.528 1.078.163.538-.325.539.365.539-.406.538-.65.539-.243 1.077-.122 1.077-.244.539.853.538.163.539.284 1.077.203.539.772 1.077-.366.539.244 1.616-.285h.538l1.077.813.539.203.539.528.538.04.539-.081 1.077-.69.539-.203.538.243.539-.243h1.077l1.077-1.26h1.077l.54-.202 1.076-.61.539-.73.539.65.538-.488.539-1.259.538-.081.539-.366 1.077.122.539-.487.538-.69.539-.407.539-.852.538.528.539-.163.538-.365.54-1.95.538-.73.538 1.42.539-.73.539-1.219.538-.04.539-.528.538.487 1.078-3.736.538.04.539.407.538.122.539-.812.539.162.538 1.95.539-.326.538-.162.54.771.538.122.538.447.539-.365.539-.041.538-.528.539.04.538-.609 1.078.082.538-.65.539-.162.538.852.539-.406.539.284.538-.121h1.077l.539.203.539-2.071.538-.447 1.077-.528.54-1.624.538-.894.538-2.396 1.078-.365.538-.406.539-.244.538 1.909.539-3.25 1.616-5.035.538-.162.539-.406.539-3.574.538-1.705.539-2.843.538-1.503.54-3.492.538-.731.538-.406.539-3.899.539-2.355.538-1.178.539-.406 1.616-2.396 1.077-3.451.538-3.534.539-6.335.539-2.233.538-1.178.539-.446.538-3.209.54-4.507 1.076-2.843.539-3.046.538.406 1.078-.771 1.616-10.234.538-5.36 1.077-2.965.539-3.005.539 3.005.538-2.314.539 1.908.538 3.899.539-1.95.539-.121.538.446.539-2.314.538 3.939.54 2.72.538 10.437.538 3.736.539 2.03 1.077 7.554 1.077 3.614.539-1.096.539 1.706.538.04.539.65.538 2.761.539-2.436.539 2.396.538-3.411.539-1.26.538.65.54 1.381.538-1.543.538 5.157.539-.893 1.077 2.558.539.894 1.077 11.127.539 3.33.538 4.71.539 2.274.538-.284.539.081.539-.852.538 2.964.539 1.868h.538l1.078-.325.538-1.34.539 1.056.538-1.218.54.974h.538l.538.406.539.731 1.077.934 1.077-6.091.539-2.274.539-1.056.538-.69.539.284.538-2.68.539 1.015.539-.934.538-1.543 1.077-1.097.54.813 1.076-4.67.539.73.539 1.544.538-1.625.539.65.538-.081.539 2.883.539-.081.538-.975.539-2.64.538-.202.539.243h.539l.538-3.614.539-.528.538.325.54 1.705.538.244.538.04.539.204 1.077 3.492.539-.771 1.077 2.07.539.041.538.244.539.772.538-2.437.539-.893 1.077-4.833h.539l.538-.284.539-1.746.539-.772.538-12.02.539 12.223 1.077-1.218.539.812.538-.366.539-12.995.539 10.64.538-13.076.539 10.396.538 2.112.539-11.737.539-1.827.538 14.538.539 4.955.538 11.37.539.934.539.081.538 11.452.539.528.538-.568.54-3.127.538-8.325.538-.447.539.203.539-12.06.538 14.131.539-10.761 1.077 6.091.539.569.538.243.539 2.6.538-9.788.539 16.488h.539l.538-1.015h.539l.538-.203.54.893.538.406.538-.568 1.077 3.654 1.616.447.539 2.315.539 1.3.538.527.539.975.538.244.539-.041.539 2.274.538.65.539 1.178.538 6.05.539 1.909.539-.284.538-.04.539.933.538 2.721.54.203.538-3.614h.538l.539.325.539.08.538 5.443.539-2.193.538 1.665.539-.61.539-.162 1.077-.04.538-4.265.539 1.34.539.69.538 3.534.539.772 1.077.04.539-3.046.538.325.539-1.015.539-2.883.538-1.056h1.077l.539 2.802.539-2.883.538.609.539.244.538-.772h.539l.539-.122.538.447.539 2.152.538-1.015.539-1.909 1.077-.04.539-.203.538-2.559.54.731.538-1.502.538.65.539-1.219h.539l.538.325.539 2.558 1.077-2.599.539.082.538.73h1.077l.539-3.451.539-1.828.538.812.539-1.624 1.077-.04.539-.285.538.65 1.078-2.599.538-.487.539-.975h.538l.539.284.539.04.538-.12.539 1.583.538-.081.539.162h1.077l.539 1.218.538.853.54-1.259.538-.081.538.65h1.077l.54-.244.538 1.828.538 7.472.539-1.503.539.812h1.077l.538 1.097.539 5.97.539-11.006.538 2.356.539-.772h1.077l.539.812.538-4.873.539 6.254.538 1.178.54 1.543h1.076l1.078.812.538-4.589.539.081.538-.243h1.078l.538-2.275.539.772.538 5.036.539.974 1.077-.081h.539l.538 1.137.54-1.95.538.488.538-1.908.539-1.056h1.077l.539 4.792.538.406.539-.122.539.934.538-.528h1.077l.539-7.513 1.077-6.091.539-1.95.538-1.258h1.078l.538-.975 1.077-3.898.54-.528.538-1.787h1.077l.539-2.6.538.244.539 1.097.538-.244.539 1.503h1.077l1.077 9.95.539-3.453 1.077-3.614h1.077l1.078-8.406.538 4.304.539.69.539.894h1.077l.538 1.26.539.162.539.528.538-.082.539-.73h1.077l.539.812.538 3.41.539-.04.538-2.274.54 3.898h1.076l.539 1.503.538.203h0" clip-path="url(#p9bb96d061a)" style="fill:none;stroke:#d8b009;stroke-width:1.5;stroke-linecap:square"/><path id="line2d_20" d="m40.922 284.4 13.466-.081.538-.04 1.078-.285.538-.081 2.155-.772.538-.568 1.077-2.03.54-1.463.538-1.827.538-1.137.539-5.198.539-3.208 1.077-12.549.538-6.01.539-8.162.539-5.645 2.693-47.96.538-15.31.539-25.096 1.077-21.726.539-16.163.538-8.447L72.7 77.211l1.078-8.163.538-8.568.539-3.818 1.077-3.736.539 6.213 2.693 41.95.538 6.091.539 7.96.539 2.518.538 3.817.539 2.843.538.08.54-1.461.538 3.452.538-.203.539 5.563.539-.081.538 4.548.539 2.762.538 5.726.539 2.477.539 6.294.538 2.721.539 7.025.538 4.914.539 6.173.539 4.63 1.077 13.4.538-2.396.54 3.493 1.076 11.533.539-1.868.539.447.538 1.055.539 11.371.538.366.539.65.539 2.598.538 7.066.539.488.538.04.539 1.665.539.812.538 3.25.539.405.538 1.381 1.078 8.853.538 1.38.539 3.859.538.284.54 3.411.538 1.787.538 3.492.539 1.746.539.325.538-1.015.539 1.3.538.934.539 1.868.539-.731.538.08.539 1.585.538.893.539-.203.539-.975h.538l1.077 2.6.54-.244.538.365 1.616 4.548.538-.527.539.365.538 1.178.539.812.539.122.538.65.539 3.005.538 1.3.539.69.539 1.664.538.082.539.69.538-.203.54-2.112.538.163.538.609.539-.528.538.609.54-.081.538-.284.538.243.539.731.539.122.538.569.539-.082.538-.203.539.528.539.081.538-.324.539.04.538-.284.539.244 1.077.08.539.163.538.406 1.078.61.538-.082.539.325 1.616.569.538-.163h.539l.539-.122.538-.284.539.244 1.077-.285.539.244.538-.325 1.077.569 1.616-.04h.539l.539-5.89 1.077-.08 1.616.162.538-.244.539 6.295.538-.122 1.078.04.538-.243 2.693.162.539-.162.538.284.54-.203.538-.081.538-.61.539-.121.539-.244.538-.08.539-.326 1.077.04.539.407 3.231-.081.539-.731.538-.325 1.078-.325 1.077-.731.539-.406.538.284.539-.081.538.04.539-.405h1.077l.539-.122.538-.406 1.616-.203.539-.488.538.081.54-.203.538-.08.538-.326.539-.934 1.077-1.015.539-2.477.538-1.097.539-.73 1.616-5.077.538-3.41.539-2.153.539-1.462.538-4.224 1.077-5.157.539-5.36 1.077-6.457.539-4.386.538-5.93 1.078-6.984 1.077-11.33 1.077-18.6 1.616-15.187 1.616-28.67 1.077-9.056.539-8.731 1.615-17.422.54-.69 1.076-12.061.539-.65 1.077-10.07.539 1.258.538-6.863.539-5.198.539.244.538.852.539-1.705.538 2.761.539 1.543.539-6.944.538.528.539.975.538-.934 1.078 11.98.538 7.512.539 4.305.538 2.152.54.528.538 3.249.538 1.502 1.078-15.96.538 8.285 1.077 7.432.539 5.36.539 3.087.538 8.852.539 5.158.538 7.228.539 8.731.539 11.858.538 1.909 1.077-2.477.54-.894.538-2.03.538-.122.539-4.183.539-1.705.538 3.939.539.406.538 1.096.539 5.726.539-6.416.538-4.833.539-.568.538-4.061.539 1.34.539 1.665.538-4.386.539 5.807.538.325.54-.65.538 2.884.538.528.539-.69.539.04.538.203.539-.528.538 3.168.539-1.747 1.077 4.833.539 1.178.538-.203 1.078 5.238.538 3.696.539 1.705.538-.365.539 2.883.539 4.061.538 1.462.539-1.34.538.893.54 3.127.538 5.685.538 1.219.539 2.477.539 3.005 1.077 3.98.538 3.492.539-1.34.539 1.787.538-1.3.539 2.437.538-.447 1.078-1.462.538 2.071.539 1.584.538 3.858.54-1.178.538 1.625.538 1.137.539.528 1.077-2.437.539-1.787.538-1.096.539-.61.539-2.923.538-1.34.539.609.538-1.38.539-3.371.539-.407.538-2.314.539-1.462.538-5.117.54-4.02.538-2.03.538-.244.539-3.412 1.077-2.761.539-1.99.538-1.178.539-1.502.539-2.883.538.852.539.122.538-1.259.539.894.539-.285.538-1.665.539-.974.538.162.539-1.177 1.077 9.3.539-6.498.538.568.54-9.624.538 1.3.538-.204 1.078-4.751.538 6.416.539 4.345.538 11.737.539 1.38.539 3.249.538 1.706.539 3.492.538 4.264.539.812.539 3.533.538-.487.539 1.38 1.077 1.3.539.812 1.077 6.132.539 3.899.538 2.964.539 1.828 1.077 5.888.539 1.218.538 2.275.539.08.538.204 1.078 4.548.538.203.539 2.315.538 1.015.539 3.574.539 1.868 1.077 4.386.538 4.588.54 1.503.538-1.462.538.447.539.853 1.616 3.776.538-.284.539 3.736.539 1.706 1.077 2.274 1.077 5.36.539 4.548.538 2.153.539 1.056.538-.285.54.69.538-.365.538-.609.539-1.178 1.077.366 1.077 2.193.539 1.584.539 1.015.538 2.07.539 1.382.538.974.539.366.539.609.538 1.3 1.077 1.99.54-.854.538-.487.538.122.539-.284.538-.447.54.244.538-.447.538 1.137.539.73.539.082.538-.122.539.731 1.077.731.539.122.538.406.539.203.538.731.539.163.539-.366.538.163.539.568.538-.04 1.078.406.538.406.539.08 1.077-.486.539.324.538-.162 1.078-1.178.538.244.539-.162.538-.041.539-.447 1.077.163.539-.122 3.232-1.38.538-.163.539-.406.538-.122.539-.853.539-.487.538-.325.539-.081.538-.934.539-1.544.539-1.015.538-.162.539-.447.538-.162.54-.813.538-.243 1.077.893.538.163.54-.366.538-.568.538-.366.539-.61.539-.405.538-.772.539-.528.538-.08.539-.488.539.04.538.163h.539l.538.122.539-.163.539-.04 1.077 1.259.538-.041.54-.163.538-.324.538-.163 1.078.569.538-.325 1.616.609.539.569.538.04.539-.73.538-.041 1.078.243.538.488h.539l.538 1.015 1.616 1.38.539.975.539.406.538.894.539-.853 1.077.365 1.616.163.538-.488.539 1.3.539.122.538-.406.539-.853 1.616.447.538-1.016h.539l.538.569.54.893 1.076-1.259.539.244.539.081.538-.081 1.077.69.539-.528.539-.365.538-.731.539.244h.538l.539-.488.539-1.096.538.122.539-.325.538-.69.54-.894 2.154-1.624.538-.082.539.813.538.162.539-.406.539-1.056.538-.365.539-.528 1.077-.203.539-1.665.538-.04.539.202.538-.243.54-.731.538-.041.538-.934.539.609.538.162.54-1.096.538-.406.538.69.539-.284.539-1.787 1.077-1.787.538-.243.539-.853 1.077-3.533.539-.081 1.077-2.356 1.077-2.924.539-.69.538-1.827 1.078-1.706.538.65.539-.203.539-1.99 1.077.893.538-.568.539 1.34.539-2.112.538.081.539-2.314.538-3.858.539-1.706 1.077-5.726.539-.974.538-3.533.54-1.422.538-3.33 1.077-10.355.539-5.036.538-3.695.539-2.437.538-5.685 1.078-5.523.538-.528.539-1.015.538.853.539-2.64.539-1.38.538-1.91 1.077-.365.539-1.787.539-.324.538.121.539 1.665.538 1.3.54-1.015.538-2.234.538.081.539.244.539.934 1.077.934 1.077 7.635.539 4.304 1.615 4.467.539 4.305.539.203 1.077 1.503.538 2.03 1.078 5.929.538 1.056.539 2.883.539 4.914.538 1.705.539-.121.538-.244.539 3.614.539 1.543.538 2.6.539-.691 1.077 3.086.539 3.127 1.615 6.335.54 2.193.538 1.625.538.771.539.04.538.163.54.772.538.325.538-.366.539 1.95.539-.285.538.406 1.077-1.34.539-2.193.539.772.538-1.34.539.446 1.077 1.787.539-.69.538.934 1.077-.772 1.078-2.68.538-.69.539.812 1.077.812.539.69.538 1.138.539.406.539 1.015.538-.203h.539l.538.446.539-.852.539.203 1.077 3.167.538-2.03.54-.69.538-2.803.538-.406.539.244.539-.569.538-.771.539.771.538 1.422.539 2.802.539.528 1.077-2.315.538-.284.539 1.38.539-.284.538.325.539.69 1.077 2.965.539-.203.538 1.502 1.077.731.54.894.538.406.538-.731.539.406.539-.853 1.077 1.95h.538l1.078 2.03.538 2.152.539-.04.538.568.539-1.178.539 1.016.538.284.539.73.538 1.179.54 3.167.538.61.538 3.167.539.771h.539l.538-.324.539-.163.538-.853.539-.203 1.077-1.015.539.04.538 1.178.539-.122.539 1.3.538.812.539.447.538.609.54.325.538-.731.538.447.539-.082 1.077-.852.539.203.538-1.056.539-.163 1.077-.69.539.65 1.077-1.787.539-.528.538.162.539-1.015.538-.487 1.616-3.98.539.528 1.077-5.32.539-1.38.538-.447.539-1.178.539-.73.538-1.422.539.609.538-.772 1.078-4.182.538-.853.539-.203.538.081.539.325.539-3.127 1.077-3.736.538-3.614 1.078-.447.538-.69.539 2.558 1.077 3.005.539 2.802.538-1.502 1.616 1.218 2.155 4.426.538-.162.539 2.883.538 4.345.54.69.538-.69.538 1.137.539 1.665.538.61.54-1.34.538-2.6.538.65.539 2.559.539 1.015.538.325.539.893.538.61.539 1.461.539.894.538.65.539.324.538 1.3.539.446 1.077 1.544.539 1.34.538-.853.54 1.3.538.04.538-.162.539 1.462 1.077-1.016.539 1.178.538.61.539.365.539.08.538-1.096.539 1.34.538.934h.539l1.077-.406.539.772.538-.04 1.078-.244.538 1.218.539.447.539.203.538-.285.539-.609 1.077.366 1.616-2.924.538-.853.539-.162.539-.813.538-1.055.539-.406.538-1.462.539-.528.539.365 1.077-3.046.538-.487.54-.73.538.283 1.077-1.583.539 2.193.538-.285 1.077-.893.539.244.539.65.538 2.111.539 1.584.538 4.873 1.078 7.594.538-10.152.539 3.086h2.693l.539-8.69h3.231l.539.65h3.231l.54-1.91h2.154" clip-path="url(#p9bb96d061a)" style="fill:none;stroke:#1007e1;stroke-width:1.5;stroke-linecap:square"/><path id="line2d_21" d="m40.922 284.4 18.313-.081 2.155-.203.538-.285 1.078-.324.538-.285.539-.609.538.122.539-1.178.539-.203.538.122.539-2.112.538.325.539.61.539-3.858.538-7.148 1.077-8.65.54-5.198 1.615-30.05.538-3.737 1.616-25.096.539-10.6.539-41.502.538-9.95 1.077-63.228.539-9.137.539-16.894.538-37.158.539 28.792.538-29.685.539 5.563.539 16.894.538-1.706.539 10.559.538 27.33.54-36.305.538 23.838.538 9.096.539-.203.539 6.985.538 1.056.539 8.731.538 36.305.539 9.624.539 15.107.538 11.046.539 5.929.538 4.467.539 6.538.539 4.792.538 9.218 1.077 13.97.54 4.386.538 5.32.538 1.38.539 6.132.539 4.467.538-1.015.539 4.751.538 2.64.539 1.746.539-.609.538 7.716.539-6.985.538 5.685.539-.73.539-16.772.538 5.441.539 22.945.538-1.056.539 10.924.539-1.868.538.487.539 22.863.538 1.625.54-14.376.538 4.467.538.609.539 3.94.539 1.177.538-4.508.539 2.315.538 1.259.539-3.249.539.893.538.244.539 1.056.538.73.539-.933.539.73.538 2.437 1.077 1.422.54.284.538.122.538 1.096.539-1.056.539-.162.538-.04.539.568 1.077.406.539.162.538 2.437 1.077.853.539-.488.539.69.538.245.539-.447.538.974.54-.243 1.615.609.538.04.54.204.538.771.538-.487.539-.122.539-.325 1.077-.162 1.077.65.539-2.315.538-.04.539.527 1.616-.04.538.609.539 3.33 1.077.365.539.122h.538l.539.243.539-1.055 1.077-.528 1.616-.04.538-.488.539.447.538.121.539.488 1.077-.122h.539l.538.609 1.616-1.3.539-.243 1.077-.081.539-.163.538-.365.539.04.539.244.538-.203.539-.325 1.616.325.538.73.539-.974 1.077.366.539-.122.538-.61.539-.324.538-1.056.54.731.538 1.543.538-.244.539-.04.539.325.538-.447.539-.244.538-.08.539-4.143.539-.244.538-.04 1.077-.934.539-.65.539-1.137.538-2.924 1.077-.528.54-.771.538-1.178.538.081.539-.04.539.121 1.077-1.218.538-1.259.539.244.539-1.38.538-.366 1.077 1.177.539-.203.539.528.538-.568h.539l.538-.65.54 1.056.538-.406.538-.569.539-1.056.539-1.665.538-1.056.539-.487.538-2.802 1.078-3.127.538-2.071.539-6.213 1.077-5.32.539-4.914.538-2.558.539 4.304 1.077-19.817 1.077-6.904.539-10.03.538-3.493.54-10.233.538-1.584.538-30.498.539 11.899.539-5.036.538-11.451.539-3.29.538-1.584.539-5.36.539 1.95.538-14.701.539-2.356.538-4.223.539-2.03.539-1.34.538 1.99.539.202.538-4.183.54-.08.538-8.448 1.077 7.716.539.203.538 8.731.539 1.747.538 3.492.539 7.39.539 1.625.538.65.539 3.98.538 9.502.539 3.127.539.285.538 13.36h.539l.538.975.54 1.705.538-2.477.538.569.539 1.137.538.08.54.772.538.975.538-.406.539 1.909.539.284.538 1.421.539.65.538.162 1.078 1.665.538-.446.539.528.538-1.219.539 18.396.539 1.747.538-1.706.539-.569.538-6.781.54-1.097.538 1.625.538 1.055.539-.406.539 2.315.538-.69.539 4.101.538.894.539-1.016.539-18.599.538-.487.539-1.421.538 2.964.539 5.117.539 2.152.538-.325.539-1.827.538-1.015.54.406.538-3.736.538 3.492.539-3.29.539-2.558.538-.527 1.616-4.468.539 1.706.538-1.624.539.122.538-6.985.539-.447.539-.934.538-.406.539-4.548.538-.325.539 13.97.539-7.595.538 2.03.539.976.538-.163.54.081.538 2.518.538-14.62.539 14.742.539-.325.538.163.539 1.949.538 5.563.539-.568 1.077 6.578.539 1.706.538.325.539 3.167.539 6.336.538 1.299.539.406.538 1.34.54-1.137.538 1.503.538-1.665.539.528.539-1.787.538-1.3.539 4.061.538.61.539-.325.539.609.538 2.03.539-.365.538 1.137.539 8.771.539.041.538-.447.539 1.097.538-1.625.54 3.655.538-.122.538-2.517.539-.285.538.082.54-.407.538 4.914.538-.203.539 1.706.539-24.853.538-.61.539.326.538-.69.539-3.818.539-2.315.538-3.33.539 22.944.538.204.539-2.193.539 6.619.538-1.827.539-4.792.538-1.422.54.04.538-.852.538.366.539-7.635.539 3.29.538 5.035.539 1.909h.538l.539.73.539 1.462.538-2.517.539-1.746.538-.65.539.528.539-.04.538-1.138.539-.203 1.077 3.655.539-.081.538-.934.539 1.624.539 1.015.538 1.26 2.155 13.603.538 1.665.539.65.538-.04.539.77.539.245.538 2.436 1.077 6.741.539 2.6.539 1.38.538 3.899.539.934.538 1.746.54-.081.538 2.03.538.934.539.406.539 5.442.538.284.539-.162.538-.366.539-.081.539.853.538 1.096.539-2.599.538 3.533.539 1.99.539 2.924.538 1.502 1.077.935 1.078 4.913.538 1.26.539.08.539.569.538.934.539.65.538.04.539-.203.539.853.538.487.539.244.538.487.539.04.539.935.538 1.178 1.077.934.54 1.421.538.406 1.077-.284 1.077.568.539.61.538.365.539-.203 1.616.975.538-.122 1.078.406.538-.081 1.077.609.539-.772.539.894.538.365.539-.162.538.121h.54l.538.325.538.853.539-.65.539.163.538-.61.539-.243.538-.04.539-1.056.539.162 2.154-3.533 1.077-.934.539-1.259.538-.203.54-.975.538-.121.538.487.539-.528.539-1.097.538-.812.539-.568 1.616-3.087.538-.527 1.077-3.655 1.078-5.239.538-.122 1.077-5.279.54-1.34.538-2.03.538.202h.539l.538-.974.54 1.543.538 2.518.538.487 1.078 1.99.538.528.539.365.538-.365.539.162.539-.446.538 1.258.539-2.477.538 1.26.539.162.539 1.502.538.812.539 1.665.538-3.736.54 6.092.538 2.193 1.077.121.539-.203.538 2.112.539 2.965.538-2.6.539-1.624.539.894.538 1.38.539.366.538-1.218.539 2.802.539.852.538.569.539.975.538-1.34.54.324.538 1.503.538-.163.539-.528.539.853.538.488.539.934.538.203.539.934.539.406 1.077 1.38.538.285 1.078.081.538-.406 1.077 1.868.539-.325.539.325.538-.122 1.616.203.539-.487 1.077.528.539.04.538-.162.539 1.624.538-2.03.539.081.539-.61.538.123.539-.122.538.081.539-2.071.539 1.706.538.203.539 1.137.538-.894.54.366.538-.244.538-.69.539-.081.539-.934.538-1.381.539-.081.538-.325h.539l.539-.894.538-1.462 1.077-1.827 1.078-.731.538-.162 1.077-2.437.54-.61.538-1.258.538-2.802.539-.65.538-.284 1.078-5.117 1.077-2.883 1.616-2.355.538-1.95.539.569.539-.69.538-2.112.539-.569.538-.73.539-1.097.539.771.538-2.883.539-.771.538.365.54-.203.538.04.538-.852.539-1.3.539-2.518.538-.568.539-.122 1.077-1.95.539.204.538-.569 1.077-4.954.539-.934.539-.162.538-1.3.539.04.538-.405.54.406h.538l.538-.853.539.081.539-.244.538.366 1.077-2.762.539 9.503.539-9.665.538-1.706.539-.771.538-1.38 1.078-7.067.538-9.909.539 7.92.538-1.219 1.078-.934.538 1.3.539 4.06.538-.812.54.203.538-3.736.538.325.539-.081.539-2.274.538-13.036.539 11.208.538-15.878.539 3.452.539.365.538.894.539 1.3.538 28.06.539-27.167.539 14.944.538-1.421.539.568.538 4.305.54 14.7.538-26.72.538 18.03.539.203.539 4.751.538 1.868.539-3.045.538-8.528.539 18.111.539 1.544.538 4.101.539.244.538-.772.539 1.787.539 2.274.538 1.746.539 1.3.538 3.005.54 1.3.538 2.842.538.163.539-.488.538.934.54-.73.538-.407.538 1.543.539-.487.539-.081.538 1.462.539.487.538 2.396.539.122.539-.366.538-.203.539-.446.538.121 1.616-3.654.539-.528.538-.041.54.406.538-.365 1.616 3.939.538-.203.539-.772.538-.568.539-.772.539-1.056 1.077-2.558.538-.488.539 1.056.539.406.538 5.28.539-.934.538-3.046.54-2.112.538.203.538-.568.539-.203.539-6.051.538.487.539 3.046.538 2.152.539-.487.539.568.538.325.539.69.538 2.031.539 1.543.539.406.538 1.95.539-.041.538-.893.54 1.949.538-.122.538.731.539 1.543.538.447 1.078 3.98.538-2.884.539 1.34 1.077 1.34.539 1.381.538.366.539.162.539 2.883.538.041.539 1.178.538 1.584.539.812 1.077.162 1.077.975.54-.285.538-.527.538.284 1.078-.203.538 4.914.539-1.828.538-.771.539-.041.539 1.543.538-1.462.539.122h.538l.539-1.137.539 1.137.538-.284.539-1.747.538 1.584h.54l.538-2.72.538 3.776.539-.69.539.365.538-.243h1.077l.539-.894 1.077 1.503 1.616-.203h.539l.538-2.112.539-1.543.538-.203.539-1.909.539-.893h1.077l.538-.853 1.078-4.386 1.077 6.62h1.077l.539-10.518 1.077-1.34 1.077-9.99h1.077l.539 8.568 1.077 1.909 1.077 1.827h1.078l.538.569.539.73.539.529.538 1.015.539.365h1.077l.539.894.538-.406.539.08 1.077.529h1.077l.539 7.066.538-2.721.54-.203.538-.487h1.615l.54-4.711.538 3.655.538 1.462.539 1.949.539.934h1.077l.538.244.539.65 1.077.243.539-.162h1.077l.539 1.056.538.487.539.325.538-.69.54.974h1.076l.539.934.539-.162 1.077 2.152.538.122h1.078l.538-.406.539.65.538-.61.539.122.539-.203 1.615-.081 1.078-.163 1.077-.162h1.077l.539-.528.538-1.015.539-.447 1.077-1.462h1.077l.539-1.096 1.616-1.26.538-1.055h1.078l.538-2.071.539-.65.538-2.071.54-.284 1.076-.082h.539l.539-.324.538-1.219.539 1.868.538-.08.539.811h1.077l.539.406.538 5.32.539-3.655.539.65.538-.69h1.077l.54.406.538-4.751.538 3.167.539.081.539 3.168 2.154-.04.539.446.538-1.38.539-3.006h1.077l.539-1.015.538 1.259.539-.934.538 1.096.54.244h1.076l.539 1.746.538-.609h0" clip-path="url(#p9bb96d061a)" style="fill:none;stroke:#0309a6;stroke-width:1.5;stroke-linecap:square"/><path id="line2d_22" d="m40.922 284.4 19.39-.081 1.078-.122 1.077-.487.539-.447.538-.244.539-.73h.538l.539-3.087.539-2.315.538-3.533.539-1.705.538-7.472.539-2.884.539-8.365.538-5.483 1.077-23.269.54-19.736.538-12.426.538-30.417 2.155-81.503.538-15.188.539-10.193.539-3.411.538-9.868.539-3.127.538 3.858.539 5.157.539 8.65.538 1.787.539 7.147.538 12.426 1.078 17.869.538 3.695.539 6.213.538 16.407.54 3.857.538 1.95.538-2.153.539 19.655.539 7.838.538 6.01.539-5.279.538 8.812.539 6.782.539 12.995.538-13.685.539 4.954.538 2.761.539 5.239.539-.73.538 6.984.539 14.904.538-7.27.54 5.036.538 6.782.538 4.71.539 8.488.539 2.233.538-9.3.539 15.351.538.853.539 1.665.539.365.538 2.437.539-.162 1.077 6.74.539 5.808.538-.934.539 4.345.538 3.005.539 6.7.539-22.334.538 2.192.539-3.005.538 48.285h3.232l.539-11.899.538 11.493 1.616-.122 1.077.163 1.616.04.539.203 2.693.122h1.077l.539-47.879.538-.284 2.155-.203.538-.122.539 47.554.539.162 1.077-.121 1.077-.61.539-.04.538-.366 1.077.203h.54l1.076.406.539-.04.539.609 2.693.04.538.082 1.077-.081 1.616.08 1.077.082 1.616.04h1.078l.538-.121 2.155.081 1.077-1.99.538.163H145.413l.538-1.868.54.852.538.122.538-1.015.539-.365h1.077l.539 1.786.538-.771.539-5.239.539.406.538-.528h1.077l.539-.203.539-1.137.538 3.249.539-.366.538.407h1.078l.538-1.99.539-.244.538.203.54-.609.538-6.863h1.077l.539-.61.538-.811.539.325.538-1.26.539 5.523h1.077l.539-.121.538-3.168.539-8.325.539-3.695.538-1.706h1.077l.54-2.72.538-3.452.538 4.426.539 3.167.539-.974h1.077l.538-.447.539 9.787.539-10.152.538-3.98 1.616.04.539 1.625.538-10.6.539 12.346.538 2.274.54-5.198h1.076l.539-2.274.539 7.35.538-5.4.539-.57.538.772h1.078l.538-.893.539-5.604.538 2.152.539-.609.539-.365h1.077l1.077-4.508.539-.487.538-.731.539-.325h1.077l.539-4.061.538 1.178.539-59.087.539-7.92.538-4.385h1.077l.539-5.4.539 9.664.538 35.046.539.487.538 1.584h1.078l.538 1.137.539-17.665.538 16.61.54 4.223.538-.812h1.077l.539-1.138.538-4.142.539-.73.538-3.452.539 1.38h1.077l1.077 8.366 1.078 7.269.538 3.249h1.077l.54.284.538 17.95.538-4.062 1.077-5.563h1.078l.538.203.539-15.757 1.077 13.077.539 5.32h1.077l.539 2.233.538 5.198.539.69.538 2.234.539 6.05h1.077l.539 1.463 1.077-5.239.539-.893h1.616l.538 2.314.539-1.3.538 10.031.539-3.939.539-8.081h1.077l.538-6.497.539-2.275.539-7.918.538 1.786.539-1.462h1.077l.539-2.192.538.162.539-10.924 1.077-14.944h1.077l.539-12.67.539-7.391.538-1.34 1.077-9.097h1.078l.538.203.539-5.604.538-2.761.539 3.37.539-2.883h1.077l.538-5.97.54-1.705 1.076-6.457.539 2.193h1.077l1.077 17.99.539 12.426 1.077 10.477h1.077l.539 6.782.539 3.533.538-2.112.539 1.747.538 2.761h1.078l.538 2.762.539 10.193.539-2.315.538 3.695.539-12.507h1.077l.539 6.863.538-4.02.539 8.608.538 5.28.539 18.842h1.077l1.077 11.452 1.078.528.538 7.026h1.077l.54-18.965.538-2.437.538 9.26 1.078-46.66h1.077l.538 18.03.539 3.858.539-6.254 1.077 48.081.538-6.375h.539l.539 4.223.538-.893.539 1.137.538-2.437.54-6.05.538 6.375h.538l.539-4.548.539 1.137.538-.203.539.65.538 2.03h1.078l.538 3.086.539 4.061.538-5.32.539-.243.539.162h1.077l.538-1.056.54-4.75.538 7.065.538-.203.539-1.665h1.077l.539 2.843.538.446.539-3.208.539-.934.538 2.843h1.077l.539-1.056.539-4.02.538 2.396.539 3.533.538.325h1.078l.538.406.539 5.482 1.616 4.914 1.616.081.538-.812.539.487 2.154.081.539 1.747.538 2.436.539-.487.539 1.34.538-5.239 1.077-.04.54.325.538-1.747.538 1.747.539-5.402.539 4.468 1.077.04.538.975.539.446.539-.527.538 4.629.539.731h1.077l.539-.853.538 1.3.539.284.538.04.54.204h1.076l.539 1.096.538-.406.54-.69.538.406.538-.61h1.078l.538-.527.539.893.538 1.178.539-.812.539.893h1.077l1.616.73.538-.527.539-.244h1.077l.539-.243.538-.65.539-.325.539.528.538-.61h1.077l1.078-2.03.538-2.233 1.077-1.421h1.078l.538-4.468.539-3.045.538.081.54-1.665.538-1.259h1.077l.539 1.543.538 1.137.539-.893h.538l.539.487h1.077l.539-.243 1.616-5.158.538-2.802h1.077l.54-3.086.538-1.868.538-.772.539-2.03.538-.285h1.078l.538 2.234.539-.162.539 1.258.538.122.539-.65h1.077l.539.528 1.077 4.346 1.077 7.31h1.077l.539 1.218.538-.69.54-.366.538-1.219.538 1.138h1.078l.538-.61.539 2.965.538-.487 1.616.04h.539l.538 1.99.539.893.539 2.559.538 3.33.539-.163h1.077l.539.203.538-1.38.539-.731.539-.203.538-1.178h1.077l.539.61.539 3.816.538.61.539-1.016.538.813h1.078l.538-.285.539-.853.538.447 1.078 2.234 1.615.08.54-1.258.538-.812 1.077-1.178h1.077l.539 2.193.538-.122.539.488 1.077 1.502h1.077l.539-2.193.539 2.234.538-.812.539-.61 1.616.041.538.447.539-1.178.539 1.178.538.04.539.813h1.077l.539.852.538-.203.539-.325.538.082.539-.731h1.077l.539-1.26.538-.405.54.406 1.076-1.137h1.077l.54 2.152.538-1.38.538 1.136.539-1.705.539-.894 1.077-.04.538-4.183.539.812.539-3.127.538 1.462.539.731 1.077.04.539.732.538-1.462.539 1.096.538-1.38.54 1.664h1.076l.539-1.42.539-.813.538-1.137.539.325h1.616l.538-1.95.539-.08.538-2.843.539 3.005.539-3.94h1.077l.538-1.38.54-5.32.538.934.538-4.548.539-1.706h1.077l1.077-2.802.539-1.421.539-2.03.538-.122h1.077l.539-.772.539-3.98.538-2.233.539-.569.538-2.315h1.078l.538-.243.539-1.056 1.077-.65.539 8.081h1.077l.539-11.005.538 1.909.539-2.355.538-8.528.539-15.797h1.077l.539-2.884.538 2.071.539-6.578.539 1.34.538 4.101h1.077l2.155 22.376.539 1.624h1.077l.538 18.843.539-12.183.539 5.97.538.975.539 3.005h1.077l.539-6.538.538 7.634.539.853 1.077 9.462h1.077l.539 6.538.538.163.54 5.4.538 3.452.538-9.3h1.616l.539-2.801h1.077l.539-2.112h1.615l.539 21.28h1.077l.539.65h1.616l.538-15.432h1.078l.538-1.381h1.616l.539 8.365h1.077l.538 14.498h2.155l.538-25.056h.54l.538-7.594h1.616l.538-12.954.539 25.056h.538l.539-1.706h1.616l.538 4.345h1.078l.538 1.137h1.077l.54-10.314.538 8.609h1.077l.538-4.873h1.078l.538 10.314.539-8.04h1.077l.539 13.035.538-12.589h1.078l.538 8.244h.539l.538-6.416.539-9.584.539 12.589h1.077l.538-.203.54-6.173.538 6.417.538-2.762h1.616l.539-4.751.538 6.172h.539l.539 4.467h1.615l.539-.568h1.077l.539-1.99h1.616l.538.366h1.078l.538 1.949h1.616l.539.609h1.077l.538-.406h1.616l.539-1.665h1.077l.539-10.802h1.615l.54-3.899h1.076l.539 3.94h1.616l.538-2.031h1.078l.538-6.944h1.616l.539 3.533h1.077l.538 8.934h1.616l.539 8.65h1.077l.539-2.275h1.616l.538-10.193h1.077l.539 2.153h1.616l.538.243h1.078l.538 4.305h1.616l.539 4.914h1.077l.539.568h1.615l.539-1.137h1.077l.539.163h1.616l.538.771.539.325h.538l.54-.122h1.615l.539-.893.538-.325h.539l.538-9.706h1.616l.539 1.178h1.077l.539 11.452h1.615l.54 1.827h1.076l.539 2.802h1.616l.538-.324h1.078l.538-4.508h1.616l.539 3.37h1.077l.538 1.34h3.232l.539-1.949h1.077l.539.163 3.231.04.539-.162h1.616l.538 2.396h3.232l.539-.894.538 2.64h2.693l.539-4.101.538-2.64h2.693l.54.975h2.154" clip-path="url(#p9bb96d061a)" style="fill:none;stroke:#907eba;stroke-width:1.5;stroke-linecap:square"/><path id="line2d_23" d="m40.922 284.4 24.238-.04 1.077-.122 2.155-.041 3.231-.487 1.077.121.54.204.538-.569 2.154.284.539-.853.538-.365.539.447.539-.244 1.615-.284.539.69 1.077.447 2.693.081.539.04.539-.243.538.244.539-.122h1.077l.539-.081 1.077.162.538-.081.539.122.539-.041 1.077.325.538-.122.54.122 3.23.081 1.617.081 1.615-.162 2.155-.122.538.081.539-.04.539.122 3.231.08 1.616.123.539-.122 1.616.081 1.077-.081h.538l.539.162h1.077l4.31-.081 1.615-.081 4.309.243 1.077-.04 1.616.04 8.618-.04 1.615-.244 1.078.04h1.077l2.154.082 6.464-.04.538-.204 2.155-.243 1.077-.082.539.203h1.077l1.077.082 1.077.162.539-.447.538-.08 1.078.04 1.615-.406 1.078.406 1.077-.081.539-.041.538.162 2.155-.121 1.077.04 6.463-.974 1.077.243 1.078.203.538.285 1.077-.082.539-.04.539-.163.538.081.539-.04.538-.163 1.078.244.538-.365.539.04 1.077-.243 1.616-.772.539.162 1.077-.243.538.04 1.078-.162.538.203.539-.04.538.162 1.078-.325 1.615.284 1.078.04.538-.04.539-.325.539-.69.538-.325 3.232-6.579.538-1.015.539-.162.539-1.462 1.615-2.315.54-.365.538-1.381.538-2.843 3.232-7.756.539-.528.538.203.539-.04.538-.407 1.078-.122.538.122.539.934 1.077-.284.539.365.538-.243.539.771.538-.162.54 1.218.538.65.538 1.096.539.163.539.406.538.122.539.243.538.406.539.61.539-.934.538.609 1.077 1.868.539 1.868.539.487 1.077 1.462.538 1.015 1.078.366 1.077.528.539.69.538.487.539.731.538.406.539.122.539-.243.538.325h.539l1.077 1.137.539.934 1.615 1.665.54.324.538.813 1.077-.203 1.077.568.539-.162.538.162.539-.244.539.366.538-.203 2.155 1.178.538-.325.539-.04.538.202.539-.284.539.122.538-.569.539-.162.538.325.54.08.538.407.538.122.539-.081.539.121 1.077-.121.538-.366.539.162 1.077-.487.539.122.538-.081.539.081.539.284 1.077-1.096.538-.04.54-.244.538-.447.538-.244.539-.04.539-.488.538.163.539-.122.538-.487.539-.69.539-.366.538-.934.539-.122 1.616-1.787h.538l.539-.284 1.077-1.056.539.244.538-.61.539-.324.538.487.54-.934.538.325.538-.447.539-.284.539.446 1.077-1.015.538.163.539-.853.539-.366 1.077-1.38.538.08.539-.974 1.077-.609.539.04 1.616-.69.538 1.056.539-.122.539-.568.538-.244.539-1.259.538-.528.539.325.539-.528.538-.08.539.243.538-.203.539 1.177.539.61.538-.772.539.325.538-.081.54-.203.538.934.538.08.539.407.539.568.538 2.315.539-2.193.538.447.539-1.34.539-.406 1.077.284.538-2.071.539 3.005 1.616 3.37.538.285.539 1.015.539.04.538.163.539-.447.538.69 1.078.041.538.244.539.487.539.244.538.528.539.365 1.077 1.26 1.616 1.015 1.077 1.786h.539l.538.244.539-.244.538.244.54.69.538-.121.538.325.539.609.539.934.538.446.539.285.538.121.539.325.539.082.538.324.539-.365 2.154.69 1.616-.162.539.325.538-.163.539-.04 1.077.243.539.569.538.365.539.122 1.077.975 1.077.162.539-.243h.539l.538.284.539.04.538-.162.539.284 1.616.163 1.077-.406.539.08.538-.202.539.162.539.04.538.285.539-.04 1.616.243.538-.487 1.077-.406.539-.366 1.077-.203.539-.243.538-.041.54-.162.538-.366.538.284.539-.284.539-.568 1.615-.731.539-.082.539-.568h.538l1.077.528.539-.203h.539l.538-.244.539.04.538-.65 1.616-2.842.539-.406.538.325.54-.61.538-.162.538.731.539.366.539-.366.538-.162.539-.569.538.325.539-.243.539-1.097.538-.122.539.366.538-.487 1.078-.61.538.61 1.077-.569h.54l1.076.203h.539l.539-.203.538.61.539.08 1.077 1.137.539.285.538.934.539.365.538-.365.539.771.539-.69.538-.081.539.04.538-.528.54-.284.538.487.538-.446.539.934 1.077.325.539-.285.538.041.539-.244.539.082.538-.407.539-.73.538-.041 1.078.325.538-.04.539.162.538-.285.539.569.539-.325.538-.487.539-.122.538-.447.54.163.538-1.016.538.122.539-.771.539.203.538-.569.539.081.538-1.421.539.162.539-.446.538.243.539-.203.538-.325.539-.568.539.284.538-.812.539-1.015.538-.285 1.078-2.233.538-.244.539-1.3.539-.405.538.162.539-1.502.538.04.539.163.539-1.625 1.077-.528.538-.73.539.284.539-.528.538-.894 1.077.244.54.73.538-.405.538-.65.539-.284.538.771.54-.528 1.076-.73.539.406.539-.041.538.69.539-.487.538.975.539-1.26.539.326.538-.69.539.73.538.366.539-.04.539.486.538 2.072.539.284.538 1.056.54-.366.538.203.538.528 1.078 1.462.538-.325h.539l.538.488.539-.041.539.73.538-.527.539-.081.538.69 1.078.244 1.615-.65 1.078-1.34.538-1.015.539.04.539-.568.538-1.219.539-.73.538-1.219.539-.406.539.569.538-1.34.539.243.538.406.539-.406.539.244 1.077-2.518.538-.081.539-.284.539-.447.538-.61.539-.162.538.203.54.04.538.732.538.325.539.081.539.487.538-.162.539 1.015.538.61.539-.326.539.082.538.812 1.077 2.64 1.078.284.538.568.539-.284.538.325.54-.325.538.528 1.077 2.436 1.077 1.99.539.04 1.077 1.179.539-.203.538.04.539.366h.538l.539.609.539.934 1.077-.325 1.077.528.539.447.538.08.539-.852.538.244.54.771 1.076-.406.539-.244.539.203 1.077 1.3.538-.406 1.078 1.624 1.615-1.34.539-.69.539-.325.538-.569.539-1.055.538.162.54-.366.538.447.538-.771.539-.569.539-.812.538.162.539.04.538.285.539-.528.539.04.538.245.539.568.538-1.015 1.078.203.538.447.539.812.538.243.54.772.538 2.071.538.853.539 2.071.539-.081.538.243.539.731 1.077-.73.539-.447.538-.894.539 1.462.538-.04.539.446.539.813.538.284.539.771.538-.04.54.203.538.69 1.615.934.54.203.538.488.538-.163.539.163.539.284.538-.122.539.569.538-.244h.539l1.077.69.539.081.538.407.539.04.539.325.538-.325 1.077-.284.54.244.538.04 1.077-.162.539.284.538.447.539-.285.538-.121.539.08.539-.162h.538l.539.163 1.077 1.015.539-.04.538.08 1.077.57h.54l.538-.488.538-.122.539.284.539-.365 1.077.04.538-.324h1.078l.538-.122.539.122.538-.204.539-.73 2.154-1.584.539-.61.539-.162 1.077-.081 1.077 1.909.539.893.538 1.178 1.078 1.949.538 1.137h.539l.538-9.38h3.232l.539 9.38.538-11.858h2.693l.539-15.35.539 11.858h2.693l.538 1.34h3.232l.538 1.584 7.002-.041.539 3.655h3.232l.538.487h3.232l.539 2.762h3.231l.539.852h3.231l.54.61h3.23l.54.487h3.231l.539-.975h7.002l.538-1.421h3.232l.538-1.137h3.232l.539 1.543 7.002.081.538-.73h3.232l.538.933h0" clip-path="url(#p9bb96d061a)" style="fill:none;stroke:#6b7186;stroke-width:1.5;stroke-linecap:square"/><g id="text_14" style="fill:#d8b009" transform="matrix(.14 0 0 -.14 615.663 241.916)"><defs><path id="DejaVuSans-47" d="M3809 666v1253H2778v519h1656V434q-365-259-806-392-440-133-940-133-1094 0-1712 639-617 640-617 1780 0 1144 617 1783 618 639 1712 639 456 0 867-113 411-112 758-331v-672q-350 297-744 447t-828 150q-857 0-1287-478-429-478-429-1425 0-944 429-1422 430-478 1287-478 334 0 596 58 263 58 472 180z" transform="scale(.01563)"/><path id="DejaVuSans-65" d="M3597 1894v-281H953q38-594 358-905t892-311q331 0 642 81t618 244V178Q3153 47 2828-22t-659-69q-838 0-1327 487-489 488-489 1320 0 859 464 1363 464 505 1252 505 706 0 1117-455 411-454 411-1235zm-575 169q-6 471-264 752-258 282-683 282-481 0-770-272t-333-766l2050 4z" transform="scale(.01563)"/><path id="DejaVuSans-72" d="M2631 2963q-97 56-211 82-114 27-251 27-488 0-749-317t-261-911V0H581v3500h578v-544q182 319 472 473 291 155 707 155 59 0 131-8 72-7 159-23l3-590z" transform="scale(.01563)"/><path id="DejaVuSans-6d" d="M3328 2828q216 388 516 572t706 184q547 0 844-383 297-382 297-1088V0h-578v2094q0 503-179 746-178 244-543 244-447 0-707-297-259-296-259-809V0h-578v2094q0 506-178 748t-550 242q-441 0-701-298-259-298-259-808V0H581v3500h578v-544q197 322 472 475t653 153q382 0 649-194 267-193 395-562z" transform="scale(.01563)"/><path id="DejaVuSans-61" d="M2194 1759q-697 0-966-159t-269-544q0-306 202-486 202-179 548-179 479 0 768 339t289 901v128h-572zm1147 238V0h-575v531q-197-318-491-470T1556-91q-537 0-855 302-317 302-317 808 0 590 395 890 396 300 1180 300h807v57q0 397-261 614t-733 217q-300 0-585-72-284-72-546-216v532q315 122 612 182 297 61 578 61 760 0 1135-394 375-393 375-1193z" transform="scale(.01563)"/><path id="DejaVuSans-6e" d="M3513 2113V0h-575v2094q0 497-194 743-194 247-581 247-466 0-735-297-269-296-269-809V0H581v3500h578v-544q207 316 486 472 280 156 646 156 603 0 912-373 310-373 310-1098z" transform="scale(.01563)"/><path id="DejaVuSans-79" d="M2059-325q-243-625-475-815-231-191-618-191H506v481h338q237 0 368 113 132 112 291 531l103 262L191 3500h609L1894 763l1094 2737h609L2059-325z" transform="scale(.01563)"/></defs><use xlink:href="#DejaVuSans-47"/><use xlink:href="#DejaVuSans-65" x="77.49"/><use xlink:href="#DejaVuSans-72" x="139.014"/><use xlink:href="#DejaVuSans-6d" x="178.377"/><use xlink:href="#DejaVuSans-61" x="275.789"/><use xlink:href="#DejaVuSans-6e" x="337.068"/><use xlink:href="#DejaVuSans-79" x="400.447"/></g><g id="text_15" style="fill:#1007e1" transform="matrix(.14 0 0 -.14 615.663 255.916)"><defs><path id="DejaVuSans-49" d="M628 4666h631V0H628v4666z" transform="scale(.01563)"/><path id="DejaVuSans-74" d="M1172 4494v-994h1184v-447H1172V1153q0-428 117-550t477-122h590V0h-590q-666 0-919 248-253 249-253 905v1900H172v447h422v994h578z" transform="scale(.01563)"/><path id="DejaVuSans-6c" d="M603 4863h575V0H603v4863z" transform="scale(.01563)"/></defs><use xlink:href="#DejaVuSans-49"/><use xlink:href="#DejaVuSans-74" x="29.492"/><use xlink:href="#DejaVuSans-61" x="68.701"/><use xlink:href="#DejaVuSans-6c" x="129.98"/><use xlink:href="#DejaVuSans-79" x="157.764"/></g><g id="text_16" style="fill:#0309a6" transform="matrix(.14 0 0 -.14 615.663 269.916)"><defs><path id="DejaVuSans-46" d="M628 4666h2681v-532H1259V2759h1850v-531H1259V0H628v4666z" transform="scale(.01563)"/><path id="DejaVuSans-63" d="M3122 3366v-538q-244 135-489 202t-495 67q-560 0-870-355-309-354-309-995t309-996q310-354 870-354 250 0 495 67t489 202V134Q2881 22 2623-34q-257-57-548-57-791 0-1257 497-465 497-465 1341 0 856 470 1346 471 491 1290 491 265 0 518-55 253-54 491-163z" transform="scale(.01563)"/></defs><use xlink:href="#DejaVuSans-46"/><use xlink:href="#DejaVuSans-72" x="50.27"/><use xlink:href="#DejaVuSans-61" x="91.383"/><use xlink:href="#DejaVuSans-6e" x="152.662"/><use xlink:href="#DejaVuSans-63" x="216.041"/><use xlink:href="#DejaVuSans-65" x="271.021"/></g><g id="text_17" style="fill:#907eba" transform="matrix(.14 0 0 -.14 615.663 283.916)"><defs><path id="DejaVuSans-53" d="M3425 4513v-616q-359 172-678 256-319 85-616 85-515 0-795-200t-280-569q0-310 186-468 186-157 705-254l381-78q706-135 1042-474t336-907q0-679-455-1029Q2797-91 1919-91q-331 0-705 75-373 75-773 222v650q384-215 753-325 369-109 725-109 540 0 834 212 294 213 294 607 0 343-211 537t-692 291l-385 75q-706 140-1022 440-315 300-315 835 0 619 436 975t1201 356q329 0 669-60 341-59 697-177z" transform="scale(.01563)"/><path id="DejaVuSans-70" d="M1159 525v-1856H581v4831h578v-531q182 312 458 463 277 152 661 152 638 0 1036-506 399-506 399-1331T3314 415Q2916-91 2278-91q-384 0-661 152-276 152-458 464zm1957 1222q0 634-261 995t-717 361q-457 0-718-361t-261-995q0-634 261-995t718-361q456 0 717 361t261 995z" transform="scale(.01563)"/><path id="DejaVuSans-69" d="M603 3500h575V0H603v3500zm0 1363h575v-729H603v729z" transform="scale(.01563)"/></defs><use xlink:href="#DejaVuSans-53"/><use xlink:href="#DejaVuSans-70" x="63.477"/><use xlink:href="#DejaVuSans-61" x="126.953"/><use xlink:href="#DejaVuSans-69" x="188.232"/><use xlink:href="#DejaVuSans-6e" x="216.016"/></g><g id="text_18" style="fill:#6b7186" transform="matrix(.14 0 0 -.14 615.663 297.916)"><use xlink:href="#DejaVuSans-47"/><use xlink:href="#DejaVuSans-72" x="77.49"/><use xlink:href="#DejaVuSans-65" x="116.354"/><use xlink:href="#DejaVuSans-65" x="177.877"/><use xlink:href="#DejaVuSans-63" x="239.4"/><use xlink:href="#DejaVuSans-65" x="294.381"/></g></g></g><defs><clipPath id="p9bb96d061a"><path d="M40.922 7.2h558v277.2h-558z"/></clipPath></defs></svg>