<svg xmlns:xlink="http://www.w3.org/1999/xlink" width="992.186" height="416.199" viewBox="0 0 744.14 312.149" xmlns="http://www.w3.org/2000/svg"><defs><style>*{stroke-linejoin:round;stroke-linecap:butt}</style></defs><g id="figure_1"><path d="M0 312.15h744.14V0H0v312.15z" style="fill:none" id="patch_1"/><g id="axes_1"><path d="M49.83 284.4h558V7.2h-558v277.2z" style="fill:none" id="patch_2"/><g id="matplotlib.axis_1"><g id="xtick_1"><g id="line2d_1"><defs><path id="me65289d3b2" d="M0 0v3.5" style="stroke:#b0b0b0;stroke-width:.4"/></defs><use xlink:href="#me65289d3b2" x="93.381" y="284.4" style="fill:#b0b0b0;stroke:#b0b0b0;stroke-width:.4"/></g><g style="fill:#b0b0b0" transform="matrix(.14 0 0 -.14 64.133 302.038)" id="text_1"><defs><path id="DejaVuSans-32" d="M1228 531h2203V0H469v531q359 372 979 998 621 627 780 809 303 340 423 576 121 236 121 464 0 372-261 606-261 235-680 235-297 0-627-103-329-103-704-313v638q381 153 712 231 332 78 607 78 725 0 1156-363 431-362 431-968 0-288-108-546-107-257-392-607-78-91-497-524-418-433-1181-1211z" transform="scale(.01563)"/><path id="DejaVuSans-30" d="M2034 4250q-487 0-733-480-245-479-245-1442 0-959 245-1439 246-480 733-480 491 0 736 480 246 480 246 1439 0 963-246 1442-245 480-736 480zm0 500q785 0 1199-621 414-620 414-1801 0-1178-414-1799Q2819-91 2034-91q-784 0-1198 620-414 621-414 1799 0 1181 414 1801 414 621 1198 621z" transform="scale(.01563)"/><path id="DejaVuSans-2d" d="M313 2009h1684v-512H313v512z" transform="scale(.01563)"/><path id="DejaVuSans-34" d="M2419 4116 825 1625h1594v2491zm-166 550h794V1625h666v-525h-666V0h-628v1100H313v609l1940 2957z" transform="scale(.01563)"/></defs><use xlink:href="#DejaVuSans-32"/><use xlink:href="#DejaVuSans-30" x="63.623"/><use xlink:href="#DejaVuSans-32" x="127.246"/><use xlink:href="#DejaVuSans-30" x="190.869"/><use xlink:href="#DejaVuSans-2d" x="254.492"/><use xlink:href="#DejaVuSans-30" x="290.576"/><use xlink:href="#DejaVuSans-34" x="354.199"/></g></g><g id="xtick_2"><use xlink:href="#me65289d3b2" x="155.306" y="284.4" style="fill:#b0b0b0;stroke:#b0b0b0;stroke-width:.4" id="line2d_2"/><g style="fill:#b0b0b0" transform="matrix(.14 0 0 -.14 126.058 302.038)" id="text_2"><defs><path id="DejaVuSans-37" d="M525 4666h3000v-269L1831 0h-659l1594 4134H525v532z" transform="scale(.01563)"/></defs><use xlink:href="#DejaVuSans-32"/><use xlink:href="#DejaVuSans-30" x="63.623"/><use xlink:href="#DejaVuSans-32" x="127.246"/><use xlink:href="#DejaVuSans-30" x="190.869"/><use xlink:href="#DejaVuSans-2d" x="254.492"/><use xlink:href="#DejaVuSans-30" x="290.576"/><use xlink:href="#DejaVuSans-37" x="354.199"/></g></g><g id="xtick_3"><use xlink:href="#me65289d3b2" x="217.91" y="284.4" style="fill:#b0b0b0;stroke:#b0b0b0;stroke-width:.4" id="line2d_3"/><g style="fill:#b0b0b0" transform="matrix(.14 0 0 -.14 188.663 302.038)" id="text_3"><defs><path id="DejaVuSans-31" d="M794 531h1031v3560L703 3866v575l1116 225h631V531h1031V0H794v531z" transform="scale(.01563)"/></defs><use xlink:href="#DejaVuSans-32"/><use xlink:href="#DejaVuSans-30" x="63.623"/><use xlink:href="#DejaVuSans-32" x="127.246"/><use xlink:href="#DejaVuSans-30" x="190.869"/><use xlink:href="#DejaVuSans-2d" x="254.492"/><use xlink:href="#DejaVuSans-31" x="290.576"/><use xlink:href="#DejaVuSans-30" x="354.199"/></g></g><g id="xtick_4"><use xlink:href="#me65289d3b2" x="280.515" y="284.4" style="fill:#b0b0b0;stroke:#b0b0b0;stroke-width:.4" id="line2d_4"/><g style="fill:#b0b0b0" transform="matrix(.14 0 0 -.14 251.267 302.038)" id="text_4"><use xlink:href="#DejaVuSans-32"/><use xlink:href="#DejaVuSans-30" x="63.623"/><use xlink:href="#DejaVuSans-32" x="127.246"/><use xlink:href="#DejaVuSans-31" x="190.869"/><use xlink:href="#DejaVuSans-2d" x="254.492"/><use xlink:href="#DejaVuSans-30" x="290.576"/><use xlink:href="#DejaVuSans-31" x="354.199"/></g></g><g id="xtick_5"><use xlink:href="#me65289d3b2" x="341.759" y="284.4" style="fill:#b0b0b0;stroke:#b0b0b0;stroke-width:.4" id="line2d_5"/><g style="fill:#b0b0b0" transform="matrix(.14 0 0 -.14 312.511 302.038)" id="text_5"><use xlink:href="#DejaVuSans-32"/><use xlink:href="#DejaVuSans-30" x="63.623"/><use xlink:href="#DejaVuSans-32" x="127.246"/><use xlink:href="#DejaVuSans-31" x="190.869"/><use xlink:href="#DejaVuSans-2d" x="254.492"/><use xlink:href="#DejaVuSans-30" x="290.576"/><use xlink:href="#DejaVuSans-34" x="354.199"/></g></g><g id="xtick_6"><use xlink:href="#me65289d3b2" x="403.684" y="284.4" style="fill:#b0b0b0;stroke:#b0b0b0;stroke-width:.4" id="line2d_6"/><g style="fill:#b0b0b0" transform="matrix(.14 0 0 -.14 374.436 302.038)" id="text_6"><use xlink:href="#DejaVuSans-32"/><use xlink:href="#DejaVuSans-30" x="63.623"/><use xlink:href="#DejaVuSans-32" x="127.246"/><use xlink:href="#DejaVuSans-31" x="190.869"/><use xlink:href="#DejaVuSans-2d" x="254.492"/><use xlink:href="#DejaVuSans-30" x="290.576"/><use xlink:href="#DejaVuSans-37" x="354.199"/></g></g><g id="xtick_7"><use xlink:href="#me65289d3b2" x="466.289" y="284.4" style="fill:#b0b0b0;stroke:#b0b0b0;stroke-width:.4" id="line2d_7"/><g style="fill:#b0b0b0" transform="matrix(.14 0 0 -.14 437.04 302.038)" id="text_7"><use xlink:href="#DejaVuSans-32"/><use xlink:href="#DejaVuSans-30" x="63.623"/><use xlink:href="#DejaVuSans-32" x="127.246"/><use xlink:href="#DejaVuSans-31" x="190.869"/><use xlink:href="#DejaVuSans-2d" x="254.492"/><use xlink:href="#DejaVuSans-31" x="290.576"/><use xlink:href="#DejaVuSans-30" x="354.199"/></g></g><g id="xtick_8"><use xlink:href="#me65289d3b2" x="528.893" y="284.4" style="fill:#b0b0b0;stroke:#b0b0b0;stroke-width:.4" id="line2d_8"/><g style="fill:#b0b0b0" transform="matrix(.14 0 0 -.14 499.645 302.038)" id="text_8"><use xlink:href="#DejaVuSans-32"/><use xlink:href="#DejaVuSans-30" x="63.623"/><use xlink:href="#DejaVuSans-32" x="127.246"/><use xlink:href="#DejaVuSans-32" x="190.869"/><use xlink:href="#DejaVuSans-2d" x="254.492"/><use xlink:href="#DejaVuSans-30" x="290.576"/><use xlink:href="#DejaVuSans-31" x="354.199"/></g></g><g id="xtick_9"><use xlink:href="#me65289d3b2" x="590.137" y="284.4" style="fill:#b0b0b0;stroke:#b0b0b0;stroke-width:.4" id="line2d_9"/><g style="fill:#b0b0b0" transform="matrix(.14 0 0 -.14 560.89 302.038)" id="text_9"><use xlink:href="#DejaVuSans-32"/><use xlink:href="#DejaVuSans-30" x="63.623"/><use xlink:href="#DejaVuSans-32" x="127.246"/><use xlink:href="#DejaVuSans-32" x="190.869"/><use xlink:href="#DejaVuSans-2d" x="254.492"/><use xlink:href="#DejaVuSans-30" x="290.576"/><use xlink:href="#DejaVuSans-34" x="354.199"/></g></g></g><g id="matplotlib.axis_2"><g id="ytick_1"><path d="M49.83 284.4h558" clip-path="url(#p151d73c652)" style="fill:none;stroke:#b0b0b0;stroke-width:.3;stroke-linecap:square" id="line2d_10"/><g id="line2d_11"><defs><path id="m46608d9a6b" d="M0 0h-3.5" style="stroke:#b0b0b0;stroke-width:.3"/></defs><use xlink:href="#m46608d9a6b" x="49.83" y="284.4" style="fill:#b0b0b0;stroke:#b0b0b0;stroke-width:.3"/></g><use xlink:href="#DejaVuSans-30" style="fill:#b0b0b0" transform="matrix(.14 0 0 -.14 33.922 289.719)" id="text_10"/></g><g id="ytick_2"><path d="M49.83 251.321h558" clip-path="url(#p151d73c652)" style="fill:none;stroke:#b0b0b0;stroke-width:.3;stroke-linecap:square" id="line2d_12"/><use xlink:href="#m46608d9a6b" x="49.83" y="251.321" style="fill:#b0b0b0;stroke:#b0b0b0;stroke-width:.3" id="line2d_13"/><g style="fill:#b0b0b0" transform="matrix(.14 0 0 -.14 16.108 256.64)" id="text_11"><defs><path id="DejaVuSans-35" d="M691 4666h2478v-532H1269V2991q137 47 274 70 138 23 276 23 781 0 1237-428 457-428 457-1159 0-753-469-1171Q2575-91 1722-91q-294 0-599 50Q819 9 494 109v635q281-153 581-228t634-75q541 0 856 284 316 284 316 772 0 487-316 771-315 285-856 285-253 0-505-56-251-56-513-175v2344z" transform="scale(.01563)"/></defs><use xlink:href="#DejaVuSans-35"/><use xlink:href="#DejaVuSans-30" x="63.623"/><use xlink:href="#DejaVuSans-30" x="127.246"/></g></g><g id="ytick_3"><path d="M49.83 218.242h558" clip-path="url(#p151d73c652)" style="fill:none;stroke:#b0b0b0;stroke-width:.3;stroke-linecap:square" id="line2d_14"/><use xlink:href="#m46608d9a6b" x="49.83" y="218.242" style="fill:#b0b0b0;stroke:#b0b0b0;stroke-width:.3" id="line2d_15"/><g style="fill:#b0b0b0" transform="matrix(.14 0 0 -.14 7.2 223.561)" id="text_12"><use xlink:href="#DejaVuSans-31"/><use xlink:href="#DejaVuSans-30" x="63.623"/><use xlink:href="#DejaVuSans-30" x="127.246"/><use xlink:href="#DejaVuSans-30" x="190.869"/></g></g><g id="ytick_4"><path d="M49.83 185.164h558" clip-path="url(#p151d73c652)" style="fill:none;stroke:#b0b0b0;stroke-width:.3;stroke-linecap:square" id="line2d_16"/><use xlink:href="#m46608d9a6b" x="49.83" y="185.164" style="fill:#b0b0b0;stroke:#b0b0b0;stroke-width:.3" id="line2d_17"/><g style="fill:#b0b0b0" transform="matrix(.14 0 0 -.14 7.2 190.483)" id="text_13"><use xlink:href="#DejaVuSans-31"/><use xlink:href="#DejaVuSans-35" x="63.623"/><use xlink:href="#DejaVuSans-30" x="127.246"/><use xlink:href="#DejaVuSans-30" x="190.869"/></g></g><g id="ytick_5"><path d="M49.83 152.085h558" clip-path="url(#p151d73c652)" style="fill:none;stroke:#b0b0b0;stroke-width:.3;stroke-linecap:square" id="line2d_18"/><use xlink:href="#m46608d9a6b" x="49.83" y="152.085" style="fill:#b0b0b0;stroke:#b0b0b0;stroke-width:.3" id="line2d_19"/><g style="fill:#b0b0b0" transform="matrix(.14 0 0 -.14 7.2 157.404)" id="text_14"><use xlink:href="#DejaVuSans-32"/><use xlink:href="#DejaVuSans-30" x="63.623"/><use xlink:href="#DejaVuSans-30" x="127.246"/><use xlink:href="#DejaVuSans-30" x="190.869"/></g></g><g id="ytick_6"><path d="M49.83 119.006h558" clip-path="url(#p151d73c652)" style="fill:none;stroke:#b0b0b0;stroke-width:.3;stroke-linecap:square" id="line2d_20"/><use xlink:href="#m46608d9a6b" x="49.83" y="119.006" style="fill:#b0b0b0;stroke:#b0b0b0;stroke-width:.3" id="line2d_21"/><g style="fill:#b0b0b0" transform="matrix(.14 0 0 -.14 7.2 124.325)" id="text_15"><use xlink:href="#DejaVuSans-32"/><use xlink:href="#DejaVuSans-35" x="63.623"/><use xlink:href="#DejaVuSans-30" x="127.246"/><use xlink:href="#DejaVuSans-30" x="190.869"/></g></g><g id="ytick_7"><path d="M49.83 85.927h558" clip-path="url(#p151d73c652)" style="fill:none;stroke:#b0b0b0;stroke-width:.3;stroke-linecap:square" id="line2d_22"/><use xlink:href="#m46608d9a6b" x="49.83" y="85.927" style="fill:#b0b0b0;stroke:#b0b0b0;stroke-width:.3" id="line2d_23"/><g style="fill:#b0b0b0" transform="matrix(.14 0 0 -.14 7.2 91.246)" id="text_16"><defs><path id="DejaVuSans-33" d="M2597 2516q453-97 707-404 255-306 255-756 0-690-475-1069Q2609-91 1734-91q-293 0-604 58T488 141v609q262-153 574-231 313-78 654-78 593 0 904 234t311 681q0 413-289 645-289 233-804 233h-544v519h569q465 0 712 186t247 536q0 359-255 551-254 193-729 193-260 0-557-57-297-56-653-174v562q360 100 674 150t592 50q719 0 1137-327 419-326 419-882 0-388-222-655t-631-370z" transform="scale(.01563)"/></defs><use xlink:href="#DejaVuSans-33"/><use xlink:href="#DejaVuSans-30" x="63.623"/><use xlink:href="#DejaVuSans-30" x="127.246"/><use xlink:href="#DejaVuSans-30" x="190.869"/></g></g><g id="ytick_8"><path d="M49.83 52.849h558" clip-path="url(#p151d73c652)" style="fill:none;stroke:#b0b0b0;stroke-width:.3;stroke-linecap:square" id="line2d_24"/><use xlink:href="#m46608d9a6b" x="49.83" y="52.849" style="fill:#b0b0b0;stroke:#b0b0b0;stroke-width:.3" id="line2d_25"/><g style="fill:#b0b0b0" transform="matrix(.14 0 0 -.14 7.2 58.168)" id="text_17"><use xlink:href="#DejaVuSans-33"/><use xlink:href="#DejaVuSans-35" x="63.623"/><use xlink:href="#DejaVuSans-30" x="127.246"/><use xlink:href="#DejaVuSans-30" x="190.869"/></g></g><g id="ytick_9"><path d="M49.83 19.77h558" clip-path="url(#p151d73c652)" style="fill:none;stroke:#b0b0b0;stroke-width:.3;stroke-linecap:square" id="line2d_26"/><use xlink:href="#m46608d9a6b" x="49.83" y="19.77" style="fill:#b0b0b0;stroke:#b0b0b0;stroke-width:.3" id="line2d_27"/><g style="fill:#b0b0b0" transform="matrix(.14 0 0 -.14 7.2 25.089)" id="text_18"><use xlink:href="#DejaVuSans-34"/><use xlink:href="#DejaVuSans-30" x="63.623"/><use xlink:href="#DejaVuSans-30" x="127.246"/><use xlink:href="#DejaVuSans-30" x="190.869"/></g></g></g><path d="m49.83 284.4 24.498-.104 4.763-.104 3.402-.5.68-.294 1.362-1.106 2.041-2.93.68-1.512.681-1.947.68-2.58.681-3.26.68-3.932.681-5.765.68-4.036.681-4.914 1.361-16.814.68-10.301 1.362-16.899 1.36-19.81.681-14.148.68-8.26 2.042-18.959 1.361-4.858.68.955.681-4.234.68.293.681.86.68 1.796.681-.86.68-2.477.681-.075.68 1.247.681-2.183.68-.7.68 2.004.681 5.435.68 7.23.681 2.287.68.709 1.362 4.555.68-.066.68 1.91.681 1.152.68.19.681.68.68 2.608.681 1.295.68 2.609.681 1.909.68 3.062 1.362 11.502.68 1.276.68 1.01.681 2.524.68 1.607.681-1.748.68 1.36.681 2.203.68 5.585.681 4.357.68 1.172.681 1.796.68 5.878.681 7.457.68.218 2.042 2.939.68.189.681-1.673.68-3.062.681 4.433.68.784.68 2.259.681 2.967.68 1.55.681 2.486.68.624.681 1.266.68 1.786.681.501.68-.784 2.042 3.28 1.361 2.315.68 1.805.681 1.475 2.042.954.68-.076.68 1.437.681.076.68.642.681-.037.68.085.681 1.7.68.54.681-1.806.68-.482.681 1.834 1.361-.038.68-5.5.681-1.352.68-2.76.681-1.313.68-4.272.681-1.418.68-.605.681 2.316.68-1.172.68.661.681-.935.68-1.21.681-.028.68-.889.681-1.89.68-2.457.681-1.182.68-1.691.681-.823.68-.548.681-5.396.68-1.191 1.362-3.95.68-.842.68-1.418.681.728.68 5.113.681-.312.68.303.681 1.02.68-1.02.681.302.68-1.087.681.397.68 1.493.681-1.01.68 1.35.681-.17.68.398.681-.34.68.453.681-1.21.68 7.807.681-.586.68 2.05.681.747.68 1.068.681.435.68-.01.68-4.422.681.009.68 1.55.681-.095.68.52.681-.586.68 1.55 1.362 1.701.68-.33.68 1.616.681.056.68 1.588.681 5.643.68-.407.681 1.05.68-1.75.681.662.68.407.681-.964.68-6.928.681 1.56.68.482.681 1.814.68.378.681 1.248.68.123.681 1.625.68-1.04.681-.377.68.444.681-.728.68-.406.681.68 1.361 2.561.68-.019.681.7.68.954.681-.633.68-1.285.68 1.88.681.02.68-.757.681-1.247.68.17.681-.832.68.756 1.362-1.512.68 1.408.68.388.681-1.475.68-.009.681-.841 1.361-3.11 1.361-.274.68-1.427.681.123.68-.33.681-.7.68 1.39.681-1.418.68-1.04.681.35 1.361-.794.68-5.557.681-.927 2.042-4.782.68-.605.68-1.928.681 1.768.68-2.968.681-.34.68.104 1.361-4.414.68-.53.681-2.778.68-4.688 1.362-14.876 2.041-7.674.68-4.064.681-3.005.68 5.916.681 3.696.68 2.721.681.152.68-2.306.681-3.923.68-5.425.681-14.592 1.361-19.819.68-3.346.681-2.353.68-.246.681-3.336.68-.283.681-7.193.68-1.342.681-2.504.68-.822.681-3.715 1.361-9.706.68 4.149.681-2.646.68-.454.681-1.39.68-3.08.681 3.326.68 5.019.681 13.42.68 8.469.68 2.56.681-.698.68-3.015.681-5.047.68-3.752 1.362-12.892.68.076.68-1.011.681.16.68-.056.681-6.635.68-18.297 1.362-12.854.68 1.314.68-7.315.681-.964.68 2.24.681 3.497.68-3.081.681.954.68 2.58.681 18.704.68-3.96.681-3.232 1.361.557.68 1.37.681-1.908.68-14.952 1.362 5.765.68 1.881.68 6.276.681-.955.68-.047.681 4.234.68 2.136.681-.7.68-.898.68 1.305.681 4.517.68 3.09 1.362 9.263 1.36 14.8.681 4.376.68 2.74.681 4.755.68 13.26.681 9.186.68 5.52 1.362 6.426.68-.264.68-2.43.681-6.01.68-7.646.681 1.522 1.361 7.419.68 1.124.681-1.058.68 3.317.681 6.606 1.361 8.714.68.038.681 3.724.68 5.793.681 1.333.68 9.375.681 3.516.68 2.826.681 5.047.68 1.701.681.01.68 4.924.681 3.317.68-.756.68 3.686.681 1.937.68-1.956.681 1.37.68 2.94.681-2.543.68 2.703.681-1.228.68-.397.681 2.608.68-.728.681.473.68 3.62 1.362 4.858.68.51.68 1.238.681 1.578.68.634.681-14.413.68.7.681-.209.68-.057 1.362.35.68-.491.68 15.755.681 1.124 1.361.898 1.361-.973 1.361.709.68-.293.681 1.068.68-.492.681.444.68.133.681 1.616.68-1.04.68.51.681-.491.68.104.681-.208.68-.01.681-2.24.68 1.75.681.585.68-.123.681 1.04.68.614.681.804.68 2.05.681.18.68.312.681 1.796.68.992 1.362-.132.68-.832 1.361 2.145.68.038.681.416.68.671.681-.369.68 1.295.681-3.005.68-6.332.681.869.68 1.361.681.444.68 2.457.681.133.68 4.064.681 6.814.68.094.681-2.277.68-.133.681-1.36.68 2.948.68.728.681 2.098.68-.113.681 2.91.68.52.681 1.248.68-.095 1.362 1.777.68-.69.68.889.681.312.68-.7 2.042-.425.68.794.681.264.68-.009.681 1.059.68.15.681.899.68.557.681.841.68.577.681.33 1.361.464.68-.18.681.369.68-.293.681.066.68-.766.681-.982.68-.549.681-.056.68-1.002 1.361.189 1.361.7.68.66.681-.311.68.576.681-.973.68-.463.681-.104.68-.643.681-1.465.68-.132.681-.274.68-3.072.681-.397.68-1.19.681-.823.68-1.257.681-1.56.68-1.842.681-2.382.68-.822.681.945.68-1.663 1.362-4.783.68-4.82.68.804.681-.104.68-.756.681-4.764.68-1.795.681-3.885.68-7.126.681-3.894.68-2.816.681-.01.68-2.882 2.042-10.84.68-2.58.681-.804.68-.992.68-3.573.681-.085.68-4.669.681-7.523.68-1.862h.681l.68-.907.681 10.245.68-6.153 1.362-4.536.68-5.123.68-1.635.681.34.68-14.516.681 1.71.68-4.224.681-2.325.68.264.681-1.493.68-.18.681-1.36.68-5.198.681.5.68 1.617.681-.275.68 1.352.681-1.692.68.369.681-.586.68.67.681 4.594.68 3.081.681.123.68.302.681 3.242.68 5.954.681-.321 1.361 6.502.68 3.752.68.558.681 7.003.68-4.007.681-5.283.68 2.816.681.01.68-1.125.681.142.68-5.605.681 1.579.68.34.681 1.673.68-.586.681.047.68 1.966.681 2.835.68 5.208.681 10.557 2.042 4.271.68.199.68 1.824.681 2.92.68.908.681 6.058.68-3.856.681-.86 1.361.52.68-1.494.681 2.647.68 3.118.681-3.109.68-.917.681.048.68-.454.681.898.68.312.681-4.527.68 6.332.68 1.03.681-.208.68.444.681-.397.68-.605.681 8.317.68 13.402.681 1.314.68-.284.681-6.38.68-2.494.681-3.261.68-32.446.681-11.407.68-3.393.681-1.333.68 4.906.681.699.68 2.259.681 22.04.68-2.09.681.672.68.33 1.362.218.68-4.13.68 2.637 1.362-.898.68.52.68-1.616.681-3.8.68-18.287.681-.88.68 10.926.681 3.913.68-.492.681-2.022.68-3.431.681 17.324.68-1.04.68-.151.681-1.512.68-.274.681-.454.68.038.681 1.635.68-5.302.681-15.972.68-4.008.681-1.994 1.361-3.11.68-5.916.681-4.366.68-3.185 1.362-2.911.68 9.366.68-2.032.681-5.945.68-3.553.681-5.87.68.057.681.331.68-10.793.681-4.603.68-3.761.681 2.986.68-6.984.681-1.843.68 2.259.681-4.32.68-1.54.681 2.476.68 1.182.681-.095.68 2.694.681.104.68-4.187.681 3.336.68 1.361.68-7.665.681 13.392.68.634.681-1.05.68-1.294.681 3.94.68 2.27.681 3.25.68 1.928 1.362 2.684.68 21.625.68 3.695.681.86.68-.388.681 3.904.68-.737.681 2.013.68-11.758.681 3.743.68 9.498.681 11.862.68 3.194.681 4.168.68.142 1.362 7.683.68.69.68-.595.681.898.68.33.681.161.68 3.705.681 3.034.68 1.824.681 2.514.68 7.92.681-.16.68 1.001.681-1.956.68 4.933.68 1.805.681 6.077.68 1.749.681 1.21.68.255.681 4.423.68-3.97.681 4.357.68 3.242.681-1.985 1.361-.094 1.361 8.978.68.482.681-1.606.68 1.776.681.161.68.312.681 2.344.68-.974.681 1.664.68.624.681 1.71.68.87.681.15.68.729.681 1.72.68.67.681 2.316.68-.973 2.042-.52.68.955.681.727h0" clip-path="url(#p151d73c652)" style="fill:none;stroke:#7516fd;stroke-width:1.5;stroke-linecap:square" id="line2d_28"/><path d="m49.83 284.4 30.622-.085 3.402-.964 1.361-.709.68-.368.681-.199.68-.5.681-1.239 1.361-2.75 1.361-4.64.68-1.674 1.362-5.245 2.722-17.683.68-3.686.68-1.824.681-6.653.68-3.384 1.362-8.014.68-.832.68-.52.681-1.484.68.284.681 1.408.68.747.681 1.975.68-2.505.681 2.108.68 1.437.681-1.39.68.246.681 3.374.68-.983.68 2.77.681.66 1.361 4.774.68.822.681.454.68 3.014.681 2.174.68 1.04.681.463.68 2.306.681 1.153.68 1.673.681 1.125.68 2.948.681.35.68.813.681 1.049.68 1.89.681.983.68 2.164.681-1.285.68 1.418.681.396 1.361 2.212.68.756.681.558.68 1.805.681-2.949.68.397.681 3.488.68-.889.681-.652.68.17.681.624.68 3.015.681.17.68-1.115.681 1.587.68 2.004 1.361.255.68.057.681.369.68.51.681.85.68.52.681 1.2 1.361.596.68.17.681.709.68.51.681.085 1.361.785.68-.047 1.362.387.68.217.68-.302.681.066.68.293 1.362-.057.68.379.68-.095.681.548.68.265 2.723.283.68.378 4.083.577.68.293 2.722.198h.68l1.362.265.68.142 2.042-.085 1.36.104.681-.161 2.722.246 1.361.047.68.189.681-.17 2.042.17.68-.16 1.361-.01 2.722.01.68.141 1.362.038 1.36.198.681-.141 3.402-.114.68-.066 4.084.284 2.722-.02.68-.273 3.403.056 3.402-.387 1.361-.293 1.361-.114 2.042-.406 1.36-.066.681-.02 1.361-.651.68-.18.681-.302 2.041-.34 2.042-.199 1.36-.5 1.362-.596 2.041-1.843.68-.463.681-.652.68-.02.681-.283.68-.926 1.362-.992.68-.832.68-.227.681-.794.68-.208 1.362-2.315.68-.86.68-.473.681-1.436.68-.104 1.362-.605.68-1.72 1.361-1.692.68-.822.681.056.68-.557.681-1.276.68-.983.681-1.749.68-.198.681-.463 1.36-.293.681-.633 1.361 1.21.68-1.276.681 1.153.68-2.184.681.067.68-.086.681-1.568.68.037.681-.085.68-1.313.681 1.739 1.361.085.68.444.681.794.68.151.681.775.68-.151 1.362.17.68 1.087.68-.964.681.756.68-1.163.681.823.68-.416.681.879.68-.747.681-.151.68-.614.681-.142.68-1.749.681.17.68-1.748.681-1.266.68-.407.681-.775.68 3.053.68-.17.681-1.342.68 2.202.681-2.221.68-3.686.681-.407.68-2.22.681-1.021.68-.473.681-3.96.68-.605.681-1.9.68-6.757.681-5.585 1.361-2.221.68-3.469.681-4.952.68-.823.681.407.68-2.467.681-1.077.68-.69.681-3.478.68-2.43.681-.406.68-1.086.681-.492.68.662.681.075.68-.227.681.946.68.538 1.362 2.836.68.198 1.361 3.525.68 3.819.681 3.052.68 2.212.68 3.544.681 2.032.68.7.681 3.76.68 3.025 2.042 6.606 1.361 2.042 2.042 7.003.68 2.136.68 1.654 1.362.926.68 2.372.68 2.807.681 1.239 1.361 3.232 1.361 1.39.68 1.937.681-.426.68.775.681 1.04.68 1.247.681.586.68.369.681 1.058.68 2.807 1.362 1.144 1.36.633.681.01.68 1.143.681.463 1.36 1.531 2.042.851.68-.019 1.362.709 2.041.756.68-.047 1.362 1.058 1.36.293.681.454.68.104.681-.047.68.33 2.042-.113.68-.283 2.723.189 1.36.453 2.042.095.68-.095 1.362.274 1.36-.028 1.361-.019.681.151 1.36-.132 1.362.472 1.36.029 2.042.236 1.361.028.68.114 2.042-.019 2.042-.028 1.36-.02 1.362.2 3.402.141 2.042-.16 2.722-.02.68.142 5.444-.217.68.104 2.042-.085 6.124-.246 2.042-.18 1.36-.132 4.084.057 1.36-.095 4.084-.727.68.028 1.361-.284 1.361-.472 2.041-.265.68-.491 1.362-.378.68-.142.68-.388 1.362.048.68-.274.68-.51 1.362-.105.68.16.68-.349 1.362-.18 1.36.067 1.362-.548.68.189 1.361-.18.68.123 2.723-.151.68.094.68-.227.681-.028 1.361-.321.68-.085.681.094 1.361-.17 1.361-.633.68.132.681-.283 1.36-.18.681 1.163.68-.54.681-.349.68-.189.681.132 1.361-.037.68-1.503 1.362.246 1.36-.586.681.113.68-.151.681.217.68-.085.681.076.68-.322 1.362-.132.68.104.68-.16.681.311.68-.34.681.01.68.33.681-.019.68.095.681.255.68.076 1.362 1.04.68.047.68.198 1.361.104 2.042.255.68-.312 1.361.161.68-.17.681.113.68-.34.681-.18.68.086 1.362-.34 1.36-.776.681.397.68-.34.681.123.68-.142.681.047 2.042-1.115.68-.057.68-.293 1.362-.047.68-.274.68-.075.681-.501.68-.057 1.362.217.68-.132.68.274.681.01.68.189.681.453 1.361-.038.68.095.681.463.68.142.681-.01.68-.132 1.361.094.68.02 2.042 1.445.68-.009 1.362.274 1.36.142.681-.227 2.722.198 2.042-.18.68-.056.68.227 1.362-.028.68.056.68.284h1.362l2.041.208.68-.047.681-.208.68.217.681-.038.68-.255.681 1.096.68.416.681-.935.68 1.446.681.784.68-1.758.68-.614.681-1.37.68-.662.681.945.68-.293.681-2.694.68.974.681-.246.68-1.522 1.362-.548.68-3.11.68-.566.681-.983.68-.444.681.264.68.085.681-.16.68-.558.681.397.68.028 1.362-.207.68.103.68.35.681-.038.68.142.681-.085 1.361.104 1.361-.094.68-6.418.681-1.786 1.361.36.68.33 1.361.208.681 7.617.68 2.382.68 1.096.681.567.68.889 1.362.321 1.36 1.54 1.362.577.68.369.68-.208.681.047 1.361.614.68.568.681.368.68 1.21.681.7.68-1.003.681-.604.68.85.681-.643.68.114 2.042-.028.68.52.681-.454.68.472 2.042-.038.68.029.681-.114.68-.283.681.047.68-.123h1.361l2.722-1.134.68-.425h1.362l1.36-1.002.681-.16.68-.313.681-.18 2.042.077.68-.643.68-25.84.681-1.2.68-1.474h1.362l.68-1.304.68.794.681 21.633.68-.283.681 3.28h1.361l.68 3.288.681-1.843.68 1.361 1.362-5.86 1.36-.01.681-3.222.68.303.681 1.984h0" clip-path="url(#p151d73c652)" style="fill:none;stroke:#89f9c9;stroke-width:1.5;stroke-linecap:square" id="line2d_29"/><path d="m49.83 284.4 38.788-.085 2.041-.104 2.042-.047.68-.199 2.722-.245.68-.303 1.362-.151.68-.321 1.361-.454.68-.284.681.095.68-.199 1.362.199.68-.17 1.361.113.68-.057 1.361-.396.681.028 1.36-.293 2.042-.558 1.361-.661.68-.095.681-.52.68-.113.681-1.106.68-.548 1.362-.473 2.041-.812.68.879.681.056.68-.416.681.057 1.361-.094 2.042-1.106.68.038 1.361-.85.68-.228.681-.019 1.361-.406.68-.548.681-.255.68-1.2 2.042-1.72.68-.464.681-.652.68-.926.68-.16.681-.87.68-.36 1.362-1.153.68-.878 1.361-2.09.68-.131.681-.605.68-1.078.681-16.312.68.17.681.567 1.361.151.68-1.134.681.643.68 14.535 1.362-1.465.68-.085.68-.983.681.615.68-1.002.681-.397.68-.151.681.264.68-.548.681-1.918 1.361-.88.68.228.681-.501 1.361-1.635.68.595 1.361-1.54 1.361-2.051.68-2.013.681-1.437.68.066.681-1.701.68-.302.681-.643.68-4.952.681-.492.68-.813.681-1.502.68-.284.681-.491.68-1.276.681 3.468.68-.217.681-.34.68-1.427.681-.568.68-1.568.681-.68 2.042-3.829.68-.075.68-2.23.681-.643.68.217.681-.36.68-1.143.681-.595.68-.785.681.624.68-.047.681-2.429.68-.34.681.227.68.482.681.302.68.992.681.265.68 1.172.68-1.295 1.362-1.417.68-.34.68-1.277.681.274.68-.737.681.68.68-.368.681-.642.68-1.106.681-.426.68-2.967.681-.662 1.361-2.287.68-1.058.681-.464.68-1.134.681.747.68-1.654 1.362.709.68-.435.68-.18 1.362.067.68 1.937.68.029.681.311.68 1.494.681.085.68.86.681 2.618.68-.889.681-.491.68.435.681.189.68 1.739.681 1.285.68-1.02 1.361 3.808 1.361 2.59.68.208.681.822.68 1.682 1.362 5.17.68.652.68.841.681-1.087.68 2.24.681 1.125.68.123.681-.208 1.361 3.705.68 4.3 1.362 1.871 1.36 3.724.681 1.2 1.361 1.957.68-.152 1.362-.075.68-1.768.68-1.01.681-.247.68-.84.681.056.68.397.681.019.68 1.455.681 1.163.68.538.681 1.059.68.52.68-.01.681.36 2.042-1.097.68-.51.68-.719.681-.293.68-.066.681.577 1.361 1.616.68.047.681.643.68-.019.681-.189.68-.019.681-.454.68-.255.681.133.68.491 2.042 2.93.68 1.2.681.652.68.86.681.52.68.293.681.142.68.539.681.708.68.908.681.472.68.029 2.042 1.417.68.02.681.906 1.36 1.097 1.362.907.68.123.68.756.681.255 2.042 1.683.68.207.68.728.681.208.68 2.117.681-2.003.68.5.681.322.68.586.681.227.68.406.681-1.654.68 2.344.681.151 1.361.662.68.444 2.042.728 1.361.32 1.361.502h.68l.681.142.68.264 1.361.34 2.042.813 2.041 1.182 1.361.302.68-.01.681.313 3.403-.35.68.066.68-.095 3.403.095.68-.35 2.723-.765.68-.123.68.057.681.463 2.722.321.68.132 1.362-.68.68-.038.68-.302.681-.577.68-.198 2.042-1.465 2.041-1.144.68-.888.681-.643 2.042-2.542 2.041-2.807 1.361-1.427 1.361-3.97.68-3.998 1.362-3.667.68-1.654.68-2.608.681-2.136.68-2.94.681-.755.68-3.081 2.042-11.87 1.361-7.165.68-5.17 1.362-13.014 1.36-17.749 1.362-20.263 2.041-35.366.68-9.545.681-12.003.68-14.564.68-11.672 1.362-17.21 2.041-16.73.68-3.165.681-3.942.68-6.275 2.723-15.046.68-1.323.68-.804.681 2.807h.68l.681-3.185.68-4.281.681-3.062.68 2.325.681-1.975.68-2.874.681 3.176.68-3.289.681 7.731.68 3.516.681.255 1.361 10.642.68 2.656.681 12.532.68 6.767L384.63 78.3l.68 2.24 1.361 14.026.681 6.35.68 9.339.68 6.71.681-44.052 1.361-11.795.68-14.12.681-5.699.68-3.052.681-1.446.68 54.693.681 22.257.68 16.37.681 23.57.68 14.735 1.362 20.726.68 2.438.68 4.386.681 2.958.68 4.234.681 2.457.68 5.113.681 2.987 1.361 8.704 2.042 8.63.68-1.069.68 1.777.681-.548.68-4.423.681.567.68-.01.681-13.864.68 2.91.681 2.212.68 3.488.681 6.105.68 3.563.681 2.126.68 15.557.68-31.907 1.362 1.276.68.132.68-.16.681.784.68-.387.681 31.736.68-1.257.681-.68.68-.444 2.042-.18.68.737 1.362 1.872.68-.227.68.472.681-.236.68.463.681.614.68.407.681-1.144.68 1.314.681-.019.68.284.681-.605.68.538.681-.378.68.426 1.362 1.824.68.264.68.785.681-1.966.68-.728.681.416.68-1.266.681-.54 1.36.124.681 1.777.68.926.681 1.228 1.361 3.129.68 1.521.681.567.68.86.681 1.617.68 1.001.681.208.68-.283h.681l.68-.463.681.803.68-.879.681-.567 1.361.53.68-.719.681.822.68-.935.681 1.408 1.361-.066.68.463.681.18.68.69.681.047.68-.275.681.388.68.53.681.15.68.908.681-.794.68.945.681-.066.68.056.681-.132.68.284.68-.123.681.775.68.491.681.68.68-1.02 1.362 1.437 2.041.69.68.812.681 1.4.68-4.726.681-3.942.68-2.618.681-1.814.68-3.667 1.362-10.84 1.36 2.192.681 1.815.68-.822 1.362 5.16.68 5.52.68 1.483.681-.756.68-.142.681 1.05.68-1.409.681 1.144.68-2.647.681-1.54.68 2.278 2.042 4.11.68-1.228.681.397.68 2.722.68-.265.681-1.172.68-.368.681-1.286.68.7.681-.274.68-1.872.681-2.91.68.122.681.435.68 1.607.681-.766.68.917.681.473.68 5.869.681-26.19.68-.283.681.68.68 3.006 1.362.425.68-5.311.68 26.51.681-.302.68-.492.681-1.739.68-.217.681 3.714.68 2.58 1.362-3.733.68-.67.68-.86.681.16.68-3.658.681 1.2.68.766.681 1.512.68.151 1.361 3.025.68-.18.681-1.153 1.361 3.412.68-2.193.681-.538.68-.775.681 1.143.68-.406.681-.218.68-1.446.681.87.68-.52.681-1.03.68-.199.681.123.68-2.258.681-.312.68.01.681-1.05.68-2.76 1.362-3.714.68-.51.68-2.873.681-2.117.68-.775.681.718 1.361-7.098 1.361-10.377.68-10.094 1.362-8.317.68-1.777.68.265.681.605.68.038.681 4.876.68-2.202.68 3.922.681 2.41.68 1.711.681 5.189.68 7.948 1.362 13.26.68 1.56.68 4.526.681.104.68 1.324.681 1.058 1.361 4.49.68 1.795.681.662.68 4.064.681.822 1.361 1.04.68 1.512.681.954.68-.321.681.803.68.501 1.362 1.418.68.359.68-.51.681 1.89.68 1.049.681.368.68.104 1.362.86.68 1.002.68.17.681-.756.68-.038.681.605.68.34.68-.066.681.624.68-38.078.681-.208 1.361-.019 2.042.955.68 37.965.68.642.681.17.68-.217.681-.378.68-.142 1.362.085.68.492.68.066 2.723 1.54.68.747.68.236.681-1.966.68.17.681-.132 1.361-.973 1.361-.652.68 1.739.681.01.68-13.147.681.16h0" clip-path="url(#p151d73c652)" style="fill:none;stroke:#7d31e0;stroke-width:1.5;stroke-linecap:square" id="line2d_30"/><path d="m49.83 284.4 36.066-.066 2.041-.17.68-.01 1.362-.245 2.041-.331 1.361-.274 1.361.056 1.361-.075 1.361.028 2.042-.34 2.722.094.68.199 3.402.17 2.042-.095 1.36.18 2.723.217 1.36.104 2.042.076 1.361.217 4.764.114 2.722.047 4.083.01 2.722-.02.68-.217 4.083.095.68.217 4.083-.01 13.61-.084 14.97.104 4.764-.038 4.083-.01 2.722.029 22.456-.095 2.722.019 5.444-.028 2.042-.085 5.443.01 4.764-.2 2.041.038 2.042-.009 1.36-.019 5.445-.435 1.36-.132 5.445-1.04.68-.434 2.722-.463.68-.284.681-.028.68.18 1.361-.918 1.361-.264.68-.416.681-.17.68-.52.681-.18.68.218.681-.123.68-.567.681.18.68-.416.681-.048 1.361-.52.68-.075 1.362-.51.68.132h.68l.681.246.68.037.681.208.68.34.681.634 2.042-.454.68.236h.68l.681-.122.68-.586.681-1.05.68-.179.681.416.68-.794.681-.255 1.361.142 1.361 2.211.68.208.68.983.681.321.68-.217 1.362.397.68-.01.68.435.681-.104 1.361.425 1.361.492 1.361-.624 2.042.473.68.18.68-.095.681.066.68-.19.681.067 1.361-.198 3.403.415 1.36.19.681-.105.68.076.681-.085 1.361.236.68-.227 1.361-.103 1.361.217.68.227h.681l1.361.633 2.042.255 1.36-.019 2.042.218 4.083.019 1.361-.067.68.133 2.723-.038.68.151 2.042-.01 3.402.095.68-.151 2.722-.057 2.042-.236 2.722-.028h1.36l.681.189 10.208-.492.68-.094.68.132 1.362-.085 2.722.208 2.041-.066 2.722.274 2.041.321 1.361.047.68-.123 1.362.01 1.36.028 6.125.52 2.042.151 4.763.199.68.142.681-.057.68.113 1.362-.047 1.36-.047.681-.076 2.041.199 2.042.056 3.402.199 1.361-.057 6.805-.01 4.083.067 1.361.066 6.805-.01 2.041.038 29.942-.094 1.36-.029.681.142 4.083-.142.68-.198 6.806-.095 2.722-.18.68-.075 2.042.048 2.041.037 4.083.095 2.722-.114 6.124-.009 4.764-.123 2.041.038 1.361-.19 4.083-.027 2.042-.397.68-.01.68-.264 2.042-.152.68-.16.681.028 1.361-.463.68-.17.681-.293.68-.076 2.042.132.68-.103.68-.237 1.362-.01 1.36-.377.681-.095 1.361.095 1.361-.34 1.361.009 1.361-.199.68.029.681.378 3.403.236.68.066.68-.198.681.123.68.406.681.019.68.369 4.083 1.162.681.01 2.041.453 1.361-.16 2.722.094.68-.085.681.236 8.166.218 1.361.217.68-.18 3.403-.15.68-.18.681.123 4.763-.426 3.403-.104 2.722.02.68-.095 1.361-.303.68-.113.681.217.68-.302 2.042.18.68-.067.681.085.68-.35.681.18.68-.085.681.047.68-.16.681.028.68-.104 1.362.132.68.038.68-.123 1.362.17 1.36.17 1.362-.009 2.721.132.681-.245.68.047 1.361-.227 2.722-.491.68.208.681-.17 3.403-.17.68-.265.68.226.681-.009 3.403.53.68.009.68.142 2.042.028.68.217 1.362.095.68.34.68.066.681-5.217.68-8.77 3.403-.038h0" clip-path="url(#p151d73c652)" style="fill:none;stroke:#989173;stroke-width:1.5;stroke-linecap:square" id="line2d_31"/><path d="m49.83 284.4 31.302-.076 2.042-.019 1.36-.047 2.042-.264 2.722-1.276 1.361-.945.68-.53.681-.33 2.722-3.734.68-.652.681-1.134.68-.246.681-.425 2.042-3.138.68-.283.68.52.681-.322.68.029.681-.293.68-.652.681-.312 1.361-1.191.68.151.681-.227.68.038.681.945 1.36 1.276.681.416h.68l.681.293.68.746 1.362.719.68.803 1.361 1.257.68.227 1.362.822.68.435.68-.085.681.453 1.361.416.68.605 1.362.756.68.435 1.361-.057.68.416.681.17.68.303.681.7.68.14 1.362.124 1.36.595 2.042-.132.68.189.681-.01.68.322.681.17.68.302 1.361.123.68-.104.681.047.68-.245 2.723.51.68.151.68.02.681.264.68-.114 4.084.057 1.36.227 2.042-.038 2.042.038 4.763.189 2.041.01 2.042.056 2.041.151 2.042.057 2.722-.066 1.36-.047 4.764.104 2.722-.17 4.083.018 3.403.038 7.485.066 1.36.02 15.652-.076 5.444-.426 1.361.133.68-.095 2.722.01 4.083-.133 1.361-.416 2.042-.283.68-.057.68-.321 1.362.066 1.36-.387 1.362-.293.68.047 2.722-1.768h.68l.681-.236.68-.841.681-.624.68-.274.681-.841 2.722-.926 1.361-1.957 2.041-1.36.68.009.681-1.068 2.042-1.153.68-.718 1.361-.558.68.17.681-.992.68-1.304.681-1.57.68-1.18.681-.19.68-.33.681-1.314 1.361-1.579.68-.056 1.362-1.9.68-.208.68-.33.681-.974.68.369.681-1.57.68-.122.681-.624.68-.387.681-.728.68-3.422 1.362-4.47.68-1.947.68-.831.681-.36.68-2.183.681-.094.68-.983 1.361 8.156.68.5 1.362-2.296 1.36-3.11.681-1.332.68-.907 1.362.85.68-.869.68 1.04.681-1.002.68-6.002.681-7.06.68-1.445.681-.388.68.5.681-.387.68-1.644.681.709.68.973.681.19.68 1.218 1.362-1.757 1.36 4.583 1.362 1.862.68-.028.68.813.681 1.569.68.68.681.189.68.803.681-.472 1.361.794.68.066.681 1.465.68-.151.68.992.681 1.588.68.16.681 3.592.68 1.53.681 1.135.68 2.826.681 1.304.68.123.681.397.68-.444.681 2.39.68 1.248 1.362 1.03.68.69.68.51.681 1.069 2.042 3.79.68 1.143.68-.113.681.019.68.538.681.038.68.246.681 1.229 1.361 1.228.68.246 1.362 2.089.68.359.68.113.681.577.68.245.681-.122.68.16.681.482.68.889 1.361.548.68-.274 2.723-.142 1.36.879 1.362.151.68.662.68-.01.681.255.68-.463.681.35.68.208.681-.066.68.85.681-.463.68-.992.681-.605.68-1.19 1.362-.804.68-1.928.68-.416.681.123.68.463 2.042.671.68-.028.681.104.68.321.681-.17 1.361-1.134.68.302.681-.444.68.18.68-.048.681-.387.68.51.681.095.68-.227 1.362.53 1.36.34 1.362-.218 2.041.747.68-.265.681.888 1.361 1.106.68-.094.681.586.68-.152.681.388.68-.34.681.066.68-.104.681.198.68 1.777.681.132.68-.302.681.321.68.066.681.246.68.066.681-1.134 1.361 1.834.68 1.002.681.387.68-.17 1.361.255 1.361 1.361 1.361-.217.68.529.681.113.68.445.681-.284.68-.104.681.104.68.284 1.362.018.68.152.68.812.681.114 1.361.567 2.722.236.68.284.681-.066.68.491 1.362.076.68.245.68.076 1.362.491.68-.18 2.042.048.68.19.68-.01.681.293 1.361.15 2.041.02 2.722-.312 2.042-.076.68.199 2.722.151.68.18 3.403-.085 1.361-.01 2.722.36 1.361-.01 2.042-.208.68.057 1.361-.057h.68l1.361-.293 2.042-.047 2.041-.312.68.15.681-.112.68-.293 3.403-.19 2.042-.453.68.123 1.361-.123.68-.454.681-.17.68.33 2.723-.585.68.113 1.361-.87 3.403-.018.68.454 1.361-.114.68.18 2.722.038.681-.123.68.01.68-.143 1.362.02 1.36-.19.681.199.68-.095 1.362.038 2.041.047.68-.482 2.042-.227.68-.378.681-.208.68-.557 2.723-.236.68.444.68-.756 2.042-1.172 1.361-.133.68-.831.681-.397.68-.662.681-.35.68-.812 1.361-.265.681-.907.68-.548.681-.274 1.36-.284 1.362-.369 1.36-.803.681-.822.68-1.475.681-.52.68-.273.681-.104.68-.747.681-1.05 1.361-.66.68-.71.681.095 1.361-.18 2.042-2.381.68-1.248 1.361-.69.68-.7.681.7.68-.538.681.444.68.907.681-.454.68-.028.681.104.68-.539.681.917.68.633.681 2.43.68.869.681.472 1.361 1.758 1.36.841.681-.255.68.397.681.01.68.15.681.643.68-.567.681.558.68-.794.681-.293.68.151.681.322.68-.36.681 1.2.68-.207 1.362.595.68.208 1.361 2.59.68.775.681 1.096.68.53 2.042-.246.68.69.681.434 2.042-.075.68-.312.68.246.681-.284.68.227 1.361.094 1.361.284.681.104 1.36-1.418.681-.529 1.361-.406.68.066.681-.624.68.236.681-.217.68-.36 1.362-.254.68.189 1.361-1.087.68.17.681.359.68-.378.681.151.68-.019.681.671.68-.019.681-.226.68-.615 1.362.01h.68l.68-.841.681-.123.68.075.681.397 2.042.114 1.36.812.681-.18 1.361.483 1.361.066.68.18.68-.567.681-.208 1.361-1.125 1.361-.066.68-.407.681-.18.68-2.797.681 2.845 1.361-.283.68.189.681-.086.68-3.024.681 2.476.68-3.043.681 2.42.68.491.681-2.731.68-.426.681 3.384.68 1.153.681 2.646.68.218.681.018.68 2.666.681.123.68-.133.681-.728.68-1.937.681-.104.68.047.681-2.807.68 3.29.681-2.505h0" clip-path="url(#p151d73c652)" style="fill:none;stroke:#d8b009;stroke-width:1.5;stroke-linecap:square" id="line2d_32"/><g style="fill:#7516fd" transform="matrix(.14 0 0 -.14 624.57 242.845)" id="text_19"><defs><path id="DejaVuSans-55" d="M556 4666h635V1831q0-750 271-1080 272-329 882-329 606 0 878 329 272 330 272 1080v2835h634V1753q0-912-452-1378Q3225-91 2344-91q-885 0-1337 466-451 466-451 1378v2913z" transform="scale(.01563)"/><path id="DejaVuSans-53" d="M3425 4513v-616q-359 172-678 256-319 85-616 85-515 0-795-200t-280-569q0-310 186-468 186-157 705-254l381-78q706-135 1042-474t336-907q0-679-455-1029Q2797-91 1919-91q-331 0-705 75-373 75-773 222v650q384-215 753-325 369-109 725-109 540 0 834 212 294 213 294 607 0 343-211 537t-692 291l-385 75q-706 140-1022 440-315 300-315 835 0 619 436 975t1201 356q329 0 669-60 341-59 697-177z" transform="scale(.01563)"/></defs><use xlink:href="#DejaVuSans-55"/><use xlink:href="#DejaVuSans-53" x="73.193"/></g><g style="fill:#89f9c9" transform="matrix(.14 0 0 -.14 624.57 256.845)" id="text_20"><defs><path id="DejaVuSans-6e" d="M3513 2113V0h-575v2094q0 497-194 743-194 247-581 247-466 0-735-297-269-296-269-809V0H581v3500h578v-544q207 316 486 472 280 156 646 156 603 0 912-373 310-373 310-1098z" transform="scale(.01563)"/><path id="DejaVuSans-69" d="M603 3500h575V0H603v3500zm0 1363h575v-729H603v729z" transform="scale(.01563)"/><path id="DejaVuSans-74" d="M1172 4494v-994h1184v-447H1172V1153q0-428 117-550t477-122h590V0h-590q-666 0-919 248-253 249-253 905v1900H172v447h422v994h578z" transform="scale(.01563)"/><path id="DejaVuSans-65" d="M3597 1894v-281H953q38-594 358-905t892-311q331 0 642 81t618 244V178Q3153 47 2828-22t-659-69q-838 0-1327 487-489 488-489 1320 0 859 464 1363 464 505 1252 505 706 0 1117-455 411-454 411-1235zm-575 169q-6 471-264 752-258 282-683 282-481 0-770-272t-333-766l2050 4z" transform="scale(.01563)"/><path id="DejaVuSans-64" d="M2906 2969v1894h575V0h-575v525q-181-312-458-464-276-152-664-152-634 0-1033 506-398 507-398 1332t398 1331q399 506 1033 506 388 0 664-152 277-151 458-463zM947 1747q0-634 261-995t717-361q456 0 718 361 263 361 263 995t-263 995q-262 361-718 361t-717-361q-261-361-261-995z" transform="scale(.01563)"/><path id="DejaVuSans-4b" d="M628 4666h631V2694l2094 1972h813L1850 2491 4331 0h-831L1259 2247V0H628v4666z" transform="scale(.01563)"/><path id="DejaVuSans-67" d="M2906 1791q0 625-258 968-257 344-723 344-462 0-720-344-258-343-258-968 0-622 258-966t720-344q466 0 723 344 258 344 258 966zm575-1357q0-893-397-1329-396-436-1215-436-303 0-572 45t-522 139v559q253-137 500-202 247-66 503-66 566 0 847 295t281 892v285q-178-310-456-463T1784 0Q1141 0 747 490 353 981 353 1791q0 812 394 1302 394 491 1037 491 388 0 666-153t456-462v531h575V434z" transform="scale(.01563)"/><path id="DejaVuSans-6f" d="M1959 3097q-462 0-731-361t-269-989q0-628 267-989 268-361 733-361 460 0 728 362 269 363 269 988 0 622-269 986-268 364-728 364zm0 487q750 0 1178-488 429-487 429-1349 0-859-429-1349Q2709-91 1959-91q-753 0-1180 489-426 490-426 1349 0 862 426 1349 427 488 1180 488z" transform="scale(.01563)"/><path id="DejaVuSans-6d" d="M3328 2828q216 388 516 572t706 184q547 0 844-383 297-382 297-1088V0h-578v2094q0 503-179 746-178 244-543 244-447 0-707-297-259-296-259-809V0h-578v2094q0 506-178 748t-550 242q-441 0-701-298-259-298-259-808V0H581v3500h578v-544q197 322 472 475t653 153q382 0 649-194 267-193 395-562z" transform="scale(.01563)"/></defs><use xlink:href="#DejaVuSans-55"/><use xlink:href="#DejaVuSans-6e" x="73.193"/><use xlink:href="#DejaVuSans-69" x="136.572"/><use xlink:href="#DejaVuSans-74" x="164.355"/><use xlink:href="#DejaVuSans-65" x="203.564"/><use xlink:href="#DejaVuSans-64" x="265.088"/><use xlink:href="#DejaVuSans-20" x="328.564"/><use xlink:href="#DejaVuSans-4b" x="360.352"/><use xlink:href="#DejaVuSans-69" x="425.928"/><use xlink:href="#DejaVuSans-6e" x="453.711"/><use xlink:href="#DejaVuSans-67" x="517.09"/><use xlink:href="#DejaVuSans-64" x="580.566"/><use xlink:href="#DejaVuSans-6f" x="644.043"/><use xlink:href="#DejaVuSans-6d" x="705.225"/></g><g style="fill:#7d31e0" transform="matrix(.14 0 0 -.14 624.57 270.845)" id="text_21"><defs><path id="DejaVuSans-49" d="M628 4666h631V0H628v4666z" transform="scale(.01563)"/><path id="DejaVuSans-61" d="M2194 1759q-697 0-966-159t-269-544q0-306 202-486 202-179 548-179 479 0 768 339t289 901v128h-572zm1147 238V0h-575v531q-197-318-491-470T1556-91q-537 0-855 302-317 302-317 808 0 590 395 890 396 300 1180 300h807v57q0 397-261 614t-733 217q-300 0-585-72-284-72-546-216v532q315 122 612 182 297 61 578 61 760 0 1135-394 375-393 375-1193z" transform="scale(.01563)"/></defs><use xlink:href="#DejaVuSans-49"/><use xlink:href="#DejaVuSans-6e" x="29.492"/><use xlink:href="#DejaVuSans-64" x="92.871"/><use xlink:href="#DejaVuSans-69" x="156.348"/><use xlink:href="#DejaVuSans-61" x="184.131"/></g><g style="fill:#989173" transform="matrix(.14 0 0 -.14 624.57 284.845)" id="text_22"><defs><path id="DejaVuSans-41" d="m2188 4044-857-2322h1716l-859 2322zm-357 622h716L4325 0h-656l-425 1197H1141L716 0H50l1781 4666z" transform="scale(.01563)"/><path id="DejaVuSans-75" d="M544 1381v2119h575V1403q0-497 193-746 194-248 582-248 465 0 735 297 271 297 271 810v1984h575V0h-575v538q-209-319-486-474-276-155-642-155-603 0-916 375-312 375-312 1097zm1447 2203z" transform="scale(.01563)"/><path id="DejaVuSans-73" d="M2834 3397v-544q-243 125-506 187-262 63-544 63-428 0-642-131t-214-394q0-200 153-314t616-217l197-44q612-131 870-370t258-667q0-488-386-773Q2250-91 1575-91q-281 0-586 55T347 128v594q319-166 628-249 309-82 613-82 406 0 624 139 219 139 219 392 0 234-158 359-157 125-692 241l-200 47q-534 112-772 345-237 233-237 639 0 494 350 762 350 269 994 269 318 0 599-47 282-46 519-140z" transform="scale(.01563)"/><path id="DejaVuSans-72" d="M2631 2963q-97 56-211 82-114 27-251 27-488 0-749-317t-261-911V0H581v3500h578v-544q182 319 472 473 291 155 707 155 59 0 131-8 72-7 159-23l3-590z" transform="scale(.01563)"/></defs><use xlink:href="#DejaVuSans-41"/><use xlink:href="#DejaVuSans-75" x="68.408"/><use xlink:href="#DejaVuSans-73" x="131.787"/><use xlink:href="#DejaVuSans-74" x="183.887"/><use xlink:href="#DejaVuSans-72" x="223.096"/><use xlink:href="#DejaVuSans-69" x="264.209"/><use xlink:href="#DejaVuSans-61" x="291.992"/></g><g style="fill:#d8b009" transform="matrix(.14 0 0 -.14 624.57 298.845)" id="text_23"><defs><path id="DejaVuSans-47" d="M3809 666v1253H2778v519h1656V434q-365-259-806-392-440-133-940-133-1094 0-1712 639-617 640-617 1780 0 1144 617 1783 618 639 1712 639 456 0 867-113 411-112 758-331v-672q-350 297-744 447t-828 150q-857 0-1287-478-429-478-429-1425 0-944 429-1422 430-478 1287-478 334 0 596 58 263 58 472 180z" transform="scale(.01563)"/><path id="DejaVuSans-79" d="M2059-325q-243-625-475-815-231-191-618-191H506v481h338q237 0 368 113 132 112 291 531l103 262L191 3500h609L1894 763l1094 2737h609L2059-325z" transform="scale(.01563)"/></defs><use xlink:href="#DejaVuSans-47"/><use xlink:href="#DejaVuSans-65" x="77.49"/><use xlink:href="#DejaVuSans-72" x="139.014"/><use xlink:href="#DejaVuSans-6d" x="178.377"/><use xlink:href="#DejaVuSans-61" x="275.789"/><use xlink:href="#DejaVuSans-6e" x="337.068"/><use xlink:href="#DejaVuSans-79" x="400.447"/></g></g></g><defs><clipPath id="p151d73c652"><path d="M49.83 7.2h558v277.2h-558z"/></clipPath></defs></svg>