<svg xmlns:xlink="http://www.w3.org/1999/xlink" width="961.383" height="416.199" viewBox="0 0 721.038 312.149" xmlns="http://www.w3.org/2000/svg"><defs><style>*{stroke-linejoin:round;stroke-linecap:butt}</style></defs><g id="figure_1"><path d="M0 312.15h721.038V0H0v312.15z" style="fill:none" id="patch_1"/><g id="axes_1"><path d="M49.83 284.4h558V7.2h-558v277.2z" style="fill:none" id="patch_2"/><g id="matplotlib.axis_1"><g id="xtick_1"><g id="line2d_1"><defs><path id="m7d8c5cf899" d="M0 0v3.5" style="stroke:#b0b0b0;stroke-width:.4"/></defs><use xlink:href="#m7d8c5cf899" x="94.807" y="284.4" style="fill:#b0b0b0;stroke:#b0b0b0;stroke-width:.4"/></g><g style="fill:#b0b0b0" transform="matrix(.14 0 0 -.14 65.56 302.038)" id="text_1"><defs><path id="DejaVuSans-32" d="M1228 531h2203V0H469v531q359 372 979 998 621 627 780 809 303 340 423 576 121 236 121 464 0 372-261 606-261 235-680 235-297 0-627-103-329-103-704-313v638q381 153 712 231 332 78 607 78 725 0 1156-363 431-362 431-968 0-288-108-546-107-257-392-607-78-91-497-524-418-433-1181-1211z" transform="scale(.01563)"/><path id="DejaVuSans-30" d="M2034 4250q-487 0-733-480-245-479-245-1442 0-959 245-1439 246-480 733-480 491 0 736 480 246 480 246 1439 0 963-246 1442-245 480-736 480zm0 500q785 0 1199-621 414-620 414-1801 0-1178-414-1799Q2819-91 2034-91q-784 0-1198 620-414 621-414 1799 0 1181 414 1801 414 621 1198 621z" transform="scale(.01563)"/><path id="DejaVuSans-2d" d="M313 2009h1684v-512H313v512z" transform="scale(.01563)"/><path id="DejaVuSans-34" d="M2419 4116 825 1625h1594v2491zm-166 550h794V1625h666v-525h-666V0h-628v1100H313v609l1940 2957z" transform="scale(.01563)"/></defs><use xlink:href="#DejaVuSans-32"/><use xlink:href="#DejaVuSans-30" x="63.623"/><use xlink:href="#DejaVuSans-32" x="127.246"/><use xlink:href="#DejaVuSans-30" x="190.869"/><use xlink:href="#DejaVuSans-2d" x="254.492"/><use xlink:href="#DejaVuSans-30" x="290.576"/><use xlink:href="#DejaVuSans-34" x="354.199"/></g></g><g id="xtick_2"><use xlink:href="#m7d8c5cf899" x="158.759" y="284.4" style="fill:#b0b0b0;stroke:#b0b0b0;stroke-width:.4" id="line2d_2"/><g style="fill:#b0b0b0" transform="matrix(.14 0 0 -.14 129.512 302.038)" id="text_2"><defs><path id="DejaVuSans-37" d="M525 4666h3000v-269L1831 0h-659l1594 4134H525v532z" transform="scale(.01563)"/></defs><use xlink:href="#DejaVuSans-32"/><use xlink:href="#DejaVuSans-30" x="63.623"/><use xlink:href="#DejaVuSans-32" x="127.246"/><use xlink:href="#DejaVuSans-30" x="190.869"/><use xlink:href="#DejaVuSans-2d" x="254.492"/><use xlink:href="#DejaVuSans-30" x="290.576"/><use xlink:href="#DejaVuSans-37" x="354.199"/></g></g><g id="xtick_3"><use xlink:href="#m7d8c5cf899" x="223.414" y="284.4" style="fill:#b0b0b0;stroke:#b0b0b0;stroke-width:.4" id="line2d_3"/><g style="fill:#b0b0b0" transform="matrix(.14 0 0 -.14 194.166 302.038)" id="text_3"><defs><path id="DejaVuSans-31" d="M794 531h1031v3560L703 3866v575l1116 225h631V531h1031V0H794v531z" transform="scale(.01563)"/></defs><use xlink:href="#DejaVuSans-32"/><use xlink:href="#DejaVuSans-30" x="63.623"/><use xlink:href="#DejaVuSans-32" x="127.246"/><use xlink:href="#DejaVuSans-30" x="190.869"/><use xlink:href="#DejaVuSans-2d" x="254.492"/><use xlink:href="#DejaVuSans-31" x="290.576"/><use xlink:href="#DejaVuSans-30" x="354.199"/></g></g><g id="xtick_4"><use xlink:href="#m7d8c5cf899" x="288.069" y="284.4" style="fill:#b0b0b0;stroke:#b0b0b0;stroke-width:.4" id="line2d_4"/><g style="fill:#b0b0b0" transform="matrix(.14 0 0 -.14 258.821 302.038)" id="text_4"><use xlink:href="#DejaVuSans-32"/><use xlink:href="#DejaVuSans-30" x="63.623"/><use xlink:href="#DejaVuSans-32" x="127.246"/><use xlink:href="#DejaVuSans-31" x="190.869"/><use xlink:href="#DejaVuSans-2d" x="254.492"/><use xlink:href="#DejaVuSans-30" x="290.576"/><use xlink:href="#DejaVuSans-31" x="354.199"/></g></g><g id="xtick_5"><use xlink:href="#m7d8c5cf899" x="351.319" y="284.4" style="fill:#b0b0b0;stroke:#b0b0b0;stroke-width:.4" id="line2d_5"/><g style="fill:#b0b0b0" transform="matrix(.14 0 0 -.14 322.07 302.038)" id="text_5"><use xlink:href="#DejaVuSans-32"/><use xlink:href="#DejaVuSans-30" x="63.623"/><use xlink:href="#DejaVuSans-32" x="127.246"/><use xlink:href="#DejaVuSans-31" x="190.869"/><use xlink:href="#DejaVuSans-2d" x="254.492"/><use xlink:href="#DejaVuSans-30" x="290.576"/><use xlink:href="#DejaVuSans-34" x="354.199"/></g></g><g id="xtick_6"><use xlink:href="#m7d8c5cf899" x="415.271" y="284.4" style="fill:#b0b0b0;stroke:#b0b0b0;stroke-width:.4" id="line2d_6"/><g style="fill:#b0b0b0" transform="matrix(.14 0 0 -.14 386.023 302.038)" id="text_6"><use xlink:href="#DejaVuSans-32"/><use xlink:href="#DejaVuSans-30" x="63.623"/><use xlink:href="#DejaVuSans-32" x="127.246"/><use xlink:href="#DejaVuSans-31" x="190.869"/><use xlink:href="#DejaVuSans-2d" x="254.492"/><use xlink:href="#DejaVuSans-30" x="290.576"/><use xlink:href="#DejaVuSans-37" x="354.199"/></g></g><g id="xtick_7"><use xlink:href="#m7d8c5cf899" x="479.926" y="284.4" style="fill:#b0b0b0;stroke:#b0b0b0;stroke-width:.4" id="line2d_7"/><g style="fill:#b0b0b0" transform="matrix(.14 0 0 -.14 450.678 302.038)" id="text_7"><use xlink:href="#DejaVuSans-32"/><use xlink:href="#DejaVuSans-30" x="63.623"/><use xlink:href="#DejaVuSans-32" x="127.246"/><use xlink:href="#DejaVuSans-31" x="190.869"/><use xlink:href="#DejaVuSans-2d" x="254.492"/><use xlink:href="#DejaVuSans-31" x="290.576"/><use xlink:href="#DejaVuSans-30" x="354.199"/></g></g><g id="xtick_8"><use xlink:href="#m7d8c5cf899" x="544.581" y="284.4" style="fill:#b0b0b0;stroke:#b0b0b0;stroke-width:.4" id="line2d_8"/><g style="fill:#b0b0b0" transform="matrix(.14 0 0 -.14 515.333 302.038)" id="text_8"><use xlink:href="#DejaVuSans-32"/><use xlink:href="#DejaVuSans-30" x="63.623"/><use xlink:href="#DejaVuSans-32" x="127.246"/><use xlink:href="#DejaVuSans-32" x="190.869"/><use xlink:href="#DejaVuSans-2d" x="254.492"/><use xlink:href="#DejaVuSans-30" x="290.576"/><use xlink:href="#DejaVuSans-31" x="354.199"/></g></g><g id="xtick_9"><use xlink:href="#m7d8c5cf899" x="607.83" y="284.4" style="fill:#b0b0b0;stroke:#b0b0b0;stroke-width:.4" id="line2d_9"/><g style="fill:#b0b0b0" transform="matrix(.14 0 0 -.14 578.582 302.038)" id="text_9"><use xlink:href="#DejaVuSans-32"/><use xlink:href="#DejaVuSans-30" x="63.623"/><use xlink:href="#DejaVuSans-32" x="127.246"/><use xlink:href="#DejaVuSans-32" x="190.869"/><use xlink:href="#DejaVuSans-2d" x="254.492"/><use xlink:href="#DejaVuSans-30" x="290.576"/><use xlink:href="#DejaVuSans-34" x="354.199"/></g></g></g><g id="matplotlib.axis_2"><g id="ytick_1"><path d="M49.83 284.4h558" clip-path="url(#pa3b5e4b6a3)" style="fill:none;stroke:#b0b0b0;stroke-width:.3;stroke-linecap:square" id="line2d_10"/><g id="line2d_11"><defs><path id="me2ca318f39" d="M0 0h-3.5" style="stroke:#b0b0b0;stroke-width:.3"/></defs><use xlink:href="#me2ca318f39" x="49.83" y="284.4" style="fill:#b0b0b0;stroke:#b0b0b0;stroke-width:.3"/></g><use xlink:href="#DejaVuSans-30" style="fill:#b0b0b0" transform="matrix(.14 0 0 -.14 33.922 289.719)" id="text_10"/></g><g id="ytick_2"><path d="M49.83 243.666h558" clip-path="url(#pa3b5e4b6a3)" style="fill:none;stroke:#b0b0b0;stroke-width:.3;stroke-linecap:square" id="line2d_12"/><use xlink:href="#me2ca318f39" x="49.83" y="243.666" style="fill:#b0b0b0;stroke:#b0b0b0;stroke-width:.3" id="line2d_13"/><g style="fill:#b0b0b0" transform="matrix(.14 0 0 -.14 16.108 248.985)" id="text_11"><defs><path id="DejaVuSans-35" d="M691 4666h2478v-532H1269V2991q137 47 274 70 138 23 276 23 781 0 1237-428 457-428 457-1159 0-753-469-1171Q2575-91 1722-91q-294 0-599 50Q819 9 494 109v635q281-153 581-228t634-75q541 0 856 284 316 284 316 772 0 487-316 771-315 285-856 285-253 0-505-56-251-56-513-175v2344z" transform="scale(.01563)"/></defs><use xlink:href="#DejaVuSans-35"/><use xlink:href="#DejaVuSans-30" x="63.623"/><use xlink:href="#DejaVuSans-30" x="127.246"/></g></g><g id="ytick_3"><path d="M49.83 202.932h558" clip-path="url(#pa3b5e4b6a3)" style="fill:none;stroke:#b0b0b0;stroke-width:.3;stroke-linecap:square" id="line2d_14"/><use xlink:href="#me2ca318f39" x="49.83" y="202.932" style="fill:#b0b0b0;stroke:#b0b0b0;stroke-width:.3" id="line2d_15"/><g style="fill:#b0b0b0" transform="matrix(.14 0 0 -.14 7.2 208.251)" id="text_12"><use xlink:href="#DejaVuSans-31"/><use xlink:href="#DejaVuSans-30" x="63.623"/><use xlink:href="#DejaVuSans-30" x="127.246"/><use xlink:href="#DejaVuSans-30" x="190.869"/></g></g><g id="ytick_4"><path d="M49.83 162.198h558" clip-path="url(#pa3b5e4b6a3)" style="fill:none;stroke:#b0b0b0;stroke-width:.3;stroke-linecap:square" id="line2d_16"/><use xlink:href="#me2ca318f39" x="49.83" y="162.198" style="fill:#b0b0b0;stroke:#b0b0b0;stroke-width:.3" id="line2d_17"/><g style="fill:#b0b0b0" transform="matrix(.14 0 0 -.14 7.2 167.517)" id="text_13"><use xlink:href="#DejaVuSans-31"/><use xlink:href="#DejaVuSans-35" x="63.623"/><use xlink:href="#DejaVuSans-30" x="127.246"/><use xlink:href="#DejaVuSans-30" x="190.869"/></g></g><g id="ytick_5"><path d="M49.83 121.464h558" clip-path="url(#pa3b5e4b6a3)" style="fill:none;stroke:#b0b0b0;stroke-width:.3;stroke-linecap:square" id="line2d_18"/><use xlink:href="#me2ca318f39" x="49.83" y="121.464" style="fill:#b0b0b0;stroke:#b0b0b0;stroke-width:.3" id="line2d_19"/><g style="fill:#b0b0b0" transform="matrix(.14 0 0 -.14 7.2 126.783)" id="text_14"><use xlink:href="#DejaVuSans-32"/><use xlink:href="#DejaVuSans-30" x="63.623"/><use xlink:href="#DejaVuSans-30" x="127.246"/><use xlink:href="#DejaVuSans-30" x="190.869"/></g></g><g id="ytick_6"><path d="M49.83 80.73h558" clip-path="url(#pa3b5e4b6a3)" style="fill:none;stroke:#b0b0b0;stroke-width:.3;stroke-linecap:square" id="line2d_20"/><use xlink:href="#me2ca318f39" x="49.83" y="80.731" style="fill:#b0b0b0;stroke:#b0b0b0;stroke-width:.3" id="line2d_21"/><g style="fill:#b0b0b0" transform="matrix(.14 0 0 -.14 7.2 86.05)" id="text_15"><use xlink:href="#DejaVuSans-32"/><use xlink:href="#DejaVuSans-35" x="63.623"/><use xlink:href="#DejaVuSans-30" x="127.246"/><use xlink:href="#DejaVuSans-30" x="190.869"/></g></g><g id="ytick_7"><path d="M49.83 39.997h558" clip-path="url(#pa3b5e4b6a3)" style="fill:none;stroke:#b0b0b0;stroke-width:.3;stroke-linecap:square" id="line2d_22"/><use xlink:href="#me2ca318f39" x="49.83" y="39.997" style="fill:#b0b0b0;stroke:#b0b0b0;stroke-width:.3" id="line2d_23"/><g style="fill:#b0b0b0" transform="matrix(.14 0 0 -.14 7.2 45.316)" id="text_16"><defs><path id="DejaVuSans-33" d="M2597 2516q453-97 707-404 255-306 255-756 0-690-475-1069Q2609-91 1734-91q-293 0-604 58T488 141v609q262-153 574-231 313-78 654-78 593 0 904 234t311 681q0 413-289 645-289 233-804 233h-544v519h569q465 0 712 186t247 536q0 359-255 551-254 193-729 193-260 0-557-57-297-56-653-174v562q360 100 674 150t592 50q719 0 1137-327 419-326 419-882 0-388-222-655t-631-370z" transform="scale(.01563)"/></defs><use xlink:href="#DejaVuSans-33"/><use xlink:href="#DejaVuSans-30" x="63.623"/><use xlink:href="#DejaVuSans-30" x="127.246"/><use xlink:href="#DejaVuSans-30" x="190.869"/></g></g></g><path d="m49.83 284.4 24.597-.081 3.514-.152 1.405-.011 1.406-.117 2.108-.21 1.406-.663 1.405-1.361 2.109-3.608.702-1.862.703-2.398.703-3.177.703-4.015.702-4.842.703-7.1.703-4.969.703-6.052 1.405-20.704.703-12.686 1.406-20.809 1.405-24.394.703-17.422.703-10.172 1.405-17.143.703-6.203 1.406-5.982.702 1.175.703-5.214.703.36.703 1.06.702 2.211.703-1.059.703-3.049.703-.093.703 1.536.702-2.688.703-.862.703 2.468.703 6.692.702 8.903.703 2.816.703.873.703 2.584.702 3.026.703-.081.703 2.35.703 1.42.703.233.702.838.703 3.212.703 1.595.703 3.212.702 2.35.703 3.772 1.406 14.163.702 1.571.703 1.246.703 3.107.703 1.979.703-2.153.702 1.675.703 2.712.703 6.878.703 5.366.702 1.443.703 2.211.703 7.24.703 9.182.702.267 2.109 3.62.703.233.702-2.06.703-3.771.703 5.458.703.966.702 2.782.703 3.654.703 1.909.703 3.06.703.769.702 1.56.703 2.199.703.617.703-.966 1.405 2.549 2.108 4.34.703 2.224.703 1.815 2.108 1.176.703-.094.703 1.77.703.093.702.791.703-.047.703.105.703 2.095.702.663.703-2.222.703-.594.703 2.258 1.405-.047.703-6.773.703-1.664.703-3.399.702-1.618.703-5.26.703-1.746.703-.745.702 2.852.703-1.443.703.814.703-1.152.703-1.49.702-.035.703-1.094.703-2.327.703-3.026.702-1.455.703-2.083.703-1.013.703-.675.703-6.645.702-1.467 1.406-4.864.703-1.036.702-1.746.703.896.703 6.297.703-.385.702.373.703 1.257.703-1.257.703.372.703-1.338.702.489.703 1.839.703-1.246.703 1.665.702-.21.703.489.703-.42.703.56.702-1.49.703 2.677.703-.803.703 2.42.703.768.702 1.316.703.314.703-.105.703 1.245.702-.093.703 1.862.703-.046.703.535.702-.605.703 2.013.703 1.467.703.977.703-.442.702 1.897.703.105.703 2.025.703 6.902.702-.617.703 1.245.703-2.06.703.826.703.466.702-1.199.703-8.542.703 1.745.703.675.702 2.281.703.443.703 1.513.703.116.702 1.944.703-1.257.703-.477.703.5.703-.838.702-.489.703.838 1.406 3.073.702-.105.703.884.703 1.13.703-.664.702-1.641.703 2.34.703.15.703-.768.703-1.547.702.314.703-1.14.703.977 1.405-1.816.703 1.595.703.36.703-1.873.702.046.703-1.07 1.406-3.9 1.405-.22.703-1.665.703.059.703-.373.702-.861.703 1.63.703-1.7.703-1.327.703.373 1.405-.931.703-6.82.703-1.001 2.108-5.796.703-.698.702-2.351.703 2.106.703-3.759.703-.454.703.152 1.405-5.598.703-.652.703-3.41.702-5.796 1.406-18.458 2.108-9.264.703-4.993.703-3.608.703 7.437.702 4.62.703 3.259.703.116.703-2.781.702-4.819.703-6.738.703-18.226 1.405-24.358.703-4.097.703-2.852.703-.36.703-4.085.702-.198.703-8.938.703-1.653.703-2.98.702-1.07.703-4.702 1.406-11.813.703 5.098.702-3.236.703-.628.703-1.711.703-3.631.702 4.097.703 6.145.703 16.666.703 10.497.702 3.19.703-.944.703-3.677.703-6.436.703-4.714 1.405-16.002.703.023.703-1.175 1.405.197.703-8.135.703-22.66 1.405-15.944.703 1.63.703-9.113.703-1.071.702 2.723.703 4.388.703-3.782.703 1.315.702 3.177.703 23.172.703-4.947.703-4.015 1.405.687.703 1.548.703-2.386.703-18.447 1.405 7.007.703 2.071.703 7.623.702-1.152.703-.07.703 5.214.703 2.456.703-.384.702-.873.703 1.909.703 5.586.703 3.782 1.405 11.394 1.406 17.248.702 5.133.703 3.247.703 5.842.703 16.538.703 11.184.702 6.797 1.406 8.287.703-.338.702-2.933.703-7.355.703-9.52.703 2.06 1.405 9.206.703 1.396.703-1.373.703 3.992.702 8.007 1.406 10.59.703-.092.702 4.608.703 7.146.703 1.734.703 11.673.702 4.4.703 3.398.703 6.355.703 2.083.703-.082.702 6.087.703 4.143.703-.872.703 4.48.702 2.421.703-2.467.703 1.734.703 3.55.702-3.224.703 3.2.703-1.478.703-.57.703 3.282.702-.815.703.57.703 4.563 1.405 6.133.703.628 1.406 3.539.703.85.702-17.505.703 1.07.703-.08.703.453.702.256.703.42.703-.536.703 19.447.702 1.42.703.49.703.255.703-.675.703-.489 1.405.885.703-.396.703 1.315.702-.628.703.535.703.152.703 2.025.702-1.304.703.617.703-.605.703.232.703-.256.702-.046.703-2.77.703 2.165.703.745.702-.117.703 1.269.703.756.703.966.702 2.596.703.174.703.384.703 2.107.703 1.222.702-.128.703.046.703-1.094.703 1.42.702 1.152.703.14.703.5.703.838.703-.477.702 1.571.703-3.642.703-7.647.703 1.083.702 1.57.703.548.703 3.026.703.163.702 5.027.703 8.264.703.07.703-2.7.703-.164.702-1.676.703 3.643.703.955.703 2.525.702-.128.703 3.585.703.651.703 1.513.702-.116 1.406 2.223.703-.826.703 1.094.702.36.703-.86 2.108-.56.703.966.703.315.703-.012.702 1.327.703.198.703 1.105.703.699.703 1.035.702.722.703.419 1.406.559.702-.233.703.465.703-.337.703.081.703-.942.702-1.21.703-.676.703-.058.703-1 1.405.197 1.406.85.702.826.703-.384.703.477.703-1.187.703-.57.702-.128.703-.815.703-1.792.703-.187.702-.372.703-3.77.703-.49.703-1.478.702-.954.703-1.56.703-1.873.703-2.305.703-2.933.702-1.012.703 1.175.703-2.071 1.405-5.947.703-5.854.703.977.703-.128.702-.93.703-5.855.703-2.2.703-4.76.703-8.786.702-4.784.703-3.468.703-.012.703-3.573 2.108-13.36.703-3.166.703-.99.702-1.221.703-4.365.703-.07.703-5.795.702-9.3.703-2.385h.703l.703-1.117.702 12.592.703-7.588 1.406-5.365.703-6.273.702-2.014.703.42.703-17.958.703 2.13.702-5.47.703-2.677.703.314.703-1.839.702-.221.703-1.641.703-6.506.703.652.703 1.909.702-.291.703 1.815.703-2.083.703.337.702-.64.703.757.703 5.61.703 3.933.702.012.703.372.703 4.143.703 7.402.703-.395 1.405 7.82.703 4.61.703.686.702 8.636.703-4.935.703-6.552.703 3.514.703.059.702-1.385.703.174.703-6.89.703 1.84.702.476.703 2.037.703-.722.703.059.702 2.42.703 3.469.703 6.389.703 13.035 2.108 5.225.703.245.703 2.246.702 3.666.703 1.106.703 7.425.703-4.725.702-1.06.703.396.703.256.703-1.792.703 3.212.702 3.888.703-3.83.703-1.128.703.058.702-.629.703 1.06.703.453.703-5.598.702 7.775.703 1.268.703-.256.703.617.703-.489.702-.791.703 10.265.703 16.538.703 1.617.702-.337.703-7.844.703-3.084.703-4.016.703-40.035.702-14.001.703-4.167.703-1.652.703 5.959.702.85.703 2.792.703 27.292.703-2.618.702.814.703.42 1.406.244.703-5.051.702 3.27 1.406-1.152.703.628.702-2.095.703-4.574.703-22.624.703-1.199.702 13.535.703 4.83.703-.605.703-2.328.703-4.306.702 21.38.703-1.234.703-.233.703-1.862.702-.337.703-.594.703.07.703 2.013.702-6.284.703-19.61.703-4.935 1.406-4.69.702-1.944.703-7.204.703-5.447.703-3.957 1.405-3.596.703 11.847.703-2.548.703-7.426.702-4.306.703-7.332.703.058.703.408.702-13.687.703-5.633.703-4.457.703 3.805.702-8.495.703-2.27.703 2.782.703-5.529.703-1.803.702 2.863.703 1.443.703-.198.703 3.34.702.14.703-4.993.703 3.969.703 1.617.702-9.671.703 16.515.703.756 1.406-2.502.702 4.515.703 2.922.703 4.026.703 2.386.702 1.816.703 1.49.703 26.721.703 4.888.702.931.703-.698.703 5.132.703-.884.703 2.479.702-14.734.703 4.83.703 11.87.703 14.7.702 3.864.703 5.12.703.198.703 5.214.703 4.365.702.884.703-.733.703.966.703.43.702.198.703 48.776.703 3.736.703 2.235.702 3.096.703 9.752.703-.186.703 1.21.703-46.448.702 6.087.703 2.281.703 7.53.703 2.153.702 1.478.703.338.703 6.32.703-4.737 1.405 8.717.703-13.059h0" clip-path="url(#pa3b5e4b6a3)" style="fill:none;stroke:#1f77b4;stroke-width:1.5;stroke-linecap:square" id="line2d_24"/><path d="m49.83 284.4 43.572-.093 2.108-.221 6.325-.42 1.406-.441.702-.128 4.217-1.688 1.406-.675.702-.093 3.514-1.024 2.108-1.665 1.406.245 1.406-.594 1.405.373.703-.024.703-.593.702-.35 1.406-.348 3.514-.594.703.035.702-.093 2.109-1.28.702-.233.703-.687.703-.011.703-.687.702-.303.703-.547.703-.954.703-.489.703.175.702-.745 2.109-.21.702 1.025.703-.187.703.047.703.512.703.128.702-.454.703-.046.703-.454.703.966.702.174 1.406-.617.703.256.702-.116.703.023.703-.547.703.117 1.405 1.024.703.465.703 1.06.703.058.702-.315 1.406.117.703-.012 1.405-1.361h.703l.703.244.703-.373 1.405-1.012.703.5.703-.337.702.023.703-.244.703.046 1.405.629 1.406.29.703-.139.703.768.702.408 1.406.477.703-.105.702.233.703.384.703-.28.703.21 2.108.023.703.221.703-.093.702.594 2.109.21.702.337.703.163.703.489.703-.396.703-.07 2.108.384.703-.093 2.108.28.703.186.702.011 1.406.326.703.28 1.405-.082.703-.128.703.128.703.012 1.405-.361 1.406.163.702-.21 1.406-.058.703.07.703-.128 1.405.105.703.384.703.011.702-.302.703-.152.703.198.703-.093.703-.35.702-.069.703-.337.703.128.703-.187 1.405-.64.703.14.703-.175.702-.058.703-.174.703-.047.703.303 1.405-.524.703.128.703-.023 1.405-.559.703-.92 1.406-.15.702-.64 1.406-.571 2.108-.617.703-.384.703-.093.703-.652.702-.454.703-1.129.703-.372.703-.966 1.405-.99.703-.325.703-.908.703-.058.702-.594.703-.197 2.811-2.049 1.406-1.664.703-.36.702-.129 1.406-.593.703-.49.702.815.703-.21.703-.36.703-.5.702-.187.703-.07.703-.488.703-1.63 1.405-.651.703-.78.703-.524.703-.954 1.405-.582.703-.628.703-.955 2.81-2.316.704-.675 1.405-.826.703-.64.703-.117 1.405-1.838.703-.326.703-.815 1.405.081.703-.966.703.082.703.396.702-.07 2.109-1.548.702.058.703-.14.703-.442.703-.29.703-.012 1.405-.443.703-.454.703.152.702.558.703-.582.703.594.703.233.702-.5 1.406.058.703-.57.703.523.702.28.703 1.361.703.535.703.07.702.524.703 1.792 1.406 2.049.702-.222 1.406 1.188.703-.187.703-1.443.702-.721 1.406-2.596 1.405-.686.703-.629.703-.314.703-.5.702-.28.703.384.703-.128 2.108.454.703.396 1.406 1 .702.059 1.406.477 1.406 1.385 1.405.21.703.616.703.338.702.081.703-.128.703-.395.703.22 1.405-.046.703.151 2.108 2.444.703.408 1.406.419.702.652.703.442.703.942 1.405.862 1.406.907.703.047.703-.256.702-.757 1.406-.744.703-.024.702.105.703-.535.703 1.198.703-.174.702.186.703-.28 1.406-.744.703-.338.702-1.245.703.442h.703l.703.454.702.955.703.256.703.523 1.405.524.703.757.703.442.703.046.703.42.702.756.703.174.703-.104 2.108.279.703-.221.703-.535.703.256.702.384.703.198.703-.047.703-.21.702.198 1.406 1.374 1.405-.675 1.406.081.703-.582.703-.803.702-.489 2.811.07.703.664 1.406-.257.702.14.703.42 2.811.185.703.64.703.326 1.405.35.703.267 2.811.396.703-.477.703-.21.703.035.702-.675.703-.244 1.406-.815.702-.058.703.186.703-.244.703.384.703.244.702-.337 2.811-.687.703.046.703-.22 1.405.348.703.094.703.302 2.811.105.703-.07.703.128.702-.233 1.406-.104.703-.478 1.405.035.703-.395 1.406-1.455.702-1.07.703-.792 1.406-3.678 3.513-8.775 2.812-4.69.702-.873.703-.687.703-.477.703-.966 2.81-2.537.704-1.036.702-.675.703-.477 2.108-2.246.703-.42 1.406-.29 2.108-.047.703.058 2.108-.384.703.047.703-.14 1.405.082.703.174.703-.058.702-.617h.703l1.406.326 2.108.186.703.221.703-.023 1.405-.372 1.406-.629 1.405-.838.703-.186.703.058.703.233 1.405.617.703.628.703.28.702.128.703-.082.703-.36.703-.152.703.023.702-.372 1.406-.151 1.405.395 2.109-.07h2.81l.704.14 1.405.047.703.745 1.405.197 2.109-.034.702-.082.703-.64 1.406-.687.703-.326.702-.453.703-.303.703-.175.703-.035 1.405-1.059.703-.547 1.405-1.536.703-1.012.703-1.246.703-.43 1.405-1.455.703-.535 1.406-1.723 2.108-2.316 1.406-1.315 1.405-.663 2.108-1.35.703-.536 1.406-1.478 2.108-2.467.703-.99 2.108-3.421 1.406-1.932 1.405-1.571.703-.594 2.108-.57 2.811-1.967.703-.512 1.406-1.257 2.108-.78 2.108-.477 1.406-.547 1.405.221 2.109.675 2.108.838 4.217 1.164 3.513 2.432 1.406 1.572 2.108 1.361 2.109 3.399 1.405 2.502 1.406 2.91 5.622 7.6.703 1.512.702 1.793 2.109 3.433 1.405 2.758 1.406.978.703 1 .702.49.703.872 2.108 2.037 1.406 1.664.703 1.106 2.81 2.141.704.058 1.405.257.703.512 1.405.419.703.15.703.688.703.349.703.198.702-.291 1.406-.14 1.405-1.048.703.14.703-.442.703.081 1.405-.896.703-.151.703-.512.703-.838.702-.058 2.811-3.48 1.406-1.083.703-1.047.702-.407.703.302 1.406.082.703-.245 2.108.163.703-.21.702.117.703.512.703.314.703.745 2.108 4.528 1.406 2.583 1.405 3.294.703 1.07.703.804.702 1.198 2.109 5.133.703 1.42.702 1 1.406 3.352.703 1.432 1.405 2.246.703.861.703 1.537 1.405 1.769.703.663h0" clip-path="url(#pa3b5e4b6a3)" style="fill:none;stroke:#ff7f0e;stroke-width:1.5;stroke-linecap:square" id="line2d_25"/><path d="m49.83 284.4 18.975-.093 9.136-.291 1.405.081 6.325.012 5.622-.233 1.406.047.703-.07 2.81.14 2.812.058 1.405-.058 9.137.256 4.216.046 94.171-.093 5.623-.116 2.108.058 5.622.035 1.406-.035 12.65.128 3.513-.035 7.028.023h6.325l16.164-.07 4.92-.232h1.405l6.325-1.036.702.058 2.109-.14.702.152.703-.186 4.217-.291.703.163 1.405.023.703-.21.703.07 1.405-.011 2.109.116.702.151h.703l.703.14 2.81.035 2.11.244 1.405.14 1.405.21 2.811.058 2.812.058.702.116 7.73-.023 3.515.198 1.405-.035 2.108-.047 1.406-.011.703.116 2.81-.047.704.07 1.405-.093 2.811.047 5.622.093 2.109.07 17.569-.094 1.406.024 4.216.128 4.217-.047h1.405l2.109-.14 4.216-.093 2.109.163 4.919-.058 8.433.093 4.217.14 8.433-.035 26.705-.105 1.406-.023 2.108.023 9.839-.232.703-.117 4.216-.07 2.109-.174 1.405.14 3.514.267 2.811-.035 4.217.058.703-.104 2.108.116 1.405-.151 2.812.046 9.136-.21 1.405.082.703-.14 9.136-.383 1.405-.047 1.406.07 1.406.081 1.405.105 2.108-.14 2.109-.36.702.093 1.406-.07 2.108.105 1.406-.245 1.405-.035 4.92-.605 2.81-.663.704-.303 2.81-.349.704.058.702-.21.703.152.703-.105 2.81-.908.704-.116 1.405.012.703-.35 1.406-.127.702-.233.703.314.703-.407.703-.163.702.489.703-.105.703-.547.703.198.702-.606.703.105 1.406.058 1.405.908.703-.605.703.5h.703l.702.222.703-.059.703-.244.703.28.702.732.703.094.703.21 2.108.174 1.406.011 1.405.629.703.128.703-.024.703-.256.703.187.702.326.703-.07.703.21.703-.024.702.256.703.489 3.514-.256.703.07 1.405.302h.703l2.108.314.703-.22.703-.07.703.058.702-.291.703-.128.703-.245.703-.093 1.405-.5.703-.187.703.047.703-.442 2.108-.42.703-.697 2.108-1.583.703.023.703-.803.702-.629.703.035.703-.535 1.405-2.281.703-1.304.703-.29 2.108-2.491 1.406-1.117.703-1.048.702-.71.703-1.245.703-.07.703-2.595.702-.838.703-.582.703-.885.703-1.5.703-1.06.702-1.478.703-.477.703-1.06.703-.046 1.405 1.013.703 1.71.703-1.64.702 1.105.703.373.703-.187h0" clip-path="url(#pa3b5e4b6a3)" style="fill:none;stroke:#2ca02c;stroke-width:1.5;stroke-linecap:square" id="line2d_26"/><path d="m49.83 284.4 32.327-.093 1.406-.023 2.108-.059 2.109-.325 2.108-1.094 1.405-.99 1.406-1.303.703-.408 2.81-4.597.704-.803.702-1.396.703-.303.703-.524 2.108-3.863.703-.35.703.64.703-.395.702.035.703-.361.703-.803.703-.384.702-.827.703-.64.703.187.703-.28.703.047.702 1.164 1.406 1.57.703.513h.702l.703.36.703.92 1.405.885.703.989 1.406 1.548.703.28.702.43 1.406 1.117.703-.105.702.559 1.406.512.703.745.702.395 1.406 1.071 1.406-.07.702.512.703.21.703.372.703.862.702.174 1.406.151 1.405.734 2.109-.163.703.233.702-.012.703.396.703.21.703.371 1.405.152.703-.128.703.058.703-.303 2.108.454 1.405.361.703.023.703.326.703-.14 4.216.07 1.406.28.703-.059 1.405.012 2.108.047 4.92.232h1.405l2.811.082 1.406.163 4.92.081 2.108-.128 4.92.128 2.107-.198 2.109-.081.703-.093 2.81.221.703-.07 1.406.082 8.433.081.703.07 3.514-.163 7.028.14 7.027-.198 1.406-.28 3.514-.162 1.405.163.703-.117h2.108l2.811-.023 1.406-.117.703-.011 1.405-.512 2.108-.35.703-.07.703-.395 1.406.082 1.405-.478 1.406-.36.702.058.703-.536.703-.686.703-.326.703-.629h.702l.703-.29.703-1.036.703-.768.702-.338.703-1.036 2.811-1.14 1.406-2.41 2.108-1.675.703.011.703-1.315 2.108-1.42.703-.884 1.405-.687.703.21.703-1.222.703-1.606.702-1.932.703-1.455.703-.233.703-.407.702-1.618 1.406-1.944.703-.07 1.405-2.339.703-.256.703-.407.703-1.199.702.454.703-1.932.703-.151.703-.768.702-.478.703-.896.703-4.213.703-3.002 1.405-4.9.703-1.024.703-.443.703-2.688.702-.116.703-1.21 1.406 10.043.702.617 1.406-2.828 1.406-3.83.702-1.64.703-1.117 1.406 1.047.702-1.07.703 1.28.703-1.234.703-7.39.702-8.694.703-1.78.703-.478.703.617.703-.477.702-2.025.703.872.703 1.2.703.232.702 1.501 1.406-2.164 1.405 5.644 1.406 2.293.703-.035.703 1 .702 1.933.703.838.703.233.703.989.702-.582 1.406.977.703.082.703 1.804.702-.186.703 1.222.703 1.955.703.198.702 4.422.703 1.886.703 1.396.703 3.48.702 1.606.703.151.703.49.703-.548.703 2.945.702 1.536.703.559 2.108 2.188.703 1.315 2.108 4.667.703 1.408.703-.14.703.024.703.663.702.046.703.303.703 1.513 1.405 1.513.703.303 1.406 2.572.702.442.703.14.703.71.703.302.703-.151.702.198.703.593.703 1.094 1.405.675.703-.337 2.811-.175 1.406 1.083 1.405.186.703.814.703-.011.703.314.702-.57.703.43.703.256.703-.081.703 1.047.702-.57.703-1.222.703-.745.703-1.466.702-.42.703-.57.703-2.374.703-.512.702.152.703.57 2.109.826.702-.035.703.128.703.396.703-.21 1.405-1.396.703.372.703-.547.702.221.703-.058.703-.477.703.629.703.116.702-.28 1.406.652 1.405.42.703-.07.703-.198 1.405.721.703.198.703-.326.703 1.094 1.405 1.362.703-.117.703.722.703-.186.702.477.703-.419.703.081.703-.128.703.245.702 2.188.703.163.703-.373.703.396.702.082.703.302.703.082.703-1.397 1.405 2.258.703 1.234.703.477.703-.21 1.405.314 1.406 1.676 1.405-.267.703.651.703.14.702.547.703-.35.703-.127.703.128.703.349 1.405.023.703.187.703 1 .702.14 1.406.698 2.811.291.703.35.703-.082.702.605 1.406.093.703.303.702.093.703.372.703.233.703-.22 2.108.057.703.233.703-.012.702.361.703.151 1.406.047.702-.093.703.105 2.811-.384 2.109-.094.702.245 2.811.186.703.221 2.109-.035 2.81-.081 2.812.442 1.405-.012 2.109-.256.702.07 1.406-.07h.703l1.405-.36 2.109-.059 2.108-.384.703.187.702-.14.703-.36 2.811-.094 2.109-.454.702-.244.703.151 1.406-.151.702-.559.703-.21.703.408.703-.21.702-.349.703-.011.703-.152.703.14 1.405-1.07 1.406.127.703.035.702-.232.703.046.703.559 1.405-.14.703.221 2.811.047.703-.152.703.012.703-.175 1.405.024.703-.186.703-.047.703.244.702-.116.703.081 2.108-.034.703.058.703-.594 2.108-.28.703-.465.703-.256.703-.686 2.81-.291.703.547.703-.931 2.108-1.443 1.406-.163.703-1.025.703-.488.702-.815.703-.43.703-1.002 1.405-.325.703-1.118.703-.675.703-.337.702-.117 2.109-.686 1.405-.99.703-1.012.703-1.816.703-.64.702-.337.703-.128.703-.92.703-1.292 1.405-.814.703-.873.703.116 1.405-.22 2.109-2.934.702-1.536 1.406-.85.703-.86.703.86.702-.663.703.547.703 1.117.703-.558.702-.035.703.128.703-.664.703 1.13.702.78.703 2.99.703 1.07.703.583 1.405 2.165 1.406 1.035.703-.314.702.489.703.012.703.186.703.791.702-.698.703.686.703-.977.703-.36.703.185.702.396.703-.442.703 1.478.703-.256 1.405.733.703.256 1.406 3.189.702.954.703 1.35.703.652 2.108-.303.703.85.703.535 2.108-.093.703-.384.703.303.702-.35.703.28h.703l1.405.326 1.406.268 1.405-1.746.703-.652 1.406-.5.703.081.702-.768.703.29.703-.267.703-.442 1.405-.314.703.233 1.405-1.339.703.21.703.442.703-.466.703.187.702-.024.703.827.703-.024.703-.279.702-.757.703-.058 1.406.07.703-1.036.702-.151.703.093.703.489 2.108.14 1.406 1 .702-.22 1.406.593 1.406.081.702.222.703-.699.703-.256 1.405-1.385 1.406-.081.703-.5.702-.222.703-3.445.703 3.503h0" clip-path="url(#pa3b5e4b6a3)" style="fill:none;stroke:#d62728;stroke-width:1.5;stroke-linecap:square" id="line2d_27"/><path d="m49.83 284.4 35.841-.07 2.811-.326 3.514-.721 1.406-.338 1.405-.652.703-.768.703-.232.703-.78.702-.186.703-.64 1.406-2.026.702-.547.703-.838.703.222.703-.675.703-.315 1.405-1.78.703-.664.703-1.28.702-1.7.703-.104.703-.233 1.406 1.036.702-2.758 1.406-3.445.703-1.408.702-2.235.703-3.794.703-3.084.703-.791.702-.384.703.046.703-.71.703.012.703-1.06.702-2.56.703-1.268.703-4.9.703-3.375.702-2.06 1.406-5.249.703-1.501 1.405-3.41.703-.71.703.128.703-2.386 2.108-10.812.703-.791.702-4.027.703-2.351.703.093.703.885.702.174 1.406-2.642 1.406 4.295.702-.163.703-3.62.703-1.548.703-3.724 1.405 1.443.703-.058.703-1.42.703 2.002.702-.512 1.406 5.528.703-.652.702-1.838.703 1.152.703-1.618.703.617.702.337.703-3.829.703-1.454.703.593.703.023.702-.86.703.942.703.687.703 2.083.702-.57.703-.128.703.465.703 1.036.702.21.703-.92.703-2.56.703-.338 1.405.85.703.197.703-1.012.703.43.702-.989.703 1.49.703-.687.703-1.745.702.07.703-1.246.703-.896.703 2.037.703 1.024.702-1.06.703.78 1.406-.453.702-.163.703-.49.703-2.967.703 1.478.703.966.702.687 1.406 2.42.703-1.187.702 1.84.703.663.703.966.703-1.164.702-1.944.703-.28.703 2.12.703 1.326.703-.524.702-2.176 1.406 4.027.703-.187.702.908.703 1.21.703-.209.703-.081.702-1.84.703.245.703.058.703-.512.703-1.222.702 1.537.703.85.703 1.733.703.978.702 2.933.703 2.35.703-.802.703.628.702.885.703.616.703-1.454.703 1.373h.703l.702 3.41.703-.663.703 3.805.703 7.274.702.547.703-1.245.703.011.703-1.897.703.617.702-1.606.703-6.482.703 2.27.703 1.221.702.233.703 1 .703.63.703-.094.702 3.352.703.35.703.86.703.07.703-.477.702.14.703.873.703-.745.703-.582.702.256.703 1.955.703 1.56.703-.222.702-.023.703.559.703 2.99.703.443h.703l.702.629.703.93.703 2.317.703 5.027.702-.081.703-.92.703.129.703 1.384.702.5.703-1.535.703-3.143.703 1.874.703 3.596.702.931.703.326.703.024.703.279.702 1.42.703.78.703-.536.703-.116.703 1.105.702.35.703 1.594.703 2.77.703-1.327.702-.605.703 3.515.703.745.703.15.702-.244.703 1.048.703.512 1.406-7.39.702-5.89.703.583.703-.827.703-5.586.702-2.095.703 3.294.703.733.703 4.387.702-.442.703-1.14.703.593.703 1.525.703-.698.702-.536.703-2.176.703-.64.703.046 2.108-1.92 1.405-2.584.703-1.245.703-.861.703-1.315.703-2.025.702-.094.703.198.703-.349.703.524.702-1.024.703-1.583.703-1.024.703-3.399.703-1.815.702.21.703-1.444.703-.558 1.405-.687 1.406 7.402.703 4.224.702.955.703.267.703-.954 1.406-5.912.702.151.703.035.703.303.703-.687.702-1.594.703-.163.703-5.843.703-7.122.702-8.333.703-2.084.703 1.234.703.733.703-.384.702 4.237.703-.629.703-.058.703-.71.702.175.703-.408.703-1.524.703-2.247.702.745.703-1.524.703-.512.703-2.491.703.058.702.687.703-1.06.703-.185.703-.547.702.314.703.78.703-1.234.703 1.594.703 1.886.702-1.909.703 2.968.703.92.703-1.141.702-.629 1.406-3.817.703.36.702-1.024.703-1.908.703 1.28.703 2.595.703 2.002.702.035.703-1.292.703-.07.703.547.702-1.163 1.406-6.099.703-1.583.702-.14.703-2.571.703-1.944.703-1.362 1.405-8.891.703-2.712.703-4.318.703-2.77 1.405-7.204.703-2.677.703-6.203 1.405-9.252.703-5.424.703.326.703-2.467.702-10.463.703-3.259 1.406-12.371.702-4.795.703-2.06 1.406-6.587.702 4.003.703.815.703-9.94.703-12.114.703-3.9.702-4.771.703-5.912.703-18.715.703-11.65.702 8.252.703 17.457.703 3.957.703 1.176.703-4.807.702 2.956.703-5.737.703-11.068.703-5.459.702-7.157.703 2.34.703 3.619.703 2.63.702 7.646.703 4.83.703-5.807.703 3.899.703-.524.702 4.771.703 2.887.703 16.759.703 3.433.702 1.292.703 2.188.703 4.376.703 3.096.702 2.153.703-11.417.703 2.106.703 6.122.703.791.702 2.968.703 1.187.703 2.805.703 5.773.702 7.855.703 1.84.703 4.003.703.163.702 8.542.703 2.211.703 3.015.703-.012.703.943.702-1.618.703.303.703-2.398.703.943.702-2.723.703.71.703 3.2.703 2.002.703 2.595.702 3.108.703.43.703 4.772.703-3.492.702-2.502.703-.28.703-1.21.703-1.745.702-.524.703 2.176.703 14.374.703 3.154.703.384.702-2.13.703-3.655.703 1.35.703-6.878.702-11.475.703-3.538.703-2.793.703 1.501.702-.43.703-3.608.703 2.223.703-3.48.703-2.689.702 1.036.703.454.703 6.773.703 5.086.702 3.212.703 5.447.703 8.007 1.405 6.716.703 1.92.703 2.34.703 1.233.703 1.536.702-1.385.703-.582.703-.873.703 2.084.702 5.574.703 2.386.703 4.702.703 5.563.703 2.398.702.081.703 1.164.703.57.703 1.373.702.966.703-1.315.703.978.703 1.327.702 3.258.703 1.583.703 2.072.703 1.14.703 2.212.702.023.703.5.703 1.048.703.314.702 1.047.703 4.726.703 1.536.703.745.702.942.703.606.703 3.503.703 2.502.703-.861.702-.582 1.406.721.703-.36.702.314.703 1.28.703.78.703 1.012h.702l.703 1.094.703 2.025.703.64 1.405-.104.703 3.503.703.652.703-.035.702 2.735.703 1.198.703 1.77.703.884.703-.21.702.64.703 1.153.703-.256.703 2.211 1.405 1.944.703-.105.703.081.702 1.14.703 6.448.703 5.214.703-.488.703 1.21 1.405-.687.703-.745.703-4.085.702-6.424.703 1.874.703-.023.703.966.702.593.703.221.703.058.703 1.583.703.396.702-.489.703.535.703-.209.703.826.702-1.676.703-.186.703.245.703 2.21.702 1.002.703.465.703-.116 1.406 2.84.702 2.094.703-1.629.703.442.703.873.702-.035.703 5.924.703 4.237.703-1.676.703 1.431.702-.57.703.268.703.058 1.405-4.62.703 1.233.703.698.703 1.339.702.104.703-.058.703-.28.703-.418.703 1.082.702.454.703 1.56.703-.163.703 1.21 1.405 5.773.703-.71.703.302.702-1.012.703.733.703-.198.703-.652.703-.919.702 2.258.703-2.782 1.406.012.702.582.703.756.703-1.257.703-.372.702 4.457.703 1.164.703-.36.703-.652.703-1.77.702 1.234.703-.186.703-.78.703-.232 1.405.279.703-.36.703.034.703 1.07 1.405 1.77.703.105.703-.163.702.756.703.326.703-.047.703.07.702 1.083.703-.128.703 1.012.703 1.723.703-.675.702.896.703.349.703-.99.703.315.702-.442.703.488.703 1.77.703-.035.702.407.703 1.245 1.406.314.703-1.28.702.338.703-.326.703.908.703-.024.702.14 1.406-.081.703 1.361.702 1.793 1.406-1.92.703-3.26.703-.5.702.466.703-1.56.703-2.2 1.405-1.396.703 2.56.703-.419 2.108-6.215 1.406-3.63.703-.99.702-1.338.703-1.956.703-3.095.703-3.748 1.405-8.903.703-1.176.703-2.013.703-3.189 1.405-7.96.703-2.142 1.405-3.13.703.08 1.406-8.88.702.967.703-1.92.703-.57.703 1.07.703-.535 1.405 6.168.703-1.664.703-.64.702.279.703-.815.703 1.77.703 1.256.702.477.703.827.703 4.55 1.406 3.62.702 1.012 2.109 19.052.702 1.106.703-.07 1.406.698.703-2.793.702-3.503.703-.5.703 2.734.703 3.527.702 1.129.703.14.703 1.92.703 3.258.702 1.758.703.675.703 1.164.703.22.703 1.141.702-1.036.703.838 1.406 3.469.702 1.163.703-.081.703.372.703 1.502.702.232.703.71.703.14h0" clip-path="url(#pa3b5e4b6a3)" style="fill:none;stroke:#9467bd;stroke-width:1.5;stroke-linecap:square" id="line2d_28"/><g style="fill:#1f77b4" transform="matrix(.14 0 0 -.14 624.57 223.066)" id="text_17"><defs><path id="DejaVuSans-55" d="M556 4666h635V1831q0-750 271-1080 272-329 882-329 606 0 878 329 272 330 272 1080v2835h634V1753q0-912-452-1378Q3225-91 2344-91q-885 0-1337 466-451 466-451 1378v2913z" transform="scale(.01563)"/><path id="DejaVuSans-53" d="M3425 4513v-616q-359 172-678 256-319 85-616 85-515 0-795-200t-280-569q0-310 186-468 186-157 705-254l381-78q706-135 1042-474t336-907q0-679-455-1029Q2797-91 1919-91q-331 0-705 75-373 75-773 222v650q384-215 753-325 369-109 725-109 540 0 834 212 294 213 294 607 0 343-211 537t-692 291l-385 75q-706 140-1022 440-315 300-315 835 0 619 436 975t1201 356q329 0 669-60 341-59 697-177z" transform="scale(.01563)"/></defs><use xlink:href="#DejaVuSans-55"/><use xlink:href="#DejaVuSans-53" x="73.193"/></g><g style="fill:#ff7f0e" transform="matrix(.14 0 0 -.14 624.57 244.92)" id="text_18"><defs><path id="DejaVuSans-52" d="M2841 2188q203-69 395-294t386-619L4263 0h-679l-596 1197q-232 469-449 622t-592 153h-688V0H628v4666h1425q800 0 1194-335 394-334 394-1009 0-441-205-732-205-290-595-402zM1259 4147V2491h794q456 0 689 211t233 620q0 409-233 617t-689 208h-794z" transform="scale(.01563)"/><path id="DejaVuSans-75" d="M544 1381v2119h575V1403q0-497 193-746 194-248 582-248 465 0 735 297 271 297 271 810v1984h575V0h-575v538q-209-319-486-474-276-155-642-155-603 0-916 375-312 375-312 1097zm1447 2203z" transform="scale(.01563)"/><path id="DejaVuSans-73" d="M2834 3397v-544q-243 125-506 187-262 63-544 63-428 0-642-131t-214-394q0-200 153-314t616-217l197-44q612-131 870-370t258-667q0-488-386-773Q2250-91 1575-91q-281 0-586 55T347 128v594q319-166 628-249 309-82 613-82 406 0 624 139 219 139 219 392 0 234-158 359-157 125-692 241l-200 47q-534 112-772 345-237 233-237 639 0 494 350 762 350 269 994 269 318 0 599-47 282-46 519-140z" transform="scale(.01563)"/><path id="DejaVuSans-69" d="M603 3500h575V0H603v3500zm0 1363h575v-729H603v729z" transform="scale(.01563)"/><path id="DejaVuSans-61" d="M2194 1759q-697 0-966-159t-269-544q0-306 202-486 202-179 548-179 479 0 768 339t289 901v128h-572zm1147 238V0h-575v531q-197-318-491-470T1556-91q-537 0-855 302-317 302-317 808 0 590 395 890 396 300 1180 300h807v57q0 397-261 614t-733 217q-300 0-585-72-284-72-546-216v532q315 122 612 182 297 61 578 61 760 0 1135-394 375-393 375-1193z" transform="scale(.01563)"/></defs><use xlink:href="#DejaVuSans-52"/><use xlink:href="#DejaVuSans-75" x="64.982"/><use xlink:href="#DejaVuSans-73" x="128.361"/><use xlink:href="#DejaVuSans-73" x="180.461"/><use xlink:href="#DejaVuSans-69" x="232.561"/><use xlink:href="#DejaVuSans-61" x="260.344"/></g><g style="fill:#2ca02c" transform="matrix(.14 0 0 -.14 624.57 258.92)" id="text_19"><defs><path id="DejaVuSans-4b" d="M628 4666h631V2694l2094 1972h813L1850 2491 4331 0h-831L1259 2247V0H628v4666z" transform="scale(.01563)"/><path id="DejaVuSans-6f" d="M1959 3097q-462 0-731-361t-269-989q0-628 267-989 268-361 733-361 460 0 728 362 269 363 269 988 0 622-269 986-268 364-728 364zm0 487q750 0 1178-488 429-487 429-1349 0-859-429-1349Q2709-91 1959-91q-753 0-1180 489-426 490-426 1349 0 862 426 1349 427 488 1180 488z" transform="scale(.01563)"/><path id="DejaVuSans-72" d="M2631 2963q-97 56-211 82-114 27-251 27-488 0-749-317t-261-911V0H581v3500h578v-544q182 319 472 473 291 155 707 155 59 0 131-8 72-7 159-23l3-590z" transform="scale(.01563)"/><path id="DejaVuSans-65" d="M3597 1894v-281H953q38-594 358-905t892-311q331 0 642 81t618 244V178Q3153 47 2828-22t-659-69q-838 0-1327 487-489 488-489 1320 0 859 464 1363 464 505 1252 505 706 0 1117-455 411-454 411-1235zm-575 169q-6 471-264 752-258 282-683 282-481 0-770-272t-333-766l2050 4z" transform="scale(.01563)"/><path id="DejaVuSans-2c" d="M750 794h659V256L897-744H494L750 256v538z" transform="scale(.01563)"/><path id="DejaVuSans-74" d="M1172 4494v-994h1184v-447H1172V1153q0-428 117-550t477-122h590V0h-590q-666 0-919 248-253 249-253 905v1900H172v447h422v994h578z" transform="scale(.01563)"/><path id="DejaVuSans-68" d="M3513 2113V0h-575v2094q0 497-194 743-194 247-581 247-466 0-735-297-269-296-269-809V0H581v4863h578V2956q207 316 486 472 280 156 646 156 603 0 912-373 310-373 310-1098z" transform="scale(.01563)"/></defs><use xlink:href="#DejaVuSans-4b"/><use xlink:href="#DejaVuSans-6f" x="60.576"/><use xlink:href="#DejaVuSans-72" x="121.758"/><use xlink:href="#DejaVuSans-65" x="160.621"/><use xlink:href="#DejaVuSans-61" x="222.145"/><use xlink:href="#DejaVuSans-2c" x="283.424"/><use xlink:href="#DejaVuSans-20" x="315.211"/><use xlink:href="#DejaVuSans-53" x="346.998"/><use xlink:href="#DejaVuSans-6f" x="410.475"/><use xlink:href="#DejaVuSans-75" x="471.656"/><use xlink:href="#DejaVuSans-74" x="535.035"/><use xlink:href="#DejaVuSans-68" x="574.244"/></g><g style="fill:#d62728" transform="matrix(.14 0 0 -.14 624.57 272.92)" id="text_20"><defs><path id="DejaVuSans-47" d="M3809 666v1253H2778v519h1656V434q-365-259-806-392-440-133-940-133-1094 0-1712 639-617 640-617 1780 0 1144 617 1783 618 639 1712 639 456 0 867-113 411-112 758-331v-672q-350 297-744 447t-828 150q-857 0-1287-478-429-478-429-1425 0-944 429-1422 430-478 1287-478 334 0 596 58 263 58 472 180z" transform="scale(.01563)"/><path id="DejaVuSans-6d" d="M3328 2828q216 388 516 572t706 184q547 0 844-383 297-382 297-1088V0h-578v2094q0 503-179 746-178 244-543 244-447 0-707-297-259-296-259-809V0h-578v2094q0 506-178 748t-550 242q-441 0-701-298-259-298-259-808V0H581v3500h578v-544q197 322 472 475t653 153q382 0 649-194 267-193 395-562z" transform="scale(.01563)"/><path id="DejaVuSans-6e" d="M3513 2113V0h-575v2094q0 497-194 743-194 247-581 247-466 0-735-297-269-296-269-809V0H581v3500h578v-544q207 316 486 472 280 156 646 156 603 0 912-373 310-373 310-1098z" transform="scale(.01563)"/><path id="DejaVuSans-79" d="M2059-325q-243-625-475-815-231-191-618-191H506v481h338q237 0 368 113 132 112 291 531l103 262L191 3500h609L1894 763l1094 2737h609L2059-325z" transform="scale(.01563)"/></defs><use xlink:href="#DejaVuSans-47"/><use xlink:href="#DejaVuSans-65" x="77.49"/><use xlink:href="#DejaVuSans-72" x="139.014"/><use xlink:href="#DejaVuSans-6d" x="178.377"/><use xlink:href="#DejaVuSans-61" x="275.789"/><use xlink:href="#DejaVuSans-6e" x="337.068"/><use xlink:href="#DejaVuSans-79" x="400.447"/></g><g style="fill:#9467bd" transform="matrix(.14 0 0 -.14 624.57 286.92)" id="text_21"><defs><path id="DejaVuSans-42" d="M1259 2228V519h1013q509 0 754 211 246 211 246 645 0 438-246 645-245 208-754 208H1259zm0 1919V2741h935q462 0 688 173 227 174 227 530 0 353-227 528-226 175-688 175h-935zm-631 519h1613q722 0 1112-300 391-300 391-853 0-429-200-682t-588-315q466-100 724-418 258-317 258-792 0-625-425-966Q3088 0 2303 0H628v4666z" transform="scale(.01563)"/><path id="DejaVuSans-7a" d="M353 3500h2731v-525L922 459h2162V0H275v525l2163 2516H353v459z" transform="scale(.01563)"/><path id="DejaVuSans-6c" d="M603 4863h575V0H603v4863z" transform="scale(.01563)"/></defs><use xlink:href="#DejaVuSans-42"/><use xlink:href="#DejaVuSans-72" x="68.604"/><use xlink:href="#DejaVuSans-61" x="109.717"/><use xlink:href="#DejaVuSans-7a" x="170.996"/><use xlink:href="#DejaVuSans-69" x="223.486"/><use xlink:href="#DejaVuSans-6c" x="251.27"/></g></g></g><defs><clipPath id="pa3b5e4b6a3"><path d="M49.83 7.2h558v277.2h-558z"/></clipPath></defs></svg>