<svg xmlns:xlink="http://www.w3.org/1999/xlink" width="985.137" height="420.093" viewBox="0 0 738.852 315.07" xmlns="http://www.w3.org/2000/svg"><defs><style>*{stroke-linejoin:round;stroke-linecap:butt}</style></defs><g id="figure_1"><path d="M0 315.07h738.852V0H0v315.07z" style="fill:none" id="patch_1"/><g id="axes_1"><path d="M67.645 287.32h558V10.12h-558v277.2z" style="fill:none" id="patch_2"/><g id="matplotlib.axis_1"><g id="xtick_1"><g id="line2d_1"><defs><path id="m9c92fd855b" d="M0 0v3.5" style="stroke:#b0b0b0;stroke-width:.4"/></defs><use xlink:href="#m9c92fd855b" x="104.923" y="287.321" style="fill:#b0b0b0;stroke:#b0b0b0;stroke-width:.4"/></g><g style="fill:#b0b0b0" transform="matrix(.14 0 0 -.14 75.675 304.959)" id="text_1"><defs><path id="DejaVuSans-32" d="M1228 531h2203V0H469v531q359 372 979 998 621 627 780 809 303 340 423 576 121 236 121 464 0 372-261 606-261 235-680 235-297 0-627-103-329-103-704-313v638q381 153 712 231 332 78 607 78 725 0 1156-363 431-362 431-968 0-288-108-546-107-257-392-607-78-91-497-524-418-433-1181-1211z" transform="scale(.01563)"/><path id="DejaVuSans-30" d="M2034 4250q-487 0-733-480-245-479-245-1442 0-959 245-1439 246-480 733-480 491 0 736 480 246 480 246 1439 0 963-246 1442-245 480-736 480zm0 500q785 0 1199-621 414-620 414-1801 0-1178-414-1799Q2819-91 2034-91q-784 0-1198 620-414 621-414 1799 0 1181 414 1801 414 621 1198 621z" transform="scale(.01563)"/><path id="DejaVuSans-2d" d="M313 2009h1684v-512H313v512z" transform="scale(.01563)"/><path id="DejaVuSans-34" d="M2419 4116 825 1625h1594v2491zm-166 550h794V1625h666v-525h-666V0h-628v1100H313v609l1940 2957z" transform="scale(.01563)"/></defs><use xlink:href="#DejaVuSans-32"/><use xlink:href="#DejaVuSans-30" x="63.623"/><use xlink:href="#DejaVuSans-32" x="127.246"/><use xlink:href="#DejaVuSans-30" x="190.869"/><use xlink:href="#DejaVuSans-2d" x="254.492"/><use xlink:href="#DejaVuSans-30" x="290.576"/><use xlink:href="#DejaVuSans-34" x="354.199"/></g></g><g id="xtick_2"><use xlink:href="#m9c92fd855b" x="157.927" y="287.321" style="fill:#b0b0b0;stroke:#b0b0b0;stroke-width:.4" id="line2d_2"/><g style="fill:#b0b0b0" transform="matrix(.14 0 0 -.14 128.679 304.959)" id="text_2"><defs><path id="DejaVuSans-37" d="M525 4666h3000v-269L1831 0h-659l1594 4134H525v532z" transform="scale(.01563)"/></defs><use xlink:href="#DejaVuSans-32"/><use xlink:href="#DejaVuSans-30" x="63.623"/><use xlink:href="#DejaVuSans-32" x="127.246"/><use xlink:href="#DejaVuSans-30" x="190.869"/><use xlink:href="#DejaVuSans-2d" x="254.492"/><use xlink:href="#DejaVuSans-30" x="290.576"/><use xlink:href="#DejaVuSans-37" x="354.199"/></g></g><g id="xtick_3"><use xlink:href="#m9c92fd855b" x="211.513" y="287.321" style="fill:#b0b0b0;stroke:#b0b0b0;stroke-width:.4" id="line2d_3"/><g style="fill:#b0b0b0" transform="matrix(.14 0 0 -.14 182.266 304.959)" id="text_3"><defs><path id="DejaVuSans-31" d="M794 531h1031v3560L703 3866v575l1116 225h631V531h1031V0H794v531z" transform="scale(.01563)"/></defs><use xlink:href="#DejaVuSans-32"/><use xlink:href="#DejaVuSans-30" x="63.623"/><use xlink:href="#DejaVuSans-32" x="127.246"/><use xlink:href="#DejaVuSans-30" x="190.869"/><use xlink:href="#DejaVuSans-2d" x="254.492"/><use xlink:href="#DejaVuSans-31" x="290.576"/><use xlink:href="#DejaVuSans-30" x="354.199"/></g></g><g id="xtick_4"><use xlink:href="#m9c92fd855b" x="265.1" y="287.321" style="fill:#b0b0b0;stroke:#b0b0b0;stroke-width:.4" id="line2d_4"/><g style="fill:#b0b0b0" transform="matrix(.14 0 0 -.14 235.852 304.959)" id="text_4"><use xlink:href="#DejaVuSans-32"/><use xlink:href="#DejaVuSans-30" x="63.623"/><use xlink:href="#DejaVuSans-32" x="127.246"/><use xlink:href="#DejaVuSans-31" x="190.869"/><use xlink:href="#DejaVuSans-2d" x="254.492"/><use xlink:href="#DejaVuSans-30" x="290.576"/><use xlink:href="#DejaVuSans-31" x="354.199"/></g></g><g id="xtick_5"><use xlink:href="#m9c92fd855b" x="317.522" y="287.321" style="fill:#b0b0b0;stroke:#b0b0b0;stroke-width:.4" id="line2d_5"/><g style="fill:#b0b0b0" transform="matrix(.14 0 0 -.14 288.274 304.959)" id="text_5"><use xlink:href="#DejaVuSans-32"/><use xlink:href="#DejaVuSans-30" x="63.623"/><use xlink:href="#DejaVuSans-32" x="127.246"/><use xlink:href="#DejaVuSans-31" x="190.869"/><use xlink:href="#DejaVuSans-2d" x="254.492"/><use xlink:href="#DejaVuSans-30" x="290.576"/><use xlink:href="#DejaVuSans-34" x="354.199"/></g></g><g id="xtick_6"><use xlink:href="#m9c92fd855b" x="370.526" y="287.321" style="fill:#b0b0b0;stroke:#b0b0b0;stroke-width:.4" id="line2d_6"/><g style="fill:#b0b0b0" transform="matrix(.14 0 0 -.14 341.278 304.959)" id="text_6"><use xlink:href="#DejaVuSans-32"/><use xlink:href="#DejaVuSans-30" x="63.623"/><use xlink:href="#DejaVuSans-32" x="127.246"/><use xlink:href="#DejaVuSans-31" x="190.869"/><use xlink:href="#DejaVuSans-2d" x="254.492"/><use xlink:href="#DejaVuSans-30" x="290.576"/><use xlink:href="#DejaVuSans-37" x="354.199"/></g></g><g id="xtick_7"><use xlink:href="#m9c92fd855b" x="424.113" y="287.321" style="fill:#b0b0b0;stroke:#b0b0b0;stroke-width:.4" id="line2d_7"/><g style="fill:#b0b0b0" transform="matrix(.14 0 0 -.14 394.865 304.959)" id="text_7"><use xlink:href="#DejaVuSans-32"/><use xlink:href="#DejaVuSans-30" x="63.623"/><use xlink:href="#DejaVuSans-32" x="127.246"/><use xlink:href="#DejaVuSans-31" x="190.869"/><use xlink:href="#DejaVuSans-2d" x="254.492"/><use xlink:href="#DejaVuSans-31" x="290.576"/><use xlink:href="#DejaVuSans-30" x="354.199"/></g></g><g id="xtick_8"><use xlink:href="#m9c92fd855b" x="477.699" y="287.321" style="fill:#b0b0b0;stroke:#b0b0b0;stroke-width:.4" id="line2d_8"/><g style="fill:#b0b0b0" transform="matrix(.14 0 0 -.14 448.451 304.959)" id="text_8"><use xlink:href="#DejaVuSans-32"/><use xlink:href="#DejaVuSans-30" x="63.623"/><use xlink:href="#DejaVuSans-32" x="127.246"/><use xlink:href="#DejaVuSans-32" x="190.869"/><use xlink:href="#DejaVuSans-2d" x="254.492"/><use xlink:href="#DejaVuSans-30" x="290.576"/><use xlink:href="#DejaVuSans-31" x="354.199"/></g></g><g id="xtick_9"><use xlink:href="#m9c92fd855b" x="530.121" y="287.321" style="fill:#b0b0b0;stroke:#b0b0b0;stroke-width:.4" id="line2d_9"/><g style="fill:#b0b0b0" transform="matrix(.14 0 0 -.14 500.873 304.959)" id="text_9"><use xlink:href="#DejaVuSans-32"/><use xlink:href="#DejaVuSans-30" x="63.623"/><use xlink:href="#DejaVuSans-32" x="127.246"/><use xlink:href="#DejaVuSans-32" x="190.869"/><use xlink:href="#DejaVuSans-2d" x="254.492"/><use xlink:href="#DejaVuSans-30" x="290.576"/><use xlink:href="#DejaVuSans-34" x="354.199"/></g></g><g id="xtick_10"><use xlink:href="#m9c92fd855b" x="583.125" y="287.321" style="fill:#b0b0b0;stroke:#b0b0b0;stroke-width:.4" id="line2d_10"/><g style="fill:#b0b0b0" transform="matrix(.14 0 0 -.14 553.877 304.959)" id="text_10"><use xlink:href="#DejaVuSans-32"/><use xlink:href="#DejaVuSans-30" x="63.623"/><use xlink:href="#DejaVuSans-32" x="127.246"/><use xlink:href="#DejaVuSans-32" x="190.869"/><use xlink:href="#DejaVuSans-2d" x="254.492"/><use xlink:href="#DejaVuSans-30" x="290.576"/><use xlink:href="#DejaVuSans-37" x="354.199"/></g></g></g><g id="matplotlib.axis_2"><g id="ytick_1"><path d="M67.645 287.32h558" clip-path="url(#p780ca22d74)" style="fill:none;stroke:#b0b0b0;stroke-width:.3;stroke-linecap:square" id="line2d_11"/><g id="line2d_12"><defs><path id="mbee989c09c" d="M0 0h-3.5" style="stroke:#b0b0b0;stroke-width:.3"/></defs><use xlink:href="#mbee989c09c" x="67.645" y="287.321" style="fill:#b0b0b0;stroke:#b0b0b0;stroke-width:.3"/></g><use xlink:href="#DejaVuSans-30" style="fill:#b0b0b0" transform="matrix(.14 0 0 -.14 51.737 292.64)" id="text_11"/></g><g id="ytick_2"><path d="M67.645 252.97h558" clip-path="url(#p780ca22d74)" style="fill:none;stroke:#b0b0b0;stroke-width:.3;stroke-linecap:square" id="line2d_13"/><use xlink:href="#mbee989c09c" x="67.645" y="252.97" style="fill:#b0b0b0;stroke:#b0b0b0;stroke-width:.3" id="line2d_14"/><g style="fill:#b0b0b0" transform="matrix(.14 0 0 -.14 7.2 258.29)" id="text_12"><use xlink:href="#DejaVuSans-31"/><use xlink:href="#DejaVuSans-30" x="63.623"/><use xlink:href="#DejaVuSans-30" x="127.246"/><use xlink:href="#DejaVuSans-30" x="190.869"/><use xlink:href="#DejaVuSans-30" x="254.492"/><use xlink:href="#DejaVuSans-30" x="318.115"/></g></g><g id="ytick_3"><path d="M67.645 218.62h558" clip-path="url(#p780ca22d74)" style="fill:none;stroke:#b0b0b0;stroke-width:.3;stroke-linecap:square" id="line2d_15"/><use xlink:href="#mbee989c09c" x="67.645" y="218.62" style="fill:#b0b0b0;stroke:#b0b0b0;stroke-width:.3" id="line2d_16"/><g style="fill:#b0b0b0" transform="matrix(.14 0 0 -.14 7.2 223.94)" id="text_13"><use xlink:href="#DejaVuSans-32"/><use xlink:href="#DejaVuSans-30" x="63.623"/><use xlink:href="#DejaVuSans-30" x="127.246"/><use xlink:href="#DejaVuSans-30" x="190.869"/><use xlink:href="#DejaVuSans-30" x="254.492"/><use xlink:href="#DejaVuSans-30" x="318.115"/></g></g><g id="ytick_4"><path d="M67.645 184.27h558" clip-path="url(#p780ca22d74)" style="fill:none;stroke:#b0b0b0;stroke-width:.3;stroke-linecap:square" id="line2d_17"/><use xlink:href="#mbee989c09c" x="67.645" y="184.27" style="fill:#b0b0b0;stroke:#b0b0b0;stroke-width:.3" id="line2d_18"/><g style="fill:#b0b0b0" transform="matrix(.14 0 0 -.14 7.2 189.589)" id="text_14"><defs><path id="DejaVuSans-33" d="M2597 2516q453-97 707-404 255-306 255-756 0-690-475-1069Q2609-91 1734-91q-293 0-604 58T488 141v609q262-153 574-231 313-78 654-78 593 0 904 234t311 681q0 413-289 645-289 233-804 233h-544v519h569q465 0 712 186t247 536q0 359-255 551-254 193-729 193-260 0-557-57-297-56-653-174v562q360 100 674 150t592 50q719 0 1137-327 419-326 419-882 0-388-222-655t-631-370z" transform="scale(.01563)"/></defs><use xlink:href="#DejaVuSans-33"/><use xlink:href="#DejaVuSans-30" x="63.623"/><use xlink:href="#DejaVuSans-30" x="127.246"/><use xlink:href="#DejaVuSans-30" x="190.869"/><use xlink:href="#DejaVuSans-30" x="254.492"/><use xlink:href="#DejaVuSans-30" x="318.115"/></g></g><g id="ytick_5"><path d="M67.645 149.92h558" clip-path="url(#p780ca22d74)" style="fill:none;stroke:#b0b0b0;stroke-width:.3;stroke-linecap:square" id="line2d_19"/><use xlink:href="#mbee989c09c" x="67.645" y="149.92" style="fill:#b0b0b0;stroke:#b0b0b0;stroke-width:.3" id="line2d_20"/><g style="fill:#b0b0b0" transform="matrix(.14 0 0 -.14 7.2 155.239)" id="text_15"><use xlink:href="#DejaVuSans-34"/><use xlink:href="#DejaVuSans-30" x="63.623"/><use xlink:href="#DejaVuSans-30" x="127.246"/><use xlink:href="#DejaVuSans-30" x="190.869"/><use xlink:href="#DejaVuSans-30" x="254.492"/><use xlink:href="#DejaVuSans-30" x="318.115"/></g></g><g id="ytick_6"><path d="M67.645 115.57h558" clip-path="url(#p780ca22d74)" style="fill:none;stroke:#b0b0b0;stroke-width:.3;stroke-linecap:square" id="line2d_21"/><use xlink:href="#mbee989c09c" x="67.645" y="115.57" style="fill:#b0b0b0;stroke:#b0b0b0;stroke-width:.3" id="line2d_22"/><g style="fill:#b0b0b0" transform="matrix(.14 0 0 -.14 7.2 120.888)" id="text_16"><defs><path id="DejaVuSans-35" d="M691 4666h2478v-532H1269V2991q137 47 274 70 138 23 276 23 781 0 1237-428 457-428 457-1159 0-753-469-1171Q2575-91 1722-91q-294 0-599 50Q819 9 494 109v635q281-153 581-228t634-75q541 0 856 284 316 284 316 772 0 487-316 771-315 285-856 285-253 0-505-56-251-56-513-175v2344z" transform="scale(.01563)"/></defs><use xlink:href="#DejaVuSans-35"/><use xlink:href="#DejaVuSans-30" x="63.623"/><use xlink:href="#DejaVuSans-30" x="127.246"/><use xlink:href="#DejaVuSans-30" x="190.869"/><use xlink:href="#DejaVuSans-30" x="254.492"/><use xlink:href="#DejaVuSans-30" x="318.115"/></g></g><g id="ytick_7"><path d="M67.645 81.22h558" clip-path="url(#p780ca22d74)" style="fill:none;stroke:#b0b0b0;stroke-width:.3;stroke-linecap:square" id="line2d_23"/><use xlink:href="#mbee989c09c" x="67.645" y="81.219" style="fill:#b0b0b0;stroke:#b0b0b0;stroke-width:.3" id="line2d_24"/><g style="fill:#b0b0b0" transform="matrix(.14 0 0 -.14 7.2 86.538)" id="text_17"><defs><path id="DejaVuSans-36" d="M2113 2584q-425 0-674-291-248-290-248-796 0-503 248-796 249-292 674-292t673 292q248 293 248 796 0 506-248 796-248 291-673 291zm1253 1979v-575q-238 112-480 171-242 60-480 60-625 0-955-422-329-422-376-1275 184 272 462 417 279 145 613 145 703 0 1111-427 408-426 408-1160 0-719-425-1154Q2819-91 2113-91q-810 0-1238 620-428 621-428 1799 0 1106 525 1764t1409 658q238 0 480-47t505-140z" transform="scale(.01563)"/></defs><use xlink:href="#DejaVuSans-36"/><use xlink:href="#DejaVuSans-30" x="63.623"/><use xlink:href="#DejaVuSans-30" x="127.246"/><use xlink:href="#DejaVuSans-30" x="190.869"/><use xlink:href="#DejaVuSans-30" x="254.492"/><use xlink:href="#DejaVuSans-30" x="318.115"/></g></g><g id="ytick_8"><path d="M67.645 46.87h558" clip-path="url(#p780ca22d74)" style="fill:none;stroke:#b0b0b0;stroke-width:.3;stroke-linecap:square" id="line2d_25"/><use xlink:href="#mbee989c09c" x="67.645" y="46.869" style="fill:#b0b0b0;stroke:#b0b0b0;stroke-width:.3" id="line2d_26"/><g style="fill:#b0b0b0" transform="matrix(.14 0 0 -.14 7.2 52.188)" id="text_18"><use xlink:href="#DejaVuSans-37"/><use xlink:href="#DejaVuSans-30" x="63.623"/><use xlink:href="#DejaVuSans-30" x="127.246"/><use xlink:href="#DejaVuSans-30" x="190.869"/><use xlink:href="#DejaVuSans-30" x="254.492"/><use xlink:href="#DejaVuSans-30" x="318.115"/></g></g><g id="ytick_9"><path d="M67.645 12.519h558" clip-path="url(#p780ca22d74)" style="fill:none;stroke:#b0b0b0;stroke-width:.3;stroke-linecap:square" id="line2d_27"/><use xlink:href="#mbee989c09c" x="67.645" y="12.519" style="fill:#b0b0b0;stroke:#b0b0b0;stroke-width:.3" id="line2d_28"/><g style="fill:#b0b0b0" transform="matrix(.14 0 0 -.14 7.2 17.838)" id="text_19"><defs><path id="DejaVuSans-38" d="M2034 2216q-450 0-708-241-257-241-257-662 0-422 257-663 258-241 708-241t709 242q260 243 260 662 0 421-258 662-257 241-711 241zm-631 268q-406 100-633 378-226 279-226 679 0 559 398 884 399 325 1092 325 697 0 1094-325t397-884q0-400-227-679-226-278-629-378 456-106 710-416 255-309 255-755 0-679-414-1042Q2806-91 2034-91q-771 0-1186 362-414 363-414 1042 0 446 256 755 257 310 713 416zm-231 997q0-362 226-565 227-203 636-203 407 0 636 203 230 203 230 565 0 363-230 566-229 203-636 203-409 0-636-203-226-203-226-566z" transform="scale(.01563)"/></defs><use xlink:href="#DejaVuSans-38"/><use xlink:href="#DejaVuSans-30" x="63.623"/><use xlink:href="#DejaVuSans-30" x="127.246"/><use xlink:href="#DejaVuSans-30" x="190.869"/><use xlink:href="#DejaVuSans-30" x="254.492"/><use xlink:href="#DejaVuSans-30" x="318.115"/></g></g></g><path d="m67.645 287.32 40.19-.103 11.65-.019 15.143.111 25.046-.047 13.397-.208 8.737-.175 6.99.119 20.968.174 8.155-.03 14.561-.099 15.144-.491 7.572-.12 7.572-.229 2.33-.085 1.165.029 1.747-.218 1.165-.384 1.165-.379 1.165-.06 2.33.134 3.495.15 2.912.457 5.825.657 4.66.307 12.231.153 6.407-.057 6.407-.202 9.902-.588 6.407-.452 4.66-.155 1.165.16 5.242-.521 14.562 1.412 5.242.242 3.495.017 9.902-.181 2.912-.222 4.077-.453 1.165-.081 1.165-.309 1.165-.492 2.33-1.198 4.077-1.473.583.067 1.164-.267 1.748-.615.582-.139 1.165-.856 1.748-.842.582-.219 1.747-.186 1.165.097 2.33.639.583.215 6.99 3.952 4.659 1.606 1.747.426 1.748.214 1.165.064 1.747.202 2.912.192 5.243.169 25.046.16 21.55-.166 1.166-.292 1.165-.662 1.164-.647.583-.25.582-.518 1.165-1.481 1.748-2.419 1.747-4 1.747-3.973.583-1.17 3.495-9.02 1.165-1.732 1.747-3.207.583-.858.582-.58.582-.347.583-.957.582-.148.583.232.582-.005.583 1.662.582.61.583.388.582.83 1.748 1.083.582-.642 1.165.688.582.722.583.52.582 1.666.583 1.082 1.165.847.582.044.583.2.582.38.583-.448.582.1 1.165.894 1.165 1.248 2.33 1.68 1.747.536 1.165.659.583.329 1.164 1.076.583.235.582 1.499.583.829 1.165.278 1.747-.414.583-1.188.582-.623 6.407-1.163 2.33-.51.582.105.583.25 2.33 1.84 1.165.734.582.178 2.33.103 1.165.573.582.928.583.57.582.27.583.491 1.747 2.74 1.165-1.462 1.165-1.014 1.747-2.865.583-.005 1.165.696 1.165.44 1.747.383 1.748.556 1.164.767 5.243 4.241.582.275 1.165.38 1.747.552 1.165.227 4.66.383 1.747-.095 2.33-.288 1.165-.493 1.748-1.087 1.165-.8.582-.824 1.165-2.31 1.165-2.793.582-1.511.583-.998.582-1.954 1.748-7.45 1.165-5.257.582-1.916.583.456.582-2.847 2.33-16.753.582-2.469.583-6.363 1.165-5.102 1.165-2.334.582-1.04 1.165-1.358.582-1.968.583-.277.582-.607.583-.257.582-.43.583.093 1.747-.176.583 3.187.582 2.157.583 1.38.582-.037.582 2.274.583.929.582-.752.583-4.526.582-3.418.583-2.346.582-.12.583-2.078.582-.59.583 1.697 1.747 10.31.583 2.213.582 2.746 1.165 7.112 1.165 5.847.582 2.453.583 1.367 1.747 5.77 1.748 4.29.582.742h0" clip-path="url(#p780ca22d74)" style="fill:none;stroke:#53a577;stroke-width:1.5;stroke-linecap:square" id="line2d_29"/><path d="m67.645 287.32 26.21-.097 2.33-.183 1.166-.312 1.747-.964 2.33-2.025.582-.6.583-.794.582-.353.583-.54.582-.774.583-1.162 1.165-1.39.582-.469 1.165-1.103.582-.185.583.224 1.165-.27 2.33.592 1.747.602 1.165.122.582-.167.583.125 1.165-.292.582.081.583-.16.582-.04.583.29 1.165.223.582.122.583-.164 1.164.306 1.748.177.582.095.583.378.582.121 1.165.475.583.028.582.212 1.748.212.582.003.582-.154.583.144.582-.136 1.165.088.583.196.582-.073 2.33.642 1.747-.12.583.065 1.165-.08.582-.328.583-.077 1.165.173 1.165.032.582-.132.583.27.582.037.582-.195.583-.056 1.747-.677 2.33-1.277.583-.436.582-.699 1.165-.997.583-.888.582-.441.582-.838 1.748-1.754.582-.773.583-.127.582-.255.583-.544.582-.101.583-.365.582-.546.583-.232 1.164-1.547.583-.306.582-.789 1.748-1.238.582.12.583-.187.582.062 1.748-.236.582.147.582-.426.583.027.582.165.583.041 1.165.35.582-.067.583.517 1.165.738.582.888.583.144 1.165.936.582.197 1.165-.664.582-.476.583.234.582-.053.583.422.582-.471.583.559.582.958 1.165 1.254.583.457.582.31.582 1.088.583.345 2.33.625.582-.26 1.165.188.583-.11 1.747.159.582.256 1.165-.124.583.25.582.434.583.73 1.165.582.582.188.583-.116 1.165-.954.582-.508 2.33-.772 1.165-.033 1.165-.183.582-.173 1.165.264.583.387 1.165-.48 1.164.241 1.165-.608 1.165.022.583-.132 1.165-1.103.582-.088.583-.288.582-.661 1.165-.521.583-.47.582-.275.582-.734.583.02.582-.267.583-1.266.582-.584.583-.108.582-.803.583-.58.582-1.139.583-.397.582.207.583-.804.582-1.329.582-.615.583-.903.582-.427 1.165-1.826.583-2.352.582-.673.583-1.83.582-1.404 1.748-5.76.582-.616.582-2.336.583-1.46.582-2.447.583-1.743.582-.937.583-1.793 2.33-5.198.582-.718.583-.333.582-1.398 1.165-.76.582 3.88.583-.676.582.5.583.28.582 1.266.583-1.17.582-.776.583-5.233.582-.989.583-2.578 1.165-3.747.582-1.41 1.165-1.72 1.165-.227 1.165-1.297.582.011.583-.903.582-.171.583-.47.582.868.583.217.582.632.582 1.052.583.659.582 1.358.583 5.948.582-.645.583 2.452.582 1.116.583-.046.582.097.583-5.025 1.165-5.216.582-3.286.583-.595.582-1.249.582-2.01.583 1.416.582-6.173.583.441.582-.324.583-.872.582.481.583 1.527 1.747 7.617.583 1.653 1.164 6.318 1.165 4.117.583 2.595 1.165 3.734.582.555.583.28.582 1.594 1.748 3.942.582 1.336.582.204 4.078 11.764.582 1.07.583 1.41.582.909 1.165 2.785.583 1.028.582 1.327.582 1.761.583 1.31.582 1.665.583 1.212.582.827.583.634.582.004.583-.687 1.165-.532.582-.003 1.165.31.582.29.583.744 2.33 1.685.582.496.583.263.582.14 1.165.789 1.747.608.583-.332.582.037 1.165-.128.583.066.582-.096 1.748.422.582-1.372.583-.255.582-.747.583-.271.582-.538.582-.895.583-.465.582.904.583-.464.582.111.583-.035.582.417 1.165-.134.583-.312.582-.147.583-.517.582-.287.582-.464.583.246.582-.849.583.043.582.272.583.081.582.735 1.165.337.583.902 1.165.899.582.985.582.053.583.462.582.813 1.165.938.583.417 1.747.73.583-.102 1.165.95 1.747 1.693.582.386.583.617 1.165.849 1.165.718 1.165.47 2.33 1.39.582.634.582.47 2.913 1.01 1.747 1.043.583.777.582.133 1.747 1.017.583-.107.582.064.583-.385.582.407.583-.08.582.17.583-.342.582.311 1.165.155.583.106.582.316 1.165.32 3.495-.114.582-.173 1.165.005.583-.15.582.16 1.747-.424.583.187.582.019.583.226.582-.739 1.165-.53.583-.853.582-.233.583-.368.582-1.007.583-.19 1.164-1.084.583-1.524.582-.198.583-.422.582-.96 1.165-1.48.583-1.203.582-2.1.583-.748.582-.405 1.165-2.678.583-1.262.582-.78.582-3.455 1.165-1.572 1.748-4.457.582-1.826.583-2.978.582-.944.583.476.582-2.497.583-.995.582-2.555.582-1.68.583 1.225 1.165-1.103 1.165-3.33 1.747-1.803.583-.952.582.123.583-.629.582-.193.582-.578.583-1.396.582.05.583.656.582-.384 1.165-2.287.583-.566 1.165.384.582-.352.583-.564.582 6.787.583-1.504 1.164 1.25.583-.32.582-.155.583.742.582-5.798.583 3.194.582.203.583.395.582 1.526.583.7.582.176.583 1.89.582 1.156.582 2.046.583 1.451.582 1.77.583.706.582-.473.583.76 1.165.903 1.165 1.9 1.747 1.705.582.868 1.165.892.583 1.192.582.463.583.257.582 2.344.583-.76.582.22.583.732.582 1.069.583-.051.582.384.583-.184.582 1.39.582.79.583.434.582.632.583.347.582.6.583-.63.582.736.583-.501 1.165.19.582-.096.583-.64 1.164-.136.583.773.582-.33 1.748-.406.582.122 1.165-.9.583 1.164.582-2.307.583-.436.582.25.582-1.165.583-.396.582-.849.583-2.503.582.877.583-.05 1.747-1.039.583.058 1.165 7.006.582.921.583-.175.582-2.168 1.165-2.527 1.165-10.017.582-1.937.583-.558.582.493.583.256.582-.612.583.708.582.022.583.504.582.151.582-.407.583-.045.582.182.583-.895.582-1.723.583-1.174.582-1.841 1.165-6.222.583-5.019.582-6.483.583-2.726.582-.33.582-4.563.583-12.995.582-9.339.583-12.935 1.165-28.816 1.165-10.592 1.165-48.756.582-8.092.583-12.068.582-18.055 1.165-20.232.582-15.289.583 2.05.582-8.734.583-1 .582-.002.583-.412.582.359.583 34.157.582-17.063.583-2.757.582 6.6.583 2.594 1.164 10.975.583-12.362.582 31.498 1.748 33.042.582 6.201.583 8.315.582 18.38.583 8.14.582 17.169 1.165 23.935.583 4.595.582 5.674.582 9.483.583 5.528.582 6.884.583 5.053.582 7.194.583 1.731.582 1.26.583 8.626.582 5.072 1.748 10.192.582 1.013.582 1.745.583 4.304.582 1.047 1.165 3.142.583 3.45.582-.774.583.245.582-.834.583 2.1.582 1.523.583.884.582 1.128.582 1.595.583.29.582 1.736 1.165 1.619 2.33.52.583 1.326.582.293 1.165-.692.583.842 1.164-.05.583-.34.582.113.583.24.582.487.583-.625 1.747.236.583-.1.582.09.583-.118.582.651.582-.115.583.345 1.165-.105.582-.09.583-.255.582-2.062.583-.05.582-.237h.583l.582-.503.583-.788.582.09.582 2.419.583-.493.582.093.583-1.053.582-.16 1.165-1.197.583-3.188.582.139.583-.297 1.165-.754.582-1.08.583-.817.582 1.354 1.165-.38.582-1.258.583-.234.582-1.106.583-.55.582-3.329.583-.198.582.528.583-1.733.582-1.02.583-2.385.582-.841.582 2.05.583.518.582-1.301.583-2.343.582-.724.583-2.105.582-1.472.583-3.021.582-.49.583.97.582 1.37.583.079.582-.335.582.008.583 2 .582.683.583.309.582 4.25.583-4.096.582-.894.583.648.582-2.403.583-.68.582-.451.583-4.773.582 3.949.583 1.476.582-.466.582 2.49.583-.353.582-.073.583.392.582-.163.583.678.582.094.583-1.605.582.862.583-.014.582 2.735.583-1.038.582-.023.582-.424.583 1.058.582-1.138.583-.207.582-3.15.583.662.582-.227.583-1.424.582-1.952.583 1.01.582.68.583 4.118.582-2.16.582-.518.583 1.403.582.942.583-.425.582-.788.583-6.133 1.165-.499.582-1.778.583-.764.582-.501.583-.249 1.165 3.288.582-.589.582-.016.583 1.064.582.632.583.314.582-1.213.583-.732.582-1.149.583-.079.582-1.368 1.165 1.005.583.972 1.164 3.952.583-.494.582 2.615 1.165.073.583.71.582-.436.583.206.582 1.2.583.46.582-3.373.583.138.582 1.595.582.388.583 2.921.582.67.583.942.582 3.565.583-.002 1.165-.659.582-.728.583.468.582-2.104 1.165.048 1.165 2.352.582-.087.583 1.082.582 2.78 1.165.124.583 4.183.582-1.705.583 1.514.582-.294.583-2.023.582-.337.583-.088.582-2.418h0" clip-path="url(#p780ca22d74)" style="fill:none;stroke:#7516fd;stroke-width:1.5;stroke-linecap:square" id="line2d_30"/><path d="m67.645 287.32 18.056-.104 4.078-.104 8.737.174 12.231.019 27.376.003 116.493-.263 5.242-.072 5.242.02 9.902.158 11.067.038 35.53-.068 11.65-.03 9.901.016 6.99.007 13.979.048 9.32-.126 6.989-.209 21.551-.134 6.99.052 8.737-.08 1.747.008 3.495-.265 1.747.082 5.242.202 6.99.162 3.495-.13 4.66-.15 6.406-.123 8.737-.585 3.495-.458 2.33-.331 3.495-.103 4.077.268 2.912.38 4.078.39 2.33.07 2.33-.085 2.33-.2 2.911-.703.583-.22 1.165-.743 4.66-3.733 2.33-3.757 1.747-4.27 2.33-3.734 1.165-3.92 1.165-5.063 1.164-4.374.583-2.08 1.165-7.748 2.33-10.946.582-1.935.583-2.345.582-1.414 1.165-9.277 1.165-7.418.582-3.127 1.165-12.362.583-.792 1.165-11.575.582-4.861.583-7.833.582-2.86.583-14.417.582-6.087.583.114.582.76.582 4.936.583.422.582-4.416.583 11.077.582 3.318.583 2.25.582.814.583 1.077.582.312 2.33 13.332.582 4.114.583 2.945.582 3.993.583 6.786.582 4.707 1.748 10.959.582 1.78.583 2.714 1.165 8.205 1.747 11.217.582 2.12 1.165 8.651.583 2.827.582 2.198 1.165 2.98.583.657 1.165 3.566.582 4.457.583-1.324 1.164 2.9.583.701 1.165 2.797.582-2.074.583 3.988.582.182 1.165-.138.583.056 1.165.565.582-.279.582.491.583.718.582.359 1.165 1.345 1.748 1.039.582.301.583.163 2.912 2.112.582.326.583.188 1.747 1.286 1.165.315 1.165.193.583.54.582.12.583-.11 1.747.454.582.059.583-.177 1.747.5 1.748.157 4.077.07 1.165-.1 1.747-.41 1.165-.326 1.747-1.281 1.748-1.459.582-.316 2.33-3.94 1.165-2.009.583-.668 1.747-5.117 1.165-2.795.582-1.232.583-.47 1.165-2.43 1.165-1.663.582-.659 1.165-.832.583-.61 1.164-1.926 1.748-4.326.582-.52 1.165-3.435.583-1.44 1.747-2.15.583-.333.582 3.223.582-1.419.583-2.026.582-.494.583-.237.582.425.583.149.582-3.237.583 2.035.582 3.2 1.165 3.508.583 1.259.582.78 1.747 4.986.583.566 1.165 1.426.582.275 1.165 1.679.583.437.582.988 1.165 3.966.583.03.582 2.082h0" clip-path="url(#p780ca22d74)" style="fill:none;stroke:#2f618f;stroke-width:1.5;stroke-linecap:square" id="line2d_31"/><path d="m67.645 287.32 37.278-.103 6.407-.406 2.912-.476 2.912-.659 5.243-.603 2.33-.786 1.164-.434 1.165-.194 3.495-.018 4.66.547 1.747.07 4.66.068 2.912-.034 6.99.246 5.824.425 3.495.07 27.376.633 7.572-.026 11.067-.38 2.33-.261 4.077-.758 8.737-1.905 2.33-.398 2.33-.23 1.747-.15 2.912-.496 2.33-.404 1.165-.29 1.165-.113 4.077-.555 6.99-1.272 4.077-.463 2.33-.046 1.747.07 3.495-.16 1.747-.223 1.748-.043 3.495.543 1.747.54 1.165.309 1.747.368 1.165.064.583.067 2.33-.165 1.747.17 3.495.899 1.747.404 17.474 2.613 3.495.186 2.33.226 1.747.216 4.66.096 3.495.153 11.649.16 2.33-.04 9.902.133 1.747.062 9.32-.172 2.33-.07 5.241-.12 1.165-.213 1.165-.387 1.165-.48 1.165-.348.583-.113 1.747-.58 9.902-2.857 3.495-.306 5.242.122 2.33.27 16.309 1.099 2.33.305 2.912.271 6.407.196 2.33-.146 7.572-1.09 2.33-.564 8.154-2.447 3.495-1.453 1.165-.234 2.912-.675.583-.258 2.33-.425 1.164-.09 1.165.146.583-.004.582.121 1.165.01 1.165.126 1.747.24 1.748.423 1.747.357 3.495.753 5.242.462 2.33.495 7.572 1.564 4.66 1.718 1.747.892 1.165.471 1.165.253 1.165-.056.582-.106 1.165-.628 1.165-1.148 2.33-3.024 1.165-2.715 1.747-5.107.583-1.987 1.747-7.522 2.33-11.804 2.33-12.67 1.165-4.264 1.747-5.726.583-1.274.582-.844.583-.405.582-.051.583.194.582.813 1.747 3.761 1.165 3 1.165 4.388 1.748 8.105 1.165 3.972 1.747 5.536 1.747 5.185.583 1.498 3.495 10.974.582 1.447.583 1.07 1.747 2.295 1.165 1.237 2.33 1.855 1.747 1.192 2.912 1.542 2.33 1.11 2.33.85 2.912.744 5.825 1.127 11.067 1.328 2.33.033 1.747-.05 10.485.337 8.736.251 6.408.007 5.824-.176 3.495-.377 4.077-.818 2.913-1.184 1.164-.433 1.165-.616 4.078-2.732 4.077-2.96 1.165-1.064 4.66-2.883 2.33-1.094.582-.221 3.495-.413.582-.088 1.165-.479h0" clip-path="url(#p780ca22d74)" style="fill:none;stroke:#5feb16;stroke-width:1.5;stroke-linecap:square" id="line2d_32"/><path d="m67.645 287.32 278.418-.076 7.572-.085 37.277.156 92.03-.009 55.333-.26 2.913-.245 1.747-.368 1.748-.6 1.165-.73 1.164-.952.583-.584.582.256.583-1.7 1.747-3.037 1.165 1.58.583-6.327.582-.483.583-1.406.582-1.738.582 1.774.583-6.328.582-3.372.583 3.299.582-.735 1.165-2.55.583-4.207.582 2.176.583-.527.582-.224.583-.813.582-.21.582.37.583-.446 2.33.727.582.055.583.243.582.898 1.165 1.325.583.347.582-.116.583.401.582.2.582.403.583-.563.582.565.583.388.582.827 1.748 1.664.582 1.274.583-.003 1.165.945 1.164 1.547.583.465 1.165 1.192.582.345 1.165 1.087 1.165.95 1.748.883 1.747 1.148 3.495 1.484 2.33.752.582.056 1.165.336 2.33.44 2.912.317 6.407.478 4.66-.063 2.912-.229 2.913-.903 2.33-.933 2.912-1.574 1.165-.584 2.912-.18h0" clip-path="url(#p780ca22d74)" style="fill:none;stroke:#fe7b74;stroke-width:1.5;stroke-linecap:square" id="line2d_33"/><g style="fill:#53a577" transform="matrix(.14 0 0 -.14 642.385 241.515)" id="text_20"><defs><path id="DejaVuSans-4a" d="M628 4666h631V325q0-844-320-1225T-91-1281h-240v531h197q418 0 590 235 172 234 172 840v4341z" transform="scale(.01563)"/><path id="DejaVuSans-61" d="M2194 1759q-697 0-966-159t-269-544q0-306 202-486 202-179 548-179 479 0 768 339t289 901v128h-572zm1147 238V0h-575v531q-197-318-491-470T1556-91q-537 0-855 302-317 302-317 808 0 590 395 890 396 300 1180 300h807v57q0 397-261 614t-733 217q-300 0-585-72-284-72-546-216v532q315 122 612 182 297 61 578 61 760 0 1135-394 375-393 375-1193z" transform="scale(.01563)"/><path id="DejaVuSans-70" d="M1159 525v-1856H581v4831h578v-531q182 312 458 463 277 152 661 152 638 0 1036-506 399-506 399-1331T3314 415Q2916-91 2278-91q-384 0-661 152-276 152-458 464zm1957 1222q0 634-261 995t-717 361q-457 0-718-361t-261-995q0-634 261-995t718-361q456 0 717 361t261 995z" transform="scale(.01563)"/><path id="DejaVuSans-6e" d="M3513 2113V0h-575v2094q0 497-194 743-194 247-581 247-466 0-735-297-269-296-269-809V0H581v3500h578v-544q207 316 486 472 280 156 646 156 603 0 912-373 310-373 310-1098z" transform="scale(.01563)"/></defs><use xlink:href="#DejaVuSans-4a"/><use xlink:href="#DejaVuSans-61" x="29.492"/><use xlink:href="#DejaVuSans-70" x="90.771"/><use xlink:href="#DejaVuSans-61" x="154.248"/><use xlink:href="#DejaVuSans-6e" x="215.527"/></g><g style="fill:#7516fd" transform="matrix(.14 0 0 -.14 642.385 255.515)" id="text_21"><defs><path id="DejaVuSans-55" d="M556 4666h635V1831q0-750 271-1080 272-329 882-329 606 0 878 329 272 330 272 1080v2835h634V1753q0-912-452-1378Q3225-91 2344-91q-885 0-1337 466-451 466-451 1378v2913z" transform="scale(.01563)"/><path id="DejaVuSans-53" d="M3425 4513v-616q-359 172-678 256-319 85-616 85-515 0-795-200t-280-569q0-310 186-468 186-157 705-254l381-78q706-135 1042-474t336-907q0-679-455-1029Q2797-91 1919-91q-331 0-705 75-373 75-773 222v650q384-215 753-325 369-109 725-109 540 0 834 212 294 213 294 607 0 343-211 537t-692 291l-385 75q-706 140-1022 440-315 300-315 835 0 619 436 975t1201 356q329 0 669-60 341-59 697-177z" transform="scale(.01563)"/></defs><use xlink:href="#DejaVuSans-55"/><use xlink:href="#DejaVuSans-53" x="73.193"/></g><g style="fill:#2f618f" transform="matrix(.14 0 0 -.14 642.385 269.515)" id="text_22"><defs><path id="DejaVuSans-4b" d="M628 4666h631V2694l2094 1972h813L1850 2491 4331 0h-831L1259 2247V0H628v4666z" transform="scale(.01563)"/><path id="DejaVuSans-6f" d="M1959 3097q-462 0-731-361t-269-989q0-628 267-989 268-361 733-361 460 0 728 362 269 363 269 988 0 622-269 986-268 364-728 364zm0 487q750 0 1178-488 429-487 429-1349 0-859-429-1349Q2709-91 1959-91q-753 0-1180 489-426 490-426 1349 0 862 426 1349 427 488 1180 488z" transform="scale(.01563)"/><path id="DejaVuSans-72" d="M2631 2963q-97 56-211 82-114 27-251 27-488 0-749-317t-261-911V0H581v3500h578v-544q182 319 472 473 291 155 707 155 59 0 131-8 72-7 159-23l3-590z" transform="scale(.01563)"/><path id="DejaVuSans-65" d="M3597 1894v-281H953q38-594 358-905t892-311q331 0 642 81t618 244V178Q3153 47 2828-22t-659-69q-838 0-1327 487-489 488-489 1320 0 859 464 1363 464 505 1252 505 706 0 1117-455 411-454 411-1235zm-575 169q-6 471-264 752-258 282-683 282-481 0-770-272t-333-766l2050 4z" transform="scale(.01563)"/><path id="DejaVuSans-2c" d="M750 794h659V256L897-744H494L750 256v538z" transform="scale(.01563)"/><path id="DejaVuSans-75" d="M544 1381v2119h575V1403q0-497 193-746 194-248 582-248 465 0 735 297 271 297 271 810v1984h575V0h-575v538q-209-319-486-474-276-155-642-155-603 0-916 375-312 375-312 1097zm1447 2203z" transform="scale(.01563)"/><path id="DejaVuSans-74" d="M1172 4494v-994h1184v-447H1172V1153q0-428 117-550t477-122h590V0h-590q-666 0-919 248-253 249-253 905v1900H172v447h422v994h578z" transform="scale(.01563)"/><path id="DejaVuSans-68" d="M3513 2113V0h-575v2094q0 497-194 743-194 247-581 247-466 0-735-297-269-296-269-809V0H581v4863h578V2956q207 316 486 472 280 156 646 156 603 0 912-373 310-373 310-1098z" transform="scale(.01563)"/></defs><use xlink:href="#DejaVuSans-4b"/><use xlink:href="#DejaVuSans-6f" x="60.576"/><use xlink:href="#DejaVuSans-72" x="121.758"/><use xlink:href="#DejaVuSans-65" x="160.621"/><use xlink:href="#DejaVuSans-61" x="222.145"/><use xlink:href="#DejaVuSans-2c" x="283.424"/><use xlink:href="#DejaVuSans-20" x="315.211"/><use xlink:href="#DejaVuSans-53" x="346.998"/><use xlink:href="#DejaVuSans-6f" x="410.475"/><use xlink:href="#DejaVuSans-75" x="471.656"/><use xlink:href="#DejaVuSans-74" x="535.035"/><use xlink:href="#DejaVuSans-68" x="574.244"/></g><g style="fill:#5feb16" transform="matrix(.14 0 0 -.14 642.385 283.515)" id="text_23"><defs><path id="DejaVuSans-52" d="M2841 2188q203-69 395-294t386-619L4263 0h-679l-596 1197q-232 469-449 622t-592 153h-688V0H628v4666h1425q800 0 1194-335 394-334 394-1009 0-441-205-732-205-290-595-402zM1259 4147V2491h794q456 0 689 211t233 620q0 409-233 617t-689 208h-794z" transform="scale(.01563)"/><path id="DejaVuSans-73" d="M2834 3397v-544q-243 125-506 187-262 63-544 63-428 0-642-131t-214-394q0-200 153-314t616-217l197-44q612-131 870-370t258-667q0-488-386-773Q2250-91 1575-91q-281 0-586 55T347 128v594q319-166 628-249 309-82 613-82 406 0 624 139 219 139 219 392 0 234-158 359-157 125-692 241l-200 47q-534 112-772 345-237 233-237 639 0 494 350 762 350 269 994 269 318 0 599-47 282-46 519-140z" transform="scale(.01563)"/><path id="DejaVuSans-69" d="M603 3500h575V0H603v3500zm0 1363h575v-729H603v729z" transform="scale(.01563)"/></defs><use xlink:href="#DejaVuSans-52"/><use xlink:href="#DejaVuSans-75" x="64.982"/><use xlink:href="#DejaVuSans-73" x="128.361"/><use xlink:href="#DejaVuSans-73" x="180.461"/><use xlink:href="#DejaVuSans-69" x="232.561"/><use xlink:href="#DejaVuSans-61" x="260.344"/></g><g style="fill:#fe7b74" transform="matrix(.14 0 0 -.14 642.385 297.515)" id="text_24"><defs><path id="DejaVuSans-54" d="M-19 4666h3947v-532H2272V0h-634v4134H-19v532z" transform="scale(.01563)"/><path id="DejaVuSans-77" d="M269 3500h575l719-2731 715 2731h678l719-2731 716 2731h575L4050 0h-678l-753 2869L1863 0h-679L269 3500z" transform="scale(.01563)"/><path id="DejaVuSans-2a" d="m3009 3897-1121-606 1121-610-181-306-1050 634V1831h-356v1178L372 2375l-181 306 1122 610-1122 606 181 309 1050-634v1178h356V3572l1050 634 181-309z" transform="scale(.01563)"/></defs><use xlink:href="#DejaVuSans-54"/><use xlink:href="#DejaVuSans-61" x="44.584"/><use xlink:href="#DejaVuSans-69" x="105.863"/><use xlink:href="#DejaVuSans-77" x="133.646"/><use xlink:href="#DejaVuSans-61" x="215.434"/><use xlink:href="#DejaVuSans-6e" x="276.713"/><use xlink:href="#DejaVuSans-2a" x="340.092"/></g></g></g><defs><clipPath id="p780ca22d74"><path d="M67.645 10.121h558v277.2h-558z"/></clipPath></defs></svg>