<svg xmlns:xlink="http://www.w3.org/1999/xlink" width="916.28" height="416.199" viewBox="0 0 687.21 312.149" xmlns="http://www.w3.org/2000/svg"><defs><style>*{stroke-linejoin:round;stroke-linecap:butt}</style></defs><g id="figure_1"><path d="M0 312.15h687.21V0H0v312.15z" style="fill:none" id="patch_1"/><g id="axes_1"><path d="M40.922 284.4h558V7.2h-558v277.2z" style="fill:none" id="patch_2"/><g id="matplotlib.axis_1"><g id="xtick_1"><g id="line2d_1"><defs><path id="m346f7266d5" d="M0 0v3.5" style="stroke:#b0b0b0;stroke-width:.4"/></defs><use xlink:href="#m346f7266d5" x="78.007" y="284.4" style="fill:#b0b0b0;stroke:#b0b0b0;stroke-width:.4"/></g><g style="fill:#b0b0b0" transform="matrix(.14 0 0 -.14 48.759 302.038)" id="text_1"><defs><path id="DejaVuSans-32" d="M1228 531h2203V0H469v531q359 372 979 998 621 627 780 809 303 340 423 576 121 236 121 464 0 372-261 606-261 235-680 235-297 0-627-103-329-103-704-313v638q381 153 712 231 332 78 607 78 725 0 1156-363 431-362 431-968 0-288-108-546-107-257-392-607-78-91-497-524-418-433-1181-1211z" transform="scale(.01563)"/><path id="DejaVuSans-30" d="M2034 4250q-487 0-733-480-245-479-245-1442 0-959 245-1439 246-480 733-480 491 0 736 480 246 480 246 1439 0 963-246 1442-245 480-736 480zm0 500q785 0 1199-621 414-620 414-1801 0-1178-414-1799Q2819-91 2034-91q-784 0-1198 620-414 621-414 1799 0 1181 414 1801 414 621 1198 621z" transform="scale(.01563)"/><path id="DejaVuSans-2d" d="M313 2009h1684v-512H313v512z" transform="scale(.01563)"/><path id="DejaVuSans-34" d="M2419 4116 825 1625h1594v2491zm-166 550h794V1625h666v-525h-666V0h-628v1100H313v609l1940 2957z" transform="scale(.01563)"/></defs><use xlink:href="#DejaVuSans-32"/><use xlink:href="#DejaVuSans-30" x="63.623"/><use xlink:href="#DejaVuSans-32" x="127.246"/><use xlink:href="#DejaVuSans-30" x="190.869"/><use xlink:href="#DejaVuSans-2d" x="254.492"/><use xlink:href="#DejaVuSans-30" x="290.576"/><use xlink:href="#DejaVuSans-34" x="354.199"/></g></g><g id="xtick_2"><use xlink:href="#m346f7266d5" x="130.736" y="284.4" style="fill:#b0b0b0;stroke:#b0b0b0;stroke-width:.4" id="line2d_2"/><g style="fill:#b0b0b0" transform="matrix(.14 0 0 -.14 101.488 302.038)" id="text_2"><defs><path id="DejaVuSans-37" d="M525 4666h3000v-269L1831 0h-659l1594 4134H525v532z" transform="scale(.01563)"/></defs><use xlink:href="#DejaVuSans-32"/><use xlink:href="#DejaVuSans-30" x="63.623"/><use xlink:href="#DejaVuSans-32" x="127.246"/><use xlink:href="#DejaVuSans-30" x="190.869"/><use xlink:href="#DejaVuSans-2d" x="254.492"/><use xlink:href="#DejaVuSans-30" x="290.576"/><use xlink:href="#DejaVuSans-37" x="354.199"/></g></g><g id="xtick_3"><use xlink:href="#m346f7266d5" x="184.044" y="284.4" style="fill:#b0b0b0;stroke:#b0b0b0;stroke-width:.4" id="line2d_3"/><g style="fill:#b0b0b0" transform="matrix(.14 0 0 -.14 154.796 302.038)" id="text_3"><defs><path id="DejaVuSans-31" d="M794 531h1031v3560L703 3866v575l1116 225h631V531h1031V0H794v531z" transform="scale(.01563)"/></defs><use xlink:href="#DejaVuSans-32"/><use xlink:href="#DejaVuSans-30" x="63.623"/><use xlink:href="#DejaVuSans-32" x="127.246"/><use xlink:href="#DejaVuSans-30" x="190.869"/><use xlink:href="#DejaVuSans-2d" x="254.492"/><use xlink:href="#DejaVuSans-31" x="290.576"/><use xlink:href="#DejaVuSans-30" x="354.199"/></g></g><g id="xtick_4"><use xlink:href="#m346f7266d5" x="237.352" y="284.4" style="fill:#b0b0b0;stroke:#b0b0b0;stroke-width:.4" id="line2d_4"/><g style="fill:#b0b0b0" transform="matrix(.14 0 0 -.14 208.104 302.038)" id="text_4"><use xlink:href="#DejaVuSans-32"/><use xlink:href="#DejaVuSans-30" x="63.623"/><use xlink:href="#DejaVuSans-32" x="127.246"/><use xlink:href="#DejaVuSans-31" x="190.869"/><use xlink:href="#DejaVuSans-2d" x="254.492"/><use xlink:href="#DejaVuSans-30" x="290.576"/><use xlink:href="#DejaVuSans-31" x="354.199"/></g></g><g id="xtick_5"><use xlink:href="#m346f7266d5" x="289.502" y="284.4" style="fill:#b0b0b0;stroke:#b0b0b0;stroke-width:.4" id="line2d_5"/><g style="fill:#b0b0b0" transform="matrix(.14 0 0 -.14 260.254 302.038)" id="text_5"><use xlink:href="#DejaVuSans-32"/><use xlink:href="#DejaVuSans-30" x="63.623"/><use xlink:href="#DejaVuSans-32" x="127.246"/><use xlink:href="#DejaVuSans-31" x="190.869"/><use xlink:href="#DejaVuSans-2d" x="254.492"/><use xlink:href="#DejaVuSans-30" x="290.576"/><use xlink:href="#DejaVuSans-34" x="354.199"/></g></g><g id="xtick_6"><use xlink:href="#m346f7266d5" x="342.231" y="284.4" style="fill:#b0b0b0;stroke:#b0b0b0;stroke-width:.4" id="line2d_6"/><g style="fill:#b0b0b0" transform="matrix(.14 0 0 -.14 312.983 302.038)" id="text_6"><use xlink:href="#DejaVuSans-32"/><use xlink:href="#DejaVuSans-30" x="63.623"/><use xlink:href="#DejaVuSans-32" x="127.246"/><use xlink:href="#DejaVuSans-31" x="190.869"/><use xlink:href="#DejaVuSans-2d" x="254.492"/><use xlink:href="#DejaVuSans-30" x="290.576"/><use xlink:href="#DejaVuSans-37" x="354.199"/></g></g><g id="xtick_7"><use xlink:href="#m346f7266d5" x="395.539" y="284.4" style="fill:#b0b0b0;stroke:#b0b0b0;stroke-width:.4" id="line2d_7"/><g style="fill:#b0b0b0" transform="matrix(.14 0 0 -.14 366.291 302.038)" id="text_7"><use xlink:href="#DejaVuSans-32"/><use xlink:href="#DejaVuSans-30" x="63.623"/><use xlink:href="#DejaVuSans-32" x="127.246"/><use xlink:href="#DejaVuSans-31" x="190.869"/><use xlink:href="#DejaVuSans-2d" x="254.492"/><use xlink:href="#DejaVuSans-31" x="290.576"/><use xlink:href="#DejaVuSans-30" x="354.199"/></g></g><g id="xtick_8"><use xlink:href="#m346f7266d5" x="448.848" y="284.4" style="fill:#b0b0b0;stroke:#b0b0b0;stroke-width:.4" id="line2d_8"/><g style="fill:#b0b0b0" transform="matrix(.14 0 0 -.14 419.6 302.038)" id="text_8"><use xlink:href="#DejaVuSans-32"/><use xlink:href="#DejaVuSans-30" x="63.623"/><use xlink:href="#DejaVuSans-32" x="127.246"/><use xlink:href="#DejaVuSans-32" x="190.869"/><use xlink:href="#DejaVuSans-2d" x="254.492"/><use xlink:href="#DejaVuSans-30" x="290.576"/><use xlink:href="#DejaVuSans-31" x="354.199"/></g></g><g id="xtick_9"><use xlink:href="#m346f7266d5" x="500.997" y="284.4" style="fill:#b0b0b0;stroke:#b0b0b0;stroke-width:.4" id="line2d_9"/><g style="fill:#b0b0b0" transform="matrix(.14 0 0 -.14 471.75 302.038)" id="text_9"><use xlink:href="#DejaVuSans-32"/><use xlink:href="#DejaVuSans-30" x="63.623"/><use xlink:href="#DejaVuSans-32" x="127.246"/><use xlink:href="#DejaVuSans-32" x="190.869"/><use xlink:href="#DejaVuSans-2d" x="254.492"/><use xlink:href="#DejaVuSans-30" x="290.576"/><use xlink:href="#DejaVuSans-34" x="354.199"/></g></g><g id="xtick_10"><use xlink:href="#m346f7266d5" x="553.726" y="284.4" style="fill:#b0b0b0;stroke:#b0b0b0;stroke-width:.4" id="line2d_10"/><g style="fill:#b0b0b0" transform="matrix(.14 0 0 -.14 524.478 302.038)" id="text_10"><use xlink:href="#DejaVuSans-32"/><use xlink:href="#DejaVuSans-30" x="63.623"/><use xlink:href="#DejaVuSans-32" x="127.246"/><use xlink:href="#DejaVuSans-32" x="190.869"/><use xlink:href="#DejaVuSans-2d" x="254.492"/><use xlink:href="#DejaVuSans-30" x="290.576"/><use xlink:href="#DejaVuSans-37" x="354.199"/></g></g></g><g id="matplotlib.axis_2"><g id="ytick_1"><path d="M40.922 284.4h558" clip-path="url(#p96d091fb6c)" style="fill:none;stroke:#b0b0b0;stroke-width:.3;stroke-linecap:square" id="line2d_11"/><g id="line2d_12"><defs><path id="m530c3eddb1" d="M0 0h-3.5" style="stroke:#b0b0b0;stroke-width:.3"/></defs><use xlink:href="#m530c3eddb1" x="40.922" y="284.4" style="fill:#b0b0b0;stroke:#b0b0b0;stroke-width:.3"/></g><use xlink:href="#DejaVuSans-30" style="fill:#b0b0b0" transform="matrix(.14 0 0 -.14 25.015 289.719)" id="text_11"/></g><g id="ytick_2"><path d="M40.922 227.547h558" clip-path="url(#p96d091fb6c)" style="fill:none;stroke:#b0b0b0;stroke-width:.3;stroke-linecap:square" id="line2d_13"/><use xlink:href="#m530c3eddb1" x="40.922" y="227.547" style="fill:#b0b0b0;stroke:#b0b0b0;stroke-width:.3" id="line2d_14"/><g style="fill:#b0b0b0" transform="matrix(.14 0 0 -.14 7.2 232.866)" id="text_12"><use xlink:href="#DejaVuSans-32"/><use xlink:href="#DejaVuSans-30" x="63.623"/><use xlink:href="#DejaVuSans-30" x="127.246"/></g></g><g id="ytick_3"><path d="M40.922 170.694h558" clip-path="url(#p96d091fb6c)" style="fill:none;stroke:#b0b0b0;stroke-width:.3;stroke-linecap:square" id="line2d_15"/><use xlink:href="#m530c3eddb1" x="40.922" y="170.694" style="fill:#b0b0b0;stroke:#b0b0b0;stroke-width:.3" id="line2d_16"/><g style="fill:#b0b0b0" transform="matrix(.14 0 0 -.14 7.2 176.012)" id="text_13"><use xlink:href="#DejaVuSans-34"/><use xlink:href="#DejaVuSans-30" x="63.623"/><use xlink:href="#DejaVuSans-30" x="127.246"/></g></g><g id="ytick_4"><path d="M40.922 113.84h558" clip-path="url(#p96d091fb6c)" style="fill:none;stroke:#b0b0b0;stroke-width:.3;stroke-linecap:square" id="line2d_17"/><use xlink:href="#m530c3eddb1" x="40.922" y="113.84" style="fill:#b0b0b0;stroke:#b0b0b0;stroke-width:.3" id="line2d_18"/><g style="fill:#b0b0b0" transform="matrix(.14 0 0 -.14 7.2 119.16)" id="text_14"><defs><path id="DejaVuSans-36" d="M2113 2584q-425 0-674-291-248-290-248-796 0-503 248-796 249-292 674-292t673 292q248 293 248 796 0 506-248 796-248 291-673 291zm1253 1979v-575q-238 112-480 171-242 60-480 60-625 0-955-422-329-422-376-1275 184 272 462 417 279 145 613 145 703 0 1111-427 408-426 408-1160 0-719-425-1154Q2819-91 2113-91q-810 0-1238 620-428 621-428 1799 0 1106 525 1764t1409 658q238 0 480-47t505-140z" transform="scale(.01563)"/></defs><use xlink:href="#DejaVuSans-36"/><use xlink:href="#DejaVuSans-30" x="63.623"/><use xlink:href="#DejaVuSans-30" x="127.246"/></g></g><g id="ytick_5"><path d="M40.922 56.987h558" clip-path="url(#p96d091fb6c)" style="fill:none;stroke:#b0b0b0;stroke-width:.3;stroke-linecap:square" id="line2d_19"/><use xlink:href="#m530c3eddb1" x="40.922" y="56.987" style="fill:#b0b0b0;stroke:#b0b0b0;stroke-width:.3" id="line2d_20"/><g style="fill:#b0b0b0" transform="matrix(.14 0 0 -.14 7.2 62.306)" id="text_15"><defs><path id="DejaVuSans-38" d="M2034 2216q-450 0-708-241-257-241-257-662 0-422 257-663 258-241 708-241t709 242q260 243 260 662 0 421-258 662-257 241-711 241zm-631 268q-406 100-633 378-226 279-226 679 0 559 398 884 399 325 1092 325 697 0 1094-325t397-884q0-400-227-679-226-278-629-378 456-106 710-416 255-309 255-755 0-679-414-1042Q2806-91 2034-91q-771 0-1186 362-414 363-414 1042 0 446 256 755 257 310 713 416zm-231 997q0-362 226-565 227-203 636-203 407 0 636 203 230 203 230 565 0 363-230 566-229 203-636 203-409 0-636-203-226-203-226-566z" transform="scale(.01563)"/></defs><use xlink:href="#DejaVuSans-38"/><use xlink:href="#DejaVuSans-30" x="63.623"/><use xlink:href="#DejaVuSans-30" x="127.246"/></g></g></g><path d="m40.922 284.4 24.337-.081 2.318-.244.58-.162 1.158.08.58.042.579-.244 1.159-.975.58-.162 1.738-3.817 1.158-3.452 1.16-4.549.579-1.42 2.317-16.042.58-2.802.58-4.873.579-1.056.58-1.827 1.738-13.482.579-1.219.58 2.234.579-1.38.58.12.579-1.258.58-2.802.579-1.34.58-2.883.579-2.234.579.65.58-.975.579.163.58 4.06 1.158 5.483.58 1.787h.579l.58 1.259.579 3.208 1.159 3.086.58 3.452 1.158 5.4.58.976.579 1.502 1.159 3.899.58-.366.579 1.95 1.159 1.786.58 2.6.579 1.38 1.158 3.736.58-.284.58.04.579 1.787.58.731.579 1.3.579 3.005.58.609.579.081.58.447.579 1.096.58 1.462.579-.203.58-.487.579.122.579.812.58-.04.579 1.38.58.73.579 1.3 1.159.528.579-.446.58.203.579-1.056.58.447.579.162.58.975 1.158 1.258.58.082.579 1.137.58-.488h.579l.58-.324 1.158.568h1.16l1.158.975.58-.203.579.203.58-.163 1.158-.122 1.738.934H133.633l.58.163h.579l.58-.122 1.158.163.58-.041 1.158.284.58.366.58.203.579.08.58.204.578.081 2.318-.081 1.16-.487 2.317.08h.58l.579.123h.58l.579.284 1.159-.447.579-.243 1.159-.082.58-.203.579-.325 1.738.65.58.122.579-.244.58.244 1.738.04.58-.04.579-.244.579.285 2.318-.244 1.738.528.58.244.579-.163 1.159.04.58-.324.579-.122.58.081.579-.04 1.158.325 1.16.08.579.204h.58l1.158-.163.58-.04.579-.325.58.122h.579l.58-.244 1.158-.04 1.159.121.58-.284.579-.65.58-.325 2.897-.568 1.158.568.58-.406.58.122 1.158-.122.58.04 1.159-.283.579.162.58-.365 1.158-.082.58-1.096 1.738-1.95.58.041.579-.243.58-1.381 1.158.284.58-1.015 1.738-1.909.58.203.579-1.868.58-2.396.579-1.137.58-2.193h.579l.58-1.015.578-3.614.58-2.68.58-1.178.579-3.614.58-1.097.579-1.38.58-.569.579-.934 1.158-8.406 1.16-4.061.579-1.787.58.04.579-4.588 1.159-3.249.579-1.705.58-3.087 1.158-2.396.58.731.58-4.264.579-5.604.579-6.741.58-5.076.579-.812.58-1.422.579-5.644 1.159-6.782.58-.244 1.158-8.162.58-.894.579-1.421.58-4.183.579 1.584.58-6.741.579-.528.58-2.68.579-1.665.579-3.127.58-14.701 1.158-19.208.58-8.366.58-3.573.579-1.544.579-9.38.58-.406.579-4.224 1.159 35.046.58 2.152 1.158-9.868 1.738-19.086.58-3.899 1.159 3.655.58-3.736.579 4.467.579-4.304 1.159-56.123.58-6.213.579-1.665.58 2.152.579-1.665.58-7.066.579 3.046.579 4.183.58.812.579 5.239 1.159-7.554 1.159 19.696 1.159 8 .579-.122.58 3.493.579 6.74.58 2.925.579.812.58 3.452.579-2.03 1.158 3.41.58.285.58 6.294.579-.65.58 4.264.579 6.823.58.69.579 15.432.579 6.578.58 4.873.579 12.143.58 5.604.579.528.58 1.705.579-1.908.58 10.274.578 5.36.58 1.95 1.738 7.634.58 4.589 1.738 16.284.58 4.914.579-.487.58.081.579 2.315.58.162.579 1.056.58 5.28 1.158 5.278.58 1.056 1.158 8.975.58 1.543.58.488.579 2.477.579 1.056.58-.528.579.69.58 2.071.579 3.817.58 1.056.579 1.3.58-1.178.579-.122.579-.487h1.159l1.159 3.777 1.159.65.58 2.842.579-.04.579 1.096.58-1.99.579 1.502.58.894.579-.284.58 3.654.579-1.99.579-4.263.58-2.6.579-5.116.58-1.462.579-1.99.58-8.284.579-1.787.58.528.579 1.99.579 1.096.58 1.503.579.284.58-.122.579.447.58 1.38.579-.73.579-2.721.58-2.153.579 1.3.58-1.909.579.772.58-.203.579-1.665.58 2.193.579.406.579-.975 1.159 2.274.58.569.579.893.58-.243.579-.69 1.159 2.517.579.69.58-1.137.579 3.818 1.159 4.75.58-.405.579 2.518.579-.65.58 1.665.579-1.462.58.284.579-.447.58.853.579 7.635.58.568.579-1.3.579 1.382.58.284.579 1.056.58.284.579-4.873 1.159 7.878.58 4.305.578 1.665.58-.731 1.159 1.096 1.159 5.848.58-.65.579-.284.579 2.274.58.487.579 1.909.58-1.218.579-.447.58.447.579 1.218 1.159.081.579.65.58 3.492.579.488 1.159 2.436.58.325.579.081.579.813.58-.204.579 1.219.58-.285.579 2.112.58.04.579.285.58 1.056.579.325.579 1.3.58.811.579-.771 1.738.203.58.812.58-.04.579 1.258.579.528 1.159.163.58-.325.579.365.58-.406.579-.65.579-.243 1.159-.122 1.159-.244.58.853.579.163.58.284 1.158.203.58.772 1.158-.366.58.244 1.738-.285h.58l1.158.813.58.203.58.528.579.04.58-.081 1.158-.69.58-.203.579.243.58-.243h1.158l1.16-1.26h1.158l.58-.202 1.158-.61.58-.73.58.65.579-.488.579-1.259.58-.081.579-.366 1.159.122.58-.487.579-.69.58-.407.579-.852.579.528.58-.163.579-.365.58-1.95.579-.73.58 1.42.579-.73.58-1.219.578-.04.58-.528.58.487 1.158-3.736.58.04.58.407.579.122.579-.812.58.162.579 1.95.58-.326.579-.162.58.771.579.122.58.447.579-.365.579-.041.58-.528.579.04.58-.609 1.158.082.58-.65.579-.162.58.852.579-.406.58.284.579-.121h1.159l.58.203.579-2.071.579-.447 1.159-.528.58-1.624.579-.894.58-2.396 1.158-.365.58-.406.579-.244.58 1.909.579-3.25 1.738-5.035.58-.162.579-.406.58-3.574.579-1.705.58-2.843.579-1.503.58-3.492.579-.731.58-.406.579-3.899.579-2.355.58-1.178.579-.406 1.738-2.396 1.159-3.451.58-3.534.579-6.335.58-2.233.579-1.178.58-.446.579-3.209.58-4.507 1.158-2.843.58-3.046.579.406 1.159-.771L436.1 185.8l.58-5.36 1.158-2.965.58-3.005.58 3.005.579-2.314.58 1.908.579 3.899.579-1.95.58-.121.579.446.58-2.314.579 3.939.58 2.72.579 10.437.58 3.736.579 2.03 1.158 7.554 1.16 3.614.579-1.096.58 1.706.579.04.58.65.578 2.761.58-2.436.58 2.396.579-3.411.58-1.26.579.65.58 1.381.579-1.543.579 5.157.58-.893 1.158 2.558.58.894 1.159 11.127.58 3.33.579 4.71.579 2.274.58-.284.579.081.58-.852.579 2.964.58 1.868h.579l1.158-.325.58-1.34.58 1.056.579-1.218.58.974h.579l.58.406.579.731 1.158.934 1.16-6.091.579-2.274.58-1.056.579-.69.58.284.579-2.68.579 1.015.58-.934.579-1.543 1.159-1.097.58.813 1.158-4.67.58.73.579 1.544.58-1.625.579.65.58-.081.579 2.883.58-.081.579-.975.579-2.64.58-.202.579.243h.58l.579-3.614.58-.528.579.325.579 1.705.58.244.579.04.58.204 1.158 3.492.58-.771 1.159 2.07.579.041.58.244.579.772.58-2.437.579-.893 1.159-4.833h.58l.579-.284.579-1.746.58-.772.579-12.02.58 12.223 1.158-1.218.58.812.579-.366.58-12.995.579 10.64.58-13.076.579 10.396.58 2.112.579-11.737.58-1.827.579 14.538.579 4.955.58 11.37.579.934.58.081.579 11.452.58.528.579-.568.58-3.127.578-8.325.58-.447.58.203.579-12.06.58 14.131.579-10.761 1.159 6.091.579.569.58.243.579 2.6.58-9.788.579 16.488h.58l.579-1.015h.58l.579-.203.579.893.58.406.579-.568.58 2.03.579 1.624 1.738.447.58 2.315.579 1.3.58.527.579.975.58.244.579-.041.58 2.274.579.65.579 1.178.58 6.05.579 1.909.58-.284.579-.04.58.933.579 2.721.58.203.578-3.614h.58l.58.325.579.08.58 5.443.579-2.193.58 1.665.579-.61.579-.162 1.159-.04.58-4.265.579 1.34.58.69.579 3.534.58.772 1.158.04.58-3.046.579.325.58-1.015.579-2.883.58-1.056h1.158l.58 2.802.579-2.883.58.609.579.244.58-.772h.579l.58-.122.579.447.579 2.152.58-1.015.579-1.909 1.159-.04.58-.203.579-2.559.58.731.579-1.502.579.65.58-1.219h.579l.58.325.579 2.558 1.159-2.599.579.082.58.73h1.158l.58-3.451.58-1.828.579.812.58-1.624 1.158-.04.58-.285.579.65 1.159-2.599.58-.487.579-.975h.58l.578.284.58.04.58-.12.579 1.583.58-.081.579.162h1.159l.579 1.218.58.853.579-1.259.58-.081.579.65h1.159l.58-.244.579 1.828.579 7.472.58-1.503.579.812h1.159l.58 1.097.579 5.97.579-11.006.58 2.356.579-.772h1.159l.58.812.579-4.873.58 6.254.579 1.178.579 1.543h1.159l1.159.812.58-4.589.579.081.58-.243h.578" clip-path="url(#p96d091fb6c)" style="fill:none;stroke:#d8b009;stroke-width:1.5;stroke-linecap:square" id="line2d_21"/><path d="m40.922 284.4 20.86-.081 1.16-.122 1.158-.487.58-.447.579-.244.58-.73h.579l.58-3.087.579-2.315.58-3.533.579-1.705.579-7.472.58-2.884.579-8.365.58-5.483 1.158-23.269.58-19.736.58-12.426.579-30.417 2.317-81.503.58-15.188.58-10.193.579-3.411.58-9.868.578-3.127.58 3.858.58 5.157.579 8.65.58 1.787.579 7.147.58 12.426L83.8 95.201l.58 3.695.579 6.213.58 16.407.579 3.857.58 1.95.579-2.153.58 19.655.579 7.838.579 6.01.58-5.279.579 8.812.58 6.782.579 12.995.58-13.685.579 4.954.579 2.761.58 5.239.579-.73.58 6.984.579 14.904.58-7.27.579 5.036.58 6.782.579 4.71.579 8.488.58 2.233.579-9.3.58 15.351.579.853.58 1.665.579.365.58 2.437.579-.162 1.158 6.74.58 5.808.58-.934.579 4.345.58 3.005.579 6.7.579-22.334.58 2.192.579-3.005.58 48.285h3.476l.58-11.899.579 11.493 1.738-.122 1.159.163 1.738.04.58.203 2.897.122h1.159l.58-47.879.579-.284 2.318-.203.579-.122.58 47.554.579.162 1.159-.121 1.159-.61.579-.04.58-.366 1.158.203h.58l1.159.406.58-.04.579.609 2.897.04.58.082 1.158-.081 1.738.08 1.16.082 1.738.04h1.158l.58-.121 2.318.081 1.159-1.99.579.163h2.318l.58-1.868.579.852.579.122.58-1.015.579-.365h1.159l.58 1.786.579-.771.58-5.239.579.406.579-.528h1.159l.58-.203.579-1.137.58 3.249.579-.366.58.407h1.158l.58-1.99.579-.244.58.203.579-.609.58-6.863h1.158l.58-.61.579-.811.58.325.579-1.26.58 5.523h1.158l.58-.121.579-3.168.58-8.325.579-3.695.58-1.706h1.158l.58-2.72.579-3.452.58 4.426.579 3.167.58-.974h1.158l.58-.447.58 9.787.579-10.152.579-3.98 1.738.04.58 1.625.58-10.6.579 12.346.58 2.274.579-5.198h1.158l.58-2.274.58 7.35.579-5.4.58-.57.579.772h1.158l.58-.893.58-5.604.579 2.152.58-.609.579-.365h1.159l.579-2.518.58-1.99.579-.487.58-.731.579-.325h1.159l.58-4.061.578 1.178.58-59.087.58-7.92.579-4.385h1.159l.58-5.4.579 9.664.579 35.046.58.487.579 1.584h1.159l.58 1.137.579-17.665.58 16.61.579 4.223.579-.812h1.159l.58-1.138.579-4.142.58-.73.579-3.452.579 1.38h1.159l1.159 8.366 1.159 7.269.58 3.249h1.158l.58.284.579 17.95.58-4.062 1.158-5.563h1.16l.579.203.579-15.757 1.159 13.077.58 5.32h1.158l.58 2.233.579 5.198.58.69.579 2.234.58 6.05h1.158l.58 1.463 1.159-5.239.579-.893h1.738l.58 2.314.58-1.3.579 10.031.579-3.939.58-8.081h1.158l.58-6.497.58-2.275.579-7.918.58 1.786.579-1.462h1.158l.58-2.192.58.162.579-10.924 1.159-14.944h1.159l.579-12.67.58-7.391.579-1.34 1.159-9.097h1.159l.579.203.58-5.604.579-2.761.58 3.37.579-2.883h1.159l.58-5.97.579-1.705 1.158-6.457.58 2.193h1.159l1.159 17.99.58 12.426 1.158 10.477h1.159l.58 6.782.579 3.533.58-2.112.579 1.747.579 2.761h1.159l.58 2.762.579 10.193.58-2.315.579 3.695.58-12.507h1.158l.58 6.863.579-4.02.58 8.608.579 5.28.58 18.842h1.158l1.159 11.452 1.159.528.58 7.026h1.158l.58-18.965.579-2.437.58 9.26 1.158-46.66h1.16l.579 18.03.58 3.858.579-6.254 1.158 48.081.58-6.375h.58l.579 4.223.58-.893.579 1.137.579-2.437.58-6.05.579 6.375h.58l.579-4.548.58 1.137.579-.203.58.65.579 2.03h1.158l.58 3.086.58 4.061.579-5.32.58-.243.579.162h1.158l.58-1.056.58-4.75.579 7.065.58-.203.579-1.665h1.159l.579 2.843.58.446.579-3.208.58-.934.579 2.843h1.159l.58-1.056.579-4.02.579 2.396.58 3.533.579.325h1.159l.58.406.579 5.482 1.738 4.914 1.738.081.58-.812.58.487 2.317.081.58 1.747.579 2.436.58-.487.579 1.34.58-5.239 1.158-.04.58.325.579-1.747.58 1.747.579-5.402.58 4.468 1.158.04.58.975.579.446.58-.527.579 4.629.58.731h1.158l.58-.853.579 1.3.58.284.579.04.58.204h1.158l.58 1.096.579-.406.58-.69.579.406.58-.61h1.158l.58-.527.58.893.579 1.178.579-.812.58.893h1.158l1.739.73.58-.527.579-.244h1.158l.58-.243.58-.65.579-.325.58.528.579-.61h1.158l1.16-2.03.579-2.233 1.159-1.421h1.159l.579-4.468.58-3.045.579.081.58-1.665.579-1.259h1.159l.579 1.543.58 1.137.579-.893h.58l.579.487h1.159l.58-.243.579-1.706.579-2.071.58-1.38.579-2.803h1.159l.58-3.086.579-1.868.58-.772.579-2.03.579-.285h1.159l.58 2.234.579-.162.58 1.258.579.122.579-.65h1.159l.58.528 1.158 4.346 1.16 7.31h1.158l.58 1.218.579-.69.58-.366.579-1.219.58 1.138h1.158l.58-.61.579 2.965.58-.487 1.738.04h.58l.579 1.99.579.893.58 2.559.579 3.33.58-.163h1.158l.58.203.58-1.38.579-.731.579-.203.58-1.178h1.158l.58.61.58 3.816.579.61.579-1.016.58.813h1.158l.58-.285.58-.853.579.447 1.159 2.234 1.738.08.58-1.258.579-.812 1.159-1.178h1.159l.579 2.193.58-.122.579.488 1.159 1.502h1.159l.579-2.193.58 2.234.579-.812.58-.61 1.738.041.58.447.579-1.178.579 1.178.58.04.579.813h1.159l.58.852.579-.203.579-.325.58.082.579-.731h1.159l.58-1.26.579-.405.58.406 1.158-1.137h1.159l.58 2.152.579-1.38.58 1.136.579-1.705.58-.894 1.158-.04.58-4.183.579.812.58-3.127.579 1.462.58.731 1.158.04.58.732.579-1.462.58 1.096.579-1.38.58 1.664h1.158l.58-1.42.579-.813.58-1.137.579.325h1.738l.58-1.95.58-.08.578-2.843.58 3.005.58-3.94h1.158l.58-1.38.58-5.32.579.934.579-4.548.58-1.706h1.158l1.16-2.802.579-1.421.58-2.03.579-.122h1.158l.58-.772.58-3.98.579-2.233.58-.569.579-2.315h1.158l.58-.243.58-1.056 1.158-.65.58 8.081h1.159l.579-11.005.58 1.909.579-2.355.58-8.528.579-15.797h1.159l.58-2.884.579 2.071.579-6.578.58 1.34.579 4.101h1.159l2.317 22.376.58 1.624h1.159l.58 18.843.579-12.183.58 5.97.579.975.579 3.005h1.159l.58-6.538.579 7.634.58.853 1.158 9.462h1.159l.58 6.538.579.163.58 5.4.579 3.452.58-9.3h1.737l.58-2.801h1.159l.58-2.112h1.738l.579 21.28h1.159l.58.65h1.738l.579-15.432h1.159l.58-1.381h1.738l.58 8.365h1.158l.58 14.498h2.317l.58-25.056h.58l.578-7.594h1.739l.58-12.954.579 25.056h.58l.579-1.706h1.738l.58 4.345h1.158l.58 1.137h1.159l.579-10.314.58 8.609h1.158l.58-4.873h1.159l.579 10.314.58-8.04h1.158l.58 13.035.58-12.589h1.158l.58 8.244h.579l.58-6.416.579-9.584.58 12.589h1.158l.58-.203.58-6.173.578 6.417.58-2.762h1.738l.58-4.751.58 6.172h.579l.579 4.467h1.738l.58-.568h1.159l.58-1.99h1.737l.58.366h1.159l.58 1.949h1.737l.58.609h1.159l.58-.406h1.738l.579-1.665h1.159l.58-10.802h1.738l.58-3.899h1.158l.58 3.94h1.738l.58-2.031h1.158l.58-6.944h1.738l.58 3.533h1.158l.58 8.934h1.738l.58 8.65h1.158l.58-2.275h1.738l.58-10.193h1.158l.58 2.153h1.738l.58.243h1.158l.58 4.305h1.738l.58 4.914h1.158l.58.568h1.738l.58-1.137h1.158l.58.163h1.738l.58.771.58.325h.579l.579-.122h1.738l.58-.893.58-.325h.579l.58-9.706h.578" clip-path="url(#p96d091fb6c)" style="fill:none;stroke:#907eba;stroke-width:1.5;stroke-linecap:square" id="line2d_22"/><path d="m40.922 284.4 14.486-.081.58-.04 1.159-.285.58-.081 2.317-.772.58-.568 1.158-2.03.58-1.463.58-1.827.579-1.137.58-5.198.579-3.208 1.158-12.549.58-6.01.58-8.162.579-5.645 2.897-47.96.58-15.31.579-25.096 1.159-21.726.58-16.163.579-8.447 1.158-23.431 1.16-8.163.579-8.568.58-3.818 1.158-3.736.58 6.213 2.897 41.95.58 6.091.579 7.96.579 2.518.58 3.817.579 2.843.58.08.579-1.461.58 3.452.579-.203.58 5.563.579-.081.579 4.548.58 2.762.579 5.726.58 2.477.579 6.294.58 2.721.579 7.025.579 4.914.58 6.173.579 4.63 1.159 13.4.58-2.396.579 3.493 1.159 11.533.579-1.868.58.447.579 1.055.58 11.371.579.366.58.65.579 2.598.58 7.066.579.488.579.04.58 1.665.579.812.58 3.25.579.405.58 1.381 1.158 8.853.58 1.38.579 3.859.58.284.579 3.411.58 1.787.579 3.492.58 1.746.579.325.579-1.015.58 1.3.579.934.58 1.868.579-.731.58.08.579 1.585.579.893.58-.203.579-.975h.58l1.158 2.6.58-.244.58.365 1.737 4.548.58-.527.58.365.579 1.178.58.812.579.122.58.65.579 3.005.579 1.3.58.69.579 1.664.58.082.579.69.58-.203.579-2.112.579.163.58.609.579-.528.58.609.579-.081.58-.284.579.243.58.731.579.122.579.569.58-.082.579-.203.58.528.579.081.58-.324.579.04.58-.284.578.244 1.16.08.579.163.58.406.579.244.58.365.579-.08.579.324 1.738.569.58-.163h.58l.579-.122.58-.284.579.244 1.158-.285.58.244.58-.325 1.158.569 1.738-.04h.58l.58-5.89 1.158-.08 1.739.162.579-.244.58 6.295.579-.122 1.159.04.58-.243 2.896.162.58-.162.58.284.579-.203.58-.081.579-.61.579-.121.58-.244.579-.08.58-.326 1.158.04.58.407 3.476-.081.58-.731.58-.325 1.158-.325 1.159-.731.58-.406.579.284.58-.081.579.04.58-.405h1.158l.58-.122.579-.406 1.738-.203.58-.488.58.081.579-.203.579-.08.58-.326.579-.934 1.159-1.015.58-2.477.579-1.097.579-.73.58-1.747.579-1.38.58-1.95.579-3.41.58-2.153.579-1.462.58-4.224 1.158-5.157.58-5.36 1.158-6.457.58-4.386.58-5.93 1.158-6.984 1.159-11.33 1.159-18.6 1.738-15.187.58-9.218.579-11.005.58-8.447 1.158-9.056.58-8.731 1.738-17.422.58-.69 1.158-12.061.58-.65 1.159-10.07.58 1.258.579-6.863.579-5.198.58.244.579.852.58-1.705.579 2.761.58 1.543.579-6.944.58.528.579.975.579-.934 1.159 11.98.58 7.512.579 4.305.58 2.152.579.528.58 3.249.579 1.502 1.158-15.96.58 8.285 1.159 7.432.58 5.36.579 3.087.579 8.852.58 5.158.579 7.228.58 8.731.579 11.858.58 1.909 1.158-2.477.58-.894.579-2.03.58-.122.579-4.183.58-1.705.579 3.939.58.406.579 1.096.579 5.726.58-6.416.579-4.833.58-.568.579-4.061.58 1.34.579 1.665.58-4.386.579 5.807.579.325.58-.65.579 2.884.58.528.579-.69.58.04.579.203.58-.528.579 3.168.579-1.747 1.159 4.833.58 1.178.579-.203 1.159 5.238.579 3.696.58 1.705.579-.365.58 2.883.579 4.061.58 1.462.579-1.34.58.893.579 3.127.579 5.685.58 1.219.579 2.477.58 3.005 1.158 3.98.58 3.492.58-1.34.578 1.787.58-1.3.58 2.437.579-.447 1.159-1.462.58 2.071.579 1.584.579 3.858.58-1.178.579 1.625.58 1.137.579.528 1.159-2.437.58-1.787.579-1.096.579-.61.58-2.923.579-1.34.58.609.579-1.38.58-3.371.579-.407.579-2.314.58-1.462.579-5.117.58-4.02.579-2.03.58-.244.579-3.412 1.159-2.761.579-1.99.58-1.178.579-1.502.58-2.883.579.852.58.122.579-1.259.58.894.579-.285.579-1.665.58-.974.579.162.58-1.177 1.158 9.3.58-6.498.579.568.58-9.624.579 1.3.58-.204 1.158-4.751.58 6.416.58 4.345.579 11.737.579 1.38.58 3.249.579 1.706.58 3.492.579 4.264.58.812.579 3.533.579-.487.58 1.38 1.158 1.3.58.812 1.159 6.132.58 3.899.579 2.964.579 1.828 1.159 5.888.58 1.218.579 2.275.58.08.579.204 1.159 4.548.579.203.58 2.315.579 1.015.58 3.574.579 1.868 1.159 4.386.579 4.588.58 1.503.579-1.462.58.447.579.853 1.738 3.776.58-.284.579 3.736.58 1.706 1.158 2.274 1.16 5.36.579 4.548.58 2.153.578 1.056.58-.285.58.69.579-.365.58-.609.579-1.178 1.159.366 1.158 2.193.58 1.584.58 1.015.579 2.07.58 1.382.579.974.58.366.579.609.579 1.3 1.159 1.99.58-.854.579-.487.58.122.579-.284.579-.447.58.244.579-.447.58 1.137.579.73.58.082.579-.122.58.731 1.158.731.58.122.579.406.58.203.579.731.58.163.579-.366.58.163.579.568.579-.04 1.159.406.58.406.579.08 1.159-.486.579.324.58-.162 1.158-1.178.58.244.58-.162.579-.041.58-.447 1.158.163.58-.122 3.476-1.38.58-.163.579-.406.58-.122.579-.853.58-.487.579-.325.58-.081.579-.934.579-1.544.58-1.015.579-.162.58-.447.579-.162.58-.813.579-.243 1.159.893.579.163.58-.366.579-.568.58-.366.579-.61.58-.405.579-.772.579-.528.58-.08.579-.488.58.04.579.163h.58l.579.122.58-.163.579-.04 1.158 1.259.58-.041.58-.163.579-.324.58-.163 1.158.569.58-.325 1.738.609.58.569.579.04.58-.73.579-.041 1.158.243.58.488h.58l.579 1.015 1.738 1.38.58.975.579.406.58.894.579-.853.58.243 1.158.163 1.159.122.58-.488.579 1.3.58.122.579-.406.58-.853 1.738.447.579-1.016h.58l.579.569.58.893 1.158-1.259.58.244.58.081.579-.081 1.158.69.58-.528.58-.365.579-.731.58.244h.579l.579-.488.58-1.096.579.122.58-.325.579-.69.58-.894 2.317-1.624.58-.082.579.813.58.162.579-.406.58-1.056.579-.365.579-.528 1.159-.203.58-1.665.579-.04.58.202.579-.243.58-.731.579-.041.579-.934.58.609.579.162.58-1.096.579-.406.58.69.579-.284.58-1.787 1.158-1.787.58-.243.579-.853 1.159-3.533.58-.081 1.158-2.356 1.159-2.924.58-.69.579-1.827 1.159-1.706.58.65.579-.203.579-1.99 1.159.893.58-.568.579 1.34.58-2.112.579.081.58-2.314.578-3.858.58-1.706 1.159-5.726.58-.974.579-3.533.58-1.422.579-3.33 1.158-10.355.58-5.036.58-3.695.579-2.437.58-5.685 1.158-5.523.58-.528.579-1.015.58.853.579-2.64.58-1.38.579-1.91 1.159-.365.579-1.787.58-.324.579.121.58 1.665.579 1.3.58-1.015.579-2.234.58.081.579.244.579.934 1.159.934 1.159 7.635.58 4.304 1.738 4.467.579 4.305.58.203 1.158 1.503.58 2.03 1.159 5.929.579 1.056.58 2.883.579 4.914.58 1.705.579-.121.58-.244.579 3.614.58 1.543.579 2.6.579-.691 1.159 3.086.58 3.127 1.738 6.335.579 2.193.58 1.625.579.771.58.04.579.163.58.772.579.325.58-.366.579 1.95.579-.285.58.406 1.158-1.34.58-2.193.58.772.579-1.34.58.446 1.158 1.787.58-.69.579.934 1.159-.772 1.159-2.68.579-.69.58.812 1.158.812.58.69.58 1.138.579.406.58 1.015.579-.203h.579l.58.446.579-.852.58.203 1.158 3.167.58-2.03.58-.69.578-2.803.58-.406.58.244.579-.569.58-.771.579.771.58 1.422.579 2.802.579.528 1.159-2.315.58-.284.579 1.38.58-.284.579.325.58.69.579 1.34.579 1.625.58-.203.579 1.502 1.159.731.58.894.579.406.579-.731.58.406.579-.853 1.159 1.95h.58l1.158 2.03.58 2.152.579-.04.58.568.579-1.178.58 1.016.579.284.58.73.579 1.179.58 3.167.578.61.58 3.167.58.771h.579l.58-.324.579-.163.58-.853.579-.203 1.158-1.015.58.04.58 1.178.579-.122.58 1.3.579.812.58.447.579.609.579.325.58-.731.579.447.58-.082 1.158-.852.58.203.579-1.056.58-.163 1.158-.69.58.65 1.159-1.787.58-.528.579.162.579-1.015.58-.487 1.738-3.98.58.528 1.158-5.32.58-1.38.579-.447.58-1.178.579-.73.58-1.422.579.609.58-.772 1.158-4.182.58-.853.579-.203.58.081.579.325.58-3.127 1.158-3.736.58-3.614 1.158-.447.58-.69.58 2.558 1.158 3.005.58 2.802.58-1.502 1.737 1.218 2.318 4.426.58-.162.579 2.883.58 4.345.579.69.58-.69.579 1.137.58 1.665.579.61.58-1.34.579-2.6.579.65.58 2.559.579 1.015.58.325.579.893.58.61.579 1.461.579.894.58.65.579.324.58 1.3.579.446 1.159 1.544.58 1.34.579-.853.579 1.3.58.04.579-.162.58 1.462 1.158-1.016.58 1.178.58.61.578.365h0" clip-path="url(#p96d091fb6c)" style="fill:none;stroke:#1007e1;stroke-width:1.5;stroke-linecap:square" id="line2d_23"/><path d="m40.922 284.4 19.701-.081 2.318-.203.58-.285 1.159-.324.579-.285.58-.609.579.122.58-1.178.579-.203.58.122.579-2.112.579.325.58.61.579-3.858.58-7.148 1.158-8.65.58-5.198 1.738-30.05.58-3.737 1.738-25.096.58-10.6.579-41.502.58-9.95 1.158-63.228.58-9.137.579-16.894.58-37.158.579 28.792.58-29.685.579 5.563.579 16.894.58-1.706.579 10.559.58 27.33.579-36.305.58 23.838.579 9.096.58-.203.579 6.985.579 1.056.58 8.731.579 36.305.58 9.624.579 15.107.58 11.046.579 5.929.579 4.467.58 6.538.579 4.792.58 9.218 1.158 13.97.58 4.386.58 5.32.579 1.38.579 6.132.58 4.467.579-1.015.58 4.751.579 2.64.58 1.746.579-.609.58 7.716.579-6.985.579 5.685.58-.73.579-16.772.58 5.441.579 22.945.58-1.056.579 10.924.579-1.868.58.487.579 22.863.58 1.625.579-14.376.58 4.467.579.609.58 3.94.579 1.177.579-4.508.58 2.315.579 1.259.58-3.249.579.893.58.244.579 1.056.579.73.58-.933.579.73.58 2.437 1.158 1.422.58.284.58.122.579 1.096.579-1.056.58-.162.579-.04.58.568 1.158.406.58.162.58 2.437 1.158.853.58-.488.579.69.58.245.579-.447.58.974.579-.243 1.158.568 1.16.082.579.203.58.771.579-.487.58-.122.579-.325 1.158-.162 1.16.65.579-2.315.58-.04.579.527 1.738-.04.58.609.579 3.33.58.243 1.158.244h.58l.579.243.58-1.055 1.158-.528 1.739-.04.58-.488.579.447.579.121.58.488 1.158-.122h.58l.58.609 1.737-1.3.58-.243 1.159-.081.58-.163.579-.365.58.04.579.244.579-.203.58-.325 1.738.325.58.73.579-.974.58.244.579.122.579-.122.58-.61.579-.324.58-1.056.579.731.58 1.543.579-.244.579-.04.58.325.579-.447.58-.244.579-.08.58-4.143.579-.244.58-.04 1.158-.934.58-.65.579-1.137.58-2.924 1.158-.528.58-.771.579-1.178.58.081.579-.04.58.121 1.158-1.218.58-1.259.58.244.579-1.38.579-.366 1.159 1.177.58-.203.579.528.58-.568h.579l.58-.65.579 1.056.579-.406.58-.569.579-1.056.58-1.665.579-1.056.58-.487.579-2.802 1.158-3.127.58-2.071.58-6.213 1.158-5.32.58-4.914.58-2.558.579 4.304 1.158-19.817 1.16-6.904.579-10.03.58-3.493.579-10.233.58-1.584.578-30.498.58 11.899.58-5.036.579-11.451.58-3.29.579-1.584.58-5.36.579 1.95.579-14.701.58-2.356.579-4.223.58-2.03.579-1.34.58 1.99.579.202.58-4.183.579-.08.579-8.448 1.159 7.716.58.203.579 8.731.58 1.747.579 3.492.579 7.39.58 1.625.579.65.58 3.98.579 9.502.58 3.127.579.285.58 13.36h.579l.579.975.58 1.705.579-2.477.58.569.579 1.137.58.08.579.772.58.975.579-.406.579 1.909.58.284.579 1.421.58.65.579.162 1.159 1.665.579-.446.58.528.579-1.219.58 18.396.579 1.747.58-1.706.579-.569.58-6.781.579-1.097.579 1.625.58 1.055.579-.406.58 2.315.579-.69.58 4.101.579.894.579-1.016.58-18.599.579-.487.58-1.421.579 2.964.58 5.117.579 2.152.58-.325.579-1.827.579-1.015.58.406.579-3.736.58 3.492.579-3.29.58-2.558.579-.527 1.738-4.468.58 1.706.579-1.624.58.122.579-6.985.58-.447.579-.934.579-.406.58-4.548.579-.325.58 13.97.579-7.595.58 2.03.579.976.58-.163.579.081.579 2.518.58-14.62.579 14.742.58-.325.579.163.58 1.949.579 5.563.58-.568 1.158 6.578.58 1.706.579.325.58 3.167.579 6.336.58 1.299.579.406.579 1.34.58-1.137.579 1.503.58-1.665.579.528.58-1.787.579-1.3.58 4.061.579.61.579-.325.58.609.579 2.03.58-.365.579 1.137.58 8.771.579.041.579-.447.58 1.097.579-1.625.58 3.655.579-.122.58-2.517.579-.285.58.082.579-.407.579 4.914.58-.203.579 1.706.58-24.853.579-.61.58.326.579-.69.58-3.818.579-2.315.579-3.33.58 22.944.579.204.58-2.193.579 6.619.58-1.827.579-4.792.579-1.422.58.04.579-.852.58.366.579-7.635.58 3.29.579 5.035.58 1.909h.579l.579.73.58 1.462.579-2.517.58-1.746.579-.65.58.528.579-.04.579-1.138.58-.203 1.158 3.655.58-.081.58-.934.579 1.624.58 1.015.579 1.26 2.317 13.603.58 1.665.58.65.579-.04.58.77.579.245.579 2.436 1.159 6.741.58 2.6.579 1.38.58 3.899.579.934.579 1.746.58-.081.579 2.03.58.934.579.406.58 5.442.579.284.58-.162.579-.366.579-.081.58.853.579 1.096.58-2.599.579 3.533.58 1.99.579 2.924.58 1.502 1.158.935 1.159 4.913.58 1.26.579.08.58.569.579.934.579.65.58.04.579-.203.58.853.579.487.58.244.579.487.58.04.579.935.579 1.178 1.159.934.58 1.421.579.406 1.159-.284 1.158.568.58.61.58.365.579-.203 1.738.975.58-.122 1.158.406.58-.081.58.243.579.366.58-.772.579.894.58.365.579-.162.579.121h.58l.579.325.58.853.579-.65.58.163.579-.61.579-.243.58-.04.579-1.056.58.162 2.317-3.533 1.159-.934.58-1.259.579-.203.58-.975.579-.121.58.487.579-.528.579-1.097.58-.812.579-.568 1.738-3.087.58-.527 1.159-3.655 1.158-5.239.58-.122.58-2.396.579-2.883.58-1.34.579-2.03.58.202h.579l.579-.974.58 1.543.579 2.518.58.487 1.158 1.99.58.528.579.365.58-.365.579.162.58-.446.579 1.258.58-2.477.579 1.26.58.162.579 1.502.579.812.58 1.665.579-3.736.58 6.092.579 2.193 1.159.121.58-.203.578 2.112.58 2.965.58-2.6.579-1.624.58.894.579 1.38.58.366.579-1.218.579 2.802.58.852.579.569.58.975.579-1.34.58.324.579 1.503.58-.163.579-.528.579.853.58.488.579.934.58.203.579.934.58.406 1.158 1.38.58.285 1.158.081.58-.406 1.159 1.868.58-.325.579.325.579-.122 1.738.203.58-.487 1.159.528.58.04.579-.162.579 1.624.58-2.03.579.081.58-.61.579.123.58-.122.579.081.579-2.071.58 1.706.579.203.58 1.137.579-.894.58.366.579-.244.58-.69.579-.081.579-.934.58-1.381.579-.081.58-.325h.579l.58-.894.579-1.462 1.158-1.827 1.16-.731.579-.162 1.159-2.437.58-.61.579-1.258.579-2.802.58-.65.579-.284 1.159-5.117 1.159-2.883 1.738-2.355.58-1.95.579.569.58-.69.579-2.112.58-.569.579-.73.579-1.097.58.771.579-2.883.58-.771.579.365.58-.203.579.04.58-.852.579-1.3.579-2.518.58-.568.579-.122 1.159-1.95.58.204.579-.569 1.158-4.954.58-.934.58-.162.579-1.3.58.04.579-.405.58.406h.579l.579-.853.58.081.579-.244.58.366 1.158-2.762.58 9.503.58-9.665.579-1.706.579-.771.58-1.38.579-3.209.58-3.858.579-9.909.58 7.92.579-1.219 1.158-.934.58 1.3.58 4.06.579-.812.58.203.579-3.736.58.325.579-.081.579-2.274.58-13.036.579 11.208.58-15.878.579 3.452.58.365.579.894.58 1.3.579 28.06.579-27.167.58 14.944.579-1.421.58.568.579 4.305.58 14.7.579-26.72.579 18.03.58.203.579 4.751.58 1.868.579-3.045.58-8.528.579 18.111.58 1.544.579 4.101.579.244.58-.772.579 1.787.58 2.274.579 1.746.58 1.3.579 3.005.579 1.3.58 2.842.579.163.58-.488.579.934.58-.73.579-.407.58 1.543.579-.487.579-.081.58 1.462.579.487.58 2.396.579.122.58-.366.579-.203.58-.446.579.121 1.738-3.654.58-.528.579-.041.58.406.579-.365 1.738 3.939.58-.203.579-.772.58-.568.579-.772.58-1.056 1.158-2.558.58-.488.579 1.056.58.406.579 5.28.58-.934.579-3.046.58-2.112.578.203.58-.568.58-.203.579-6.051.58.487.579 3.046.58 2.152.579-.487.579.568.58.325.579.69.58 2.031.579 1.543.58.406.579 1.95.58-.041.579-.893.579 1.949.58-.122.579.731.58 1.543.579.447 1.159 3.98.579-2.884.58 1.34 1.158 1.34.58 1.381.58.366.579.162.58 2.883.579.041.579 1.178.58 1.584.579.812 1.159.162 1.159.975.58-.285.578-.527.58.284 1.159-.203.58 4.914.579-1.828.58-.771.579-.041.579 1.543.58-1.462.579.122h.58l.579-1.137.58 1.137.579-.284.58-1.747.579 1.584h.579l.58-2.72.579 3.776.58-.69.579.365.58-.243h1.158l.58-.894 1.158 1.503 1.739-.203h.58l.579-2.112.579-1.543.58-.203.579-1.909.58-.893h1.158l.58-.853 1.159-4.386 1.158 6.62h1.16l.579-10.518 1.159-1.34 1.158-9.99h1.16l.579 8.568 1.159 1.909 1.159 1.827h1.158l.58.569.58.73.579.529.58 1.015.579.365h1.158l.58.894.58-.406.579.08 1.159.529h1.159l.579 7.066.58-2.721.579-.203.58-.487h1.738l.58-4.711.579 3.655.579 1.462.58 1.949.579.934h1.159l.58.244.579.65 1.158.243.58-.162h1.159l.58 1.056.579.487.58.325.579-.69.579.974h1.159l.58.934.579-.162 1.159 2.152.58.122h.578" clip-path="url(#p96d091fb6c)" style="fill:none;stroke:#0309a6;stroke-width:1.5;stroke-linecap:square" id="line2d_24"/><path d="m40.922 284.4 26.075-.04 1.16-.122 2.317-.041 3.477-.487 1.158.121.58.204.58-.569 2.317.284.58-.853.579-.365.58.447.579-.244 1.738-.284.58.69 1.158.447 2.898.081.58.04.579-.243.579.244.58-.122h1.158l.58-.081 1.159.162.579-.081.58.122.579-.041 1.159.325.58-.122.579.122 3.476.081 1.739.081 1.738-.162 2.318-.122.58.081.579-.04.579.122 3.477.08 1.738.123.58-.122 1.738.081 1.159-.081h.579l.58.162h1.158l4.636-.081 1.738-.081 4.636.243 1.159-.04 1.738.04 9.27-.04 1.74-.244 1.158.04h1.159l2.318.082 6.953-.04.58-.204 2.317-.243 1.16-.082.579.203h1.158l1.16.082 1.158.162.58-.447.58-.08 1.158.04 1.738-.406 1.16.406 1.158-.081.58-.041.579.162 2.318-.121 1.159.04 6.953-.974 1.159.243 1.159.203.579.285 1.159-.082.58-.04.579-.163.58.081.579-.04.58-.163 1.158.244.58-.365.579.04 1.159-.243 1.738-.772.58.162 1.158-.243.58.04 1.159-.162.58.203.579-.04.579.162 1.159-.325 1.738.284 1.16.04.578-.04.58-.325.58-.69.579-.325 3.476-6.579.58-1.015.58-.162.579-1.462 1.738-2.315.58-.365.579-1.381.58-2.843.579-1.3.58-1.015.579-1.543.58-1.096.579-1.625.579-1.177.58-.528.579.203.58-.04.579-.407 1.159-.122.58.122.579.934 1.158-.284.58.365.58-.243.579.771.58-.162.579 1.218.58.65.579 1.096.579.163.58.406.579.122.58.243.579.406.58.61.579-.934.579.609 1.159 1.868.58 1.868.579.487 1.159 1.462.58 1.015 1.158.366 1.159.528.58.69.579.487.58.731.579.406.579.122.58-.243.579.325h.58l1.158 1.137.58.934 1.738 1.665.58.324.579.813 1.159-.203 1.159.568.58-.162.579.162.579-.244.58.366.579-.203 2.318 1.178.579-.325.58-.04.579.202.58-.284.579.122.58-.569.579-.162.58.325.579.08.579.407.58.122.579-.081.58.121 1.158-.121.58-.366.58.162 1.158-.487.58.122.579-.081.58.081.579.284 1.159-1.096.579-.04.58-.244.579-.447.58-.244.579-.04.58-.488.579.163.58-.122.579-.487.579-.69.58-.366.579-.934.58-.122 1.738-1.787h.579l.58-.284 1.158-1.056.58.244.58-.61.579-.324.58.487.579-.934.579.325.58-.447.579-.284.58.446 1.158-1.015.58.163.58-.853.579-.366.579-.609.58-.771.579.08.58-.974 1.158-.609.58.04 1.738-.69.58 1.056.579-.122.58-.568.579-.244.58-1.259.579-.528.579.325.58-.528.579-.08.58.243.579-.203.58 1.177.579.61.579-.772.58.325.579-.081.58-.203.579.934.58.08.579.407.58.568.579 2.315.579-2.193.58.447.579-1.34.58-.406 1.158.284.58-2.071.58 3.005 1.737 3.37.58.285.58 1.015.579.04.58.163.579-.447.579.69 1.159.041.58.244.579.487.58.244.579.528.58.365 1.158 1.26 1.738 1.015 1.16 1.786h.579l.58.244.578-.244.58.244.58.69.579-.121.58.325.579.609.58.934.579.446.579.285.58.121.579.325.58.082.579.324.58-.365 2.317.69 1.738-.162.58.325.58-.163.579-.04 1.158.243.58.569.58.365.579.122 1.159.975 1.159.162.579-.243h.58l.579.284.58.04.579-.162.58.284 1.738.163 1.158-.406.58.08.58-.202.579.162.58.04.579.285.579-.04 1.738.243.58-.487 1.159-.406.58-.366 1.158-.203.58-.243.579-.041.58-.162.579-.366.58.284.579-.284.579-.568 1.738-.731.58-.082.58-.568h.579l1.159.528.579-.203h.58l.579-.244.58.04.579-.65 1.738-2.842.58-.406.579.325.58-.61.579-.162.58.731.579.366.58-.366.579-.162.579-.569.58.325.579-.243.58-1.097.579-.122.58.366.579-.487.58-.244.579-.366.579.61 1.159-.569h.58l1.158.203h.58l.58-.203.578.61.58.08 1.159 1.137.58.285.579.934.58.365.579-.365.579.771.58-.69.579-.081.58.04.579-.528.58-.284.579.487.58-.446.579.934 1.158.325.58-.285.58.041.579-.244.58.082.579-.407.579-.73.58-.041 1.158.325.58-.04.58.162.579-.285.58.569.579-.325.579-.487.58-.122.579-.447.58.163.579-1.016.58.122.579-.771.58.203.579-.569.579.081.58-1.421.579.162.58-.446.579.243.58-.203.579-.325.579-.568.58.284.579-.812.58-1.015.579-.285 1.159-2.233.58-.244.579-1.3.579-.405.58.162.579-1.502.58.04.579.163.58-1.625 1.158-.528.58-.73.579.284.58-.528.579-.894 1.159.244.58.73.579-.405.579-.65.58-.284.579.771.58-.528 1.158-.73.58.406.58-.041.579.69.579-.487.58.975.579-1.26.58.326.579-.69.58.73.579.366.579-.04.58.486.579 2.072.58.284.579 1.056.58-.366.579.203.58.528 1.158 1.462.58-.325h.579l.58.488.579-.041.58.73.579-.527.58-.081.578.69 1.16.244 1.738-.65 1.159-1.34.579-1.015.58.04.579-.568.58-1.219.579-.73.58-1.219.579-.406.58.569.579-1.34.579.243.58.406.579-.406.58.244 1.158-2.518.58-.081.579-.284.58-.447.579-.61.58-.162.579.203.58.04.579.732.58.325.579.081.579.487.58-.162.579 1.015.58.61.579-.326.58.082.579.812 1.159 2.64 1.158.284.58.568.58-.284.579.325.58-.325.579.528 1.158 2.436 1.16 1.99.579.04 1.159 1.179.58-.203.579.04.579.366h.58l.579.609.58.934 1.158-.325 1.159.528.58.447.579.08.58-.852.579.244.58.771 1.158-.406.58-.244.579.203 1.159 1.3.58-.406 1.158 1.624 1.739-1.34.579-.69.58-.325.579-.569.58-1.055.579.162.58-.366.579.447.579-.771.58-.569.579-.812.58.162.579.04.58.285.579-.528.58.04.579.245.579.568.58-1.015 1.158.203.58.447.58.812.579.243.58.772.578 2.071.58.853.58 2.071.579-.081.58.243.579.731 1.159-.73.579-.447.58-.894.579 1.462.58-.04.579.446.58.813.579.284.58.771.579-.04.579.203.58.69 1.738.934.58.203.579.488.579-.163.58.163.579.284.58-.122.579.569.58-.244h.579l1.159.69.579.081.58.407.579.04.58.325.579-.325 1.159-.284.58.244.578.04 1.16-.162.579.284.58.447.579-.285.58-.121.579.08.579-.162h.58l.579.163 1.159 1.015.58-.04.579.08 1.159.57h.579l.58-.488.579-.122.58.284.579-.365 1.159.04.579-.324h1.159l.58-.122.579.122.58-.204.579-.73 2.317-1.584.58-.61.58-.162 1.158-.081 1.16 1.909.579.893.579 1.178 1.159 1.949.58 1.137h.579l.58-9.38h3.476l.58 9.38.579-11.858h2.897l.58-15.35.579 11.858h2.897l.58 1.34h3.476l.58 1.584 7.532-.041.58 3.655h3.476l.58.487h3.476l.58 2.762h2.317" clip-path="url(#p96d091fb6c)" style="fill:none;stroke:#6b7186;stroke-width:1.5;stroke-linecap:square" id="line2d_25"/><g style="fill:#d8b009" transform="matrix(.14 0 0 -.14 615.663 244.734)" id="text_16"><defs><path id="DejaVuSans-47" d="M3809 666v1253H2778v519h1656V434q-365-259-806-392-440-133-940-133-1094 0-1712 639-617 640-617 1780 0 1144 617 1783 618 639 1712 639 456 0 867-113 411-112 758-331v-672q-350 297-744 447t-828 150q-857 0-1287-478-429-478-429-1425 0-944 429-1422 430-478 1287-478 334 0 596 58 263 58 472 180z" transform="scale(.01563)"/><path id="DejaVuSans-65" d="M3597 1894v-281H953q38-594 358-905t892-311q331 0 642 81t618 244V178Q3153 47 2828-22t-659-69q-838 0-1327 487-489 488-489 1320 0 859 464 1363 464 505 1252 505 706 0 1117-455 411-454 411-1235zm-575 169q-6 471-264 752-258 282-683 282-481 0-770-272t-333-766l2050 4z" transform="scale(.01563)"/><path id="DejaVuSans-72" d="M2631 2963q-97 56-211 82-114 27-251 27-488 0-749-317t-261-911V0H581v3500h578v-544q182 319 472 473 291 155 707 155 59 0 131-8 72-7 159-23l3-590z" transform="scale(.01563)"/><path id="DejaVuSans-6d" d="M3328 2828q216 388 516 572t706 184q547 0 844-383 297-382 297-1088V0h-578v2094q0 503-179 746-178 244-543 244-447 0-707-297-259-296-259-809V0h-578v2094q0 506-178 748t-550 242q-441 0-701-298-259-298-259-808V0H581v3500h578v-544q197 322 472 475t653 153q382 0 649-194 267-193 395-562z" transform="scale(.01563)"/><path id="DejaVuSans-61" d="M2194 1759q-697 0-966-159t-269-544q0-306 202-486 202-179 548-179 479 0 768 339t289 901v128h-572zm1147 238V0h-575v531q-197-318-491-470T1556-91q-537 0-855 302-317 302-317 808 0 590 395 890 396 300 1180 300h807v57q0 397-261 614t-733 217q-300 0-585-72-284-72-546-216v532q315 122 612 182 297 61 578 61 760 0 1135-394 375-393 375-1193z" transform="scale(.01563)"/><path id="DejaVuSans-6e" d="M3513 2113V0h-575v2094q0 497-194 743-194 247-581 247-466 0-735-297-269-296-269-809V0H581v3500h578v-544q207 316 486 472 280 156 646 156 603 0 912-373 310-373 310-1098z" transform="scale(.01563)"/><path id="DejaVuSans-79" d="M2059-325q-243-625-475-815-231-191-618-191H506v481h338q237 0 368 113 132 112 291 531l103 262L191 3500h609L1894 763l1094 2737h609L2059-325z" transform="scale(.01563)"/></defs><use xlink:href="#DejaVuSans-47"/><use xlink:href="#DejaVuSans-65" x="77.49"/><use xlink:href="#DejaVuSans-72" x="139.014"/><use xlink:href="#DejaVuSans-6d" x="178.377"/><use xlink:href="#DejaVuSans-61" x="275.789"/><use xlink:href="#DejaVuSans-6e" x="337.068"/><use xlink:href="#DejaVuSans-79" x="400.447"/></g><g style="fill:#907eba" transform="matrix(.14 0 0 -.14 615.663 258.734)" id="text_17"><defs><path id="DejaVuSans-53" d="M3425 4513v-616q-359 172-678 256-319 85-616 85-515 0-795-200t-280-569q0-310 186-468 186-157 705-254l381-78q706-135 1042-474t336-907q0-679-455-1029Q2797-91 1919-91q-331 0-705 75-373 75-773 222v650q384-215 753-325 369-109 725-109 540 0 834 212 294 213 294 607 0 343-211 537t-692 291l-385 75q-706 140-1022 440-315 300-315 835 0 619 436 975t1201 356q329 0 669-60 341-59 697-177z" transform="scale(.01563)"/><path id="DejaVuSans-70" d="M1159 525v-1856H581v4831h578v-531q182 312 458 463 277 152 661 152 638 0 1036-506 399-506 399-1331T3314 415Q2916-91 2278-91q-384 0-661 152-276 152-458 464zm1957 1222q0 634-261 995t-717 361q-457 0-718-361t-261-995q0-634 261-995t718-361q456 0 717 361t261 995z" transform="scale(.01563)"/><path id="DejaVuSans-69" d="M603 3500h575V0H603v3500zm0 1363h575v-729H603v729z" transform="scale(.01563)"/></defs><use xlink:href="#DejaVuSans-53"/><use xlink:href="#DejaVuSans-70" x="63.477"/><use xlink:href="#DejaVuSans-61" x="126.953"/><use xlink:href="#DejaVuSans-69" x="188.232"/><use xlink:href="#DejaVuSans-6e" x="216.016"/></g><g style="fill:#1007e1" transform="matrix(.14 0 0 -.14 615.663 272.734)" id="text_18"><defs><path id="DejaVuSans-49" d="M628 4666h631V0H628v4666z" transform="scale(.01563)"/><path id="DejaVuSans-74" d="M1172 4494v-994h1184v-447H1172V1153q0-428 117-550t477-122h590V0h-590q-666 0-919 248-253 249-253 905v1900H172v447h422v994h578z" transform="scale(.01563)"/><path id="DejaVuSans-6c" d="M603 4863h575V0H603v4863z" transform="scale(.01563)"/></defs><use xlink:href="#DejaVuSans-49"/><use xlink:href="#DejaVuSans-74" x="29.492"/><use xlink:href="#DejaVuSans-61" x="68.701"/><use xlink:href="#DejaVuSans-6c" x="129.98"/><use xlink:href="#DejaVuSans-79" x="157.764"/></g><g style="fill:#0309a6" transform="matrix(.14 0 0 -.14 615.663 286.734)" id="text_19"><defs><path id="DejaVuSans-46" d="M628 4666h2681v-532H1259V2759h1850v-531H1259V0H628v4666z" transform="scale(.01563)"/><path id="DejaVuSans-63" d="M3122 3366v-538q-244 135-489 202t-495 67q-560 0-870-355-309-354-309-995t309-996q310-354 870-354 250 0 495 67t489 202V134Q2881 22 2623-34q-257-57-548-57-791 0-1257 497-465 497-465 1341 0 856 470 1346 471 491 1290 491 265 0 518-55 253-54 491-163z" transform="scale(.01563)"/></defs><use xlink:href="#DejaVuSans-46"/><use xlink:href="#DejaVuSans-72" x="50.27"/><use xlink:href="#DejaVuSans-61" x="91.383"/><use xlink:href="#DejaVuSans-6e" x="152.662"/><use xlink:href="#DejaVuSans-63" x="216.041"/><use xlink:href="#DejaVuSans-65" x="271.021"/></g><g style="fill:#6b7186" transform="matrix(.14 0 0 -.14 615.663 300.734)" id="text_20"><use xlink:href="#DejaVuSans-47"/><use xlink:href="#DejaVuSans-72" x="77.49"/><use xlink:href="#DejaVuSans-65" x="116.354"/><use xlink:href="#DejaVuSans-65" x="177.877"/><use xlink:href="#DejaVuSans-63" x="239.4"/><use xlink:href="#DejaVuSans-65" x="294.381"/></g></g></g><defs><clipPath id="p96d091fb6c"><path d="M40.922 7.2h558v277.2h-558z"/></clipPath></defs></svg>