<svg xmlns:xlink="http://www.w3.org/1999/xlink" width="928.157" height="419.957" viewBox="0 0 696.117 314.968" xmlns="http://www.w3.org/2000/svg"><defs><style>*{stroke-linejoin:round;stroke-linecap:butt}</style></defs><g id="figure_1"><path d="M0 314.968h696.117V0H0v314.968z" style="fill:none" id="patch_1"/><g id="axes_1"><path d="M49.83 284.4h558V7.2h-558v277.2z" style="fill:none" id="patch_2"/><g id="matplotlib.axis_1"><g id="xtick_1"><g id="line2d_1"><defs><path id="m35f699de66" d="M0 0v3.5" style="stroke:#b0b0b0;stroke-width:.4"/></defs><use xlink:href="#m35f699de66" x="90.046" y="284.4" style="fill:#b0b0b0;stroke:#b0b0b0;stroke-width:.4"/></g><g style="fill:#b0b0b0" transform="matrix(.14 0 0 -.14 60.798 302.038)" id="text_1"><defs><path id="DejaVuSans-32" d="M1228 531h2203V0H469v531q359 372 979 998 621 627 780 809 303 340 423 576 121 236 121 464 0 372-261 606-261 235-680 235-297 0-627-103-329-103-704-313v638q381 153 712 231 332 78 607 78 725 0 1156-363 431-362 431-968 0-288-108-546-107-257-392-607-78-91-497-524-418-433-1181-1211z" transform="scale(.01563)"/><path id="DejaVuSans-30" d="M2034 4250q-487 0-733-480-245-479-245-1442 0-959 245-1439 246-480 733-480 491 0 736 480 246 480 246 1439 0 963-246 1442-245 480-736 480zm0 500q785 0 1199-621 414-620 414-1801 0-1178-414-1799Q2819-91 2034-91q-784 0-1198 620-414 621-414 1799 0 1181 414 1801 414 621 1198 621z" transform="scale(.01563)"/><path id="DejaVuSans-2d" d="M313 2009h1684v-512H313v512z" transform="scale(.01563)"/><path id="DejaVuSans-34" d="M2419 4116 825 1625h1594v2491zm-166 550h794V1625h666v-525h-666V0h-628v1100H313v609l1940 2957z" transform="scale(.01563)"/></defs><use xlink:href="#DejaVuSans-32"/><use xlink:href="#DejaVuSans-30" x="63.623"/><use xlink:href="#DejaVuSans-32" x="127.246"/><use xlink:href="#DejaVuSans-30" x="190.869"/><use xlink:href="#DejaVuSans-2d" x="254.492"/><use xlink:href="#DejaVuSans-30" x="290.576"/><use xlink:href="#DejaVuSans-34" x="354.199"/></g></g><g id="xtick_2"><use xlink:href="#m35f699de66" x="147.229" y="284.4" style="fill:#b0b0b0;stroke:#b0b0b0;stroke-width:.4" id="line2d_2"/><g style="fill:#b0b0b0" transform="matrix(.14 0 0 -.14 117.98 302.038)" id="text_2"><defs><path id="DejaVuSans-37" d="M525 4666h3000v-269L1831 0h-659l1594 4134H525v532z" transform="scale(.01563)"/></defs><use xlink:href="#DejaVuSans-32"/><use xlink:href="#DejaVuSans-30" x="63.623"/><use xlink:href="#DejaVuSans-32" x="127.246"/><use xlink:href="#DejaVuSans-30" x="190.869"/><use xlink:href="#DejaVuSans-2d" x="254.492"/><use xlink:href="#DejaVuSans-30" x="290.576"/><use xlink:href="#DejaVuSans-37" x="354.199"/></g></g><g id="xtick_3"><use xlink:href="#m35f699de66" x="205.039" y="284.4" style="fill:#b0b0b0;stroke:#b0b0b0;stroke-width:.4" id="line2d_3"/><g style="fill:#b0b0b0" transform="matrix(.14 0 0 -.14 175.791 302.038)" id="text_3"><defs><path id="DejaVuSans-31" d="M794 531h1031v3560L703 3866v575l1116 225h631V531h1031V0H794v531z" transform="scale(.01563)"/></defs><use xlink:href="#DejaVuSans-32"/><use xlink:href="#DejaVuSans-30" x="63.623"/><use xlink:href="#DejaVuSans-32" x="127.246"/><use xlink:href="#DejaVuSans-30" x="190.869"/><use xlink:href="#DejaVuSans-2d" x="254.492"/><use xlink:href="#DejaVuSans-31" x="290.576"/><use xlink:href="#DejaVuSans-30" x="354.199"/></g></g><g id="xtick_4"><use xlink:href="#m35f699de66" x="262.85" y="284.4" style="fill:#b0b0b0;stroke:#b0b0b0;stroke-width:.4" id="line2d_4"/><g style="fill:#b0b0b0" transform="matrix(.14 0 0 -.14 233.602 302.038)" id="text_4"><use xlink:href="#DejaVuSans-32"/><use xlink:href="#DejaVuSans-30" x="63.623"/><use xlink:href="#DejaVuSans-32" x="127.246"/><use xlink:href="#DejaVuSans-31" x="190.869"/><use xlink:href="#DejaVuSans-2d" x="254.492"/><use xlink:href="#DejaVuSans-30" x="290.576"/><use xlink:href="#DejaVuSans-31" x="354.199"/></g></g><g id="xtick_5"><use xlink:href="#m35f699de66" x="319.404" y="284.4" style="fill:#b0b0b0;stroke:#b0b0b0;stroke-width:.4" id="line2d_5"/><g style="fill:#b0b0b0" transform="matrix(.14 0 0 -.14 290.156 302.038)" id="text_5"><use xlink:href="#DejaVuSans-32"/><use xlink:href="#DejaVuSans-30" x="63.623"/><use xlink:href="#DejaVuSans-32" x="127.246"/><use xlink:href="#DejaVuSans-31" x="190.869"/><use xlink:href="#DejaVuSans-2d" x="254.492"/><use xlink:href="#DejaVuSans-30" x="290.576"/><use xlink:href="#DejaVuSans-34" x="354.199"/></g></g><g id="xtick_6"><use xlink:href="#m35f699de66" x="376.587" y="284.4" style="fill:#b0b0b0;stroke:#b0b0b0;stroke-width:.4" id="line2d_6"/><g style="fill:#b0b0b0" transform="matrix(.14 0 0 -.14 347.339 302.038)" id="text_6"><use xlink:href="#DejaVuSans-32"/><use xlink:href="#DejaVuSans-30" x="63.623"/><use xlink:href="#DejaVuSans-32" x="127.246"/><use xlink:href="#DejaVuSans-31" x="190.869"/><use xlink:href="#DejaVuSans-2d" x="254.492"/><use xlink:href="#DejaVuSans-30" x="290.576"/><use xlink:href="#DejaVuSans-37" x="354.199"/></g></g><g id="xtick_7"><use xlink:href="#m35f699de66" x="434.398" y="284.4" style="fill:#b0b0b0;stroke:#b0b0b0;stroke-width:.4" id="line2d_7"/><g style="fill:#b0b0b0" transform="matrix(.14 0 0 -.14 405.15 302.038)" id="text_7"><use xlink:href="#DejaVuSans-32"/><use xlink:href="#DejaVuSans-30" x="63.623"/><use xlink:href="#DejaVuSans-32" x="127.246"/><use xlink:href="#DejaVuSans-31" x="190.869"/><use xlink:href="#DejaVuSans-2d" x="254.492"/><use xlink:href="#DejaVuSans-31" x="290.576"/><use xlink:href="#DejaVuSans-30" x="354.199"/></g></g><g id="xtick_8"><use xlink:href="#m35f699de66" x="492.208" y="284.4" style="fill:#b0b0b0;stroke:#b0b0b0;stroke-width:.4" id="line2d_8"/><g style="fill:#b0b0b0" transform="matrix(.14 0 0 -.14 462.96 302.038)" id="text_8"><use xlink:href="#DejaVuSans-32"/><use xlink:href="#DejaVuSans-30" x="63.623"/><use xlink:href="#DejaVuSans-32" x="127.246"/><use xlink:href="#DejaVuSans-32" x="190.869"/><use xlink:href="#DejaVuSans-2d" x="254.492"/><use xlink:href="#DejaVuSans-30" x="290.576"/><use xlink:href="#DejaVuSans-31" x="354.199"/></g></g><g id="xtick_9"><use xlink:href="#m35f699de66" x="548.762" y="284.4" style="fill:#b0b0b0;stroke:#b0b0b0;stroke-width:.4" id="line2d_9"/><g style="fill:#b0b0b0" transform="matrix(.14 0 0 -.14 519.514 302.038)" id="text_9"><use xlink:href="#DejaVuSans-32"/><use xlink:href="#DejaVuSans-30" x="63.623"/><use xlink:href="#DejaVuSans-32" x="127.246"/><use xlink:href="#DejaVuSans-32" x="190.869"/><use xlink:href="#DejaVuSans-2d" x="254.492"/><use xlink:href="#DejaVuSans-30" x="290.576"/><use xlink:href="#DejaVuSans-34" x="354.199"/></g></g><g id="xtick_10"><use xlink:href="#m35f699de66" x="605.945" y="284.4" style="fill:#b0b0b0;stroke:#b0b0b0;stroke-width:.4" id="line2d_10"/><g style="fill:#b0b0b0" transform="matrix(.14 0 0 -.14 576.697 302.038)" id="text_10"><use xlink:href="#DejaVuSans-32"/><use xlink:href="#DejaVuSans-30" x="63.623"/><use xlink:href="#DejaVuSans-32" x="127.246"/><use xlink:href="#DejaVuSans-32" x="190.869"/><use xlink:href="#DejaVuSans-2d" x="254.492"/><use xlink:href="#DejaVuSans-30" x="290.576"/><use xlink:href="#DejaVuSans-37" x="354.199"/></g></g></g><g id="matplotlib.axis_2"><g id="ytick_1"><path d="M49.83 284.4h558" clip-path="url(#p9f6d5b151b)" style="fill:none;stroke:#b0b0b0;stroke-width:.3;stroke-linecap:square" id="line2d_11"/><g id="line2d_12"><defs><path id="m19b76dbe5c" d="M0 0h-3.5" style="stroke:#b0b0b0;stroke-width:.3"/></defs><use xlink:href="#m19b76dbe5c" x="49.83" y="284.4" style="fill:#b0b0b0;stroke:#b0b0b0;stroke-width:.3"/></g><use xlink:href="#DejaVuSans-30" style="fill:#b0b0b0" transform="matrix(.14 0 0 -.14 33.922 289.719)" id="text_11"/></g><g id="ytick_2"><path d="M49.83 243.468h558" clip-path="url(#p9f6d5b151b)" style="fill:none;stroke:#b0b0b0;stroke-width:.3;stroke-linecap:square" id="line2d_13"/><use xlink:href="#m19b76dbe5c" x="49.83" y="243.468" style="fill:#b0b0b0;stroke:#b0b0b0;stroke-width:.3" id="line2d_14"/><g style="fill:#b0b0b0" transform="matrix(.14 0 0 -.14 16.108 248.787)" id="text_12"><defs><path id="DejaVuSans-35" d="M691 4666h2478v-532H1269V2991q137 47 274 70 138 23 276 23 781 0 1237-428 457-428 457-1159 0-753-469-1171Q2575-91 1722-91q-294 0-599 50Q819 9 494 109v635q281-153 581-228t634-75q541 0 856 284 316 284 316 772 0 487-316 771-315 285-856 285-253 0-505-56-251-56-513-175v2344z" transform="scale(.01563)"/></defs><use xlink:href="#DejaVuSans-35"/><use xlink:href="#DejaVuSans-30" x="63.623"/><use xlink:href="#DejaVuSans-30" x="127.246"/></g></g><g id="ytick_3"><path d="M49.83 202.537h558" clip-path="url(#p9f6d5b151b)" style="fill:none;stroke:#b0b0b0;stroke-width:.3;stroke-linecap:square" id="line2d_15"/><use xlink:href="#m19b76dbe5c" x="49.83" y="202.537" style="fill:#b0b0b0;stroke:#b0b0b0;stroke-width:.3" id="line2d_16"/><g style="fill:#b0b0b0" transform="matrix(.14 0 0 -.14 7.2 207.856)" id="text_13"><use xlink:href="#DejaVuSans-31"/><use xlink:href="#DejaVuSans-30" x="63.623"/><use xlink:href="#DejaVuSans-30" x="127.246"/><use xlink:href="#DejaVuSans-30" x="190.869"/></g></g><g id="ytick_4"><path d="M49.83 161.605h558" clip-path="url(#p9f6d5b151b)" style="fill:none;stroke:#b0b0b0;stroke-width:.3;stroke-linecap:square" id="line2d_17"/><use xlink:href="#m19b76dbe5c" x="49.83" y="161.605" style="fill:#b0b0b0;stroke:#b0b0b0;stroke-width:.3" id="line2d_18"/><g style="fill:#b0b0b0" transform="matrix(.14 0 0 -.14 7.2 166.924)" id="text_14"><use xlink:href="#DejaVuSans-31"/><use xlink:href="#DejaVuSans-35" x="63.623"/><use xlink:href="#DejaVuSans-30" x="127.246"/><use xlink:href="#DejaVuSans-30" x="190.869"/></g></g><g id="ytick_5"><path d="M49.83 120.674h558" clip-path="url(#p9f6d5b151b)" style="fill:none;stroke:#b0b0b0;stroke-width:.3;stroke-linecap:square" id="line2d_19"/><use xlink:href="#m19b76dbe5c" x="49.83" y="120.674" style="fill:#b0b0b0;stroke:#b0b0b0;stroke-width:.3" id="line2d_20"/><g style="fill:#b0b0b0" transform="matrix(.14 0 0 -.14 7.2 125.993)" id="text_15"><use xlink:href="#DejaVuSans-32"/><use xlink:href="#DejaVuSans-30" x="63.623"/><use xlink:href="#DejaVuSans-30" x="127.246"/><use xlink:href="#DejaVuSans-30" x="190.869"/></g></g><g id="ytick_6"><path d="M49.83 79.742h558" clip-path="url(#p9f6d5b151b)" style="fill:none;stroke:#b0b0b0;stroke-width:.3;stroke-linecap:square" id="line2d_21"/><use xlink:href="#m19b76dbe5c" x="49.83" y="79.742" style="fill:#b0b0b0;stroke:#b0b0b0;stroke-width:.3" id="line2d_22"/><g style="fill:#b0b0b0" transform="matrix(.14 0 0 -.14 7.2 85.061)" id="text_16"><use xlink:href="#DejaVuSans-32"/><use xlink:href="#DejaVuSans-35" x="63.623"/><use xlink:href="#DejaVuSans-30" x="127.246"/><use xlink:href="#DejaVuSans-30" x="190.869"/></g></g><g id="ytick_7"><path d="M49.83 38.81h558" clip-path="url(#p9f6d5b151b)" style="fill:none;stroke:#b0b0b0;stroke-width:.3;stroke-linecap:square" id="line2d_23"/><use xlink:href="#m19b76dbe5c" x="49.83" y="38.811" style="fill:#b0b0b0;stroke:#b0b0b0;stroke-width:.3" id="line2d_24"/><g style="fill:#b0b0b0" transform="matrix(.14 0 0 -.14 7.2 44.13)" id="text_17"><defs><path id="DejaVuSans-33" d="M2597 2516q453-97 707-404 255-306 255-756 0-690-475-1069Q2609-91 1734-91q-293 0-604 58T488 141v609q262-153 574-231 313-78 654-78 593 0 904 234t311 681q0 413-289 645-289 233-804 233h-544v519h569q465 0 712 186t247 536q0 359-255 551-254 193-729 193-260 0-557-57-297-56-653-174v562q360 100 674 150t592 50q719 0 1137-327 419-326 419-882 0-388-222-655t-631-370z" transform="scale(.01563)"/></defs><use xlink:href="#DejaVuSans-33"/><use xlink:href="#DejaVuSans-30" x="63.623"/><use xlink:href="#DejaVuSans-30" x="127.246"/><use xlink:href="#DejaVuSans-30" x="190.869"/></g></g></g><path d="m49.83 284.4 21.993-.082 3.142-.152 1.257-.012 1.257-.117 1.885-.21 1.257-.667 1.256-1.368 1.885-3.625.629-1.871.628-2.41.629-3.192.628-4.035.628-4.865.629-7.134.628-4.993.628-6.082 1.257-21.038 1.257-23.355.628-10.385 1.257-24.453.628-17.507.629-10.093 1.885-23.296 1.257-6.186.628 1.263.629-5.076.628.246.628 1.029.629 2.28.628-.97.628-3.04.629-.165.628 1.544.629-2.772.628-.923.628 2.514.629 6.713.628 8.923.628 2.76.629.83 1.257 5.8.628-.151.628 2.28.629 1.485.628.258.628.912.629 3.122.628 1.58.629 3.145.628 2.432.628 3.79 1.257 14.209.628 1.766.629 1.204.628 3.228.629 1.976.628-2.222.628 1.65.629 2.724.628 6.806.629 5.438.628 1.544.628 2.222.629 7.25.628 9.205.628.327 1.886 3.45.628.21.628-2.058.629-3.719.628 5.427.628 1.11.629 2.82.628 3.73.629 1.941.628 3.076.628.772.629 1.637.628 2.07.628.935.629-.982 1.885 3.976 1.257 2.819 1.256 3.765 1.257.655.629.55.628.07.628 1.72.629-.07.628.865.629-.082.628.105.628 2.105.629.456.628-2.222.628-.491.629 2.152 1.257-.035.628-6.959.628-1.45.629-3.426.628-1.708.628-5.099.629-1.824.628-.83.629 3.005.628-1.532.628.69.629-1.111.628-1.532.628-.035.629-1.205.628-2.21.629-3.193.628-1.286.628-2.234.629-.982.628-.748.628-6.643.629-1.59 1.257-5.24.628-.924.628-1.988.629.725.628 6.409.629-.421.628.608.628 1.696.629-1.322.628.421.628-1.017.629.304.628 2.105.629-1.333.628 1.473.628-.21.629.538.628-.491.628.83.629-1.579.628 9.8.629-.514.628 3.064 1.257 2.187.628.362.628.047.629-5.707.628-.292.629 1.555.628.012.628 1.029.629-.702.628 1.684.628 1.263.629.97.628-.303.629 1.918.628-.386.628 1.965.629 7.005.628-.363.629 1.778.628-2.152 1.257 1.625.628-1.122.628-8.42.629 1.824.628.152.629 2.117.628.889.628 1.227.629.164.628 1.942.628-1.497.629-.152.628.713.629-1.228.628-.433.628.772 1.257 3.544.628.058.629.573.628 1.439.629-.679.628-1.485.628 2.093.629-.116.628-.82.628-1.438.629-.198.628-1.111.629.631 1.256-2 .629 1.252.628.198.629-1.438.628.059.628-.936.629-1.79.628-2.163.628.105.629.363.628-2.28.629.198.628-.128.628-.76.629 1.93.628-2.13.628-1.192.629.432 1.257-1.438.628-6.56.628-1.427.629-1.895.628-2.374.628-1.778.629-.76.628-2.56.629 1.952.628-2.912.628-.491.629.538.628-3.555.628-2.48.629-.655.628-3.555.629-6.104 1.256-18.186 1.257-6.619.629-3.017.628-4.994.628-3.485.629 7.134 1.256 7.157.629-.28.628-2.877.629-5.345.628-7.344.628-17.928 1.257-23.53.628-4.187.629-2.631.628.386.629-3.918.628-.666.628-8.853.629-.983.628-2.818.628-.97.629-4.913.628-6.934.629-4.386.628 5.122.628-3.789.629-.889.628-2.163.628-3.579 1.257 9.11.629 15.46.628 9.93.628 3.496.629-.573.628-3.683.629-6.093.628-3.731 1.257-15.577.628-.27.628-.724 1.257-.62.629-8.303.628-21.835 1.257-14.817.628.994.628-8.361.629-.515.628 2.292.629 3.871.628-4.292.628.807.629 2.959.628 21.94.628-5.334.629-3.368.628.807.629.48.628 1.87.628-1.426.629-16.454.628 4.876.628 3.614.629 2.082.628 8.864.629-.397.628.128.628 5.1.629 2.549.628.175 1.257 1.626.628 5.052.629 3.976 1.256 10.268 1.257 16.22.629 5.134.628 3.871.628 4.854.629 15.94.628 10.478.628 6.783.629 2.795.628 4.783.629-.76.628-2.853.628-7.029.629-8.818.628 1.825 1.257 9.636.628 1.567.629-1.333.628 3.812.628 7.579.629 5.683.628 4.538.628-.094.629 4.339.628 7.005.629 1.977.628 11.437.628 4.105.629 3.356.628 6.152.629 2.198.628.316.628 5.847.629 4.023.628-.924.628 4.83.629 2.608.628-2.982.629 2 .628 4 .628-3.065.629 3.369.628-1.661.628-.444.629 4.093.628-.936.629.164.628 4.572 1.257 5.66.628.492.628 1.298.629 2 .628.783.629-17.787.628 1.204.628-.386.629.129.628.398.628-.246.629-.456.628 19.448.629 1.181.628.784.628.514.629-.666.628-.398.629.363.628.585.628-.34.629 1.135.628-.643.628.467.629.117.628 1.895.629-1.088.628.573.628-.584.629.152.628-.304.628.081.629-2.409.628 1.907.629 1.064.628.526.628 1.275 1.257 1.988.628 2.222.629.234.628.409 1.257 2.889.628-.246.629-.117.628-.97.628 1.473.629.982.628.106.629.526.628.9.628-.456.629 1.404.628-3.66.629-7.836.628 1.04.628 1.72.629.42.628 3.076.628.316.629 4.865.628 8.338.629.13.628-2.854.628-.082.629-1.567.628 3.578.628.866.629 2.56.628-.198.629 3.602.628.725.628 1.45.629-.117 1.256 2.772.629-.795.628 1.192.629.375.628-.807.628-.129.629-.269.628-.503.628.912.629.281.628.024.629 1.31.628.034.628 1.182.629.608.628 1.122.629.69 1.885 1.146.628-.28.628.503.629-.363.628.059.629-.83.628-1.264.628-.713.629-.012.628-1.251 1.257.269.628.234.629.42.628.784.628-.374.629.772.628-1.345.628-.667.629-.035.628-.725.629-1.883.628-.222.628-.538.629-3.649.628-.456.628-1.497.629-1.157.628-1.614 1.257-3.976.628-3.275.629-1.24.628.82.629-2.024 1.256-6.315.629-6.222.628.854.628-.292.629-.843.628-6.046.629-2.093.628-4.596.628-8.818.629-4.818.628-3.544.628-.257.629-3.719.628-5.227.629-4.292.628-5.263.628-3.064 1.257-2.643.628-4.573.629-.21.628-6.093.629-9.122.628-2.526.628-.105.629-1.766.628 12.268.628-6.807 1.257-6.514.629-6.08.628-2.223.628 1.03.629-17.157.628 1.778.629-4.994.628-2.327.628-.21.629-2.047.628-.27.628-1.344.629-6.397.628.514.629 2.187.628.2.628 2.268.629-2.152.628.246.628-.714.629.795.628 5.696.629 3.882.628.176.628.9.629 4.117.628 7.204.628-.07 1.886 12.244.628.573.628 9.169.629-4.491.628-6.467.628 3.742.629.386.628-1.1.629.211.628-7.262.628 4.666.629.655.628 1.93.629-.737.628.07.628 2.503.629 3.485.628 4.14.628 12.852 1.886 5.73.628.375.628 2.14.629 3.216.628 1.415.628 7.485.629-4.292.628-1.03 1.257.702.628-1.79.629 3.147.628 3.719.628-4.292.629-1.158.628.105.629-.304.628 1.474.628.152.629-5.263.628 7.952.628 1.31.629-.21.628.432.629-.374.628-.55.628 9.93.629 16.43.628 1.603.629-.293.628-7.999.628-2.14.629-3.204.628-39.06.628-13.765.629-4.292.628-1.357.629 7.391.628-.491.628 1.742.629 26.477.628-2.947.628.83.629.176.628-1.205.629.854.628-4.725.628 3.216.629-.35.628-.632.628.643.629-1.59.628-5.005.629 1.59.628-.9.628 12.922.629 5.403.628.795.628-2.198.629-4.959.628-2.467.629-1.603.628-.456 1.257-4.257.628-1.45.629.293.628 1.204.628-6.946.629-19.32.628-5.707 1.885-7.216.629-7.052.628-3.567.628-2.572.629-1.59.628-2.024.628 10.946.629-1.403.628-8.116.629-5.614.628-8.163.628-.315.629.116.628-12.712.628-6.595.629-4.21.628 2.607.629-8.712.628-2.363.628 2.912.629-4.642.628-1.977.628 3.03.629 2.186.628-.48.629 3.205.628-.28.628-5.567.629 4.56.628 1.755.629-9.473.628 16.747.628 1.123.629-.281.628 1.508.628 5.017 1.257 6.678 1.257 3.895.628 1.122.629 23.086.628 5.367.628 3.462.629.842.628 5.146.629-.784.628 2.55.628-13.964.629 4.538.628 9.168.628 13.882.629 4.28.628 5.298.629.304 1.256 9.297 1.257 2.819.628 3.099.629.585.628.362.629 5.906.628 3.228.628 1.73.629 1.1.628 7.555h.629l.628 1.204.628-3.73.629 6.14.628 2.537.628 7.555.629 2.187.628 1.52.629.41.628 6.42.628-4.889.629 5.392.628 4.21.628-2.164.629-.011.628.257 1.257 12.28.628.467.629-2.128.628 2.152 1.257.257.628 1.532.629-1.427.628 2.07.628-.164.629 2.035.628 1.111.628.187.629.83.628 1.38.629.784.628 3.275.628-1.088.629-.012 1.257-.526.628 1.263.628.912.629.234.628 1.474.628-.702.629.07.628.21.629-4.876.628-13.332.628 1.1.629.549.628-.83.628-.047.629.573.628 5.087.629 11.94.628 2.948.628 2.046.629 1.474.628-.094.628-.28.629-.585.628-.304 1.257-4.936.628-.222.629.012.628.374.628.222.629-1.04.628-.55.629-1.579.628.468.628.222.629 2.105.628-.047.629 4.468.628-.047.628 1.813.629-1.334.628-.046.628-2.83.629-1.392.628-6.362.629.573.628.41.628.607 1.257.024.628 1.392.629 6.104.628-1.73.629.748.628.982.628.199.629 2.257.628-1.509.628-2.081.629.432 1.257-3.192.628.035.628-2.222.629-.912.628 1.754.628 6.865.629-1.088.628 1.345.629.035.628 2.374h0" clip-path="url(#p9f6d5b151b)" style="fill:none;stroke:#7516fd;stroke-width:1.5;stroke-linecap:square" id="line2d_25"/><path d="m49.83 284.4 32.047-.07 2.514-.328 3.142-.725 1.256-.339 1.257-.655.629-.772.628-.233.628-.784.629-.187.628-.643 1.257-2.035.628-.55.629-.842.628.222.628-.678.629-.316 1.257-1.79.628-.666.628-1.286.629-1.708.628-.105.628-.234 1.257 1.041.629-2.771 1.256-3.462.629-1.415.628-2.246.628-3.812.629-3.1.628-.794.629-.386.628.046.628-.713.629.012.628-1.064.628-2.573.629-1.275.628-4.923.629-3.392.628-2.07 1.257-5.274.628-1.509 1.257-3.426.628-.714.629.129.628-2.398 1.885-10.864.629-.795.628-4.047.628-2.362.629.094.628.888.628.176 1.257-2.655 1.257 4.316.628-.164.629-3.637.628-1.556.628-3.742 1.257 1.45.629-.058.628-1.427.628 2.011.629-.514 1.256 5.555.629-.655.628-1.848.629 1.158.628-1.626.628.62.629.34.628-3.848.628-1.462.629.596.628.024.629-.866.628.948.628.69.629 2.093.628-.573.629-.129.628.468.628 1.04.629.211.628-.923.628-2.573.629-.34 1.257.854.628.2.628-1.018.629.432.628-.994.628 1.497.629-.69.628-1.754.629.07.628-1.251.628-.9.629 2.046.628 1.03.628-1.065.629.783 1.257-.456.628-.163.628-.492.629-2.982.628 1.485.628.971.629.69 1.257 2.433.628-1.193.628 1.848.629.666.628.97.629-1.169.628-1.953.628-.28.629 2.128.628 1.333.628-.526.629-2.187 1.257 4.046.628-.187.628.913.629 1.216.628-.21.628-.083.629-1.847.628.245.629.059.628-.515.628-1.228.629 1.544.628.854.628 1.742.629.983.628 2.947.629 2.362.628-.807.628.631.629.89.628.62.628-1.463.629 1.38h.628l.629 3.427.628-.667.628 3.824.629 7.31.628.55.629-1.252.628.012.628-1.907.629.62.628-1.614.628-6.514.629 2.28.628 1.229.629.234.628 1.005.628.632.629-.094.628 3.368.628.351.629.866.628.07.629-.48.628.14.628.878 1.257-1.333.628.257.629 1.965.628 1.567.629-.223.628-.023.628.561.629 3.006.628.444h.628l.629.632.628.935.629 2.328.628 5.052.628-.082.629-.924.628.129.629 1.391.628.503.628-1.543.629-3.158.628 1.883.628 3.614.629.935.628.328.629.023.628.28.628 1.427.629.784.628-.538.628-.117.629 1.111.628.35.629 1.603.628 2.783.628-1.333.629-.608.628 3.532.628.748.629.152.628-.245.629 1.052.628.515 1.257-7.426.628-5.918.628.585.629-.83.628-5.614.629-2.105.628 3.31.628.736.629 4.41.628-.445.629-1.146.628.596.628 1.532 1.257-1.24.628-2.186.629-.643.628.046 1.885-1.93 1.257-2.596.628-1.25.629-.866.628-1.322.629-2.035.628-.093.628.199.629-.351.628.526.628-1.03.629-1.59.628-1.029.629-3.415.628-1.824.628.21.629-1.45.628-.56 1.257-.69 1.257 7.437.628 4.245.628.96.629.268.628-.959 1.257-5.94.628.151.629.035.628.304.628-.69.629-1.602.628-.164.629-5.87 1.256-15.53.629-2.094.628 1.24.628.736.629-.386.628 4.257.629-.631.628-.059.628-.713.629.175.628-.41.628-1.531.629-2.257.628.748.629-1.532.628-.514.628-2.503.629.058.628.69.628-1.064.629-.187.628-.55.629.316.628.784.628-1.24 1.257 3.497.629-1.918.628 2.982.628.924.629-1.146.628-.632 1.257-3.836.628.363.629-1.03.628-1.917.628 1.286.629 2.608.628 2.012.628.035.629-1.298.628-.07.629.55.628-1.17 1.257-6.128.628-1.59.628-.141.629-2.585.628-1.953.629-1.368 1.256-8.935.629-2.725.628-4.338.628-2.784 1.257-7.239.629-2.69.628-6.233 1.257-9.297.628-5.45.629.328.628-2.48.628-10.513.629-3.275 1.256-12.431.629-4.818.628-2.07 1.257-6.62.628 4.023.629.819.628-9.987.628-12.174.629-3.918.628-4.795.629-5.941.628-18.805.628-11.707.629 8.292.628 17.542.628 3.976.629 1.182.628-4.83.629 2.97.628-5.765.628-11.122.629-5.485.628-7.192.628 2.35.629 3.637.628 2.643.629 7.684.628 4.853.628-5.835.629 3.917.628-.526.629 4.795.628 2.9.628 16.84.629 3.45.628 1.299.628 2.198.629 4.397.628 3.111.629 2.164.628-11.473.628 2.117.629 6.151.628.796.628 2.982.629 1.193.628 2.818.629 5.8.628 7.895.628 1.847.629 4.023.628.164.628 8.584.629 2.222.628 3.029.629-.012.628.948.628-1.626.629.304.628-2.41.628.948.629-2.736.628.713.629 3.216.628 2.012.628 2.607.629 3.123.628.433.629 4.794.628-3.508.628-2.514.629-.281.628-1.216.628-1.754.629-.527.628 2.187.629 14.443.628 3.17.628.385.629-2.14.628-3.672.628 1.357.629-6.912.628-11.53.629-3.556.628-2.807.628 1.509.629-.433.628-3.625.628 2.233.629-3.496.628-2.702.629 1.041.628.456.628 6.806.629 5.111.628 3.228.628 5.473.629 8.046 1.257 6.748.628 1.93.628 2.35.629 1.24.628 1.543.629-1.391.628-.585.628-.877.629 2.093.628 5.602.628 2.397.629 4.725.628 5.59.629 2.41.628.081.628 1.17.629.573.628 1.38.628.97.629-1.321.628.982.629 1.333.628 3.275.628 1.59.629 2.082.628 1.146.628 2.222.629.023.628.503.629 1.053.628.316.628 1.052.629 4.748.628 1.544.628.748.629.948.628.608.629 3.52.628 2.514.628-.865.629-.585 1.257.725.628-.362.628.315.629 1.287.628.783.628 1.018h.629l.628 1.1.629 2.034.628.643 1.257-.105.628 3.52.628.655.629-.035.628 2.748.629 1.205.628 1.777.628.89.629-.211.628.643.628 1.158.629-.258.628 2.222 1.257 1.953.628-.105.629.082.628 1.146.628 6.479.629 5.24.628-.492.629 1.216 1.256-.69.629-.748.628-4.105.629-6.456.628 1.883.628-.023.629.97.628.597.628.222.629.059.628 1.59.629.398.628-.491.628.538.629-.211.628.83.628-1.684.629-.187.628.246.629 2.222.628 1.006.628.467.629-.117 1.885 4.959.628-1.637.629.444.628.877.628-.035.629 5.953.628 4.257.628-1.684.629 1.438.628-.573.629.269.628.058 1.257-4.642.628 1.24.629.7.628 1.346.628.105.629-.058.628-.281.628-.421.629 1.088.628.456.629 1.567.628-.164.628 1.216 1.257 5.8.628-.713.629.304.628-1.017.629.737.628-.199.628-.655.629-.924.628 2.269.628-2.795 1.257.012.629.584.628.76.628-1.262.629-.375.628 4.48.628 1.169.629-.363.628-.655.629-1.777.628 1.24.628-.188.629-.783.628-.234 1.257.28.628-.362.629.035.628 1.076 1.257 1.778.628.105.629-.164.628.76.628.328.629-.047.628.07.628 1.088.629-.129.628 1.018.629 1.73.628-.678.628.9.629.351.628-.994.628.316.629-.444.628.49.629 1.778.628-.035.628.41.629 1.251 1.256.316.629-1.287.628.34.629-.328.628.912.628-.023.629.14 1.257-.082.628 1.369.628 1.8 1.257-1.929.628-3.275.629-.502.628.467.629-1.567.628-2.21 1.257-1.403.628 2.572.628-.42 1.886-6.246 1.256-3.648.629-.994.628-1.345.628-1.965.629-3.11.628-3.766 1.257-8.947.628-1.181.629-2.023.628-3.205 1.257-7.999.628-2.152 1.257-3.145.628.081 1.257-8.923.629.971.628-1.93.628-.573.629 1.076.628-.538 1.257 6.198.628-1.672.629-.643.628.28.628-.818.629 1.778.628 1.263.628.48.629.83.628 4.572 1.257 3.637.628 1.018 1.885 19.144.629 1.11.628-.07 1.257.702.628-2.806.629-3.52.628-.503.628 2.748.629 3.543.628 1.135.629.14.628 1.93.628 3.274.629 1.766.628.678.629 1.17.628.222.628 1.146.629-1.04.628.841 1.257 3.485.628 1.17.629-.082.628.374.628 1.509.629.234.628.713.628.14 1.257 1.86.629-1.076 1.256 1.544.629.058.628 1.1 1.257.105.628 1.134.629.597.628.362.628 1.275.629.444.628.784.628.187.629-.012.628.468.629-1.17.628.55.628.702 1.257-.421.629-.105.628-.223.628.246.629-.257.628-1.567.628-.398.629.234.628-.152.629.608.628 2.082.628-.27.629-.116.628.608.628.035.629.398.628-1.24.629-.725.628.152.628.666.629-.666.628-.386.628-.164.629 2.316 1.257 2.923.628-4.303.628 1.1.629-1.03.628.34.628-2.784.629-1.544.628.947.629 4.292.628-.865.628.842.629-.304.628.912.629.082.628-2.456.628 1.146 1.257 1.567.628-.082 1.257-3.754.629-.163 1.256-2.842.629-.421h.628l.628 1.555.629-.468 1.885 4.994.628.421.629-4.655.628-.643.628 2.328 1.257-8.175h1.257l.628 1.93.629-1.018.628 1.637.628-2.374.629.585.628-1.848.629-.62.628 2.117h0" clip-path="url(#p9f6d5b151b)" style="fill:none;stroke:#42537f;stroke-width:1.5;stroke-linecap:square" id="line2d_26"/><path d="m49.83 284.4 301.622-.058 3.142-.457 1.256-.444 3.77-.316.629-.187.628-.304 3.142-.55 3.77.726 1.257.105.629.175 1.885-.105 1.885.42.628.024.629.2.628-.024.628.222 1.886-.164 1.256.105 1.257-.152 1.257.152 1.257.024h.628l1.257.164.628-.035 1.257.152 4.398.07 4.4.245 8.168-.28 1.257.152 1.885.082 1.257-.036 6.912.024 153.324-.07 1.257-.129 2.513-.058.629-.41 2.513-.105.629-.947.628-.222.628.07 1.257-.69 1.257-1.065.628.258.629-.398 1.256-.175 1.257-.936.629-.9.628-1.217 2.514-2.56.628-.469.628-.187.629 1.907.628-1.953 1.257-.89.628-.432 1.257-1.614.628-2.467.629 1.321.628.491.628.012.629.187.628.503.629.69.628.35.628-.104.629-.41.628.094.628-.328 1.257.047 1.257.795.628.62.629.14.628 1.006.628.562.629.362 1.257 1.181.628.258h0" clip-path="url(#p9f6d5b151b)" style="fill:none;stroke:#fe7b74;stroke-width:1.5;stroke-linecap:square" id="line2d_27"/><path d="m49.83 284.4 28.905-.094 1.257-.023 1.885-.058 1.885-.328 1.886-1.1 1.256-.993 1.257-1.31.628-.41 2.514-4.619.628-.807.629-1.403.628-.304.628-.526 1.886-3.883.628-.35.628.642.629-.397.628.035.629-.363.628-.807.628-.386.629-.83.628-.643.628.187.629-.28.628.046.629 1.17 1.256 1.578.629.515h.628l.628.362.629.924 1.257.89.628.993 1.257 1.556.628.28.628.433 1.257 1.123.629-.106.628.562 1.257.514.628.749.628.397 1.257 1.076 1.257-.07.628.515.629.21.628.374.629.866.628.175 1.257.152 1.256.737 1.886-.164.628.234.628-.011.629.397.628.21.628.375 1.257.152.629-.129.628.059.628-.304 1.885.456 1.257.362.629.024.628.327.628-.14 3.77.07 1.257.28.629-.058 1.257.012 1.885.047 4.398.234h1.257l2.514.081 1.256.164 4.399.082 1.885-.129 4.399.129 1.885-.199 1.885-.082.628-.093 2.514.222.628-.07 1.257.082 7.54.082.629.07 3.142-.164 6.284.14 6.283-.198 1.257-.281 3.142-.164 1.257.164.628-.117h1.885l2.514-.023 1.257-.117.628-.012 1.257-.515 1.885-.35.628-.07.629-.398 1.256.082 1.257-.48 1.257-.362.628.058.629-.538.628-.69.628-.327.629-.632h.628l.629-.292.628-1.041.628-.772.629-.34.628-1.04 2.514-1.146 1.256-2.42 1.885-1.685.629.012.628-1.322 1.885-1.426.629-.89 1.257-.69.628.211.628-1.228.629-1.614.628-1.94.628-1.463.629-.234.628-.409.629-1.625 1.256-1.954.629-.07 1.256-2.35.629-.258.628-.409.629-1.204.628.456.628-1.942.629-.152.628-.772.628-.48.629-.9.628-4.233 1.257-5.532.628-2.409.629-1.029.628-.444.628-2.702.629-.117.628-1.216 1.257 10.093.628.62 1.257-2.842 1.885-5.497.629-1.123 1.256 1.053.629-1.076.628 1.286.629-1.24 1.256-16.161.629-1.79.628-.48.628.62.629-.479.628-2.035.629.877.628 1.205.628.234.629 1.508 1.256-2.175 1.257 5.672 1.257 2.304.628-.035.629 1.006.628 1.941.628.842.629.234.628.994.629-.585 1.256.983.629.082.628 1.812.629-.187.628 1.228.628 1.965.629.199.628 4.444.628 1.894.629 1.403.628 3.497.629 1.614.628.152.628.491.629-.55.628 2.96.628 1.543.629.561 1.885 2.199.628 1.322 1.885 4.69.629 1.414.628-.14.629.023.628.667.628.047.629.304.628 1.52 1.257 1.52.628.304 1.257 2.585.628.444.629.14.628.714.629.304.628-.152.628.199.629.596.628 1.1 1.257.678.628-.34 2.514-.175 1.256 1.088 1.257.187.629.819.628-.012.628.316.629-.573.628.432.628.258.629-.082.628 1.052.629-.573.628-1.228.628-.748.629-1.474.628-.42.628-.574.629-2.385.628-.515.629.152.628.573 1.885.83.629-.035.628.129.628.398.629-.21 1.256-1.404.629.374.628-.55.629.222.628-.058.628-.48.629.632.628.117.628-.28 1.257.654 1.257.421.628-.07.629-.199 1.256.725.629.2.628-.328.629 1.099 1.256 1.368.629-.117.628.725.628-.187.629.48.628-.421.629.082.628-.129.628.246.629 2.198.628.164.629-.374.628.397.628.082.629.304.628.082.628-1.403 1.257 2.268.629 1.24.628.48.628-.21 1.257.315 1.257 1.684 1.257-.27.628.656.628.14.629.55.628-.351.628-.129.629.129.628.35 1.257.024.628.187.629 1.006.628.14 1.257.702 2.513.292.629.351.628-.082.629.609 1.256.093.629.304.628.094.628.374.629.234.628-.222 1.885.058.629.234.628-.012.628.363.629.152 1.257.047.628-.094.628.105 2.514-.386 1.885-.093.628.245 2.514.188.628.222 1.885-.035 2.514-.082 2.513.444 1.257-.011 1.885-.258.629.07 1.256-.07h.629l1.257-.362 1.885-.059 1.885-.386.628.187.629-.14.628-.362 2.513-.094 1.886-.456.628-.246.628.152 1.257-.152.629-.561.628-.21.628.409.629-.21.628-.352.628-.011.629-.152.628.14 1.257-1.076 1.257.129.628.035.628-.234.629.047.628.561 1.257-.14.628.222 2.514.047.628-.152.629.011.628-.175 1.257.023.628-.187.628-.047.629.246.628-.117.629.082 1.885-.035.628.058.629-.596 1.885-.28.628-.469.628-.257.629-.69 2.513-.292.629.55.628-.936 1.885-1.45 1.257-.164.628-1.03.629-.49.628-.819.628-.433.629-1.005 1.257-.328.628-1.122.628-.679.629-.339.628-.117 1.885-.69 1.257-.994.628-1.017.629-1.825.628-.643.629-.34.628-.128.628-.924.629-1.298 1.256-.818.629-.877.628.116 1.257-.222 1.885-2.947.628-1.543 1.257-.854.629-.866.628.866.628-.667.629.55.628 1.123.628-.562.629-.035.628.129.629-.667.628 1.135.628.783.629 3.006.628 1.076.628.584 1.257 2.176 1.257 1.04.628-.315.629.49.628.012.629.188.628.795.628-.702.629.69.628-.982.628-.363.629.187.628.398.629-.444.628 1.485.628-.258 1.257.737.628.258 1.257 3.204.629.959.628 1.356.628.655 1.885-.304.629.854.628.538 1.885-.094.629-.386.628.305.628-.351.629.28h.628l1.257.328 1.257.269 1.257-1.754.628-.655 1.257-.503.628.082.628-.772.629.292.628-.269.629-.444 1.256-.316.629.234 1.256-1.345.629.21.628.445.629-.468.628.187.628-.023.629.83.628-.023.628-.28.629-.761.628-.058 1.257.07.628-1.041.629-.152.628.093.628.492 1.886.14 1.256 1.006.629-.223 1.257.597 1.256.082.629.222.628-.702.628-.257 1.257-1.392 1.257-.082.628-.502.629-.223.628-3.461.628 3.52 1.257-.351.629.234.628-.105.628-3.743.629 3.064.628-3.765.628 2.994.629.608.628-3.38.629-.526.628 4.186.628 1.427.629 3.275.628.269.628.023.629 3.298.628.152.629-.164.628-.9.628-2.398.629-.128.628.058.629-3.473.628 4.07.628-3.1 1.257 1.755 1.257.234.628.748.629-2.818.628 4.748h.628l.629-.293 1.256-.058.629.257.628.117.629-.164 1.256 1.053 1.885.128.629.667.628.374.629.152.628.281 1.257.058.628.655.628.187.629.34.628 1.742.629.55 1.256-.094.629.27.628.783.629.058.628-1.04 1.257.093.628.023.628 1.567.629-.631.628.48.629-.176 1.885-.058.628-1.228.628.386.629.198.628 1.018.629.222 1.256.012.629-.877.628.093.628-.292.629-.83.628-.305h1.257l.628.807.629-.83 1.256.246.629-.223 1.885.094h0" clip-path="url(#p9f6d5b151b)" style="fill:none;stroke:#d8b009;stroke-width:1.5;stroke-linecap:square" id="line2d_28"/><path d="m49.83 284.4 16.966-.082 3.77-.28.629-.164 1.257-.585 1.885-1.275.628-1.497.629-.924.628-1.648 2.513-7.672 3.142-13.812.629-4.409.628-7.227 1.257-6.257.628-4.654.629-2.433 1.256-6.747 1.257-2.351.628-2.468.629-1.099 1.257-1.076.628 1.79 3.142 12.08.628 1.754.629 2.292.628.725.628 1.1.629.818.628.024.629-.421.628.994.628-.059.629 1.603.628-.024.628 1.31.629.795.628 1.65.629.713.628 1.812.628.784.629 2.023.628 1.415.628 1.778.629 1.333 1.257 3.86.628-.69.628 1.005 1.257 3.321.628-.538.629.129.628.304.629 3.274 1.256.293.629.748.628 2.035.628.14.629.012.628.48.629.234.628.935.628.117.629.398 1.257 2.55.628.397.628 1.11.629.083.628.982.628.515.629 1.005.628.503.629.094.628-.293 1.885 1.181.628-.21.629.023.628.456.629.258.628-.059.628-.28h.629l1.256.748.629-.07.628.105 1.885 1.31.629-.152.628.105 1.257.573.628.035.629.187.628.866.628.374.629.199.628.48.629.023.628.199.628-.059.629-.608.628.047.628.175.629-.152.628.176 1.885-.036.629.211.628.035.628.164 1.257-.082.629.152.628.023 1.257-.082.628-.081 1.257.07 1.257.07 1.885.292.628-.023 1.885.175.629.082 2.513-.164.629.07 1.256-.081.629.07.628-.094 1.885.152h1.885l.629-1.695 1.885-.012 1.257.035.628-.07.628 1.813 3.142-.082 5.027-.012.629-.175 3.77-.21.628.116 3.77-.023 1.257-.304 1.885-.188 1.257-.233 1.257.058.628.012.629-.117 1.885-.035 1.257-.129 1.256-.047.629-.14 1.256-.035 1.257-.117 1.257-.421.628-.14.629-.714 1.885-1.029.628-.398.629-.56.628-.983.628-.62.629-.421.628-1.216 1.257-1.486.628-1.543 1.257-1.86.628-1.263.629-1.707 1.257-2.012 1.256-3.262 1.257-5.357 1.885-4.373.629-2.655.628-3.17.628-2.432 1.257-2.608.628-2.514 1.886-5.017.628-.2 1.257-3.472.628-.188 1.257-2.9.628.363.629-1.977.628-1.497.628.07.629.246.628-.491.629.795.628.445.628-2 .629.152.628.28.628-.268 1.257 3.45.629 2.163.628 1.24.628.62.629.151.628.936.628.433 1.257-4.596.629 2.385 1.256 2.14.629 1.544.628.89.628 2.549.629 1.485.628 2.081.629 2.515.628 3.415.628.55 1.886-.971.628-.585.628-.035.629-1.205.628-.49.628 1.133.629.117.628.316.629 1.65.628-1.849.628-1.391.629-.164.628-1.17 1.257.866.628-1.263.629 1.672.628.094.628-.187.629.83.628.152.628-.199 1.257.07.629-.152.628.913.628-.503 1.257 1.391.628.34.629-.059 1.257 1.509.628 1.064.628.491.629-.105.628.83.629 1.17.628.42.628-.385.629.257.628.9.628 1.638.629.35 3.142 3.731.628-.386.628.515.629-.374.628.701 1.257-.316.628-.233 1.257 1.052.628 1.111.629-.339.628.468.629.327.628.152 1.257-.701.628-.515.628-.316.629-.175.628-.842.629-.386.628.175.628-.397.629-.971.628-.117.629-.667.628-.42.628-1.474.629-1.158.628-.585.628-.07.629-.982 3.142-2.14.628-.83.628.245.629.035.628-.362.629.257.628-.082.628-.48.629-.28.628.047.628-.34 1.257 2.679.629-1.872.628.164.628-2.772.629.375.628-.059 1.257-1.368.628 1.848.629 1.251.628 3.38.628.397.629.936.628.491.629 1.006.628 1.228.628.234.629 1.017.628-.14.628.397 1.886.609 1.256 1.766.629 1.122.628.854.628.526 1.257 1.696.629.35.628.656 1.257.082 1.256 1.31.629.058.628.666.629.293.628 1.029 1.257 1.216.628.585.628 1.321.629.433.628-.42.629.128 1.256.596 1.257.737.629-.082.628 1.076.628.491 1.257.655 1.257 1.544.628 1.31.629.62.628.303.628-.081.629.198 1.256-.28.629-.34 1.257.106 1.256.631.629.456.628.293.628.596 1.257.679 1.257.28 1.257.632.628.316 1.257-.386.628.035 2.514-.27 1.257.539 1.256-.012 1.257.327 3.77.562.629-.106.628.047.628.164 1.257.035 1.885.21 1.257-.14.628.094.629-.047 1.257-.34.628.071 9.426-.772 1.256-.386 1.886-.386.628-.444.628-.292 1.885-.223.629-.234.628-.07 1.885.304 1.885-.374 2.514-.666.628-.024.629-.14 3.77.035 1.257.362 1.257-.058 1.256-.14 1.257.163.628-.093 3.142.35.629-.21 1.885.059.628.14h.629l.628.292 1.885.398.628.28.629.118.628.257.629-.246 1.885.117 1.256.035.629-.14.628.374.629.035.628-.117.628-.245 1.886.128.628-.292h.628l1.257.421 1.257-.363 1.257.094.628-.023 1.257.198 1.885-.467 1.257.07.628-.14.628-.316.629.035 1.256-.293.629-.257 3.142-.491.628.234.628.047.629-.117.628-.304 2.514-.316.628-.48 1.885-.023.629-.21.628-.012.628-.27.629.176.628.047.629-.316.628-.117.628.2.629-.083.628-.514 1.257-.515.628-.07.629-.246 1.256-1.017.629-.023 1.256-.679 1.257-.842.629-.199.628-.526 1.257-.491.628.187.628-.058.629-.573 1.257.257.628-.164.628.386.629-.608.628.023.629-.666.628-1.111.628-.491 1.257-1.65.628-.28.629-1.017.628-.41.629-.959 1.256-2.982.629-1.45.628-1.064.628-.702.629-1.637 1.257-1.59.628-.153.628-.292.629.245.628-.76.628-.397.629-.55 1.257-.105.628-.515.628-.093.629.035 1.256.853.629-.292.628-.643 1.257.093.628.27 1.257.268 1.257 2.199.628 1.24 1.885 1.286.629 1.24.628.058 1.257.433.628.585 1.257 1.707.628.304.629.83.628 1.415.629.492 1.256-.106.629 1.041.628.445.628.748.629-.199 1.257.89.628.9 1.885 1.824.628.631.629.468.628.222 1.257.059.628.222.629.094.628-.106.629.562.628-.082.628.117 1.257-.386.628-.632.629.223.628-.386.629.128 1.256.515.629-.199.628.27 1.257-.223 1.257-.772.628-.199 1.257.351 1.256.316.629.327.628.117.629.293 1.256-.059.629.129.628-.246.628.059 1.257.912.629-.585.628-.199.628-.807.629-.117.628.07 1.257-.385.628.222.629.41.628.806.628.152 1.257-.666.629-.082.628.397.628-.082 1.257.293 1.257.854.628-.059.629.433 1.256.21.629.258.628.116.628-.21.629.117.628-.246 1.257.562h.628l1.257.584.628.62.629-.011.628.163.629-.339.628.292.628.082.629.21.628.34.629.912.628.176.628.912.629.222 1.256-.094.629-.046.628-.246 1.257-.199.628-.152.629.012.628.34.628-.036.629.374 1.257.363 1.256.269.629-.21.628.128 1.257-.152.628-.117.629.058.628-.304 1.885-.245.628.187 1.886-.667.628.047h0" clip-path="url(#p9f6d5b151b)" style="fill:none;stroke:#1007e1;stroke-width:1.5;stroke-linecap:square" id="line2d_29"/><g style="fill:#7516fd" transform="matrix(.14 0 0 -.14 624.57 248.856)" id="text_18"><defs><path id="DejaVuSans-55" d="M556 4666h635V1831q0-750 271-1080 272-329 882-329 606 0 878 329 272 330 272 1080v2835h634V1753q0-912-452-1378Q3225-91 2344-91q-885 0-1337 466-451 466-451 1378v2913z" transform="scale(.01563)"/><path id="DejaVuSans-53" d="M3425 4513v-616q-359 172-678 256-319 85-616 85-515 0-795-200t-280-569q0-310 186-468 186-157 705-254l381-78q706-135 1042-474t336-907q0-679-455-1029Q2797-91 1919-91q-331 0-705 75-373 75-773 222v650q384-215 753-325 369-109 725-109 540 0 834 212 294 213 294 607 0 343-211 537t-692 291l-385 75q-706 140-1022 440-315 300-315 835 0 619 436 975t1201 356q329 0 669-60 341-59 697-177z" transform="scale(.01563)"/></defs><use xlink:href="#DejaVuSans-55"/><use xlink:href="#DejaVuSans-53" x="73.193"/></g><g style="fill:#42537f" transform="matrix(.14 0 0 -.14 624.57 262.856)" id="text_19"><defs><path id="DejaVuSans-42" d="M1259 2228V519h1013q509 0 754 211 246 211 246 645 0 438-246 645-245 208-754 208H1259zm0 1919V2741h935q462 0 688 173 227 174 227 530 0 353-227 528-226 175-688 175h-935zm-631 519h1613q722 0 1112-300 391-300 391-853 0-429-200-682t-588-315q466-100 724-418 258-317 258-792 0-625-425-966Q3088 0 2303 0H628v4666z" transform="scale(.01563)"/><path id="DejaVuSans-72" d="M2631 2963q-97 56-211 82-114 27-251 27-488 0-749-317t-261-911V0H581v3500h578v-544q182 319 472 473 291 155 707 155 59 0 131-8 72-7 159-23l3-590z" transform="scale(.01563)"/><path id="DejaVuSans-61" d="M2194 1759q-697 0-966-159t-269-544q0-306 202-486 202-179 548-179 479 0 768 339t289 901v128h-572zm1147 238V0h-575v531q-197-318-491-470T1556-91q-537 0-855 302-317 302-317 808 0 590 395 890 396 300 1180 300h807v57q0 397-261 614t-733 217q-300 0-585-72-284-72-546-216v532q315 122 612 182 297 61 578 61 760 0 1135-394 375-393 375-1193z" transform="scale(.01563)"/><path id="DejaVuSans-7a" d="M353 3500h2731v-525L922 459h2162V0H275v525l2163 2516H353v459z" transform="scale(.01563)"/><path id="DejaVuSans-69" d="M603 3500h575V0H603v3500zm0 1363h575v-729H603v729z" transform="scale(.01563)"/><path id="DejaVuSans-6c" d="M603 4863h575V0H603v4863z" transform="scale(.01563)"/></defs><use xlink:href="#DejaVuSans-42"/><use xlink:href="#DejaVuSans-72" x="68.604"/><use xlink:href="#DejaVuSans-61" x="109.717"/><use xlink:href="#DejaVuSans-7a" x="170.996"/><use xlink:href="#DejaVuSans-69" x="223.486"/><use xlink:href="#DejaVuSans-6c" x="251.27"/></g><g style="fill:#fe7b74" transform="matrix(.14 0 0 -.14 624.57 276.856)" id="text_20"><defs><path id="DejaVuSans-54" d="M-19 4666h3947v-532H2272V0h-634v4134H-19v532z" transform="scale(.01563)"/><path id="DejaVuSans-77" d="M269 3500h575l719-2731 715 2731h678l719-2731 716 2731h575L4050 0h-678l-753 2869L1863 0h-679L269 3500z" transform="scale(.01563)"/><path id="DejaVuSans-6e" d="M3513 2113V0h-575v2094q0 497-194 743-194 247-581 247-466 0-735-297-269-296-269-809V0H581v3500h578v-544q207 316 486 472 280 156 646 156 603 0 912-373 310-373 310-1098z" transform="scale(.01563)"/><path id="DejaVuSans-2a" d="m3009 3897-1121-606 1121-610-181-306-1050 634V1831h-356v1178L372 2375l-181 306 1122 610-1122 606 181 309 1050-634v1178h356V3572l1050 634 181-309z" transform="scale(.01563)"/></defs><use xlink:href="#DejaVuSans-54"/><use xlink:href="#DejaVuSans-61" x="44.584"/><use xlink:href="#DejaVuSans-69" x="105.863"/><use xlink:href="#DejaVuSans-77" x="133.646"/><use xlink:href="#DejaVuSans-61" x="215.434"/><use xlink:href="#DejaVuSans-6e" x="276.713"/><use xlink:href="#DejaVuSans-2a" x="340.092"/></g><g style="fill:#d8b009" transform="matrix(.14 0 0 -.14 624.57 290.856)" id="text_21"><defs><path id="DejaVuSans-47" d="M3809 666v1253H2778v519h1656V434q-365-259-806-392-440-133-940-133-1094 0-1712 639-617 640-617 1780 0 1144 617 1783 618 639 1712 639 456 0 867-113 411-112 758-331v-672q-350 297-744 447t-828 150q-857 0-1287-478-429-478-429-1425 0-944 429-1422 430-478 1287-478 334 0 596 58 263 58 472 180z" transform="scale(.01563)"/><path id="DejaVuSans-65" d="M3597 1894v-281H953q38-594 358-905t892-311q331 0 642 81t618 244V178Q3153 47 2828-22t-659-69q-838 0-1327 487-489 488-489 1320 0 859 464 1363 464 505 1252 505 706 0 1117-455 411-454 411-1235zm-575 169q-6 471-264 752-258 282-683 282-481 0-770-272t-333-766l2050 4z" transform="scale(.01563)"/><path id="DejaVuSans-6d" d="M3328 2828q216 388 516 572t706 184q547 0 844-383 297-382 297-1088V0h-578v2094q0 503-179 746-178 244-543 244-447 0-707-297-259-296-259-809V0h-578v2094q0 506-178 748t-550 242q-441 0-701-298-259-298-259-808V0H581v3500h578v-544q197 322 472 475t653 153q382 0 649-194 267-193 395-562z" transform="scale(.01563)"/><path id="DejaVuSans-79" d="M2059-325q-243-625-475-815-231-191-618-191H506v481h338q237 0 368 113 132 112 291 531l103 262L191 3500h609L1894 763l1094 2737h609L2059-325z" transform="scale(.01563)"/></defs><use xlink:href="#DejaVuSans-47"/><use xlink:href="#DejaVuSans-65" x="77.49"/><use xlink:href="#DejaVuSans-72" x="139.014"/><use xlink:href="#DejaVuSans-6d" x="178.377"/><use xlink:href="#DejaVuSans-61" x="275.789"/><use xlink:href="#DejaVuSans-6e" x="337.068"/><use xlink:href="#DejaVuSans-79" x="400.447"/></g><g style="fill:#1007e1" transform="matrix(.14 0 0 -.14 624.57 304.856)" id="text_22"><defs><path id="DejaVuSans-49" d="M628 4666h631V0H628v4666z" transform="scale(.01563)"/><path id="DejaVuSans-74" d="M1172 4494v-994h1184v-447H1172V1153q0-428 117-550t477-122h590V0h-590q-666 0-919 248-253 249-253 905v1900H172v447h422v994h578z" transform="scale(.01563)"/></defs><use xlink:href="#DejaVuSans-49"/><use xlink:href="#DejaVuSans-74" x="29.492"/><use xlink:href="#DejaVuSans-61" x="68.701"/><use xlink:href="#DejaVuSans-6c" x="129.98"/><use xlink:href="#DejaVuSans-79" x="157.764"/></g></g></g><defs><clipPath id="p9f6d5b151b"><path d="M49.83 7.2h558v277.2h-558z"/></clipPath></defs></svg>