<svg xmlns:xlink="http://www.w3.org/1999/xlink" width="951.91" height="416.199" viewBox="0 0 713.933 312.149" xmlns="http://www.w3.org/2000/svg"><defs><style>*{stroke-linejoin:round;stroke-linecap:butt}</style></defs><g id="figure_1"><path d="M0 312.15h713.933V0H0v312.15z" style="fill:none" id="patch_1"/><g id="axes_1"><path d="M67.645 284.4h558V7.2h-558v277.2z" style="fill:none" id="patch_2"/><g id="matplotlib.axis_1"><g id="xtick_1"><g id="line2d_1"><defs><path id="m328e637bf4" d="M0 0v3.5" style="stroke:#b0b0b0;stroke-width:.4"/></defs><use xlink:href="#m328e637bf4" x="109.709" y="284.4" style="fill:#b0b0b0;stroke:#b0b0b0;stroke-width:.4"/></g><g style="fill:#b0b0b0" transform="matrix(.14 0 0 -.14 80.46 302.038)" id="text_1"><defs><path id="DejaVuSans-32" d="M1228 531h2203V0H469v531q359 372 979 998 621 627 780 809 303 340 423 576 121 236 121 464 0 372-261 606-261 235-680 235-297 0-627-103-329-103-704-313v638q381 153 712 231 332 78 607 78 725 0 1156-363 431-362 431-968 0-288-108-546-107-257-392-607-78-91-497-524-418-433-1181-1211z" transform="scale(.01563)"/><path id="DejaVuSans-30" d="M2034 4250q-487 0-733-480-245-479-245-1442 0-959 245-1439 246-480 733-480 491 0 736 480 246 480 246 1439 0 963-246 1442-245 480-736 480zm0 500q785 0 1199-621 414-620 414-1801 0-1178-414-1799Q2819-91 2034-91q-784 0-1198 620-414 621-414 1799 0 1181 414 1801 414 621 1198 621z" transform="scale(.01563)"/><path id="DejaVuSans-2d" d="M313 2009h1684v-512H313v512z" transform="scale(.01563)"/><path id="DejaVuSans-34" d="M2419 4116 825 1625h1594v2491zm-166 550h794V1625h666v-525h-666V0h-628v1100H313v609l1940 2957z" transform="scale(.01563)"/></defs><use xlink:href="#DejaVuSans-32"/><use xlink:href="#DejaVuSans-30" x="63.623"/><use xlink:href="#DejaVuSans-32" x="127.246"/><use xlink:href="#DejaVuSans-30" x="190.869"/><use xlink:href="#DejaVuSans-2d" x="254.492"/><use xlink:href="#DejaVuSans-30" x="290.576"/><use xlink:href="#DejaVuSans-34" x="354.199"/></g></g><g id="xtick_2"><use xlink:href="#m328e637bf4" x="169.518" y="284.4" style="fill:#b0b0b0;stroke:#b0b0b0;stroke-width:.4" id="line2d_2"/><g style="fill:#b0b0b0" transform="matrix(.14 0 0 -.14 140.27 302.038)" id="text_2"><defs><path id="DejaVuSans-37" d="M525 4666h3000v-269L1831 0h-659l1594 4134H525v532z" transform="scale(.01563)"/></defs><use xlink:href="#DejaVuSans-32"/><use xlink:href="#DejaVuSans-30" x="63.623"/><use xlink:href="#DejaVuSans-32" x="127.246"/><use xlink:href="#DejaVuSans-30" x="190.869"/><use xlink:href="#DejaVuSans-2d" x="254.492"/><use xlink:href="#DejaVuSans-30" x="290.576"/><use xlink:href="#DejaVuSans-37" x="354.199"/></g></g><g id="xtick_3"><use xlink:href="#m328e637bf4" x="229.984" y="284.4" style="fill:#b0b0b0;stroke:#b0b0b0;stroke-width:.4" id="line2d_3"/><g style="fill:#b0b0b0" transform="matrix(.14 0 0 -.14 200.736 302.038)" id="text_3"><defs><path id="DejaVuSans-31" d="M794 531h1031v3560L703 3866v575l1116 225h631V531h1031V0H794v531z" transform="scale(.01563)"/></defs><use xlink:href="#DejaVuSans-32"/><use xlink:href="#DejaVuSans-30" x="63.623"/><use xlink:href="#DejaVuSans-32" x="127.246"/><use xlink:href="#DejaVuSans-30" x="190.869"/><use xlink:href="#DejaVuSans-2d" x="254.492"/><use xlink:href="#DejaVuSans-31" x="290.576"/><use xlink:href="#DejaVuSans-30" x="354.199"/></g></g><g id="xtick_4"><use xlink:href="#m328e637bf4" x="290.451" y="284.4" style="fill:#b0b0b0;stroke:#b0b0b0;stroke-width:.4" id="line2d_4"/><g style="fill:#b0b0b0" transform="matrix(.14 0 0 -.14 261.203 302.038)" id="text_4"><use xlink:href="#DejaVuSans-32"/><use xlink:href="#DejaVuSans-30" x="63.623"/><use xlink:href="#DejaVuSans-32" x="127.246"/><use xlink:href="#DejaVuSans-31" x="190.869"/><use xlink:href="#DejaVuSans-2d" x="254.492"/><use xlink:href="#DejaVuSans-30" x="290.576"/><use xlink:href="#DejaVuSans-31" x="354.199"/></g></g><g id="xtick_5"><use xlink:href="#m328e637bf4" x="349.603" y="284.4" style="fill:#b0b0b0;stroke:#b0b0b0;stroke-width:.4" id="line2d_5"/><g style="fill:#b0b0b0" transform="matrix(.14 0 0 -.14 320.355 302.038)" id="text_5"><use xlink:href="#DejaVuSans-32"/><use xlink:href="#DejaVuSans-30" x="63.623"/><use xlink:href="#DejaVuSans-32" x="127.246"/><use xlink:href="#DejaVuSans-31" x="190.869"/><use xlink:href="#DejaVuSans-2d" x="254.492"/><use xlink:href="#DejaVuSans-30" x="290.576"/><use xlink:href="#DejaVuSans-34" x="354.199"/></g></g><g id="xtick_6"><use xlink:href="#m328e637bf4" x="409.412" y="284.4" style="fill:#b0b0b0;stroke:#b0b0b0;stroke-width:.4" id="line2d_6"/><g style="fill:#b0b0b0" transform="matrix(.14 0 0 -.14 380.164 302.038)" id="text_6"><use xlink:href="#DejaVuSans-32"/><use xlink:href="#DejaVuSans-30" x="63.623"/><use xlink:href="#DejaVuSans-32" x="127.246"/><use xlink:href="#DejaVuSans-31" x="190.869"/><use xlink:href="#DejaVuSans-2d" x="254.492"/><use xlink:href="#DejaVuSans-30" x="290.576"/><use xlink:href="#DejaVuSans-37" x="354.199"/></g></g><g id="xtick_7"><use xlink:href="#m328e637bf4" x="469.878" y="284.4" style="fill:#b0b0b0;stroke:#b0b0b0;stroke-width:.4" id="line2d_7"/><g style="fill:#b0b0b0" transform="matrix(.14 0 0 -.14 440.63 302.038)" id="text_7"><use xlink:href="#DejaVuSans-32"/><use xlink:href="#DejaVuSans-30" x="63.623"/><use xlink:href="#DejaVuSans-32" x="127.246"/><use xlink:href="#DejaVuSans-31" x="190.869"/><use xlink:href="#DejaVuSans-2d" x="254.492"/><use xlink:href="#DejaVuSans-31" x="290.576"/><use xlink:href="#DejaVuSans-30" x="354.199"/></g></g><g id="xtick_8"><use xlink:href="#m328e637bf4" x="530.345" y="284.4" style="fill:#b0b0b0;stroke:#b0b0b0;stroke-width:.4" id="line2d_8"/><g style="fill:#b0b0b0" transform="matrix(.14 0 0 -.14 501.097 302.038)" id="text_8"><use xlink:href="#DejaVuSans-32"/><use xlink:href="#DejaVuSans-30" x="63.623"/><use xlink:href="#DejaVuSans-32" x="127.246"/><use xlink:href="#DejaVuSans-32" x="190.869"/><use xlink:href="#DejaVuSans-2d" x="254.492"/><use xlink:href="#DejaVuSans-30" x="290.576"/><use xlink:href="#DejaVuSans-31" x="354.199"/></g></g><g id="xtick_9"><use xlink:href="#m328e637bf4" x="589.497" y="284.4" style="fill:#b0b0b0;stroke:#b0b0b0;stroke-width:.4" id="line2d_9"/><g style="fill:#b0b0b0" transform="matrix(.14 0 0 -.14 560.249 302.038)" id="text_9"><use xlink:href="#DejaVuSans-32"/><use xlink:href="#DejaVuSans-30" x="63.623"/><use xlink:href="#DejaVuSans-32" x="127.246"/><use xlink:href="#DejaVuSans-32" x="190.869"/><use xlink:href="#DejaVuSans-2d" x="254.492"/><use xlink:href="#DejaVuSans-30" x="290.576"/><use xlink:href="#DejaVuSans-34" x="354.199"/></g></g></g><g id="matplotlib.axis_2"><g id="ytick_1"><path d="M67.645 284.4h558" clip-path="url(#pa276ff0351)" style="fill:none;stroke:#b0b0b0;stroke-width:.3;stroke-linecap:square" id="line2d_10"/><g id="line2d_11"><defs><path id="m79eccf85b8" d="M0 0h-3.5" style="stroke:#b0b0b0;stroke-width:.3"/></defs><use xlink:href="#m79eccf85b8" x="67.645" y="284.4" style="fill:#b0b0b0;stroke:#b0b0b0;stroke-width:.3"/></g><use xlink:href="#DejaVuSans-30" style="fill:#b0b0b0" transform="matrix(.14 0 0 -.14 51.737 289.719)" id="text_10"/></g><g id="ytick_2"><path d="M67.645 246.636h558" clip-path="url(#pa276ff0351)" style="fill:none;stroke:#b0b0b0;stroke-width:.3;stroke-linecap:square" id="line2d_12"/><use xlink:href="#m79eccf85b8" x="67.645" y="246.636" style="fill:#b0b0b0;stroke:#b0b0b0;stroke-width:.3" id="line2d_13"/><g style="fill:#b0b0b0" transform="matrix(.14 0 0 -.14 16.108 251.955)" id="text_11"><defs><path id="DejaVuSans-35" d="M691 4666h2478v-532H1269V2991q137 47 274 70 138 23 276 23 781 0 1237-428 457-428 457-1159 0-753-469-1171Q2575-91 1722-91q-294 0-599 50Q819 9 494 109v635q281-153 581-228t634-75q541 0 856 284 316 284 316 772 0 487-316 771-315 285-856 285-253 0-505-56-251-56-513-175v2344z" transform="scale(.01563)"/></defs><use xlink:href="#DejaVuSans-35"/><use xlink:href="#DejaVuSans-30" x="63.623"/><use xlink:href="#DejaVuSans-30" x="127.246"/><use xlink:href="#DejaVuSans-30" x="190.869"/><use xlink:href="#DejaVuSans-30" x="254.492"/></g></g><g id="ytick_3"><path d="M67.645 208.872h558" clip-path="url(#pa276ff0351)" style="fill:none;stroke:#b0b0b0;stroke-width:.3;stroke-linecap:square" id="line2d_14"/><use xlink:href="#m79eccf85b8" x="67.645" y="208.872" style="fill:#b0b0b0;stroke:#b0b0b0;stroke-width:.3" id="line2d_15"/><g style="fill:#b0b0b0" transform="matrix(.14 0 0 -.14 7.2 214.191)" id="text_12"><use xlink:href="#DejaVuSans-31"/><use xlink:href="#DejaVuSans-30" x="63.623"/><use xlink:href="#DejaVuSans-30" x="127.246"/><use xlink:href="#DejaVuSans-30" x="190.869"/><use xlink:href="#DejaVuSans-30" x="254.492"/><use xlink:href="#DejaVuSans-30" x="318.115"/></g></g><g id="ytick_4"><path d="M67.645 171.108h558" clip-path="url(#pa276ff0351)" style="fill:none;stroke:#b0b0b0;stroke-width:.3;stroke-linecap:square" id="line2d_16"/><use xlink:href="#m79eccf85b8" x="67.645" y="171.108" style="fill:#b0b0b0;stroke:#b0b0b0;stroke-width:.3" id="line2d_17"/><g style="fill:#b0b0b0" transform="matrix(.14 0 0 -.14 7.2 176.427)" id="text_13"><use xlink:href="#DejaVuSans-31"/><use xlink:href="#DejaVuSans-35" x="63.623"/><use xlink:href="#DejaVuSans-30" x="127.246"/><use xlink:href="#DejaVuSans-30" x="190.869"/><use xlink:href="#DejaVuSans-30" x="254.492"/><use xlink:href="#DejaVuSans-30" x="318.115"/></g></g><g id="ytick_5"><path d="M67.645 133.344h558" clip-path="url(#pa276ff0351)" style="fill:none;stroke:#b0b0b0;stroke-width:.3;stroke-linecap:square" id="line2d_18"/><use xlink:href="#m79eccf85b8" x="67.645" y="133.344" style="fill:#b0b0b0;stroke:#b0b0b0;stroke-width:.3" id="line2d_19"/><g style="fill:#b0b0b0" transform="matrix(.14 0 0 -.14 7.2 138.663)" id="text_14"><use xlink:href="#DejaVuSans-32"/><use xlink:href="#DejaVuSans-30" x="63.623"/><use xlink:href="#DejaVuSans-30" x="127.246"/><use xlink:href="#DejaVuSans-30" x="190.869"/><use xlink:href="#DejaVuSans-30" x="254.492"/><use xlink:href="#DejaVuSans-30" x="318.115"/></g></g><g id="ytick_6"><path d="M67.645 95.58h558" clip-path="url(#pa276ff0351)" style="fill:none;stroke:#b0b0b0;stroke-width:.3;stroke-linecap:square" id="line2d_20"/><use xlink:href="#m79eccf85b8" x="67.645" y="95.581" style="fill:#b0b0b0;stroke:#b0b0b0;stroke-width:.3" id="line2d_21"/><g style="fill:#b0b0b0" transform="matrix(.14 0 0 -.14 7.2 100.9)" id="text_15"><use xlink:href="#DejaVuSans-32"/><use xlink:href="#DejaVuSans-35" x="63.623"/><use xlink:href="#DejaVuSans-30" x="127.246"/><use xlink:href="#DejaVuSans-30" x="190.869"/><use xlink:href="#DejaVuSans-30" x="254.492"/><use xlink:href="#DejaVuSans-30" x="318.115"/></g></g><g id="ytick_7"><path d="M67.645 57.817h558" clip-path="url(#pa276ff0351)" style="fill:none;stroke:#b0b0b0;stroke-width:.3;stroke-linecap:square" id="line2d_22"/><use xlink:href="#m79eccf85b8" x="67.645" y="57.817" style="fill:#b0b0b0;stroke:#b0b0b0;stroke-width:.3" id="line2d_23"/><g style="fill:#b0b0b0" transform="matrix(.14 0 0 -.14 7.2 63.136)" id="text_16"><defs><path id="DejaVuSans-33" d="M2597 2516q453-97 707-404 255-306 255-756 0-690-475-1069Q2609-91 1734-91q-293 0-604 58T488 141v609q262-153 574-231 313-78 654-78 593 0 904 234t311 681q0 413-289 645-289 233-804 233h-544v519h569q465 0 712 186t247 536q0 359-255 551-254 193-729 193-260 0-557-57-297-56-653-174v562q360 100 674 150t592 50q719 0 1137-327 419-326 419-882 0-388-222-655t-631-370z" transform="scale(.01563)"/></defs><use xlink:href="#DejaVuSans-33"/><use xlink:href="#DejaVuSans-30" x="63.623"/><use xlink:href="#DejaVuSans-30" x="127.246"/><use xlink:href="#DejaVuSans-30" x="190.869"/><use xlink:href="#DejaVuSans-30" x="254.492"/><use xlink:href="#DejaVuSans-30" x="318.115"/></g></g><g id="ytick_8"><path d="M67.645 20.053h558" clip-path="url(#pa276ff0351)" style="fill:none;stroke:#b0b0b0;stroke-width:.3;stroke-linecap:square" id="line2d_24"/><use xlink:href="#m79eccf85b8" x="67.645" y="20.053" style="fill:#b0b0b0;stroke:#b0b0b0;stroke-width:.3" id="line2d_25"/><g style="fill:#b0b0b0" transform="matrix(.14 0 0 -.14 7.2 25.372)" id="text_17"><use xlink:href="#DejaVuSans-33"/><use xlink:href="#DejaVuSans-35" x="63.623"/><use xlink:href="#DejaVuSans-30" x="127.246"/><use xlink:href="#DejaVuSans-30" x="190.869"/><use xlink:href="#DejaVuSans-30" x="254.492"/><use xlink:href="#DejaVuSans-30" x="318.115"/></g></g></g><path d="m67.645 284.4 26.947-.104 2.629-.169 2.629-.36.657-.082 3.286-1.083 1.315-.722 1.314-.537.658-.387.657-.218 4.6-.564 3.944.786.657.336 1.972.476 1.315.437 4.6.405 1.315.245 7.23.789 1.314.013 7.887.252 1.972.063 17.745.088 3.286-.13 4.601.126 14.46-.02 5.915-.139 12.487-.433 1.972-.1 10.516.102 1.972-.093 2.629-.076 8.544-.332 2.629-.104 3.943-.652 1.315-.362 1.314-.277 1.972-.831 1.314-.563 1.315-.497.657-.265 1.315-.924 1.314-1.345 1.315-.96.657-.796.657-.592.657-.803.658-.468 1.314-.692.657-.426 1.315-.59.657-.304.657-.469 1.315-.335.657.002 1.314-.34.658-.219.657.101.657-.1.657.274 1.315.198 1.972-.146.657.13 2.629.01 2.629.317.657-.005.657.147 1.315-.045.657-.175.657-.341 1.315-.174.657-.383.657-.176 1.315-1.246.657-.262.657-.435.658-.04.657-.747 2.629-1.357.657-.03.657-.55.657.322.658-.568.657.89.657 1.817.657.972 1.315 1.328.657.246.657-.038 1.972.843 1.972.36.657.665.657-.963.658-1.295.657-.715.657-.286.657-.098 1.315.31.657 1.022.657.65.658.33.657.578.657.154 1.315.906.657.486 1.314.42.658.044.657.535 1.314.606 1.315.856 1.971.268 1.315.738 1.314.318.658.278.657.116 3.943 1.729 3.944.012.657-.168 1.972-.046 1.314-.275 1.972-.126 1.972-.12 1.314-.041 2.63-.1 3.285-1.306.658-.132 1.971-1.304 1.315-.68 1.314-.336.658-.256 1.314-.997 1.315-.85 1.971-.59.658-.178.657-.034.657.253.657.537.658.149.657.287.657.796.657.42.658-.386 1.314-1.255 1.315-.935.657-1.297.657-.973 1.972-.151 1.314.324.657-.344.658-.01.657-.185 1.972.038.657-.147.657.286.657.516.658.347.657.48 1.314.565 1.972 1.125.657.63 1.972.984.657.152.658.338.657.489 1.314 1.612.658.448 1.314.37.657.417.658.553.657.277 1.314.28 1.315.543.657.907.657.646 1.315.329.657.309 1.314.09.658-.248.657.18 1.314.793 1.315.245.657.063 1.315.336 3.943.537 1.315.348 1.971.178 11.173.251 7.23-.459 4.6-.312 1.315-.1 1.315-.174 6.572-.612 1.315-.23 2.629-.893 1.314-.256 2.63-1.32 1.314-.417.657-.198 2.629-1.34 1.314-.244h.658l1.971-.57.658-.058.657-.22 1.972-.13.657-.184.657.138.657-.04.658.335.657-.083 1.314.163 1.972.73.657.001 3.944 1.15.657-.048 1.314.13 2.63-.483.657.174 3.943-.065.657-.156 1.972-.06 1.315-.197 1.314-.341 1.315-.296.657-.552.657-.399.657-.869 1.972-1.269.657-.4.658-.668.657-1.29 1.972-1.58.657-.334.657-.036.657.303.658-.638 1.314-2.688 1.314-1.35.658-1.188 1.314-3.833 1.972-3.513.657-.873.657-1.102 1.315-3.057.657-.467.657-2.033.658-.996.657-.759 1.972-4.092.657-2.53.657-.345.657-.18.658.138 1.314-.08 1.972.802 1.314.418.658 1.046.657-.26.657.28 1.315 2.576.657 1.016 1.314 1.222.658 1.974.657 1.504 1.314 2.288.657.356.658.61.657.798.657.609.657 1.267.658 1.677 1.314 4.3 1.315.487.657.606.657.233.657-.627.658-.45.657-.261.657-.497.657-1.023 1.972-5.992.657-3.183.658-2.593.657-.727.657-1.633.657-2.321.658-1.843.657-3.872.657-2.388.657-1.721.658-.96 1.314-6.539 1.972-16.993 1.314-6.71 1.315-11.245.657-7.51 1.314-11.188.658-3.618.657-1.61.657-3.848.657-4.801.658-3.559.657-6.332.657-3.091.657-1.533.658-1.829.657-.75.657-2.779.657-1.267 1.972 2.666.657 2.028.658 1.118 1.314 2.86 1.315 4.403.657.77.657.28.657 3.594.658 1.179.657 2.082.657 1.004.657 1.432 1.315 2.335.657.41.657 2.442.658.61.657-.74.657-1.766.657-.969.657-1.734 1.315-6.92.657-5.62.657-3.802.658-4.842.657-3.207.657-1.505 2.63-17.913.656-2.498.658 1.599.657.007 1.972-7.314.657.145.657.886.657 2.22.658 2.677.657-1.648.657 1.646.657-22.561.658 31.997.657 5.996.657-.427 1.315 13.428.657-15.994.657 38.004.657-16.264.658 15.212.657 9.106.657-21.627.657 4.504.658 27.12.657 1.985.657 12.203.657 1.693.657 1.112.658 19.201.657-6.466.657-2.261.657-.524.658-10.521 1.314.108.657-12.334.658 21.426.657-9.218.657 6.485.657 5.155.658 2.963.657 1.732.657 2.512.657-11.505.658 18.946 1.314 3.408.657.348.658.074.657.642.657 1.038.657.778.658 1.734.657 1.122.657.252.657.113 1.315 4.992.657 3.263 1.315 4.27.657.251.657.115 1.972 6.877.657 5.077h0" clip-path="url(#pa276ff0351)" style="fill:none;stroke:#d8b009;stroke-width:1.5;stroke-linecap:square" id="line2d_26"/><path d="m67.645 284.4 20.375-.094 3.286-.19 2.629-.329 3.943-1.035 3.286-1.149 1.315-.701 1.972-.566 1.314-.204 1.972.108 2.629.421 1.972.366 1.314.158 1.972.22 2.629.092 1.314.172 1.315.179 1.971.236.658-.076 1.971.296 10.516 1.246 1.315.025 6.572.332 15.774.284 2.63.034 3.943-.035 11.173.058 14.46-.056 11.172-.251 7.887-.51 3.286-.064 2.63-.062 3.943.033 5.915-.183 3.286-.167 2.63-.338 1.314-.309 1.314-.516 3.286-1.618 1.972-1.53.657-.674 1.315-1.046 2.629-3.56 3.286-5.275 1.315-2.595.657-.932 1.972-1.84 1.971-2.422 1.315-.618.657-.74 1.314-.634.658-.335.657.276 1.314-.372.658.313.657-.142.657.194 1.972 1.272.657.478 1.315 1.876.657.774 1.972 2.702.657.707.657.418 2.63 2.203 1.314.481.657.487.657.858 1.315 1.252 2.629.405.657-.52.657-.133 1.972 1.053 1.314.29.657.394.658.021.657-.392 1.314 1.302 1.315.474.657-.248.657-.587.658-.342.657-.153.657-.573.657-.24 1.315-.893 1.314 1.05.658-.879.657-.472.657-.187.657.122.658.491 1.314.276.657.396.658.656 1.314.804 1.315.582 1.314.592 1.315.128.657-.01.657-.175 1.314-.025 2.63.276.657.217.657.076 3.286-.299.657.025.658-.16 3.943.277.657.15 1.972-.579 1.315-.561.657-.468 1.314-1.201 3.287-2.123 1.314-.7.657-.51.658-.355.657-.084.657-.287.657-.155 1.972-.861 1.972-.28.657-.083 1.314.197 1.315.365.657-.998 2.63.677 1.314.057.657 1.251.657.29.657-.285 1.315.394 1.314.45.658.24.657.895.657 1.1.657.537 1.972.968.657.097.658-.612.657-.267.657.026 1.972.89 1.314.246.657.25 6.573 1.037.657.433.657.27.658.138 2.629 1.187 1.314.186 1.315.529 1.971 1.103 1.972.719 3.286 1.158 1.972.405 2.629.592 1.972.264 1.314.363 2.63.293 3.943.346 7.887.744 5.258-.006 2.628-.116 4.601-.528 3.286-.882 3.944-1.253 1.972-.379 1.971-.369 1.315-.042 1.972-.21 1.971-.196 1.315-.12 7.887-.134 1.314-.128 3.944.053 2.629.356 3.286.446 1.972.295 2.629.297 1.971.272 1.972.203 2.629.39 3.286.23 3.944.232 5.915.269 2.629-.148 7.23-1.293.657-.03.657.131 1.315-.176 2.628-.684 1.972-.962 1.972-.57.657-.07 2.63-.844 1.314-.555 1.314-.37 1.315-.582.657-.338.657-.143.657-.348.658-.169 2.629-1.265.657-.405 1.972-.711.657-.31.657.463 1.315-.85 2.629-1.897.657-1.466 1.314-1.635.657-.549.658-.378.657-1.091.657-1.418.657-1.994.658-2.37.657-2.885.657-.062.657-1.575.658-5.127.657-6.656 1.314-18.999.658-9.33 1.314-7.929 1.972-29.783.657 3.88.657-6.073.658-10.197 1.314-10.687.657-.768.658 3.76.657-9.988.657.496.657-.196.658 3.67.657-.82.657-.514.657-1.542 1.972 4.947.657.617.657 1.818.658 3.24 1.971 13.377.658 4.141.657 2.162.657 8.413 1.315 10.218 1.314 9.46.657 2.716.658 1.73.657 3.33 1.972 11.636 1.314 6.212.657 1.383.658 3.389 1.314 4.31 1.315 2.732.657 1.094.657.463 3.944 7.06.657.669 1.314 2.613 1.315.93.657-.216 1.314-.906 1.315-2.75.657-1.356 1.315-3.125.657-1.525.657-.76 2.63-10.986.656-2.27.658-1.245.657-.405.657-1.132.657-.454.658-.03 1.314.36 1.315.305.657-.366 1.314 1.644.658-.07.657.346.657.605.657.025.658 1.228.657.164.657.458.657 1.014.658.754.657.118.657.283.657.524.658.788 1.314 1.063.657-.012.657.18.658 1.092.657 6.12.657-4.084 1.315-2.355.657-.701.657-.496.657-.722.658-.287.657 1.296.657.643.657 1.548 1.315 3.482.657.67.657-3.498.658 4.4.657 2.3 1.314 3.05.658 1.119.657.178 1.314 1.205.658.996 1.314 1.056 1.315.77 3.286 6.055.657 1.018.657.405.658 1.531.657.732.657 1.063h0" clip-path="url(#pa276ff0351)" style="fill:none;stroke:#1007e1;stroke-width:1.5;stroke-linecap:square" id="line2d_27"/><path d="m67.645 284.4 34.177-.098 4.6-.252 2.63-.198 3.943-.026 1.972.043 1.314-.058 17.746.382 2.629-.032 3.943.074 13.802-.07 2.63-.004 5.257-.018h9.202l3.943-.015 4.6.013 5.259.09 19.06.008 7.887-.096 24.318-.554 1.971-.261 9.859-1.418.657-.19 1.972-.094.657.075.658-.381 1.314-.117 1.972-.75.657-.13.657.276 1.315-.274 1.314-.023.657-.46 3.287-.265.657.134.657.467 2.63.301 1.314.248 1.314.248 1.972.543.657-.132 1.972.045.657-.077 3.286.255 1.315-.038.657-.128 2.629.23 2.629.048 1.314.472 1.315-.096.657-.156 1.315-.653 2.629-.835.657-.429 1.314-.596.658-.673.657-.444.657-.133.657-.249 1.972-.193.657-.158.658-.311.657-.119 2.629-1.452.657-.473.657-.144 1.972-.103.657-.312.657.085 1.315.552.657.121 1.315 1.21.657.92 1.972 2.004 1.971 1.181 1.315.917.657.354 1.315.327 1.314.34 1.972.402 3.286.36 1.972.204 21.032.424 14.459-.041 15.117.095 17.745-.227 3.286-.16 1.972-.152 5.258-.22 10.516-1.175 5.915-.298 2.63.167 3.285.417 3.944.164 2.629.056 6.572-.038 6.573.116.657.161 1.314.03 2.63.252.657-.023 1.314.207 3.944.218 7.886.282 7.23.056 17.746-.238 5.915-.386 1.972-.193 3.286-.385 4.6-.57 1.972-.108.658.072.657-.246 2.629-.28 1.972-.175 2.629-.095 1.314-.265 1.314-.008.658-.047 1.314-.572.657-.584.658-.895.657-.535.657.058.657-.387.658-1.232 1.971-5.818.658-1.432.657-.793.657-.455.657-.935 1.315-2.495.657-.852.657-1.333.658-1.655.657-1.042.657-.81 2.63-.678.656-.632.658-.183 1.314-2.373 1.315-3.748.657-2.157 2.629-5.513.657-1.002.657-.572.657-.115.658.026.657-4.804.657 3.095.657 1.281.658.885 1.314 2.125.657.134.658 4.784.657 1.193 1.972 7.105 1.314 5.12.657 1.728.658.973 1.971 4.324.658.978 1.314 1.356.657.296.658.554.657.207 1.972 1.618 1.971.721.658.968.657-.046 1.971-1.268.658-.17 1.314-1.032.657-.066 1.972.664 1.972.305 1.314.07 1.972.204 1.972.124.657.15 1.315.104.657.05 1.972.568.657.032.657.223 1.972.354 1.972.426 1.971-.085 2.63-.591.656.51 3.944-.266.657-.485.657.076.658-.048.657.894.657-.015 2.63-1.224.656-.107.658-.952.657-.241.657-.122 2.63-1.55 1.314-2.203 1.314-2.642 1.315-1.388.657-.19.657-1.687.657-.73.658-.419.657 3.21.657 2.634.657-1.24.658-5.01.657.332.657 3.714h0" clip-path="url(#pa276ff0351)" style="fill:none;stroke:#ea71b3;stroke-width:1.5;stroke-linecap:square" id="line2d_28"/><path d="m67.645 284.4 26.29-.107 3.286-.224 2.629-.309 2.629-.435 1.314-.375 1.315-.299 2.629-.79.657-.107.657-.581.658-.203.657.196.657-.155.657 2.344 1.315.372.657.673h1.972l.657-1.151.657-5.384.658-.052.657-2.259.657.07.657-.949.658-.035.657-.255.657 5.358.657.075.657 1.595.658.152.657 1.541.657-.1.657.23.658.05 1.314-.184.657.351.658-.316.657.247 1.314.125 1.315.554.657-.603 1.972.08 1.972.077.657.39 9.201.19.658-.332.657.017 1.314-.207 1.315.089.657.367 1.314-.109.658.132 1.971-.127.658-.415.657.43 3.286-.017 3.944-.017 3.286.023.657.081 2.629-.135 1.315.088 1.971-.087 3.286.02h1.315l3.286-.005 3.944-.223 1.971-.06 1.972-.098 1.972-.092 5.915-.505 1.315-.172 1.314-.664.657.445 1.315-.204 1.314-.45.657-.029 1.972-.489.657.378.658-.693 1.314-.503 1.315-.192.657-.163.657-.734.657.443.658-.133.657-.339 4.6-1.293.658.073 1.314-.34.658-.18.657-.05.657-.4.657-.24.658-.453.657.085 1.314-.564.658-.612.657-.31 1.314-.081 1.315.358.657-.122 1.314.706 1.315-.449.657-.144.657-.357 1.315-.967 1.314-2.024 2.63-1.445.657-1.333 1.314-1.086.657-1.494.658-.547.657-.729.657-.48.657-1.192.658-1.858.657-1.416.657 2.506.657-6.336.658-1.52.657-1.094 1.314-1.343.658 1.097 1.314-7.838.657-4.116.658 9.028 1.314-2.445.657-5.562.657.821.658 9.136.657 5.393.657-8.904.657 2.726.658 3.972.657 5.902 1.314 2.454.658-2.48.657.815.657 1.27.657.094 1.315 3.059.657.538.657 3.85.658 1.304.657.84.657 1.132.657.56.658.364 1.314.24.657.273.658.024.657.136 1.972-.075.657-.604 1.314-.166 1.315-.328 1.314-.04.658.25.657-.328.657-.488 2.629-1.075.657-.014.657.295 1.315-.832.657 1.547 1.315.738.657.04.657-1.244 1.315.283.657-.04.657-.392.657-.105.658-1.008.657.144.657-.19.657-.055.658-1.803.657-.373 1.314.145 1.315.182 1.972-.365.657.002.657-.46.657-.305 1.315-.365 1.314-.484.658-.054.657.203 2.629-.124 1.971-.236.658.059.657 2.567.657-2.414.657.373 1.315-.036.657.466.657.107.658-2.272.657 2.687.657-.07.657.328 1.972-.029.657-.155.658-.37.657-.122.657-.58 1.315-.091.657-.7.657-.312 1.315-.305.657.225.657-.008.657-.289.658.509.657.014 1.314.262 1.315-.292.657-.033 1.314-.61.658-.17.657-.687.657-.498.657-.1.658-.739.657-.955.657-.754.657-1.083 1.315-1.057.657-1.007.657 1.654.658-2.9.657-1.142 1.972-2.213.657.724.657-1.73.657.685 1.315-1.06.657 4.582.657-4.695.658-.182.657 2.446.657 6.271.657-5.001.658 5.019.657-.134.657-4.02.657.241.658-3.353.657-4.594.657 6.365 1.314-7.634.658 9.551.657.199.657-.534.657.926 1.315.945.657.348.657.526.658.081.657 1.484.657.365 1.972 2.359.657 1.573.657.237 1.315 1.239 1.972 1.606 1.314.136 1.315.981.657.243.657 1.306.657.55.658-.53.657-.005 1.314.54.658 10.342h3.943l.657-7.246 2.63.602.656-.723.658 1.22.657-.176 1.972 1.368.657-.087.657.413.657-.455.658 1.196 1.314.621.657.238.658.052 1.971.832 7.23.762.657-.128.658.103 3.943-.397 1.314-.484 1.972-.571.657-.05.658-.364.657.284 2.629-2.967.657-.315.657-1.215.658-2.171.657-1.192.657-.914.657-1.59.658-.292.657-.132.657-.961.657-.686.658-.359.657-.529.657.203.657-.482.658-.343.657.305 3.286-.755.657.148 1.315-.879 1.314-.511.658.154.657-.087.657-.667 2.629 1.685.657.185.657.428.658.592.657-.085 1.314 1.298.658 2.426.657-1.394.657.396.657.025.658 2.793.657-1.017.657.597.657-1.594.658 2.406.657.347.657.5.657-1.565.658 2.934.657-.428.657.562 1.315.65 1.314.088.657.598.658.403 1.971.655.658.084.657.613.657-.728.657.764.658.116.657.281 6.572 1.038.657-.376 3.944.08.657.876.657-.48.658-.15 2.629.016.657-.483.657.364.657-.029 1.315-.28 1.314-.101.658-.108 1.314.016 1.972-.311.657.503 1.972-.983 1.314-.483.657-.038.658-1.129.657-.176.657-.35.657.56 1.315-.967.657-.115 1.972-2.534.657-1.876 1.315-1.648.657-.22 1.314-2.47 2.63-5.667.657-.347 2.629-7.001.657-1.551.657-1.14.657-.333 1.315-2.451.657-.911.657-.571 1.315-.448.657-.05 1.972-1.375.657-.322 1.314-.997.658-.327.657-1.022.657-2.006 1.315-7.198.657-4.971.657 2.241.657-1.656 1.315-24.905.657-12.398.657-14.897.658-12.356.657-3.316.657-3.993.657-9.945.658-13.39.657-6.08 1.314-19.485.658-25.643.657-2.854.657-10.45.657-3.19.658-4.909.657-.16.657-2.259.657 1.939.658-.941.657-10.407.657-8.058.657-12.832 1.315-14.72.657-2.537.657-.736.657-4.109.658.954.657 3.638.657 5.088 1.315 11.772.657 2.269.657 9.56 3.286 59.522.658 4.273.657 18.994.657 33.88.657-6.25 1.315 21.981.657 7.431.657 1.752.658 25.542.657-25.989.657 25.973 1.315 9.765.657 2.972.657 1.309.657-10.31.658 18.274 1.971 8.082.658 1.77.657.51 1.314 3.485.658.778 1.314.035.657-.294.657-.06 1.972-4.106.657-1.512.658-1.818.657-1.479.657-.68.657-2.555.658-4.169 1.971-8.59.658-2.4.657-.206.657-6.884 1.972-13.946.657-4.468.657-3.118.658-.569.657-3.936.657-1.615.657-3.147.658-.587 1.314 1.652.657-.25.658.855.657 1.955.657 1.15.657.005.658-1.043.657-.581.657.71.657 2.049.658.482 1.314 4.864.657 3.258.657 2.267.658.618.657 17.832.657-1.001 2.63 13.933.656.62.658-7.769.657 9.494.657 4.745 1.315 7.19.657 2.398.657.572.657 3.278.658 2.127.657 1.69 1.314 2.62.658.798.657.15.657 1.15 3.286 4.003.658.152.657 1.374.657-2.578 1.972 2.667.657.634.657 3.84.658 1.235.657 4.569.657.713h0" clip-path="url(#pa276ff0351)" style="fill:none;stroke:#0309a6;stroke-width:1.5;stroke-linecap:square" id="line2d_29"/><path d="m67.645 284.4 26.947-.103 1.972-.115.657-.303 2.629-.564.657-.17.657-.437.658.054.657-.41.657-.215.657-.455.658-.318.657-.806.657-.455.657-.592 2.63-1.157.657.155 1.971.18.658.15 2.629 1.12 3.943 1.266.657-.248.658-.09.657.416.657-.339.657.187.657-.165.658.097.657.288.657 1.718.657-.219.658.563.657-.032 1.972.955.657-1.275 1.972.397.657-.001.657.124 1.315-.025 1.314.081.657-.274 2.63.227 1.314.105.657.235 1.972.073.657-.124 7.887.062 1.314.179 2.63.04 5.257-.04 3.944-.002 10.516-.057 6.572-.366.657-.273 7.23-.78h1.315l.657-.233.657-.425 3.286-.392.658-.01.657.23.657-.023.657-.374 1.315-.105h.657l.657-.825.657-.16.658-.378.657.055.657-.288h1.315l1.314-.552.657-.067 1.315-.459h1.314l.658-.452 1.314-.246.657.075 1.315-.075h.657l.657-.322 1.972-.317.657-.184 1.972-.092.657-.05.658-.252.657-.056.657-.239h1.315l.657-.434.657-.147 1.315.059.657.228 1.971-.038.658 1.165.657-1.04 1.314.236h1.315l.657.896.657-1.295.658 1.126.657-.324.657-.158h1.315l.657-.472.657.526 1.972-.515h1.314l.658-1.082.657-.729.657-.54.657-.827.658-.503h1.314l.657-1.543.658-.49 1.314-.582.657-.62h1.315l.657-.305.657-.027.658-.57.657.18.657.333h1.314l.658.284.657 2.015.657-1.236.657.259.658.123h1.314l.657 1.523.658-1.42.657 2.285.657.354.657.67h1.315l.657 1.337.657.1 1.315.975.657.465h1.315l.657.637.657.429.657.096 1.315.46h1.314l.658.248.657.891.657-.047.657.234.658-.191h1.314l.657-.392.658-1.114.657-.141.657-.45.657-.14 1.972-.076 1.314-.177.658-.057.657 1.275h1.314l1.315-.635 1.314-1.048h1.972l.657-.66.658-1.037.657 1.803 1.314-5.37h1.315l.657-3.328.657-.187.658-4.194.657.7.657-1.591h1.315l.657-2.467.657-.955.657-.292.658-.915.657-.29h1.314l.658-1.029.657-.231.657.139.657 1.02.657.515h1.315l.657 1.525 2.63 3.296h1.314l.657 3.517 2.629 5.636h1.314l.658 1.817 1.314 1.471 1.315.7h1.314l.657 1.014 1.315.455.657.533.657.334h1.315l.657.526.657 5.455h3.944l.657-3.755 1.314-.13.658.142 3.943.077.657.577h1.315l.657-.552.657-.06.658.658 1.314-1.596 1.972.105.657.056.657-.92 1.315 1.506.657-1.033h.657l.658.555.657-.176.657-.027.657-.309.658-1.173.657 1.033h.657l.657-1.336.658.035.657-.182 3.286.236.657.68.657-.782 1.315-.247h1.314l.658.132.657-.827.657.977.657.072.658.28h1.314l1.315.717 1.314.49 1.315.102h.657l.657.255 1.315-.057 1.314.443h1.315l.657.315 1.314.14.658-.004.657.168 1.972-.001.657-.148 1.314.164 1.315-.075h.657l1.314.249 3.944.083 1.314.155.658-.944 1.314.089h.657l.658.148 1.314.072.657 1.058 1.972-.007.657.103 3.287-.23h.657l1.314-.65.658-.528 1.314-1.67h1.315l.657-2.42 2.629-3.181h1.314l.657-.143.658-3.218 1.971-3.081h1.315l.657-2.989.657 1.8.658-.454.657-.199 2.629-.011.657.095 1.315.678.657.693h1.314l2.63 2.41.657.344h1.314l.657 1.759 2.63 2.09h1.314l.657 1.502.657.145 1.315 1.082.657.346h1.314l.658.197.657.46.657.127.657.575.658.32h1.314l.657.907.658.249.657.428.657-.264.657.343h1.315l.657.661 1.315.371.657.518.657.202h1.315l3.286.822h1.314l1.315.284 1.972.259 1.971.102 3.944.17 2.629.25 1.971-.03.658.048.657.194 1.972-.056 1.971-.071.658-.204 2.629-.003 5.258-.008.657.484.657-.42.657.027 1.315-.207h1.314l.657-.692.658.628.657-.45 1.972-.244h.657l1.314-.806.658-.022 1.314-.465h1.315l.657-.656 2.629-1.161h1.314l.658-.76.657-.376.657-.216.657-.566.658-.413h1.314l.657 2.472.658-3.62.657 1.137.657-1.285.657-.362 1.315.009.657-5.374.657 1.907.658-2.928.657-.269.657-1.754 1.314-.01.658-3.226.657-2.555.657-3.55.657-4.75.658 3.6h1.314l.657-14.557.658-5.378.657-4.394.657-9.578h1.972l.657-17.064.657-1.953.658-3.93.657 17.446.657-26.159h1.315l.657 8.672.657-1.852.657-4.526.658-17.173.657 8.625h1.314l.658-4.216.657 4.366.657 2.286.657.185.658 2.31h1.314l.657 2.81.657-2.202 1.972 7.89h1.315l.657 13.304.657 3.993.657 5.106.658 6.099.657 12.831h1.314l.658-1.47.657 3.672 1.314 4.823.658-5.288h1.314l.657 13.709.658 1.02.657 2.776 1.314 4.017h1.315l.657 2.15.657 1.315.658.345.657-.181.657.333h1.315l.657 5.263.657-3.924 1.315 3.006.657.553h1.314l.657-3.884.658 3.82.657-.337.657.057.657.275h1.315l.657 3.884.657-1.394 1.315 4.807.657-4.828h1.972l.657-1.951h1.315l.657-.895h1.972l.657-.268h1.314l.658 3.196h1.971l.658 3.19h1.314l.657-.602h1.972l.657-.825h1.315l.657 5.27h1.972l.657-4.312h1.314l.658-5.302h1.971l.658 2.941h1.314l.657-1.462h1.972l.657-1.07h1.315l.657.769h1.315l.657-5.377.657 6.186h1.315l.657-1.366h1.314l.658 5.377.657-5.623h1.314l.658 7.362.657-5.996h1.314l.658 5.27h.657l.657-4.56h0" clip-path="url(#pa276ff0351)" style="fill:none;stroke:#907eba;stroke-width:1.5;stroke-linecap:square" id="line2d_30"/><g style="fill:#d8b009" transform="matrix(.14 0 0 -.14 642.385 244.677)" id="text_18"><defs><path id="DejaVuSans-47" d="M3809 666v1253H2778v519h1656V434q-365-259-806-392-440-133-940-133-1094 0-1712 639-617 640-617 1780 0 1144 617 1783 618 639 1712 639 456 0 867-113 411-112 758-331v-672q-350 297-744 447t-828 150q-857 0-1287-478-429-478-429-1425 0-944 429-1422 430-478 1287-478 334 0 596 58 263 58 472 180z" transform="scale(.01563)"/><path id="DejaVuSans-65" d="M3597 1894v-281H953q38-594 358-905t892-311q331 0 642 81t618 244V178Q3153 47 2828-22t-659-69q-838 0-1327 487-489 488-489 1320 0 859 464 1363 464 505 1252 505 706 0 1117-455 411-454 411-1235zm-575 169q-6 471-264 752-258 282-683 282-481 0-770-272t-333-766l2050 4z" transform="scale(.01563)"/><path id="DejaVuSans-72" d="M2631 2963q-97 56-211 82-114 27-251 27-488 0-749-317t-261-911V0H581v3500h578v-544q182 319 472 473 291 155 707 155 59 0 131-8 72-7 159-23l3-590z" transform="scale(.01563)"/><path id="DejaVuSans-6d" d="M3328 2828q216 388 516 572t706 184q547 0 844-383 297-382 297-1088V0h-578v2094q0 503-179 746-178 244-543 244-447 0-707-297-259-296-259-809V0h-578v2094q0 506-178 748t-550 242q-441 0-701-298-259-298-259-808V0H581v3500h578v-544q197 322 472 475t653 153q382 0 649-194 267-193 395-562z" transform="scale(.01563)"/><path id="DejaVuSans-61" d="M2194 1759q-697 0-966-159t-269-544q0-306 202-486 202-179 548-179 479 0 768 339t289 901v128h-572zm1147 238V0h-575v531q-197-318-491-470T1556-91q-537 0-855 302-317 302-317 808 0 590 395 890 396 300 1180 300h807v57q0 397-261 614t-733 217q-300 0-585-72-284-72-546-216v532q315 122 612 182 297 61 578 61 760 0 1135-394 375-393 375-1193z" transform="scale(.01563)"/><path id="DejaVuSans-6e" d="M3513 2113V0h-575v2094q0 497-194 743-194 247-581 247-466 0-735-297-269-296-269-809V0H581v3500h578v-544q207 316 486 472 280 156 646 156 603 0 912-373 310-373 310-1098z" transform="scale(.01563)"/><path id="DejaVuSans-79" d="M2059-325q-243-625-475-815-231-191-618-191H506v481h338q237 0 368 113 132 112 291 531l103 262L191 3500h609L1894 763l1094 2737h609L2059-325z" transform="scale(.01563)"/></defs><use xlink:href="#DejaVuSans-47"/><use xlink:href="#DejaVuSans-65" x="77.49"/><use xlink:href="#DejaVuSans-72" x="139.014"/><use xlink:href="#DejaVuSans-6d" x="178.377"/><use xlink:href="#DejaVuSans-61" x="275.789"/><use xlink:href="#DejaVuSans-6e" x="337.068"/><use xlink:href="#DejaVuSans-79" x="400.447"/></g><g style="fill:#1007e1" transform="matrix(.14 0 0 -.14 642.385 258.677)" id="text_19"><defs><path id="DejaVuSans-49" d="M628 4666h631V0H628v4666z" transform="scale(.01563)"/><path id="DejaVuSans-74" d="M1172 4494v-994h1184v-447H1172V1153q0-428 117-550t477-122h590V0h-590q-666 0-919 248-253 249-253 905v1900H172v447h422v994h578z" transform="scale(.01563)"/><path id="DejaVuSans-6c" d="M603 4863h575V0H603v4863z" transform="scale(.01563)"/></defs><use xlink:href="#DejaVuSans-49"/><use xlink:href="#DejaVuSans-74" x="29.492"/><use xlink:href="#DejaVuSans-61" x="68.701"/><use xlink:href="#DejaVuSans-6c" x="129.98"/><use xlink:href="#DejaVuSans-79" x="157.764"/></g><g style="fill:#ea71b3" transform="matrix(.14 0 0 -.14 642.385 272.677)" id="text_20"><defs><path id="DejaVuSans-50" d="M1259 4147V2394h794q441 0 681 228 241 228 241 650 0 419-241 647-240 228-681 228h-794zm-631 519h1425q785 0 1186-355 402-355 402-1039 0-691-402-1044-401-353-1186-353h-794V0H628v4666z" transform="scale(.01563)"/><path id="DejaVuSans-6f" d="M1959 3097q-462 0-731-361t-269-989q0-628 267-989 268-361 733-361 460 0 728 362 269 363 269 988 0 622-269 986-268 364-728 364zm0 487q750 0 1178-488 429-487 429-1349 0-859-429-1349Q2709-91 1959-91q-753 0-1180 489-426 490-426 1349 0 862 426 1349 427 488 1180 488z" transform="scale(.01563)"/><path id="DejaVuSans-75" d="M544 1381v2119h575V1403q0-497 193-746 194-248 582-248 465 0 735 297 271 297 271 810v1984h575V0h-575v538q-209-319-486-474-276-155-642-155-603 0-916 375-312 375-312 1097zm1447 2203z" transform="scale(.01563)"/><path id="DejaVuSans-67" d="M2906 1791q0 625-258 968-257 344-723 344-462 0-720-344-258-343-258-968 0-622 258-966t720-344q466 0 723 344 258 344 258 966zm575-1357q0-893-397-1329-396-436-1215-436-303 0-572 45t-522 139v559q253-137 500-202 247-66 503-66 566 0 847 295t281 892v285q-178-310-456-463T1784 0Q1141 0 747 490 353 981 353 1791q0 812 394 1302 394 491 1037 491 388 0 666-153t456-462v531h575V434z" transform="scale(.01563)"/></defs><use xlink:href="#DejaVuSans-50"/><use xlink:href="#DejaVuSans-6f" x="56.678"/><use xlink:href="#DejaVuSans-72" x="117.859"/><use xlink:href="#DejaVuSans-74" x="158.973"/><use xlink:href="#DejaVuSans-75" x="198.182"/><use xlink:href="#DejaVuSans-67" x="261.561"/><use xlink:href="#DejaVuSans-61" x="325.037"/><use xlink:href="#DejaVuSans-6c" x="386.316"/></g><g style="fill:#0309a6" transform="matrix(.14 0 0 -.14 642.385 286.677)" id="text_21"><defs><path id="DejaVuSans-46" d="M628 4666h2681v-532H1259V2759h1850v-531H1259V0H628v4666z" transform="scale(.01563)"/><path id="DejaVuSans-63" d="M3122 3366v-538q-244 135-489 202t-495 67q-560 0-870-355-309-354-309-995t309-996q310-354 870-354 250 0 495 67t489 202V134Q2881 22 2623-34q-257-57-548-57-791 0-1257 497-465 497-465 1341 0 856 470 1346 471 491 1290 491 265 0 518-55 253-54 491-163z" transform="scale(.01563)"/></defs><use xlink:href="#DejaVuSans-46"/><use xlink:href="#DejaVuSans-72" x="50.27"/><use xlink:href="#DejaVuSans-61" x="91.383"/><use xlink:href="#DejaVuSans-6e" x="152.662"/><use xlink:href="#DejaVuSans-63" x="216.041"/><use xlink:href="#DejaVuSans-65" x="271.021"/></g><g style="fill:#907eba" transform="matrix(.14 0 0 -.14 642.385 300.677)" id="text_22"><defs><path id="DejaVuSans-53" d="M3425 4513v-616q-359 172-678 256-319 85-616 85-515 0-795-200t-280-569q0-310 186-468 186-157 705-254l381-78q706-135 1042-474t336-907q0-679-455-1029Q2797-91 1919-91q-331 0-705 75-373 75-773 222v650q384-215 753-325 369-109 725-109 540 0 834 212 294 213 294 607 0 343-211 537t-692 291l-385 75q-706 140-1022 440-315 300-315 835 0 619 436 975t1201 356q329 0 669-60 341-59 697-177z" transform="scale(.01563)"/><path id="DejaVuSans-70" d="M1159 525v-1856H581v4831h578v-531q182 312 458 463 277 152 661 152 638 0 1036-506 399-506 399-1331T3314 415Q2916-91 2278-91q-384 0-661 152-276 152-458 464zm1957 1222q0 634-261 995t-717 361q-457 0-718-361t-261-995q0-634 261-995t718-361q456 0 717 361t261 995z" transform="scale(.01563)"/><path id="DejaVuSans-69" d="M603 3500h575V0H603v3500zm0 1363h575v-729H603v729z" transform="scale(.01563)"/></defs><use xlink:href="#DejaVuSans-53"/><use xlink:href="#DejaVuSans-70" x="63.477"/><use xlink:href="#DejaVuSans-61" x="126.953"/><use xlink:href="#DejaVuSans-69" x="188.232"/><use xlink:href="#DejaVuSans-6e" x="216.016"/></g></g></g><defs><clipPath id="pa276ff0351"><path d="M67.645 7.2h558v277.2h-558z"/></clipPath></defs></svg>