<svg xmlns:xlink="http://www.w3.org/1999/xlink" width="1015.94" height="416.199" viewBox="0 0 761.955 312.149" xmlns="http://www.w3.org/2000/svg"><defs><style>*{stroke-linejoin:round;stroke-linecap:butt}</style></defs><g id="figure_1"><path d="M0 312.15h761.955V0H0v312.15z" style="fill:none" id="patch_1"/><g id="axes_1"><path d="M67.645 284.4h558V7.2h-558v277.2z" style="fill:none" id="patch_2"/><g id="matplotlib.axis_1"><g id="xtick_1"><g id="line2d_1"><defs><path id="m09741975eb" d="M0 0v3.5" style="stroke:#b0b0b0;stroke-width:.4"/></defs><use xlink:href="#m09741975eb" x="111.734" y="284.4" style="fill:#b0b0b0;stroke:#b0b0b0;stroke-width:.4"/></g><g style="fill:#b0b0b0" transform="matrix(.14 0 0 -.14 82.486 302.038)" id="text_1"><defs><path id="DejaVuSans-32" d="M1228 531h2203V0H469v531q359 372 979 998 621 627 780 809 303 340 423 576 121 236 121 464 0 372-261 606-261 235-680 235-297 0-627-103-329-103-704-313v638q381 153 712 231 332 78 607 78 725 0 1156-363 431-362 431-968 0-288-108-546-107-257-392-607-78-91-497-524-418-433-1181-1211z" transform="scale(.01563)"/><path id="DejaVuSans-30" d="M2034 4250q-487 0-733-480-245-479-245-1442 0-959 245-1439 246-480 733-480 491 0 736 480 246 480 246 1439 0 963-246 1442-245 480-736 480zm0 500q785 0 1199-621 414-620 414-1801 0-1178-414-1799Q2819-91 2034-91q-784 0-1198 620-414 621-414 1799 0 1181 414 1801 414 621 1198 621z" transform="scale(.01563)"/><path id="DejaVuSans-2d" d="M313 2009h1684v-512H313v512z" transform="scale(.01563)"/><path id="DejaVuSans-34" d="M2419 4116 825 1625h1594v2491zm-166 550h794V1625h666v-525h-666V0h-628v1100H313v609l1940 2957z" transform="scale(.01563)"/></defs><use xlink:href="#DejaVuSans-32"/><use xlink:href="#DejaVuSans-30" x="63.623"/><use xlink:href="#DejaVuSans-32" x="127.246"/><use xlink:href="#DejaVuSans-30" x="190.869"/><use xlink:href="#DejaVuSans-2d" x="254.492"/><use xlink:href="#DejaVuSans-30" x="290.576"/><use xlink:href="#DejaVuSans-34" x="354.199"/></g></g><g id="xtick_2"><use xlink:href="#m09741975eb" x="174.423" y="284.4" style="fill:#b0b0b0;stroke:#b0b0b0;stroke-width:.4" id="line2d_2"/><g style="fill:#b0b0b0" transform="matrix(.14 0 0 -.14 145.175 302.038)" id="text_2"><defs><path id="DejaVuSans-37" d="M525 4666h3000v-269L1831 0h-659l1594 4134H525v532z" transform="scale(.01563)"/></defs><use xlink:href="#DejaVuSans-32"/><use xlink:href="#DejaVuSans-30" x="63.623"/><use xlink:href="#DejaVuSans-32" x="127.246"/><use xlink:href="#DejaVuSans-30" x="190.869"/><use xlink:href="#DejaVuSans-2d" x="254.492"/><use xlink:href="#DejaVuSans-30" x="290.576"/><use xlink:href="#DejaVuSans-37" x="354.199"/></g></g><g id="xtick_3"><use xlink:href="#m09741975eb" x="237.801" y="284.4" style="fill:#b0b0b0;stroke:#b0b0b0;stroke-width:.4" id="line2d_3"/><g style="fill:#b0b0b0" transform="matrix(.14 0 0 -.14 208.553 302.038)" id="text_3"><defs><path id="DejaVuSans-31" d="M794 531h1031v3560L703 3866v575l1116 225h631V531h1031V0H794v531z" transform="scale(.01563)"/></defs><use xlink:href="#DejaVuSans-32"/><use xlink:href="#DejaVuSans-30" x="63.623"/><use xlink:href="#DejaVuSans-32" x="127.246"/><use xlink:href="#DejaVuSans-30" x="190.869"/><use xlink:href="#DejaVuSans-2d" x="254.492"/><use xlink:href="#DejaVuSans-31" x="290.576"/><use xlink:href="#DejaVuSans-30" x="354.199"/></g></g><g id="xtick_4"><use xlink:href="#m09741975eb" x="301.178" y="284.4" style="fill:#b0b0b0;stroke:#b0b0b0;stroke-width:.4" id="line2d_4"/><g style="fill:#b0b0b0" transform="matrix(.14 0 0 -.14 271.93 302.038)" id="text_4"><use xlink:href="#DejaVuSans-32"/><use xlink:href="#DejaVuSans-30" x="63.623"/><use xlink:href="#DejaVuSans-32" x="127.246"/><use xlink:href="#DejaVuSans-31" x="190.869"/><use xlink:href="#DejaVuSans-2d" x="254.492"/><use xlink:href="#DejaVuSans-30" x="290.576"/><use xlink:href="#DejaVuSans-31" x="354.199"/></g></g><g id="xtick_5"><use xlink:href="#m09741975eb" x="363.178" y="284.4" style="fill:#b0b0b0;stroke:#b0b0b0;stroke-width:.4" id="line2d_5"/><g style="fill:#b0b0b0" transform="matrix(.14 0 0 -.14 333.93 302.038)" id="text_5"><use xlink:href="#DejaVuSans-32"/><use xlink:href="#DejaVuSans-30" x="63.623"/><use xlink:href="#DejaVuSans-32" x="127.246"/><use xlink:href="#DejaVuSans-31" x="190.869"/><use xlink:href="#DejaVuSans-2d" x="254.492"/><use xlink:href="#DejaVuSans-30" x="290.576"/><use xlink:href="#DejaVuSans-34" x="354.199"/></g></g><g id="xtick_6"><use xlink:href="#m09741975eb" x="425.867" y="284.4" style="fill:#b0b0b0;stroke:#b0b0b0;stroke-width:.4" id="line2d_6"/><g style="fill:#b0b0b0" transform="matrix(.14 0 0 -.14 396.62 302.038)" id="text_6"><use xlink:href="#DejaVuSans-32"/><use xlink:href="#DejaVuSans-30" x="63.623"/><use xlink:href="#DejaVuSans-32" x="127.246"/><use xlink:href="#DejaVuSans-31" x="190.869"/><use xlink:href="#DejaVuSans-2d" x="254.492"/><use xlink:href="#DejaVuSans-30" x="290.576"/><use xlink:href="#DejaVuSans-37" x="354.199"/></g></g><g id="xtick_7"><use xlink:href="#m09741975eb" x="489.245" y="284.4" style="fill:#b0b0b0;stroke:#b0b0b0;stroke-width:.4" id="line2d_7"/><g style="fill:#b0b0b0" transform="matrix(.14 0 0 -.14 459.997 302.038)" id="text_7"><use xlink:href="#DejaVuSans-32"/><use xlink:href="#DejaVuSans-30" x="63.623"/><use xlink:href="#DejaVuSans-32" x="127.246"/><use xlink:href="#DejaVuSans-31" x="190.869"/><use xlink:href="#DejaVuSans-2d" x="254.492"/><use xlink:href="#DejaVuSans-31" x="290.576"/><use xlink:href="#DejaVuSans-30" x="354.199"/></g></g><g id="xtick_8"><use xlink:href="#m09741975eb" x="552.623" y="284.4" style="fill:#b0b0b0;stroke:#b0b0b0;stroke-width:.4" id="line2d_8"/><g style="fill:#b0b0b0" transform="matrix(.14 0 0 -.14 523.375 302.038)" id="text_8"><use xlink:href="#DejaVuSans-32"/><use xlink:href="#DejaVuSans-30" x="63.623"/><use xlink:href="#DejaVuSans-32" x="127.246"/><use xlink:href="#DejaVuSans-32" x="190.869"/><use xlink:href="#DejaVuSans-2d" x="254.492"/><use xlink:href="#DejaVuSans-30" x="290.576"/><use xlink:href="#DejaVuSans-31" x="354.199"/></g></g><g id="xtick_9"><use xlink:href="#m09741975eb" x="614.623" y="284.4" style="fill:#b0b0b0;stroke:#b0b0b0;stroke-width:.4" id="line2d_9"/><g style="fill:#b0b0b0" transform="matrix(.14 0 0 -.14 585.375 302.038)" id="text_9"><use xlink:href="#DejaVuSans-32"/><use xlink:href="#DejaVuSans-30" x="63.623"/><use xlink:href="#DejaVuSans-32" x="127.246"/><use xlink:href="#DejaVuSans-32" x="190.869"/><use xlink:href="#DejaVuSans-2d" x="254.492"/><use xlink:href="#DejaVuSans-30" x="290.576"/><use xlink:href="#DejaVuSans-34" x="354.199"/></g></g></g><g id="matplotlib.axis_2"><g id="ytick_1"><path d="M67.645 284.4h558" clip-path="url(#pd2ffb7dc13)" style="fill:none;stroke:#b0b0b0;stroke-width:.3;stroke-linecap:square" id="line2d_10"/><g id="line2d_11"><defs><path id="m8bb34a13ea" d="M0 0h-3.5" style="stroke:#b0b0b0;stroke-width:.3"/></defs><use xlink:href="#m8bb34a13ea" x="67.645" y="284.4" style="fill:#b0b0b0;stroke:#b0b0b0;stroke-width:.3"/></g><use xlink:href="#DejaVuSans-30" style="fill:#b0b0b0" transform="matrix(.14 0 0 -.14 51.737 289.719)" id="text_10"/></g><g id="ytick_2"><path d="M67.645 246.636h558" clip-path="url(#pd2ffb7dc13)" style="fill:none;stroke:#b0b0b0;stroke-width:.3;stroke-linecap:square" id="line2d_12"/><use xlink:href="#m8bb34a13ea" x="67.645" y="246.636" style="fill:#b0b0b0;stroke:#b0b0b0;stroke-width:.3" id="line2d_13"/><g style="fill:#b0b0b0" transform="matrix(.14 0 0 -.14 16.108 251.955)" id="text_11"><defs><path id="DejaVuSans-35" d="M691 4666h2478v-532H1269V2991q137 47 274 70 138 23 276 23 781 0 1237-428 457-428 457-1159 0-753-469-1171Q2575-91 1722-91q-294 0-599 50Q819 9 494 109v635q281-153 581-228t634-75q541 0 856 284 316 284 316 772 0 487-316 771-315 285-856 285-253 0-505-56-251-56-513-175v2344z" transform="scale(.01563)"/></defs><use xlink:href="#DejaVuSans-35"/><use xlink:href="#DejaVuSans-30" x="63.623"/><use xlink:href="#DejaVuSans-30" x="127.246"/><use xlink:href="#DejaVuSans-30" x="190.869"/><use xlink:href="#DejaVuSans-30" x="254.492"/></g></g><g id="ytick_3"><path d="M67.645 208.872h558" clip-path="url(#pd2ffb7dc13)" style="fill:none;stroke:#b0b0b0;stroke-width:.3;stroke-linecap:square" id="line2d_14"/><use xlink:href="#m8bb34a13ea" x="67.645" y="208.872" style="fill:#b0b0b0;stroke:#b0b0b0;stroke-width:.3" id="line2d_15"/><g style="fill:#b0b0b0" transform="matrix(.14 0 0 -.14 7.2 214.191)" id="text_12"><use xlink:href="#DejaVuSans-31"/><use xlink:href="#DejaVuSans-30" x="63.623"/><use xlink:href="#DejaVuSans-30" x="127.246"/><use xlink:href="#DejaVuSans-30" x="190.869"/><use xlink:href="#DejaVuSans-30" x="254.492"/><use xlink:href="#DejaVuSans-30" x="318.115"/></g></g><g id="ytick_4"><path d="M67.645 171.108h558" clip-path="url(#pd2ffb7dc13)" style="fill:none;stroke:#b0b0b0;stroke-width:.3;stroke-linecap:square" id="line2d_16"/><use xlink:href="#m8bb34a13ea" x="67.645" y="171.108" style="fill:#b0b0b0;stroke:#b0b0b0;stroke-width:.3" id="line2d_17"/><g style="fill:#b0b0b0" transform="matrix(.14 0 0 -.14 7.2 176.427)" id="text_13"><use xlink:href="#DejaVuSans-31"/><use xlink:href="#DejaVuSans-35" x="63.623"/><use xlink:href="#DejaVuSans-30" x="127.246"/><use xlink:href="#DejaVuSans-30" x="190.869"/><use xlink:href="#DejaVuSans-30" x="254.492"/><use xlink:href="#DejaVuSans-30" x="318.115"/></g></g><g id="ytick_5"><path d="M67.645 133.344h558" clip-path="url(#pd2ffb7dc13)" style="fill:none;stroke:#b0b0b0;stroke-width:.3;stroke-linecap:square" id="line2d_18"/><use xlink:href="#m8bb34a13ea" x="67.645" y="133.344" style="fill:#b0b0b0;stroke:#b0b0b0;stroke-width:.3" id="line2d_19"/><g style="fill:#b0b0b0" transform="matrix(.14 0 0 -.14 7.2 138.663)" id="text_14"><use xlink:href="#DejaVuSans-32"/><use xlink:href="#DejaVuSans-30" x="63.623"/><use xlink:href="#DejaVuSans-30" x="127.246"/><use xlink:href="#DejaVuSans-30" x="190.869"/><use xlink:href="#DejaVuSans-30" x="254.492"/><use xlink:href="#DejaVuSans-30" x="318.115"/></g></g><g id="ytick_6"><path d="M67.645 95.58h558" clip-path="url(#pd2ffb7dc13)" style="fill:none;stroke:#b0b0b0;stroke-width:.3;stroke-linecap:square" id="line2d_20"/><use xlink:href="#m8bb34a13ea" x="67.645" y="95.581" style="fill:#b0b0b0;stroke:#b0b0b0;stroke-width:.3" id="line2d_21"/><g style="fill:#b0b0b0" transform="matrix(.14 0 0 -.14 7.2 100.9)" id="text_15"><use xlink:href="#DejaVuSans-32"/><use xlink:href="#DejaVuSans-35" x="63.623"/><use xlink:href="#DejaVuSans-30" x="127.246"/><use xlink:href="#DejaVuSans-30" x="190.869"/><use xlink:href="#DejaVuSans-30" x="254.492"/><use xlink:href="#DejaVuSans-30" x="318.115"/></g></g><g id="ytick_7"><path d="M67.645 57.817h558" clip-path="url(#pd2ffb7dc13)" style="fill:none;stroke:#b0b0b0;stroke-width:.3;stroke-linecap:square" id="line2d_22"/><use xlink:href="#m8bb34a13ea" x="67.645" y="57.817" style="fill:#b0b0b0;stroke:#b0b0b0;stroke-width:.3" id="line2d_23"/><g style="fill:#b0b0b0" transform="matrix(.14 0 0 -.14 7.2 63.136)" id="text_16"><defs><path id="DejaVuSans-33" d="M2597 2516q453-97 707-404 255-306 255-756 0-690-475-1069Q2609-91 1734-91q-293 0-604 58T488 141v609q262-153 574-231 313-78 654-78 593 0 904 234t311 681q0 413-289 645-289 233-804 233h-544v519h569q465 0 712 186t247 536q0 359-255 551-254 193-729 193-260 0-557-57-297-56-653-174v562q360 100 674 150t592 50q719 0 1137-327 419-326 419-882 0-388-222-655t-631-370z" transform="scale(.01563)"/></defs><use xlink:href="#DejaVuSans-33"/><use xlink:href="#DejaVuSans-30" x="63.623"/><use xlink:href="#DejaVuSans-30" x="127.246"/><use xlink:href="#DejaVuSans-30" x="190.869"/><use xlink:href="#DejaVuSans-30" x="254.492"/><use xlink:href="#DejaVuSans-30" x="318.115"/></g></g><g id="ytick_8"><path d="M67.645 20.053h558" clip-path="url(#pd2ffb7dc13)" style="fill:none;stroke:#b0b0b0;stroke-width:.3;stroke-linecap:square" id="line2d_24"/><use xlink:href="#m8bb34a13ea" x="67.645" y="20.053" style="fill:#b0b0b0;stroke:#b0b0b0;stroke-width:.3" id="line2d_25"/><g style="fill:#b0b0b0" transform="matrix(.14 0 0 -.14 7.2 25.372)" id="text_17"><use xlink:href="#DejaVuSans-33"/><use xlink:href="#DejaVuSans-35" x="63.623"/><use xlink:href="#DejaVuSans-30" x="127.246"/><use xlink:href="#DejaVuSans-30" x="190.869"/><use xlink:href="#DejaVuSans-30" x="254.492"/><use xlink:href="#DejaVuSans-30" x="318.115"/></g></g></g><path d="m67.645 284.4 27.556-.107 3.444-.224 2.756-.309 2.755-.435 1.378-.375 1.378-.299 2.755-.79.69-.107.688-.581.689-.203.689.196.689-.155.689 2.344 1.377.372.69.673h2.066l.689-1.151.689-5.384.689-.052.688-2.259.69.07.688-.949.69-.035.688-.255.689 5.358.689.075.689 1.595.689.152.688 1.541.69-.1.688.23.69.05 1.377-.184.689.351.689-.316.689.247 1.377.125 1.378.554.689-.603 2.067.08 2.066.077.69.39 9.644.19.689-.332.688.017 1.378-.207 1.378.089.689.367 1.378-.109.689.132 2.066-.127.69-.415.688.43 3.444-.017 4.134-.017 3.444.023.69.081 2.755-.135 1.377.088 2.067-.087 3.445.02h1.377l3.445-.005 4.133-.223 2.067-.06 2.066-.098 2.067-.092 6.2-.505 1.378-.172 1.378-.664.689.445 1.377-.204 1.378-.45.689-.029 2.067-.489.689.378.688-.693 1.378-.503 1.378-.192.689-.163.689-.734.689.443.689-.133.688-.339 4.823-1.293.689.073 1.377-.34.69-.18.688-.05.689-.4.689-.24.689-.453.689.085 1.377-.564.69-.612.688-.31 1.378-.081 1.378.358.689-.122 1.377.706 1.378-.449.69-.144.688-.357 1.378-.967 1.378-2.024 2.755-1.445.689-1.333 1.378-1.086.689-1.494.689-.547.688-.729.69-.48.688-1.192.69-1.858.688-1.416.689 2.506.689-6.336.689-1.52.689-1.094 1.377-1.343.69 1.097.688-4.269 1.378-7.685.689 9.028 1.378-2.445.688-5.562.69.821.688 9.136.69 5.393.688-8.904.689 2.726.689 3.972.689 5.902 1.377 2.454.69-2.48.688.815.69 1.27.688.094 1.378 3.059.689.538.689 3.85.688 1.304.69.84.688 1.132.69.56.688.364 1.378.24.689.273.689.024.688.136 2.067-.075.689-.604 1.378-.166 1.378-.328 1.377-.04.69.25.688-.328.689-.488 2.756-1.075.688-.014.69.295 1.377-.832.689 1.547 1.378.738.689.04.689-1.244 1.377.283.69-.04.688-.392.689-.105.689-1.008.689.144.689-.19.689-.055.688-1.803.69-.373 1.377.145 1.378.182 2.067-.365.688.002.69-.46.688-.305 1.378-.365 1.378-.484.689-.054.689.203 2.755-.124 2.067-.236.689.059.689 2.567.688-2.414.69.373 1.377-.036.689.466.689.107.689-2.272.689 2.687.689-.07.688.328 2.067-.029.689-.155.689-.37.689-.122.689-.58 1.377-.091.69-.7.688-.312 1.378-.305.689.225.689-.008.689-.289.689.509.688.014 1.378.262 1.378-.292.689-.033 1.378-.61.689-.17.688-.687.69-.498.688-.1.69-.739.688-.955.689-.754.689-1.083 1.378-1.057.688-1.007.69 1.654.688-2.9.69-1.142 2.066-2.213.689.724.689-1.73.688.685 1.378-1.06.69 4.582.688-4.695.689-.182.689 2.446.689 6.271.689-5.001.688 5.019.69-.134.688-4.02.69.241.688-3.353.689-4.594.689 6.365 1.378-7.634.688 9.551.69.199.688-.534.69.926 1.377.945.689.348.689.526.689.081.688 1.484.69.365 2.066 2.359.689 1.573.689.237 1.378 1.239 2.066 1.606 1.378.136 1.378.981.689.243.689 1.306.688.55.69-.53.688-.005 1.378.54.689 10.342h4.133l.69-7.246 2.755.602.689-.723.688 1.22.69-.176 2.066 1.368.689-.087.689.413.689-.455.689 1.196 1.377.621.69.238.688.052 2.067.832 7.578.762.688-.128.69.103 4.133-.397 1.377-.484 2.067-.571.689-.05.689-.364.689.284 2.755-2.967.69-.315.688-1.215.689-2.171.689-1.192.689-.914.689-1.59.689-.292.688-.132.69-.961.688-.686.69-.359.688-.529.689.203.689-.482.689-.343.689.305 3.444-.755.689.148 1.378-.879 1.377-.511.69.154.688-.087.69-.667 2.755 1.685.689.185.688.428.69.592.688-.085 1.378 1.298.689 2.426.689-1.394.689.396.689.025.688 2.793.69-1.017.688.597.69-1.594.688 2.406.689.347.689.5.689-1.565.689 2.934.688-.428.69.562 1.377.65 1.378.088.689.598.689.403 2.066.655.69.084.688.613.689-.728.689.764.689.116.689.281 6.889 1.038.688-.376 4.134.08.689.876.689-.48.688-.15 2.756.016.689-.483.689.364.689-.029 1.377-.28 1.378-.101.69-.108 1.377.016 2.067-.311.688.503 2.067-.983 1.378-.483.689-.038.689-1.129.689-.176.688-.35.69.56 1.377-.967.689-.115 2.067-2.534.689-1.876 1.377-1.648.69-.22 1.377-2.47 2.756-5.667.688-.347 2.756-7.001.689-1.551.689-1.14.689-.333 1.377-2.451.69-.911.688-.571 1.378-.448.689-.05 2.067-1.375.688-.322 1.378-.997.69-.327.688-1.022.689-2.006.689-3.316.689-3.882.689-4.971.688 2.241.69-1.656 1.377-24.905.689-12.398.689-14.897.689-12.356.689-3.316.689-3.993.688-9.945.69-13.39.688-6.08 1.378-19.485.689-25.643.689-2.854.689-10.45.689-3.19.688-4.909.69-.16.688-2.259.69 1.939.688-.941.689-10.407.689-8.058.689-12.832 1.377-14.72.69-2.537.688-.736.69-4.109.688.954.689 3.638.689 5.088 1.378 11.772.688 2.269.69 9.56 3.444 59.522.689 4.273.689 18.994.688 33.88.69-6.25 1.377 21.981.689 7.431.689 1.752.689 25.542.689-25.989.689 25.973 1.377 9.765.69 2.972.688 1.309.689-10.31.689 18.274 2.067 8.082.688 1.77.69.51 1.377 3.485.689.778 1.378.035.689-.294.689-.06 2.066-4.106.69-1.512.688-1.818.689-1.479.689-.68.689-2.555.689-4.169 2.066-8.59.69-2.4.688-.206.689-6.884 2.067-13.946.688-4.468.69-3.118.688-.569.69-3.936.688-1.615.689-3.147.689-.587 1.378 1.652.688-.25.69.855.688 1.955.69 1.15.688.005.689-1.043.689-.581.689.71.689 2.049.688.482 1.378 4.864.69 3.258.688 2.267h0" clip-path="url(#pd2ffb7dc13)" style="fill:none;stroke:#1f77b4;stroke-width:1.5;stroke-linecap:square" id="line2d_26"/><path d="m67.645 284.4 28.244-.104 2.756-.169 2.756-.36.688-.082 3.445-1.083 1.378-.722 1.377-.537.69-.387.688-.218 4.822-.564 4.134.786.689.336 2.066.476 1.378.437 4.822.405 1.378.245 7.578.789 1.378.013 8.266.252 2.067.063 18.6.088 3.444-.13 4.823.126 15.155-.02 6.2-.139 13.09-.433 2.066-.1 11.022.102 2.067-.093 2.755-.076 8.956-.332 2.755-.104 4.134-.652 1.377-.362 1.378-.277 2.067-.831 1.378-.563 1.377-.497.69-.265 1.377-.924 1.378-1.345 1.378-.96.689-.796.688-.592.69-.803.688-.468 1.378-.692.689-.426 1.378-.59.689-.304.688-.469 1.378-.335.69.002 1.377-.34.689-.219.689.101.689-.1.688.274 1.378.198 2.067-.146.689.13 2.755.01 2.756.317.689-.005.689.147 1.377-.045.69-.175.688-.341 1.378-.174.689-.383.689-.176 1.378-1.246.688-.262.69-.435.688-.04.69-.747 2.755-1.357.689-.03.688-.55.69.322.688-.568.69.89.688 1.817.689.972 1.378 1.328.689.246.688-.038 2.067.843 2.067.36.689.665.689-.963.688-1.295.69-.715.688-.286.69-.098 1.377.31.689 1.022.689.65.689.33.688.578.69.154 1.377.906.689.486 1.378.42.689.044.689.535 1.377.606 1.378.856 2.067.268 1.378.738 1.377.318.69.278.688.116 4.133 1.729 4.134.012.689-.168 2.066-.046 1.378-.275 2.067-.126 2.066-.12 1.378-.041 2.756-.1 3.444-1.306.69-.132 2.066-1.304 1.378-.68 1.377-.336.69-.256 1.377-.997 1.378-.85 2.066-.59.69-.178.688-.034.69.253.688.537.689.149.689.287.689.796.689.42.688-.386 1.378-1.255 1.378-.935.689-1.297.689-.973 2.066-.151 1.378.324.69-.344.688-.01.689-.185 2.067.038.688-.147.69.286.688.516.69.347.688.48 1.378.565 2.066 1.125.69.63 2.066.984.689.152.689.338.689.489 1.377 1.612.69.448 1.377.37.689.417.689.553.689.277 1.378.28 1.377.543.69.907.688.646 1.378.329.689.309 1.378.09.688-.248.69.18 1.377.793 1.378.245.689.063 1.378.336 4.133.537 1.378.348 2.066.178 11.711.251 7.578-.459 4.822-.312 1.378-.1 1.378-.174 6.889-.612 1.378-.23 2.755-.893 1.378-.256 2.756-1.32 1.377-.417.69-.198 2.755-1.34 1.378-.244h.688l2.067-.57.689-.058.689-.22 2.067-.13.688-.184.69.138.688-.04.69.335.688-.083 1.378.163 2.066.73.69.001 4.133 1.15.689-.048 1.377.13 2.756-.483.689.174 4.133-.065.689-.156 2.067-.06 1.377-.197 1.378-.341 1.378-.296.689-.552.689-.399.689-.869 2.066-1.269.69-.4.688-.668.689-1.29 2.067-1.58.689-.334.688-.036.69.303.688-.638 1.378-2.688 1.378-1.35.689-1.188 1.377-3.833 2.067-3.513.689-.873.689-1.102 1.378-3.057.689-.467.688-2.033.69-.996.688-.759 2.067-4.092.689-2.53.689-.345.689-.18.688.138 1.378-.08 2.067.802 1.378.418.689 1.046.688-.26.69.28 1.377 2.576.689 1.016 1.378 1.222.689 1.974.689 1.504 1.377 2.288.69.356.688.61.689.798.689.609.689 1.267.689 1.677 1.377 4.3 1.378.487.69.606.688.233.689-.627.689-.45.689-.261.689-.497.688-1.023 2.067-5.992.689-3.183.689-2.593.689-.727.689-1.633.689-2.321.688-1.843.69-3.872.688-2.388.69-1.721.688-.96 1.378-6.539 2.066-16.993 1.378-6.71 1.378-11.245.689-7.51 1.378-11.188.689-3.618.688-1.61.69-3.848.688-4.801.69-3.559.688-6.332.689-3.091.689-1.533.689-1.829.689-.75.688-2.779.69-1.267 2.066 2.666.689 2.028.689 1.118 1.378 2.86 1.377 4.403.69.77.688.28.689 3.594.689 1.179.689 2.082.689 1.004.689 1.432 1.377 2.335.69.41.688 2.442.689.61.689-.74.689-1.766.689-.969.689-1.734 1.377-6.92.69-5.62.688-3.802.689-4.842.689-3.207.689-1.505 2.755-17.913.69-2.498.688 1.599.689.007 2.067-7.314.689.145.688.886.69 2.22.688 2.677.69-1.648.688 1.646.689-22.561.689 31.997.689 5.996.689-.427 1.377 13.428.69-15.994.688 38.004.689-16.264.689 15.212.689 9.106.689-21.627.689 4.504.688 27.12.69 1.985.688 12.203.69 1.693.688 1.112h0" clip-path="url(#pd2ffb7dc13)" style="fill:none;stroke:#ff7f0e;stroke-width:1.5;stroke-linecap:square" id="line2d_27"/><path d="m67.645 284.4 21.356-.094 3.444-.19 2.756-.329 4.133-1.035 3.444-1.149 1.378-.701 2.067-.566 1.378-.204 2.066.108 2.756.421 2.066.366 1.378.158 2.067.22 2.755.092 1.378.172 1.378.179 2.067.236.689-.076 2.066.296 11.022 1.246 1.378.025 6.89.332 16.532.284 2.756.034 4.133-.035 11.711.058 15.156-.056 11.711-.251 8.267-.51 3.444-.064 2.756-.062 4.133.033 6.2-.183 3.445-.167 2.755-.338 1.378-.309 1.378-.516 3.444-1.618 2.067-1.53.689-.674 1.377-1.046 2.756-3.56.689-1.032.689-.827 3.444-6.011.69-.932 2.066-1.84 2.066-2.422 1.378-.618.69-.74 1.377-.634.689-.335.689.276 1.377-.372.69.313.688-.142.69.194 2.066 1.272.689.478 1.377 1.876.69.774 2.066 2.702.689.707.689.418 2.755 2.203 1.378.481.689.487.689.858 1.378 1.252 2.755.405.69-.52.688-.133 2.067 1.053 1.377.29.69.394.688.021.69-.392 1.377 1.302 1.378.474.689-.248.688-.587.69-.342.688-.153.69-.573.688-.24 1.378-.893 1.378 1.05.688-.879.69-.472.688-.187.69.122.688.491 1.378.276.689.396.689.656 1.377.804 1.378.582 1.378.592 1.378.128.689-.01.688-.175 1.378-.025 2.756.276.689.217.689.076 3.444-.299.689.025.689-.16 4.133.277.689.15 2.067-.579 1.377-.561.69-.468 1.377-1.201 3.445-2.123 1.377-.7.69-.51.688-.355.689-.084.689-.287.689-.155 2.066-.861 2.067-.28.689-.083 1.378.197 1.378.365.688-.998 2.756.677 1.378.057.689 1.251.689.29.688-.285 1.378.394 1.378.45.689.24.689.895.689 1.1.689.537 2.066.968.69.097.688-.612.689-.267.689.026 2.066.89 1.378.246.69.25 6.888 1.037.689.433.689.27.689.138 2.755 1.187 1.378.186 1.378.529 2.066 1.103 2.067.719 3.445 1.158 2.066.405 2.756.592 2.066.264 1.378.363 2.756.293 4.133.346 8.267.744 5.51-.006 2.756-.116 4.823-.528 3.444-.882 4.133-1.253 2.067-.379 2.067-.369 1.378-.042 2.066-.21 2.067-.196 1.378-.12 8.266-.134 1.378-.128 4.133.053 2.756.356 3.444.446 2.067.295 2.756.297 2.066.272 2.067.203 2.756.39 3.444.23 4.133.232 6.2.269 2.756-.148 7.578-1.293.689-.03.688.131 1.378-.176 2.756-.684 2.066-.962 2.067-.57.689-.07 2.756-.844 1.377-.555 1.378-.37 1.378-.582.689-.338.689-.143.689-.348.688-.169 2.756-1.265.689-.405 2.067-.711.688-.31.69.463 1.377-.85 2.756-1.897.689-1.466 1.377-1.635.69-.549.688-.378.689-1.091.689-1.418.689-1.994.689-2.37.689-2.885.688-.062.69-1.575.688-5.127.69-6.656 1.377-18.999.689-9.33L554 206.93l2.066-29.783.69 3.88.688-6.073.689-10.197 1.378-10.687.689-.768.688 3.76.69-9.988.688.496.69-.196.688 3.67.689-.82.689-.514.689-1.542 2.066 4.947.69.617.688 1.818.689 3.24 2.067 13.377.689 4.141.688 2.162.69 8.413.688 5.57 2.067 14.108.689 2.716.689 1.73.689 3.33 2.066 11.636 1.378 6.212.689 1.383.689 3.389 1.378 4.31 1.377 2.732.69 1.094.688.463 4.133 7.06.69.669 1.377 2.613 1.378.93.689-.216 1.378-.906 1.377-2.75.69-1.356 1.377-3.125.689-1.525.689-.76 2.755-10.986.69-2.27.688-1.245.689-.405.689-1.132.689-.454.689-.03 1.377.36 1.378.305.69-.366 1.377 1.644.689-.07.689.346.689.605.688.025.69 1.228.688.164.69.458.688 1.014.689.754.689.118.689.283.689.524.688.788 1.378 1.063.69-.012.688.18h0" clip-path="url(#pd2ffb7dc13)" style="fill:none;stroke:#2ca02c;stroke-width:1.5;stroke-linecap:square" id="line2d_28"/><path d="m67.645 284.4 28.933-.075 6.2-.436 2.067-.28 6.2-1.76 2.067-.626 2.755-.428 1.378-.019 4.133.378 2.756-.27 2.067-.16 6.888.3 1.378.197 2.067.415 1.378.298 1.377.048 1.378.09 1.378.181 1.378.063 1.378.145 11.71.99 5.512.182 4.133.032 8.267.361 1.378.09 3.444-.065 1.378-.07 6.889-.148 1.377.083 19.978-.323 2.067.02 8.955-.465 5.512-1.06 1.377-.033 1.378-.195 2.756-.434 1.377-.432 1.378-.624 1.378-.37.689.036.689-.24 1.378-.132.688-.012.69-.737.688-1.863 1.378-1.72.689-.761.689-1.146.689-.745.689-.248.688 1.088.69-.15.688-.29.69-.603 2.066-.456 2.066-1.41.69-.748.688-.244.69-.528.688-.74 1.378-.528.689-.165.689.214.688-.197.69-.416.688.12.69-.373 1.377.517 2.067-.052.688-.332.69.289.688-.26.69-.041.688.237.689-1.009.689-.432.689-.205.689-.474 1.377.038.69.363.688 1.142 2.067 2.194.689.638.689.944.688.15 2.756 2.304.689.334.689-.233 1.378.504.688-.172.69.032.688-.555.69-.258.688.115.689-.045 2.067-1.883.688-.128 1.378-1.272.69-.932.688-1.556 1.378-1.357.689-1.896.689-1.41.688-1.987.69-1.521 1.377-.852.689-.823.689.396.689-.863.689-1.756.689-1.174.688-1.815 1.378-4.71.69-2.447.688-1.886.689-.842.689-1.329.689.347.689-1.588.688-.237.69.01.688 1.362 1.378 3.273.689.43.689 1.329 1.378 3.775.688.937.69 1.318.688.936.69 1.167.688 1.679 1.378 1.766 1.378 3.089.688 1.47.69.99 1.377 2.314.689.962 1.378.737.689.66.689.87.688 1.078 3.445 2.746.689.776 1.378.97 1.377 1 .69.195.688.035.689.156 1.378.647.689.125.689-.094 2.066.755 2.067 1.11.689.56.689.23 2.066 1.02 1.378.23 2.067.171 3.444-.01 4.134.256 3.444-.16 1.378.34 1.378.212 1.377.348.69.303.688.053 3.445.854.688.886 1.378.15 1.378-.104 1.378.068.689-.82 2.755.096 6.2.198 5.511.163 6.89-.121.688.524 2.067-.043 2.066-.109.69-.516 5.51-.806 2.067-.682 2.067-.786 1.378-.552 4.133-1.184.689-.385 2.755-1.02.69-.42 1.377-1.408.689-.544.689-.852.689-.602.689-1.316 1.377-1.991 1.378-2.422.689-.708.689-1.005.689-.483.689-.884.689-.7.688-.482 1.378-1.762 2.067-2.467.689-1.086 1.378-3.535.688-2.415.69-1.806.688-.595.69-1.103.688-.212.689.923.689 1.713 1.378 4.508.688 1.653.69 2.509.688 1.99.69.983 1.377 1.376.689.524 1.378.433.688-.368.69.093 2.066-.848 1.378-.476.689-.028.689-.306 1.377-.193.69.081 2.066-1.187L461 260.57l.688-.6 2.067-1.004 1.378-.26 1.378-.13.689.59.688-.14 1.378.019 2.067-1.366.689-1.57.689-.591.689-.327.688.046.69.576 1.377 1.698 2.756 4.418.689.481 1.377-.13 1.378-1.077.689-.421.689-.998.689-.34.689-.054.689-.408.688-.18.69-.391.688-.155 1.378.11.689.051 1.378.699.689.173 1.377-.832.69-.045.688-1.077.689-.427 1.378-1.062.689-.297.689-.524.688-1.002.69-.369 1.377-2.198.689-.62 1.378-1.522.689-.497.689-.238.688.643.69 1.36.688-.018.69.508.688 1.321.689.62.689.44.689.116.689-.385.688 1.082 1.378.55 2.067 2.984.689.829.689.08.689.215 3.444-3.644.689-.447.689.15 1.378-1.108 1.377-.616 2.067-1.682.689.1.689-.553.689.03 2.066.887.69-.528.688-.682 1.378-.331.689-.741.689-.954.689-.535.688-.329.69.325.688-.798.69-1.163.688-.51.689-.31.689-1.53.689-2.918 2.066-11.725 2.067-10.991.689-2.986.689-3.802 1.378-6.675.688-4.001.69-1.706.688-5.263 1.378-15.582.689-7.457.689-4.46.689-1.76 1.377-17.917.69-1.304.688.889.69 1.157.688 2.335.689-.71.689 4.798.689 11.488.689 6.813 2.066 23.306.69 7.713.688 5.838 1.378 5.026.689-.179 1.377.846 1.378-1.08.69-.085.688.625.689 1.183.689.772.689.515.689 1.332.688-81.211.69-1.922.688 1.602.69.16.688.725.689 1.318.689.992.689 84.615.689 5.003.688 2.116.69-7.42.688 2.564 1.378 2.93 1.378 4.598.689 1.478.689 12.032.688 1.208.69.727.688 1.1.69.323.688.508 2.067 4.675.689 4.232.688 3.346.69-4.725.688-6.262.69-.505.688-.748.689-1.391h1.378l.689-4.789.688 3.94.69-2.519.688-4.192.69-3.038h1.377l.689-4.83.689-6.208.689-2.728.688-.697.69-2.162h1.377l.689-5.907.689 2.7 1.378-2.107.689 1.604h1.377l.69 1.189 1.377 3.057.689 2.864.689.911H616l.688 7.768.69 3.282.688 4.037 1.378 5.845h1.378l.689 5.617 1.377 2.862.69 1.65.688 4.53h1.378" clip-path="url(#pd2ffb7dc13)" style="fill:none;stroke:#d62728;stroke-width:1.5;stroke-linecap:square" id="line2d_29"/><path d="m67.645 284.4 33.067-.096 6.2-.33 1.377-.143 2.067.014 15.156.485 15.844.037 21.356.01 12.4-.027 14.466-.04 13.09.008 13.777-.128 6.889-.1 8.955-.22 10.334-.157 2.755-.112 3.445-.14 2.066-.153 1.378-.162 4.822-1.131.69-.33 2.755-.748 1.378-.698.689-.09.688-.312 1.378-.263.69-.21.688-.065.689-.2.689-.337 1.378.157 1.377.115.69.046 1.377.56 1.378.095 5.51 1.199 4.823.959 2.067.321 1.378.122 4.133.086 3.444.466 1.378-.014 1.378.12 13.089-.104 2.755.151.69.027.688.195 1.378-.05 17.222.074 9.645-.5 2.755-.073 4.822-.31 2.067-.087 8.267-.396 1.377.002 1.378.056 2.067.109 1.378.178 3.444.194 1.378-.023 12.4.546 13.778.937 13.777.262 20.667.124 24.111-.516 9.645-.407 4.133-.126 8.956-.426 6.888.3 2.756-.113.689.079 1.378-.103.689.07 2.755-.084 1.378.092 6.2-.555 2.755-.58 3.445-.555 2.067-.656 1.377-.46 1.378-.85 2.067-1.119.689-.25.689-.527 2.066-.971 3.445-1.678.689-.433 2.066-.707.69.092.688-.102.689.167 2.067 1.16.688.57.69.143 4.133 3.105 1.377.934.69.48 2.066.931 1.378.197 2.755.635.69.026.688.256.689.036 1.378.308 2.755.148.69.012 2.755-.521 1.378-.36.688-.332 1.378-1.31.69-.557.688-.41 4.133-4.617.69-1.008 2.066-1.641.689-1.152.689 1.513.689-.927.688-3.229.69-.759 1.377-1.958.689-.684.689-4.447.689-1.426.689 1.286.689-.504 1.377-.297.69-.582.688.53 1.378.517.689-.237.689.012.689-.128.688.119 3.445 1.482.689.206.689.006.689.468.688.166.69 3.359.688-2.418 1.378.743.689.415.689.25.689-.017.689-2.802.688 2.706.69.133.688-.363.69-.548.688-.321.689-.119 2.755-2.438.69-.896 1.377-3.751.689-1.422 1.378-1.906.689-.667.689-1.164 1.377-.475.69.266.688.093 1.378.554.689.595.689 1.126.689 1.425.688.916.69 4.013.688-1.856.69 1.242 1.377 3.673 1.378 3.13.689-1.5.688 3.967.69 1.067.688 1.474 1.378 2.017.689.705 1.378.814.689.463.688.929.69.647 1.377.842.689.348h0" clip-path="url(#pd2ffb7dc13)" style="fill:none;stroke:#9467bd;stroke-width:1.5;stroke-linecap:square" id="line2d_30"/><g style="fill:#1f77b4" transform="matrix(.14 0 0 -.14 642.385 195.855)" id="text_18"><defs><path id="DejaVuSans-46" d="M628 4666h2681v-532H1259V2759h1850v-531H1259V0H628v4666z" transform="scale(.01563)"/><path id="DejaVuSans-72" d="M2631 2963q-97 56-211 82-114 27-251 27-488 0-749-317t-261-911V0H581v3500h578v-544q182 319 472 473 291 155 707 155 59 0 131-8 72-7 159-23l3-590z" transform="scale(.01563)"/><path id="DejaVuSans-61" d="M2194 1759q-697 0-966-159t-269-544q0-306 202-486 202-179 548-179 479 0 768 339t289 901v128h-572zm1147 238V0h-575v531q-197-318-491-470T1556-91q-537 0-855 302-317 302-317 808 0 590 395 890 396 300 1180 300h807v57q0 397-261 614t-733 217q-300 0-585-72-284-72-546-216v532q315 122 612 182 297 61 578 61 760 0 1135-394 375-393 375-1193z" transform="scale(.01563)"/><path id="DejaVuSans-6e" d="M3513 2113V0h-575v2094q0 497-194 743-194 247-581 247-466 0-735-297-269-296-269-809V0H581v3500h578v-544q207 316 486 472 280 156 646 156 603 0 912-373 310-373 310-1098z" transform="scale(.01563)"/><path id="DejaVuSans-63" d="M3122 3366v-538q-244 135-489 202t-495 67q-560 0-870-355-309-354-309-995t309-996q310-354 870-354 250 0 495 67t489 202V134Q2881 22 2623-34q-257-57-548-57-791 0-1257 497-465 497-465 1341 0 856 470 1346 471 491 1290 491 265 0 518-55 253-54 491-163z" transform="scale(.01563)"/><path id="DejaVuSans-65" d="M3597 1894v-281H953q38-594 358-905t892-311q331 0 642 81t618 244V178Q3153 47 2828-22t-659-69q-838 0-1327 487-489 488-489 1320 0 859 464 1363 464 505 1252 505 706 0 1117-455 411-454 411-1235zm-575 169q-6 471-264 752-258 282-683 282-481 0-770-272t-333-766l2050 4z" transform="scale(.01563)"/></defs><use xlink:href="#DejaVuSans-46"/><use xlink:href="#DejaVuSans-72" x="50.27"/><use xlink:href="#DejaVuSans-61" x="91.383"/><use xlink:href="#DejaVuSans-6e" x="152.662"/><use xlink:href="#DejaVuSans-63" x="216.041"/><use xlink:href="#DejaVuSans-65" x="271.021"/></g><g style="fill:#ff7f0e" transform="matrix(.14 0 0 -.14 642.385 209.855)" id="text_19"><defs><path id="DejaVuSans-47" d="M3809 666v1253H2778v519h1656V434q-365-259-806-392-440-133-940-133-1094 0-1712 639-617 640-617 1780 0 1144 617 1783 618 639 1712 639 456 0 867-113 411-112 758-331v-672q-350 297-744 447t-828 150q-857 0-1287-478-429-478-429-1425 0-944 429-1422 430-478 1287-478 334 0 596 58 263 58 472 180z" transform="scale(.01563)"/><path id="DejaVuSans-6d" d="M3328 2828q216 388 516 572t706 184q547 0 844-383 297-382 297-1088V0h-578v2094q0 503-179 746-178 244-543 244-447 0-707-297-259-296-259-809V0h-578v2094q0 506-178 748t-550 242q-441 0-701-298-259-298-259-808V0H581v3500h578v-544q197 322 472 475t653 153q382 0 649-194 267-193 395-562z" transform="scale(.01563)"/><path id="DejaVuSans-79" d="M2059-325q-243-625-475-815-231-191-618-191H506v481h338q237 0 368 113 132 112 291 531l103 262L191 3500h609L1894 763l1094 2737h609L2059-325z" transform="scale(.01563)"/></defs><use xlink:href="#DejaVuSans-47"/><use xlink:href="#DejaVuSans-65" x="77.49"/><use xlink:href="#DejaVuSans-72" x="139.014"/><use xlink:href="#DejaVuSans-6d" x="178.377"/><use xlink:href="#DejaVuSans-61" x="275.789"/><use xlink:href="#DejaVuSans-6e" x="337.068"/><use xlink:href="#DejaVuSans-79" x="400.447"/></g><g style="fill:#2ca02c" transform="matrix(.14 0 0 -.14 642.385 242.942)" id="text_20"><defs><path id="DejaVuSans-49" d="M628 4666h631V0H628v4666z" transform="scale(.01563)"/><path id="DejaVuSans-74" d="M1172 4494v-994h1184v-447H1172V1153q0-428 117-550t477-122h590V0h-590q-666 0-919 248-253 249-253 905v1900H172v447h422v994h578z" transform="scale(.01563)"/><path id="DejaVuSans-6c" d="M603 4863h575V0H603v4863z" transform="scale(.01563)"/></defs><use xlink:href="#DejaVuSans-49"/><use xlink:href="#DejaVuSans-74" x="29.492"/><use xlink:href="#DejaVuSans-61" x="68.701"/><use xlink:href="#DejaVuSans-6c" x="129.98"/><use xlink:href="#DejaVuSans-79" x="157.764"/></g><g style="fill:#d62728" transform="matrix(.14 0 0 -.14 642.385 266.6)" id="text_21"><defs><path id="DejaVuSans-55" d="M556 4666h635V1831q0-750 271-1080 272-329 882-329 606 0 878 329 272 330 272 1080v2835h634V1753q0-912-452-1378Q3225-91 2344-91q-885 0-1337 466-451 466-451 1378v2913z" transform="scale(.01563)"/><path id="DejaVuSans-69" d="M603 3500h575V0H603v3500zm0 1363h575v-729H603v729z" transform="scale(.01563)"/><path id="DejaVuSans-64" d="M2906 2969v1894h575V0h-575v525q-181-312-458-464-276-152-664-152-634 0-1033 506-398 507-398 1332t398 1331q399 506 1033 506 388 0 664-152 277-151 458-463zM947 1747q0-634 261-995t717-361q456 0 718 361 263 361 263 995t-263 995q-262 361-718 361t-717-361q-261-361-261-995z" transform="scale(.01563)"/><path id="DejaVuSans-4b" d="M628 4666h631V2694l2094 1972h813L1850 2491 4331 0h-831L1259 2247V0H628v4666z" transform="scale(.01563)"/><path id="DejaVuSans-67" d="M2906 1791q0 625-258 968-257 344-723 344-462 0-720-344-258-343-258-968 0-622 258-966t720-344q466 0 723 344 258 344 258 966zm575-1357q0-893-397-1329-396-436-1215-436-303 0-572 45t-522 139v559q253-137 500-202 247-66 503-66 566 0 847 295t281 892v285q-178-310-456-463T1784 0Q1141 0 747 490 353 981 353 1791q0 812 394 1302 394 491 1037 491 388 0 666-153t456-462v531h575V434z" transform="scale(.01563)"/><path id="DejaVuSans-6f" d="M1959 3097q-462 0-731-361t-269-989q0-628 267-989 268-361 733-361 460 0 728 362 269 363 269 988 0 622-269 986-268 364-728 364zm0 487q750 0 1178-488 429-487 429-1349 0-859-429-1349Q2709-91 1959-91q-753 0-1180 489-426 490-426 1349 0 862 426 1349 427 488 1180 488z" transform="scale(.01563)"/></defs><use xlink:href="#DejaVuSans-55"/><use xlink:href="#DejaVuSans-6e" x="73.193"/><use xlink:href="#DejaVuSans-69" x="136.572"/><use xlink:href="#DejaVuSans-74" x="164.355"/><use xlink:href="#DejaVuSans-65" x="203.564"/><use xlink:href="#DejaVuSans-64" x="265.088"/><use xlink:href="#DejaVuSans-20" x="328.564"/><use xlink:href="#DejaVuSans-4b" x="360.352"/><use xlink:href="#DejaVuSans-69" x="425.928"/><use xlink:href="#DejaVuSans-6e" x="453.711"/><use xlink:href="#DejaVuSans-67" x="517.09"/><use xlink:href="#DejaVuSans-64" x="580.566"/><use xlink:href="#DejaVuSans-6f" x="644.043"/><use xlink:href="#DejaVuSans-6d" x="705.225"/></g><g style="fill:#9467bd" transform="matrix(.14 0 0 -.14 642.385 281.16)" id="text_22"><defs><path id="DejaVuSans-41" d="m2188 4044-857-2322h1716l-859 2322zm-357 622h716L4325 0h-656l-425 1197H1141L716 0H50l1781 4666z" transform="scale(.01563)"/><path id="DejaVuSans-75" d="M544 1381v2119h575V1403q0-497 193-746 194-248 582-248 465 0 735 297 271 297 271 810v1984h575V0h-575v538q-209-319-486-474-276-155-642-155-603 0-916 375-312 375-312 1097zm1447 2203z" transform="scale(.01563)"/><path id="DejaVuSans-73" d="M2834 3397v-544q-243 125-506 187-262 63-544 63-428 0-642-131t-214-394q0-200 153-314t616-217l197-44q612-131 870-370t258-667q0-488-386-773Q2250-91 1575-91q-281 0-586 55T347 128v594q319-166 628-249 309-82 613-82 406 0 624 139 219 139 219 392 0 234-158 359-157 125-692 241l-200 47q-534 112-772 345-237 233-237 639 0 494 350 762 350 269 994 269 318 0 599-47 282-46 519-140z" transform="scale(.01563)"/></defs><use xlink:href="#DejaVuSans-41"/><use xlink:href="#DejaVuSans-75" x="68.408"/><use xlink:href="#DejaVuSans-73" x="131.787"/><use xlink:href="#DejaVuSans-74" x="183.887"/><use xlink:href="#DejaVuSans-72" x="223.096"/><use xlink:href="#DejaVuSans-69" x="264.209"/><use xlink:href="#DejaVuSans-61" x="291.992"/></g></g></g><defs><clipPath id="pd2ffb7dc13"><path d="M67.645 7.2h558v277.2h-558z"/></clipPath></defs></svg>