<svg xmlns="http://www.w3.org/2000/svg" xmlns:xlink="http://www.w3.org/1999/xlink" width="928.157" height="421.64" viewBox="0 0 696.117 316.23"><defs><style>*{stroke-linejoin:round;stroke-linecap:butt}</style></defs><g id="figure_1"><path id="patch_1" d="M0 316.23h696.117V0H0v316.23z" style="fill:none"/><g id="axes_1"><path id="patch_2" d="M49.83 284.4h558V7.2h-558v277.2z" style="fill:none"/><g id="matplotlib.axis_1"><g id="xtick_1"><g id="line2d_1"><defs><path id="m8b3f0e51e4" d="M0 0v3.5" style="stroke:#b0b0b0;stroke-width:.4"/></defs><use xlink:href="#m8b3f0e51e4" x="85.223" y="284.4" style="fill:#b0b0b0;stroke:#b0b0b0;stroke-width:.4"/></g><g id="text_1" style="fill:#b0b0b0" transform="matrix(.14 0 0 -.14 55.975 302.038)"><defs><path id="DejaVuSans-32" d="M1228 531h2203V0H469v531q359 372 979 998 621 627 780 809 303 340 423 576 121 236 121 464 0 372-261 606-261 235-680 235-297 0-627-103-329-103-704-313v638q381 153 712 231 332 78 607 78 725 0 1156-363 431-362 431-968 0-288-108-546-107-257-392-607-78-91-497-524-418-433-1181-1211z" transform="scale(.01563)"/><path id="DejaVuSans-30" d="M2034 4250q-487 0-733-480-245-479-245-1442 0-959 245-1439 246-480 733-480 491 0 736 480 246 480 246 1439 0 963-246 1442-245 480-736 480zm0 500q785 0 1199-621 414-620 414-1801 0-1178-414-1799Q2819-91 2034-91q-784 0-1198 620-414 621-414 1799 0 1181 414 1801 414 621 1198 621z" transform="scale(.01563)"/><path id="DejaVuSans-2d" d="M313 2009h1684v-512H313v512z" transform="scale(.01563)"/><path id="DejaVuSans-34" d="M2419 4116 825 1625h1594v2491zm-166 550h794V1625h666v-525h-666V0h-628v1100H313v609l1940 2957z" transform="scale(.01563)"/></defs><use xlink:href="#DejaVuSans-32"/><use xlink:href="#DejaVuSans-30" x="63.623"/><use xlink:href="#DejaVuSans-32" x="127.246"/><use xlink:href="#DejaVuSans-30" x="190.869"/><use xlink:href="#DejaVuSans-2d" x="254.492"/><use xlink:href="#DejaVuSans-30" x="290.576"/><use xlink:href="#DejaVuSans-34" x="354.199"/></g></g><g id="xtick_2"><use xlink:href="#m8b3f0e51e4" id="line2d_2" x="135.549" y="284.4" style="fill:#b0b0b0;stroke:#b0b0b0;stroke-width:.4"/><g id="text_2" style="fill:#b0b0b0" transform="matrix(.14 0 0 -.14 106.3 302.038)"><defs><path id="DejaVuSans-37" d="M525 4666h3000v-269L1831 0h-659l1594 4134H525v532z" transform="scale(.01563)"/></defs><use xlink:href="#DejaVuSans-32"/><use xlink:href="#DejaVuSans-30" x="63.623"/><use xlink:href="#DejaVuSans-32" x="127.246"/><use xlink:href="#DejaVuSans-30" x="190.869"/><use xlink:href="#DejaVuSans-2d" x="254.492"/><use xlink:href="#DejaVuSans-30" x="290.576"/><use xlink:href="#DejaVuSans-37" x="354.199"/></g></g><g id="xtick_3"><use xlink:href="#m8b3f0e51e4" id="line2d_3" x="186.427" y="284.4" style="fill:#b0b0b0;stroke:#b0b0b0;stroke-width:.4"/><g id="text_3" style="fill:#b0b0b0" transform="matrix(.14 0 0 -.14 157.179 302.038)"><defs><path id="DejaVuSans-31" d="M794 531h1031v3560L703 3866v575l1116 225h631V531h1031V0H794v531z" transform="scale(.01563)"/></defs><use xlink:href="#DejaVuSans-32"/><use xlink:href="#DejaVuSans-30" x="63.623"/><use xlink:href="#DejaVuSans-32" x="127.246"/><use xlink:href="#DejaVuSans-30" x="190.869"/><use xlink:href="#DejaVuSans-2d" x="254.492"/><use xlink:href="#DejaVuSans-31" x="290.576"/><use xlink:href="#DejaVuSans-30" x="354.199"/></g></g><g id="xtick_4"><use xlink:href="#m8b3f0e51e4" id="line2d_4" x="237.305" y="284.4" style="fill:#b0b0b0;stroke:#b0b0b0;stroke-width:.4"/><g id="text_4" style="fill:#b0b0b0" transform="matrix(.14 0 0 -.14 208.057 302.038)"><use xlink:href="#DejaVuSans-32"/><use xlink:href="#DejaVuSans-30" x="63.623"/><use xlink:href="#DejaVuSans-32" x="127.246"/><use xlink:href="#DejaVuSans-31" x="190.869"/><use xlink:href="#DejaVuSans-2d" x="254.492"/><use xlink:href="#DejaVuSans-30" x="290.576"/><use xlink:href="#DejaVuSans-31" x="354.199"/></g></g><g id="xtick_5"><use xlink:href="#m8b3f0e51e4" id="line2d_5" x="287.077" y="284.4" style="fill:#b0b0b0;stroke:#b0b0b0;stroke-width:.4"/><g id="text_5" style="fill:#b0b0b0" transform="matrix(.14 0 0 -.14 257.829 302.038)"><use xlink:href="#DejaVuSans-32"/><use xlink:href="#DejaVuSans-30" x="63.623"/><use xlink:href="#DejaVuSans-32" x="127.246"/><use xlink:href="#DejaVuSans-31" x="190.869"/><use xlink:href="#DejaVuSans-2d" x="254.492"/><use xlink:href="#DejaVuSans-30" x="290.576"/><use xlink:href="#DejaVuSans-34" x="354.199"/></g></g><g id="xtick_6"><use xlink:href="#m8b3f0e51e4" id="line2d_6" x="337.402" y="284.4" style="fill:#b0b0b0;stroke:#b0b0b0;stroke-width:.4"/><g id="text_6" style="fill:#b0b0b0" transform="matrix(.14 0 0 -.14 308.154 302.038)"><use xlink:href="#DejaVuSans-32"/><use xlink:href="#DejaVuSans-30" x="63.623"/><use xlink:href="#DejaVuSans-32" x="127.246"/><use xlink:href="#DejaVuSans-31" x="190.869"/><use xlink:href="#DejaVuSans-2d" x="254.492"/><use xlink:href="#DejaVuSans-30" x="290.576"/><use xlink:href="#DejaVuSans-37" x="354.199"/></g></g><g id="xtick_7"><use xlink:href="#m8b3f0e51e4" id="line2d_7" x="388.28" y="284.4" style="fill:#b0b0b0;stroke:#b0b0b0;stroke-width:.4"/><g id="text_7" style="fill:#b0b0b0" transform="matrix(.14 0 0 -.14 359.032 302.038)"><use xlink:href="#DejaVuSans-32"/><use xlink:href="#DejaVuSans-30" x="63.623"/><use xlink:href="#DejaVuSans-32" x="127.246"/><use xlink:href="#DejaVuSans-31" x="190.869"/><use xlink:href="#DejaVuSans-2d" x="254.492"/><use xlink:href="#DejaVuSans-31" x="290.576"/><use xlink:href="#DejaVuSans-30" x="354.199"/></g></g><g id="xtick_8"><use xlink:href="#m8b3f0e51e4" id="line2d_8" x="439.158" y="284.4" style="fill:#b0b0b0;stroke:#b0b0b0;stroke-width:.4"/><g id="text_8" style="fill:#b0b0b0" transform="matrix(.14 0 0 -.14 409.91 302.038)"><use xlink:href="#DejaVuSans-32"/><use xlink:href="#DejaVuSans-30" x="63.623"/><use xlink:href="#DejaVuSans-32" x="127.246"/><use xlink:href="#DejaVuSans-32" x="190.869"/><use xlink:href="#DejaVuSans-2d" x="254.492"/><use xlink:href="#DejaVuSans-30" x="290.576"/><use xlink:href="#DejaVuSans-31" x="354.199"/></g></g><g id="xtick_9"><use xlink:href="#m8b3f0e51e4" id="line2d_9" x="488.93" y="284.4" style="fill:#b0b0b0;stroke:#b0b0b0;stroke-width:.4"/><g id="text_9" style="fill:#b0b0b0" transform="matrix(.14 0 0 -.14 459.682 302.038)"><use xlink:href="#DejaVuSans-32"/><use xlink:href="#DejaVuSans-30" x="63.623"/><use xlink:href="#DejaVuSans-32" x="127.246"/><use xlink:href="#DejaVuSans-32" x="190.869"/><use xlink:href="#DejaVuSans-2d" x="254.492"/><use xlink:href="#DejaVuSans-30" x="290.576"/><use xlink:href="#DejaVuSans-34" x="354.199"/></g></g><g id="xtick_10"><use xlink:href="#m8b3f0e51e4" id="line2d_10" x="539.255" y="284.4" style="fill:#b0b0b0;stroke:#b0b0b0;stroke-width:.4"/><g id="text_10" style="fill:#b0b0b0" transform="matrix(.14 0 0 -.14 510.007 302.038)"><use xlink:href="#DejaVuSans-32"/><use xlink:href="#DejaVuSans-30" x="63.623"/><use xlink:href="#DejaVuSans-32" x="127.246"/><use xlink:href="#DejaVuSans-32" x="190.869"/><use xlink:href="#DejaVuSans-2d" x="254.492"/><use xlink:href="#DejaVuSans-30" x="290.576"/><use xlink:href="#DejaVuSans-37" x="354.199"/></g></g><g id="xtick_11"><use xlink:href="#m8b3f0e51e4" id="line2d_11" x="590.133" y="284.4" style="fill:#b0b0b0;stroke:#b0b0b0;stroke-width:.4"/><g id="text_11" style="fill:#b0b0b0" transform="matrix(.14 0 0 -.14 560.885 302.038)"><use xlink:href="#DejaVuSans-32"/><use xlink:href="#DejaVuSans-30" x="63.623"/><use xlink:href="#DejaVuSans-32" x="127.246"/><use xlink:href="#DejaVuSans-32" x="190.869"/><use xlink:href="#DejaVuSans-2d" x="254.492"/><use xlink:href="#DejaVuSans-31" x="290.576"/><use xlink:href="#DejaVuSans-30" x="354.199"/></g></g></g><g id="matplotlib.axis_2"><g id="ytick_1"><path id="line2d_12" d="M49.83 284.4h558" clip-path="url(#pdd89f00555)" style="fill:none;stroke:#b0b0b0;stroke-width:.3;stroke-linecap:square"/><g id="line2d_13"><defs><path id="md416211a8b" d="M0 0h-3.5" style="stroke:#b0b0b0;stroke-width:.3"/></defs><use xlink:href="#md416211a8b" x="49.83" y="284.4" style="fill:#b0b0b0;stroke:#b0b0b0;stroke-width:.3"/></g><use xlink:href="#DejaVuSans-30" id="text_12" style="fill:#b0b0b0" transform="matrix(.14 0 0 -.14 33.922 289.719)"/></g><g id="ytick_2"><path id="line2d_14" d="M49.83 251.321h558" clip-path="url(#pdd89f00555)" style="fill:none;stroke:#b0b0b0;stroke-width:.3;stroke-linecap:square"/><use xlink:href="#md416211a8b" id="line2d_15" x="49.83" y="251.321" style="fill:#b0b0b0;stroke:#b0b0b0;stroke-width:.3"/><g id="text_13" style="fill:#b0b0b0" transform="matrix(.14 0 0 -.14 16.108 256.64)"><defs><path id="DejaVuSans-35" d="M691 4666h2478v-532H1269V2991q137 47 274 70 138 23 276 23 781 0 1237-428 457-428 457-1159 0-753-469-1171Q2575-91 1722-91q-294 0-599 50Q819 9 494 109v635q281-153 581-228t634-75q541 0 856 284 316 284 316 772 0 487-316 771-315 285-856 285-253 0-505-56-251-56-513-175v2344z" transform="scale(.01563)"/></defs><use xlink:href="#DejaVuSans-35"/><use xlink:href="#DejaVuSans-30" x="63.623"/><use xlink:href="#DejaVuSans-30" x="127.246"/></g></g><g id="ytick_3"><path id="line2d_16" d="M49.83 218.242h558" clip-path="url(#pdd89f00555)" style="fill:none;stroke:#b0b0b0;stroke-width:.3;stroke-linecap:square"/><use xlink:href="#md416211a8b" id="line2d_17" x="49.83" y="218.242" style="fill:#b0b0b0;stroke:#b0b0b0;stroke-width:.3"/><g id="text_14" style="fill:#b0b0b0" transform="matrix(.14 0 0 -.14 7.2 223.561)"><use xlink:href="#DejaVuSans-31"/><use xlink:href="#DejaVuSans-30" x="63.623"/><use xlink:href="#DejaVuSans-30" x="127.246"/><use xlink:href="#DejaVuSans-30" x="190.869"/></g></g><g id="ytick_4"><path id="line2d_18" d="M49.83 185.164h558" clip-path="url(#pdd89f00555)" style="fill:none;stroke:#b0b0b0;stroke-width:.3;stroke-linecap:square"/><use xlink:href="#md416211a8b" id="line2d_19" x="49.83" y="185.164" style="fill:#b0b0b0;stroke:#b0b0b0;stroke-width:.3"/><g id="text_15" style="fill:#b0b0b0" transform="matrix(.14 0 0 -.14 7.2 190.483)"><use xlink:href="#DejaVuSans-31"/><use xlink:href="#DejaVuSans-35" x="63.623"/><use xlink:href="#DejaVuSans-30" x="127.246"/><use xlink:href="#DejaVuSans-30" x="190.869"/></g></g><g id="ytick_5"><path id="line2d_20" d="M49.83 152.085h558" clip-path="url(#pdd89f00555)" style="fill:none;stroke:#b0b0b0;stroke-width:.3;stroke-linecap:square"/><use xlink:href="#md416211a8b" id="line2d_21" x="49.83" y="152.085" style="fill:#b0b0b0;stroke:#b0b0b0;stroke-width:.3"/><g id="text_16" style="fill:#b0b0b0" transform="matrix(.14 0 0 -.14 7.2 157.404)"><use xlink:href="#DejaVuSans-32"/><use xlink:href="#DejaVuSans-30" x="63.623"/><use xlink:href="#DejaVuSans-30" x="127.246"/><use xlink:href="#DejaVuSans-30" x="190.869"/></g></g><g id="ytick_6"><path id="line2d_22" d="M49.83 119.006h558" clip-path="url(#pdd89f00555)" style="fill:none;stroke:#b0b0b0;stroke-width:.3;stroke-linecap:square"/><use xlink:href="#md416211a8b" id="line2d_23" x="49.83" y="119.006" style="fill:#b0b0b0;stroke:#b0b0b0;stroke-width:.3"/><g id="text_17" style="fill:#b0b0b0" transform="matrix(.14 0 0 -.14 7.2 124.325)"><use xlink:href="#DejaVuSans-32"/><use xlink:href="#DejaVuSans-35" x="63.623"/><use xlink:href="#DejaVuSans-30" x="127.246"/><use xlink:href="#DejaVuSans-30" x="190.869"/></g></g><g id="ytick_7"><path id="line2d_24" d="M49.83 85.927h558" clip-path="url(#pdd89f00555)" style="fill:none;stroke:#b0b0b0;stroke-width:.3;stroke-linecap:square"/><use xlink:href="#md416211a8b" id="line2d_25" x="49.83" y="85.927" style="fill:#b0b0b0;stroke:#b0b0b0;stroke-width:.3"/><g id="text_18" style="fill:#b0b0b0" transform="matrix(.14 0 0 -.14 7.2 91.246)"><defs><path id="DejaVuSans-33" d="M2597 2516q453-97 707-404 255-306 255-756 0-690-475-1069Q2609-91 1734-91q-293 0-604 58T488 141v609q262-153 574-231 313-78 654-78 593 0 904 234t311 681q0 413-289 645-289 233-804 233h-544v519h569q465 0 712 186t247 536q0 359-255 551-254 193-729 193-260 0-557-57-297-56-653-174v562q360 100 674 150t592 50q719 0 1137-327 419-326 419-882 0-388-222-655t-631-370z" transform="scale(.01563)"/></defs><use xlink:href="#DejaVuSans-33"/><use xlink:href="#DejaVuSans-30" x="63.623"/><use xlink:href="#DejaVuSans-30" x="127.246"/><use xlink:href="#DejaVuSans-30" x="190.869"/></g></g><g id="ytick_8"><path id="line2d_26" d="M49.83 52.849h558" clip-path="url(#pdd89f00555)" style="fill:none;stroke:#b0b0b0;stroke-width:.3;stroke-linecap:square"/><use xlink:href="#md416211a8b" id="line2d_27" x="49.83" y="52.849" style="fill:#b0b0b0;stroke:#b0b0b0;stroke-width:.3"/><g id="text_19" style="fill:#b0b0b0" transform="matrix(.14 0 0 -.14 7.2 58.168)"><use xlink:href="#DejaVuSans-33"/><use xlink:href="#DejaVuSans-35" x="63.623"/><use xlink:href="#DejaVuSans-30" x="127.246"/><use xlink:href="#DejaVuSans-30" x="190.869"/></g></g><g id="ytick_9"><path id="line2d_28" d="M49.83 19.77h558" clip-path="url(#pdd89f00555)" style="fill:none;stroke:#b0b0b0;stroke-width:.3;stroke-linecap:square"/><use xlink:href="#md416211a8b" id="line2d_29" x="49.83" y="19.77" style="fill:#b0b0b0;stroke:#b0b0b0;stroke-width:.3"/><g id="text_20" style="fill:#b0b0b0" transform="matrix(.14 0 0 -.14 7.2 25.089)"><use xlink:href="#DejaVuSans-34"/><use xlink:href="#DejaVuSans-30" x="63.623"/><use xlink:href="#DejaVuSans-30" x="127.246"/><use xlink:href="#DejaVuSans-30" x="190.869"/></g></g></g><path id="line2d_30" d="m49.83 284.4 19.909-.104 3.871-.104 2.765-.5.553-.294 1.106-1.106 1.66-2.93.552-1.512.553-1.947.553-2.58.553-3.26.553-3.932.553-5.765.553-4.036.553-4.914.553-7.901 1.106-23.023 1.66-27.229.553-9.98.553-14.432.553-4.867 1.106-14.11.553-4.575 1.106-4.707.553 1.182.553-4.461.553.652.553 1.04.553 1.521.553-.794.553-2.693.553.274.553 1.503.553-2.278.553.378.553 1.928.553 5.217.553 7.551.553 2.08.553.86.553 2.23.553 1.74.553-.039.553 2.004.553 1.106 1.106 1.002.553 2.703.553 1.049.553 2.57.553 1.91.553 3.25 1.106 11.465 1.106 2.627.553 2.854.554 1.758.553-1.852.553 1.55.553 2.126.553 5.548.553 4.007.553.86.553 1.664.553 5.878.553 7.325.553.17 1.659 3.223.553.151.553-1.578.553-3.006.553 4.272.553.643.553 2.259.553 2.93.553 1.54.553 2.505.553.586.553 1.342.553 1.767.553.444.553-.642 2.765 5.481.553 1.815.553 1.351 1.66.889.552-.133.553 1.38.553.02.553.604.553-.038.553.076.554 1.71.553.501.553-1.805.553-.472.553 1.814h.553l.553-.132.553-5.623.553-1.324.553-2.778.553-1.191.553-4.215.553-1.456.553-.548.553 2.353.553-1.124.553.614 1.106-2.41.553-.057.553-.831.553-1.9.553-2.486.553-.992.553-1.578.553-.738.553-.529.553-5.481.553-1.097 1.106-4.064.553-.737.553-1.399.553.7.553 5.16.553-.369.553.114.553 1.02.553-1.171.553.255.553-1.059.553.378.553 1.645.553-.822.554 1.455.553-.113.553.482.553-.36.553.445.553-1.418.553 7.788.553-.624.553 1.975.553.785.553 1.03.553.425.553.038.553-4.47.553-.067.553 1.635.553-.066.553.624.553-.463.553 1.474 1.106 1.787.553-.275.553 1.598.553.038.553 1.502.553 5.614.553-.435.553 1.068.553-1.805 1.106.926.553-.926.553-6.786.553 1.579.553.557.553 1.74.553.67.553 1.22.553.085.553 1.606.553-1.115.553-.36.553.417.554-.908.553-.368.553.68 1.106 2.58.553-.075 1.106 1.578.553-.614.553-1.276.553 1.947.553-.01.553-.727.553-1.182.553.237.553-.889.553.756.553-.491.553-.785.553 1.257.553.274.553-1.342.553-.18.553-1.095 1.106-3.696 1.106-.416.553-1.73.553.284.553-.434.553-.662.553 1.19 1.106-2.353.553.312 1.106-.926.553-5.699.553-.718.553-1.853.553-1.398.553-1.768.553-.623.554-1.938.553 1.749.553-3.252.553-.482.553-.085 1.106-4.328.553-.7.553-2.892.553-4.508 1.106-14.365 1.659-7.665.553-4.168.553-3.015.553 5.869.553 3.365.553 2.098.553.264.553-2.249.553-3.535.553-4.905.553-14.318 1.106-19.186.553-3.516.553-2.495.553-.368.553-1.607.553-.066.553-6.323.553-1.058.553-1.664.553-.51.553-2.845.553-6.956.553-4.754.553 3.837.553-2.183.553-.973.553-1.238.553-4.064.554 3.515.553 5.293.553 13.524.553 7.788.553 2.533.553-.68.553-2.297.553-5.15.553-3.706 1.106-12.437.553.047.553-1.106.553.02.553-.171.553-7.079.553-18.41 1.106-12.703.553 1.503.553-7.57.553-1.068.553 2.117.553 3.185.553-3.299.553 1.011.553 2.609.553 18.619 1.106-6.9 1.106.634.553 1.474.553-1.9.553-14.895 1.106 5.87.553 2.022.553 6.294.553-.992.553.01.553 4.186.553 1.89.554-.718.553-.926.553 1.229.553 4.432.553 3.129 1.106 9.517 1.106 14.62.553 4.5.553 2.939.553 4.753.553 13.119.553 9.016.553 5.68 1.106 6.219.553-.558.553-2.485.553-5.803.553-7.646.553 1.37 1.106 7.438.553 1.172.553-1.011.553 3.26.553 6.56 1.106 8.562.553-.057.553 3.63.553 5.651.553 1.437.553 9.319.553 3.61.553 2.75.553 5.217.553 1.768.553.122.553 4.82.553 3.233.553-.841.553 3.78.554 1.862.553-1.815.553 1.437.553 2.901.553-2.533.553 2.703.553-1.257.553-.33.553 2.504.553-.775.553.501.553 3.695 1.106 4.811.553.463.553 1.22.553 1.606.553.558.553-14.47.553.832 1.106-.142 1.106.321.553-.302.553 15.736.553.992.553.312.553.482 1.106-.954 1.106.623.553-.32.553 1.01.553-.387.553.387.553.142.553 1.616.553-.813.553.54.553-.388.553.01 1.107-.18.553-1.976.553 1.607.553.832.553.434.553 1.04.553.567.553.794.553 1.843 1.106.917 1.106 2.287 1.106-.057.553-.954.553 1.058.553.596 1.106.614.553.605.553-.369.553 1.342.553-3.128.553-6.295.553.634.553 1.512.553.539.553 2.457.553-.038.553 4.017.553 6.795.553.17.553-2.42.553-.198.553-1.219.553 3.166.553.803.553 2.155.553-.085.553 2.987.553.539.553 1.143.553-.142 1.107 1.853.553-.7.553.927.553.311.553-.67.553-.199.553-.028.553-.397.553.68 1.106.123.553.955.553.141.553.813.553.548 1.106 1.626 1.659.907.553-.255.553.312.553-.265.553.047.553-.765.553-1.077.553-.482h.553l.553-1.002 1.106.141 1.106.596.553.633.553-.34.553.643.553-.936.553-.605.553-.066.553-.492.553-1.587 1.106-.473.554-3.147.553-.378.553-1.238.553-.88.553-1.209.553-1.54 1.106-4.31.553-.85.553.925.553-1.644 1.106-4.773.553-4.782.553.7.553-.038.553-.775.553-4.953.553-1.814.553-3.771.553-7.136.553-3.809.553-2.901.553-.029.553-2.788 1.66-11.294.552-2.655.553-.71.553-1.001.553-3.563.553-.085.553-4.64.553-7.42.553-1.862.553-.01.553-.963.553 10.443.553-6.162 1.106-4.688.553-4.924.553-1.757.554.453.553-14.64.553 1.588.553-3.97.553-2.504.553.066.553-1.616.553-.226.553-1.418.553-4.905.553.453.553 1.749.553-.284.553 1.446.553-1.776.553.453.553-.67.553.481.553 4.556.553 3.336.553.066.553.463.553 3.09.553 5.898.553-.189 1.66 10.188.552.463.553 7.108.553-3.734.553-5 .553 2.666.553-.18.553-1.36.553.132.553-5.548.553 3.053h.553l.553 1.654.553-.454.553.208.553 1.89 1.107 6.228.553 10.661 1.659 4.461.553.208.553 2.023.553 2.996.553.68.553 6.181.553-3.686.553-1.002.553.255.553.379.553-1.532 1.106 5.614.553-3.109.553-.879.553.01.553-.681.553 1.229.553.274.553-4.111.553 6.455.553 1.172.553-.17.553.33 1.106-.661.553 8.042.553 13.043.553 1.295.553-.274.553-6.314 1.106-5.566.553-32.143.553-11.55.553-3.411.553-1.276.553 4.621.553 1.21.553 1.701.554 22.059.553-1.342.553.709 1.106.727h.553l.553-3.903.553 2.675.553-1.05.553-.52.553.473.553-1.493.553-3.752.553-18.439.553-1.304.553 11.105.553 4.13.553-.473.553-2.778.553-3.563.553 17.191.553-.784.553-.397.553-1.503.553-.34.553-.548.553-.378.553 1.295.553-5.718.553-16.133.553-4.442.553-2.013.553-1.418.553-1.805.553-5.841.553-4.395.553-3.383 1.106-2.647.553 9.622.553-2.051.553-5.964.553-3.506.554-5.614.553-.208.553.236.553-10.812 1.106-7.599.553 2.93.553-6.625.553-1.701.553 2.382.553-4.036.553-1.9.553 2.637.553 1.314.553-.293.553 2.693.553.18.553-2.665.553 3.364.553 2.382.553-7.268.553 13.42.553.974.553-1.096.553-2.77.553 3.724.553 1.446.553 2.826.553 1.881 1.106 2.57.553 21.417.553 4.102.553.86.553-.029.553 3.989.553-.719.553 2.09.553-11.588.553 3.828.553 9.45.553 11.786.553 3.242.553 4.281.554.104.553 4.197.553 3.298.553.643.553-.605.553.737 1.106.482 1.106 6.833.553 1.654.553 2.6.553 7.976.553-.057.553.993.553.264.553 2.902.553 1.975.553 5.964.553 1.852.553 1.266.553.256.553 2.504.553-2.013.553 4.451.553 3.29.553-1.985 1.106-.057 1.106 8.515.553.388.553-2.996.553 1.796.553.122.553.284.553 2.448.553-.775.553 1.673.553 1.03.553 1.89.553.86.553.18.553.737.554 1.455.553.426.553 3.071.553-.794h.553l1.106-.283 1.106 2.098.553-.104.553.955.553-.577.553.085.553-.274.553-1.22.553-10.849.553 1.059.553.396.553-.69.553-.066.553.378.553 1.153.553 11.984.553-.018.553 1.644.553 1.21.553-.066.553.075.553-.661.553-2.713.553-.312.553-1.994 1.106-.246.553.02.553.51.553-1.097.553-.198.553-1.078 1.106.634.553 1.918.553-.227.553 3.875.554.274.553 1.248.553-1.106.553-.16.553-2.288.553-1.02.553-4.924 1.106.595.553.444.553.047.553-.066.553 1.05.553 4.63.553-1.38.553.454.553.643.553-.236.553 1.852.553-.87.553-1.389.553.586 1.106-2.22.553.311.553-1.928.553-1.134.553 1.21.553 6.209.553-.53.553.984.553.132.553 2.08.553 1.077.553-.388.553-12.75.553-.273.553-.038.553-.227.553-3.695.553-.983.553-1.966.553 6.606.553.199.554-.038.553-.218.553.275.553-.624.553.7.553-1.163.553-.671.553-.17 1.106.359.553.775.553-.501.553.898.553-.416.553.378.553.17.553-1.399.553.378.553-1.332.553-2.07.553-.87 1.106-.264.553.69.553-1.276.553 1.417 1.106 1.182.553-.048.553.142.553.293.553 1.267.553-1.54.553-.492.553.633.553.019.553-7.296.553 6.823.553-1.002.553 1.361.553-.066.553-1.077.553.057.553 7.277.554-6.937.553 2.013.553-5.302.553-.624.553 2.117 1.106.057.553 3.714.553-1.91.553 6.834.553-.066.553-.633 1.106-.076.553-3.516.553.822.553-1.587.553.16.553 1.087 1.106.02 1.106 1.36.553-.198 1.106.15.553-.17.553.039.553.264.553-.085.553-2.94.553-.292.553 1.02.553.161.553.029.553.727.553-.529.553 2.259.553 1.049.553-.785.553-.141.553.066.553 1.503.553-.983.554 2.807.553-.7.553 1.323 1.106.133.553-1.843.553 1.654.553.113.553.945.553-2.986.553.189.553-.01.553 1.182.553.056.553-3.506.553.085.553 3.743.553-.114.553.048.553.756.553.264.553 3.63h0" clip-path="url(#pdd89f00555)" style="fill:none;stroke:#7516fd;stroke-width:1.5;stroke-linecap:square"/><path id="line2d_31" d="m49.83 284.4 31.522-.085 1.66-.104 1.658-.047.553-.199 2.213-.245.553-.303 1.106-.151.553-.321 1.106-.454.553-.284.553.095.553-.199 1.106.199.553-.17 1.106.113.553-.057 1.106-.396.553.028 1.106-.293 1.66-.558 1.105-.661.553-.095.553-.52.553-.113.553-1.106.553-.548 1.106-.473 1.66-.812.552.879.553.056.553-.416.553.057 1.106-.094 1.66-1.106.553.038 1.106-.85.553-.228.553-.019 1.106-.406.553-.548.553-.255.553-1.2 1.659-1.72.553-.464.553-.652.553-.926.553-.16.553-.87.553-.36 1.66-2.031 1.105-2.09.553-.131.553-.605.553-1.078.553-16.312.553.17.553.567 1.106.151.553-1.134.553.643.553 14.535 1.106-1.465.553-.085.553-.983.553.615.553-1.002.554-.397.553-.151.553.264.553-.548.553-1.918 1.106-.88.553.228.553-.501 1.106-1.635.553.595 1.106-1.54 1.106-2.051.553-2.013.553-1.437.553.066.553-1.701.553-.302.553-.643.553-4.952.553-.492.553-.813.553-1.502.553-.284.553-.491.553-1.276.553 3.468.553-.217.553-.34.553-1.427.553-.568.553-1.568.553-.68 1.66-3.829.552-.075.553-2.23.553-.643.553.217.553-.36.554-1.143.553-.595.553-.785.553.624.553-.047.553-2.429.553-.34.553.227.553.482.553.302.553.992.553.265.553 1.172.553-1.295 1.106-1.417.553-.34.553-1.277.553.274.553-.737.553.68.553-.368.553-.642.553-1.106.553-.426.553-2.967.553-.662 1.106-2.287.553-1.058.553-.464.553-1.134.553.747.553-1.654 1.106.709.553-.435.553-.18 1.106.067.553 1.937.553.029.553.311.553 1.494.554.085.553.86.553 2.618.553-.889.553-.491.553.435.553.189.553 1.739.553 1.285.553-1.02 1.106 3.808 1.106 2.59.553.208.553.822.553 1.682 1.106 5.17.553.652.553.841.553-1.087.553 2.24.553 1.125.553.123.553-.208 1.106 3.705.553 4.3 1.106 1.871 1.106 3.724 1.106 2.136.553 1.02.553-.15 1.106-.076.553-1.768.553-1.01.553-.247.553-.84.553.056.554.397.553.019 1.106 2.618.553.538.553 1.059.553.52.553-.01.553.36 1.659-1.097.553-.51.553-.719.553-.293.553-.066.553.577 1.106 1.616.553.047.553.643.553-.019.553-.189.553-.019.553-.454.553-.255.553.133.553.491 1.66 2.93.552 1.2.553.652.553.86.553.52.553.293.553.142.553.539.553.708.553.908.553.472.553.029 1.66 1.417.553.02.553.906 1.106 1.097 1.106.907.553.123.553.756.553.255 1.659 1.683.553.207.553.728.553.208.553 2.117.553-2.003.553.5.553.322.553.586.553.227.553.406.553-1.654.553 2.344.553.151 1.106.662.553.444 1.66.728 1.105.32 1.106.502h.553l.553.142.553.264 1.106.34 1.66.813 1.659 1.182 1.106.302.553-.01.553.313 2.765-.35.553.066.553-.095 2.765.095.553-.35 2.212-.765.553-.123.553.057.553.463 2.212.321.553.132 1.106-.68.553-.038.553-.302.553-.577.553-.198 1.66-1.465 1.659-1.144.553-.888.553-.643 1.659-2.542 1.659-2.807 1.106-1.427 1.106-3.97.553-3.998 2.212-7.929.553-2.136.553-2.94.553-.755.553-3.081 1.66-11.87 1.105-7.165.553-5.17 1.106-13.014 1.106-17.749 1.106-20.263 1.66-35.366.552-9.545.553-12.003 1.106-26.236 1.106-17.21 1.66-16.73.553-3.165.553-3.942.553-6.275 2.212-15.046.553-1.323.553-.804.553 2.807h.553l.553-3.185.553-4.281.553-3.062.553 2.325.553-1.975.553-2.874.553 3.176.553-3.289.553 7.731.553 3.516.553.255 1.106 10.642.553 2.656.553 12.532.553 6.767 1.66 27.001.552 2.24 1.106 14.026.553 6.35.553 9.339.553 6.71.553-44.052 1.106-11.795.553-14.12L328 41.3l.553-3.052.554-1.446.553 54.693.553 22.257.553 16.37.553 23.57.553 14.735 1.106 20.726.553 2.438.553 4.386.553 2.958.553 4.234.553 2.457.553 5.113.553 2.987 1.106 8.704 1.659 8.63.553-1.069.553 1.777.553-.548.553-4.423.553.567.553-.01.553-13.864.553 2.91.553 2.212.553 3.488.553 6.105.553 3.563.553 2.126.553 15.557.553-31.907 1.106 1.276.553.132.553-.16.553.784.553-.387.553 31.736.553-1.257.553-.68.554-.444 1.659-.18.553.737 1.106 1.872.553-.227.553.472.553-.236.553.463.553.614.553.407.553-1.144.553 1.314.553-.019.553.284.553-.605.553.538.553-.378.553.426 1.106 1.824.553.264.553.785.553-1.966.553-.728.553.416.553-1.266.553-.54 1.106.124.553 1.777.553.926.553 1.228 1.106 3.129.553 1.521.553.567.553.86.553 1.617.553 1.001.553.208.553-.283h.554l.553-.463.553.803.553-.879.553-.567 1.106.53.553-.719.553.822.553-.935.553 1.408 1.106-.066.553.463.553.18.553.69.553.047.553-.275.553.388.553.53.553.15.553.908.553-.794.553.945.553-.066.553.056.553-.132.553.284.553-.123.553.775.553.491.553.68.553-1.02 1.106 1.437 1.66.69.552.812.553 1.4 1.106-8.668.553-2.618.553-1.814.554-3.667 1.106-10.84 1.106 2.192.553 1.815.553-.822 1.106 5.16.553 5.52.553 1.483.553-.756.553-.142.553 1.05.553-1.409.553 1.144.553-2.647.553-1.54.553 2.278 1.659 4.11.553-1.228.553.397.553 2.722.553-.265.553-1.172.553-.368.553-1.286.553.7.553-.274.553-1.872.553-2.91.553.122.553.435.553 1.607.553-.766.553.917.553.473.553 5.869.553-26.19.553-.283.553.68.553 3.006 1.107.425.553-5.311.553 26.51.553-.302.553-.492.553-1.739.553-.217.553 3.714.553 2.58 1.106-3.733.553-.67.553-.86.553.16.553-3.658.553 1.2.553.766.553 1.512.553.151 1.106 3.025.553-.18.553-1.153 1.106 3.412.553-2.193.553-.538.553-.775.553 1.143.553-.406.553-.218.553-1.446.553.87.553-.52.553-1.03.553-.199.553.123.553-2.258.553-.312.553.01.553-1.05.553-2.76 1.107-3.714.553-.51.553-2.873.553-2.117.553-.775.553.718 1.106-7.098 1.106-10.377.553-10.094 1.106-8.317.553-1.777.553.265.553.605.553.038.553 4.876.553-2.202.553 3.922.553 2.41.553 1.711.553 5.189 1.106 14.592.553 6.616.553 1.56.553 4.526.553.104 1.106 2.382 1.66 6.285.552.662.553 4.064.553.822 1.106 1.04.553 1.512.553.954.553-.321.553.803.554.501 1.106 1.418.553.359.553-.51.553 1.89.553 1.049.553.368.553.104 1.106.86.553 1.002.553.17.553-.756.553-.038.553.605.553.34.553-.066.553.624.553-38.078.553-.208 1.106-.019 1.66.955.552 37.965.553.642.553.17.553-.217.553-.378.553-.142 1.106.085.553.492.553.066 2.212 1.54.553.747.553.236.553-1.966.553.17.554-.132 1.106-.973 1.106-.652.553 1.739.553.01.553-13.147.553.16 2.765-.33.553 13.231.553-.151 1.106.576 1.659.066.553-.217 1.106.463.553.104.553.255 1.66.133.552.132 1.106-.236.553-.492 1.106-.293.553.151.553-.075.553.057.553-.076.553.482 1.106.312 2.213.33.553-.009 1.106.265 1.106-.038.553-.132 1.106.255 3.318-.132 1.659-.284.553.019.553-.255 1.659-.057 1.106-.123.553-.16 1.106-.104 1.66-.17 1.658.132 1.66-.378 1.105-.029.553-.16 1.106-.114 2.213-.472.553.085 1.106-.227.553-.104 1.106.217 1.659-.302 1.106.293 1.106-.066 1.659.038.553-.227 1.106.094.553.369.553-.463 1.106-.066.553.198.553-.18.553-.009.553-.302.553.51.553.17.553-.18.553.02.553.302 1.106-.057.553-.18h.553l.553.34.553-.198.553-.047.553-1.077.553-.085 1.107.793.553-.718.553.444.553.076.553 1.238.553.274 1.106-.472.553.746.553-.094 1.106.283 3.318-.038.553-.226h1.659l1.106.104.553-.085.553.113.553-.019.553-.16.553.103 1.106.01 1.106.16.553-.075 1.106.208 1.106.227 2.212.18 3.319.141 2.765.076.553.16 1.106-.01 1.659.2 1.106-.086.553.076.553-.473.553-12.986.553-.028h0" clip-path="url(#pdd89f00555)" style="fill:none;stroke:#7d31e0;stroke-width:1.5;stroke-linecap:square"/><path id="line2d_32" d="m49.83 284.4 25.439-.076 1.66-.019 1.105-.047 1.66-.264 2.211-1.276 1.106-.945.553-.53.553-.33 2.213-3.734.553-.652.553-1.134.553-.246.553-.425 1.659-3.138.553-.283.553.52.553-.322.553.029.553-.293.553-.652.553-.312 1.106-1.191.553.151.553-.227.553.038.553.945 1.106 1.276.553.416h.553l.553.293.553.746 1.106.719 1.106 1.427.553.633.553.227 1.106.822.553.435.553-.085.553.453 1.106.416.553.605 1.106.756.553.435 1.107-.057.553.416.553.17.553.303.553.7.553.14 1.106.124 1.106.595 1.659-.132.553.189.553-.01.553.322.553.17.553.302 1.106.123.553-.104.553.047.553-.245 2.212.51.553.151.553.02.553.264 1.106-.114.553-.075 1.66.142.552-.01 1.106.227 1.66-.038 1.659.038 3.87.189 1.66.01 1.659.056 1.659.151 1.659.057 2.212-.066 1.106-.047 3.871.104 2.212-.17 3.318.018 2.766.038 6.083.066 1.106.02 12.72-.076 4.424-.426 1.106.133.553-.095 2.212.01 3.318-.133 1.106-.416 1.659-.283.553-.057.553-.321 1.106.066 1.106-.387 1.106-.293.553.047 2.212-1.768h.553l.553-.236.553-.841.553-.624.553-.274.553-.841 2.213-.926 1.106-1.957 1.659-1.36.553.009.553-1.068 1.659-1.153.553-.718 1.106-.558.553.17.553-.992 1.659-4.055.553-.189.553-.33.553-1.314 1.106-1.579.553-.056 1.106-1.9.553-.208.553-.33.553-.974.553.369.553-1.57.553-.122.553-.624.553-.387.553-.728.553-3.422 1.106-4.47.553-1.947.553-.831.553-.36.553-2.183.554-.094.553-.983 1.106 8.156.553.5 1.106-2.296 1.659-4.442.553-.907 1.106.85.553-.869.553 1.04.553-1.002 1.106-13.061.553-1.446.553-.388.553.5.553-.387.553-1.644.553.709.553.973.553.19.553 1.218 1.106-1.757 1.106 4.583 1.106 1.862.553-.028.553.813.553 1.569.553.68.553.189.553.803.553-.472 1.106.794.553.066.554 1.465.553-.151.553.992.553 1.588.553.16.553 3.592.553 1.53.553 1.135.553 2.826.553 1.304.553.123.553.397.553-.444.553 2.39.553 1.248 1.106 1.03.553.69.553.51 1.106 2.373.553 1.408 1.106 2.221.553-.113.553.019.553.538.553.038.553.246.553 1.229 1.106 1.228.553.246 1.106 2.089.553.359.553.113.553.577.553.245.553-.122.553.16.553.482.553.889 1.107.548.553-.274 2.212-.142 1.106.879 1.106.151.553.662.553-.01.553.255.553-.463.553.35.553.208.553-.066.553.85.553-.463.553-.992.553-.605.553-1.19 1.106-.804.553-1.928.553-.416.553.123.553.463 1.66.671.552-.028.553.104.553.321.553-.17 1.106-1.134.553.302.553-.444.553.18.553-.048.553-.387.553.51.553.095.554-.227 1.106.53 1.659.283.553-.161 1.659.747.553-.265.553.888 1.106 1.106.553-.094.553.586.553-.152.553.388.553-.34.553.066.553-.104.553.198.553 1.777.553.132.553-.302.553.321.553.066.553.246.553.066.553-1.134 1.106 1.834.553 1.002.553.387.553-.17 1.106.255 1.106 1.361 1.106-.217.553.529.553.113.553.445.554-.284.553-.104.553.104.553.284 1.106.018.553.152.553.812.553.114 1.106.567 2.212.236.553.284.553-.066.553.491 1.106.076.553.245.553.076 1.106.491.553-.18 1.66.048.552.19.553-.01.553.293 1.106.15 1.66.02 2.211-.312 1.66-.076.552.199 2.213.151.553.18 2.765-.085 1.106-.01 2.212.36 1.106-.01 1.659-.208.553.057 1.106-.057h.553l1.66-.284 1.105-.056 1.66-.312.552.15.553-.112.553-.293 2.765-.19 1.66-.453.553.123 1.106-.123.553-.454.553-.17.553.33 2.212-.585.553.113 1.106-.87 2.765-.018.553.454 1.106-.114.553.18 2.212.038.553-.123.553.01.553-.143 1.106.02 1.106-.19.553.199.553-.095 1.106.038 1.66.047.552-.482 1.66-.227.553-.378.553-.208.553-.557 2.212-.236.553.444.553-.756 1.659-1.172 1.106-.133.553-.831.553-.397.553-.662.553-.35.553-.812 1.106-.265.553-.907.553-.548.553-.274 1.106-.284 1.106-.369 1.106-.803.553-.822.553-1.475.553-.52.553-.273.553-.104.553-.747.553-1.05 1.106-.66.553-.71.553.095 1.106-.18 1.66-2.381.553-1.248 1.106-.69.553-.7.553.7.553-.538.553.444.553.907.553-.454.553-.028.553.104.553-.539.553.917.553.633.553 2.43.553.869.553.472 1.106 1.758 1.106.841.553-.255.553.397.553.01.553.15.553.643.553-.567.553.558.553-.794.553-.293.553.151.553.322.553-.36.553 1.2.553-.207 1.106.595.553.208 1.106 2.59.553.775.554 1.096.553.53 1.659-.246.553.69.553.434 1.659-.075.553-.312.553.246.553-.284.553.227 1.106.094 1.106.284.553.104 1.106-1.418.553-.529 1.106-.406.553.066.553-.624.553.236.553-.217.553-.36 1.106-.254.553.189 1.106-1.087.553.17.553.359.553-.378.553.151.553-.019.553.671.553-.019.553-.226.553-.615 1.107.01h.553l.553-.841.553-.123.553.075.553.397 1.659.114 1.106.812.553-.18 1.106.483 1.106.066.553.18.553-.567.553-.208 1.106-1.125 1.106-.066.553-.407.553-.18.553-2.797.553 2.845 1.106-.283.553.189.553-.086.553-3.024.553 2.476.553-3.043.553 2.42.553.491.553-2.731.553-.426.553 3.384.553 1.153.553 2.646.553.218.553.018.553 2.666.554.123.553-.133.553-.728.553-1.937.553-.104.553.047.553-2.807.553 3.29.553-2.505 1.106 1.417 1.106.19.553.604.553-2.277.553 3.837h.553l.553-.237 1.106-.047 1.106.303.553-.133 1.106.85 1.66.105.552.539.553.302 2.212.397.553.53.553.15.553.275.553 1.408.553.444 1.106-.076.553.218.553.633.553.047.554-.841 1.659.095.553 1.266.553-.51.553.387 1.106-.18 1.106-.009.553-.992.553.312.553.16.553.823.553.18 1.106.009.553-.71.553.076.553-.236.553-.671.553-.246h1.106l.553.652.553-.67 1.106.198.553-.18 1.66.076.552.5.553-.235.553-.445 1.66-.056.552-.596.553.17.553-.35.553.152.553-.284 1.107.076.553.595 1.106-.605.553.02.553.17h1.106l.553-.804.553-.425.553.189.553-.378 1.659-.076.553.151 1.659-.718.553-.227 2.212.048.553.368 2.212.02 1.106.481.553-.293.553-.019.553.151 1.66-.056.552.425.553 1.739.553-.35.553.19h1.106l.554.255.553 1.389.553-2.561.553.548.553-.18h1.106l.553.19.553-1.135.553 1.456 1.106.633 1.659.085.553.104.553-1.068 1.659-.038h.553l.553-.53.553.18.553 1.172.553.227 1.66-.019.552.265.553-.454.553.114.553-.445.553-.245h1.106l.553 1.115.553.094.553-.028.553.217.553-.122h1.106l.553-1.749 1.66-1.871.553-.293h1.106l.553-.227 1.106-.907.553-.123.553-.416h1.106l.553-.605.553.057.553.255.553-.057.553.35h1.106l1.106 2.315.553-.803h0" clip-path="url(#pdd89f00555)" style="fill:none;stroke:#d8b009;stroke-width:1.5;stroke-linecap:square"/><path id="line2d_33" d="m49.83 284.4 34.287-.076 2.766-.293h2.212l1.659-.226 1.106-.36.553-.104 3.318-1.37 1.106-.548 1.106-.255 1.106-.416.553-.028.553-.208 1.66-1.352 1.105.199 1.106-.482 1.106.302.553-.019.553-.482 1.106-.454 3.319-.595 1.106-.047 1.659-1.04.553-.189.553-.557.553-.01.553-.558.553-.245.553-.444.553-.775.553-.397.553.141.553-.605 1.659-.17.553.832.553-.151.553.038.553.416.553.103.553-.368.553-.038.553-.369.553.785.553.142 1.106-.501.553.208.553-.095.553.02.553-.445.553.094 1.106.832.553.378.553.86.553.047.553-.255 1.106.095.554-.01 1.106-1.105h.553l.553.198 1.106-.709.553-.416.553.407.553-.274.553.019.553-.199.553.038 1.106.51 1.106.237.553-.114.553.624.553.33 1.106.388.553-.085.553.19.553.311.553-.227.553.17 1.66.02.552.179.553-.076.553.482 1.66.17.552.274.553.133.553.397.553-.322.553-.056 2.213.236 1.659.227.553.15.553.01 1.106.265.553.227 1.106-.066.553-.104 1.106.113 1.106-.293 1.106.132.553-.17 1.106-.047.553.057.553-.104 1.106.085.553.312.553.01.553-.247.553-.122.553.16.553-.075.553-.284.553-.057.553-.274.553.104.553-.15 1.106-.52.553.113 1.66-.331.552-.038.553.246 1.107-.425.553.104.553-.02 1.106-.453.553-.747 1.106-.123.553-.52 1.106-.462 1.659-.501.553-.312.553-.076.553-.53.553-.368.553-.916.553-.303.553-.784 1.66-1.068.552-.737.553-.048.553-.482.553-.16 2.212-1.664 1.106-1.351.553-.293 1.106-.303 1.106-.68.553.661.553-.17 1.66-.85.553-.057.553-.397.553-1.323 1.106-.53.553-.633.553-.425.553-.775 1.106-.472.553-.51.553-.776 2.212-1.88.553-.549 1.106-.67.553-.52.553-.095 1.106-1.493.553-.265.553-.662 1.106.067.553-.785.553.066.553.322.553-.057 1.66-1.257.552.047.553-.113 1.106-.596.553-.01 1.106-.358.553-.369.553.123.554.454.553-.473.553.482.553.19.553-.407 1.106.047.553-.463.553.425.553.227.553 1.106.553.435.553.056.553.426.553 1.455 1.106 1.663.553-.18 1.106.965.553-.151.553-1.172.553-.586 1.106-2.108 1.106-.557.553-.51.553-.256.553-.406.553-.227.553.312.553-.104 1.66.368 1.105.747.553.387.553.048 1.106.387 1.107 1.125 1.106.17.553.5.553.275.553.066.553-.104.553-.321.553.18 1.106-.038.553.122 1.659 1.985 1.106.548.553.123.553.53.553.359.553.765 1.106.7 1.106.737.553.038.553-.208.553-.615 1.106-.605 1.106.067.553-.435.553.973.553-.141.553.15 1.106-.566 1.106-.539.553-1.011.553.359h.553l.553.368.554.775.553.208.553.426 1.106.425.553.614.553.36.553.037.553.34.553.615.553.142.553-.086 1.659.227.553-.18.553-.434 1.659.68.553-.037.553-.17.553.16 1.106 1.115 1.106-.548 1.106.066.553-.472.553-.652.553-.397 2.212.056.553.54 1.106-.209.553.114.553.34 2.213.151.553.52.553.265 1.106.283.553.217 2.212.322.553-.388.553-.17.553.029.553-.549 1.106-.51.553-.35.553-.047.553.151.553-.198 1.106.51.553-.274 2.212-.557.553.037.553-.18 1.106.284.553.076.553.246 2.212.085.553-.057.553.104.553-.19 1.106-.084.553-.388 1.107.029.553-.322 1.106-1.181.553-.87.553-.642 1.659-4.395 2.765-6.7 1.106-2.09 1.106-1.445.553-.558.553-.388.553-.784 2.212-2.06.553-.841.553-.549.553-.387 1.66-1.824.552-.34 1.106-.237 1.66-.038.552.048 1.66-.312.552.038 1.106-.123 1.66.17.553-.501h.553l1.659.312 1.106.104.553.18.553-.02 1.659-.529 2.212-1.115.553.047 1.106.482.553.208.553.51.553.227.553.104.553-.066.553-.293.553-.123.553.02.553-.303 1.106-.123 1.66.284 3.317-.02.553.114 1.107.038.553.605 1.106.16 1.659-.028.553-.066.553-.52 1.106-.558 2.212-1.02.553-.029 1.659-1.304 1.106-1.247 1.106-1.834.553-.35 1.106-1.181.553-.435 1.106-1.399 1.66-1.88 1.105-1.068 1.106-.539 1.66-1.096 1.105-.993 2.213-2.646 1.106-1.777 1.106-1.805 1.659-2.22 1.106-1.107 1.659-.463 2.765-2.013 1.106-1.02 2.212-.757 2.212-.709 1.106.18 2.212.794.553.321 2.212.539 1.66.52 2.765 1.975 1.106 1.276 1.659 1.106 1.659 2.76 1.106 2.031 1.106 2.363 4.424 6.172 1.66 3.629 1.105 1.843 1.106 2.24 1.106.794.553.813.553.396.553.71 1.66 1.653 2.211 2.675 1.107.945.553.369 1.106.189.553.066.553.416 1.659.463.553.557 1.106.445.553-.237 1.106-.113 1.106-.85.553.113.553-.36.553.067 1.106-.728.553-.123.553-.416.553-.68.553-.047 2.212-2.826 1.106-.88.553-.85.553-.33.553.245 1.106.066.553-.198 1.66.132.552-.17.553.094.553.416.554.255.553.605 1.659 3.677 1.106 2.098 1.106 2.675.553.87.553.651.553.974 1.659 4.168.553 1.153.553.812 1.106 2.722 1.106 2.098 2.765 4.272 1.106 1.078.553.302.553.463.553.17 2.212 2.013 1.66 1.078 1.658.756.553.435 1.106.567 1.66 1.351 2.765 2.873.553.568 1.659.756 1.106.397.553.472 1.106.577 1.659.718 1.659.784 2.212.917.553.123 1.106-.151 5.53 1.219 1.66-.01 11.06 1.446 4.424.114 4.977.841 5.53.378 7.19.16 2.765-.141 4.424-.633 1.66-.312 1.105-.057 3.871-.557 1.106-.208 3.872-1.314 4.977-.17 2.765-.293 1.659-.321.553.037 1.106-.15 1.106.009 1.66.047 7.741-.246 2.766.378 1.106.18 2.212.34 2.765.302 3.318.775h0" clip-path="url(#pdd89f00555)" style="fill:none;stroke:#5feb16;stroke-width:1.5;stroke-linecap:square"/><path id="line2d_34" d="m49.83 284.4 266.004-.104 2.212-.312 1.106-.359 3.318-.255 3.318-.813.553-.028 3.319.586 1.106.085.553.141 1.659-.085 1.659.34.553.02.553.16.553-.019.553.18 1.659-.132 1.106.085 1.106-.123 1.106.123 4.977.245 4.424.104 4.425.123 1.659-.028 1.106-.123 2.212-.057 1.659.133 1.659.066 1.659-.02 140.468-.046 2.212-.208 1.106.056.553-.33 2.212-.085.553-.766.553-.18.553.057 1.106-.557 1.106-.86.553.207.553-.321 1.106-.142 1.106-.756.553-.728.553-.982 2.212-2.07.554-.378.553-.151.553 1.54.553-1.578 2.212-1.701.553-.672.553-1.994.553 1.068.553.397.553.01.553.15.553.407.553.558.553.283.553-.085.553-.33.553.075.553-.264 1.106.037 1.106.643.553.5.553.114.553.813.553.454.553.293 1.106.954.553.208 2.765-.047.553.16.553-.254 1.106.84 1.66.53.553-.019.553.454.553.217.553-.076.553.133 1.106.444.553.076 1.106-.048.553.274.553.114.553.274.553-.066.553.293 1.106.217 1.106.019 2.212.132 4.424.87.553-.076 1.106.085h1.106l1.106-.01.553.143 1.66-.19 2.765-.16 1.106.066 2.212-.113.553.066.553-.18 1.106.17 1.106.066.553-.103.553-.265.553.085 2.212-.293 2.765-.047.553-.237 1.106-.018.553.056.553-.085.553.029.553-.265.553.17 2.212-.18.553-.264h.553l.553-.18.553-.047.554.104.553.265.553-.265 2.765-.019.553-.595.553.019.553.236 1.106-.085 1.106-.18.553.076.553.198.553-.227.553-.104 1.659-.009h0" clip-path="url(#pdd89f00555)" style="fill:none;stroke:#fe7b74;stroke-width:1.5;stroke-linecap:square"/><g id="text_21" style="fill:#7516fd" transform="matrix(.14 0 0 -.14 624.57 250.118)"><defs><path id="DejaVuSans-55" d="M556 4666h635V1831q0-750 271-1080 272-329 882-329 606 0 878 329 272 330 272 1080v2835h634V1753q0-912-452-1378Q3225-91 2344-91q-885 0-1337 466-451 466-451 1378v2913z" transform="scale(.01563)"/><path id="DejaVuSans-53" d="M3425 4513v-616q-359 172-678 256-319 85-616 85-515 0-795-200t-280-569q0-310 186-468 186-157 705-254l381-78q706-135 1042-474t336-907q0-679-455-1029Q2797-91 1919-91q-331 0-705 75-373 75-773 222v650q384-215 753-325 369-109 725-109 540 0 834 212 294 213 294 607 0 343-211 537t-692 291l-385 75q-706 140-1022 440-315 300-315 835 0 619 436 975t1201 356q329 0 669-60 341-59 697-177z" transform="scale(.01563)"/></defs><use xlink:href="#DejaVuSans-55"/><use xlink:href="#DejaVuSans-53" x="73.193"/></g><g id="text_22" style="fill:#7d31e0" transform="matrix(.14 0 0 -.14 624.57 264.118)"><defs><path id="DejaVuSans-49" d="M628 4666h631V0H628v4666z" transform="scale(.01563)"/><path id="DejaVuSans-6e" d="M3513 2113V0h-575v2094q0 497-194 743-194 247-581 247-466 0-735-297-269-296-269-809V0H581v3500h578v-544q207 316 486 472 280 156 646 156 603 0 912-373 310-373 310-1098z" transform="scale(.01563)"/><path id="DejaVuSans-64" d="M2906 2969v1894h575V0h-575v525q-181-312-458-464-276-152-664-152-634 0-1033 506-398 507-398 1332t398 1331q399 506 1033 506 388 0 664-152 277-151 458-463zM947 1747q0-634 261-995t717-361q456 0 718 361 263 361 263 995t-263 995q-262 361-718 361t-717-361q-261-361-261-995z" transform="scale(.01563)"/><path id="DejaVuSans-69" d="M603 3500h575V0H603v3500zm0 1363h575v-729H603v729z" transform="scale(.01563)"/><path id="DejaVuSans-61" d="M2194 1759q-697 0-966-159t-269-544q0-306 202-486 202-179 548-179 479 0 768 339t289 901v128h-572zm1147 238V0h-575v531q-197-318-491-470T1556-91q-537 0-855 302-317 302-317 808 0 590 395 890 396 300 1180 300h807v57q0 397-261 614t-733 217q-300 0-585-72-284-72-546-216v532q315 122 612 182 297 61 578 61 760 0 1135-394 375-393 375-1193z" transform="scale(.01563)"/></defs><use xlink:href="#DejaVuSans-49"/><use xlink:href="#DejaVuSans-6e" x="29.492"/><use xlink:href="#DejaVuSans-64" x="92.871"/><use xlink:href="#DejaVuSans-69" x="156.348"/><use xlink:href="#DejaVuSans-61" x="184.131"/></g><g id="text_23" style="fill:#d8b009" transform="matrix(.14 0 0 -.14 624.57 278.118)"><defs><path id="DejaVuSans-47" d="M3809 666v1253H2778v519h1656V434q-365-259-806-392-440-133-940-133-1094 0-1712 639-617 640-617 1780 0 1144 617 1783 618 639 1712 639 456 0 867-113 411-112 758-331v-672q-350 297-744 447t-828 150q-857 0-1287-478-429-478-429-1425 0-944 429-1422 430-478 1287-478 334 0 596 58 263 58 472 180z" transform="scale(.01563)"/><path id="DejaVuSans-65" d="M3597 1894v-281H953q38-594 358-905t892-311q331 0 642 81t618 244V178Q3153 47 2828-22t-659-69q-838 0-1327 487-489 488-489 1320 0 859 464 1363 464 505 1252 505 706 0 1117-455 411-454 411-1235zm-575 169q-6 471-264 752-258 282-683 282-481 0-770-272t-333-766l2050 4z" transform="scale(.01563)"/><path id="DejaVuSans-72" d="M2631 2963q-97 56-211 82-114 27-251 27-488 0-749-317t-261-911V0H581v3500h578v-544q182 319 472 473 291 155 707 155 59 0 131-8 72-7 159-23l3-590z" transform="scale(.01563)"/><path id="DejaVuSans-6d" d="M3328 2828q216 388 516 572t706 184q547 0 844-383 297-382 297-1088V0h-578v2094q0 503-179 746-178 244-543 244-447 0-707-297-259-296-259-809V0h-578v2094q0 506-178 748t-550 242q-441 0-701-298-259-298-259-808V0H581v3500h578v-544q197 322 472 475t653 153q382 0 649-194 267-193 395-562z" transform="scale(.01563)"/><path id="DejaVuSans-79" d="M2059-325q-243-625-475-815-231-191-618-191H506v481h338q237 0 368 113 132 112 291 531l103 262L191 3500h609L1894 763l1094 2737h609L2059-325z" transform="scale(.01563)"/></defs><use xlink:href="#DejaVuSans-47"/><use xlink:href="#DejaVuSans-65" x="77.49"/><use xlink:href="#DejaVuSans-72" x="139.014"/><use xlink:href="#DejaVuSans-6d" x="178.377"/><use xlink:href="#DejaVuSans-61" x="275.789"/><use xlink:href="#DejaVuSans-6e" x="337.068"/><use xlink:href="#DejaVuSans-79" x="400.447"/></g><g id="text_24" style="fill:#5feb16" transform="matrix(.14 0 0 -.14 624.57 292.118)"><defs><path id="DejaVuSans-52" d="M2841 2188q203-69 395-294t386-619L4263 0h-679l-596 1197q-232 469-449 622t-592 153h-688V0H628v4666h1425q800 0 1194-335 394-334 394-1009 0-441-205-732-205-290-595-402zM1259 4147V2491h794q456 0 689 211t233 620q0 409-233 617t-689 208h-794z" transform="scale(.01563)"/><path id="DejaVuSans-75" d="M544 1381v2119h575V1403q0-497 193-746 194-248 582-248 465 0 735 297 271 297 271 810v1984h575V0h-575v538q-209-319-486-474-276-155-642-155-603 0-916 375-312 375-312 1097zm1447 2203z" transform="scale(.01563)"/><path id="DejaVuSans-73" d="M2834 3397v-544q-243 125-506 187-262 63-544 63-428 0-642-131t-214-394q0-200 153-314t616-217l197-44q612-131 870-370t258-667q0-488-386-773Q2250-91 1575-91q-281 0-586 55T347 128v594q319-166 628-249 309-82 613-82 406 0 624 139 219 139 219 392 0 234-158 359-157 125-692 241l-200 47q-534 112-772 345-237 233-237 639 0 494 350 762 350 269 994 269 318 0 599-47 282-46 519-140z" transform="scale(.01563)"/></defs><use xlink:href="#DejaVuSans-52"/><use xlink:href="#DejaVuSans-75" x="64.982"/><use xlink:href="#DejaVuSans-73" x="128.361"/><use xlink:href="#DejaVuSans-73" x="180.461"/><use xlink:href="#DejaVuSans-69" x="232.561"/><use xlink:href="#DejaVuSans-61" x="260.344"/></g><g id="text_25" style="fill:#fe7b74" transform="matrix(.14 0 0 -.14 624.57 306.118)"><defs><path id="DejaVuSans-54" d="M-19 4666h3947v-532H2272V0h-634v4134H-19v532z" transform="scale(.01563)"/><path id="DejaVuSans-77" d="M269 3500h575l719-2731 715 2731h678l719-2731 716 2731h575L4050 0h-678l-753 2869L1863 0h-679L269 3500z" transform="scale(.01563)"/><path id="DejaVuSans-2a" d="m3009 3897-1121-606 1121-610-181-306-1050 634V1831h-356v1178L372 2375l-181 306 1122 610-1122 606 181 309 1050-634v1178h356V3572l1050 634 181-309z" transform="scale(.01563)"/></defs><use xlink:href="#DejaVuSans-54"/><use xlink:href="#DejaVuSans-61" x="44.584"/><use xlink:href="#DejaVuSans-69" x="105.863"/><use xlink:href="#DejaVuSans-77" x="133.646"/><use xlink:href="#DejaVuSans-61" x="215.434"/><use xlink:href="#DejaVuSans-6e" x="276.713"/><use xlink:href="#DejaVuSans-2a" x="340.092"/></g></g></g><defs><clipPath id="pdd89f00555"><path d="M49.83 7.2h558v277.2h-558z"/></clipPath></defs></svg>