<svg xmlns:xlink="http://www.w3.org/1999/xlink" width="951.91" height="419.722" viewBox="0 0 713.933 314.791" xmlns="http://www.w3.org/2000/svg"><defs><style>*{stroke-linejoin:round;stroke-linecap:butt}</style></defs><g id="figure_1"><path d="M0 314.791h713.933V0H0v314.791z" style="fill:none" id="patch_1"/><g id="axes_1"><path d="M67.645 287.042h558V9.842h-558v277.2z" style="fill:none" id="patch_2"/><g id="matplotlib.axis_1"><g id="xtick_1"><g id="line2d_1"><defs><path id="m9a26b2760a" d="M0 0v3.5" style="stroke:#b0b0b0;stroke-width:.4"/></defs><use xlink:href="#m9a26b2760a" x="107.636" y="287.042" style="fill:#b0b0b0;stroke:#b0b0b0;stroke-width:.4"/></g><g style="fill:#b0b0b0" transform="matrix(.14 0 0 -.14 78.388 304.68)" id="text_1"><defs><path id="DejaVuSans-32" d="M1228 531h2203V0H469v531q359 372 979 998 621 627 780 809 303 340 423 576 121 236 121 464 0 372-261 606-261 235-680 235-297 0-627-103-329-103-704-313v638q381 153 712 231 332 78 607 78 725 0 1156-363 431-362 431-968 0-288-108-546-107-257-392-607-78-91-497-524-418-433-1181-1211z" transform="scale(.01563)"/><path id="DejaVuSans-30" d="M2034 4250q-487 0-733-480-245-479-245-1442 0-959 245-1439 246-480 733-480 491 0 736 480 246 480 246 1439 0 963-246 1442-245 480-736 480zm0 500q785 0 1199-621 414-620 414-1801 0-1178-414-1799Q2819-91 2034-91q-784 0-1198 620-414 621-414 1799 0 1181 414 1801 414 621 1198 621z" transform="scale(.01563)"/><path id="DejaVuSans-2d" d="M313 2009h1684v-512H313v512z" transform="scale(.01563)"/><path id="DejaVuSans-34" d="M2419 4116 825 1625h1594v2491zm-166 550h794V1625h666v-525h-666V0h-628v1100H313v609l1940 2957z" transform="scale(.01563)"/></defs><use xlink:href="#DejaVuSans-32"/><use xlink:href="#DejaVuSans-30" x="63.623"/><use xlink:href="#DejaVuSans-32" x="127.246"/><use xlink:href="#DejaVuSans-30" x="190.869"/><use xlink:href="#DejaVuSans-2d" x="254.492"/><use xlink:href="#DejaVuSans-30" x="290.576"/><use xlink:href="#DejaVuSans-34" x="354.199"/></g></g><g id="xtick_2"><use xlink:href="#m9a26b2760a" x="164.498" y="287.042" style="fill:#b0b0b0;stroke:#b0b0b0;stroke-width:.4" id="line2d_2"/><g style="fill:#b0b0b0" transform="matrix(.14 0 0 -.14 135.25 304.68)" id="text_2"><defs><path id="DejaVuSans-37" d="M525 4666h3000v-269L1831 0h-659l1594 4134H525v532z" transform="scale(.01563)"/></defs><use xlink:href="#DejaVuSans-32"/><use xlink:href="#DejaVuSans-30" x="63.623"/><use xlink:href="#DejaVuSans-32" x="127.246"/><use xlink:href="#DejaVuSans-30" x="190.869"/><use xlink:href="#DejaVuSans-2d" x="254.492"/><use xlink:href="#DejaVuSans-30" x="290.576"/><use xlink:href="#DejaVuSans-37" x="354.199"/></g></g><g id="xtick_3"><use xlink:href="#m9a26b2760a" x="221.985" y="287.042" style="fill:#b0b0b0;stroke:#b0b0b0;stroke-width:.4" id="line2d_3"/><g style="fill:#b0b0b0" transform="matrix(.14 0 0 -.14 192.737 304.68)" id="text_3"><defs><path id="DejaVuSans-31" d="M794 531h1031v3560L703 3866v575l1116 225h631V531h1031V0H794v531z" transform="scale(.01563)"/></defs><use xlink:href="#DejaVuSans-32"/><use xlink:href="#DejaVuSans-30" x="63.623"/><use xlink:href="#DejaVuSans-32" x="127.246"/><use xlink:href="#DejaVuSans-30" x="190.869"/><use xlink:href="#DejaVuSans-2d" x="254.492"/><use xlink:href="#DejaVuSans-31" x="290.576"/><use xlink:href="#DejaVuSans-30" x="354.199"/></g></g><g id="xtick_4"><use xlink:href="#m9a26b2760a" x="279.473" y="287.042" style="fill:#b0b0b0;stroke:#b0b0b0;stroke-width:.4" id="line2d_4"/><g style="fill:#b0b0b0" transform="matrix(.14 0 0 -.14 250.225 304.68)" id="text_4"><use xlink:href="#DejaVuSans-32"/><use xlink:href="#DejaVuSans-30" x="63.623"/><use xlink:href="#DejaVuSans-32" x="127.246"/><use xlink:href="#DejaVuSans-31" x="190.869"/><use xlink:href="#DejaVuSans-2d" x="254.492"/><use xlink:href="#DejaVuSans-30" x="290.576"/><use xlink:href="#DejaVuSans-31" x="354.199"/></g></g><g id="xtick_5"><use xlink:href="#m9a26b2760a" x="335.71" y="287.042" style="fill:#b0b0b0;stroke:#b0b0b0;stroke-width:.4" id="line2d_5"/><g style="fill:#b0b0b0" transform="matrix(.14 0 0 -.14 306.462 304.68)" id="text_5"><use xlink:href="#DejaVuSans-32"/><use xlink:href="#DejaVuSans-30" x="63.623"/><use xlink:href="#DejaVuSans-32" x="127.246"/><use xlink:href="#DejaVuSans-31" x="190.869"/><use xlink:href="#DejaVuSans-2d" x="254.492"/><use xlink:href="#DejaVuSans-30" x="290.576"/><use xlink:href="#DejaVuSans-34" x="354.199"/></g></g><g id="xtick_6"><use xlink:href="#m9a26b2760a" x="392.572" y="287.042" style="fill:#b0b0b0;stroke:#b0b0b0;stroke-width:.4" id="line2d_6"/><g style="fill:#b0b0b0" transform="matrix(.14 0 0 -.14 363.324 304.68)" id="text_6"><use xlink:href="#DejaVuSans-32"/><use xlink:href="#DejaVuSans-30" x="63.623"/><use xlink:href="#DejaVuSans-32" x="127.246"/><use xlink:href="#DejaVuSans-31" x="190.869"/><use xlink:href="#DejaVuSans-2d" x="254.492"/><use xlink:href="#DejaVuSans-30" x="290.576"/><use xlink:href="#DejaVuSans-37" x="354.199"/></g></g><g id="xtick_7"><use xlink:href="#m9a26b2760a" x="450.059" y="287.042" style="fill:#b0b0b0;stroke:#b0b0b0;stroke-width:.4" id="line2d_7"/><g style="fill:#b0b0b0" transform="matrix(.14 0 0 -.14 420.811 304.68)" id="text_7"><use xlink:href="#DejaVuSans-32"/><use xlink:href="#DejaVuSans-30" x="63.623"/><use xlink:href="#DejaVuSans-32" x="127.246"/><use xlink:href="#DejaVuSans-31" x="190.869"/><use xlink:href="#DejaVuSans-2d" x="254.492"/><use xlink:href="#DejaVuSans-31" x="290.576"/><use xlink:href="#DejaVuSans-30" x="354.199"/></g></g><g id="xtick_8"><use xlink:href="#m9a26b2760a" x="507.546" y="287.042" style="fill:#b0b0b0;stroke:#b0b0b0;stroke-width:.4" id="line2d_8"/><g style="fill:#b0b0b0" transform="matrix(.14 0 0 -.14 478.298 304.68)" id="text_8"><use xlink:href="#DejaVuSans-32"/><use xlink:href="#DejaVuSans-30" x="63.623"/><use xlink:href="#DejaVuSans-32" x="127.246"/><use xlink:href="#DejaVuSans-32" x="190.869"/><use xlink:href="#DejaVuSans-2d" x="254.492"/><use xlink:href="#DejaVuSans-30" x="290.576"/><use xlink:href="#DejaVuSans-31" x="354.199"/></g></g><g id="xtick_9"><use xlink:href="#m9a26b2760a" x="563.784" y="287.042" style="fill:#b0b0b0;stroke:#b0b0b0;stroke-width:.4" id="line2d_9"/><g style="fill:#b0b0b0" transform="matrix(.14 0 0 -.14 534.536 304.68)" id="text_9"><use xlink:href="#DejaVuSans-32"/><use xlink:href="#DejaVuSans-30" x="63.623"/><use xlink:href="#DejaVuSans-32" x="127.246"/><use xlink:href="#DejaVuSans-32" x="190.869"/><use xlink:href="#DejaVuSans-2d" x="254.492"/><use xlink:href="#DejaVuSans-30" x="290.576"/><use xlink:href="#DejaVuSans-34" x="354.199"/></g></g><g id="xtick_10"><use xlink:href="#m9a26b2760a" x="620.646" y="287.042" style="fill:#b0b0b0;stroke:#b0b0b0;stroke-width:.4" id="line2d_10"/><g style="fill:#b0b0b0" transform="matrix(.14 0 0 -.14 591.398 304.68)" id="text_10"><use xlink:href="#DejaVuSans-32"/><use xlink:href="#DejaVuSans-30" x="63.623"/><use xlink:href="#DejaVuSans-32" x="127.246"/><use xlink:href="#DejaVuSans-32" x="190.869"/><use xlink:href="#DejaVuSans-2d" x="254.492"/><use xlink:href="#DejaVuSans-30" x="290.576"/><use xlink:href="#DejaVuSans-37" x="354.199"/></g></g></g><g id="matplotlib.axis_2"><g id="ytick_1"><path d="M67.645 287.042h558" clip-path="url(#peffe322f68)" style="fill:none;stroke:#b0b0b0;stroke-width:.3;stroke-linecap:square" id="line2d_11"/><g id="line2d_12"><defs><path id="mb9044a947a" d="M0 0h-3.5" style="stroke:#b0b0b0;stroke-width:.3"/></defs><use xlink:href="#mb9044a947a" x="67.645" y="287.042" style="fill:#b0b0b0;stroke:#b0b0b0;stroke-width:.3"/></g><use xlink:href="#DejaVuSans-30" style="fill:#b0b0b0" transform="matrix(.14 0 0 -.14 51.737 292.361)" id="text_11"/></g><g id="ytick_2"><path d="M67.645 252.727h558" clip-path="url(#peffe322f68)" style="fill:none;stroke:#b0b0b0;stroke-width:.3;stroke-linecap:square" id="line2d_13"/><use xlink:href="#mb9044a947a" x="67.645" y="252.727" style="fill:#b0b0b0;stroke:#b0b0b0;stroke-width:.3" id="line2d_14"/><g style="fill:#b0b0b0" transform="matrix(.14 0 0 -.14 7.2 258.046)" id="text_12"><use xlink:href="#DejaVuSans-31"/><use xlink:href="#DejaVuSans-30" x="63.623"/><use xlink:href="#DejaVuSans-30" x="127.246"/><use xlink:href="#DejaVuSans-30" x="190.869"/><use xlink:href="#DejaVuSans-30" x="254.492"/><use xlink:href="#DejaVuSans-30" x="318.115"/></g></g><g id="ytick_3"><path d="M67.645 218.411h558" clip-path="url(#peffe322f68)" style="fill:none;stroke:#b0b0b0;stroke-width:.3;stroke-linecap:square" id="line2d_15"/><use xlink:href="#mb9044a947a" x="67.645" y="218.411" style="fill:#b0b0b0;stroke:#b0b0b0;stroke-width:.3" id="line2d_16"/><g style="fill:#b0b0b0" transform="matrix(.14 0 0 -.14 7.2 223.73)" id="text_13"><use xlink:href="#DejaVuSans-32"/><use xlink:href="#DejaVuSans-30" x="63.623"/><use xlink:href="#DejaVuSans-30" x="127.246"/><use xlink:href="#DejaVuSans-30" x="190.869"/><use xlink:href="#DejaVuSans-30" x="254.492"/><use xlink:href="#DejaVuSans-30" x="318.115"/></g></g><g id="ytick_4"><path d="M67.645 184.096h558" clip-path="url(#peffe322f68)" style="fill:none;stroke:#b0b0b0;stroke-width:.3;stroke-linecap:square" id="line2d_17"/><use xlink:href="#mb9044a947a" x="67.645" y="184.096" style="fill:#b0b0b0;stroke:#b0b0b0;stroke-width:.3" id="line2d_18"/><g style="fill:#b0b0b0" transform="matrix(.14 0 0 -.14 7.2 189.415)" id="text_14"><defs><path id="DejaVuSans-33" d="M2597 2516q453-97 707-404 255-306 255-756 0-690-475-1069Q2609-91 1734-91q-293 0-604 58T488 141v609q262-153 574-231 313-78 654-78 593 0 904 234t311 681q0 413-289 645-289 233-804 233h-544v519h569q465 0 712 186t247 536q0 359-255 551-254 193-729 193-260 0-557-57-297-56-653-174v562q360 100 674 150t592 50q719 0 1137-327 419-326 419-882 0-388-222-655t-631-370z" transform="scale(.01563)"/></defs><use xlink:href="#DejaVuSans-33"/><use xlink:href="#DejaVuSans-30" x="63.623"/><use xlink:href="#DejaVuSans-30" x="127.246"/><use xlink:href="#DejaVuSans-30" x="190.869"/><use xlink:href="#DejaVuSans-30" x="254.492"/><use xlink:href="#DejaVuSans-30" x="318.115"/></g></g><g id="ytick_5"><path d="M67.645 149.78h558" clip-path="url(#peffe322f68)" style="fill:none;stroke:#b0b0b0;stroke-width:.3;stroke-linecap:square" id="line2d_19"/><use xlink:href="#mb9044a947a" x="67.645" y="149.78" style="fill:#b0b0b0;stroke:#b0b0b0;stroke-width:.3" id="line2d_20"/><g style="fill:#b0b0b0" transform="matrix(.14 0 0 -.14 7.2 155.1)" id="text_15"><use xlink:href="#DejaVuSans-34"/><use xlink:href="#DejaVuSans-30" x="63.623"/><use xlink:href="#DejaVuSans-30" x="127.246"/><use xlink:href="#DejaVuSans-30" x="190.869"/><use xlink:href="#DejaVuSans-30" x="254.492"/><use xlink:href="#DejaVuSans-30" x="318.115"/></g></g><g id="ytick_6"><path d="M67.645 115.465h558" clip-path="url(#peffe322f68)" style="fill:none;stroke:#b0b0b0;stroke-width:.3;stroke-linecap:square" id="line2d_21"/><use xlink:href="#mb9044a947a" x="67.645" y="115.465" style="fill:#b0b0b0;stroke:#b0b0b0;stroke-width:.3" id="line2d_22"/><g style="fill:#b0b0b0" transform="matrix(.14 0 0 -.14 7.2 120.784)" id="text_16"><defs><path id="DejaVuSans-35" d="M691 4666h2478v-532H1269V2991q137 47 274 70 138 23 276 23 781 0 1237-428 457-428 457-1159 0-753-469-1171Q2575-91 1722-91q-294 0-599 50Q819 9 494 109v635q281-153 581-228t634-75q541 0 856 284 316 284 316 772 0 487-316 771-315 285-856 285-253 0-505-56-251-56-513-175v2344z" transform="scale(.01563)"/></defs><use xlink:href="#DejaVuSans-35"/><use xlink:href="#DejaVuSans-30" x="63.623"/><use xlink:href="#DejaVuSans-30" x="127.246"/><use xlink:href="#DejaVuSans-30" x="190.869"/><use xlink:href="#DejaVuSans-30" x="254.492"/><use xlink:href="#DejaVuSans-30" x="318.115"/></g></g><g id="ytick_7"><path d="M67.645 81.15h558" clip-path="url(#peffe322f68)" style="fill:none;stroke:#b0b0b0;stroke-width:.3;stroke-linecap:square" id="line2d_23"/><use xlink:href="#mb9044a947a" x="67.645" y="81.15" style="fill:#b0b0b0;stroke:#b0b0b0;stroke-width:.3" id="line2d_24"/><g style="fill:#b0b0b0" transform="matrix(.14 0 0 -.14 7.2 86.469)" id="text_17"><defs><path id="DejaVuSans-36" d="M2113 2584q-425 0-674-291-248-290-248-796 0-503 248-796 249-292 674-292t673 292q248 293 248 796 0 506-248 796-248 291-673 291zm1253 1979v-575q-238 112-480 171-242 60-480 60-625 0-955-422-329-422-376-1275 184 272 462 417 279 145 613 145 703 0 1111-427 408-426 408-1160 0-719-425-1154Q2819-91 2113-91q-810 0-1238 620-428 621-428 1799 0 1106 525 1764t1409 658q238 0 480-47t505-140z" transform="scale(.01563)"/></defs><use xlink:href="#DejaVuSans-36"/><use xlink:href="#DejaVuSans-30" x="63.623"/><use xlink:href="#DejaVuSans-30" x="127.246"/><use xlink:href="#DejaVuSans-30" x="190.869"/><use xlink:href="#DejaVuSans-30" x="254.492"/><use xlink:href="#DejaVuSans-30" x="318.115"/></g></g><g id="ytick_8"><path d="M67.645 46.834h558" clip-path="url(#peffe322f68)" style="fill:none;stroke:#b0b0b0;stroke-width:.3;stroke-linecap:square" id="line2d_25"/><use xlink:href="#mb9044a947a" x="67.645" y="46.834" style="fill:#b0b0b0;stroke:#b0b0b0;stroke-width:.3" id="line2d_26"/><g style="fill:#b0b0b0" transform="matrix(.14 0 0 -.14 7.2 52.153)" id="text_18"><use xlink:href="#DejaVuSans-37"/><use xlink:href="#DejaVuSans-30" x="63.623"/><use xlink:href="#DejaVuSans-30" x="127.246"/><use xlink:href="#DejaVuSans-30" x="190.869"/><use xlink:href="#DejaVuSans-30" x="254.492"/><use xlink:href="#DejaVuSans-30" x="318.115"/></g></g><g id="ytick_9"><path d="M67.645 12.519h558" clip-path="url(#peffe322f68)" style="fill:none;stroke:#b0b0b0;stroke-width:.3;stroke-linecap:square" id="line2d_27"/><use xlink:href="#mb9044a947a" x="67.645" y="12.519" style="fill:#b0b0b0;stroke:#b0b0b0;stroke-width:.3" id="line2d_28"/><g style="fill:#b0b0b0" transform="matrix(.14 0 0 -.14 7.2 17.838)" id="text_19"><defs><path id="DejaVuSans-38" d="M2034 2216q-450 0-708-241-257-241-257-662 0-422 257-663 258-241 708-241t709 242q260 243 260 662 0 421-258 662-257 241-711 241zm-631 268q-406 100-633 378-226 279-226 679 0 559 398 884 399 325 1092 325 697 0 1094-325t397-884q0-400-227-679-226-278-629-378 456-106 710-416 255-309 255-755 0-679-414-1042Q2806-91 2034-91q-771 0-1186 362-414 363-414 1042 0 446 256 755 257 310 713 416zm-231 997q0-362 226-565 227-203 636-203 407 0 636 203 230 203 230 565 0 363-230 566-229 203-636 203-409 0-636-203-226-203-226-566z" transform="scale(.01563)"/></defs><use xlink:href="#DejaVuSans-38"/><use xlink:href="#DejaVuSans-30" x="63.623"/><use xlink:href="#DejaVuSans-30" x="127.246"/><use xlink:href="#DejaVuSans-30" x="190.869"/><use xlink:href="#DejaVuSans-30" x="254.492"/><use xlink:href="#DejaVuSans-30" x="318.115"/></g></g></g><path d="m67.645 287.042 27.494-.091 4.374-.334 1.25-.064 1.874-.23 1.875-.275.625-.145 1.25-.063.624-.264.625-.093.625.09.625-.07.625 1.064 1.25.17.624.305h1.875l.625-.523.625-2.446.624-.024.625-1.026.625.032.625-.431 1.25-.132.625 2.434.624.034.625.725.625.069.625.7.625-.045 1.25.127 1.25-.084.624.16.625-.144 1.25.156.625.013 1.25.252.624-.274 9.998.28 4.999-.15 1.874.008.625.167 1.25-.05 1.25.055 1.25-.052.624-.19.625.197 6.874-.016 23.744-.17 6.874-.216 2.5-.143 1.249-.302.625.202 1.874-.197 1.875-.197 1.25-.138.624.171.625-.315 1.25-.228 1.875-.161.624-.334.625.201 1.25-.214 6.874-.79.624-.024 1.875-.496.625.039 1.25-.256.624-.278 1.25-.173 1.25.056.625.101.625-.055 1.25.321 3.124-.657.624-.214 1.25-.92 2.5-.656.624-.606 1.25-.493.625-.679 1.875-.798.624-.542.625-.843.625-.644.625 1.138.625-2.878.625-.69.625-.498 1.25-.61.624.498 1.25-3.56.625-1.87.625 4.101 1.25-1.11.624-2.528.625.373.625 4.15.625 2.451.625-4.045.625 1.238.624 1.805.625 2.681 1.25 1.115.625-1.127.625.371.625.577.624.043 1.25 1.39.625.244.625 1.75.625.592.625.382.624.514 1.25.42 1.25.109.625.124 3.124.038.625-.274 1.874-.173 1.875-.07.625.114 3.75-.86.624-.006.625.134 1.25-.378.624.703 1.25.335.625.018.625-.565 1.25.129.624-.019.625-.177.625-.048.625-.458.625.065 1.25-.111.624-.82.625-.168 4.374-.018h.625l1.25-.347 1.874-.297 1.25-.113 1.25.083 1.25-.05 1.874-.045 1.25-.032.625 1.166.625-1.097.625.17 1.25-.017.624.212.625.049.625-1.033.625 1.221.625-.031.624.149 2.5-.084 1.874-.487 1.25-.042.625-.318 1.25-.195.625-.085 1.25.099.624-.132.625.232 3.75-.023 2.499-.666.624-.227.625-.045 1.875-1.112.625-.492 1.874-.938.625.752.625-1.318.625-.519 1.875-1.005.624.328.625-.785.625.31 1.25-.48.625 2.08.625-2.132.624-.083.625 1.112.625 2.849.625-2.273.625 2.28.625-.06.625-1.827.624.11.625-1.523.625-2.088.625 2.892 1.25-3.468.625 4.34.624.09.625-.243.625.42 2.5.827.624.037.625.674.625.166 1.875 1.072.625.715.624.107 2.5 1.053.625.24 1.25.062 1.25.446.624.11.625.593.625.25.625-.24.625-.003 1.25.245.624 4.7h3.75l.624-3.293 2.5.273.624-.328.625.554.625-.08 1.875.622.625-.04.624.188.625-.207.625.543 1.875.391.625.023 1.874.379 6.874.346 1.25-.012 4.373-.313 3.75-.535.624.13 2.5-1.348.625-.144.625-.552.624-.986 1.875-1.68 1.25-.192 1.25-.748 1.25-.403.624.092 1.25-.375.625.138 3.124-.343.625.068 1.25-.4 1.25-.232 1.249.03.625-.303 4.374 1.314.625-.04 1.25.59.624 1.103.625-.633.625.18.625.01.625 1.27.625-.462.624.27.625-.723.625 1.093 1.25.385.625-.712.625 1.334.624-.195 1.25.431 1.25.155.625.005 1.25.455 3.124.614.625-.33.624.346 7.499.652.625-.17 3.749.036.625.398.625-.218 1.25-.076 1.874.015.625-.22.625.166 2.499-.15 4.374-.22.625.229 2.5-.558 1.249-.126.625-.512 1.25-.24.624.255 1.25-.44.625-.051 1.875-1.152.624-.852 1.25-.75.625-.099 1.25-1.122 2.5-2.575.624-.157 2.5-3.181.624-.705.625-.518.625-.151 1.25-1.114.625-.414.625-.26 1.25-.203.624-.023 3.75-1.224.624-.148.625-.464.625-.912 1.25-3.27.624-2.259.625 1.019.625-.753 1.25-11.315.625-5.633 1.25-12.382.624-1.507.625-1.814.625-4.519.625-6.083.625-2.763 1.25-8.852.624-11.651.625-1.297.625-4.747.625-1.45.625-2.23.625-.073.624-1.026.625.88.625-.427.625-4.728.625-3.661.625-5.83 1.25-6.688.624-1.153.625-.335.625-1.866.625.433.625 1.653.625 2.311 1.25 5.349.624 1.03.625 4.345 3.124 27.043.625 1.941.625 8.63.625 15.393.625-2.84 1.25 9.987.624 3.377.625.796.625 11.604.625-11.807.625 11.8 1.25 4.437.624 1.35.625.595.625-4.685.625 8.303 1.875 3.672.624.805.625.231 1.25 1.583.625.354 1.25.016 1.25-.161 2.499-2.553 1.25-1.497.624-.31.625-1.16.625-1.894 1.875-3.903.625-1.09.624-.094.625-3.128 1.875-6.336.625-2.03.625-1.417.624-.258.625-1.789.625-.733.625-1.43.625-.267 1.25.75.624-.113.625.389.625.888.625.522.625.003.625-.474.625-.264.624.322.625.931.625.22 1.25 2.21.625 1.48.625 1.03.624.28.625 8.102.625-.455 2.5 6.33.624.282.625-3.53.625 4.314.625 2.156 1.25 3.266.625 1.09.625.26.624 1.49 1.25 1.734 1.25 1.19.625.362.625.069.624.522 3.125 1.819.625.069.624.624.625-1.171 2.5 1.5.625 1.744.624.561.625 2.076.625.324.625.957 1.25-.026.625-1.683 1.874-.557.625-.996.625-.077.625-.202.625-.076.624 1.153.625-1.357.625-.725 1.875 3.473.625.304.624-8.086.625.092.625-.634.625-2.477 1.25-.004.625-4.998.625 3.975 1.874-3.994h1.25l1.25-5.648 1.874-7.157h1.25l.625-3.849.625-2.922 1.25-2.836.624-.791h.625" clip-path="url(#peffe322f68)" style="fill:none;stroke:#0309a6;stroke-width:1.5;stroke-linecap:square" id="line2d_29"/><path d="m67.645 287.042 28.119-.097 2.5-.184 1.249-.311 1.874-.964 2.5-2.022.625-.6.625-.792.624-.354.625-.54 2.5-3.091.625-.475.624-.643.625-.472.625-.179.625.006 1.25-.256 2.5.598 1.249.546 1.875.18.624-.145.625.11 1.25-.309.625.056.625-.175.625-.027.624.266 1.25.222.625.111.625-.143 1.25.313 1.874.185.625.096.625.378.625.113 1.25.476.624.031.625.22 1.875.224.625.001.624-.158.625.14.625-.137 1.25.086.625.19.625-.071 2.5.634 1.874-.142.625.062 1.25-.086.624-.327.625-.067 1.25.192 1.25.034.624-.125.625.277.625.043.625-.19.625-.053 1.874-.67 2.5-1.277.625-.431.624-.695 1.25-.994.625-.882.625-.438.625-.837 1.874-1.739.625-.767.625-.12.625-.255.625-.53.625-.091.624-.363.625-.548.625-.231 1.25-1.562.625-.314.625-.794 1.874-1.24.625.117.625-.19.625.058 1.874-.262.625.143.625-.425.625.006 2.5.53.624-.066.625.518 1.25.752.625.885.625.155 1.25.924.624.196 1.25-.663.625-.487.625.23.624-.043.625.418.625-.468.625.566.625.96 1.25 1.267.624.459.625.32.625 1.104.625.33 2.5.623.624-.264 1.875.072 1.874.165.625.264 1.25-.117.625.245.625.432.625.747 1.25.589.624.182.625-.097.625-.547 1.875-1.132 1.25-.56 2.499-.103 1.25-.313 1.25.259.624.384 1.25-.464 1.25.251 1.25-.59 1.249.05.625-.123 1.25-1.086.624-.08.625-.298.625-.675 1.25-.505.625-.456.624-.277.625-.74.625.026.625-.258.625-1.265.625-.57.625-.11.624-.789.625-.563.625-1.154.625-.432.625.163.625-.759.625-1.263.625-.573.624-.891.625-.44 1.25-1.671.625-2.331.625-.676.625-1.803.624-1.334 1.875-5.721.625-.578.625-2.325.625-1.506.624-2.571.625-1.814.625-.982.625-1.771 2.5-5.297.624-.773.625-.336.625-1.394 1.25-.84.625 3.678.624-.635.625.568.625.306.625 1.304.625-1.155.625-.782.625-5.048.624-1.016.625-2.637 1.25-3.898.625-1.468 1.25-1.793 1.25-.297 1.25-1.305.624.036.625-.921.625-.162.625-.444.624.916.625.216.625.636.625.999.625.655.625 1.338.625 5.92.624-.567.625 2.511.625 1.155.625-.002.625.154.625-5.007 1.25-5.224.624-3.306.625-.598.625-1.318.625-2.033.625 1.414.625-6.135.624.37.625-.365.625-.906.625.542.625 1.492 1.874 7.685.625 1.681 1.25 6.278 1.25 4.165.625 2.61 1.25 3.721.624.55.625.29.625 1.564 1.874 3.974.625 1.338.625.21 3.125 8.505.624 1.149.625 2.084.625 1.061.625 1.426.625.895 1.25 2.776.624 1.036.625 1.34.625 1.773.625 1.296.625 1.676.625 1.247.625.832.624.64.625-.002.625-.718 1.25-.533.625-.013 1.25.294.624.247.625.757 2.5 1.672.624.498.625.311.625.143 1.25.806 1.25.465.624.114.625-.34.625.07 1.25-.103.625.048.625-.1 1.25.367.624.06.625-1.397.625-.257.625-.722.625-.255.625-.536.624-.904.625-.433.625.893.625-.452.625.115.625-.04.625.411 1.25-.115.624-.306.625-.158.625-.526.625-.277.625-.467.624.24.625-.883.625.009.625.298.625.063.625.737 1.25.356.624.902.625.552.625.356.625 1.01.625.025.625.444.624.797 1.25.947.625.387 1.875.745.624-.115 1.25.909 1.875 1.738.625.377.624.6 3.125 1.757 1.25.604 1.874 1.06.625.657.625.467 3.124.98 1.875 1.025.625.765.624.183 1.25.8.625.215.625-.112.625.065.625-.382.624.383.625-.09.625.177.625-.357.625.315 1.25.149.624.113.625.327 1.875.347 2.5.036 1.874-.316.625.016.625-.149.624.163 1.875-.416.625.194.625.017.625.23.625-.727 1.25-.518.624-.874.625-.23.625-.367.625-1.005.625-.209 1.25-1.08.624-1.496.625-.196.625-.42.625-.952.625-.647.624-.815.625-1.204.625-2.093.625-.717.625-.375 1.25-2.736.624-1.266.625-.786.625-3.463 1.25-1.556 1.874-4.442.625-1.82.625-2.964.625-.937.625.475.625-2.521.625-.983.624-2.55.625-1.685.625 1.23 1.25-1.078 1.25-3.302 2.5-2.73.624.127.625-.68.625-.19.625-.557.624-1.4.625.02.625.652.625-.382.625-1.03.625-1.25.625-.565 1.25.386.624-.344.625-.564.625 6.642.625-1.432 1.25 1.29.624-.322.625-.158.625.743.625-5.738.625 3.126.625.18.624.375.625 1.527.625.694.625.17.625 1.911.625 1.16.625 2.054.624 1.452.625 1.769.625.71.625-.463.625.777 1.25.929 1.25 1.898 1.874 1.709.625.859 1.25.886.624 1.148.625.46.625.25.625 2.296.625-.753.625.182.625.714.624 1.075.625-.046.625.392.625-.141.625 1.406.625.826.625.434.624.664.625.36.625.613.625-.668.625.748.625-.536 1.25.188.624-.092.625-.645 1.25-.136.625.832.625-.311 1.874-.335.625.123 1.25-.935.625 1.166.624-2.287.625-.446.625.241.625-1.141.625-.437.625-.872.625-2.558.624.816.625-.07 1.875-1.106.625.062 1.25 7.058.624.922.625-.162.625-2.044 1.25-2.514 1.25-10.036.624-1.951.625-.59.625.422.625.188.625-.627.625.702.625.02.624.478.625.14.625-.382.625.022.625.199.625-.843.625-1.688.624-1.136.625-1.809.625-2.674.625-3.265.625-4.799.625-6.276.625-2.74.624-.338.625-4.372.625-12.771.625-8.952.625-12.666 1.25-28.73 1.25-10.278 1.249-48.758.625-7.869.625-11.976.625-17.458 1.25-20 .624-16.614.625 1.217.625-9.117.625-1.291 1.25-1.025.624.257.625 34.745.625-16.77.625-2.917.625 6.311.625 1.911 1.25 10.793.624-12.11.625 31.198 1.875 33.461.625 6.073.624 8.21.625 18.563.625 8.195.625 17.01 1.25 24.054.625 4.519.624 5.612.625 9.615.625 5.454.625 6.935.625 5.084.625 7.167.625 1.695.624 1.233.625 8.664.625 5.064 1.875 10.193.625 1.003.624 1.731.625 4.289.625 1.07 1.25 3.161.625 3.474.625-.785.624.235.625-.775.625 2.1.625 1.552.625.906.625 1.135.625 1.593.624.285.625 1.704 1.25 1.606 2.5.475.624 1.408.625.266 1.25-.735.625.9 1.25-.053.624-.337.625-.009.625.252.625.5.625-.74 3.124.325.625-.13.625.696.625-.116.625.345.624.493 1.25-.16.625-.245.625-2.099.625-.045.625-.234 1.874-1.765.625-.004.625 1.942 1.25.117.624-1.035.625-.173 1.25-1.204.625-2.68 2.5-1.387.624-1.035.625-.768.625 1.413 1.25-.367.625-1.202.624-.21.625-1.08.625-.553.625-3.315.625-.189.625.536.625-1.736.624-1.015.625-2.364.625-1.249.625 2.028.625.527.625-1.292.625-2.386.624-.703.625-2.136.625-1.039.625-3.025.625-.482.625.615.625 1.775.624.076.625-.31.625-.508.625 2.01 1.25 1.37.625 4.01.624-4.283.625-.854.625 1.166.625-2.43.625-.672.625-.445.625-5.002.624 4.103.625 1.385.625-1.04.625 2.453.625-.37.625-.083.625.407.624-.161 1.25 1.343.625-1.55.625.86.625-.017.625 2.84.625-1.062.624-.023.625-.935.625 1.07.625-1.122.625-.185.625-3.234.625.769.624-.19.625-.847.625-1.87 1.25 2.154.625 4.125.625-2.349.624-.376.625 2.345.625-.517.625-.328h0" clip-path="url(#peffe322f68)" style="fill:none;stroke:#7516fd;stroke-width:1.5;stroke-linecap:square" id="line2d_30"/><path d="m67.645 287.042 21.87-.107 3.75-.243 1.249-.11 4.999-.81 1.874-.416 2.5-.253 2.5.085 5.623.44 12.497.554 3.125.22 13.122.423 19.995.141 3.124-.01 3.75.018 26.869-.099 4.374-.153 3.749-.117 19.995-.233 3.75-.359 4.373-1.089 2.5-1.02.625-.244 2.5-1.617 3.124-2.397 1.25-1.179.624-.423 1.875-.836 1.874-1.1 1.25-.281.625-.336 1.874-.44.625.125 1.25-.17.625.143.625-.065 1.25.268.624.122 1.875.933 3.124 1.992.625.321 1.25.442 1.874.75 1.25.218.625.22 1.25.696.624.264 2.5.184.625-.236.625-.06 1.874.477 1.25.132.625.18.625.009.625-.179 1.25.592 1.249.215.625-.112 1.25-.422.624-.07.625-.26 1.25-.313.625-.202 1.25.477.624-.4.625-.214.625-.085.625.056.625.223 1.25.125.624.18 1.25.48 1.875.448 1.874.314 1.875-.07 2.5.036 4.373.124 8.124-.063 1.874-.372 1.25-.512 1.874-.637 5.624-1.453 1.25-.208 1.25-.254 3.749-.075 1.25.165.624-.453 3.125.312.625.021.624.569.625.132.625-.13 2.5.384.624.109 1.875 1.15 2.5.484.624-.278.625-.122.625.013 1.875.403 3.124.328 1.25.053 1.874.125 3.75.573 3.124.582 1.25.149 6.873 1.401 3.749.421 4.999.448 13.122.583 6.873-.03 5-.265 3.748-.503 2.5-.415 7.498-.506 8.123-.162 2.5-.043 2.5-.086 12.496.686 4.374.268 5.624.24 4.374.141 3.125.073 3.124-.019 12.497-.978 1.875-.437 8.123-1.206 2.5-.53 1.874-.338 4.374-.96.625.21 2.5-.75 1.249-.499.625-.666 1.25-.742 1.25-.421.624-.496.625-.644 1.25-1.984.624-1.31.625-.028.625-.716.625-2.33.625-3.023 1.25-8.632.624-4.239 1.25-3.603 1.875-13.532.625 1.763.624-2.759.625-4.633 1.25-4.855.625-.35.625 1.71.625-4.539.624.226.625-.09.625 1.668.625-.373.625-.233.625-.7 1.874 2.247.625.28.625.826.625 1.472 1.875 6.078.624 1.881.625.983.625 3.822 1.25 4.642 1.25 4.299.624 1.233.625.786.625 1.514 1.875 5.286 1.25 2.822.624.63.625 1.539 1.25 1.958 1.25 1.241.624.497.625.21 3.75 3.208.624.304 1.25 1.187 1.25.423 1.25-.295.624-.215 3.75-3.978.624-.345 2.5-4.992.625-1.031.625-.566.624-.184.625-.514.625-.206.625-.014 1.875.21.624.092.625-.166 1.25.747.625-.032.625.157.625.275.624.011.625.558.625.075.625.208 1.25.803 1.25.182.624.239.625.357 1.25.484 1.25.076.624.496.625 2.78.625-1.855 1.875-1.388 1.874-.684.625.589.625.292 1.25 1.537.625.748.625.305.624-1.59.625 2 .625 1.045 1.25 1.385.625.508.625.081 3.124 1.48 1.25.35 3.749 3.214.625.184.624.695.625.333.625.483 1.875.675.625.107 1.25.556.624.154.625.595.625-.205 1.25-.057 1.874-.675.625-.604.625.017 1.25-.286 1.874-1.702 1.875-2.04.625-.306 1.874-3.228 1.875-2.805.625-.398.625-1.024.624-1.99 1.25-2.808 1.25-2.582.625-.581.625-2.395.624-.714.625-1.184 1.25-1.369h0" clip-path="url(#peffe322f68)" style="fill:none;stroke:#1007e1;stroke-width:1.5;stroke-linecap:square" id="line2d_31"/><path d="m67.645 287.042 27.494-.099 3.749-.226 3.75-.67 3.123-.669 5-.203 2.499.209 4.999.688 4.374.235 8.748.4 26.869.16 3.749-.026 4.999.062 14.372-.052 19.37-.273 3.75.06 4.998-.048 16.247-.375 4.998-.696 5-1.16 1.25-.612 1.249-.436 1.874-.995 1.875-.527 1.25-.304 2.5-.599 3.748-.27.625-.045 1.25.17 1.25.008 4.374.034 4.374.22 1.25-.112 1.249-.211.625-.022 1.874-.57.625-.25 1.875-.336.625-.338 2.5-.617.624-.014.625-.25.625.147.625-.259.625.404.624.826.625.442 1.875.715.625-.017 2.5.438 1.249.109.625.302.625-.438.624-.588.625-.325 1.25-.175 1.25.14.625.466.624.295 2.5.66 1.25.455 1.25.19.624.02 1.25.38 3.124.635.625.015 1.25.335 2.5.323 3.748.786 5-.068 1.874-.105 2.5-.101 5.623-.119 4.999-1.017 1.25-.393 1.25-.198 1.25-.215 1.874-.671 1.25-.275 1.874-.242.625-.016.625.115.625.244 1.25.198.624.362.625.19.625-.175 1.874-.802.625-.193 1.25-1.031 2.5.02.624.059.625-.157 4.374-.008 1.875.61 1.874.426 3.125.966 1.874.332.625.222 1.875.936 1.25.168 1.874.567 1.25.127 1.25.247 1.25.706 3.123.33.625-.113.625.082 1.25.36 3.749.329 2.5.12 2.499.286 4.999.143 8.123-.016 5.624-.18 14.371-.65 8.124-1.4 2.5-.61 5.623-.504 1.874-.134 2.5.16 1.25.073 1.874.332 1.25.087 3.749.414 1.875-.006 1.874-.154 1.25.075 1.874.006 5-.22 1.874-.2.625-.09 3.749-1.402.625-.182.625-.304.625-.586 1.874-.718.625-.151.625-.017.625.138.625-.29 1.25-1.221 1.249-.613.625-.54 1.25-1.742 1.874-1.596 1.25-.897 1.25-1.389.624-.212.625-.924 1.875-1.448.625-.69.625-.519.624-1.149 1.25-.239 1.25.042.625-.015 2.5.48.624.074.625.475.625-.118.625.127 1.25 1.17.624.462 1.25.556.625.897.625.683 1.25 1.04.624.16 1.875.917.625.576.625.762 1.25 1.953 1.249.222.625.275.625.106 1.25-.49 1.25-.344.624-.465 1.875-2.722 1.25-2.624.624-.33.625-.742 1.25-1.892.625-1.76.624-1.084.625-.782.625-.436 1.25-2.971 1.875-7.721 1.25-3.048 1.249-5.11.625-3.412 1.25-5.083.624-1.644.625-.731.625-1.748.625-2.182.625-1.617.625-2.877.625-1.404 1.25-1.527.624-.342.625-1.262.625-.576 1.874 1.212.625.921.625.508 1.25 1.3 1.25 2 .624.35.625.127.625 1.633.625.535.625.947.625.456 1.25 1.146.624.565.625.186.625 1.11.625.277.625-.336.625-.803.624-.44.625-.788 1.25-3.144.625-2.553.625-1.728.625-2.2.625-1.456.624-.684 2.5-8.139.625-1.135.625.727.624.003 1.875-3.323.625.066.625.402 1.25 2.225.624-.749.625.748.625-10.25.625 14.537.625 2.724.625-.194 1.25 6.102.624-7.267.625 17.266.625-7.389.625 6.912.625 4.137.624-9.826.625 2.046.625 12.322.625.902.625 5.544.625.77.625.505.624 8.723.625-2.938.625-1.027.625-.238.625-4.78 1.25.05.624-5.605.625 9.735.625-4.188.625 2.946.625 2.343.625 1.346.625.787.625 1.14.624-5.226.625 8.608 1.25 1.548.625.158.625.034.625.292 1.25.824.624.788.625.51 1.25.166 1.25 2.268.624 1.483 1.25 1.94 1.25.166 1.874 3.124.625 2.307 1.25.172 1.25.15.624-.286.625-.431.625-2.002.625-.055.625.133.625-.128.625 2.948 2.5-5.798 1.249-.098.625-5.103.624-.377.625-.564.625 2.44.625-.732 1.25-.077.625-.846 1.25-2.8.624-3.924.625-.445h.625l.625.301.625-.943 1.25-1.374.624-.24.625-.458 1.25-.077.625-.253.625.158 1.25-.36.624.134h.625" clip-path="url(#peffe322f68)" style="fill:none;stroke:#d8b009;stroke-width:1.5;stroke-linecap:square" id="line2d_32"/><path d="m67.645 287.042 35.617-.107 5.624-.17 5.624-.265 3.124-.146 1.25-.119 4.374-.391 1.25-.28 1.249-.343 3.124-.249.625-.23.625-.082 1.25-.508 1.874-.187.625-.037 2.5-.728 1.25-.75.624-.53 2.5-1.003 1.874.206.625-.5.625-.25.625-.75.625.06.625-.114.624-.753 1.25-.465.625-.256.625.418.625-.233 1.25-.109.624-.377.625.16.625.383 1.25.184 1.25-.616 1.25.296.624-1.558.625-2.073.625 1.794 1.25-.3.624-.496.625-.782.625.548.625 1.304.625-2.582.625.326.624-.008.625-.284.625-.144 1.25.255.625.377.625-.142.624-.345 1.25.148 1.25-.13 1.874.337.625.25.625-.035 1.25.926 1.25.02.625-.197.624-1.275.625-.669 1.25-2.16.625.036 1.25-.605.624.525.625-.036 1.25.472.625-.068.625.387 1.25-.146 1.25.388.624-.238.625.066.625-.314.625.283.624.06.625-.33h.625l.625.466.625-.014 1.25.165.624.311 1.25 1.707.625-.442 3.124.3.625-.576 1.25.782.625-1.31 1.25.181.624-.223 1.25.391.625-.006.625 1.995.625 1.252.625.46.624.296.625-.098.625.15.625.032.625-.544.625-.773.625-.01.624.214 1.25.149.625-.07.625.146.625-.02 1.25.439 1.25.601 2.499.214.624-.185 1.25.06.625.248.625-.45 1.25.16.624.44.625.249.625-.036.625-.17 1.25 1.744.625.151.624-.176.625-.042.625.145.625.007 1.25-.9.625.098.624.278.625-.07.625-.205 1.25-.11.625-.305 1.25-.217.624.277.625.58.625.1.625.508.625.755 1.25.387.624.204.625-.225.625-.015.625-.253.625-1.561.625-.144.625-.494.624-.907.625-.419 1.25-.28.625.535.625-.417 2.5-.488.624-.118.625.047.625-.485.625-.246.624.258.625-1.042.625-.152.625-.271.625-.856.625-.188.625-.454.624-.694.625.55 1.25-.43.625.206.625-.3 1.874-.507.625.216 1.25-.029.625-.565.625-.743.625-.015.624-.29 1.25-.133.625-.423.625 1.002.625.514 1.25 3.058.624.337 1.25.024.625-.486.625.183.625-.086 1.874.246.625-.084.625-.339 1.874-5.205.625-.58 1.25-.591.625.131.625.963 1.25-.812.624-.117 1.25.2.625-.228.625.46.625.612.624.008.625.142 1.25-.052 1.25-.103.625-.142.624.254 1.25.13.625.261.625.508.625.18 1.25.716 1.874.328.625-.328 1.25.307.625.07.624-.223.625.136.625-.69.625.681.625.007.625-.158.625-.368.624.06.625-.296.625.084 1.25-1.616.625-.551 1.874-.905.625.19 1.875-1.194.625-.416.624-2.369.625.186 1.25-.988.625-.052.625-.488.625-.169.624 1.875.625-.38.625-.703.625-.352.625-.532.625-.284 1.25-.334.624-.571.625.021.625-.11.625-.507.625.388.625-.419.625.024.624.655.625-.06.625.106 1.25 1.052.625 2.076.625.718 2.499.024.625-.918.625-1.334.625-.336 1.25.27 1.249 1.542.625.182.625-.098.625.016.624.154.625.49.625.031.625 1.131.625.74 1.874.692 1.25-.318.625-1.005.625-.134 1.25.483.624-.324.625.31.625.044 2.5-.755.624.131 1.25-.022.625-.379.625-.052 1.25-.512.625.035 1.874-.592 1.25.036 2.5-.1 1.249 2.04.625-.39.625-.146.625.043.624-.239.625-.786.625-.565.625.525.625.696.625.054.625-.152.624 1.137.625.56.625-.744.625-2.115.625-.594.625.165.625-.146.624-1.54.625-.082.625.723.625-.448.625-.204.625-.372.625-.133.624-1.82.625.448.625-.006 1.25 1.845 1.25 1.273.624 2.858.625 1.483.625.76.625.562 1.25.66 1.25.411.624-.344 3.125 1.8.625.644 1.25-.107.624.761.625-.24 1.25.239.625.854.624.012.625.28.625-3.147.625.705.625-.074.625-.23.625-.61 1.25.792.624 3.272 1.875.002.625.543.624.32.625.09 1.25-.33.625.316.625.163.625-.145 1.25.428 1.25.975.624.007 1.25-.304.624-.232 1.25-.067.625.195.625-.009.625.125.625.353.625.5 1.874.682 1.25.271 1.874.642 1.25.332.625-.069.625.13 1.25 1.215.624-.284 1.25.672.625.236 1.875.12.624-.128.625-.926.625-5.447 1.875-.184.625-.947.624.516.625.818.625 5.442 1.875-.061.625.77.624.145 1.875.087.625-.106.625-.258.625-.082.624.36 1.875-.106.625.222.625.725.625.5.625-.031 1.874.564.625-.114 1.25-.648.625-.086.624.044.625-.105 1.875.149.625-.07.625.162 2.499.207.625.364 1.874.046 1.875-.145.625-.289.625.066 1.25-.191 1.874.358.625.257 1.25.295 1.25.165 1.25-.107.624-.288 3.124.143.625-.017 1.25.105 2.5.017 1.249-.068 1.25.262 2.5.716 1.874.78.625.132 4.998.116 1.25-.384 1.25-.581 1.25-.753.624-.005.625.155.625-.23.625-.497.625-.641.625-1.138 1.25-4.835.624-1.365.625-1.092.625-2.651 1.25-6.233.625-2.344.624.036.625-.177.625-1.983.625-3.29.625-5.277 1.25-6.474.625-5.713.624-4.388.625-.65.625-2.938.625-1.09.625-2.937.625-4.387.625-1.985.624.9.625-.748 1.25 2.982.625-2.816 2.5 8.119.624-.306.625.321.625 6.104.625 2.685.625 1.135.624.159.625.502.625 2.563 2.5 6.907 1.25 1.808.624 1.064.625.547.625 1.187 1.25 3.771.624.666.625 1.005.625 3.981.625 5.086.625 1.75.625.935.625.35.624.564.625-.075.625-2.56.625-.888.625-.046 1.25 1.584.625.094.624.235.625 1.215.625-.095.625.836.625.1.625.4.625.021.624.208.625.4.625.049.625.335.625.872.625.505 1.25.348 1.25 1.241 1.249.662.625.601.625.168.624-.228.625.129 1.25.56 1.25-.37h.625l1.25.45.624.009.625.154 1.25 1.735.625.229.624-.027.625.404.625-.495 1.25.473.625-.213.625-.054.624.098.625-.392.625.774.625-.061 1.875-.821 2.5-.011.624-.275 1.25.04.625-.157.624.064.625-.163.625.016.625-.288.625-.134.625-.015.625-.186 1.25 2.135.624 1.046.625-1.711.625.85.625-1.103.625.036.624-1.609.625-.704.625-1.438.625.975.625-1.189.625 1.01 1.25-.973.624-1.304.625-.586.625.218.625 1.188.625.402 1.25-3.1.624-.423.625-.186.625-.995.625-1.363.625-.575.625.856.624 1.305.625-1.014.625 2.21.625 2.769.625 1.362.625.575.625-5.026.625-.976.624-.08 1.25-6.491h1.25l.625 1.742.625-.602.624 3.525.625-3.873.625-.768.625-1.852.625-.91.625 3.021.625.1.624-3.782.625 3.873.625.242.625-.288h0" clip-path="url(#peffe322f68)" style="fill:none;stroke:#42537f;stroke-width:1.5;stroke-linecap:square" id="line2d_33"/><g style="fill:#0309a6" transform="matrix(.14 0 0 -.14 642.385 230.257)" id="text_20"><defs><path id="DejaVuSans-46" d="M628 4666h2681v-532H1259V2759h1850v-531H1259V0H628v4666z" transform="scale(.01563)"/><path id="DejaVuSans-72" d="M2631 2963q-97 56-211 82-114 27-251 27-488 0-749-317t-261-911V0H581v3500h578v-544q182 319 472 473 291 155 707 155 59 0 131-8 72-7 159-23l3-590z" transform="scale(.01563)"/><path id="DejaVuSans-61" d="M2194 1759q-697 0-966-159t-269-544q0-306 202-486 202-179 548-179 479 0 768 339t289 901v128h-572zm1147 238V0h-575v531q-197-318-491-470T1556-91q-537 0-855 302-317 302-317 808 0 590 395 890 396 300 1180 300h807v57q0 397-261 614t-733 217q-300 0-585-72-284-72-546-216v532q315 122 612 182 297 61 578 61 760 0 1135-394 375-393 375-1193z" transform="scale(.01563)"/><path id="DejaVuSans-6e" d="M3513 2113V0h-575v2094q0 497-194 743-194 247-581 247-466 0-735-297-269-296-269-809V0H581v3500h578v-544q207 316 486 472 280 156 646 156 603 0 912-373 310-373 310-1098z" transform="scale(.01563)"/><path id="DejaVuSans-63" d="M3122 3366v-538q-244 135-489 202t-495 67q-560 0-870-355-309-354-309-995t309-996q310-354 870-354 250 0 495 67t489 202V134Q2881 22 2623-34q-257-57-548-57-791 0-1257 497-465 497-465 1341 0 856 470 1346 471 491 1290 491 265 0 518-55 253-54 491-163z" transform="scale(.01563)"/><path id="DejaVuSans-65" d="M3597 1894v-281H953q38-594 358-905t892-311q331 0 642 81t618 244V178Q3153 47 2828-22t-659-69q-838 0-1327 487-489 488-489 1320 0 859 464 1363 464 505 1252 505 706 0 1117-455 411-454 411-1235zm-575 169q-6 471-264 752-258 282-683 282-481 0-770-272t-333-766l2050 4z" transform="scale(.01563)"/></defs><use xlink:href="#DejaVuSans-46"/><use xlink:href="#DejaVuSans-72" x="50.27"/><use xlink:href="#DejaVuSans-61" x="91.383"/><use xlink:href="#DejaVuSans-6e" x="152.662"/><use xlink:href="#DejaVuSans-63" x="216.041"/><use xlink:href="#DejaVuSans-65" x="271.021"/></g><g style="fill:#7516fd" transform="matrix(.14 0 0 -.14 642.385 244.257)" id="text_21"><defs><path id="DejaVuSans-55" d="M556 4666h635V1831q0-750 271-1080 272-329 882-329 606 0 878 329 272 330 272 1080v2835h634V1753q0-912-452-1378Q3225-91 2344-91q-885 0-1337 466-451 466-451 1378v2913z" transform="scale(.01563)"/><path id="DejaVuSans-53" d="M3425 4513v-616q-359 172-678 256-319 85-616 85-515 0-795-200t-280-569q0-310 186-468 186-157 705-254l381-78q706-135 1042-474t336-907q0-679-455-1029Q2797-91 1919-91q-331 0-705 75-373 75-773 222v650q384-215 753-325 369-109 725-109 540 0 834 212 294 213 294 607 0 343-211 537t-692 291l-385 75q-706 140-1022 440-315 300-315 835 0 619 436 975t1201 356q329 0 669-60 341-59 697-177z" transform="scale(.01563)"/></defs><use xlink:href="#DejaVuSans-55"/><use xlink:href="#DejaVuSans-53" x="73.193"/></g><g style="fill:#1007e1" transform="matrix(.14 0 0 -.14 642.385 258.257)" id="text_22"><defs><path id="DejaVuSans-49" d="M628 4666h631V0H628v4666z" transform="scale(.01563)"/><path id="DejaVuSans-74" d="M1172 4494v-994h1184v-447H1172V1153q0-428 117-550t477-122h590V0h-590q-666 0-919 248-253 249-253 905v1900H172v447h422v994h578z" transform="scale(.01563)"/><path id="DejaVuSans-6c" d="M603 4863h575V0H603v4863z" transform="scale(.01563)"/><path id="DejaVuSans-79" d="M2059-325q-243-625-475-815-231-191-618-191H506v481h338q237 0 368 113 132 112 291 531l103 262L191 3500h609L1894 763l1094 2737h609L2059-325z" transform="scale(.01563)"/></defs><use xlink:href="#DejaVuSans-49"/><use xlink:href="#DejaVuSans-74" x="29.492"/><use xlink:href="#DejaVuSans-61" x="68.701"/><use xlink:href="#DejaVuSans-6c" x="129.98"/><use xlink:href="#DejaVuSans-79" x="157.764"/></g><g style="fill:#d8b009" transform="matrix(.14 0 0 -.14 642.385 272.257)" id="text_23"><defs><path id="DejaVuSans-47" d="M3809 666v1253H2778v519h1656V434q-365-259-806-392-440-133-940-133-1094 0-1712 639-617 640-617 1780 0 1144 617 1783 618 639 1712 639 456 0 867-113 411-112 758-331v-672q-350 297-744 447t-828 150q-857 0-1287-478-429-478-429-1425 0-944 429-1422 430-478 1287-478 334 0 596 58 263 58 472 180z" transform="scale(.01563)"/><path id="DejaVuSans-6d" d="M3328 2828q216 388 516 572t706 184q547 0 844-383 297-382 297-1088V0h-578v2094q0 503-179 746-178 244-543 244-447 0-707-297-259-296-259-809V0h-578v2094q0 506-178 748t-550 242q-441 0-701-298-259-298-259-808V0H581v3500h578v-544q197 322 472 475t653 153q382 0 649-194 267-193 395-562z" transform="scale(.01563)"/></defs><use xlink:href="#DejaVuSans-47"/><use xlink:href="#DejaVuSans-65" x="77.49"/><use xlink:href="#DejaVuSans-72" x="139.014"/><use xlink:href="#DejaVuSans-6d" x="178.377"/><use xlink:href="#DejaVuSans-61" x="275.789"/><use xlink:href="#DejaVuSans-6e" x="337.068"/><use xlink:href="#DejaVuSans-79" x="400.447"/></g><g style="fill:#42537f" transform="matrix(.14 0 0 -.14 642.385 286.257)" id="text_24"><defs><path id="DejaVuSans-42" d="M1259 2228V519h1013q509 0 754 211 246 211 246 645 0 438-246 645-245 208-754 208H1259zm0 1919V2741h935q462 0 688 173 227 174 227 530 0 353-227 528-226 175-688 175h-935zm-631 519h1613q722 0 1112-300 391-300 391-853 0-429-200-682t-588-315q466-100 724-418 258-317 258-792 0-625-425-966Q3088 0 2303 0H628v4666z" transform="scale(.01563)"/><path id="DejaVuSans-7a" d="M353 3500h2731v-525L922 459h2162V0H275v525l2163 2516H353v459z" transform="scale(.01563)"/><path id="DejaVuSans-69" d="M603 3500h575V0H603v3500zm0 1363h575v-729H603v729z" transform="scale(.01563)"/></defs><use xlink:href="#DejaVuSans-42"/><use xlink:href="#DejaVuSans-72" x="68.604"/><use xlink:href="#DejaVuSans-61" x="109.717"/><use xlink:href="#DejaVuSans-7a" x="170.996"/><use xlink:href="#DejaVuSans-69" x="223.486"/><use xlink:href="#DejaVuSans-6c" x="251.27"/></g></g></g><defs><clipPath id="peffe322f68"><path d="M67.645 9.842h558v277.2h-558z"/></clipPath></defs></svg>