<svg xmlns:xlink="http://www.w3.org/1999/xlink" width="951.91" height="416.199" viewBox="0 0 713.933 312.149" xmlns="http://www.w3.org/2000/svg"><defs><style>*{stroke-linejoin:round;stroke-linecap:butt}</style></defs><g id="figure_1"><path d="M0 312.15h713.933V0H0v312.15z" style="fill:none" id="patch_1"/><g id="axes_1"><path d="M67.645 284.4h558V7.2h-558v277.2z" style="fill:none" id="patch_2"/><g id="matplotlib.axis_1"><g id="xtick_1"><g id="line2d_1"><defs><path id="mbc214f7f29" d="M0 0v3.5" style="stroke:#b0b0b0;stroke-width:.4"/></defs><use xlink:href="#mbc214f7f29" x="104.086" y="284.4" style="fill:#b0b0b0;stroke:#b0b0b0;stroke-width:.4"/></g><g style="fill:#b0b0b0" transform="matrix(.14 0 0 -.14 74.838 302.038)" id="text_1"><defs><path id="DejaVuSans-32" d="M1228 531h2203V0H469v531q359 372 979 998 621 627 780 809 303 340 423 576 121 236 121 464 0 372-261 606-261 235-680 235-297 0-627-103-329-103-704-313v638q381 153 712 231 332 78 607 78 725 0 1156-363 431-362 431-968 0-288-108-546-107-257-392-607-78-91-497-524-418-433-1181-1211z" transform="scale(.01563)"/><path id="DejaVuSans-30" d="M2034 4250q-487 0-733-480-245-479-245-1442 0-959 245-1439 246-480 733-480 491 0 736 480 246 480 246 1439 0 963-246 1442-245 480-736 480zm0 500q785 0 1199-621 414-620 414-1801 0-1178-414-1799Q2819-91 2034-91q-784 0-1198 620-414 621-414 1799 0 1181 414 1801 414 621 1198 621z" transform="scale(.01563)"/><path id="DejaVuSans-2d" d="M313 2009h1684v-512H313v512z" transform="scale(.01563)"/><path id="DejaVuSans-34" d="M2419 4116 825 1625h1594v2491zm-166 550h794V1625h666v-525h-666V0h-628v1100H313v609l1940 2957z" transform="scale(.01563)"/></defs><use xlink:href="#DejaVuSans-32"/><use xlink:href="#DejaVuSans-30" x="63.623"/><use xlink:href="#DejaVuSans-32" x="127.246"/><use xlink:href="#DejaVuSans-30" x="190.869"/><use xlink:href="#DejaVuSans-2d" x="254.492"/><use xlink:href="#DejaVuSans-30" x="290.576"/><use xlink:href="#DejaVuSans-34" x="354.199"/></g></g><g id="xtick_2"><use xlink:href="#mbc214f7f29" x="155.9" y="284.4" style="fill:#b0b0b0;stroke:#b0b0b0;stroke-width:.4" id="line2d_2"/><g style="fill:#b0b0b0" transform="matrix(.14 0 0 -.14 126.652 302.038)" id="text_2"><defs><path id="DejaVuSans-37" d="M525 4666h3000v-269L1831 0h-659l1594 4134H525v532z" transform="scale(.01563)"/></defs><use xlink:href="#DejaVuSans-32"/><use xlink:href="#DejaVuSans-30" x="63.623"/><use xlink:href="#DejaVuSans-32" x="127.246"/><use xlink:href="#DejaVuSans-30" x="190.869"/><use xlink:href="#DejaVuSans-2d" x="254.492"/><use xlink:href="#DejaVuSans-30" x="290.576"/><use xlink:href="#DejaVuSans-37" x="354.199"/></g></g><g id="xtick_3"><use xlink:href="#mbc214f7f29" x="208.284" y="284.4" style="fill:#b0b0b0;stroke:#b0b0b0;stroke-width:.4" id="line2d_3"/><g style="fill:#b0b0b0" transform="matrix(.14 0 0 -.14 179.036 302.038)" id="text_3"><defs><path id="DejaVuSans-31" d="M794 531h1031v3560L703 3866v575l1116 225h631V531h1031V0H794v531z" transform="scale(.01563)"/></defs><use xlink:href="#DejaVuSans-32"/><use xlink:href="#DejaVuSans-30" x="63.623"/><use xlink:href="#DejaVuSans-32" x="127.246"/><use xlink:href="#DejaVuSans-30" x="190.869"/><use xlink:href="#DejaVuSans-2d" x="254.492"/><use xlink:href="#DejaVuSans-31" x="290.576"/><use xlink:href="#DejaVuSans-30" x="354.199"/></g></g><g id="xtick_4"><use xlink:href="#mbc214f7f29" x="260.667" y="284.4" style="fill:#b0b0b0;stroke:#b0b0b0;stroke-width:.4" id="line2d_4"/><g style="fill:#b0b0b0" transform="matrix(.14 0 0 -.14 231.42 302.038)" id="text_4"><use xlink:href="#DejaVuSans-32"/><use xlink:href="#DejaVuSans-30" x="63.623"/><use xlink:href="#DejaVuSans-32" x="127.246"/><use xlink:href="#DejaVuSans-31" x="190.869"/><use xlink:href="#DejaVuSans-2d" x="254.492"/><use xlink:href="#DejaVuSans-30" x="290.576"/><use xlink:href="#DejaVuSans-31" x="354.199"/></g></g><g id="xtick_5"><use xlink:href="#mbc214f7f29" x="311.912" y="284.4" style="fill:#b0b0b0;stroke:#b0b0b0;stroke-width:.4" id="line2d_5"/><g style="fill:#b0b0b0" transform="matrix(.14 0 0 -.14 282.664 302.038)" id="text_5"><use xlink:href="#DejaVuSans-32"/><use xlink:href="#DejaVuSans-30" x="63.623"/><use xlink:href="#DejaVuSans-32" x="127.246"/><use xlink:href="#DejaVuSans-31" x="190.869"/><use xlink:href="#DejaVuSans-2d" x="254.492"/><use xlink:href="#DejaVuSans-30" x="290.576"/><use xlink:href="#DejaVuSans-34" x="354.199"/></g></g><g id="xtick_6"><use xlink:href="#mbc214f7f29" x="363.727" y="284.4" style="fill:#b0b0b0;stroke:#b0b0b0;stroke-width:.4" id="line2d_6"/><g style="fill:#b0b0b0" transform="matrix(.14 0 0 -.14 334.479 302.038)" id="text_6"><use xlink:href="#DejaVuSans-32"/><use xlink:href="#DejaVuSans-30" x="63.623"/><use xlink:href="#DejaVuSans-32" x="127.246"/><use xlink:href="#DejaVuSans-31" x="190.869"/><use xlink:href="#DejaVuSans-2d" x="254.492"/><use xlink:href="#DejaVuSans-30" x="290.576"/><use xlink:href="#DejaVuSans-37" x="354.199"/></g></g><g id="xtick_7"><use xlink:href="#mbc214f7f29" x="416.11" y="284.4" style="fill:#b0b0b0;stroke:#b0b0b0;stroke-width:.4" id="line2d_7"/><g style="fill:#b0b0b0" transform="matrix(.14 0 0 -.14 386.862 302.038)" id="text_7"><use xlink:href="#DejaVuSans-32"/><use xlink:href="#DejaVuSans-30" x="63.623"/><use xlink:href="#DejaVuSans-32" x="127.246"/><use xlink:href="#DejaVuSans-31" x="190.869"/><use xlink:href="#DejaVuSans-2d" x="254.492"/><use xlink:href="#DejaVuSans-31" x="290.576"/><use xlink:href="#DejaVuSans-30" x="354.199"/></g></g><g id="xtick_8"><use xlink:href="#mbc214f7f29" x="468.494" y="284.4" style="fill:#b0b0b0;stroke:#b0b0b0;stroke-width:.4" id="line2d_8"/><g style="fill:#b0b0b0" transform="matrix(.14 0 0 -.14 439.246 302.038)" id="text_8"><use xlink:href="#DejaVuSans-32"/><use xlink:href="#DejaVuSans-30" x="63.623"/><use xlink:href="#DejaVuSans-32" x="127.246"/><use xlink:href="#DejaVuSans-32" x="190.869"/><use xlink:href="#DejaVuSans-2d" x="254.492"/><use xlink:href="#DejaVuSans-30" x="290.576"/><use xlink:href="#DejaVuSans-31" x="354.199"/></g></g><g id="xtick_9"><use xlink:href="#mbc214f7f29" x="519.739" y="284.4" style="fill:#b0b0b0;stroke:#b0b0b0;stroke-width:.4" id="line2d_9"/><g style="fill:#b0b0b0" transform="matrix(.14 0 0 -.14 490.49 302.038)" id="text_9"><use xlink:href="#DejaVuSans-32"/><use xlink:href="#DejaVuSans-30" x="63.623"/><use xlink:href="#DejaVuSans-32" x="127.246"/><use xlink:href="#DejaVuSans-32" x="190.869"/><use xlink:href="#DejaVuSans-2d" x="254.492"/><use xlink:href="#DejaVuSans-30" x="290.576"/><use xlink:href="#DejaVuSans-34" x="354.199"/></g></g><g id="xtick_10"><use xlink:href="#mbc214f7f29" x="571.553" y="284.4" style="fill:#b0b0b0;stroke:#b0b0b0;stroke-width:.4" id="line2d_10"/><g style="fill:#b0b0b0" transform="matrix(.14 0 0 -.14 542.305 302.038)" id="text_10"><use xlink:href="#DejaVuSans-32"/><use xlink:href="#DejaVuSans-30" x="63.623"/><use xlink:href="#DejaVuSans-32" x="127.246"/><use xlink:href="#DejaVuSans-32" x="190.869"/><use xlink:href="#DejaVuSans-2d" x="254.492"/><use xlink:href="#DejaVuSans-30" x="290.576"/><use xlink:href="#DejaVuSans-37" x="354.199"/></g></g><g id="xtick_11"><use xlink:href="#mbc214f7f29" x="623.937" y="284.4" style="fill:#b0b0b0;stroke:#b0b0b0;stroke-width:.4" id="line2d_11"/><g style="fill:#b0b0b0" transform="matrix(.14 0 0 -.14 594.689 302.038)" id="text_11"><use xlink:href="#DejaVuSans-32"/><use xlink:href="#DejaVuSans-30" x="63.623"/><use xlink:href="#DejaVuSans-32" x="127.246"/><use xlink:href="#DejaVuSans-32" x="190.869"/><use xlink:href="#DejaVuSans-2d" x="254.492"/><use xlink:href="#DejaVuSans-31" x="290.576"/><use xlink:href="#DejaVuSans-30" x="354.199"/></g></g></g><g id="matplotlib.axis_2"><g id="ytick_1"><path d="M67.645 284.4h558" clip-path="url(#p07a1f10ad2)" style="fill:none;stroke:#b0b0b0;stroke-width:.3;stroke-linecap:square" id="line2d_12"/><g id="line2d_13"><defs><path id="m2637437eae" d="M0 0h-3.5" style="stroke:#b0b0b0;stroke-width:.3"/></defs><use xlink:href="#m2637437eae" x="67.645" y="284.4" style="fill:#b0b0b0;stroke:#b0b0b0;stroke-width:.3"/></g><use xlink:href="#DejaVuSans-30" style="fill:#b0b0b0" transform="matrix(.14 0 0 -.14 51.737 289.719)" id="text_12"/></g><g id="ytick_2"><path d="M67.645 246.636h558" clip-path="url(#p07a1f10ad2)" style="fill:none;stroke:#b0b0b0;stroke-width:.3;stroke-linecap:square" id="line2d_14"/><use xlink:href="#m2637437eae" x="67.645" y="246.636" style="fill:#b0b0b0;stroke:#b0b0b0;stroke-width:.3" id="line2d_15"/><g style="fill:#b0b0b0" transform="matrix(.14 0 0 -.14 16.108 251.955)" id="text_13"><defs><path id="DejaVuSans-35" d="M691 4666h2478v-532H1269V2991q137 47 274 70 138 23 276 23 781 0 1237-428 457-428 457-1159 0-753-469-1171Q2575-91 1722-91q-294 0-599 50Q819 9 494 109v635q281-153 581-228t634-75q541 0 856 284 316 284 316 772 0 487-316 771-315 285-856 285-253 0-505-56-251-56-513-175v2344z" transform="scale(.01563)"/></defs><use xlink:href="#DejaVuSans-35"/><use xlink:href="#DejaVuSans-30" x="63.623"/><use xlink:href="#DejaVuSans-30" x="127.246"/><use xlink:href="#DejaVuSans-30" x="190.869"/><use xlink:href="#DejaVuSans-30" x="254.492"/></g></g><g id="ytick_3"><path d="M67.645 208.872h558" clip-path="url(#p07a1f10ad2)" style="fill:none;stroke:#b0b0b0;stroke-width:.3;stroke-linecap:square" id="line2d_16"/><use xlink:href="#m2637437eae" x="67.645" y="208.872" style="fill:#b0b0b0;stroke:#b0b0b0;stroke-width:.3" id="line2d_17"/><g style="fill:#b0b0b0" transform="matrix(.14 0 0 -.14 7.2 214.191)" id="text_14"><use xlink:href="#DejaVuSans-31"/><use xlink:href="#DejaVuSans-30" x="63.623"/><use xlink:href="#DejaVuSans-30" x="127.246"/><use xlink:href="#DejaVuSans-30" x="190.869"/><use xlink:href="#DejaVuSans-30" x="254.492"/><use xlink:href="#DejaVuSans-30" x="318.115"/></g></g><g id="ytick_4"><path d="M67.645 171.108h558" clip-path="url(#p07a1f10ad2)" style="fill:none;stroke:#b0b0b0;stroke-width:.3;stroke-linecap:square" id="line2d_18"/><use xlink:href="#m2637437eae" x="67.645" y="171.108" style="fill:#b0b0b0;stroke:#b0b0b0;stroke-width:.3" id="line2d_19"/><g style="fill:#b0b0b0" transform="matrix(.14 0 0 -.14 7.2 176.427)" id="text_15"><use xlink:href="#DejaVuSans-31"/><use xlink:href="#DejaVuSans-35" x="63.623"/><use xlink:href="#DejaVuSans-30" x="127.246"/><use xlink:href="#DejaVuSans-30" x="190.869"/><use xlink:href="#DejaVuSans-30" x="254.492"/><use xlink:href="#DejaVuSans-30" x="318.115"/></g></g><g id="ytick_5"><path d="M67.645 133.344h558" clip-path="url(#p07a1f10ad2)" style="fill:none;stroke:#b0b0b0;stroke-width:.3;stroke-linecap:square" id="line2d_20"/><use xlink:href="#m2637437eae" x="67.645" y="133.344" style="fill:#b0b0b0;stroke:#b0b0b0;stroke-width:.3" id="line2d_21"/><g style="fill:#b0b0b0" transform="matrix(.14 0 0 -.14 7.2 138.663)" id="text_16"><use xlink:href="#DejaVuSans-32"/><use xlink:href="#DejaVuSans-30" x="63.623"/><use xlink:href="#DejaVuSans-30" x="127.246"/><use xlink:href="#DejaVuSans-30" x="190.869"/><use xlink:href="#DejaVuSans-30" x="254.492"/><use xlink:href="#DejaVuSans-30" x="318.115"/></g></g><g id="ytick_6"><path d="M67.645 95.58h558" clip-path="url(#p07a1f10ad2)" style="fill:none;stroke:#b0b0b0;stroke-width:.3;stroke-linecap:square" id="line2d_22"/><use xlink:href="#m2637437eae" x="67.645" y="95.581" style="fill:#b0b0b0;stroke:#b0b0b0;stroke-width:.3" id="line2d_23"/><g style="fill:#b0b0b0" transform="matrix(.14 0 0 -.14 7.2 100.9)" id="text_17"><use xlink:href="#DejaVuSans-32"/><use xlink:href="#DejaVuSans-35" x="63.623"/><use xlink:href="#DejaVuSans-30" x="127.246"/><use xlink:href="#DejaVuSans-30" x="190.869"/><use xlink:href="#DejaVuSans-30" x="254.492"/><use xlink:href="#DejaVuSans-30" x="318.115"/></g></g><g id="ytick_7"><path d="M67.645 57.817h558" clip-path="url(#p07a1f10ad2)" style="fill:none;stroke:#b0b0b0;stroke-width:.3;stroke-linecap:square" id="line2d_24"/><use xlink:href="#m2637437eae" x="67.645" y="57.817" style="fill:#b0b0b0;stroke:#b0b0b0;stroke-width:.3" id="line2d_25"/><g style="fill:#b0b0b0" transform="matrix(.14 0 0 -.14 7.2 63.136)" id="text_18"><defs><path id="DejaVuSans-33" d="M2597 2516q453-97 707-404 255-306 255-756 0-690-475-1069Q2609-91 1734-91q-293 0-604 58T488 141v609q262-153 574-231 313-78 654-78 593 0 904 234t311 681q0 413-289 645-289 233-804 233h-544v519h569q465 0 712 186t247 536q0 359-255 551-254 193-729 193-260 0-557-57-297-56-653-174v562q360 100 674 150t592 50q719 0 1137-327 419-326 419-882 0-388-222-655t-631-370z" transform="scale(.01563)"/></defs><use xlink:href="#DejaVuSans-33"/><use xlink:href="#DejaVuSans-30" x="63.623"/><use xlink:href="#DejaVuSans-30" x="127.246"/><use xlink:href="#DejaVuSans-30" x="190.869"/><use xlink:href="#DejaVuSans-30" x="254.492"/><use xlink:href="#DejaVuSans-30" x="318.115"/></g></g><g id="ytick_8"><path d="M67.645 20.053h558" clip-path="url(#p07a1f10ad2)" style="fill:none;stroke:#b0b0b0;stroke-width:.3;stroke-linecap:square" id="line2d_26"/><use xlink:href="#m2637437eae" x="67.645" y="20.053" style="fill:#b0b0b0;stroke:#b0b0b0;stroke-width:.3" id="line2d_27"/><g style="fill:#b0b0b0" transform="matrix(.14 0 0 -.14 7.2 25.372)" id="text_19"><use xlink:href="#DejaVuSans-33"/><use xlink:href="#DejaVuSans-35" x="63.623"/><use xlink:href="#DejaVuSans-30" x="127.246"/><use xlink:href="#DejaVuSans-30" x="190.869"/><use xlink:href="#DejaVuSans-30" x="254.492"/><use xlink:href="#DejaVuSans-30" x="318.115"/></g></g></g><path d="m67.645 284.4 23.345-.104 2.277-.169 2.278-.36.57-.082 2.846-1.083 1.14-.722 1.138-.537.57-.387.569-.218 3.985-.564 3.417.786.57.336 1.707.476 1.139.437 3.986.405 1.139.245 6.263.789 1.139.013 6.832.252 1.708.063 15.374.088 2.847-.13 3.985.126 12.527-.02 5.125-.139 10.818-.433 1.708-.1 9.11.102 1.708-.093 2.278-.076 7.402-.332 2.278-.104 3.416-.652 1.139-.362 1.138-.277 1.709-.831 1.138-.563 1.14-.497.569-.265 1.138-.924 1.14-1.345 1.138-.96.57-.796.569-.592.569-.803.57-.468 1.138-.692.57-.426 1.138-.59.57-.304.57-.469 1.138-.335.57.002 1.138-.34.57-.219.569.101.57-.1.569.274 1.138.198 1.709-.146.569.13 2.277.01 2.278.317.57-.005.569.147 1.139-.045.569-.175.57-.341 1.138-.174.57-.383.569-.176 1.139-1.246.57-.262.568-.435.57-.04.57-.747 2.277-1.357.57-.03.569-.55.569.322.57-.568.569.89.57 1.817.569.972 1.138 1.328.57.246.57-.038 1.707.843 1.708.36.57.665.57-.963.569-1.295.569-.715.57-.286.569-.098 1.138.31.57 1.022.57.65.569.33.569.578.57.154 1.138.906.57.486 1.138.42.57.044.57.535 1.707 1.02.57.442 1.708.268 1.139.738 1.138.318.57.278.57.116 3.416 1.729 3.416.012.57-.168 1.707-.046 1.14-.275 1.707-.126 1.708-.12 1.14-.041 2.277-.1 2.847-1.306.57-.132 1.707-1.304 1.14-.68 1.138-.336.57-.256 1.138-.997 1.139-.85 1.708-.59.57-.178.569-.034.57.253.569.537.569.149.57.287.569.796.57.42.568-.386 1.709-1.767.569-.423.57-1.297.569-.973 1.708-.151 1.139.324.57-.344.568-.01.57-.185 1.708.038.57-.147.569.286.57.516.569.347.569.48 1.139.565 1.708 1.125.57.63 1.707.984.57.152.57.338.569.489 1.138 1.612.57.448 1.139.37 1.708 1.247 1.139.28 1.138.543.57.907.57.646 1.138.329.57.309 1.138.09.57-.248.569.18 1.139.793 1.138.245.57.063 1.138.336 3.417.537 1.139.348 1.708.178 9.68.251 6.263-.459 3.985-.312 1.14-.1 1.138-.174 5.694-.612 1.139-.23 2.277-.893 1.139-.256 2.277-1.32 1.14-.417.569-.198 2.277-1.34 1.139-.244h.57l1.707-.57.57-.058.57-.22 1.707-.13.57-.184.57.138.569-.04.569.335.57-.083 1.138.163 1.708.73.57.001 3.416 1.15.57-.048 1.138.13 2.278-.483.57.174 3.415-.065.57-.156 1.708-.06 1.139-.197 1.139-.341 1.138-.296 1.14-.95.568-.87 1.709-1.269.569-.4.57-.668.569-1.29 1.708-1.58.57-.334.569-.036.57.303.568-.638 1.14-2.688 1.138-1.35.57-1.188 1.138-3.833 1.708-3.513.57-.873.57-1.102 1.138-3.057.57-.467.569-2.033.57-.996.568-.759 1.709-4.092.569-2.53.57-.345.569-.18.57.138 1.138-.08 1.708.802 1.139.418.57 1.046.569-.26.57.28 1.138 2.576.57 1.016 1.138 1.222.57 1.974.569 1.504 1.139 2.288.569.356.57.61 1.138 1.407.57 1.267.569 1.677 1.139 4.3 1.138.487.57.606.57.233.569-.627.569-.45.57-.261.569-.497.57-1.023 1.707-5.992 1.14-5.776.568-.727.57-1.633.57-2.321.569-1.843.569-3.872.57-2.388.569-1.721.57-.96 1.138-6.539 1.708-16.993 1.139-6.71 1.139-11.245.57-7.51 1.138-11.188.57-3.618.569-1.61.569-3.848.57-4.801.569-3.559.57-6.332.569-3.091 1.138-3.362.57-.75.57-2.779.568-1.267 1.709 2.666.569 2.028.57 1.118 1.138 2.86 1.139 4.403.57.77.569.28.57 3.594.569 1.179.569 2.082.57 1.004.569 1.432 1.138 2.335.57.41.57 2.442.569.61.569-.74.57-1.766.569-.969.57-1.734 1.138-6.92.57-5.62.569-3.802.57-4.842.569-3.207.569-1.505 2.277-17.913.57-2.498.57 1.599.569.007 1.708-7.314.57.145.569.886.569 2.22.57 2.677.569-1.648.57 1.646.568-22.561.57 31.997.57 5.996.569-.427 1.138 13.428.57-15.994.57 38.004.569-16.264.569 15.212.57 9.106.569-21.627.57 4.504.569 27.12.569 1.985.57 12.203.569 1.693.57 1.112.568 19.201.57-6.466.57-2.261.569-.524.569-10.521 1.139.108.57-12.334.569 21.426.569-9.218.57 6.485.569 5.155.57 2.963.569 1.732.569 2.512.57-11.505.569 18.946 1.138 3.408.57.348.57.074.569.642.569 1.038.57.778.569 1.734.57 1.122.569.252.569.113 1.139 4.992.57 3.263 1.138 4.27.57.251.569.115 1.708 6.877.57 5.077.569.26 1.708.447.57-.628.569-.949.569-4.406.57-.12.569.292.57-.282.568 6.488 2.278-12.76h.57l.569-.216.57-11.231.569-.83.569-1.241.57 5.369.569-1.61.57-.001.569-.169.569-1.862 1.139-6.161.57-8.64.568-.979h.57l.57.663.569-2.075 1.138-3.024.57-.53.57-1.007h.569l.569-.169.57-.557.569.348.57-.295.568-.5.57.297h.57l.569-.122.569-.78.57.336.569-1.807.57.867.569-2.927h.569l.57.377.569-.643.57-1.445.569 1.675.569.203.57 3.349h1.138l.57 1.641.569 2.074.57 3.506 1.138 5.29 1.139-.093.57 4.616 1.138 6.86.57 2.729.569 1.768 1.139.093.569 2.59 1.139 3.204.57 1.043.568.405h1.14l.569 1.614.569.577.57.13.569.336.57 1.032 1.138-.006.57.36.569 1.56.57 6.331.568-4.296.57.33 1.139.006.569.637.57 5.712.569-9.57.57 5.677.569.418h1.138l.57.518.57-5.017.569 5.033.569-.223 1.139-.088h.57l1.707-1.563.57-.297.569-.696h1.139l1.139-1.157 1.708-3.546h1.139l.569-3.134.57-4.218.569-2.361.57-4.917.568-2.902h1.14l.569 9.634.569-4.07h0" clip-path="url(#p07a1f10ad2)" style="fill:none;stroke:#d8b009;stroke-width:1.5;stroke-linecap:square" id="line2d_28"/><path d="m67.645 284.4 22.776-.107 2.846-.224 2.278-.309 2.278-.435 1.138-.375 1.14-.299 2.277-.79.569-.107.57-.581.569-.203.57.196.569-.155.569 2.344 1.139.372.57.673h1.707l.57-1.151.57-5.384.568-.052.57-2.259.57.07.569-.949.569-.035.57-.255.569 5.358.57.075.569 1.595.569.152.57 1.541.569-.1.57.23.569.05 1.138-.184.57.351.57-.316.568.247 1.14.125 1.138.554.57-.603 1.708.08 1.708.077.57.39 7.97.19.57-.332.57.017 1.138-.207 1.139.089.57.367 1.138-.109.57.132 1.708-.127.569-.415.57.43 2.846-.017 3.417-.017 2.847.023.569.081 2.277-.135 1.14.088 1.707-.087 2.847.02h1.14l2.846-.005 3.416-.223 1.709-.06 1.708-.098 1.708-.092 5.124-.505 1.14-.172 1.138-.664.57.445 1.138-.204 1.139-.45.57-.029 1.707-.489.57.378.57-.693 1.138-.503 1.139-.192.57-.163.569-.734.569.443.57-.133.569-.339 3.985-1.293.57.073 1.139-.34.569-.18.57-.05.569-.4.57-.24.569-.453.569.085 1.139-.564.57-.612.568-.31 1.14-.081 1.138.358.57-.122 1.138.706 1.139-.449.57-.144.569-.357 1.138-.967 1.14-2.024 2.277-1.445.57-1.333 1.138-1.086.57-1.494.569-.547.57-.729.569-.48.569-1.192.57-1.858.569-1.416.57 2.506.568-6.336.57-1.52.57-1.094 1.138-1.343.57 1.097 1.138-7.838.57-4.116.569 9.028 1.139-2.445.57-5.562.569.821.569 9.136.57 5.393.569-8.904.57 2.726.568 3.972.57 5.902 1.139 2.454.569-2.48.57.815.569 1.27.57.094 1.138 3.059.57.538.569 3.85.57 1.304.568.84.57 1.132.57.56.569.364 1.138.24.57.273.57.024.569.136 1.708-.075.57-.604 1.138-.166 1.139-.328 1.138-.04.57.25.57-.328.569-.488 2.277-1.075.57-.014.569.295 1.139-.832.57 1.547 1.138.738.57.04.569-1.244 1.138.283.57-.04.57-.392.569-.105.569-1.008.57.144.569-.19.57-.055.569-1.803.569-.373 1.139.145 1.138.182 1.709-.365.569.002.57-.46.569-.305 1.139-.365 1.138-.484.57-.054.57.203 2.277-.124 1.708-.236.57.059.569 2.567.569-2.414.57.373 1.138-.036.57.466.569.107.57-2.272.569 2.687.57-.07.569.328 1.708-.029.57-.155.568-.37.57-.122.57-.58 1.138-.091.57-.7.569-.312 1.139-.305.569.225.57-.008.569-.289.57.509.568.014 1.14.262 1.138-.292.57-.033 1.138-.61.57-.17.569-.687.57-.498.569-.1.57-.739 1.707-2.792 1.14-1.057.568-1.007.57 1.654.57-2.9.569-1.142 1.708-2.213.57.724.569-1.73.569.685 1.139-1.06.57 4.582.569-4.695.569-.182.57 2.446.569 6.271.57-5.001.568 5.019.57-.134.57-4.02.569.241.569-3.353.57-4.594.569 6.365 1.139-7.634.569 9.551.57.199.569-.534.57.926 1.138.945.57.348.569.526.569.081.57 1.484.569.365 1.708 2.359.57 1.573.569.237 1.708 1.76 1.139 1.085 1.138.136 1.14.981.569.243.569 1.306.57.55.569-.53.57-.005 1.138.54.57 10.342h3.416l.57-7.246 2.277.602.569-.723.57 1.22.569-.176 1.708 1.368.57-.087.569.413.57-.455.568 1.196 1.14.621.569.238.569.052 1.708.832 6.263.762.57-.128.57.103 3.416-.397 1.138-.484 1.709-.571.569-.05.57-.364.569.284 2.277-2.967.57-.315.569-1.215.57-2.171.569-1.192.57-.914.569-1.59.569-.292.57-.132.569-.961.57-.686.568-.359.57-.529.57.203 1.138-.825.57.305 2.846-.755.57.148 1.139-.879 1.138-.511.57.154.57-.087.568-.667 2.278 1.685.57.185.569.428.57.592.569-.085 1.138 1.298.57 2.426.57-1.394.569.396.569.025.57 2.793.569-1.017.57.597.568-1.594.57 2.406.57.347.569.5.569-1.565.57 2.934.569-.428.57.562 1.138.65 1.139.088.57.598.568.403 1.709.655.569.084.57.613.569-.728.57.764.569.116.569.281 5.694 1.038.57-.376 3.416.08.569.876.57-.48.569-.15 2.277.016.57-.483.57.364.568-.029 1.14-.28 1.138-.101.57-.108 1.138.016 1.708-.311.57.503 1.708-.983 1.139-.483.569-.038.57-1.129.569-.176.57-.35.569.56 1.138-.967.57-.115 1.708-2.534.57-1.876 1.138-1.648.57-.22 1.138-2.47 2.278-5.667.57-.347 2.277-7.001.57-1.551.569-1.14.569-.333 1.139-2.451.57-.911.568-.571 1.14-.448.569-.05 1.708-1.375.57-.322 1.138-.997.57-.327.569-1.022.57-2.006 1.138-7.198.57-4.971.569 2.241.569-1.656 1.139-24.905.57-12.398 1.138-27.253.57-3.316.569-3.993.57-9.945.569-13.39.569-6.08 1.139-19.485.57-25.643.568-2.854.57-10.45.57-3.19.569-4.909.569-.16.57-2.259.569 1.939.57-.941.569-10.407.569-8.058.57-12.832 1.138-14.72.57-2.537.569-.736.57-4.109.569.954.57 3.638.568 5.088 1.14 11.772.569 2.269.569 9.56 2.847 59.522.57 4.273.569 18.994.57 33.88.568-6.25 1.14 21.981.569 7.431.569 1.752.57 25.542.569-25.989.57 25.973 1.138 9.765.57 2.972.569 1.309.57-10.31.569 18.274 1.708 8.082.57 1.77.568.51 1.14 3.485.569.778 1.138.035.57-.294.57-.06 1.707-4.106 1.709-4.809.569-.68.57-2.555.569-4.169 1.708-8.59.57-2.4.569-.206.569-6.884 1.708-13.946.57-4.468.569-3.118.57-.569.569-3.936.57-1.615.568-3.147.57-.587 1.139 1.652.569-.25.57.855.569 1.955.57 1.15.569.005.569-1.043.57-.581.569.71.57 2.049.569.482 1.138 4.864.57 3.258.57 2.267.568.618.57 17.832.57-1.001 2.277 13.933.57.62.569-7.769.569 9.494 1.139 8.58.57 3.354.569 2.399.569.572.57 3.278.569 2.127 1.138 3.066.57 1.243.57.799.569.15.569 1.15 2.847 4.003.57.152.569 1.374.57-2.578 1.707 2.667.57.634.569 3.84.57 1.235.569 4.569.57.713.569 2.107.569-.116.57.057.569-3.703 1.139-.78.569-.447.57-2.19.569-.172.57-.443.568-.167.57 2.536.57-2.987.569-1.594 1.708 7.644.57.668.569-17.797.569.203.57-1.395.569-5.452 1.139-.01.569-11 .57 8.75 1.707-8.79h1.14l1.138-12.433 1.708-15.753h1.139l.57-8.47.569-6.431 1.138-6.244.57-1.74h1.139l.569-.873 1.139 5.496 1.139 32.617h1.138l.57-11.476.57 5.158.569 4.055 1.138-16.772h1.14l.568 24.588.57 4.993 1.708 9.661h1.139l.57 5.38.569 3.615 1.138 4.06.57 1.62h1.139l.569 2.675.57 1.8.569 1.314 1.138 1.853h1.14l.569 5.942 1.138-1.987.57.078.57.268h1.138l.57-4.158.569 2.13.57 1.566.568.4.57.233h1.139l.569.322 2.278.704h1.138l.57.41.57.08 1.138-.193.57-.29h1.138l.57-.927.569-2.052.57-1.02.569-1.448.569-1.035h1.139l.57-2.264.569-.636.569-.937.57-.559.569-.953h1.139l.569-1.658.57-2.522 1.138-2.86.57-1.158h1.138l1.139-3.218h0" clip-path="url(#p07a1f10ad2)" style="fill:none;stroke:#0309a6;stroke-width:1.5;stroke-linecap:square" id="line2d_29"/><path d="m67.645 284.4 17.651-.094 2.847-.19 2.278-.329 3.416-1.035 2.847-1.149 1.139-.701 1.708-.566 1.138-.204 1.709.108 2.277.421 1.708.366 1.14.158 1.707.22 2.278.092 1.139.172 1.138.179 1.709.236.569-.076 1.708.296 9.11 1.246 1.14.025 5.693.332 13.665.284 2.278.034 3.416-.035 9.68.058 12.526-.056 9.68-.251 6.833-.51 2.846-.064 2.278-.062 3.416.033 5.125-.183 2.847-.167 2.277-.338 1.14-.309 1.138-.516 2.847-1.618 1.708-1.53 1.139-1.183.57-.537 2.277-3.56 2.847-5.275 1.138-2.595.57-.932 1.708-1.84 1.708-2.422 1.139-.618.57-.74 1.138-.634.57-.335.569.276 1.139-.372.569.313.57-.142.569.194 1.708 1.272.57.478 1.138 1.876 1.139 1.734 1.139 1.742.569.707 1.139.973.57.624 1.138 1.024 1.139.481.57.487 1.138 1.53.57.58 2.277.405.57-.52.569-.133 1.708 1.053 1.139.29.569.394.57.021.569-.392 1.139 1.302 1.138.474.57-.248.57-.587.568-.342.57-.153.57-.573.569-.24 1.138-.893 1.14 1.05.569-.879.569-.472.57-.187.569.122.57.491 1.138.276.57.396.569.656 1.138.804 1.14.582 1.707.69 1.14.02.569-.175 1.138-.025 2.278.276.57.217.569.076 2.847-.299.569.025.57-.16 3.416.277.57.15 1.707-.579 1.139-.561.57-.468 1.138-1.201 3.416-2.443 1.709-1.245.569-.084.57-.287.569-.155 1.708-.861 1.708-.28.57-.083 1.138.197 1.14.365.568-.998 2.278.677 1.139.057.57 1.251.569.29.569-.285 1.139.394 1.139.45.569.24 1.708 2.532 1.708.968.57.097.569-.612.57-.267.569.026 1.708.89 1.139.246.57.25 5.693 1.037.57.433.569.27.57.138 2.277 1.187 1.138.186 1.14.529 1.707 1.103 1.709.719 2.847 1.158 1.708.405 2.277.592 1.708.264 1.14.363 2.277.293 6.263.72 5.124.39 2.847-.023 2.847-.119 3.986-.528 2.847-.882 3.416-1.253 1.708-.379 1.709-.369 1.138-.042 1.709-.21 1.708-.196 1.139-.12 6.832-.134 1.139-.128 3.416.053 2.278.356 2.847.446 1.708.295 2.277.297 1.709.272 1.708.203 2.277.39 2.847.23 3.417.232 5.124.269 2.278-.148 6.263-1.293.57-.03.569.131 1.138-.176 2.278-.684 1.708-.962 1.708-.57.57-.07 2.277-.844 1.14-.555 1.138-.37 1.139-.582.569-.338.57-.143.569-.348.57-.169 2.277-1.265.57-.405 1.707-.711.57-.31.57.463 1.138-.85 2.277-1.897.57-1.466 1.139-1.635.569-.549.57-.378.569-1.091.57-1.418 1.138-4.365.57-2.884.569-.062.569-1.575.57-5.127.569-6.656 1.708-28.328 1.139-7.93 1.708-29.783.57 3.88.569-6.073.57-10.197 1.138-10.687.57-.768.569 3.76.569-9.988.57.496.569-.196.57 3.67.569-.82.569-.514.57-1.542 1.708 4.947.569.617.57 1.818.569 3.24 1.708 13.377.57 4.141.569 2.162.569 8.413 1.139 10.218 1.139 9.46.569 2.716.57 1.73.569 3.33 1.708 11.636 1.139 6.212.569 1.383.57 3.389 1.138 4.31 1.139 2.732.57 1.094.569.463 3.416 7.06.57.669 1.138 2.613 1.139.93.57-.216 1.138-.906 3.417-8.756.569-.76 2.277-10.986.57-2.27.57-1.245.569-.405.569-1.132.57-.454.569-.03 1.139.36 1.138.305.57-.366 1.138 1.644.57-.07.57.346.569.605.569.025.57 1.228.569.164.57.458.569 1.014.569.754.57.118.569.283.57.524.569.788 1.138 1.063.57-.012.57.18.568 1.092.57 6.12.57-4.084 1.138-2.355.57-.701.569-.496.57-.722.569-.287.569 1.296.57.643 1.138 3.384.57 1.646.569.67.57-3.498.569 4.4.57 2.3 1.138 3.05.57 1.119.569.178 1.138 1.205.57.996 1.139 1.056 1.138.77 3.417 7.073.569.405.57 1.531.569.732.57 1.063 1.707 1.486.57.235 1.139 1.225.569.34.57 1.308.569-.452 1.138-.124 1.14-.86.569-.627.569-1.33.57.039.569-.41.57-.22 1.707-3.746 1.709-4.49.569-.673 1.708-7.105 1.708-6.173.57-.876.569-2.254.57-4.38 1.138-6.18 1.139-5.683.57-1.28.569-5.271.57-1.571.568-2.606 1.14-3.013.569-.933.569-5.058.57-1.191.569-.17.57-.026.569.423.569.811.57 1.356.569 5.58 1.139 5.151 1.138 5.758.57 2.397.57 1.847.568.856.57 3.501 1.139 4.652 1.708 5.476.57.496.569 2.54 1.708 5.667.57 1.65.569 1.144.569.814.57 2.376 1.707 4.35.57 1.102.57.777.569.225.569 3.683.57-.492 2.277.378.57-.056.569-2.85.57 1.173 1.138.707 1.139.476.569.223 1.139.846 1.708 1.07.57.48.569.188.57.673 1.138.801 1.139.663.57.14.568-.07.57.183 3.416-.75.57-.565.569-.252 1.708-1.455.57-.724.569-.189 1.708-5.081 1.139-2.6.57-1.091.569-.358.569-1.66h0" clip-path="url(#p07a1f10ad2)" style="fill:none;stroke:#1007e1;stroke-width:1.5;stroke-linecap:square" id="line2d_30"/><path d="m67.645 284.4 27.9-.094 4.555-.287 3.986-.178 2.847.19 3.985.164 20.498.17 38.15-.051 27.9-.26 2.277-.13 4.555-.06 6.263-.049 6.833-.335 3.416-.405 2.278-.65.57-.122 1.138-.454 2.278-.864 2.847-1.222 1.138-.194 1.708-.453.57-.14 1.708.262 1.139.009 1.139.474 1.708.288 6.263 1.704 2.847.433 1.708.26 1.139-.023 1.708-.028 2.847.511 3.986.078 2.847-.134 1.708-.038 1.139.068 1.138-.067 6.264.5 2.277-.004 5.125.109 9.68-.186 4.554-.317 5.694-.27 4.555-.328 2.847-.188 1.139-.064 5.694.025 1.708.213 2.847.225 2.278-.03.569.118 1.708.014 1.139.082 1.708.044 17.082 1.258 2.277.068 16.512.28 8.541-.04 13.096-.243 3.986-.088 9.11-.523 4.555-.187 2.847-.229 1.708-.132 5.125.085 2.847.173 10.818-.204 2.278-.313 3.985-.872 1.14-.13 2.277-.951 1.138-.425 1.14-.918 1.138-.67 1.139-.615 1.139-1.041.569-.087 2.278-1.367.569-.485.57-.194.569-.463.57-.153.568-.287 1.14-.154.569.211.569.061 1.708.998 1.708 1.195 1.709 1.764 3.416 2.72 7.402 1.933 2.277.126 1.709-.237 2.277-.675.57-.367 1.138-1.333.57-.547.57-.362 1.707-2.356 1.139-1.565.57-.868.569-1.08 1.139-1.005.569-.61.57-1.246.569-.896.57-1.37 1.707-2.926 1.14-1.987.568-1.147 1.14-1.632.569-.604 1.138-.216.57-.63.57.229 1.138.148.57-.111.569.019.57-.143.568.384.57-.185 1.139.733.569.533 1.708.641.57.477.569.297 1.139.783 2.277 1.205 1.14.145 1.138-.025.57-.397.569-.616 1.138-.579 1.14-1.3 1.138-1.308.57-1.106 1.138-3.88 1.139-2.372.57-.849.569-.648.57-1.37 1.138-.329.57.155.569-.008 1.138.684 1.14 2.137.569 1.47.569.985 1.139 2.409.57 1.182.568 2.234 1.709 4.786 1.138 2.285.57 1.163.57 1.419 1.138 1.96.57.643 1.138.814.57.63.569.908.57.64 1.707 1.225.57.185 1.139.839.569-.06 2.278.775 1.138-.02.57.474 1.139.351 2.277.346 2.278.185 1.138.098.57.221 2.277.36 2.278.694 1.139.952.569-.429.57.21.569.065.57.195 1.138.072h.57l.569.23.57-.115 1.138-.001 1.708-.018.57-.346.569-.099 1.139.03.569-.274h1.139l.57-.312.569-.07.569-.298.57-.46.569-.247h1.139l.569-.634 1.139-.585.57-.439.568-.195h1.14l.569-.863.569-.2.57-.755 1.708-.333h.569l.57-.34.569-.035.57.468 2.277-.124.569-.3.57.135 1.708-.477h1.138l.57-.608.57-.203.569-.02.569-.144 1.708.01.57.803.569-.17.57.253 1.138.877h1.139l.57 3.171.569-1.69.569.171 1.139.69h1.139l.569-1.847.57 2.3 1.138.39 1.708-.03 2.278.473.57-.13 2.277-.008.57-.142.568.06.57.233h1.139l.569 1.74.57-1.496 1.708.22h1.138l.57-1.275.57 1.535.569.019 1.138 1.079h1.14l.568-1.107.57.02.57 1.846 1.707-1.87.57-1.102.57 1.992.569-.372.569-2.314 1.139-.425.57-.347.569.356.569-.255.57-.496 1.138-1.265 1.139-.976 1.708-.983h0" clip-path="url(#p07a1f10ad2)" style="fill:none;stroke:#989173;stroke-width:1.5;stroke-linecap:square" id="line2d_31"/><path d="m67.645 284.4 111.03-.11 10.819-.062 5.694.03 22.206-.166 3.416-.19 4.555-.501 4.556-.702 6.263-.308 3.416.363 1.139.192 1.708.13 2.278.04 13.096.811 17.081.067 6.833-.348 9.11-.204 1.139-.165 4.555-.331 1.139-.059 1.708-.085 2.847-.128.57.18 1.707-.187 1.708-.053.57-.216 3.416.176 3.986-.496 2.277.085 2.847.169 1.14-.097 2.277.058 1.138.123 4.556.269 1.138.28.57-.09.57.207.569.074 2.277-.437.57.026.569-.194.57-.042 1.138.19 2.847.19 9.11.544 3.416.274 8.541.414 3.417-.074 2.277-.262 1.708-.446 5.125-.925 9.11-.073 2.847.005 2.278-.21 1.708-.206 2.277.062 1.708.034 5.125.017 3.416.346 3.986.37 2.277-.038 4.556-.02 2.847.122 10.818-.352 5.124-.66 1.14.037 2.277-.672.57-.27 1.138-.767 2.847-.886 2.277.08 2.278.098.57-.099 1.707-.044 1.709.03.569.123 1.708.106 7.972 1.016 1.708.349 2.847.074.57-.092 1.138-.523 1.139-.373.569-.604.57-1.639.569-2.502 1.708-9.199.57-1.467 1.138-5.978.57-1.571.569.201.57 1.212.569-.827.57-.103.568.915 1.709 5.372.569 1.032.57 2.182 1.138 1.806.57.986.569.448.57.166 2.277-.344.57.627.569.231 1.138-.29.57-.136.57.108.569-.071.569-.768.57-.094.569.222 1.139.785 1.138.11.57.141 1.138-.246.57.107 1.708-.195.57.187 1.138-.026.57-.103 1.138.258 1.709.774 1.708 1.058 1.138.346 1.14.41 1.138-.012 1.139-.228.57.823.569-.416 1.138-1.495 1.14-1.21.569-.3.569-1.514.57-.6.569-.04 1.138-.512 2.278-.228.57.063.569.232.57.797.569.34.569-.104.57-.428.569-.255 1.138.18.57-.526.57.08.569.331 1.138 2.124 1.14 2.203.569.684.569.357.57.186.569 1.24.57.337 1.138.298.57.705.569.486 1.138.65 1.14.95.569.276.569.13.57.415.569.612.57-.49.569.57.569-.445 1.139-.137.57-.25.569-.508.569.62.57.072 1.138.632 1.139.446.57.163.569-.017.569-.236.57.35 2.846.13 1.708.125 3.986.467 7.972-.128 1.708-.335.57.27.569-.268.569-.517 2.278-1.079 1.138-1.002.57-.134.57-.358 1.707-1.434.57-.307.569-.837 1.139-1.145 1.139-.826 1.138-.433.57-.598 1.708-.978 1.139-.437.569 1.01.57 2.792 2.277 8.066.57 1.436h.569l.57-39.666h3.415l.57 39.666.57-14.96h2.846l.57-13.508.569 14.96h2.847l.57 2.388h3.416l.569 2.805h3.416l.57 2.134h3.416l.57.7h3.416l.57.933h3.415l.57.898h3.416l.57-.278h3.416l.57-.925h3.416l.569-1.068h0" clip-path="url(#p07a1f10ad2)" style="fill:none;stroke:#6b7186;stroke-width:1.5;stroke-linecap:square" id="line2d_32"/><g style="fill:#d8b009" transform="matrix(.14 0 0 -.14 642.385 236.488)" id="text_20"><defs><path id="DejaVuSans-47" d="M3809 666v1253H2778v519h1656V434q-365-259-806-392-440-133-940-133-1094 0-1712 639-617 640-617 1780 0 1144 617 1783 618 639 1712 639 456 0 867-113 411-112 758-331v-672q-350 297-744 447t-828 150q-857 0-1287-478-429-478-429-1425 0-944 429-1422 430-478 1287-478 334 0 596 58 263 58 472 180z" transform="scale(.01563)"/><path id="DejaVuSans-65" d="M3597 1894v-281H953q38-594 358-905t892-311q331 0 642 81t618 244V178Q3153 47 2828-22t-659-69q-838 0-1327 487-489 488-489 1320 0 859 464 1363 464 505 1252 505 706 0 1117-455 411-454 411-1235zm-575 169q-6 471-264 752-258 282-683 282-481 0-770-272t-333-766l2050 4z" transform="scale(.01563)"/><path id="DejaVuSans-72" d="M2631 2963q-97 56-211 82-114 27-251 27-488 0-749-317t-261-911V0H581v3500h578v-544q182 319 472 473 291 155 707 155 59 0 131-8 72-7 159-23l3-590z" transform="scale(.01563)"/><path id="DejaVuSans-6d" d="M3328 2828q216 388 516 572t706 184q547 0 844-383 297-382 297-1088V0h-578v2094q0 503-179 746-178 244-543 244-447 0-707-297-259-296-259-809V0h-578v2094q0 506-178 748t-550 242q-441 0-701-298-259-298-259-808V0H581v3500h578v-544q197 322 472 475t653 153q382 0 649-194 267-193 395-562z" transform="scale(.01563)"/><path id="DejaVuSans-61" d="M2194 1759q-697 0-966-159t-269-544q0-306 202-486 202-179 548-179 479 0 768 339t289 901v128h-572zm1147 238V0h-575v531q-197-318-491-470T1556-91q-537 0-855 302-317 302-317 808 0 590 395 890 396 300 1180 300h807v57q0 397-261 614t-733 217q-300 0-585-72-284-72-546-216v532q315 122 612 182 297 61 578 61 760 0 1135-394 375-393 375-1193z" transform="scale(.01563)"/><path id="DejaVuSans-6e" d="M3513 2113V0h-575v2094q0 497-194 743-194 247-581 247-466 0-735-297-269-296-269-809V0H581v3500h578v-544q207 316 486 472 280 156 646 156 603 0 912-373 310-373 310-1098z" transform="scale(.01563)"/><path id="DejaVuSans-79" d="M2059-325q-243-625-475-815-231-191-618-191H506v481h338q237 0 368 113 132 112 291 531l103 262L191 3500h609L1894 763l1094 2737h609L2059-325z" transform="scale(.01563)"/></defs><use xlink:href="#DejaVuSans-47"/><use xlink:href="#DejaVuSans-65" x="77.49"/><use xlink:href="#DejaVuSans-72" x="139.014"/><use xlink:href="#DejaVuSans-6d" x="178.377"/><use xlink:href="#DejaVuSans-61" x="275.789"/><use xlink:href="#DejaVuSans-6e" x="337.068"/><use xlink:href="#DejaVuSans-79" x="400.447"/></g><g style="fill:#0309a6" transform="matrix(.14 0 0 -.14 642.385 250.488)" id="text_21"><defs><path id="DejaVuSans-46" d="M628 4666h2681v-532H1259V2759h1850v-531H1259V0H628v4666z" transform="scale(.01563)"/><path id="DejaVuSans-63" d="M3122 3366v-538q-244 135-489 202t-495 67q-560 0-870-355-309-354-309-995t309-996q310-354 870-354 250 0 495 67t489 202V134Q2881 22 2623-34q-257-57-548-57-791 0-1257 497-465 497-465 1341 0 856 470 1346 471 491 1290 491 265 0 518-55 253-54 491-163z" transform="scale(.01563)"/></defs><use xlink:href="#DejaVuSans-46"/><use xlink:href="#DejaVuSans-72" x="50.27"/><use xlink:href="#DejaVuSans-61" x="91.383"/><use xlink:href="#DejaVuSans-6e" x="152.662"/><use xlink:href="#DejaVuSans-63" x="216.041"/><use xlink:href="#DejaVuSans-65" x="271.021"/></g><g style="fill:#1007e1" transform="matrix(.14 0 0 -.14 642.385 264.488)" id="text_22"><defs><path id="DejaVuSans-49" d="M628 4666h631V0H628v4666z" transform="scale(.01563)"/><path id="DejaVuSans-74" d="M1172 4494v-994h1184v-447H1172V1153q0-428 117-550t477-122h590V0h-590q-666 0-919 248-253 249-253 905v1900H172v447h422v994h578z" transform="scale(.01563)"/><path id="DejaVuSans-6c" d="M603 4863h575V0H603v4863z" transform="scale(.01563)"/></defs><use xlink:href="#DejaVuSans-49"/><use xlink:href="#DejaVuSans-74" x="29.492"/><use xlink:href="#DejaVuSans-61" x="68.701"/><use xlink:href="#DejaVuSans-6c" x="129.98"/><use xlink:href="#DejaVuSans-79" x="157.764"/></g><g style="fill:#989173" transform="matrix(.14 0 0 -.14 642.385 278.488)" id="text_23"><defs><path id="DejaVuSans-41" d="m2188 4044-857-2322h1716l-859 2322zm-357 622h716L4325 0h-656l-425 1197H1141L716 0H50l1781 4666z" transform="scale(.01563)"/><path id="DejaVuSans-75" d="M544 1381v2119h575V1403q0-497 193-746 194-248 582-248 465 0 735 297 271 297 271 810v1984h575V0h-575v538q-209-319-486-474-276-155-642-155-603 0-916 375-312 375-312 1097zm1447 2203z" transform="scale(.01563)"/><path id="DejaVuSans-73" d="M2834 3397v-544q-243 125-506 187-262 63-544 63-428 0-642-131t-214-394q0-200 153-314t616-217l197-44q612-131 870-370t258-667q0-488-386-773Q2250-91 1575-91q-281 0-586 55T347 128v594q319-166 628-249 309-82 613-82 406 0 624 139 219 139 219 392 0 234-158 359-157 125-692 241l-200 47q-534 112-772 345-237 233-237 639 0 494 350 762 350 269 994 269 318 0 599-47 282-46 519-140z" transform="scale(.01563)"/><path id="DejaVuSans-69" d="M603 3500h575V0H603v3500zm0 1363h575v-729H603v729z" transform="scale(.01563)"/></defs><use xlink:href="#DejaVuSans-41"/><use xlink:href="#DejaVuSans-75" x="68.408"/><use xlink:href="#DejaVuSans-73" x="131.787"/><use xlink:href="#DejaVuSans-74" x="183.887"/><use xlink:href="#DejaVuSans-72" x="223.096"/><use xlink:href="#DejaVuSans-69" x="264.209"/><use xlink:href="#DejaVuSans-61" x="291.992"/></g><g style="fill:#6b7186" transform="matrix(.14 0 0 -.14 642.385 292.488)" id="text_24"><use xlink:href="#DejaVuSans-47"/><use xlink:href="#DejaVuSans-72" x="77.49"/><use xlink:href="#DejaVuSans-65" x="116.354"/><use xlink:href="#DejaVuSans-65" x="177.877"/><use xlink:href="#DejaVuSans-63" x="239.4"/><use xlink:href="#DejaVuSans-65" x="294.381"/></g></g></g><defs><clipPath id="p07a1f10ad2"><path d="M67.645 7.2h558v277.2h-558z"/></clipPath></defs></svg>