<svg xmlns="http://www.w3.org/2000/svg" xmlns:xlink="http://www.w3.org/1999/xlink" width="951.91" height="416.199" viewBox="0 0 713.933 312.149"><defs><style>*{stroke-linejoin:round;stroke-linecap:butt}</style></defs><g id="figure_1"><path id="patch_1" d="M0 312.15h713.933V0H0v312.15z" style="fill:none"/><g id="axes_1"><path id="patch_2" d="M67.645 284.4h558V7.2h-558v277.2z" style="fill:none"/><g id="matplotlib.axis_1"><g id="xtick_1"><g id="line2d_1"><defs><path id="m19215298bf" d="M0 0v3.5" style="stroke:#b0b0b0;stroke-width:.4"/></defs><use xlink:href="#m19215298bf" x="117.79" y="284.4" style="fill:#b0b0b0;stroke:#b0b0b0;stroke-width:.4"/></g><g id="text_1" style="fill:#b0b0b0" transform="matrix(.14 0 0 -.14 88.542 302.038)"><defs><path id="DejaVuSans-32" d="M1228 531h2203V0H469v531q359 372 979 998 621 627 780 809 303 340 423 576 121 236 121 464 0 372-261 606-261 235-680 235-297 0-627-103-329-103-704-313v638q381 153 712 231 332 78 607 78 725 0 1156-363 431-362 431-968 0-288-108-546-107-257-392-607-78-91-497-524-418-433-1181-1211z" transform="scale(.01563)"/><path id="DejaVuSans-30" d="M2034 4250q-487 0-733-480-245-479-245-1442 0-959 245-1439 246-480 733-480 491 0 736 480 246 480 246 1439 0 963-246 1442-245 480-736 480zm0 500q785 0 1199-621 414-620 414-1801 0-1178-414-1799Q2819-91 2034-91q-784 0-1198 620-414 621-414 1799 0 1181 414 1801 414 621 1198 621z" transform="scale(.01563)"/><path id="DejaVuSans-2d" d="M313 2009h1684v-512H313v512z" transform="scale(.01563)"/><path id="DejaVuSans-35" d="M691 4666h2478v-532H1269V2991q137 47 274 70 138 23 276 23 781 0 1237-428 457-428 457-1159 0-753-469-1171Q2575-91 1722-91q-294 0-599 50Q819 9 494 109v635q281-153 581-228t634-75q541 0 856 284 316 284 316 772 0 487-316 771-315 285-856 285-253 0-505-56-251-56-513-175v2344z" transform="scale(.01563)"/></defs><use xlink:href="#DejaVuSans-32"/><use xlink:href="#DejaVuSans-30" x="63.623"/><use xlink:href="#DejaVuSans-32" x="127.246"/><use xlink:href="#DejaVuSans-30" x="190.869"/><use xlink:href="#DejaVuSans-2d" x="254.492"/><use xlink:href="#DejaVuSans-30" x="290.576"/><use xlink:href="#DejaVuSans-35" x="354.199"/></g></g><g id="xtick_2"><use xlink:href="#m19215298bf" id="line2d_2" x="183.406" y="284.4" style="fill:#b0b0b0;stroke:#b0b0b0;stroke-width:.4"/><g id="text_2" style="fill:#b0b0b0" transform="matrix(.14 0 0 -.14 154.158 302.038)"><defs><path id="DejaVuSans-39" d="M703 97v575q238-113 481-172 244-59 479-59 625 0 954 420 330 420 377 1277-181-269-460-413-278-144-615-144-700 0-1108 423-408 424-408 1159 0 718 425 1152 425 435 1131 435 810 0 1236-621 427-620 427-1801 0-1103-524-1761Q2575-91 1691-91q-238 0-482 47Q966 3 703 97zm1256 1978q425 0 673 290 249 291 249 798 0 503-249 795-248 292-673 292t-673-292q-248-292-248-795 0-507 248-798 248-290 673-290z" transform="scale(.01563)"/></defs><use xlink:href="#DejaVuSans-32"/><use xlink:href="#DejaVuSans-30" x="63.623"/><use xlink:href="#DejaVuSans-32" x="127.246"/><use xlink:href="#DejaVuSans-30" x="190.869"/><use xlink:href="#DejaVuSans-2d" x="254.492"/><use xlink:href="#DejaVuSans-30" x="290.576"/><use xlink:href="#DejaVuSans-39" x="354.199"/></g></g><g id="xtick_3"><use xlink:href="#m19215298bf" id="line2d_3" x="248.488" y="284.4" style="fill:#b0b0b0;stroke:#b0b0b0;stroke-width:.4"/><g id="text_3" style="fill:#b0b0b0" transform="matrix(.14 0 0 -.14 219.24 302.038)"><defs><path id="DejaVuSans-31" d="M794 531h1031v3560L703 3866v575l1116 225h631V531h1031V0H794v531z" transform="scale(.01563)"/></defs><use xlink:href="#DejaVuSans-32"/><use xlink:href="#DejaVuSans-30" x="63.623"/><use xlink:href="#DejaVuSans-32" x="127.246"/><use xlink:href="#DejaVuSans-31" x="190.869"/><use xlink:href="#DejaVuSans-2d" x="254.492"/><use xlink:href="#DejaVuSans-30" x="290.576"/><use xlink:href="#DejaVuSans-31" x="354.199"/></g></g><g id="xtick_4"><use xlink:href="#m19215298bf" id="line2d_4" x="312.504" y="284.4" style="fill:#b0b0b0;stroke:#b0b0b0;stroke-width:.4"/><g id="text_4" style="fill:#b0b0b0" transform="matrix(.14 0 0 -.14 283.256 302.038)"><use xlink:href="#DejaVuSans-32"/><use xlink:href="#DejaVuSans-30" x="63.623"/><use xlink:href="#DejaVuSans-32" x="127.246"/><use xlink:href="#DejaVuSans-31" x="190.869"/><use xlink:href="#DejaVuSans-2d" x="254.492"/><use xlink:href="#DejaVuSans-30" x="290.576"/><use xlink:href="#DejaVuSans-35" x="354.199"/></g></g><g id="xtick_5"><use xlink:href="#m19215298bf" id="line2d_5" x="378.119" y="284.4" style="fill:#b0b0b0;stroke:#b0b0b0;stroke-width:.4"/><g id="text_5" style="fill:#b0b0b0" transform="matrix(.14 0 0 -.14 348.871 302.038)"><use xlink:href="#DejaVuSans-32"/><use xlink:href="#DejaVuSans-30" x="63.623"/><use xlink:href="#DejaVuSans-32" x="127.246"/><use xlink:href="#DejaVuSans-31" x="190.869"/><use xlink:href="#DejaVuSans-2d" x="254.492"/><use xlink:href="#DejaVuSans-30" x="290.576"/><use xlink:href="#DejaVuSans-39" x="354.199"/></g></g><g id="xtick_6"><use xlink:href="#m19215298bf" id="line2d_6" x="443.201" y="284.4" style="fill:#b0b0b0;stroke:#b0b0b0;stroke-width:.4"/><g id="text_6" style="fill:#b0b0b0" transform="matrix(.14 0 0 -.14 413.953 302.038)"><use xlink:href="#DejaVuSans-32"/><use xlink:href="#DejaVuSans-30" x="63.623"/><use xlink:href="#DejaVuSans-32" x="127.246"/><use xlink:href="#DejaVuSans-32" x="190.869"/><use xlink:href="#DejaVuSans-2d" x="254.492"/><use xlink:href="#DejaVuSans-30" x="290.576"/><use xlink:href="#DejaVuSans-31" x="354.199"/></g></g><g id="xtick_7"><use xlink:href="#m19215298bf" id="line2d_7" x="507.217" y="284.4" style="fill:#b0b0b0;stroke:#b0b0b0;stroke-width:.4"/><g id="text_7" style="fill:#b0b0b0" transform="matrix(.14 0 0 -.14 477.969 302.038)"><use xlink:href="#DejaVuSans-32"/><use xlink:href="#DejaVuSans-30" x="63.623"/><use xlink:href="#DejaVuSans-32" x="127.246"/><use xlink:href="#DejaVuSans-32" x="190.869"/><use xlink:href="#DejaVuSans-2d" x="254.492"/><use xlink:href="#DejaVuSans-30" x="290.576"/><use xlink:href="#DejaVuSans-35" x="354.199"/></g></g><g id="xtick_8"><use xlink:href="#m19215298bf" id="line2d_8" x="572.832" y="284.4" style="fill:#b0b0b0;stroke:#b0b0b0;stroke-width:.4"/><g id="text_8" style="fill:#b0b0b0" transform="matrix(.14 0 0 -.14 543.584 302.038)"><use xlink:href="#DejaVuSans-32"/><use xlink:href="#DejaVuSans-30" x="63.623"/><use xlink:href="#DejaVuSans-32" x="127.246"/><use xlink:href="#DejaVuSans-32" x="190.869"/><use xlink:href="#DejaVuSans-2d" x="254.492"/><use xlink:href="#DejaVuSans-30" x="290.576"/><use xlink:href="#DejaVuSans-39" x="354.199"/></g></g></g><g id="matplotlib.axis_2"><g id="ytick_1"><path id="line2d_9" d="M67.645 284.4h558" clip-path="url(#p8b007bdb3f)" style="fill:none;stroke:#b0b0b0;stroke-width:.3;stroke-linecap:square"/><g id="line2d_10"><defs><path id="mcadedcc382" d="M0 0h-3.5" style="stroke:#b0b0b0;stroke-width:.3"/></defs><use xlink:href="#mcadedcc382" x="67.645" y="284.4" style="fill:#b0b0b0;stroke:#b0b0b0;stroke-width:.3"/></g><use xlink:href="#DejaVuSans-30" id="text_9" style="fill:#b0b0b0" transform="matrix(.14 0 0 -.14 51.737 289.719)"/></g><g id="ytick_2"><path id="line2d_11" d="M67.645 246.636h558" clip-path="url(#p8b007bdb3f)" style="fill:none;stroke:#b0b0b0;stroke-width:.3;stroke-linecap:square"/><use xlink:href="#mcadedcc382" id="line2d_12" x="67.645" y="246.636" style="fill:#b0b0b0;stroke:#b0b0b0;stroke-width:.3"/><g id="text_10" style="fill:#b0b0b0" transform="matrix(.14 0 0 -.14 16.108 251.955)"><use xlink:href="#DejaVuSans-35"/><use xlink:href="#DejaVuSans-30" x="63.623"/><use xlink:href="#DejaVuSans-30" x="127.246"/><use xlink:href="#DejaVuSans-30" x="190.869"/><use xlink:href="#DejaVuSans-30" x="254.492"/></g></g><g id="ytick_3"><path id="line2d_13" d="M67.645 208.872h558" clip-path="url(#p8b007bdb3f)" style="fill:none;stroke:#b0b0b0;stroke-width:.3;stroke-linecap:square"/><use xlink:href="#mcadedcc382" id="line2d_14" x="67.645" y="208.872" style="fill:#b0b0b0;stroke:#b0b0b0;stroke-width:.3"/><g id="text_11" style="fill:#b0b0b0" transform="matrix(.14 0 0 -.14 7.2 214.191)"><use xlink:href="#DejaVuSans-31"/><use xlink:href="#DejaVuSans-30" x="63.623"/><use xlink:href="#DejaVuSans-30" x="127.246"/><use xlink:href="#DejaVuSans-30" x="190.869"/><use xlink:href="#DejaVuSans-30" x="254.492"/><use xlink:href="#DejaVuSans-30" x="318.115"/></g></g><g id="ytick_4"><path id="line2d_15" d="M67.645 171.108h558" clip-path="url(#p8b007bdb3f)" style="fill:none;stroke:#b0b0b0;stroke-width:.3;stroke-linecap:square"/><use xlink:href="#mcadedcc382" id="line2d_16" x="67.645" y="171.108" style="fill:#b0b0b0;stroke:#b0b0b0;stroke-width:.3"/><g id="text_12" style="fill:#b0b0b0" transform="matrix(.14 0 0 -.14 7.2 176.427)"><use xlink:href="#DejaVuSans-31"/><use xlink:href="#DejaVuSans-35" x="63.623"/><use xlink:href="#DejaVuSans-30" x="127.246"/><use xlink:href="#DejaVuSans-30" x="190.869"/><use xlink:href="#DejaVuSans-30" x="254.492"/><use xlink:href="#DejaVuSans-30" x="318.115"/></g></g><g id="ytick_5"><path id="line2d_17" d="M67.645 133.344h558" clip-path="url(#p8b007bdb3f)" style="fill:none;stroke:#b0b0b0;stroke-width:.3;stroke-linecap:square"/><use xlink:href="#mcadedcc382" id="line2d_18" x="67.645" y="133.344" style="fill:#b0b0b0;stroke:#b0b0b0;stroke-width:.3"/><g id="text_13" style="fill:#b0b0b0" transform="matrix(.14 0 0 -.14 7.2 138.663)"><use xlink:href="#DejaVuSans-32"/><use xlink:href="#DejaVuSans-30" x="63.623"/><use xlink:href="#DejaVuSans-30" x="127.246"/><use xlink:href="#DejaVuSans-30" x="190.869"/><use xlink:href="#DejaVuSans-30" x="254.492"/><use xlink:href="#DejaVuSans-30" x="318.115"/></g></g><g id="ytick_6"><path id="line2d_19" d="M67.645 95.58h558" clip-path="url(#p8b007bdb3f)" style="fill:none;stroke:#b0b0b0;stroke-width:.3;stroke-linecap:square"/><use xlink:href="#mcadedcc382" id="line2d_20" x="67.645" y="95.581" style="fill:#b0b0b0;stroke:#b0b0b0;stroke-width:.3"/><g id="text_14" style="fill:#b0b0b0" transform="matrix(.14 0 0 -.14 7.2 100.9)"><use xlink:href="#DejaVuSans-32"/><use xlink:href="#DejaVuSans-35" x="63.623"/><use xlink:href="#DejaVuSans-30" x="127.246"/><use xlink:href="#DejaVuSans-30" x="190.869"/><use xlink:href="#DejaVuSans-30" x="254.492"/><use xlink:href="#DejaVuSans-30" x="318.115"/></g></g><g id="ytick_7"><path id="line2d_21" d="M67.645 57.817h558" clip-path="url(#p8b007bdb3f)" style="fill:none;stroke:#b0b0b0;stroke-width:.3;stroke-linecap:square"/><use xlink:href="#mcadedcc382" id="line2d_22" x="67.645" y="57.817" style="fill:#b0b0b0;stroke:#b0b0b0;stroke-width:.3"/><g id="text_15" style="fill:#b0b0b0" transform="matrix(.14 0 0 -.14 7.2 63.136)"><defs><path id="DejaVuSans-33" d="M2597 2516q453-97 707-404 255-306 255-756 0-690-475-1069Q2609-91 1734-91q-293 0-604 58T488 141v609q262-153 574-231 313-78 654-78 593 0 904 234t311 681q0 413-289 645-289 233-804 233h-544v519h569q465 0 712 186t247 536q0 359-255 551-254 193-729 193-260 0-557-57-297-56-653-174v562q360 100 674 150t592 50q719 0 1137-327 419-326 419-882 0-388-222-655t-631-370z" transform="scale(.01563)"/></defs><use xlink:href="#DejaVuSans-33"/><use xlink:href="#DejaVuSans-30" x="63.623"/><use xlink:href="#DejaVuSans-30" x="127.246"/><use xlink:href="#DejaVuSans-30" x="190.869"/><use xlink:href="#DejaVuSans-30" x="254.492"/><use xlink:href="#DejaVuSans-30" x="318.115"/></g></g><g id="ytick_8"><path id="line2d_23" d="M67.645 20.053h558" clip-path="url(#p8b007bdb3f)" style="fill:none;stroke:#b0b0b0;stroke-width:.3;stroke-linecap:square"/><use xlink:href="#mcadedcc382" id="line2d_24" x="67.645" y="20.053" style="fill:#b0b0b0;stroke:#b0b0b0;stroke-width:.3"/><g id="text_16" style="fill:#b0b0b0" transform="matrix(.14 0 0 -.14 7.2 25.372)"><use xlink:href="#DejaVuSans-33"/><use xlink:href="#DejaVuSans-35" x="63.623"/><use xlink:href="#DejaVuSans-30" x="127.246"/><use xlink:href="#DejaVuSans-30" x="190.869"/><use xlink:href="#DejaVuSans-30" x="254.492"/><use xlink:href="#DejaVuSans-30" x="318.115"/></g></g></g><path id="line2d_25" d="m67.645 284.4 21.338-.107 2.668-.224 2.134-.309 2.133-.435 1.067-.375 1.067-.299 2.134-.79.534-.107.533-.581.533-.203.534.196.533-.155.534 2.344 1.067.372.533.673h1.6l.534-1.151.534-5.384.533-.052.533-2.259.534.07.533-.949.534-.035.533-.255.534 5.358.533.075.534 1.595.533.152.534 1.541.533-.1.534.23.533.05 1.067-.184.533.351.534-.316.533.247 1.067.125 1.067.554.534-.603 1.6.08 1.6.077.534.39 7.468.19.534-.332.533.017 1.067-.207 1.067.089.534.367 1.066-.109.534.132 1.6-.127.534-.415.533.43 2.668-.017 3.2-.017 2.668.023.533.081 2.134-.135 1.067.088 1.6-.087 2.667.02h1.067l2.668-.005 3.2-.223 1.6-.06 1.601-.098 1.6-.092 4.802-.505 1.067-.172 1.067-.664.533.445 1.067-.204 1.067-.45.533-.029 1.6-.489.534.378.534-.693 1.067-.503 1.067-.192.533-.163.533-.734.534.443.533-.133.534-.339 3.734-1.293.534.073 1.066-.34.534-.18.533-.05.534-.4.533-.24.534-.453.533.085 1.067-.564.534-.612.533-.31 1.067-.081 1.067.358.533-.122 1.067.706 1.067-.449.534-.144.533-.357 1.067-.967 1.067-2.024 2.134-1.445.533-1.333 1.067-1.086.534-1.494.533-.547.534-.729.533-.48.533-1.192.534-1.858.533-1.416.534 2.506.533-6.336.534-1.52.533-1.094 1.067-1.343.534 1.097 1.6-11.954.533 9.028 1.067-2.445.534-5.562.533.821.534 9.136.533 5.393.534-8.904.533 2.726.534 3.972.533 5.902 1.067 2.454.533-2.48.534.815.533 1.27.534.094 1.067 3.059.533.538.534 3.85.533 1.304.534.84.533 1.132.534.56.533.364 1.067.24.533.273.534.024.533.136 1.6-.075.534-.604 1.067-.166 1.067-.328 1.067-.04.533.25.534-.328.533-.488 2.134-1.075.534-.014.533.295 1.067-.832.533 1.547 1.067.738.534.04.533-1.244 1.067.283.534-.04.533-.392.534-.105.533-1.008.534.144.533-.19.533-.055.534-1.803.533-.373 1.067.145 1.067.182 1.6-.365.534.002.534-.46.533-.305 1.067-.365 1.067-.484.533-.054.534.203 2.134-.124 1.6-.236.533.059.534 2.567.533-2.414.534.373 1.067-.036.533.466.534.107.533-2.272.534 2.687.533-.07.533.328 1.6-.029.534-.155.534-.37.533-.122.534-.58 1.067-.091.533-.7.534-.312 1.066-.305.534.225.533-.008.534-.289.533.509.534.014 1.067.262 1.067-.292.533-.033 1.067-.61.533-.17.534-.687.533-.498.534-.1.533-.739 1.6-2.792 1.068-1.057.533-1.007.534 1.654.533-2.9.533-1.142 1.6-2.213.534.724.534-1.73.533.685 1.067-1.06.534 4.582.533-4.695.534-.182.533 2.446.533 6.271.534-5.001.533 5.019.534-.134.533-4.02.534.241.533-3.353.534-4.594.533 6.365 1.067-7.634.534 9.551.533.199.533-.534.534.926 1.067.945.533.348.534.526.533.081.534 1.484.533.365 1.6 2.359.534 1.573.533.237 1.6 1.76 1.068 1.085 1.067.136 1.067.981.533.243.533 1.306.534.55.533-.53.534-.005 1.067.54.533 10.342h3.201l.533-7.246 2.134.602.534-.723.533 1.22.534-.176 1.6 1.368.534-.087.533.413.533-.455.534 1.196 1.067.621.533.238.534.052 1.6.832 5.868.762.534-.128.533.103 3.2-.397 1.068-.484 1.6-.571.534-.05.533-.364.534.284 2.133-2.967.534-.315.533-1.215.534-2.171.533-1.192.534-.914.533-1.59.534-.292.533-.132.534-.961.533-.686.534-.359.533-.529.533.203 1.067-.825.534.305 2.667-.755.534.148 1.067-.879 1.066-.511.534.154.533-.087.534-.667 2.134 1.685.533.185.534.428.533.592.534-.085 1.066 1.298.534 2.426.533-1.394.534.396.533.025.534 2.793.533-1.017.534.597.533-1.594.534 2.406.533.347.533.5.534-1.565.533 2.934.534-.428.533.562 1.067.65 1.067.088.534.598.533.403 1.6.655.534.084.533.613.534-.728.533.764.534.116.533.281 5.335 1.038.533-.376 3.201.08.534.876.533-.48.533-.15 2.134.016.534-.483.533.364.534-.029 1.067-.28 1.067-.101.533-.108 1.067.016 1.6-.311.534.503 1.6-.983 1.067-.483.534-.038.533-1.129.533-.176.534-.35.533.56 1.067-.967.534-.115 1.6-2.534.534-1.876 1.067-1.648.533-.22 1.067-2.47 2.134-5.667.533-.347 2.134-7.001.534-1.551.533-1.14.533-.333 1.067-2.451.534-.911.533-.571 1.067-.448.534-.05 1.6-1.375.533-.322 1.067-.997.534-.327.533-1.022.534-2.006 1.067-7.198.533-4.971.534 2.241.533-1.656 1.067-24.905 1.6-39.651 1.067-7.31.534-9.944.533-13.39.534-6.08 1.067-19.485.533-25.643.534-2.854.533-10.45.533-3.19.534-4.909.533-.16.534-2.259.533 1.939.534-.941.533-10.407.534-8.058.533-12.832 1.067-14.72.534-2.537.533-.736.533-4.109.534.954.533 3.638 1.067 11.23.534 5.63.533 2.269.534 9.56 2.667 59.522.533 4.273.534 18.994.533 33.88.534-6.25 1.067 21.981.533 7.431.534 1.752.533 25.542.534-25.989.533 25.973 1.067 9.765.533 2.972.534 1.309.533-10.31.534 18.274 1.6 8.082.534 1.77.533.51 1.067 3.485.534.778 1.066.035.534-.294.533-.06 1.6-4.106 1.601-4.809.534-.68.533-2.555.534-4.169 2.133-10.99.534-.206.533-6.884 1.6-13.946.534-4.468.534-3.118.533-.569.533-3.936.534-1.615.533-3.147.534-.587 1.067 1.652.533-.25.534.855.533 1.955.534 1.15.533.005.534-1.043.533-.581.533.71.534 2.049.533.482 1.067 4.864.534 3.258.533 2.267.534.618.533 17.832.534-1.001 2.133 13.933.534.62.533-7.769.534 9.494 1.067 8.58.533 3.354.534 2.399.533.572.534 3.278 1.067 3.818 1.066 2.618.534.799.533.15.534 1.15 2.667 4.003.534.152.533 1.374.534-2.578 1.6 2.667.533.634.534 3.84.533 1.235.534 4.569.533.713.534 2.107.533-.116.534.057.533-3.703 1.067-.78.533-.447.534-2.19.533-.172.534-.443.533-.167.534 2.536.533-2.987.534-1.594 1.6 7.644.534.668.533-17.797.533.203.534-1.395.533-5.452 1.067-.01.534-11 .533 8.75 1.6-8.79h1.068l1.066-12.433 1.6-15.753h1.068l.533-8.47.534-6.431 1.067-6.244.533-1.74h1.067l.533-.873 1.067 5.496 1.067 32.617h1.067l.534-11.476.533 5.158.534 4.055 1.066-16.772h1.067l.534 24.588.533 4.993 1.6 9.661h1.068l.533 5.38.534 3.615 1.066 4.06.534 1.62h1.067l.533 2.675.534 1.8.533 1.314 1.067 1.853h1.067l.534 5.942 1.066-1.987.534.078.533.268h1.067l.534-4.158.533 2.13.534 1.566.533.4.534.233h1.067l.533.322 2.134.704h1.067l.533.41.534.08 1.067-.193.533-.29h1.067l.533-.927.534-2.052.533-1.02.534-1.448.533-1.035h1.067l.534-2.264.533-.636.534-.937.533-.559.534-.953h1.066l.534-1.658.533-2.522 1.067-2.86.534-1.158h1.067l1.6-4.814 1.067-2.92h1.067l.533-1.784.534-.604.533-.136.534.139 1.6-.02.534.268.533.768.533.527.534.802.533 1.323h1.067l2.134 10.161.534 2.514h1.067l.533 4.227.533 6.436.534.656 1.067-.93h1.067l.533-.94.534-4.374.533.679.534 1.617.533 3.176h1.067l.533-1.518.534-.97 1.067-1.221.533-4.012h1.067l.534-.25 2.134-6.426h1.066l1.067-6.074 1.067-3.968.534-1.12h1.067l.533-.89.534-1.34.533-.952.534-.236.533-.716h0" clip-path="url(#p8b007bdb3f)" style="fill:none;stroke:#0309a6;stroke-width:1.5;stroke-linecap:square"/><path id="line2d_26" d="m67.645 284.4 16.537-.094 2.668-.19 2.133-.329 3.201-1.035 2.668-1.149 1.066-.701 1.6-.566 1.068-.204 1.6.108 2.134.421 1.6.366 1.067.158 1.6.22 2.134.092 1.067.172 1.067.179 1.6.236.534-.076 1.6.296 8.536 1.246 1.067.025 5.334.332 12.804.284 2.133.034 3.201-.035 9.069.058 11.736-.056 9.069-.251 6.401-.51 2.668-.064 2.134-.062 3.2.033 4.802-.183 2.667-.167 2.134-.338 1.067-.309 1.067-.516 2.667-1.618 1.6-1.53 1.067-1.183.534-.537 2.133-3.56 2.668-5.275 1.067-2.595.533-.932 1.6-1.84 1.6-2.422 1.068-.618.533-.74 1.067-.634.534-.335.533.276 1.067-.372.533.313.534-.142.533.194 1.6 1.272.534.478 1.067 1.876 1.067 1.734 1.067 1.742.533.707 1.067.973 1.067 1.08.534.568 1.067.481.533.487 1.067 1.53.534.58 2.133.405.534-.52.533-.133 1.6 1.053 1.068.29.533.394.534.021.533-.392 1.067 1.302 1.067.474.533-.248.534-.587.533-.342.534-.153.533-.573.534-.24 1.067-.893 1.066 1.05.534-.879.533-.472.534-.187.533.122.534.491 1.067.276.533.396.534.656 1.067.804 1.066.582 1.6.69 1.068.02.533-.175 1.067-.025 2.134.276.533.217.534.076 2.667-.299.534.025.533-.16 3.2.277.534.15 1.6-.579 1.068-.561.533-.468 1.067-1.201 3.2-2.443 1.601-1.245.534-.084.533-.287.534-.155 1.6-.861 1.6-.28.534-.083 1.067.197 1.067.365.533-.998 2.134.677 1.067.057.533 1.251.534.29.533-.285 1.067.394 1.067.45.534.24 1.6 2.532 1.6.968.534.097.533-.612.534-.267.533.026 1.6.89 1.067.246.534.25 5.335 1.037.533.433.533.27.534.138 2.134 1.187 1.067.186 1.067.529 1.6 1.103 1.6.719 2.668 1.158 1.6.405 2.134.592 1.6.264 1.067.363 2.134.293 5.868.72 4.801.39 2.668-.023 2.667-.119 3.734-.528 2.667-.882 3.201-1.253 1.6-.379 1.6-.369 1.068-.042 1.6-.21 1.6-.196 1.068-.12 6.401-.134 1.067-.128 3.2.053 2.135.356 2.667.446 1.6.295 2.134.297 1.6.272 1.6.203 2.135.39 2.667.23 3.2.232 4.802.269 2.134-.148 5.868-1.293.533-.03.534.131 1.067-.176 2.134-.684 1.6-.962 1.6-.57.534-.07 2.134-.844 1.067-.555 1.066-.37 1.067-.582.534-.338.533-.143.534-.348.533-.169 2.134-1.265.534-.405 1.6-.711.533-.31.534.463 1.067-.85 2.134-1.897.533-1.466 1.067-1.635.533-.549.534-.378.533-1.091.534-1.418 1.067-4.365.533-2.884.534-.062.533-1.575.534-5.127.533-6.656 1.6-28.328 1.067-7.93 1.6-29.783.534 3.88.534-6.073.533-10.197 1.067-10.687.533-.768.534 3.76.533-9.988.534.496.533-.196.534 3.67.533-.82.534-.514.533-1.542 1.6 4.947.534.617.533 1.818.534 3.24 2.134 17.518.533 2.162.534 8.413 1.067 10.218 1.067 9.46.533 2.716.533 1.73.534 3.33 1.6 11.636 1.067 6.212.534 1.383.533 3.389 1.067 4.31 1.067 2.732.533 1.094.534.463 3.2 7.06.534.669 1.067 2.613 1.067.93.533-.216 1.067-.906 3.201-8.756.534-.76 2.667-13.257.533-1.244.534-.405.533-1.132.534-.454.533-.03 1.067.36 1.067.305.533-.366 1.067 1.644.534-.07.533.346.534.605.533.025.534 1.228.533.164.534.458.533 1.014.534.754.533.118.533.283.534.524.533.788 1.067 1.063.534-.012.533.18.534 1.092.533 6.12.534-4.084 1.067-2.355.533-.701.533-.496.534-.722.533-.287.534 1.296.533.643 1.067 3.384.534 1.646.533.67.534-3.498.533 4.4.534 2.3 1.066 3.05.534 1.119.533.178 1.067 1.205.534.996 1.067 1.056 1.067.77 3.2 7.073.534.405.533 1.531.534.732.533 1.063 1.6 1.486.534.235 1.067 1.225.533.34.534 1.308.533-.452 1.067-.124 1.067-.86.534-.627.533-1.33.534.039.533-.41.534-.22 1.6-3.746 1.6-4.49.534-.673 1.6-7.105 1.6-6.173.534-.876.533-2.254.534-4.38 1.067-6.18 1.067-5.683.533-1.28.534-5.271.533-1.571.534-2.606 1.066-3.013.534-.933.533-5.058.534-1.191.533-.17.534-.026.533.423.534.811.533 1.356.534 5.58 1.067 5.151 1.6 8.155.533 1.847.534.856.533 3.501 1.067 4.652 1.6 5.476.534.496.534 2.54 1.6 5.667.533 1.65.534 1.144.533.814.534 2.376 1.6 4.35.534 1.102.533.777.534.225.533 3.683.533-.492 2.134.378.534-.056.533-2.85.534 1.173 1.067.707 1.067.476.533.223 1.067.846 1.6 1.07.534.48.533.188.534.673 1.067.801 1.067.663.533.14.533-.07.534.183 3.2-.75.534-.565.534-.252 1.6-1.455.533-.724.534-.189 1.6-5.081 1.067-2.6.534-1.091.533-.358.534-1.66 1.6-2.8.533-1.15.534-.597.533-.191.534-.61.533-.272.534-.093 1.6 1.408.534.114 1.066 1.468 2.134 2.319.534.261.533 1.04.534.72 1.067 1.714.533.536.534 2.757.533 1.253.533 5.256 1.067 7.206.534-8.842.533 2.892h2.668l.533-7.574h3.2l.534-2.93h3.201l.534-2.243h3.2l.534.184h3.2l.534.658h0" clip-path="url(#p8b007bdb3f)" style="fill:none;stroke:#1007e1;stroke-width:1.5;stroke-linecap:square"/><path id="line2d_27" d="m67.645 284.4 21.872-.104 2.134-.169 2.134-.36.533-.082 2.667-1.083 1.067-.722 1.067-.537.534-.387.533-.218 3.734-.564 3.201.786.534.336 1.6.476 1.067.437 3.734.405 1.067.245 5.868.789 1.067.013 6.402.252 1.6.063 14.403.088 2.668-.13 3.734.126 11.736-.02 4.801-.139 10.136-.433 1.6-.1 8.536.102 1.6-.093 2.134-.076 6.935-.332 2.134-.104 3.2-.652 1.067-.362 1.067-.277 1.6-.831 1.068-.563 1.067-.497.533-.265 1.067-.924 1.067-1.345 1.067-.96.533-.796.534-.592.533-.803 1.067-.792 2.134-1.384.533-.304.534-.469 1.067-.335.533.002 1.067-.34.534-.219.533.101.534-.1.533.274 1.067.198 1.6-.146.534.13 2.134.01 2.133.317.534-.005.533.147 1.067-.045.534-.175.533-.341 1.067-.174.534-.383.533-.176 1.067-1.246.533-.262.534-.435.533-.04.534-.747 2.134-1.357.533-.03.534-.55.533.322.534-.568.533.89.533 1.817.534.972 1.067 1.328.533.246.534-.038 1.6.843 1.6.36.534.665.533-.963.534-1.295.533-.715.534-.286.533-.098 1.067.31.534 1.022.533.65.534.33.533.578.534.154 1.066.906.534.486 1.067.42.533.044.534.535 1.6 1.02.534.442 1.6.268 1.067.738 1.067.318.533.278.534.116 3.2 1.729 3.201.012.534-.168 1.6-.046 1.067-.275 1.6-.126 1.6-.12 1.068-.041 2.134-.1 2.667-1.306.533-.132 1.6-1.304 1.068-.68 1.067-.336.533-.256 1.067-.997 1.067-.85 1.6-.59.534-.178.533-.034.534.253.533.537.534.149.533.287.533.796.534.42.533-.386 1.6-1.767.534-.423.534-1.297.533-.973 1.6-.151 1.067.324.534-.344.533-.01.534-.185 1.6.038.534-.147.533.286.534.516.533.347.534.48 1.066.565 1.6 1.125.534.63 1.6.984.534.152.534.338.533.489 1.067 1.612.533.448 1.067.37 1.6 1.247 1.068.28 1.067.543.533.907.533.646 1.067.329.534.309 1.067.09.533-.248.534.18 1.067.793 1.067.245.533.063 1.067.336 3.2.537 1.068.348 1.6.178 9.069.251 5.868-.459 3.734-.312 1.067-.1 1.067-.174 5.335-.612 1.067-.23 2.133-.893 1.067-.256 2.134-1.32 1.067-.417.534-.198 2.133-1.34 1.067-.244h.534l1.6-.57.534-.058.533-.22 1.6-.13.534-.184.533.138.534-.04.533.335.534-.083 1.067.163 1.6.73.533.001 3.201 1.15.534-.048 1.067.13 2.133-.483.534.174 3.2-.065.534-.156 1.6-.06 1.067-.197 1.067-.341 1.067-.296 1.067-.95.534-.87 2.667-2.337.533-1.29 1.6-1.58.534-.334.534-.036.533.303.534-.638 1.067-2.688 1.067-1.35.533-1.188 1.067-3.833 1.6-3.513.534-.873.533-1.102 1.067-3.057.534-.467.533-2.033.534-.996.533-.759 1.6-4.092.534-2.53.533-.345.534-.18.533.138 1.067-.08 1.6.802 1.067.418.534 1.046.533-.26.534.28 1.067 2.576.533 1.016 1.067 1.222.534 1.974.533 1.504 1.067 2.288.533.356.534.61 1.067 1.407.533 1.267.534 1.677 1.067 4.3 1.067.487.533.606.533.233.534-.627.533-.45.534-.261.533-.497.534-1.023 1.6-5.992 1.067-5.776.534-.727.533-1.633 1.067-4.164.533-3.872.534-2.388.533-1.721.534-.96 1.067-6.539 1.6-16.993 1.067-6.71 1.067-11.245.533-7.51 1.067-11.188.534-3.618.533-1.61.534-3.848.533-4.801.534-3.559.533-6.332.534-3.091 1.066-3.362.534-.75.533-2.779.534-1.267 1.6 2.666.534 2.028.533 1.118 1.067 2.86 1.067 4.403.533.77.534.28.533 3.594.534 1.179.533 2.082.534 1.004.533 1.432 1.067 2.335.534.41.533 2.442.534.61.533-.74.533-1.766.534-.969.533-1.734 1.067-6.92.534-5.62.533-3.802.534-4.842.533-3.207.534-1.505 2.133-17.913.534-2.498.533 1.599.534.007 1.6-7.314.534.145.533.886 1.067 4.897.533-1.648.534 1.646.533-22.561.534 31.997.533 5.996.534-.427 1.067 13.428.533-15.994.534 38.004.533-16.264.534 15.212.533 9.106.533-21.627.534 4.504.533 27.12.534 1.985.533 12.203.534 1.693.533 1.112.534 19.201.533-6.466.534-2.261.533-.524.534-10.521 1.066.108.534-12.334.533 21.426.534-9.218 1.067 11.64.533 2.963.534 1.732.533 2.512.534-11.505.533 18.946 1.067 3.408.533.348.534.074.533.642.534 1.038.533.778.534 1.734.533 1.122.534.252.533.113 1.067 4.992.534 3.263 1.066 4.27.534.251.533.115 1.6 6.877.534 5.077.534.26 1.6.447.534-.628.533-.949.533-4.406.534-.12.533.292.534-.282.533 6.488 2.134-12.76h.534l.533-.216.534-11.231.533-.83.533-1.241.534 5.369.533-1.61.534-.001.533-.169.534-1.862 1.067-6.161.533-8.64.534-.979h.533l.534.663.533-2.075 1.067-3.024.533-.53.534-1.007h.533l.534-.169.533-.557.534.348.533-.295.534-.5.533.297h.533l.534-.122.533-.78.534.336.533-1.807.534.867.533-2.927h.534l.533.377.534-.643.533-1.445.534 1.675.533.203.533 3.349h1.067l.534 1.641.533 2.074.534 3.506 1.067 5.29 1.067-.093 1.067 8.295 1.066 5.91.534 1.768 1.067.093.533 2.59 1.067 3.204.534 1.043.533.405h1.067l.534 1.614.533.577.533.13.534.336.533 1.032 1.067-.006.534.36.533 1.56.534 6.331.533-4.296.534.33 1.067.006.533.637.533 5.712.534-9.57.533 5.677.534.418h1.067l.533.518.534-5.017.533 5.033.534-.223 1.067-.088h.533l1.6-1.563.534-.297.533-.696h1.067l1.067-1.157 1.6-3.546h1.067l.534-3.134.533-4.218.534-2.361.533-4.917.534-2.902h1.067l.533 9.634.534-4.07.533-5.787.534-8.388.533-5.223h1.067l.533-18.617.534-.347.533-1.372.534 6.465.533 3.318h1.067l.534 2.426.533.72.533 3.065.534 2.364.533 1.82h1.067l2.668 17.849h1.067l1.066 14.221.534.03.533.524.534.956h1.067l.533-1.35.534-1.926.533 4.311.534 2.475.533 1.131h1.067l.533 1.498.534.994 1.067 1.238.533.329h1.067l1.067 1.167.534-.516.533-.262 1.067.07h.533l.534-.527.533-1.13.534.213.533-.044.534-.34 1.6-.025.534-.17 1.6-1.22h0" clip-path="url(#p8b007bdb3f)" style="fill:none;stroke:#d8b009;stroke-width:1.5;stroke-linecap:square"/><path id="line2d_28" d="m67.645 284.4 104.025-.11 10.136-.062 5.334.03 20.805-.166 3.201-.19 4.268-.501 4.267-.702 5.868-.308 3.201.363 1.067.192 1.6.13 2.134.04 12.27.811 16.004.067 6.401-.348 8.536-.204 1.067-.165 4.267-.331 1.067-.059 1.6-.085 2.668-.128.533.18 1.6-.187 1.601-.053.534-.216 3.2.176 3.735-.496 2.133.085 2.668.169 1.067-.097 2.133.058 1.067.123 4.268.269 1.067.28.533-.09.534.207.533.074 2.134-.437.534.026.533-.194.534-.042 1.066.19 2.668.19 8.535.544 3.2.274 8.003.414 3.2-.074 2.134-.262 1.6-.446 4.802-.925 8.535-.073 2.668.005 2.134-.21 1.6-.206 2.134.062 1.6.034 4.801.017 3.201.346 3.734.37 2.134-.038 4.268-.02 2.667.122 10.136-.352 4.801-.66 1.067.037 2.134-.672.533-.27 1.067-.767 2.667-.886 2.134.08 2.134.098.534-.099 1.6-.044 1.6.03.534.123 1.6.106 7.469 1.016 1.6.349 2.667.074.534-.092 1.067-.523 1.067-.373.533-.604.534-1.639.533-2.502 1.6-9.199.534-1.467 1.067-5.978.533-1.571.534.201.533 1.212.534-.827.533-.103.534.915 1.6 5.372.533 1.032.534 2.182 1.067 1.806.533.986.534.448.533.166 2.134-.344.533.627.534.231 1.067-.29.533-.136.534.108.533-.071.534-.768.533-.094.534.222 1.067.785 1.066.11.534.141 1.067-.246.533.107 1.6-.195.534.187 1.067-.026.534-.103 1.066.258 1.6.774 1.601 1.058 1.067.346 1.067.41 1.067-.012 1.067-.228.533.823.534-.416 1.067-1.495 1.067-1.21.533-.3.534-1.514.533-.6.534-.04 1.066-.512 2.134-.228.534.063.533.232.534.797.533.34.534-.104.533-.428.533-.255 1.067.18.534-.526.533.08.534.331 1.067 2.124 1.067 2.203.533.684.534.357.533.186.533 1.24.534.337 1.067.298.533.705.534.486 1.067.65 1.067.95.533.276.534.13.533.415.533.612.534-.49.533.57.534-.445 1.067-.137.533-.25.534-.508.533.62.534.072 1.067.632 1.066.446.534.163.533-.017.534-.236.533.35 2.668.13 1.6.125 3.734.467 7.469-.128 1.6-.335.534.27.533-.268.533-.517 2.134-1.079 1.067-1.002.534-.134.533-.358 1.6-1.434.534-.307.533-.837 1.067-1.145 1.067-.826 1.067-.433.534-.598 1.6-.978 1.067-.437.533 1.01.534 2.792 2.134 8.066.533 1.436h.534l.533-39.666h3.2l.534 39.666.534-14.96h2.667l.534-13.508.533 14.96h2.667l.534 2.388h3.2l.534 2.805h3.2l.534 2.134h3.201l.533.7h3.201l.534.933h3.2l.534.898h3.2l.534-.278h3.2l.534-.925h3.201l.534-1.068h3.2l.534.372h3.2l.534-.438h3.2l.534.245 6.935-.051.534-.832h3.2l.534.562h3.2l.534.234h3.2l.534 1.062 5.335.018h0" clip-path="url(#p8b007bdb3f)" style="fill:none;stroke:#6b7186;stroke-width:1.5;stroke-linecap:square"/><path id="line2d_29" d="m67.645 284.4 26.14-.094 4.267-.287 3.734-.178 2.668.19 3.734.164 19.205.17 35.741-.051 26.14-.26 2.134-.13 4.268-.06 5.868-.049 6.401-.335 3.201-.405 2.134-.65.533-.122 1.067-.454 2.134-.864 2.667-1.222 1.067-.194 1.6-.453.534-.14 1.6.262 1.067.009 1.067.474 1.6.288 5.869 1.704 2.667.433 1.6.26 1.067-.023 1.6-.028 2.668.511 3.734.078 2.668-.134 1.6-.038 1.067.068 1.067-.067 5.868.5 2.134-.004 4.8.109 9.07-.186 4.267-.317 5.335-.27 4.268-.328 2.667-.188 1.067-.064 5.335.025 1.6.213 2.667.225 2.134-.03.534.118 1.6.014 1.067.082 1.6.044 16.004 1.258 2.134.068 15.47.28 8.002-.04 12.27-.243 3.734-.088 8.535-.523 4.268-.187 2.667-.229 1.6-.132 4.802.085 2.667.173 10.136-.204 2.134-.313 3.734-.872 1.067-.13 2.134-.951 1.067-.425 1.067-.918 1.067-.67 1.066-.615 1.067-1.041.534-.087 2.134-1.367.533-.485.534-.194.533-.463.534-.153.533-.287 1.067-.154.533.211.534.061 1.6.998 1.6 1.195 1.601 1.764 3.2 2.72 6.936 1.933 2.134.126 1.6-.237 2.134-.675.533-.367 1.067-1.333.534-.547.533-.362 1.6-2.356 1.067-1.565 1.6-2.394 1.068-1.17.533-1.245.534-.896.533-1.37 1.6-2.926 1.067-1.987 1.067-2.032 1.067-1.35 1.067-.217.534-.63.533.229 1.067.148.533-.111.534.019.533-.143.534.384.533-.185 1.067.733.534.533 1.6.641.534.477.533.297 1.067.783 2.134 1.205 1.067.145 1.067-.025.533-.397.534-.616 1.066-.579 1.067-1.3 1.067-1.308.534-1.106 1.067-3.88 1.067-2.372 1.067-1.497.533-1.37 1.067-.329.533.155.534-.008 1.067.684 1.067 2.137.533 1.47.534.985 1.066 2.409.534 1.182.533 2.234 1.6 4.786 1.068 2.285 2.134 4.541.533.644 1.067.814.533.63.534.908.533.64 1.6 1.225.534.185 1.067.839.534-.06 2.133.775 1.067-.02.534.474 1.067.351 2.134.346 2.133.185 1.067.098.534.221 2.134.36 2.133.694 1.067.952.534-.429.533.21.534.065.533.195 1.067.072h.534l.533.23.534-.115 1.066-.001 1.6-.018.534-.346.534-.099 1.067.03.533-.274h1.067l.534-.312.533-.07.533-.298.534-.46.533-.247h1.067l.534-.634 1.067-.585.533-.439.534-.195h1.067l.533-.863.533-.2.534-.755 1.6-.333h.534l.533-.34.534-.035.533.468 2.134-.124.533-.3.534.135 1.6-.477h1.067l.534-.608.533-.203.534-.02.533-.144 1.6.01.534.803.533-.17.534.253 1.067.877h1.067l.533 3.171.534-1.69.533.171 1.067.69h1.067l.533-1.847.534 2.3 1.067.39 1.6-.03 2.134.473.533-.13 2.134-.008.534-.142.533.06.534.233h1.067l.533 1.74.533-1.496 1.6.22h1.068l.533-1.275.534 1.535.533.019 1.067 1.079h1.067l.533-1.107.534.02.533 1.846 1.6-1.87.534-1.102.534 1.992.533-.372.534-2.314 1.067-.425.533-.347.533.356.534-.255.533-.496 1.067-1.265 1.067-.976 2.134-1.39.534-.169.533-.315 1.6-.338 1.067.12.534.068 1.6.82.534.249 1.066.908 1.067 1.015 1.067 2.273.534-.856.533.296 1.067 1.177.534.323 1.067-1.113.533 1.24.533.233.534.402 1.067-.074 1.067.288 2.134.14.533.246 2.134.16 6.401-.563 3.201-.313.534.375.533-.463 1.6-.024.534.14h0" clip-path="url(#p8b007bdb3f)" style="fill:none;stroke:#989173;stroke-width:1.5;stroke-linecap:square"/><g id="text_17" style="fill:#0309a6" transform="matrix(.14 0 0 -.14 642.385 240.435)"><defs><path id="DejaVuSans-46" d="M628 4666h2681v-532H1259V2759h1850v-531H1259V0H628v4666z" transform="scale(.01563)"/><path id="DejaVuSans-72" d="M2631 2963q-97 56-211 82-114 27-251 27-488 0-749-317t-261-911V0H581v3500h578v-544q182 319 472 473 291 155 707 155 59 0 131-8 72-7 159-23l3-590z" transform="scale(.01563)"/><path id="DejaVuSans-61" d="M2194 1759q-697 0-966-159t-269-544q0-306 202-486 202-179 548-179 479 0 768 339t289 901v128h-572zm1147 238V0h-575v531q-197-318-491-470T1556-91q-537 0-855 302-317 302-317 808 0 590 395 890 396 300 1180 300h807v57q0 397-261 614t-733 217q-300 0-585-72-284-72-546-216v532q315 122 612 182 297 61 578 61 760 0 1135-394 375-393 375-1193z" transform="scale(.01563)"/><path id="DejaVuSans-6e" d="M3513 2113V0h-575v2094q0 497-194 743-194 247-581 247-466 0-735-297-269-296-269-809V0H581v3500h578v-544q207 316 486 472 280 156 646 156 603 0 912-373 310-373 310-1098z" transform="scale(.01563)"/><path id="DejaVuSans-63" d="M3122 3366v-538q-244 135-489 202t-495 67q-560 0-870-355-309-354-309-995t309-996q310-354 870-354 250 0 495 67t489 202V134Q2881 22 2623-34q-257-57-548-57-791 0-1257 497-465 497-465 1341 0 856 470 1346 471 491 1290 491 265 0 518-55 253-54 491-163z" transform="scale(.01563)"/><path id="DejaVuSans-65" d="M3597 1894v-281H953q38-594 358-905t892-311q331 0 642 81t618 244V178Q3153 47 2828-22t-659-69q-838 0-1327 487-489 488-489 1320 0 859 464 1363 464 505 1252 505 706 0 1117-455 411-454 411-1235zm-575 169q-6 471-264 752-258 282-683 282-481 0-770-272t-333-766l2050 4z" transform="scale(.01563)"/></defs><use xlink:href="#DejaVuSans-46"/><use xlink:href="#DejaVuSans-72" x="50.27"/><use xlink:href="#DejaVuSans-61" x="91.383"/><use xlink:href="#DejaVuSans-6e" x="152.662"/><use xlink:href="#DejaVuSans-63" x="216.041"/><use xlink:href="#DejaVuSans-65" x="271.021"/></g><g id="text_18" style="fill:#1007e1" transform="matrix(.14 0 0 -.14 642.385 254.435)"><defs><path id="DejaVuSans-49" d="M628 4666h631V0H628v4666z" transform="scale(.01563)"/><path id="DejaVuSans-74" d="M1172 4494v-994h1184v-447H1172V1153q0-428 117-550t477-122h590V0h-590q-666 0-919 248-253 249-253 905v1900H172v447h422v994h578z" transform="scale(.01563)"/><path id="DejaVuSans-6c" d="M603 4863h575V0H603v4863z" transform="scale(.01563)"/><path id="DejaVuSans-79" d="M2059-325q-243-625-475-815-231-191-618-191H506v481h338q237 0 368 113 132 112 291 531l103 262L191 3500h609L1894 763l1094 2737h609L2059-325z" transform="scale(.01563)"/></defs><use xlink:href="#DejaVuSans-49"/><use xlink:href="#DejaVuSans-74" x="29.492"/><use xlink:href="#DejaVuSans-61" x="68.701"/><use xlink:href="#DejaVuSans-6c" x="129.98"/><use xlink:href="#DejaVuSans-79" x="157.764"/></g><g id="text_19" style="fill:#d8b009" transform="matrix(.14 0 0 -.14 642.385 268.435)"><defs><path id="DejaVuSans-47" d="M3809 666v1253H2778v519h1656V434q-365-259-806-392-440-133-940-133-1094 0-1712 639-617 640-617 1780 0 1144 617 1783 618 639 1712 639 456 0 867-113 411-112 758-331v-672q-350 297-744 447t-828 150q-857 0-1287-478-429-478-429-1425 0-944 429-1422 430-478 1287-478 334 0 596 58 263 58 472 180z" transform="scale(.01563)"/><path id="DejaVuSans-6d" d="M3328 2828q216 388 516 572t706 184q547 0 844-383 297-382 297-1088V0h-578v2094q0 503-179 746-178 244-543 244-447 0-707-297-259-296-259-809V0h-578v2094q0 506-178 748t-550 242q-441 0-701-298-259-298-259-808V0H581v3500h578v-544q197 322 472 475t653 153q382 0 649-194 267-193 395-562z" transform="scale(.01563)"/></defs><use xlink:href="#DejaVuSans-47"/><use xlink:href="#DejaVuSans-65" x="77.49"/><use xlink:href="#DejaVuSans-72" x="139.014"/><use xlink:href="#DejaVuSans-6d" x="178.377"/><use xlink:href="#DejaVuSans-61" x="275.789"/><use xlink:href="#DejaVuSans-6e" x="337.068"/><use xlink:href="#DejaVuSans-79" x="400.447"/></g><g id="text_20" style="fill:#6b7186" transform="matrix(.14 0 0 -.14 642.385 282.435)"><use xlink:href="#DejaVuSans-47"/><use xlink:href="#DejaVuSans-72" x="77.49"/><use xlink:href="#DejaVuSans-65" x="116.354"/><use xlink:href="#DejaVuSans-65" x="177.877"/><use xlink:href="#DejaVuSans-63" x="239.4"/><use xlink:href="#DejaVuSans-65" x="294.381"/></g><g id="text_21" style="fill:#989173" transform="matrix(.14 0 0 -.14 642.385 296.435)"><defs><path id="DejaVuSans-41" d="m2188 4044-857-2322h1716l-859 2322zm-357 622h716L4325 0h-656l-425 1197H1141L716 0H50l1781 4666z" transform="scale(.01563)"/><path id="DejaVuSans-75" d="M544 1381v2119h575V1403q0-497 193-746 194-248 582-248 465 0 735 297 271 297 271 810v1984h575V0h-575v538q-209-319-486-474-276-155-642-155-603 0-916 375-312 375-312 1097zm1447 2203z" transform="scale(.01563)"/><path id="DejaVuSans-73" d="M2834 3397v-544q-243 125-506 187-262 63-544 63-428 0-642-131t-214-394q0-200 153-314t616-217l197-44q612-131 870-370t258-667q0-488-386-773Q2250-91 1575-91q-281 0-586 55T347 128v594q319-166 628-249 309-82 613-82 406 0 624 139 219 139 219 392 0 234-158 359-157 125-692 241l-200 47q-534 112-772 345-237 233-237 639 0 494 350 762 350 269 994 269 318 0 599-47 282-46 519-140z" transform="scale(.01563)"/><path id="DejaVuSans-69" d="M603 3500h575V0H603v3500zm0 1363h575v-729H603v729z" transform="scale(.01563)"/></defs><use xlink:href="#DejaVuSans-41"/><use xlink:href="#DejaVuSans-75" x="68.408"/><use xlink:href="#DejaVuSans-73" x="131.787"/><use xlink:href="#DejaVuSans-74" x="183.887"/><use xlink:href="#DejaVuSans-72" x="223.096"/><use xlink:href="#DejaVuSans-69" x="264.209"/><use xlink:href="#DejaVuSans-61" x="291.992"/></g></g></g><defs><clipPath id="p8b007bdb3f"><path d="M67.645 7.2h558v277.2h-558z"/></clipPath></defs></svg>